<svg width="640" height="900" viewBox="0 0 640 900" fill="none" xmlns="http://www.w3.org/2000/svg">
<rect x="0.0195312" width="639.02" height="900" fill="#FADB38"/>
<mask id="mask0_612_101" style="mask-type:alpha" maskUnits="userSpaceOnUse" x="0" y="0" width="640" height="900">
<rect x="0.0195312" width="639.02" height="900" fill="white"/>
</mask>
<g mask="url(#mask0_612_101)">
<path d="M-63.1132 210.157L256.298 -5.28879L292.563 48.5701L-26.8486 264.016L-63.1132 210.157ZM139.761 104.955C213.397 170.433 300.839 206.37 397.06 184.518C391.912 204.588 389.815 239.198 391.702 259.709C281.037 277.818 189.738 233.072 95.5235 152.429L139.761 104.955ZM3.73241 30.7326L60.7702 -7.73985C138.002 110.811 234.795 256.104 133.963 433.556C116.157 424.819 87.9832 416.852 64.9691 415.778C164.21 254.44 71.4735 134.419 3.73241 30.7326ZM343.861 595.161L570.23 442.473L601.692 489.198L375.323 641.886L343.861 595.161ZM469.391 667.648L486.202 692.616L602.06 614.468L585.249 589.501L469.391 667.648ZM394.592 657.416L606.701 514.346L679.711 622.777L467.602 765.847L394.592 657.416ZM508.729 740.699C572.646 768.645 654.585 751.758 751.602 697.212C748.353 715.482 749.332 745.423 752.282 763.662C646.315 816.465 560.511 822.993 475.069 781.557L508.729 740.699ZM408.772 508.328L460.106 473.703L571.541 639.203C621.976 714.106 644.064 794.644 566.08 889.776C552.334 882.45 522.836 871.745 504.58 868.498C582.523 789.473 558.874 731.254 519.967 673.472L408.772 508.328ZM287.42 584.476L346.113 567.708C362.699 644.695 367.443 737.968 353.826 806.282C341.143 796.684 308.383 777.287 291.182 770.217C303.084 717.064 302.025 646.201 287.42 584.476ZM323.434 709.562L339.486 627.157L339.726 627.514L532.578 913.929L483.383 947.112L323.434 709.562Z" fill="#C1A131"/>
<g filter="url(#filter0_d_612_101)">
<path d="M-239 996H642.536L607.5 745.5L544.5 589L443 490.5L487 393L467 260L501.5 201L443 91L355 25.5L267.5 91L193 182.5L224 260L193 377L236.5 490.5L97 615.5L5.5 763L-85 943.5L-239 996Z" fill="url(#paint0_linear_612_101)" shape-rendering="crispEdges"/>
</g>
</g>
<path d="M39.6992 682.35H50.9192L45.3942 659.4H45.2242L39.6992 682.35ZM36.6392 695.1L33.8342 707H16.1542L36.5542 644.95H54.4042L74.8042 707H56.7842L53.8942 695.1H36.6392ZM131.272 673H131.102L122.772 694.25H107.472L99.1421 673H98.9721V707H82.9921V644.95H100.672L115.037 681.5H115.207L129.572 644.95H147.592V707H131.272V673ZM180.423 656.85C179.177 656.85 177.902 656.992 176.598 657.275V669.175H179.148C185.665 669.175 188.923 667.05 188.923 662.8C188.923 658.833 186.09 656.85 180.423 656.85ZM205.923 689.15C205.923 695.553 203.827 700.285 199.633 703.345C195.497 706.348 188.81 707.85 179.573 707.85C172.66 707.85 166.143 707.425 160.023 706.575V645.375C165.86 644.525 172.093 644.1 178.723 644.1C195.723 644.1 204.223 649.483 204.223 660.25C204.223 663.877 203.062 666.965 200.738 669.515C198.415 672.008 195.327 673.567 191.473 674.19V674.36C195.837 674.927 199.322 676.598 201.928 679.375C204.592 682.152 205.923 685.41 205.923 689.15ZM190.198 687.45C190.198 683.2 187.082 681.075 180.848 681.075H176.598V694.675C177.902 694.958 179.177 695.1 180.423 695.1C183.823 695.1 186.288 694.477 187.818 693.23C189.405 691.983 190.198 690.057 190.198 687.45ZM233.356 682.35H244.576L239.051 659.4H238.881L233.356 682.35ZM230.296 695.1L227.491 707H209.811L230.211 644.95H248.061L268.461 707H250.441L247.551 695.1H230.296ZM315.301 661.525C309.578 658.692 303.769 657.275 297.876 657.275C295.213 657.275 293.201 657.757 291.841 658.72C290.481 659.627 289.801 660.845 289.801 662.375C289.801 664.755 291.643 666.455 295.326 667.475C304.223 669.855 310.484 672.717 314.111 676.06C317.738 679.347 319.551 683.568 319.551 688.725C319.551 694.958 317.398 699.718 313.091 703.005C308.784 706.235 302.296 707.85 293.626 707.85C289.999 707.85 286.089 707.255 281.896 706.065C277.759 704.818 274.444 703.288 271.951 701.475L275.776 688.3C278.666 690.283 281.783 691.842 285.126 692.975C288.526 694.108 291.643 694.675 294.476 694.675C299.576 694.675 302.126 692.833 302.126 689.15C302.126 686.77 299.859 684.928 295.326 683.625C287.053 681.245 281.159 678.383 277.646 675.04C274.133 671.697 272.376 667.475 272.376 662.375C272.376 656.765 274.501 652.317 278.751 649.03C283.058 645.743 289.149 644.1 297.026 644.1C305.413 644.1 312.496 645.517 318.276 648.35L315.301 661.525ZM369.422 661.525C363.699 658.692 357.891 657.275 351.997 657.275C349.334 657.275 347.322 657.757 345.962 658.72C344.602 659.627 343.922 660.845 343.922 662.375C343.922 664.755 345.764 666.455 349.447 667.475C358.344 669.855 364.606 672.717 368.232 676.06C371.859 679.347 373.672 683.568 373.672 688.725C373.672 694.958 371.519 699.718 367.212 703.005C362.906 706.235 356.417 707.85 347.747 707.85C344.121 707.85 340.211 707.255 336.017 706.065C331.881 704.818 328.566 703.288 326.072 701.475L329.897 688.3C332.787 690.283 335.904 691.842 339.247 692.975C342.647 694.108 345.764 694.675 348.597 694.675C353.697 694.675 356.247 692.833 356.247 689.15C356.247 686.77 353.981 684.928 349.447 683.625C341.174 681.245 335.281 678.383 331.767 675.04C328.254 671.697 326.497 667.475 326.497 662.375C326.497 656.765 328.622 652.317 332.872 649.03C337.179 645.743 343.271 644.1 351.147 644.1C359.534 644.1 366.617 645.517 372.397 648.35L369.422 661.525ZM400.7 682.35H411.92L406.395 659.4H406.225L400.7 682.35ZM397.64 695.1L394.835 707H377.155L397.555 644.95H415.405L435.805 707H417.785L414.895 695.1H397.64ZM460.568 694.25C461.871 694.533 463.146 694.675 464.393 694.675C474.593 694.675 479.693 688.158 479.693 675.125C479.693 663.225 474.593 657.275 464.393 657.275C463.146 657.275 461.871 657.417 460.568 657.7V694.25ZM495.843 675.125C495.843 685.495 492.925 693.542 487.088 699.265C481.251 704.988 473.12 707.85 462.693 707.85C456.063 707.85 449.83 707.425 443.993 706.575V645.375C449.83 644.525 456.063 644.1 462.693 644.1C473.12 644.1 481.251 646.877 487.088 652.43C492.925 657.927 495.843 665.492 495.843 675.125ZM510.013 652.685C515.793 646.962 523.556 644.1 533.303 644.1C543.05 644.1 550.785 646.962 556.508 652.685C562.288 658.352 565.178 666.115 565.178 675.975C565.178 685.835 562.288 693.627 556.508 699.35C550.785 705.017 543.05 707.85 533.303 707.85C523.556 707.85 515.793 705.017 510.013 699.35C504.29 693.627 501.428 685.835 501.428 675.975C501.428 666.115 504.29 658.352 510.013 652.685ZM518.853 675.975C518.853 687.875 523.67 693.825 533.303 693.825C542.936 693.825 547.753 687.875 547.753 675.975C547.753 664.075 542.936 658.125 533.303 658.125C523.67 658.125 518.853 664.075 518.853 675.975ZM590.309 685.325V707H573.734V645.375C581.101 644.525 588.468 644.1 595.834 644.1C612.834 644.1 621.334 650.475 621.334 663.225C621.334 666.795 620.229 670.11 618.019 673.17C615.809 676.23 612.948 678.412 609.434 679.715V679.885C611.134 680.848 612.551 682.095 613.684 683.625C614.818 685.098 615.894 687.223 616.914 690L623.034 707H605.609L600.339 690.85C599.716 688.867 598.923 687.45 597.959 686.6C596.996 685.75 595.721 685.325 594.134 685.325H590.309ZM590.309 673H594.984C597.874 673 600.141 672.292 601.784 670.875C603.484 669.402 604.334 667.418 604.334 664.925C604.334 659.542 601.218 656.85 594.984 656.85C593.171 656.85 591.613 656.992 590.309 657.275V673Z" fill="white"/>
<path d="M47.4486 749.45V755.225H40.5186V775H33.3786V755.225H26.4486V749.45H47.4486ZM57.6409 763.1H58.6909C58.6909 762.307 58.5393 761.758 58.2359 761.455C57.9326 761.152 57.3843 761 56.5909 761C54.1409 761 51.7493 761.525 49.4159 762.575L48.5409 758.025C51.1076 756.975 53.9076 756.45 56.9409 756.45C59.9743 756.45 62.1326 757.022 63.4159 758.165C64.6993 759.285 65.3409 761.163 65.3409 763.8V770.1C65.3409 771.78 65.5159 773.413 65.8659 775H59.5659C59.4259 774.207 59.3093 773.39 59.2159 772.55H59.1459C58.5159 773.39 57.6993 774.067 56.6959 774.58C55.6926 775.093 54.6659 775.35 53.6159 775.35C51.8193 775.35 50.3726 774.86 49.2759 773.88C48.2026 772.877 47.6659 771.5 47.6659 769.75C47.6659 767.743 48.5176 766.133 50.2209 764.92C51.9476 763.707 54.4209 763.1 57.6409 763.1ZM53.6159 769.05C53.6159 770.1 54.1993 770.625 55.3659 770.625C56.3693 770.625 57.1743 770.345 57.7809 769.785C58.3876 769.225 58.6909 768.455 58.6909 767.475V766.95H57.6409C56.3109 766.95 55.3076 767.148 54.6309 767.545C53.9543 767.918 53.6159 768.42 53.6159 769.05ZM76.8324 767.65H76.7624V775H70.1124V748.75H76.7624V763.45H76.8324L81.6624 756.8H89.1874L82.1874 765.55L89.3624 775H81.8374L76.8324 767.65ZM96.6189 764.15H102.534C102.534 761.933 101.542 760.825 99.5589 760.825C97.7622 760.825 96.7822 761.933 96.6189 764.15ZM96.6889 768C97.0856 769.867 98.4156 770.8 100.679 770.8C102.429 770.8 104.097 770.392 105.684 769.575L107.084 773.95C104.937 774.883 102.604 775.35 100.084 775.35C97.0739 775.35 94.6589 774.498 92.8389 772.795C91.0189 771.092 90.1089 768.793 90.1089 765.9C90.1089 762.983 90.9372 760.685 92.5939 759.005C94.2739 757.302 96.5372 756.45 99.3839 756.45C102.301 756.45 104.576 757.278 106.209 758.935C107.842 760.568 108.659 762.89 108.659 765.9C108.659 766.53 108.601 767.23 108.484 768H96.6889ZM123.575 769.4C126.702 767.043 129.047 765.153 130.61 763.73C132.174 762.283 133.2 761.128 133.69 760.265C134.18 759.402 134.425 758.48 134.425 757.5C134.425 755.75 133.434 754.875 131.45 754.875C129.7 754.875 127.425 755.75 124.625 757.5L122.875 751.9C124.065 751.107 125.57 750.442 127.39 749.905C129.21 749.368 130.914 749.1 132.5 749.1C135.417 749.1 137.657 749.788 139.22 751.165C140.807 752.518 141.6 754.397 141.6 756.8C141.6 758.713 140.994 760.533 139.78 762.26C138.567 763.987 136.199 766.343 132.675 769.33V769.4H141.775V775H123.575V769.4ZM171.578 769.295L172.978 773.95C170.972 774.883 168.872 775.35 166.678 775.35C163.458 775.35 160.903 774.498 159.013 772.795C157.123 771.092 156.178 768.793 156.178 765.9C156.178 762.983 157.1 760.685 158.943 759.005C160.81 757.302 163.388 756.45 166.678 756.45C168.942 756.45 171.042 756.917 172.978 757.85L171.578 762.575C170.132 761.688 168.615 761.245 167.028 761.245C165.698 761.245 164.66 761.642 163.913 762.435C163.19 763.228 162.828 764.383 162.828 765.9C162.828 767.37 163.213 768.525 163.983 769.365C164.753 770.205 165.768 770.625 167.028 770.625C168.615 770.625 170.132 770.182 171.578 769.295ZM186.122 763.1H187.172C187.172 762.307 187.021 761.758 186.717 761.455C186.414 761.152 185.866 761 185.072 761C182.622 761 180.231 761.525 177.897 762.575L177.022 758.025C179.589 756.975 182.389 756.45 185.422 756.45C188.456 756.45 190.614 757.022 191.897 758.165C193.181 759.285 193.822 761.163 193.822 763.8V770.1C193.822 771.78 193.997 773.413 194.347 775H188.047C187.907 774.207 187.791 773.39 187.697 772.55H187.627C186.997 773.39 186.181 774.067 185.177 774.58C184.174 775.093 183.147 775.35 182.097 775.35C180.301 775.35 178.854 774.86 177.757 773.88C176.684 772.877 176.147 771.5 176.147 769.75C176.147 767.743 176.999 766.133 178.702 764.92C180.429 763.707 182.902 763.1 186.122 763.1ZM182.097 769.05C182.097 770.1 182.681 770.625 183.847 770.625C184.851 770.625 185.656 770.345 186.262 769.785C186.869 769.225 187.172 768.455 187.172 767.475V766.95H186.122C184.792 766.95 183.789 767.148 183.112 767.545C182.436 767.918 182.097 768.42 182.097 769.05ZM213.119 756.45V761.7C210.506 761.7 208.534 762.19 207.204 763.17C205.874 764.15 205.209 765.527 205.209 767.3V775H198.419V756.8H204.684L204.719 760.3H204.789C206.796 757.733 209.572 756.45 213.119 756.45ZM215.108 765.9C215.108 762.89 215.75 760.568 217.033 758.935C218.34 757.278 220.09 756.45 222.283 756.45C224.266 756.45 225.935 757.267 227.288 758.9H227.358V748.75H234.008V775H227.883L227.743 772.55H227.673C226.203 774.417 224.406 775.35 222.283 775.35C220.183 775.35 218.456 774.51 217.103 772.83C215.773 771.15 215.108 768.84 215.108 765.9ZM221.408 765.9C221.408 767.3 221.688 768.385 222.248 769.155C222.808 769.902 223.52 770.275 224.383 770.275C225.293 770.275 226.016 769.913 226.553 769.19C227.09 768.467 227.358 767.428 227.358 766.075V765.725C227.358 764.395 227.09 763.368 226.553 762.645C226.016 761.898 225.293 761.525 224.383 761.525C223.45 761.525 222.715 761.898 222.178 762.645C221.665 763.368 221.408 764.453 221.408 765.9ZM253.105 762.295C250.982 761.525 248.998 761.14 247.155 761.14C246.152 761.14 245.463 761.233 245.09 761.42C244.717 761.583 244.53 761.852 244.53 762.225C244.53 762.575 244.682 762.843 244.985 763.03C245.288 763.217 245.837 763.357 246.63 763.45C249.5 763.8 251.553 764.477 252.79 765.48C254.05 766.483 254.68 767.848 254.68 769.575C254.68 771.348 253.968 772.76 252.545 773.81C251.145 774.837 249.115 775.35 246.455 775.35C243.305 775.35 240.447 774.767 237.88 773.6L239.105 768.91C241.205 770.03 243.422 770.59 245.755 770.59C247.272 770.59 248.03 770.193 248.03 769.4C248.03 769.097 247.913 768.887 247.68 768.77C247.447 768.653 246.863 768.513 245.93 768.35C243.107 767.907 241.088 767.183 239.875 766.18C238.662 765.153 238.055 763.777 238.055 762.05C238.055 760.3 238.755 758.935 240.155 757.955C241.555 756.952 243.655 756.45 246.455 756.45C249.232 756.45 251.857 756.858 254.33 757.675L253.105 762.295ZM278.647 775.35C271.997 775.35 268.672 773.133 268.672 768.7C268.672 766.46 270.363 764.22 273.747 761.98C272.23 760.603 271.203 759.46 270.667 758.55C270.153 757.64 269.897 756.59 269.897 755.4C269.897 753.58 270.713 752.075 272.347 750.885C273.98 749.695 276.197 749.1 278.997 749.1C282.077 749.1 284.387 749.66 285.927 750.78C287.49 751.9 288.272 753.498 288.272 755.575C288.272 758.048 286.347 760.452 282.497 762.785L285.297 765.375V761.7H291.597V771.255L295.622 775H288.272L286.732 773.6C283.722 774.767 281.027 775.35 278.647 775.35ZM277.702 765.55C276.465 766.437 275.847 767.253 275.847 768C275.847 769.4 276.897 770.1 278.997 770.1C280 770.1 281.015 769.878 282.042 769.435L277.702 765.55ZM278.647 759.11C279.883 758.387 280.688 757.827 281.062 757.43C281.435 757.01 281.622 756.567 281.622 756.1C281.622 755.4 281.4 754.852 280.957 754.455C280.537 754.035 279.942 753.825 279.172 753.825C278.378 753.825 277.737 754.012 277.247 754.385C276.78 754.758 276.547 755.213 276.547 755.75C276.547 756.24 276.675 756.707 276.932 757.15C277.188 757.57 277.76 758.223 278.647 759.11ZM314.842 756.8L314.982 759.25H315.052C316.568 757.383 318.365 756.45 320.442 756.45C322.635 756.45 324.373 757.278 325.657 758.935C326.963 760.568 327.617 762.89 327.617 765.9C327.617 768.84 326.94 771.15 325.587 772.83C324.257 774.51 322.542 775.35 320.442 775.35C318.388 775.35 316.72 774.533 315.437 772.9H315.367V782.7H308.717V756.8H314.842ZM321.317 765.9C321.317 764.453 321.048 763.368 320.512 762.645C319.998 761.898 319.275 761.525 318.342 761.525C317.432 761.525 316.708 761.898 316.172 762.645C315.635 763.368 315.367 764.395 315.367 765.725V766.075C315.367 767.428 315.635 768.467 316.172 769.19C316.708 769.913 317.432 770.275 318.342 770.275C319.205 770.275 319.917 769.902 320.477 769.155C321.037 768.385 321.317 767.3 321.317 765.9ZM342.308 772.55C341.654 773.413 340.838 774.102 339.858 774.615C338.901 775.105 337.921 775.35 336.918 775.35C334.724 775.35 333.149 774.778 332.193 773.635C331.259 772.492 330.793 770.497 330.793 767.65V756.8H337.373V766.95C337.373 768.303 337.501 769.202 337.758 769.645C338.014 770.065 338.493 770.275 339.193 770.275C339.916 770.275 340.558 769.878 341.118 769.085C341.701 768.292 341.993 767.347 341.993 766.25V756.8H348.643V775H342.518L342.378 772.55H342.308ZM362.673 775.35C360.363 775.35 358.648 774.825 357.528 773.775C356.408 772.702 355.848 771.01 355.848 768.7V762.05H352.173V757.5H355.848V750.85H362.638V757.5H368.273V762.05H362.638V767.65C362.638 768.77 362.766 769.517 363.023 769.89C363.279 770.263 363.746 770.45 364.423 770.45C365.449 770.45 366.499 770.275 367.573 769.925L368.273 774.65C366.546 775.117 364.679 775.35 362.673 775.35ZM384.229 769.4C387.356 767.043 389.701 765.153 391.264 763.73C392.828 762.283 393.854 761.128 394.344 760.265C394.834 759.402 395.079 758.48 395.079 757.5C395.079 755.75 394.088 754.875 392.104 754.875C390.354 754.875 388.079 755.75 385.279 757.5L383.529 751.9C384.719 751.107 386.224 750.442 388.044 749.905C389.864 749.368 391.568 749.1 393.154 749.1C396.071 749.1 398.311 749.788 399.874 751.165C401.461 752.518 402.254 754.397 402.254 756.8C402.254 758.713 401.648 760.533 400.434 762.26C399.221 763.987 396.853 766.343 393.329 769.33V769.4H402.429V775H384.229V769.4ZM432.233 769.295L433.633 773.95C431.626 774.883 429.526 775.35 427.333 775.35C424.113 775.35 421.558 774.498 419.668 772.795C417.778 771.092 416.833 768.793 416.833 765.9C416.833 762.983 417.754 760.685 419.598 759.005C421.464 757.302 424.043 756.45 427.333 756.45C429.596 756.45 431.696 756.917 433.633 757.85L432.233 762.575C430.786 761.688 429.269 761.245 427.683 761.245C426.353 761.245 425.314 761.642 424.568 762.435C423.844 763.228 423.483 764.383 423.483 765.9C423.483 767.37 423.868 768.525 424.638 769.365C425.408 770.205 426.423 770.625 427.683 770.625C429.269 770.625 430.786 770.182 432.233 769.295ZM446.777 763.1H447.827C447.827 762.307 447.675 761.758 447.372 761.455C447.068 761.152 446.52 761 445.727 761C443.277 761 440.885 761.525 438.552 762.575L437.677 758.025C440.243 756.975 443.043 756.45 446.077 756.45C449.11 756.45 451.268 757.022 452.552 758.165C453.835 759.285 454.477 761.163 454.477 763.8V770.1C454.477 771.78 454.652 773.413 455.002 775H448.702C448.562 774.207 448.445 773.39 448.352 772.55H448.282C447.652 773.39 446.835 774.067 445.832 774.58C444.828 775.093 443.802 775.35 442.752 775.35C440.955 775.35 439.508 774.86 438.412 773.88C437.338 772.877 436.802 771.5 436.802 769.75C436.802 767.743 437.653 766.133 439.357 764.92C441.083 763.707 443.557 763.1 446.777 763.1ZM442.752 769.05C442.752 770.1 443.335 770.625 444.502 770.625C445.505 770.625 446.31 770.345 446.917 769.785C447.523 769.225 447.827 768.455 447.827 767.475V766.95H446.777C445.447 766.95 444.443 767.148 443.767 767.545C443.09 767.918 442.752 768.42 442.752 769.05ZM473.773 756.45V761.7C471.16 761.7 469.188 762.19 467.858 763.17C466.528 764.15 465.863 765.527 465.863 767.3V775H459.073V756.8H465.338L465.373 760.3H465.443C467.45 757.733 470.226 756.45 473.773 756.45ZM475.762 765.9C475.762 762.89 476.404 760.568 477.687 758.935C478.994 757.278 480.744 756.45 482.937 756.45C484.921 756.45 486.589 757.267 487.942 758.9H488.012V748.75H494.662V775H488.537L488.397 772.55H488.327C486.857 774.417 485.061 775.35 482.937 775.35C480.837 775.35 479.111 774.51 477.757 772.83C476.427 771.15 475.762 768.84 475.762 765.9ZM482.062 765.9C482.062 767.3 482.342 768.385 482.902 769.155C483.462 769.902 484.174 770.275 485.037 770.275C485.947 770.275 486.671 769.913 487.207 769.19C487.744 768.467 488.012 767.428 488.012 766.075V765.725C488.012 764.395 487.744 763.368 487.207 762.645C486.671 761.898 485.947 761.525 485.037 761.525C484.104 761.525 483.369 761.898 482.832 762.645C482.319 763.368 482.062 764.453 482.062 765.9ZM513.759 762.295C511.636 761.525 509.653 761.14 507.809 761.14C506.806 761.14 506.118 761.233 505.744 761.42C505.371 761.583 505.184 761.852 505.184 762.225C505.184 762.575 505.336 762.843 505.639 763.03C505.943 763.217 506.491 763.357 507.284 763.45C510.154 763.8 512.208 764.477 513.444 765.48C514.704 766.483 515.334 767.848 515.334 769.575C515.334 771.348 514.623 772.76 513.199 773.81C511.799 774.837 509.769 775.35 507.109 775.35C503.959 775.35 501.101 774.767 498.534 773.6L499.759 768.91C501.859 770.03 504.076 770.59 506.409 770.59C507.926 770.59 508.684 770.193 508.684 769.4C508.684 769.097 508.568 768.887 508.334 768.77C508.101 768.653 507.518 768.513 506.584 768.35C503.761 767.907 501.743 767.183 500.529 766.18C499.316 765.153 498.709 763.777 498.709 762.05C498.709 760.3 499.409 758.935 500.809 757.955C502.209 756.952 504.309 756.45 507.109 756.45C509.886 756.45 512.511 756.858 514.984 757.675L513.759 762.295ZM549.276 765.9C549.276 768.84 548.599 771.15 547.246 772.83C545.916 774.51 544.201 775.35 542.101 775.35C539.978 775.35 538.181 774.417 536.711 772.55H536.641L536.501 775H530.376V748.75H537.026V758.9H537.096C538.449 757.267 540.118 756.45 542.101 756.45C544.294 756.45 546.033 757.278 547.316 758.935C548.623 760.568 549.276 762.89 549.276 765.9ZM542.976 765.9C542.976 764.453 542.708 763.368 542.171 762.645C541.658 761.898 540.934 761.525 540.001 761.525C539.091 761.525 538.368 761.898 537.831 762.645C537.294 763.368 537.026 764.395 537.026 765.725V766.075C537.026 767.428 537.294 768.467 537.831 769.19C538.368 769.913 539.091 770.275 540.001 770.275C540.864 770.275 541.576 769.902 542.136 769.155C542.696 768.385 542.976 767.3 542.976 765.9ZM561.723 763.1H562.773C562.773 762.307 562.621 761.758 562.318 761.455C562.015 761.152 561.466 761 560.673 761C558.223 761 555.831 761.525 553.498 762.575L552.623 758.025C555.19 756.975 557.99 756.45 561.023 756.45C564.056 756.45 566.215 757.022 567.498 758.165C568.781 759.285 569.423 761.163 569.423 763.8V770.1C569.423 771.78 569.598 773.413 569.948 775H563.648C563.508 774.207 563.391 773.39 563.298 772.55H563.228C562.598 773.39 561.781 774.067 560.778 774.58C559.775 775.093 558.748 775.35 557.698 775.35C555.901 775.35 554.455 774.86 553.358 773.88C552.285 772.877 551.748 771.5 551.748 769.75C551.748 767.743 552.6 766.133 554.303 764.92C556.03 763.707 558.503 763.1 561.723 763.1ZM557.698 769.05C557.698 770.1 558.281 770.625 559.448 770.625C560.451 770.625 561.256 770.345 561.863 769.785C562.47 769.225 562.773 768.455 562.773 767.475V766.95H561.723C560.393 766.95 559.39 767.148 558.713 767.545C558.036 767.918 557.698 768.42 557.698 769.05ZM588.194 769.295L589.594 773.95C587.588 774.883 585.488 775.35 583.294 775.35C580.074 775.35 577.519 774.498 575.629 772.795C573.739 771.092 572.794 768.793 572.794 765.9C572.794 762.983 573.716 760.685 575.559 759.005C577.426 757.302 580.004 756.45 583.294 756.45C585.558 756.45 587.658 756.917 589.594 757.85L588.194 762.575C586.748 761.688 585.231 761.245 583.644 761.245C582.314 761.245 581.276 761.642 580.529 762.435C579.806 763.228 579.444 764.383 579.444 765.9C579.444 767.37 579.829 768.525 580.599 769.365C581.369 770.205 582.384 770.625 583.644 770.625C585.231 770.625 586.748 770.182 588.194 769.295ZM600.534 767.65H600.464V775H593.814V748.75H600.464V763.45H600.534L605.364 756.8H612.889L605.889 765.55L613.064 775H605.539L600.534 767.65ZM27.2723 813.1H28.3223C28.3223 812.307 28.1706 811.758 27.8673 811.455C27.564 811.152 27.0156 811 26.2223 811C23.7723 811 21.3806 811.525 19.0473 812.575L18.1723 808.025C20.739 806.975 23.539 806.45 26.5723 806.45C29.6056 806.45 31.764 807.022 33.0473 808.165C34.3306 809.285 34.9723 811.163 34.9723 813.8V820.1C34.9723 821.78 35.1473 823.413 35.4973 825H29.1973C29.0573 824.207 28.9406 823.39 28.8473 822.55H28.7773C28.1473 823.39 27.3306 824.067 26.3273 824.58C25.324 825.093 24.2973 825.35 23.2473 825.35C21.4506 825.35 20.004 824.86 18.9073 823.88C17.834 822.877 17.2973 821.5 17.2973 819.75C17.2973 817.743 18.149 816.133 19.8523 814.92C21.579 813.707 24.0523 813.1 27.2723 813.1ZM23.2473 819.05C23.2473 820.1 23.8306 820.625 24.9973 820.625C26.0006 820.625 26.8056 820.345 27.4123 819.785C28.019 819.225 28.3223 818.455 28.3223 817.475V816.95H27.2723C25.9423 816.95 24.939 817.148 24.2623 817.545C23.5856 817.918 23.2473 818.42 23.2473 819.05ZM48.1342 825.35C45.8242 825.35 44.1092 824.825 42.9892 823.775C41.8692 822.702 41.3092 821.01 41.3092 818.7V812.05H37.6342V807.5H41.3092V800.85H48.0992V807.5H53.7342V812.05H48.0992V817.65C48.0992 818.77 48.2275 819.517 48.4842 819.89C48.7409 820.263 49.2075 820.45 49.8842 820.45C50.9109 820.45 51.9609 820.275 53.0342 819.925L53.7342 824.65C52.0075 825.117 50.1409 825.35 48.1342 825.35ZM78.8959 825.35C76.5859 825.35 74.8709 824.825 73.7509 823.775C72.6309 822.702 72.0709 821.01 72.0709 818.7V812.05H68.3959V807.5H72.0709V800.85H78.8609V807.5H84.4959V812.05H78.8609V817.65C78.8609 818.77 78.9893 819.517 79.2459 819.89C79.5026 820.263 79.9693 820.45 80.6459 820.45C81.6726 820.45 82.7226 820.275 83.7959 819.925L84.4959 824.65C82.7693 825.117 80.9026 825.35 78.8959 825.35ZM107.265 815.2V825H100.685V815.9C100.685 814.15 100.522 812.983 100.195 812.4C99.8917 811.817 99.3317 811.525 98.5151 811.525C97.7917 811.525 97.1384 811.922 96.5551 812.715C95.9951 813.508 95.7151 814.453 95.7151 815.55V825H89.0651V798.75H95.7151V808.9H95.7851C96.3684 808.153 97.1151 807.558 98.0251 807.115C98.9351 806.672 99.8567 806.45 100.79 806.45C103.1 806.45 104.757 807.103 105.76 808.41C106.763 809.693 107.265 811.957 107.265 815.2ZM116.802 814.15H122.717C122.717 811.933 121.725 810.825 119.742 810.825C117.945 810.825 116.965 811.933 116.802 814.15ZM116.872 818C117.269 819.867 118.599 820.8 120.862 820.8C122.612 820.8 124.28 820.392 125.867 819.575L127.267 823.95C125.12 824.883 122.787 825.35 120.267 825.35C117.257 825.35 114.842 824.498 113.022 822.795C111.202 821.092 110.292 818.793 110.292 815.9C110.292 812.983 111.12 810.685 112.777 809.005C114.457 807.302 116.72 806.45 119.567 806.45C122.484 806.45 124.759 807.278 126.392 808.935C128.025 810.568 128.842 812.89 128.842 815.9C128.842 816.53 128.784 817.23 128.667 818H116.872ZM162.413 815.9C162.413 818.84 161.737 821.15 160.383 822.83C159.053 824.51 157.338 825.35 155.238 825.35C153.115 825.35 151.318 824.417 149.848 822.55H149.778L149.638 825H143.513V798.75H150.163V808.9H150.233C151.587 807.267 153.255 806.45 155.238 806.45C157.432 806.45 159.17 807.278 160.453 808.935C161.76 810.568 162.413 812.89 162.413 815.9ZM156.113 815.9C156.113 814.453 155.845 813.368 155.308 812.645C154.795 811.898 154.072 811.525 153.138 811.525C152.228 811.525 151.505 811.898 150.968 812.645C150.432 813.368 150.163 814.395 150.163 815.725V816.075C150.163 817.428 150.432 818.467 150.968 819.19C151.505 819.913 152.228 820.275 153.138 820.275C154.002 820.275 154.713 819.902 155.273 819.155C155.833 818.385 156.113 817.3 156.113 815.9ZM167.397 808.97C169.077 807.29 171.445 806.45 174.502 806.45C177.559 806.45 179.927 807.29 181.607 808.97C183.287 810.65 184.127 812.96 184.127 815.9C184.127 818.84 183.287 821.15 181.607 822.83C179.927 824.51 177.559 825.35 174.502 825.35C171.445 825.35 169.077 824.51 167.397 822.83C165.717 821.15 164.877 818.84 164.877 815.9C164.877 812.96 165.717 810.65 167.397 808.97ZM172.157 819.505C172.67 820.228 173.452 820.59 174.502 820.59C175.552 820.59 176.334 820.228 176.847 819.505C177.36 818.782 177.617 817.58 177.617 815.9C177.617 814.22 177.36 813.018 176.847 812.295C176.334 811.572 175.552 811.21 174.502 811.21C173.452 811.21 172.67 811.572 172.157 812.295C171.644 813.018 171.387 814.22 171.387 815.9C171.387 817.58 171.644 818.782 172.157 819.505ZM196.611 825.35C194.301 825.35 192.586 824.825 191.466 823.775C190.346 822.702 189.786 821.01 189.786 818.7V812.05H186.111V807.5H189.786V800.85H196.576V807.5H202.211V812.05H196.576V817.65C196.576 818.77 196.704 819.517 196.961 819.89C197.217 820.263 197.684 820.45 198.361 820.45C199.387 820.45 200.437 820.275 201.511 819.925L202.211 824.65C200.484 825.117 198.617 825.35 196.611 825.35ZM215.546 825.35C213.236 825.35 211.521 824.825 210.401 823.775C209.281 822.702 208.721 821.01 208.721 818.7V812.05H205.046V807.5H208.721V800.85H215.511V807.5H221.146V812.05H215.511V817.65C215.511 818.77 215.64 819.517 215.896 819.89C216.153 820.263 216.62 820.45 217.296 820.45C218.323 820.45 219.373 820.275 220.446 819.925L221.146 824.65C219.42 825.117 217.553 825.35 215.546 825.35ZM226.494 808.97C228.174 807.29 230.542 806.45 233.599 806.45C236.655 806.45 239.024 807.29 240.704 808.97C242.384 810.65 243.224 812.96 243.224 815.9C243.224 818.84 242.384 821.15 240.704 822.83C239.024 824.51 236.655 825.35 233.599 825.35C230.542 825.35 228.174 824.51 226.494 822.83C224.814 821.15 223.974 818.84 223.974 815.9C223.974 812.96 224.814 810.65 226.494 808.97ZM231.254 819.505C231.767 820.228 232.549 820.59 233.599 820.59C234.649 820.59 235.43 820.228 235.944 819.505C236.457 818.782 236.714 817.58 236.714 815.9C236.714 814.22 236.457 813.018 235.944 812.295C235.43 811.572 234.649 811.21 233.599 811.21C232.549 811.21 231.767 811.572 231.254 812.295C230.74 813.018 230.484 814.22 230.484 815.9C230.484 817.58 230.74 818.782 231.254 819.505ZM267.004 825V814.85C267.004 813.45 266.876 812.528 266.619 812.085C266.363 811.642 265.896 811.42 265.219 811.42C264.613 811.42 264.111 811.723 263.714 812.33C263.318 812.913 263.119 813.753 263.119 814.85V825H256.749V814.85C256.749 813.45 256.621 812.528 256.364 812.085C256.131 811.642 255.676 811.42 254.999 811.42C254.393 811.42 253.891 811.723 253.494 812.33C253.098 812.913 252.899 813.753 252.899 814.85V825H246.424V806.8H252.374L252.514 809.25H252.584C253.238 808.387 253.996 807.71 254.859 807.22C255.723 806.707 256.586 806.45 257.449 806.45C258.569 806.45 259.456 806.648 260.109 807.045C260.786 807.418 261.404 808.095 261.964 809.075H262.034C263.038 808.095 263.959 807.418 264.799 807.045C265.639 806.648 266.596 806.45 267.669 806.45C269.676 806.45 271.123 806.998 272.009 808.095C272.919 809.192 273.374 811.093 273.374 813.8V825H267.004ZM290.034 808.97C291.714 807.29 294.082 806.45 297.139 806.45C300.195 806.45 302.564 807.29 304.244 808.97C305.924 810.65 306.764 812.96 306.764 815.9C306.764 818.84 305.924 821.15 304.244 822.83C302.564 824.51 300.195 825.35 297.139 825.35C294.082 825.35 291.714 824.51 290.034 822.83C288.354 821.15 287.514 818.84 287.514 815.9C287.514 812.96 288.354 810.65 290.034 808.97ZM294.794 819.505C295.307 820.228 296.089 820.59 297.139 820.59C298.189 820.59 298.97 820.228 299.484 819.505C299.997 818.782 300.254 817.58 300.254 815.9C300.254 814.22 299.997 813.018 299.484 812.295C298.97 811.572 298.189 811.21 297.139 811.21C296.089 811.21 295.307 811.572 294.794 812.295C294.28 813.018 294.024 814.22 294.024 815.9C294.024 817.58 294.28 818.782 294.794 819.505ZM320.647 799.1C322.141 799.1 323.716 799.275 325.372 799.625L324.497 804.525C323.657 804.175 322.782 804 321.872 804C321.056 804 320.496 804.198 320.192 804.595C319.889 804.968 319.737 805.703 319.737 806.8V807.5H325.022V812.05H319.737V825H312.947V812.05H308.922V807.5H312.947V806.8C312.947 804.303 313.612 802.402 314.942 801.095C316.272 799.765 318.174 799.1 320.647 799.1ZM350.385 825.35C348.075 825.35 346.36 824.825 345.24 823.775C344.12 822.702 343.56 821.01 343.56 818.7V812.05H339.885V807.5H343.56V800.85H350.35V807.5H355.985V812.05H350.35V817.65C350.35 818.77 350.479 819.517 350.735 819.89C350.992 820.263 351.459 820.45 352.135 820.45C353.162 820.45 354.212 820.275 355.285 819.925L355.985 824.65C354.259 825.117 352.392 825.35 350.385 825.35ZM378.754 815.2V825H372.174V815.9C372.174 814.15 372.011 812.983 371.684 812.4C371.381 811.817 370.821 811.525 370.004 811.525C369.281 811.525 368.628 811.922 368.044 812.715C367.484 813.508 367.204 814.453 367.204 815.55V825H360.554V798.75H367.204V808.9H367.274C367.858 808.153 368.604 807.558 369.514 807.115C370.424 806.672 371.346 806.45 372.279 806.45C374.589 806.45 376.246 807.103 377.249 808.41C378.253 809.693 378.754 811.957 378.754 815.2ZM388.291 814.15H394.206C394.206 811.933 393.215 810.825 391.231 810.825C389.435 810.825 388.455 811.933 388.291 814.15ZM388.361 818C388.758 819.867 390.088 820.8 392.351 820.8C394.101 820.8 395.77 820.392 397.356 819.575L398.756 823.95C396.61 824.883 394.276 825.35 391.756 825.35C388.746 825.35 386.331 824.498 384.511 822.795C382.691 821.092 381.781 818.793 381.781 815.9C381.781 812.983 382.61 810.685 384.266 809.005C385.946 807.302 388.21 806.45 391.056 806.45C393.973 806.45 396.248 807.278 397.881 808.935C399.515 810.568 400.331 812.89 400.331 815.9C400.331 816.53 400.273 817.23 400.156 818H388.361ZM429.003 819.295L430.403 823.95C428.396 824.883 426.296 825.35 424.103 825.35C420.883 825.35 418.328 824.498 416.438 822.795C414.548 821.092 413.603 818.793 413.603 815.9C413.603 812.983 414.524 810.685 416.368 809.005C418.234 807.302 420.813 806.45 424.103 806.45C426.366 806.45 428.466 806.917 430.403 807.85L429.003 812.575C427.556 811.688 426.039 811.245 424.453 811.245C423.123 811.245 422.084 811.642 421.338 812.435C420.614 813.228 420.253 814.383 420.253 815.9C420.253 817.37 420.638 818.525 421.408 819.365C422.178 820.205 423.193 820.625 424.453 820.625C426.039 820.625 427.556 820.182 429.003 819.295ZM435.742 808.97C437.422 807.29 439.79 806.45 442.847 806.45C445.903 806.45 448.272 807.29 449.952 808.97C451.632 810.65 452.472 812.96 452.472 815.9C452.472 818.84 451.632 821.15 449.952 822.83C448.272 824.51 445.903 825.35 442.847 825.35C439.79 825.35 437.422 824.51 435.742 822.83C434.062 821.15 433.222 818.84 433.222 815.9C433.222 812.96 434.062 810.65 435.742 808.97ZM440.502 819.505C441.015 820.228 441.797 820.59 442.847 820.59C443.897 820.59 444.678 820.228 445.192 819.505C445.705 818.782 445.962 817.58 445.962 815.9C445.962 814.22 445.705 813.018 445.192 812.295C444.678 811.572 443.897 811.21 442.847 811.21C441.797 811.21 441.015 811.572 440.502 812.295C439.988 813.018 439.732 814.22 439.732 815.9C439.732 817.58 439.988 818.782 440.502 819.505ZM467.012 822.55C466.359 823.413 465.542 824.102 464.562 824.615C463.606 825.105 462.626 825.35 461.622 825.35C459.429 825.35 457.854 824.778 456.897 823.635C455.964 822.492 455.497 820.497 455.497 817.65V806.8H462.077V816.95C462.077 818.303 462.206 819.202 462.462 819.645C462.719 820.065 463.197 820.275 463.897 820.275C464.621 820.275 465.262 819.878 465.822 819.085C466.406 818.292 466.697 817.347 466.697 816.25V806.8H473.347V825H467.222L467.082 822.55H467.012ZM492.452 806.45V811.7C489.839 811.7 487.867 812.19 486.537 813.17C485.207 814.15 484.542 815.527 484.542 817.3V825H477.752V806.8H484.017L484.052 810.3H484.122C486.129 807.733 488.906 806.45 492.452 806.45ZM505.8 825.35C503.49 825.35 501.775 824.825 500.655 823.775C499.535 822.702 498.975 821.01 498.975 818.7V812.05H495.3V807.5H498.975V800.85H505.765V807.5H511.4V812.05H505.765V817.65C505.765 818.77 505.894 819.517 506.15 819.89C506.407 820.263 506.874 820.45 507.55 820.45C508.577 820.45 509.627 820.275 510.7 819.925L511.4 824.65C509.674 825.117 507.807 825.35 505.8 825.35ZM525.887 815.9C525.887 812.89 526.529 810.568 527.812 808.935C529.119 807.278 530.869 806.45 533.062 806.45C535.045 806.45 536.714 807.267 538.067 808.9H538.137V798.75H544.787V825H538.662L538.522 822.55H538.452C536.982 824.417 535.185 825.35 533.062 825.35C530.962 825.35 529.235 824.51 527.882 822.83C526.552 821.15 525.887 818.84 525.887 815.9ZM532.187 815.9C532.187 817.3 532.467 818.385 533.027 819.155C533.587 819.902 534.299 820.275 535.162 820.275C536.072 820.275 536.795 819.913 537.332 819.19C537.869 818.467 538.137 817.428 538.137 816.075V815.725C538.137 814.395 537.869 813.368 537.332 812.645C536.795 811.898 536.072 811.525 535.162 811.525C534.229 811.525 533.494 811.898 532.957 812.645C532.444 813.368 532.187 814.453 532.187 815.9ZM554.644 814.15H560.559C560.559 811.933 559.567 810.825 557.584 810.825C555.787 810.825 554.807 811.933 554.644 814.15ZM554.714 818C555.11 819.867 556.44 820.8 558.704 820.8C560.454 820.8 562.122 820.392 563.709 819.575L565.109 823.95C562.962 824.883 560.629 825.35 558.109 825.35C555.099 825.35 552.684 824.498 550.864 822.795C549.044 821.092 548.134 818.793 548.134 815.9C548.134 812.983 548.962 810.685 550.619 809.005C552.299 807.302 554.562 806.45 557.409 806.45C560.325 806.45 562.6 807.278 564.234 808.935C565.867 810.568 566.684 812.89 566.684 815.9C566.684 816.53 566.625 817.23 566.509 818H554.714ZM584.554 819.295L585.954 823.95C583.948 824.883 581.848 825.35 579.654 825.35C576.434 825.35 573.879 824.498 571.989 822.795C570.099 821.092 569.154 818.793 569.154 815.9C569.154 812.983 570.076 810.685 571.919 809.005C573.786 807.302 576.364 806.45 579.654 806.45C581.918 806.45 584.018 806.917 585.954 807.85L584.554 812.575C583.108 811.688 581.591 811.245 580.004 811.245C578.674 811.245 577.636 811.642 576.889 812.435C576.166 813.228 575.804 814.383 575.804 815.9C575.804 817.37 576.189 818.525 576.959 819.365C577.729 820.205 578.744 820.625 580.004 820.625C581.591 820.625 583.108 820.182 584.554 819.295ZM596.893 817.65H596.823V825H590.173V798.75H596.823V813.45H596.893L601.723 806.8H609.248L602.248 815.55L609.423 825H601.898L596.893 817.65ZM612.437 825V817.65H620.137V825H612.437ZM190.831 854.35C190.318 854.35 189.793 854.408 189.256 854.525V859.425H190.306C192.989 859.425 194.331 858.55 194.331 856.8C194.331 855.167 193.164 854.35 190.831 854.35ZM201.331 867.65C201.331 870.287 200.468 872.235 198.741 873.495C197.038 874.732 194.284 875.35 190.481 875.35C187.634 875.35 184.951 875.175 182.431 874.825V849.625C184.834 849.275 187.401 849.1 190.131 849.1C197.131 849.1 200.631 851.317 200.631 855.75C200.631 857.243 200.153 858.515 199.196 859.565C198.239 860.592 196.968 861.233 195.381 861.49V861.56C197.178 861.793 198.613 862.482 199.686 863.625C200.783 864.768 201.331 866.11 201.331 867.65ZM194.856 866.95C194.856 865.2 193.573 864.325 191.006 864.325H189.256V869.925C189.793 870.042 190.318 870.1 190.831 870.1C192.231 870.1 193.246 869.843 193.876 869.33C194.529 868.817 194.856 868.023 194.856 866.95ZM205.203 875V848.75H212.203V875H205.203ZM218.615 858.97C220.295 857.29 222.664 856.45 225.72 856.45C228.777 856.45 231.145 857.29 232.825 858.97C234.505 860.65 235.345 862.96 235.345 865.9C235.345 868.84 234.505 871.15 232.825 872.83C231.145 874.51 228.777 875.35 225.72 875.35C222.664 875.35 220.295 874.51 218.615 872.83C216.935 871.15 216.095 868.84 216.095 865.9C216.095 862.96 216.935 860.65 218.615 858.97ZM223.375 869.505C223.889 870.228 224.67 870.59 225.72 870.59C226.77 870.59 227.552 870.228 228.065 869.505C228.579 868.782 228.835 867.58 228.835 865.9C228.835 864.22 228.579 863.018 228.065 862.295C227.552 861.572 226.77 861.21 225.72 861.21C224.67 861.21 223.889 861.572 223.375 862.295C222.862 863.018 222.605 864.22 222.605 865.9C222.605 867.58 222.862 868.782 223.375 869.505ZM253.063 869.295L254.463 873.95C252.456 874.883 250.356 875.35 248.163 875.35C244.943 875.35 242.388 874.498 240.498 872.795C238.608 871.092 237.663 868.793 237.663 865.9C237.663 862.983 238.584 860.685 240.428 859.005C242.294 857.302 244.873 856.45 248.163 856.45C250.426 856.45 252.526 856.917 254.463 857.85L253.063 862.575C251.616 861.688 250.099 861.245 248.513 861.245C247.183 861.245 246.144 861.642 245.398 862.435C244.674 863.228 244.313 864.383 244.313 865.9C244.313 867.37 244.698 868.525 245.468 869.365C246.238 870.205 247.253 870.625 248.513 870.625C250.099 870.625 251.616 870.182 253.063 869.295ZM265.402 867.65H265.332V875H258.682V848.75H265.332V863.45H265.402L270.232 856.8H277.757L270.757 865.55L277.932 875H270.407L265.402 867.65ZM294.77 862.295C292.647 861.525 290.663 861.14 288.82 861.14C287.817 861.14 287.128 861.233 286.755 861.42C286.382 861.583 286.195 861.852 286.195 862.225C286.195 862.575 286.347 862.843 286.65 863.03C286.953 863.217 287.502 863.357 288.295 863.45C291.165 863.8 293.218 864.477 294.455 865.48C295.715 866.483 296.345 867.848 296.345 869.575C296.345 871.348 295.633 872.76 294.21 873.81C292.81 874.837 290.78 875.35 288.12 875.35C284.97 875.35 282.112 874.767 279.545 873.6L280.77 868.91C282.87 870.03 285.087 870.59 287.42 870.59C288.937 870.59 289.695 870.193 289.695 869.4C289.695 869.097 289.578 868.887 289.345 868.77C289.112 868.653 288.528 868.513 287.595 868.35C284.772 867.907 282.753 867.183 281.54 866.18C280.327 865.153 279.72 863.777 279.72 862.05C279.72 860.3 280.42 858.935 281.82 857.955C283.22 856.952 285.32 856.45 288.12 856.45C290.897 856.45 293.522 856.858 295.995 857.675L294.77 862.295ZM325.737 862.295C323.614 861.525 321.63 861.14 319.787 861.14C318.784 861.14 318.095 861.233 317.722 861.42C317.349 861.583 317.162 861.852 317.162 862.225C317.162 862.575 317.314 862.843 317.617 863.03C317.92 863.217 318.469 863.357 319.262 863.45C322.132 863.8 324.185 864.477 325.422 865.48C326.682 866.483 327.312 867.848 327.312 869.575C327.312 871.348 326.6 872.76 325.177 873.81C323.777 874.837 321.747 875.35 319.087 875.35C315.937 875.35 313.079 874.767 310.512 873.6L311.737 868.91C313.837 870.03 316.054 870.59 318.387 870.59C319.904 870.59 320.662 870.193 320.662 869.4C320.662 869.097 320.545 868.887 320.312 868.77C320.079 868.653 319.495 868.513 318.562 868.35C315.739 867.907 313.72 867.183 312.507 866.18C311.294 865.153 310.687 863.777 310.687 862.05C310.687 860.3 311.387 858.935 312.787 857.955C314.187 856.952 316.287 856.45 319.087 856.45C321.864 856.45 324.489 856.858 326.962 857.675L325.737 862.295ZM339.977 875.35C337.667 875.35 335.952 874.825 334.832 873.775C333.712 872.702 333.152 871.01 333.152 868.7V862.05H329.477V857.5H333.152V850.85H339.942V857.5H345.577V862.05H339.942V867.65C339.942 868.77 340.071 869.517 340.327 869.89C340.584 870.263 341.051 870.45 341.727 870.45C342.754 870.45 343.804 870.275 344.877 869.925L345.577 874.65C343.851 875.117 341.984 875.35 339.977 875.35ZM354.915 864.15H360.83C360.83 861.933 359.838 860.825 357.855 860.825C356.058 860.825 355.078 861.933 354.915 864.15ZM354.985 868C355.381 869.867 356.711 870.8 358.975 870.8C360.725 870.8 362.393 870.392 363.98 869.575L365.38 873.95C363.233 874.883 360.9 875.35 358.38 875.35C355.37 875.35 352.955 874.498 351.135 872.795C349.315 871.092 348.405 868.793 348.405 865.9C348.405 862.983 349.233 860.685 350.89 859.005C352.57 857.302 354.833 856.45 357.68 856.45C360.596 856.45 362.871 857.278 364.505 858.935C366.138 860.568 366.955 862.89 366.955 865.9C366.955 866.53 366.896 867.23 366.78 868H354.985ZM379.409 863.1H380.459C380.459 862.307 380.307 861.758 380.004 861.455C379.7 861.152 379.152 861 378.359 861C375.909 861 373.517 861.525 371.184 862.575L370.309 858.025C372.875 856.975 375.675 856.45 378.709 856.45C381.742 856.45 383.9 857.022 385.184 858.165C386.467 859.285 387.109 861.163 387.109 863.8V870.1C387.109 871.78 387.284 873.413 387.634 875H381.334C381.194 874.207 381.077 873.39 380.984 872.55H380.914C380.284 873.39 379.467 874.067 378.464 874.58C377.46 875.093 376.434 875.35 375.384 875.35C373.587 875.35 372.14 874.86 371.044 873.88C369.97 872.877 369.434 871.5 369.434 869.75C369.434 867.743 370.285 866.133 371.989 864.92C373.715 863.707 376.189 863.1 379.409 863.1ZM375.384 869.05C375.384 870.1 375.967 870.625 377.134 870.625C378.137 870.625 378.942 870.345 379.549 869.785C380.155 869.225 380.459 868.455 380.459 867.475V866.95H379.409C378.079 866.95 377.075 867.148 376.399 867.545C375.722 867.918 375.384 868.42 375.384 869.05ZM392.405 875V848.75H399.405V875H392.405ZM404.539 853.65V848.75H411.539V853.65H404.539ZM404.539 875V856.8H411.539V875H404.539ZM422.991 859.25C423.645 858.387 424.45 857.71 425.406 857.22C426.386 856.707 427.378 856.45 428.381 856.45C430.691 856.45 432.348 857.103 433.351 858.41C434.355 859.693 434.856 861.957 434.856 865.2V875H428.276V865.9C428.276 864.15 428.113 862.983 427.786 862.4C427.483 861.817 426.923 861.525 426.106 861.525C425.383 861.525 424.73 861.922 424.146 862.715C423.586 863.508 423.306 864.453 423.306 865.55V875H416.656V856.8H422.781L422.921 859.25H422.991ZM450.453 872.2H450.418C449.065 873.833 447.326 874.65 445.203 874.65C443.126 874.65 441.411 873.845 440.058 872.235C438.705 870.602 438.028 868.373 438.028 865.55C438.028 862.68 438.681 860.452 439.988 858.865C441.295 857.255 443.033 856.45 445.203 856.45C447.28 856.45 449.076 857.383 450.593 859.25H450.663L450.803 856.8H456.928V872.9C456.928 876.237 456.006 878.757 454.163 880.46C452.32 882.187 449.625 883.05 446.078 883.05C443.838 883.05 441.738 882.7 439.778 882L440.828 877.31C442.461 877.987 444.095 878.325 445.728 878.325C447.431 878.325 448.645 877.917 449.368 877.1C450.091 876.307 450.453 874.907 450.453 872.9V872.2ZM444.328 865.55C444.328 866.88 444.596 867.918 445.133 868.665C445.693 869.388 446.416 869.75 447.303 869.75C448.213 869.75 448.936 869.412 449.473 868.735C450.01 868.035 450.278 867.032 450.278 865.725V865.375C450.278 864.092 450.01 863.1 449.473 862.4C448.936 861.7 448.213 861.35 447.303 861.35C446.37 861.35 445.635 861.712 445.098 862.435C444.585 863.135 444.328 864.173 444.328 865.55Z" fill="white"/>
<defs>
<filter id="filter0_d_612_101" x="-308.9" y="-44.4" width="1021.34" height="1110.3" filterUnits="userSpaceOnUse" color-interpolation-filters="sRGB">
<feFlood flood-opacity="0" result="BackgroundImageFix"/>
<feColorMatrix in="SourceAlpha" type="matrix" values="0 0 0 0 0 0 0 0 0 0 0 0 0 0 0 0 0 0 127 0" result="hardAlpha"/>
<feOffset/>
<feGaussianBlur stdDeviation="34.95"/>
<feComposite in2="hardAlpha" operator="out"/>
<feColorMatrix type="matrix" values="0 0 0 0 0 0 0 0 0 0 0 0 0 0 0 0 0 0 0.15 0"/>
<feBlend mode="normal" in2="BackgroundImageFix" result="effect1_dropShadow_612_101"/>
<feBlend mode="normal" in="SourceGraphic" in2="effect1_dropShadow_612_101" result="shape"/>
</filter>
<linearGradient id="paint0_linear_612_101" x1="201.768" y1="102" x2="201.768" y2="996.001" gradientUnits="userSpaceOnUse">
<stop stop-color="#FA7A38"/>
<stop offset="1" stop-color="#FA7A38" stop-opacity="0.69"/>
</linearGradient>
</defs>
</svg>
