<svg width="640" height="900" viewBox="0 0 640 900" fill="none" xmlns="http://www.w3.org/2000/svg">
<rect x="0.0195312" width="639.02" height="900" fill="#0A0A0A"/>
<mask id="mask0_607_53" style="mask-type:alpha" maskUnits="userSpaceOnUse" x="0" y="0" width="640" height="900">
<rect x="0.0195312" width="639.02" height="900" fill="white"/>
</mask>
<g mask="url(#mask0_607_53)">
<path d="M60.0373 154.565L248.477 96.9529L261.132 138.467L72.6925 196.079L60.0373 154.565ZM78.3595 233.873L275.836 173.498L288.696 215.682L91.2188 276.057L78.3595 233.873ZM155.522 332.158L262.628 299.412L273.446 334.9L166.34 367.645L155.522 332.158ZM173.117 383.873L280.223 351.128L292.368 390.967L185.262 423.713L173.117 383.873ZM121.349 112.03L169.547 97.2948L183.325 142.491L135.127 157.227L121.349 112.03ZM98.2773 191.185L137.74 171.8C145.896 181.75 155.378 196.053 160.114 205.585L119.153 227.257C114.985 217.186 105.968 202.009 98.2773 191.185ZM188.876 154.702L238.287 148.745C236.287 166.192 235.014 181.221 233.623 192.26L190.339 196.71C190.886 184.099 190.338 166.699 188.876 154.702ZM113.449 285.364L276.451 235.529L324.827 394.22L278.302 408.443L241.766 288.589L169.469 310.692L206.006 430.547L161.824 444.054L113.449 285.364ZM-34.7747 178.428L48.5673 152.948L119.906 386.966L36.564 412.446L23.3985 369.258L62.8939 357.183L17.8862 209.541L-21.6092 221.616L-34.7747 178.428ZM-2.21043 272.048L59.7103 253.117L72.5696 295.3L10.6489 314.231L-2.21043 272.048ZM-56.8653 185.182L-13.0188 171.776L67.8114 436.93L23.9648 450.335L-56.8653 185.182ZM454.988 167.037L574.143 130.608L587.513 174.465L468.358 210.895L454.988 167.037ZM447.766 22.1165L521.736 -0.498445L534.595 41.685L460.625 64.3L447.766 22.1165ZM563.768 133.78L572.805 131.017L580.662 126.785L615.158 128.316C620.855 225.026 581.999 289.609 509.323 339.277C500.425 328.09 482.921 311.482 470.386 303.969C535.338 266.177 570.342 209.36 565.911 140.811L563.768 133.78ZM516.698 190.626C550.456 229.348 601.116 247.897 667.92 241.381C660.038 255.136 652.104 279.521 649.492 294.959C574.26 297.831 521.411 269.703 475.987 215.516L516.698 190.626ZM427.014 28.461L471.53 14.8511L486.839 65.0695C496.84 97.8789 501.985 138.761 473.242 171.704C464.331 165.279 440.615 153.498 429.741 150.235C453.219 124.025 448.65 99.4364 441.915 77.3403L427.014 28.461ZM496.298 7.27865L541.484 -6.53592L565.263 71.4701C566.896 76.8267 567.713 79.505 568.456 80.7419C569.431 81.5416 570.305 82.0065 571.309 81.6995C572.313 81.3925 573.317 81.0855 574.321 80.7785C575.325 80.4715 576.227 79.8297 576.693 78.9555C577.493 77.979 577.55 75.7655 576.892 71.2086C575.798 66.4192 573.508 56.5057 569.732 44.1185C580.01 49.0279 598.525 52.151 611.465 52.5869C614.543 66.2855 617.36 81.5279 616.724 89.0423C616.189 96.8916 613.267 102.909 607.826 107.866C603.389 112.517 595.43 116.414 589.405 118.256C582.711 120.303 576.017 122.349 570.327 124.089C561.29 126.852 549.66 127.113 541.595 122.259C533.194 117.508 527.63 110.059 520.588 86.9586L496.298 7.27865ZM311.342 213.15L447.233 171.604L460.5 215.127L324.609 256.673L311.342 213.15ZM353.134 167.8L398.654 153.883L459.787 354.422L414.267 368.339L353.134 167.8ZM360.517 35.9814L411.663 35.7164C401.811 95.8229 371.64 154.09 334.62 194.688C324.296 187.23 300.944 174.24 288.118 169.377C325.768 134.443 353.6 85.3091 360.517 35.9814ZM418.486 226.142C431.005 230 472.277 247.759 482.221 252.771L463.279 296.26C447.233 283.232 415.973 263.509 398.401 253.876L418.486 226.142ZM281.259 104.864L300.421 65.7003C346.375 73.6104 408.256 90.5586 440.883 108.765L420.137 153.537C389.853 134.614 328.931 114.811 281.259 104.864ZM368.969 223.347L408.122 224.553C406.442 268.253 396.105 317.163 378.889 349.51C367.925 341.15 347.964 329.685 335.371 324.385C352.882 297.804 366.207 257.497 368.969 223.347ZM278.423 695.71L581.333 603.101L594.294 645.62L291.385 738.228L278.423 695.71ZM287.307 621.626L477.42 563.502L490.177 605.351L300.064 663.475L287.307 621.626ZM405.127 787.266L550.055 742.957L561.077 779.115L416.149 823.423L405.127 787.266ZM420.742 838.489L565.67 794.18L578.019 834.69L433.091 878.999L420.742 838.489ZM352.279 565.894L400.477 551.159L437.728 673.357L389.53 688.093L352.279 565.894ZM502.538 529.471L550.908 538.107C514.682 650.928 432.645 750.306 335.472 822.836C326.618 814.197 306.102 798.51 294.44 791.461C393.348 724.623 471.794 631.467 502.538 529.471ZM361.045 741.087L564.212 678.972L611.261 833.31L560.386 848.864L525.38 734.032L421.621 765.754L457.035 881.926L408.502 896.764L361.045 741.087Z" fill="#434343"/>
<g filter="url(#filter0_d_607_53)">
<path d="M-152 959.5H729.536L749.5 658.5L653.5 549L611.5 303.5L552 158.5L423 123L323.5 187.5L286 287.5L308.5 463L242 558L187.5 677.5L102 573L71.5 508.5L82.5 394V266.5H71.5L47 337.5L28 508.5L-46.5 616.5L-77 719.5L-46.5 895.5L-152 959.5Z" fill="url(#paint0_linear_607_53)" shape-rendering="crispEdges"/>
</g>
</g>
<path d="M60.7109 684.65H75.8909L68.4159 653.6H68.1859L60.7109 684.65ZM56.5709 701.9L52.7759 718H28.8559L56.4559 634.05H80.6059L108.206 718H83.8259L79.9159 701.9H56.5709ZM171.577 656.475C163.834 652.642 155.976 650.725 148.002 650.725C144.399 650.725 141.677 651.377 139.837 652.68C137.997 653.907 137.077 655.555 137.077 657.625C137.077 660.845 139.569 663.145 144.552 664.525C156.589 667.745 165.061 671.617 169.967 676.14C174.874 680.587 177.327 686.298 177.327 693.275C177.327 701.708 174.414 708.148 168.587 712.595C162.761 716.965 153.982 719.15 142.252 719.15C137.346 719.15 132.056 718.345 126.382 716.735C120.786 715.048 116.301 712.978 112.927 710.525L118.102 692.7C122.012 695.383 126.229 697.492 130.752 699.025C135.352 700.558 139.569 701.325 143.402 701.325C150.302 701.325 153.752 698.833 153.752 693.85C153.752 690.63 150.686 688.138 144.552 686.375C133.359 683.155 125.386 679.283 120.632 674.76C115.879 670.237 113.502 664.525 113.502 657.625C113.502 650.035 116.377 644.017 122.127 639.57C127.954 635.123 136.196 632.9 146.852 632.9C158.199 632.9 167.782 634.817 175.602 638.65L171.577 656.475ZM244.8 656.475C237.057 652.642 229.198 650.725 221.225 650.725C217.622 650.725 214.9 651.377 213.06 652.68C211.22 653.907 210.3 655.555 210.3 657.625C210.3 660.845 212.792 663.145 217.775 664.525C229.812 667.745 238.283 671.617 243.19 676.14C248.097 680.587 250.55 686.298 250.55 693.275C250.55 701.708 247.637 708.148 241.81 712.595C235.983 716.965 227.205 719.15 215.475 719.15C210.568 719.15 205.278 718.345 199.605 716.735C194.008 715.048 189.523 712.978 186.15 710.525L191.325 692.7C195.235 695.383 199.452 697.492 203.975 699.025C208.575 700.558 212.792 701.325 216.625 701.325C223.525 701.325 226.975 698.833 226.975 693.85C226.975 690.63 223.908 688.138 217.775 686.375C206.582 683.155 198.608 679.283 193.855 674.76C189.102 670.237 186.725 664.525 186.725 657.625C186.725 650.035 189.6 644.017 195.35 639.57C201.177 635.123 209.418 632.9 220.075 632.9C231.422 632.9 241.005 634.817 248.825 638.65L244.8 656.475ZM287.117 684.65H302.297L294.822 653.6H294.592L287.117 684.65ZM282.977 701.9L279.182 718H255.262L282.862 634.05H307.012L334.612 718H310.232L306.322 701.9H282.977ZM397.983 656.475C390.24 652.642 382.382 650.725 374.408 650.725C370.805 650.725 368.083 651.377 366.243 652.68C364.403 653.907 363.483 655.555 363.483 657.625C363.483 660.845 365.975 663.145 370.958 664.525C382.995 667.745 391.467 671.617 396.373 676.14C401.28 680.587 403.733 686.298 403.733 693.275C403.733 701.708 400.82 708.148 394.993 712.595C389.167 716.965 380.388 719.15 368.658 719.15C363.752 719.15 358.462 718.345 352.788 716.735C347.192 715.048 342.707 712.978 339.333 710.525L344.508 692.7C348.418 695.383 352.635 697.492 357.158 699.025C361.758 700.558 365.975 701.325 369.808 701.325C376.708 701.325 380.158 698.833 380.158 693.85C380.158 690.63 377.092 688.138 370.958 686.375C359.765 683.155 351.792 679.283 347.038 674.76C342.285 670.237 339.908 664.525 339.908 657.625C339.908 650.035 342.783 644.017 348.533 639.57C354.36 635.123 362.602 632.9 373.258 632.9C384.605 632.9 394.188 634.817 402.008 638.65L397.983 656.475ZM471.206 656.475C463.463 652.642 455.604 650.725 447.631 650.725C444.028 650.725 441.306 651.377 439.466 652.68C437.626 653.907 436.706 655.555 436.706 657.625C436.706 660.845 439.198 663.145 444.181 664.525C456.218 667.745 464.689 671.617 469.596 676.14C474.503 680.587 476.956 686.298 476.956 693.275C476.956 701.708 474.043 708.148 468.216 712.595C462.389 716.965 453.611 719.15 441.881 719.15C436.974 719.15 431.684 718.345 426.011 716.735C420.414 715.048 415.929 712.978 412.556 710.525L417.731 692.7C421.641 695.383 425.858 697.492 430.381 699.025C434.981 700.558 439.198 701.325 443.031 701.325C449.931 701.325 453.381 698.833 453.381 693.85C453.381 690.63 450.314 688.138 444.181 686.375C432.988 683.155 425.014 679.283 420.261 674.76C415.508 670.237 413.131 664.525 413.131 657.625C413.131 650.035 416.006 644.017 421.756 639.57C427.583 635.123 435.824 632.9 446.481 632.9C457.828 632.9 467.411 634.817 475.231 638.65L471.206 656.475ZM492.05 718V634.05H517.35V718H492.05ZM582.755 680.05H582.985V634.05H605.41V718H582.985L557.915 672H557.685V718H535.26V634.05H557.685L582.755 680.05Z" fill="white"/>
<path d="M100.286 792.02V800H93.4613V774.625C95.8646 774.275 98.4313 774.1 101.161 774.1C109.095 774.1 113.061 776.958 113.061 782.675C113.061 785.778 112.163 788.135 110.366 789.745C108.593 791.332 105.991 792.125 102.561 792.125C101.651 792.125 100.893 792.09 100.286 792.02ZM100.286 786.945C100.73 787.015 101.255 787.05 101.861 787.05C103.378 787.05 104.545 786.7 105.361 786C106.178 785.3 106.586 784.308 106.586 783.025C106.586 780.575 105.011 779.35 101.861 779.35C101.348 779.35 100.823 779.408 100.286 779.525V786.945ZM124.496 788.1H125.546C125.546 787.307 125.395 786.758 125.091 786.455C124.788 786.152 124.24 786 123.446 786C120.996 786 118.605 786.525 116.271 787.575L115.396 783.025C117.963 781.975 120.763 781.45 123.796 781.45C126.83 781.45 128.988 782.022 130.271 783.165C131.555 784.285 132.196 786.163 132.196 788.8V795.1C132.196 796.78 132.371 798.413 132.721 800H126.421C126.281 799.207 126.165 798.39 126.071 797.55H126.001C125.371 798.39 124.555 799.067 123.551 799.58C122.548 800.093 121.521 800.35 120.471 800.35C118.675 800.35 117.228 799.86 116.131 798.88C115.058 797.877 114.521 796.5 114.521 794.75C114.521 792.743 115.373 791.133 117.076 789.92C118.803 788.707 121.276 788.1 124.496 788.1ZM120.471 794.05C120.471 795.1 121.055 795.625 122.221 795.625C123.225 795.625 124.03 795.345 124.636 794.785C125.243 794.225 125.546 793.455 125.546 792.475V791.95H124.496C123.166 791.95 122.163 792.148 121.486 792.545C120.81 792.918 120.471 793.42 120.471 794.05ZM144.273 794.05H144.343L147.633 781.8H154.633L145.183 807.7H138.183L141.333 800L134.333 781.8H141.683L144.273 794.05ZM180.23 784.95H180.58C182.493 784.95 184.045 785.592 185.235 786.875C186.448 788.135 187.055 789.827 187.055 791.95C187.055 794.68 186.215 796.768 184.535 798.215C182.855 799.638 180.428 800.35 177.255 800.35C174.128 800.35 171.212 799.65 168.505 798.25L170.22 793C172.67 794.213 174.782 794.82 176.555 794.82C177.745 794.82 178.655 794.587 179.285 794.12C179.915 793.63 180.23 792.965 180.23 792.125C180.23 791.425 180.067 790.9 179.74 790.55C179.413 790.2 178.795 789.943 177.885 789.78C176.998 789.593 175.68 789.5 173.93 789.5H172.53V784.95L178.48 780.12V780.05H169.03V774.45H186.705V780.05L180.23 784.88V784.95ZM217.208 794.295L218.608 798.95C216.601 799.883 214.501 800.35 212.308 800.35C209.088 800.35 206.533 799.498 204.643 797.795C202.753 796.092 201.808 793.793 201.808 790.9C201.808 787.983 202.73 785.685 204.573 784.005C206.44 782.302 209.018 781.45 212.308 781.45C214.571 781.45 216.671 781.917 218.608 782.85L217.208 787.575C215.761 786.688 214.245 786.245 212.658 786.245C211.328 786.245 210.29 786.642 209.543 787.435C208.82 788.228 208.458 789.383 208.458 790.9C208.458 792.37 208.843 793.525 209.613 794.365C210.383 795.205 211.398 795.625 212.658 795.625C214.245 795.625 215.761 795.182 217.208 794.295ZM223.947 783.97C225.627 782.29 227.996 781.45 231.052 781.45C234.109 781.45 236.477 782.29 238.157 783.97C239.837 785.65 240.677 787.96 240.677 790.9C240.677 793.84 239.837 796.15 238.157 797.83C236.477 799.51 234.109 800.35 231.052 800.35C227.996 800.35 225.627 799.51 223.947 797.83C222.267 796.15 221.427 793.84 221.427 790.9C221.427 787.96 222.267 785.65 223.947 783.97ZM228.707 794.505C229.221 795.228 230.002 795.59 231.052 795.59C232.102 795.59 232.884 795.228 233.397 794.505C233.911 793.782 234.167 792.58 234.167 790.9C234.167 789.22 233.911 788.018 233.397 787.295C232.884 786.572 232.102 786.21 231.052 786.21C230.002 786.21 229.221 786.572 228.707 787.295C228.194 788.018 227.937 789.22 227.937 790.9C227.937 792.58 228.194 793.782 228.707 794.505ZM244.578 778.65V773.75H251.578V778.65H244.578ZM244.578 800V781.8H251.578V800H244.578ZM263.03 784.25C263.684 783.387 264.489 782.71 265.445 782.22C266.425 781.707 267.417 781.45 268.42 781.45C270.73 781.45 272.387 782.103 273.39 783.41C274.394 784.693 274.895 786.957 274.895 790.2V800H268.315V790.9C268.315 789.15 268.152 787.983 267.825 787.4C267.522 786.817 266.962 786.525 266.145 786.525C265.422 786.525 264.769 786.922 264.185 787.715C263.625 788.508 263.345 789.453 263.345 790.55V800H256.695V781.8H262.82L262.96 784.25H263.03ZM293.642 787.295C291.519 786.525 289.535 786.14 287.692 786.14C286.689 786.14 286 786.233 285.627 786.42C285.254 786.583 285.067 786.852 285.067 787.225C285.067 787.575 285.219 787.843 285.522 788.03C285.825 788.217 286.374 788.357 287.167 788.45C290.037 788.8 292.09 789.477 293.327 790.48C294.587 791.483 295.217 792.848 295.217 794.575C295.217 796.348 294.505 797.76 293.082 798.81C291.682 799.837 289.652 800.35 286.992 800.35C283.842 800.35 280.984 799.767 278.417 798.6L279.642 793.91C281.742 795.03 283.959 795.59 286.292 795.59C287.809 795.59 288.567 795.193 288.567 794.4C288.567 794.097 288.45 793.887 288.217 793.77C287.984 793.653 287.4 793.513 286.467 793.35C283.644 792.907 281.625 792.183 280.412 791.18C279.199 790.153 278.592 788.777 278.592 787.05C278.592 785.3 279.292 783.935 280.692 782.955C282.092 781.952 284.192 781.45 286.992 781.45C289.769 781.45 292.394 781.858 294.867 782.675L293.642 787.295ZM303.333 803.85H297.733L299.833 792.65H307.533L303.333 803.85ZM332.001 788.1H333.051C333.051 787.307 332.9 786.758 332.596 786.455C332.293 786.152 331.745 786 330.951 786C328.501 786 326.11 786.525 323.776 787.575L322.901 783.025C325.468 781.975 328.268 781.45 331.301 781.45C334.335 781.45 336.493 782.022 337.776 783.165C339.06 784.285 339.701 786.163 339.701 788.8V795.1C339.701 796.78 339.876 798.413 340.226 800H333.926C333.786 799.207 333.67 798.39 333.576 797.55H333.506C332.876 798.39 332.06 799.067 331.056 799.58C330.053 800.093 329.026 800.35 327.976 800.35C326.18 800.35 324.733 799.86 323.636 798.88C322.563 797.877 322.026 796.5 322.026 794.75C322.026 792.743 322.878 791.133 324.581 789.92C326.308 788.707 328.781 788.1 332.001 788.1ZM327.976 794.05C327.976 795.1 328.56 795.625 329.726 795.625C330.73 795.625 331.535 795.345 332.141 794.785C332.748 794.225 333.051 793.455 333.051 792.475V791.95H332.001C330.671 791.95 329.668 792.148 328.991 792.545C328.315 792.918 327.976 793.42 327.976 794.05ZM358.481 787.295C356.358 786.525 354.374 786.14 352.531 786.14C351.528 786.14 350.839 786.233 350.466 786.42C350.093 786.583 349.906 786.852 349.906 787.225C349.906 787.575 350.058 787.843 350.361 788.03C350.664 788.217 351.213 788.357 352.006 788.45C354.876 788.8 356.929 789.477 358.166 790.48C359.426 791.483 360.056 792.848 360.056 794.575C360.056 796.348 359.344 797.76 357.921 798.81C356.521 799.837 354.491 800.35 351.831 800.35C348.681 800.35 345.823 799.767 343.256 798.6L344.481 793.91C346.581 795.03 348.798 795.59 351.131 795.59C352.648 795.59 353.406 795.193 353.406 794.4C353.406 794.097 353.289 793.887 353.056 793.77C352.823 793.653 352.239 793.513 351.306 793.35C348.483 792.907 346.464 792.183 345.251 791.18C344.038 790.153 343.431 788.777 343.431 787.05C343.431 785.3 344.131 783.935 345.531 782.955C346.931 781.952 349.031 781.45 351.831 781.45C354.608 781.45 357.233 781.858 359.706 782.675L358.481 787.295ZM377.963 787.295C375.84 786.525 373.857 786.14 372.013 786.14C371.01 786.14 370.322 786.233 369.948 786.42C369.575 786.583 369.388 786.852 369.388 787.225C369.388 787.575 369.54 787.843 369.843 788.03C370.147 788.217 370.695 788.357 371.488 788.45C374.358 788.8 376.412 789.477 377.648 790.48C378.908 791.483 379.538 792.848 379.538 794.575C379.538 796.348 378.827 797.76 377.403 798.81C376.003 799.837 373.973 800.35 371.313 800.35C368.163 800.35 365.305 799.767 362.738 798.6L363.963 793.91C366.063 795.03 368.28 795.59 370.613 795.59C372.13 795.59 372.888 795.193 372.888 794.4C372.888 794.097 372.772 793.887 372.538 793.77C372.305 793.653 371.722 793.513 370.788 793.35C367.965 792.907 365.947 792.183 364.733 791.18C363.52 790.153 362.913 788.777 362.913 787.05C362.913 785.3 363.613 783.935 365.013 782.955C366.413 781.952 368.513 781.45 371.313 781.45C374.09 781.45 376.715 781.858 379.188 782.675L377.963 787.295ZM392.363 788.1H393.413C393.413 787.307 393.261 786.758 392.958 786.455C392.654 786.152 392.106 786 391.313 786C388.863 786 386.471 786.525 384.138 787.575L383.263 783.025C385.829 781.975 388.629 781.45 391.663 781.45C394.696 781.45 396.854 782.022 398.138 783.165C399.421 784.285 400.063 786.163 400.063 788.8V795.1C400.063 796.78 400.238 798.413 400.588 800H394.288C394.148 799.207 394.031 798.39 393.938 797.55H393.868C393.238 798.39 392.421 799.067 391.418 799.58C390.414 800.093 389.388 800.35 388.338 800.35C386.541 800.35 385.094 799.86 383.998 798.88C382.924 797.877 382.388 796.5 382.388 794.75C382.388 792.743 383.239 791.133 384.943 789.92C386.669 788.707 389.143 788.1 392.363 788.1ZM388.338 794.05C388.338 795.1 388.921 795.625 390.088 795.625C391.091 795.625 391.896 795.345 392.503 794.785C393.109 794.225 393.413 793.455 393.413 792.475V791.95H392.363C391.033 791.95 390.029 792.148 389.353 792.545C388.676 792.918 388.338 793.42 388.338 794.05ZM418.842 787.295C416.719 786.525 414.736 786.14 412.892 786.14C411.889 786.14 411.201 786.233 410.827 786.42C410.454 786.583 410.267 786.852 410.267 787.225C410.267 787.575 410.419 787.843 410.722 788.03C411.026 788.217 411.574 788.357 412.367 788.45C415.237 788.8 417.291 789.477 418.527 790.48C419.787 791.483 420.417 792.848 420.417 794.575C420.417 796.348 419.706 797.76 418.282 798.81C416.882 799.837 414.852 800.35 412.192 800.35C409.042 800.35 406.184 799.767 403.617 798.6L404.842 793.91C406.942 795.03 409.159 795.59 411.492 795.59C413.009 795.59 413.767 795.193 413.767 794.4C413.767 794.097 413.651 793.887 413.417 793.77C413.184 793.653 412.601 793.513 411.667 793.35C408.844 792.907 406.826 792.183 405.612 791.18C404.399 790.153 403.792 788.777 403.792 787.05C403.792 785.3 404.492 783.935 405.892 782.955C407.292 781.952 409.392 781.45 412.192 781.45C414.969 781.45 417.594 781.858 420.067 782.675L418.842 787.295ZM438.325 787.295C436.201 786.525 434.218 786.14 432.375 786.14C431.371 786.14 430.683 786.233 430.31 786.42C429.936 786.583 429.75 786.852 429.75 787.225C429.75 787.575 429.901 787.843 430.205 788.03C430.508 788.217 431.056 788.357 431.85 788.45C434.72 788.8 436.773 789.477 438.01 790.48C439.27 791.483 439.9 792.848 439.9 794.575C439.9 796.348 439.188 797.76 437.765 798.81C436.365 799.837 434.335 800.35 431.675 800.35C428.525 800.35 425.666 799.767 423.1 798.6L424.325 793.91C426.425 795.03 428.641 795.59 430.975 795.59C432.491 795.59 433.25 795.193 433.25 794.4C433.25 794.097 433.133 793.887 432.9 793.77C432.666 793.653 432.083 793.513 431.15 793.35C428.326 792.907 426.308 792.183 425.095 791.18C423.881 790.153 423.275 788.777 423.275 787.05C423.275 785.3 423.975 783.935 425.375 782.955C426.775 781.952 428.875 781.45 431.675 781.45C434.451 781.45 437.076 781.858 439.55 782.675L438.325 787.295ZM444.324 778.65V773.75H451.324V778.65H444.324ZM444.324 800V781.8H451.324V800H444.324ZM462.776 784.25C463.43 783.387 464.235 782.71 465.191 782.22C466.171 781.707 467.163 781.45 468.166 781.45C470.476 781.45 472.133 782.103 473.136 783.41C474.14 784.693 474.641 786.957 474.641 790.2V800H468.061V790.9C468.061 789.15 467.898 787.983 467.571 787.4C467.268 786.817 466.708 786.525 465.891 786.525C465.168 786.525 464.515 786.922 463.931 787.715C463.371 788.508 463.091 789.453 463.091 790.55V800H456.441V781.8H462.566L462.706 784.25H462.776ZM487.963 788.1H489.013C489.013 787.307 488.862 786.758 488.558 786.455C488.255 786.152 487.707 786 486.913 786C484.463 786 482.072 786.525 479.738 787.575L478.863 783.025C481.43 781.975 484.23 781.45 487.263 781.45C490.297 781.45 492.455 782.022 493.738 783.165C495.022 784.285 495.663 786.163 495.663 788.8V795.1C495.663 796.78 495.838 798.413 496.188 800H489.888C489.748 799.207 489.632 798.39 489.538 797.55H489.468C488.838 798.39 488.022 799.067 487.018 799.58C486.015 800.093 484.988 800.35 483.938 800.35C482.142 800.35 480.695 799.86 479.598 798.88C478.525 797.877 477.988 796.5 477.988 794.75C477.988 792.743 478.84 791.133 480.543 789.92C482.27 788.707 484.743 788.1 487.963 788.1ZM483.938 794.05C483.938 795.1 484.522 795.625 485.688 795.625C486.692 795.625 487.497 795.345 488.103 794.785C488.71 794.225 489.013 793.455 489.013 792.475V791.95H487.963C486.633 791.95 485.63 792.148 484.953 792.545C484.277 792.918 483.938 793.42 483.938 794.05ZM508.825 800.35C506.515 800.35 504.8 799.825 503.68 798.775C502.56 797.702 502 796.01 502 793.7V787.05H498.325V782.5H502V775.85H508.79V782.5H514.425V787.05H508.79V792.65C508.79 793.77 508.918 794.517 509.175 794.89C509.432 795.263 509.898 795.45 510.575 795.45C511.602 795.45 512.652 795.275 513.725 794.925L514.425 799.65C512.698 800.117 510.832 800.35 508.825 800.35ZM523.762 789.15H529.677C529.677 786.933 528.686 785.825 526.702 785.825C524.906 785.825 523.926 786.933 523.762 789.15ZM523.832 793C524.229 794.867 525.559 795.8 527.822 795.8C529.572 795.8 531.241 795.392 532.827 794.575L534.227 798.95C532.081 799.883 529.747 800.35 527.227 800.35C524.217 800.35 521.802 799.498 519.982 797.795C518.162 796.092 517.252 793.793 517.252 790.9C517.252 787.983 518.081 785.685 519.737 784.005C521.417 782.302 523.681 781.45 526.527 781.45C529.444 781.45 531.719 782.278 533.352 783.935C534.986 785.568 535.802 787.89 535.802 790.9C535.802 791.53 535.744 792.23 535.627 793H523.832ZM189.626 838.1H190.676C190.676 837.307 190.524 836.758 190.221 836.455C189.917 836.152 189.369 836 188.576 836C186.126 836 183.734 836.525 181.401 837.575L180.526 833.025C183.092 831.975 185.892 831.45 188.926 831.45C191.959 831.45 194.117 832.022 195.401 833.165C196.684 834.285 197.326 836.163 197.326 838.8V845.1C197.326 846.78 197.501 848.413 197.851 850H191.551C191.411 849.207 191.294 848.39 191.201 847.55H191.131C190.501 848.39 189.684 849.067 188.681 849.58C187.677 850.093 186.651 850.35 185.601 850.35C183.804 850.35 182.357 849.86 181.261 848.88C180.187 847.877 179.651 846.5 179.651 844.75C179.651 842.743 180.502 841.133 182.206 839.92C183.932 838.707 186.406 838.1 189.626 838.1ZM185.601 844.05C185.601 845.1 186.184 845.625 187.351 845.625C188.354 845.625 189.159 845.345 189.766 844.785C190.372 844.225 190.676 843.455 190.676 842.475V841.95H189.626C188.296 841.95 187.292 842.148 186.616 842.545C185.939 842.918 185.601 843.42 185.601 844.05ZM208.257 834.25C208.911 833.387 209.716 832.71 210.672 832.22C211.652 831.707 212.644 831.45 213.647 831.45C215.957 831.45 217.614 832.103 218.617 833.41C219.621 834.693 220.122 836.957 220.122 840.2V850H213.542V840.9C213.542 839.15 213.379 837.983 213.052 837.4C212.749 836.817 212.189 836.525 211.372 836.525C210.649 836.525 209.996 836.922 209.412 837.715C208.852 838.508 208.572 839.453 208.572 840.55V850H201.922V831.8H208.047L208.187 834.25H208.257ZM225.639 833.97C227.319 832.29 229.687 831.45 232.744 831.45C235.801 831.45 238.169 832.29 239.849 833.97C241.529 835.65 242.369 837.96 242.369 840.9C242.369 843.84 241.529 846.15 239.849 847.83C238.169 849.51 235.801 850.35 232.744 850.35C229.687 850.35 227.319 849.51 225.639 847.83C223.959 846.15 223.119 843.84 223.119 840.9C223.119 837.96 223.959 835.65 225.639 833.97ZM230.399 844.505C230.912 845.228 231.694 845.59 232.744 845.59C233.794 845.59 234.576 845.228 235.089 844.505C235.602 843.782 235.859 842.58 235.859 840.9C235.859 839.22 235.602 838.018 235.089 837.295C234.576 836.572 233.794 836.21 232.744 836.21C231.694 836.21 230.912 836.572 230.399 837.295C229.886 838.018 229.629 839.22 229.629 840.9C229.629 842.58 229.886 843.782 230.399 844.505ZM254.853 850.35C252.543 850.35 250.828 849.825 249.708 848.775C248.588 847.702 248.028 846.01 248.028 843.7V837.05H244.353V832.5H248.028V825.85H254.818V832.5H260.453V837.05H254.818V842.65C254.818 843.77 254.946 844.517 255.203 844.89C255.46 845.263 255.926 845.45 256.603 845.45C257.63 845.45 258.68 845.275 259.753 844.925L260.453 849.65C258.726 850.117 256.86 850.35 254.853 850.35ZM283.222 840.2V850H276.642V840.9C276.642 839.15 276.479 837.983 276.152 837.4C275.849 836.817 275.289 836.525 274.472 836.525C273.749 836.525 273.095 836.922 272.512 837.715C271.952 838.508 271.672 839.453 271.672 840.55V850H265.022V823.75H271.672V833.9H271.742C272.325 833.153 273.072 832.558 273.982 832.115C274.892 831.672 275.814 831.45 276.747 831.45C279.057 831.45 280.714 832.103 281.717 833.41C282.72 834.693 283.222 836.957 283.222 840.2ZM292.759 839.15H298.674C298.674 836.933 297.682 835.825 295.699 835.825C293.902 835.825 292.922 836.933 292.759 839.15ZM292.829 843C293.226 844.867 294.556 845.8 296.819 845.8C298.569 845.8 300.237 845.392 301.824 844.575L303.224 848.95C301.077 849.883 298.744 850.35 296.224 850.35C293.214 850.35 290.799 849.498 288.979 847.795C287.159 846.092 286.249 843.793 286.249 840.9C286.249 837.983 287.077 835.685 288.734 834.005C290.414 832.302 292.677 831.45 295.524 831.45C298.441 831.45 300.716 832.278 302.349 833.935C303.982 835.568 304.799 837.89 304.799 840.9C304.799 841.53 304.741 842.23 304.624 843H292.829ZM322.853 831.45V836.7C320.239 836.7 318.268 837.19 316.938 838.17C315.608 839.15 314.943 840.527 314.943 842.3V850H308.153V831.8H314.418L314.453 835.3H314.523C316.529 832.733 319.306 831.45 322.853 831.45ZM343.843 831.8L343.983 834.25H344.053C345.57 832.383 347.367 831.45 349.443 831.45C351.637 831.45 353.375 832.278 354.658 833.935C355.965 835.568 356.618 837.89 356.618 840.9C356.618 843.84 355.942 846.15 354.588 847.83C353.258 849.51 351.543 850.35 349.443 850.35C347.39 850.35 345.722 849.533 344.438 847.9H344.368V857.7H337.718V831.8H343.843ZM350.318 840.9C350.318 839.453 350.05 838.368 349.513 837.645C349 836.898 348.277 836.525 347.343 836.525C346.433 836.525 345.71 836.898 345.173 837.645C344.637 838.368 344.368 839.395 344.368 840.725V841.075C344.368 842.428 344.637 843.467 345.173 844.19C345.71 844.913 346.433 845.275 347.343 845.275C348.207 845.275 348.918 844.902 349.478 844.155C350.038 843.385 350.318 842.3 350.318 840.9ZM360.669 850V823.75H367.669V850H360.669ZM381.887 838.1H382.937C382.937 837.307 382.785 836.758 382.482 836.455C382.178 836.152 381.63 836 380.837 836C378.387 836 375.995 836.525 373.662 837.575L372.787 833.025C375.353 831.975 378.153 831.45 381.187 831.45C384.22 831.45 386.378 832.022 387.662 833.165C388.945 834.285 389.587 836.163 389.587 838.8V845.1C389.587 846.78 389.762 848.413 390.112 850H383.812C383.672 849.207 383.555 848.39 383.462 847.55H383.392C382.762 848.39 381.945 849.067 380.942 849.58C379.938 850.093 378.912 850.35 377.862 850.35C376.065 850.35 374.618 849.86 373.522 848.88C372.448 847.877 371.912 846.5 371.912 844.75C371.912 842.743 372.763 841.133 374.467 839.92C376.193 838.707 378.667 838.1 381.887 838.1ZM377.862 844.05C377.862 845.1 378.445 845.625 379.612 845.625C380.615 845.625 381.42 845.345 382.027 844.785C382.633 844.225 382.937 843.455 382.937 842.475V841.95H381.887C380.557 841.95 379.553 842.148 378.877 842.545C378.2 842.918 377.862 843.42 377.862 844.05ZM401.663 844.05H401.733L405.023 831.8H412.023L402.573 857.7H395.573L398.723 850L391.723 831.8H399.073L401.663 844.05ZM419.429 839.15H425.344C425.344 836.933 424.352 835.825 422.369 835.825C420.572 835.825 419.592 836.933 419.429 839.15ZM419.499 843C419.896 844.867 421.226 845.8 423.489 845.8C425.239 845.8 426.907 845.392 428.494 844.575L429.894 848.95C427.747 849.883 425.414 850.35 422.894 850.35C419.884 850.35 417.469 849.498 415.649 847.795C413.829 846.092 412.919 843.793 412.919 840.9C412.919 837.983 413.747 835.685 415.404 834.005C417.084 832.302 419.347 831.45 422.194 831.45C425.111 831.45 427.386 832.278 429.019 833.935C430.652 835.568 431.469 837.89 431.469 840.9C431.469 841.53 431.411 842.23 431.294 843H419.499ZM449.523 831.45V836.7C446.909 836.7 444.938 837.19 443.608 838.17C442.278 839.15 441.613 840.527 441.613 842.3V850H434.823V831.8H441.088L441.123 835.3H441.193C443.199 832.733 445.976 831.45 449.523 831.45ZM450.083 850V842.65H457.783V850H450.083Z" fill="white"/>
<defs>
<filter id="filter0_d_607_53" x="-221.9" y="53.1" width="1041.3" height="976.3" filterUnits="userSpaceOnUse" color-interpolation-filters="sRGB">
<feFlood flood-opacity="0" result="BackgroundImageFix"/>
<feColorMatrix in="SourceAlpha" type="matrix" values="0 0 0 0 0 0 0 0 0 0 0 0 0 0 0 0 0 0 127 0" result="hardAlpha"/>
<feOffset/>
<feGaussianBlur stdDeviation="34.95"/>
<feComposite in2="hardAlpha" operator="out"/>
<feColorMatrix type="matrix" values="0 0 0 0 0 0 0 0 0 0 0 0 0 0 0 0 0 0 0.15 0"/>
<feBlend mode="normal" in2="BackgroundImageFix" result="effect1_dropShadow_607_53"/>
<feBlend mode="normal" in="SourceGraphic" in2="effect1_dropShadow_607_53" result="shape"/>
</filter>
<linearGradient id="paint0_linear_607_53" x1="288.768" y1="65.5001" x2="288.768" y2="959.501" gradientUnits="userSpaceOnUse">
<stop stop-color="#F13965"/>
<stop offset="1" stop-color="#2F0D15" stop-opacity="0.76"/>
</linearGradient>
</defs>
</svg>
