<svg width="640" height="900" viewBox="0 0 640 900" fill="none" xmlns="http://www.w3.org/2000/svg">
<rect x="0.0195312" width="639.02" height="900" fill="#2D2D2D"/>
<mask id="mask0_619_121" style="mask-type:alpha" maskUnits="userSpaceOnUse" x="0" y="0" width="640" height="900">
<rect x="0.0195312" width="639.02" height="900" fill="white"/>
</mask>
<g mask="url(#mask0_619_121)">
<path d="M130.926 22.1334C124.731 30.1092 118.779 38.5638 114.971 44.1188C105.454 58.6072 93.2135 79.0029 86.3857 99.9586C136.014 62.943 192.11 57.596 244.152 74.5054C314.625 97.4035 345.691 157.841 325.678 219.263C304.842 283.214 248.347 317.999 169.561 292.4C126.916 278.544 89.7539 240.498 83.2969 192.851L127.209 163.567C133.693 197.638 146.263 225.296 184.572 237.743C229.385 252.304 259.083 235.982 270.148 202.02C280.861 169.141 272.099 135.928 225.478 120.78C148.138 95.6504 86.7319 150.415 66.8066 189.49C63.4857 196.003 62.544 198.893 60.7782 204.313C59.1301 209.371 54.2271 230.553 52.9816 241.735L0.627849 231.916C1.1446 202.118 9.74872 159.764 21.5207 123.633C34.1167 84.9732 54.1432 43.134 63.9717 21.555C67.7634 13.5972 71.3033 3.9594 72.8254 -1.93892L130.926 22.1334ZM262.725 30.9951C258.35 59.1409 247.096 118.214 228.614 174.939C208.484 236.723 173.762 308.948 97.6248 336.551L54.6227 288.217C126.396 272.781 159.109 205.497 174.883 157.082C187.832 117.338 198.942 72.2018 202.467 42.9812C203.721 33.0001 205.437 20.3724 204.909 13.4082L262.725 30.9951ZM640.633 154.185C637.312 160.697 628.568 182.628 626.088 189.014C617.234 212.508 593.235 288.617 584.179 317.639L534.426 283.893C542.902 257.879 565.033 189.953 569.591 171.057C573.796 153.245 576.706 139.407 577.388 133.635L640.633 154.185ZM415.558 127.402C472.18 146.199 570.944 175.492 610.337 188.292C643.224 198.977 704.175 217.983 725.741 225.389L708.185 276.821C684.685 267.987 646.007 254.221 592.52 236.842C524.938 214.883 455.33 195.463 399.934 180.261L415.558 127.402ZM579.492 300.134C558.302 365.169 526.864 390.515 480.243 375.367C453.861 366.794 423.691 331.82 438.877 285.211C453.121 241.493 496.888 226.147 538.811 239.768C589.407 256.208 604.269 302.591 589.084 349.199C574.015 395.447 523.536 448.567 425.18 443.78L393.746 382.023C456.539 389.241 516.862 386.865 538.169 321.469C544.173 303.042 536.51 289.764 522.415 285.185C511.211 281.544 497.049 284.534 491.633 301.154C487.395 314.161 496.017 326.952 507.582 330.709C521.677 335.289 540.858 327.936 540.756 277.959L579.492 300.134ZM183.872 582.122C176.138 593.594 158.543 621.839 150.724 638.477C176.933 621.821 212.421 608.579 250.007 620.791C301.687 637.583 327.003 700.948 300.398 782.603C266.73 885.936 187.971 916.683 82.5816 902.817L65.9312 841.07C151.367 854.845 212.867 848.857 240.767 763.227C258.66 708.309 248.469 677.029 222.81 668.691C181.61 655.305 125.953 707.143 110.414 754.835C107.942 762.423 104.654 773.741 101.281 790.225L46.2553 776.342C48.678 761.546 53.6823 737.601 61.6872 713.032C72.6352 679.431 89.1983 640.861 108.636 600.828C115.388 586.241 121.887 569.973 125.065 560.218L183.872 582.122Z" fill="#CACACA"/>
<g filter="url(#filter0_d_619_121)">
<path d="M892 1050L-144.341 1031.48L-157.957 901.35L-163 762.209L-127.195 530.976L-77.2686 474.419H-42.4717L71.5005 256.198L145.129 140.581L233.886 60L369.543 99.5399L416.443 205.647L397.28 309.752L348.362 379.823L313.565 423.367L335.25 540.986L369.543 615.561L429.555 699.146L519.321 646.593L598.496 530.976V475.42L689.775 388.832L715.999 540.986L639.849 600.046L566.725 834.282L598.496 1005.96L892 1050Z" fill="url(#paint0_linear_619_121)" shape-rendering="crispEdges"/>
</g>
</g>
<path d="M50.4306 611.8C49.2573 611.8 48.0573 611.933 46.8306 612.2V623.4H49.2306C55.364 623.4 58.4306 621.4 58.4306 617.4C58.4306 613.667 55.764 611.8 50.4306 611.8ZM74.4306 642.2C74.4306 648.227 72.4573 652.68 68.5106 655.56C64.6173 658.387 58.324 659.8 49.6306 659.8C43.124 659.8 36.9906 659.4 31.2306 658.6V601C36.724 600.2 42.5906 599.8 48.8306 599.8C64.8306 599.8 72.8306 604.867 72.8306 615C72.8306 618.413 71.7373 621.32 69.5506 623.72C67.364 626.067 64.4573 627.533 60.8306 628.12V628.28C64.9373 628.813 68.2173 630.387 70.6706 633C73.1773 635.613 74.4306 638.68 74.4306 642.2ZM59.6306 640.6C59.6306 636.6 56.6973 634.6 50.8306 634.6H46.8306V647.4C48.0573 647.667 49.2573 647.8 50.4306 647.8C53.6306 647.8 55.9506 647.213 57.3906 646.04C58.884 644.867 59.6306 643.053 59.6306 640.6ZM98.8806 600.6V645.8H122.481V659H82.4806V600.6H98.8806ZM151.109 635.8H161.669L156.469 614.2H156.309L151.109 635.8ZM148.229 647.8L145.589 659H128.949L148.149 600.6H164.949L184.149 659H167.189L164.469 647.8H148.229ZM217.034 659.8C207.594 659.8 200.02 657.133 194.314 651.8C188.66 646.413 185.834 639.08 185.834 629.8C185.834 620.413 188.554 613.08 193.994 607.8C199.487 602.467 207.167 599.8 217.034 599.8C224.554 599.8 230.954 601.667 236.234 605.4L231.834 617C227.407 614.067 223.007 612.6 218.634 612.6C213.46 612.6 209.434 614.093 206.554 617.08C203.674 620.013 202.234 624.253 202.234 629.8C202.234 635.133 203.727 639.347 206.714 642.44C209.754 645.48 213.727 647 218.634 647C223.007 647 227.407 645.533 231.834 642.6L236.234 654.2C230.954 657.933 224.554 659.8 217.034 659.8ZM262.309 625.4H262.469L277.509 600.6H295.909L277.509 628.6L296.709 659H278.309L262.469 631.8H262.309V659H246.309V600.6H262.309V625.4ZM349.796 627H349.636L341.796 647H327.396L319.556 627H319.396V659H304.356V600.6H320.996L334.516 635H334.676L348.196 600.6H365.156V659H349.796V627ZM395.016 635.8H405.576L400.376 614.2H400.216L395.016 635.8ZM392.136 647.8L389.496 659H372.856L392.056 600.6H408.856L428.056 659H411.096L408.376 647.8H392.136ZM436.562 659V600.6H454.162V659H436.562ZM483.021 600.6V645.8H506.621V659H466.621V600.6H483.021ZM553.109 623V635H532.309V646.2H554.709V659H516.309V600.6H554.709V613.4H532.309V623H553.109ZM581.206 638.6V659H565.606V601C572.539 600.2 579.472 599.8 586.406 599.8C602.406 599.8 610.406 605.8 610.406 617.8C610.406 621.16 609.366 624.28 607.286 627.16C605.206 630.04 602.512 632.093 599.206 633.32V633.48C600.806 634.387 602.139 635.56 603.206 637C604.272 638.387 605.286 640.387 606.246 643L612.006 659H595.606L590.646 643.8C590.059 641.933 589.312 640.6 588.406 639.8C587.499 639 586.299 638.6 584.806 638.6H581.206ZM581.206 627H585.606C588.326 627 590.459 626.333 592.006 625C593.606 623.613 594.406 621.747 594.406 619.4C594.406 614.333 591.472 611.8 585.606 611.8C583.899 611.8 582.432 611.933 581.206 612.2V627Z" fill="white"/>
<path d="M70.2109 697.16V704H64.3609V682.25C66.4209 681.95 68.6209 681.8 70.9609 681.8C77.7609 681.8 81.1609 684.25 81.1609 689.15C81.1609 691.81 80.3909 693.83 78.8509 695.21C77.3309 696.57 75.1009 697.25 72.1609 697.25C71.3809 697.25 70.7309 697.22 70.2109 697.16ZM70.2109 692.81C70.5909 692.87 71.0409 692.9 71.5609 692.9C72.8609 692.9 73.8609 692.6 74.5609 692C75.2609 691.4 75.6109 690.55 75.6109 689.45C75.6109 687.35 74.2609 686.3 71.5609 686.3C71.1209 686.3 70.6709 686.35 70.2109 686.45V692.81ZM84.3484 685.7V681.5H90.3484V685.7H84.3484ZM84.3484 704V688.4H90.3484V704H84.3484ZM106.885 699.11L108.085 703.1C106.365 703.9 104.565 704.3 102.685 704.3C99.9247 704.3 97.7347 703.57 96.1147 702.11C94.4947 700.65 93.6847 698.68 93.6847 696.2C93.6847 693.7 94.4747 691.73 96.0547 690.29C97.6547 688.83 99.8647 688.1 102.685 688.1C104.625 688.1 106.425 688.5 108.085 689.3L106.885 693.35C105.645 692.59 104.345 692.21 102.985 692.21C101.845 692.21 100.955 692.55 100.315 693.23C99.6947 693.91 99.3847 694.9 99.3847 696.2C99.3847 697.46 99.7147 698.45 100.375 699.17C101.035 699.89 101.905 700.25 102.985 700.25C104.345 700.25 105.645 699.87 106.885 699.11ZM117.461 697.7H117.401V704H111.701V681.5H117.401V694.1H117.461L121.601 688.4H128.051L122.051 695.9L128.201 704H121.751L117.461 697.7ZM148.443 693.8H149.343C149.343 693.12 149.213 692.65 148.953 692.39C148.693 692.13 148.223 692 147.543 692C145.443 692 143.393 692.45 141.393 693.35L140.643 689.45C142.843 688.55 145.243 688.1 147.843 688.1C150.443 688.1 152.293 688.59 153.393 689.57C154.493 690.53 155.043 692.14 155.043 694.4V699.8C155.043 701.24 155.193 702.64 155.493 704H150.093C149.973 703.32 149.873 702.62 149.793 701.9H149.733C149.193 702.62 148.493 703.2 147.633 703.64C146.773 704.08 145.893 704.3 144.993 704.3C143.453 704.3 142.213 703.88 141.273 703.04C140.353 702.18 139.893 701 139.893 699.5C139.893 697.78 140.623 696.4 142.083 695.36C143.563 694.32 145.683 693.8 148.443 693.8ZM144.993 698.9C144.993 699.8 145.493 700.25 146.493 700.25C147.353 700.25 148.043 700.01 148.563 699.53C149.083 699.05 149.343 698.39 149.343 697.55V697.1H148.443C147.303 697.1 146.443 697.27 145.863 697.61C145.283 697.93 144.993 698.36 144.993 698.9ZM173.784 688.4L173.904 690.5H173.964C175.264 688.9 176.804 688.1 178.584 688.1C180.464 688.1 181.954 688.81 183.054 690.23C184.174 691.63 184.734 693.62 184.734 696.2C184.734 698.72 184.154 700.7 182.994 702.14C181.854 703.58 180.384 704.3 178.584 704.3C176.824 704.3 175.394 703.6 174.294 702.2H174.234V710.6H168.534V688.4H173.784ZM179.334 696.2C179.334 694.96 179.104 694.03 178.644 693.41C178.204 692.77 177.584 692.45 176.784 692.45C176.004 692.45 175.384 692.77 174.924 693.41C174.464 694.03 174.234 694.91 174.234 696.05V696.35C174.234 697.51 174.464 698.4 174.924 699.02C175.384 699.64 176.004 699.95 176.784 699.95C177.524 699.95 178.134 699.63 178.614 698.99C179.094 698.33 179.334 697.4 179.334 696.2ZM188.206 704V681.5H194.206V704H188.206ZM206.392 693.8H207.292C207.292 693.12 207.162 692.65 206.902 692.39C206.642 692.13 206.172 692 205.492 692C203.392 692 201.342 692.45 199.342 693.35L198.592 689.45C200.792 688.55 203.192 688.1 205.792 688.1C208.392 688.1 210.242 688.59 211.342 689.57C212.442 690.53 212.992 692.14 212.992 694.4V699.8C212.992 701.24 213.142 702.64 213.442 704H208.042C207.922 703.32 207.822 702.62 207.742 701.9H207.682C207.142 702.62 206.442 703.2 205.582 703.64C204.722 704.08 203.842 704.3 202.942 704.3C201.402 704.3 200.162 703.88 199.222 703.04C198.302 702.18 197.842 701 197.842 699.5C197.842 697.78 198.572 696.4 200.032 695.36C201.512 694.32 203.632 693.8 206.392 693.8ZM202.942 698.9C202.942 699.8 203.442 700.25 204.442 700.25C205.302 700.25 205.992 700.01 206.512 699.53C207.032 699.05 207.292 698.39 207.292 697.55V697.1H206.392C205.252 697.1 204.392 697.27 203.812 697.61C203.232 697.93 202.942 698.36 202.942 698.9ZM223.344 698.9H223.404L226.224 688.4H232.224L224.124 710.6H218.124L220.824 704L214.824 688.4H221.124L223.344 698.9ZM238.571 694.7H243.641C243.641 692.8 242.791 691.85 241.091 691.85C239.551 691.85 238.711 692.8 238.571 694.7ZM238.631 698C238.971 699.6 240.111 700.4 242.051 700.4C243.551 700.4 244.981 700.05 246.341 699.35L247.541 703.1C245.701 703.9 243.701 704.3 241.541 704.3C238.961 704.3 236.891 703.57 235.331 702.11C233.771 700.65 232.991 698.68 232.991 696.2C232.991 693.7 233.701 691.73 235.121 690.29C236.561 688.83 238.501 688.1 240.941 688.1C243.441 688.1 245.391 688.81 246.791 690.23C248.191 691.63 248.891 693.62 248.891 696.2C248.891 696.74 248.841 697.34 248.741 698H238.631ZM264.366 688.1V692.6C262.126 692.6 260.436 693.02 259.296 693.86C258.156 694.7 257.586 695.88 257.586 697.4V704H251.766V688.4H257.136L257.166 691.4H257.226C258.946 689.2 261.326 688.1 264.366 688.1ZM293.188 699.5H293.248L294.718 688.4H300.208L296.608 704H290.008L288.238 693.2H288.178L286.408 704H279.808L276.208 688.4H281.818L283.288 699.5H283.348L285.118 688.4H291.418L293.188 699.5ZM318.844 695.6V704H313.204V696.2C313.204 694.7 313.064 693.7 312.784 693.2C312.524 692.7 312.044 692.45 311.344 692.45C310.724 692.45 310.164 692.79 309.664 693.47C309.184 694.15 308.944 694.96 308.944 695.9V704H303.244V681.5H308.944V690.2H309.004C309.504 689.56 310.144 689.05 310.924 688.67C311.704 688.29 312.494 688.1 313.294 688.1C315.274 688.1 316.694 688.66 317.554 689.78C318.414 690.88 318.844 692.82 318.844 695.6ZM323.599 690.26C325.039 688.82 327.069 688.1 329.689 688.1C332.309 688.1 334.339 688.82 335.779 690.26C337.219 691.7 337.939 693.68 337.939 696.2C337.939 698.72 337.219 700.7 335.779 702.14C334.339 703.58 332.309 704.3 329.689 704.3C327.069 704.3 325.039 703.58 323.599 702.14C322.159 700.7 321.439 698.72 321.439 696.2C321.439 693.68 322.159 691.7 323.599 690.26ZM327.679 699.29C328.119 699.91 328.789 700.22 329.689 700.22C330.589 700.22 331.259 699.91 331.699 699.29C332.139 698.67 332.359 697.64 332.359 696.2C332.359 694.76 332.139 693.73 331.699 693.11C331.259 692.49 330.589 692.18 329.689 692.18C328.789 692.18 328.119 692.49 327.679 693.11C327.239 693.73 327.019 694.76 327.019 696.2C327.019 697.64 327.239 698.67 327.679 699.29ZM367.873 704V695.3C367.873 694.1 367.763 693.31 367.543 692.93C367.323 692.55 366.923 692.36 366.343 692.36C365.823 692.36 365.393 692.62 365.053 693.14C364.713 693.64 364.543 694.36 364.543 695.3V704H359.083V695.3C359.083 694.1 358.973 693.31 358.753 692.93C358.553 692.55 358.163 692.36 357.583 692.36C357.063 692.36 356.633 692.62 356.293 693.14C355.953 693.64 355.783 694.36 355.783 695.3V704H350.233V688.4H355.333L355.453 690.5H355.513C356.073 689.76 356.723 689.18 357.463 688.76C358.203 688.32 358.943 688.1 359.683 688.1C360.643 688.1 361.403 688.27 361.963 688.61C362.543 688.93 363.073 689.51 363.553 690.35H363.613C364.473 689.51 365.263 688.93 365.983 688.61C366.703 688.27 367.523 688.1 368.443 688.1C370.163 688.1 371.403 688.57 372.163 689.51C372.943 690.45 373.333 692.08 373.333 694.4V704H367.873ZM386.672 701.9C386.112 702.64 385.412 703.23 384.572 703.67C383.752 704.09 382.912 704.3 382.052 704.3C380.172 704.3 378.822 703.81 378.002 702.83C377.202 701.85 376.802 700.14 376.802 697.7V688.4H382.442V697.1C382.442 698.26 382.552 699.03 382.772 699.41C382.992 699.77 383.402 699.95 384.002 699.95C384.622 699.95 385.172 699.61 385.652 698.93C386.152 698.25 386.402 697.44 386.402 696.5V688.4H392.102V704H386.852L386.732 701.9H386.672ZM408.327 693.11C406.507 692.45 404.807 692.12 403.227 692.12C402.367 692.12 401.777 692.2 401.457 692.36C401.137 692.5 400.977 692.73 400.977 693.05C400.977 693.35 401.107 693.58 401.367 693.74C401.627 693.9 402.097 694.02 402.777 694.1C405.237 694.4 406.997 694.98 408.057 695.84C409.137 696.7 409.677 697.87 409.677 699.35C409.677 700.87 409.067 702.08 407.847 702.98C406.647 703.86 404.907 704.3 402.627 704.3C399.927 704.3 397.477 703.8 395.277 702.8L396.327 698.78C398.127 699.74 400.027 700.22 402.027 700.22C403.327 700.22 403.977 699.88 403.977 699.2C403.977 698.94 403.877 698.76 403.677 698.66C403.477 698.56 402.977 698.44 402.177 698.3C399.757 697.92 398.027 697.3 396.987 696.44C395.947 695.56 395.427 694.38 395.427 692.9C395.427 691.4 396.027 690.23 397.227 689.39C398.427 688.53 400.227 688.1 402.627 688.1C405.007 688.1 407.257 688.45 409.377 689.15L408.327 693.11ZM420.534 704.3C418.554 704.3 417.084 703.85 416.124 702.95C415.164 702.03 414.684 700.58 414.684 698.6V692.9H411.534V689H414.684V683.3H420.504V689H425.334V692.9H420.504V697.7C420.504 698.66 420.614 699.3 420.834 699.62C421.054 699.94 421.454 700.1 422.034 700.1C422.914 700.1 423.814 699.95 424.734 699.65L425.334 703.7C423.854 704.1 422.254 704.3 420.534 704.3ZM448.401 701.6H448.371C447.211 703 445.721 703.7 443.901 703.7C442.121 703.7 440.651 703.01 439.491 701.63C438.331 700.23 437.751 698.32 437.751 695.9C437.751 693.44 438.311 691.53 439.431 690.17C440.551 688.79 442.041 688.1 443.901 688.1C445.681 688.1 447.221 688.9 448.521 690.5H448.581L448.701 688.4H453.951V702.2C453.951 705.06 453.161 707.22 451.581 708.68C450.001 710.16 447.691 710.9 444.651 710.9C442.731 710.9 440.931 710.6 439.251 710L440.151 705.98C441.551 706.56 442.951 706.85 444.351 706.85C445.811 706.85 446.851 706.5 447.471 705.8C448.091 705.12 448.401 703.92 448.401 702.2V701.6ZM443.151 695.9C443.151 697.04 443.381 697.93 443.841 698.57C444.321 699.19 444.941 699.5 445.701 699.5C446.481 699.5 447.101 699.21 447.561 698.63C448.021 698.03 448.251 697.17 448.251 696.05V695.75C448.251 694.65 448.021 693.8 447.561 693.2C447.101 692.6 446.481 692.3 445.701 692.3C444.901 692.3 444.271 692.61 443.811 693.23C443.371 693.83 443.151 694.72 443.151 695.9ZM458.323 685.7V681.5H464.323V685.7H458.323ZM458.323 704V688.4H464.323V704H458.323ZM476.089 700.7H476.149L478.669 688.4H484.609L479.959 704H472.159L467.509 688.4H473.569L476.089 700.7ZM491.286 694.7H496.356C496.356 692.8 495.506 691.85 493.806 691.85C492.266 691.85 491.426 692.8 491.286 694.7ZM491.346 698C491.686 699.6 492.826 700.4 494.766 700.4C496.266 700.4 497.696 700.05 499.056 699.35L500.256 703.1C498.416 703.9 496.416 704.3 494.256 704.3C491.676 704.3 489.606 703.57 488.046 702.11C486.486 700.65 485.706 698.68 485.706 696.2C485.706 693.7 486.416 691.73 487.836 690.29C489.276 688.83 491.216 688.1 493.656 688.1C496.156 688.1 498.106 688.81 499.506 690.23C500.906 691.63 501.606 693.62 501.606 696.2C501.606 696.74 501.556 697.34 501.456 698H491.346ZM521.352 698.9H521.412L524.232 688.4H530.232L522.132 710.6H516.132L518.832 704L512.832 688.4H519.132L521.352 698.9ZM533.159 690.26C534.599 688.82 536.629 688.1 539.249 688.1C541.869 688.1 543.899 688.82 545.339 690.26C546.779 691.7 547.499 693.68 547.499 696.2C547.499 698.72 546.779 700.7 545.339 702.14C543.899 703.58 541.869 704.3 539.249 704.3C536.629 704.3 534.599 703.58 533.159 702.14C531.719 700.7 530.999 698.72 530.999 696.2C530.999 693.68 531.719 691.7 533.159 690.26ZM537.239 699.29C537.679 699.91 538.349 700.22 539.249 700.22C540.149 700.22 540.819 699.91 541.259 699.29C541.699 698.67 541.919 697.64 541.919 696.2C541.919 694.76 541.699 693.73 541.259 693.11C540.819 692.49 540.149 692.18 539.249 692.18C538.349 692.18 537.679 692.49 537.239 693.11C536.799 693.73 536.579 694.76 536.579 696.2C536.579 697.64 536.799 698.67 537.239 699.29ZM559.963 701.9C559.403 702.64 558.703 703.23 557.863 703.67C557.043 704.09 556.203 704.3 555.343 704.3C553.463 704.3 552.113 703.81 551.293 702.83C550.493 701.85 550.093 700.14 550.093 697.7V688.4H555.733V697.1C555.733 698.26 555.843 699.03 556.063 699.41C556.283 699.77 556.693 699.95 557.293 699.95C557.913 699.95 558.463 699.61 558.943 698.93C559.443 698.25 559.693 697.44 559.693 696.5V688.4H565.393V704H560.143L560.023 701.9H559.963ZM54.6156 747.3C52.6356 747.3 51.1656 746.85 50.2056 745.95C49.2456 745.03 48.7656 743.58 48.7656 741.6V735.9H45.6156V732H48.7656V726.3H54.5856V732H59.4156V735.9H54.5856V740.7C54.5856 741.66 54.6956 742.3 54.9156 742.62C55.1356 742.94 55.5356 743.1 56.1156 743.1C56.9956 743.1 57.8956 742.95 58.8156 742.65L59.4156 746.7C57.9356 747.1 56.3356 747.3 54.6156 747.3ZM79.262 742.5H79.322L80.792 731.4H86.282L82.682 747H76.082L74.312 736.2H74.252L72.482 747H65.882L62.282 731.4H67.892L69.362 742.5H69.422L71.192 731.4H77.492L79.262 742.5ZM89.9854 733.26C91.4254 731.82 93.4554 731.1 96.0754 731.1C98.6954 731.1 100.725 731.82 102.165 733.26C103.605 734.7 104.325 736.68 104.325 739.2C104.325 741.72 103.605 743.7 102.165 745.14C100.725 746.58 98.6954 747.3 96.0754 747.3C93.4554 747.3 91.4254 746.58 89.9854 745.14C88.5454 743.7 87.8254 741.72 87.8254 739.2C87.8254 736.68 88.5454 734.7 89.9854 733.26ZM94.0654 742.29C94.5054 742.91 95.1754 743.22 96.0754 743.22C96.9754 743.22 97.6454 742.91 98.0854 742.29C98.5254 741.67 98.7454 740.64 98.7454 739.2C98.7454 737.76 98.5254 736.73 98.0854 736.11C97.6454 735.49 96.9754 735.18 96.0754 735.18C95.1754 735.18 94.5054 735.49 94.0654 736.11C93.6254 736.73 93.4054 737.76 93.4054 739.2C93.4054 740.64 93.6254 741.67 94.0654 742.29ZM128.769 742.11L129.969 746.1C128.249 746.9 126.449 747.3 124.569 747.3C121.809 747.3 119.619 746.57 117.999 745.11C116.379 743.65 115.569 741.68 115.569 739.2C115.569 736.7 116.359 734.73 117.939 733.29C119.539 731.83 121.749 731.1 124.569 731.1C126.509 731.1 128.309 731.5 129.969 732.3L128.769 736.35C127.529 735.59 126.229 735.21 124.869 735.21C123.729 735.21 122.839 735.55 122.199 736.23C121.579 736.91 121.269 737.9 121.269 739.2C121.269 740.46 121.599 741.45 122.259 742.17C122.919 742.89 123.789 743.25 124.869 743.25C126.229 743.25 127.529 742.87 128.769 742.11ZM134.546 733.26C135.986 731.82 138.016 731.1 140.636 731.1C143.256 731.1 145.286 731.82 146.726 733.26C148.166 734.7 148.886 736.68 148.886 739.2C148.886 741.72 148.166 743.7 146.726 745.14C145.286 746.58 143.256 747.3 140.636 747.3C138.016 747.3 135.986 746.58 134.546 745.14C133.106 743.7 132.386 741.72 132.386 739.2C132.386 736.68 133.106 734.7 134.546 733.26ZM138.626 742.29C139.066 742.91 139.736 743.22 140.636 743.22C141.536 743.22 142.206 742.91 142.646 742.29C143.086 741.67 143.306 740.64 143.306 739.2C143.306 737.76 143.086 736.73 142.646 736.11C142.206 735.49 141.536 735.18 140.636 735.18C139.736 735.18 139.066 735.49 138.626 736.11C138.186 736.73 137.966 737.76 137.966 739.2C137.966 740.64 138.186 741.67 138.626 742.29ZM152.229 728.7V724.5H158.229V728.7H152.229ZM152.229 747V731.4H158.229V747H152.229ZM168.046 733.5C168.606 732.76 169.296 732.18 170.116 731.76C170.956 731.32 171.806 731.1 172.666 731.1C174.646 731.1 176.066 731.66 176.926 732.78C177.786 733.88 178.216 735.82 178.216 738.6V747H172.576V739.2C172.576 737.7 172.436 736.7 172.156 736.2C171.896 735.7 171.416 735.45 170.716 735.45C170.096 735.45 169.536 735.79 169.036 736.47C168.556 737.15 168.316 737.96 168.316 738.9V747H162.616V731.4H167.866L167.986 733.5H168.046ZM194.284 736.11C192.464 735.45 190.764 735.12 189.184 735.12C188.324 735.12 187.734 735.2 187.414 735.36C187.094 735.5 186.934 735.73 186.934 736.05C186.934 736.35 187.064 736.58 187.324 736.74C187.584 736.9 188.054 737.02 188.734 737.1C191.194 737.4 192.954 737.98 194.014 738.84C195.094 739.7 195.634 740.87 195.634 742.35C195.634 743.87 195.024 745.08 193.804 745.98C192.604 746.86 190.864 747.3 188.584 747.3C185.884 747.3 183.434 746.8 181.234 745.8L182.284 741.78C184.084 742.74 185.984 743.22 187.984 743.22C189.284 743.22 189.934 742.88 189.934 742.2C189.934 741.94 189.834 741.76 189.634 741.66C189.434 741.56 188.934 741.44 188.134 741.3C185.714 740.92 183.984 740.3 182.944 739.44C181.904 738.56 181.384 737.38 181.384 735.9C181.384 734.4 181.984 733.23 183.184 732.39C184.384 731.53 186.184 731.1 188.584 731.1C190.964 731.1 193.214 731.45 195.334 732.15L194.284 736.11ZM209.487 733.26C210.927 731.82 212.957 731.1 215.577 731.1C218.197 731.1 220.227 731.82 221.667 733.26C223.107 734.7 223.827 736.68 223.827 739.2C223.827 741.72 223.107 743.7 221.667 745.14C220.227 746.58 218.197 747.3 215.577 747.3C212.957 747.3 210.927 746.58 209.487 745.14C208.047 743.7 207.327 741.72 207.327 739.2C207.327 736.68 208.047 734.7 209.487 733.26ZM213.567 742.29C214.007 742.91 214.677 743.22 215.577 743.22C216.477 743.22 217.147 742.91 217.587 742.29C218.027 741.67 218.247 740.64 218.247 739.2C218.247 737.76 218.027 736.73 217.587 736.11C217.147 735.49 216.477 735.18 215.577 735.18C214.677 735.18 214.007 735.49 213.567 736.11C213.127 736.73 212.907 737.76 212.907 739.2C212.907 740.64 213.127 741.67 213.567 742.29ZM239.171 731.1V735.6C236.931 735.6 235.241 736.02 234.101 736.86C232.961 737.7 232.391 738.88 232.391 740.4V747H226.571V731.4H231.941L231.971 734.4H232.031C233.751 732.2 236.131 731.1 239.171 731.1ZM264.362 736.11C262.542 735.45 260.842 735.12 259.262 735.12C258.402 735.12 257.812 735.2 257.492 735.36C257.172 735.5 257.012 735.73 257.012 736.05C257.012 736.35 257.142 736.58 257.402 736.74C257.662 736.9 258.132 737.02 258.812 737.1C261.272 737.4 263.032 737.98 264.092 738.84C265.172 739.7 265.712 740.87 265.712 742.35C265.712 743.87 265.102 745.08 263.882 745.98C262.682 746.86 260.942 747.3 258.662 747.3C255.962 747.3 253.512 746.8 251.312 745.8L252.362 741.78C254.162 742.74 256.062 743.22 258.062 743.22C259.362 743.22 260.012 742.88 260.012 742.2C260.012 741.94 259.912 741.76 259.712 741.66C259.512 741.56 259.012 741.44 258.212 741.3C255.792 740.92 254.062 740.3 253.022 739.44C251.982 738.56 251.462 737.38 251.462 735.9C251.462 734.4 252.062 733.23 253.262 732.39C254.462 731.53 256.262 731.1 258.662 731.1C261.042 731.1 263.292 731.45 265.412 732.15L264.362 736.11ZM284.655 738.6V747H279.015V739.2C279.015 737.7 278.875 736.7 278.595 736.2C278.335 735.7 277.855 735.45 277.155 735.45C276.535 735.45 275.975 735.79 275.475 736.47C274.995 737.15 274.755 737.96 274.755 738.9V747H269.055V724.5H274.755V733.2H274.815C275.315 732.56 275.955 732.05 276.735 731.67C277.515 731.29 278.305 731.1 279.105 731.1C281.085 731.1 282.505 731.66 283.365 732.78C284.225 733.88 284.655 735.82 284.655 738.6ZM289.409 733.26C290.849 731.82 292.879 731.1 295.499 731.1C298.119 731.1 300.149 731.82 301.589 733.26C303.029 734.7 303.749 736.68 303.749 739.2C303.749 741.72 303.029 743.7 301.589 745.14C300.149 746.58 298.119 747.3 295.499 747.3C292.879 747.3 290.849 746.58 289.409 745.14C287.969 743.7 287.249 741.72 287.249 739.2C287.249 736.68 287.969 734.7 289.409 733.26ZM293.489 742.29C293.929 742.91 294.599 743.22 295.499 743.22C296.399 743.22 297.069 742.91 297.509 742.29C297.949 741.67 298.169 740.64 298.169 739.2C298.169 737.76 297.949 736.73 297.509 736.11C297.069 735.49 296.399 735.18 295.499 735.18C294.599 735.18 293.929 735.49 293.489 736.11C293.049 736.73 292.829 737.76 292.829 739.2C292.829 740.64 293.049 741.67 293.489 742.29ZM322.28 742.5H322.34L323.81 731.4H329.3L325.7 747H319.1L317.33 736.2H317.27L315.5 747H308.9L305.3 731.4H310.91L312.38 742.5H312.44L314.21 731.4H320.51L322.28 742.5ZM349.057 741.9H349.117L351.937 731.4H357.937L349.837 753.6H343.837L346.537 747L340.537 731.4H346.837L349.057 741.9ZM360.864 733.26C362.304 731.82 364.334 731.1 366.954 731.1C369.574 731.1 371.604 731.82 373.044 733.26C374.484 734.7 375.204 736.68 375.204 739.2C375.204 741.72 374.484 743.7 373.044 745.14C371.604 746.58 369.574 747.3 366.954 747.3C364.334 747.3 362.304 746.58 360.864 745.14C359.424 743.7 358.704 741.72 358.704 739.2C358.704 736.68 359.424 734.7 360.864 733.26ZM364.944 742.29C365.384 742.91 366.054 743.22 366.954 743.22C367.854 743.22 368.524 742.91 368.964 742.29C369.404 741.67 369.624 740.64 369.624 739.2C369.624 737.76 369.404 736.73 368.964 736.11C368.524 735.49 367.854 735.18 366.954 735.18C366.054 735.18 365.384 735.49 364.944 736.11C364.504 736.73 364.284 737.76 364.284 739.2C364.284 740.64 364.504 741.67 364.944 742.29ZM387.668 744.9C387.108 745.64 386.408 746.23 385.568 746.67C384.748 747.09 383.908 747.3 383.048 747.3C381.168 747.3 379.818 746.81 378.998 745.83C378.198 744.85 377.798 743.14 377.798 740.7V731.4H383.438V740.1C383.438 741.26 383.548 742.03 383.768 742.41C383.988 742.77 384.398 742.95 384.998 742.95C385.618 742.95 386.168 742.61 386.648 741.93C387.148 741.25 387.398 740.44 387.398 739.5V731.4H393.098V747H387.848L387.728 744.9H387.668ZM407.534 733.26C408.974 731.82 411.004 731.1 413.624 731.1C416.244 731.1 418.274 731.82 419.714 733.26C421.154 734.7 421.874 736.68 421.874 739.2C421.874 741.72 421.154 743.7 419.714 745.14C418.274 746.58 416.244 747.3 413.624 747.3C411.004 747.3 408.974 746.58 407.534 745.14C406.094 743.7 405.374 741.72 405.374 739.2C405.374 736.68 406.094 734.7 407.534 733.26ZM411.614 742.29C412.054 742.91 412.724 743.22 413.624 743.22C414.524 743.22 415.194 742.91 415.634 742.29C416.074 741.67 416.294 740.64 416.294 739.2C416.294 737.76 416.074 736.73 415.634 736.11C415.194 735.49 414.524 735.18 413.624 735.18C412.724 735.18 412.054 735.49 411.614 736.11C411.174 736.73 410.954 737.76 410.954 739.2C410.954 740.64 411.174 741.67 411.614 742.29ZM430.048 733.5C430.608 732.76 431.298 732.18 432.118 731.76C432.958 731.32 433.808 731.1 434.668 731.1C436.648 731.1 438.068 731.66 438.928 732.78C439.788 733.88 440.218 735.82 440.218 738.6V747H434.578V739.2C434.578 737.7 434.438 736.7 434.158 736.2C433.898 735.7 433.418 735.45 432.718 735.45C432.098 735.45 431.538 735.79 431.038 736.47C430.558 737.15 430.318 737.96 430.318 738.9V747H424.618V731.4H429.868L429.988 733.5H430.048ZM448.366 737.7H453.436C453.436 735.8 452.586 734.85 450.886 734.85C449.346 734.85 448.506 735.8 448.366 737.7ZM448.426 741C448.766 742.6 449.906 743.4 451.846 743.4C453.346 743.4 454.776 743.05 456.136 742.35L457.336 746.1C455.496 746.9 453.496 747.3 451.336 747.3C448.756 747.3 446.686 746.57 445.126 745.11C443.566 743.65 442.786 741.68 442.786 739.2C442.786 736.7 443.496 734.73 444.916 733.29C446.356 731.83 448.296 731.1 450.736 731.1C453.236 731.1 455.186 731.81 456.586 733.23C457.986 734.63 458.686 736.62 458.686 739.2C458.686 739.74 458.636 740.34 458.536 741H448.426ZM472.222 733.26C473.662 731.82 475.692 731.1 478.312 731.1C480.932 731.1 482.962 731.82 484.402 733.26C485.842 734.7 486.562 736.68 486.562 739.2C486.562 741.72 485.842 743.7 484.402 745.14C482.962 746.58 480.932 747.3 478.312 747.3C475.692 747.3 473.662 746.58 472.222 745.14C470.782 743.7 470.062 741.72 470.062 739.2C470.062 736.68 470.782 734.7 472.222 733.26ZM476.302 742.29C476.742 742.91 477.412 743.22 478.312 743.22C479.212 743.22 479.882 742.91 480.322 742.29C480.762 741.67 480.982 740.64 480.982 739.2C480.982 737.76 480.762 736.73 480.322 736.11C479.882 735.49 479.212 735.18 478.312 735.18C477.412 735.18 476.742 735.49 476.302 736.11C475.862 736.73 475.642 737.76 475.642 739.2C475.642 740.64 475.862 741.67 476.302 742.29ZM498.462 724.8C499.742 724.8 501.092 724.95 502.512 725.25L501.762 729.45C501.042 729.15 500.292 729 499.512 729C498.812 729 498.332 729.17 498.072 729.51C497.812 729.83 497.682 730.46 497.682 731.4V732H502.212V735.9H497.682V747H491.862V735.9H488.412V732H491.862V731.4C491.862 729.26 492.432 727.63 493.572 726.51C494.712 725.37 496.342 724.8 498.462 724.8ZM523.952 747.3C521.972 747.3 520.502 746.85 519.542 745.95C518.582 745.03 518.102 743.58 518.102 741.6V735.9H514.952V732H518.102V726.3H523.922V732H528.752V735.9H523.922V740.7C523.922 741.66 524.032 742.3 524.252 742.62C524.472 742.94 524.872 743.1 525.452 743.1C526.332 743.1 527.232 742.95 528.152 742.65L528.752 746.7C527.272 747.1 525.672 747.3 523.952 747.3ZM548.268 738.6V747H542.628V739.2C542.628 737.7 542.488 736.7 542.208 736.2C541.948 735.7 541.468 735.45 540.768 735.45C540.148 735.45 539.588 735.79 539.088 736.47C538.608 737.15 538.368 737.96 538.368 738.9V747H532.668V724.5H538.368V733.2H538.428C538.928 732.56 539.568 732.05 540.348 731.67C541.128 731.29 541.918 731.1 542.718 731.1C544.698 731.1 546.118 731.66 546.978 732.78C547.838 733.88 548.268 735.82 548.268 738.6ZM556.442 737.7H561.512C561.512 735.8 560.662 734.85 558.962 734.85C557.422 734.85 556.582 735.8 556.442 737.7ZM556.502 741C556.842 742.6 557.982 743.4 559.922 743.4C561.422 743.4 562.852 743.05 564.212 742.35L565.412 746.1C563.572 746.9 561.572 747.3 559.412 747.3C556.832 747.3 554.762 746.57 553.202 745.11C551.642 743.65 550.862 741.68 550.862 739.2C550.862 736.7 551.572 734.73 552.992 733.29C554.432 731.83 556.372 731.1 558.812 731.1C561.312 731.1 563.262 731.81 564.662 733.23C566.062 734.63 566.762 736.62 566.762 739.2C566.762 739.74 566.712 740.34 566.612 741H556.502ZM570.237 728.7V724.5H576.237V728.7H570.237ZM570.237 747V731.4H576.237V747H570.237ZM593.223 731.1V735.6C590.983 735.6 589.293 736.02 588.153 736.86C587.013 737.7 586.443 738.88 586.443 740.4V747H580.623V731.4H585.993L586.023 734.4H586.083C587.803 732.2 590.183 731.1 593.223 731.1ZM41.9482 785.11L43.1482 789.1C41.4282 789.9 39.6282 790.3 37.7482 790.3C34.9882 790.3 32.7982 789.57 31.1782 788.11C29.5582 786.65 28.7482 784.68 28.7482 782.2C28.7482 779.7 29.5382 777.73 31.1182 776.29C32.7182 774.83 34.9282 774.1 37.7482 774.1C39.6882 774.1 41.4882 774.5 43.1482 775.3L41.9482 779.35C40.7082 778.59 39.4082 778.21 38.0482 778.21C36.9082 778.21 36.0182 778.55 35.3782 779.23C34.7582 779.91 34.4482 780.9 34.4482 782.2C34.4482 783.46 34.7782 784.45 35.4382 785.17C36.0982 785.89 36.9682 786.25 38.0482 786.25C39.4082 786.25 40.7082 785.87 41.9482 785.11ZM54.4146 779.8H55.3146C55.3146 779.12 55.1846 778.65 54.9246 778.39C54.6646 778.13 54.1946 778 53.5146 778C51.4146 778 49.3646 778.45 47.3646 779.35L46.6146 775.45C48.8146 774.55 51.2146 774.1 53.8146 774.1C56.4146 774.1 58.2646 774.59 59.3646 775.57C60.4646 776.53 61.0146 778.14 61.0146 780.4V785.8C61.0146 787.24 61.1646 788.64 61.4646 790H56.0646C55.9446 789.32 55.8446 788.62 55.7646 787.9H55.7046C55.1646 788.62 54.4646 789.2 53.6046 789.64C52.7446 790.08 51.8646 790.3 50.9646 790.3C49.4246 790.3 48.1846 789.88 47.2446 789.04C46.3246 788.18 45.8646 787 45.8646 785.5C45.8646 783.78 46.5946 782.4 48.0546 781.36C49.5346 780.32 51.6546 779.8 54.4146 779.8ZM50.9646 784.9C50.9646 785.8 51.4646 786.25 52.4646 786.25C53.3246 786.25 54.0146 786.01 54.5346 785.53C55.0546 785.05 55.3146 784.39 55.3146 783.55V783.1H54.4146C53.2746 783.1 52.4146 783.27 51.8346 783.61C51.2546 783.93 50.9646 784.36 50.9646 784.9ZM77.5545 774.1V778.6C75.3145 778.6 73.6245 779.02 72.4845 779.86C71.3445 780.7 70.7745 781.88 70.7745 783.4V790H64.9545V774.4H70.3245L70.3545 777.4H70.4145C72.1345 775.2 74.5145 774.1 77.5545 774.1ZM79.2595 782.2C79.2595 779.62 79.8095 777.63 80.9095 776.23C82.0295 774.81 83.5295 774.1 85.4095 774.1C87.1095 774.1 88.5395 774.8 89.6995 776.2H89.7595V767.5H95.4595V790H90.2095L90.0895 787.9H90.0295C88.7695 789.5 87.2295 790.3 85.4095 790.3C83.6095 790.3 82.1295 789.58 80.9695 788.14C79.8295 786.7 79.2595 784.72 79.2595 782.2ZM84.6595 782.2C84.6595 783.4 84.8995 784.33 85.3795 784.99C85.8595 785.63 86.4695 785.95 87.2095 785.95C87.9895 785.95 88.6095 785.64 89.0695 785.02C89.5295 784.4 89.7595 783.51 89.7595 782.35V782.05C89.7595 780.91 89.5295 780.03 89.0695 779.41C88.6095 778.77 87.9895 778.45 87.2095 778.45C86.4095 778.45 85.7795 778.77 85.3195 779.41C84.8795 780.03 84.6595 780.96 84.6595 782.2ZM111.828 779.11C110.008 778.45 108.308 778.12 106.728 778.12C105.868 778.12 105.278 778.2 104.958 778.36C104.638 778.5 104.478 778.73 104.478 779.05C104.478 779.35 104.608 779.58 104.868 779.74C105.128 779.9 105.598 780.02 106.278 780.1C108.738 780.4 110.498 780.98 111.558 781.84C112.638 782.7 113.178 783.87 113.178 785.35C113.178 786.87 112.568 788.08 111.348 788.98C110.148 789.86 108.408 790.3 106.128 790.3C103.428 790.3 100.978 789.8 98.7783 788.8L99.8283 784.78C101.628 785.74 103.528 786.22 105.528 786.22C106.828 786.22 107.478 785.88 107.478 785.2C107.478 784.94 107.378 784.76 107.178 784.66C106.978 784.56 106.478 784.44 105.678 784.3C103.258 783.92 101.528 783.3 100.488 782.44C99.4483 781.56 98.9283 780.38 98.9283 778.9C98.9283 777.4 99.5283 776.23 100.728 775.39C101.928 774.53 103.728 774.1 106.128 774.1C108.508 774.1 110.758 774.45 112.878 775.15L111.828 779.11ZM120.135 793.3H115.335L117.135 783.7H123.735L120.135 793.3ZM152.988 785.5H153.048L154.518 774.4H160.008L156.408 790H149.808L148.038 779.2H147.978L146.208 790H139.608L136.008 774.4H141.618L143.088 785.5H143.148L144.918 774.4H151.218L152.988 785.5ZM178.644 781.6V790H173.004V782.2C173.004 780.7 172.864 779.7 172.584 779.2C172.324 778.7 171.844 778.45 171.144 778.45C170.524 778.45 169.964 778.79 169.464 779.47C168.984 780.15 168.744 780.96 168.744 781.9V790H163.044V767.5H168.744V776.2H168.804C169.304 775.56 169.944 775.05 170.724 774.67C171.504 774.29 172.294 774.1 173.094 774.1C175.074 774.1 176.494 774.66 177.354 775.78C178.214 776.88 178.644 778.82 178.644 781.6ZM182.888 771.7V767.5H188.888V771.7H182.888ZM182.888 790V774.4H188.888V790H182.888ZM205.425 785.11L206.625 789.1C204.905 789.9 203.105 790.3 201.225 790.3C198.465 790.3 196.275 789.57 194.655 788.11C193.035 786.65 192.225 784.68 192.225 782.2C192.225 779.7 193.015 777.73 194.595 776.29C196.195 774.83 198.405 774.1 201.225 774.1C203.165 774.1 204.965 774.5 206.625 775.3L205.425 779.35C204.185 778.59 202.885 778.21 201.525 778.21C200.385 778.21 199.495 778.55 198.855 779.23C198.235 779.91 197.925 780.9 197.925 782.2C197.925 783.46 198.255 784.45 198.915 785.17C199.575 785.89 200.445 786.25 201.525 786.25C202.885 786.25 204.185 785.87 205.425 785.11ZM225.841 781.6V790H220.201V782.2C220.201 780.7 220.061 779.7 219.781 779.2C219.521 778.7 219.041 778.45 218.341 778.45C217.721 778.45 217.161 778.79 216.661 779.47C216.181 780.15 215.941 780.96 215.941 781.9V790H210.241V767.5H215.941V776.2H216.001C216.501 775.56 217.141 775.05 217.921 774.67C218.701 774.29 219.491 774.1 220.291 774.1C222.271 774.1 223.691 774.66 224.551 775.78C225.411 776.88 225.841 778.82 225.841 781.6ZM246.356 784.9H246.416L249.236 774.4H255.236L247.136 796.6H241.136L243.836 790L237.836 774.4H244.136L246.356 784.9ZM258.164 776.26C259.604 774.82 261.634 774.1 264.254 774.1C266.874 774.1 268.904 774.82 270.344 776.26C271.784 777.7 272.504 779.68 272.504 782.2C272.504 784.72 271.784 786.7 270.344 788.14C268.904 789.58 266.874 790.3 264.254 790.3C261.634 790.3 259.604 789.58 258.164 788.14C256.724 786.7 256.004 784.72 256.004 782.2C256.004 779.68 256.724 777.7 258.164 776.26ZM262.244 785.29C262.684 785.91 263.354 786.22 264.254 786.22C265.154 786.22 265.824 785.91 266.264 785.29C266.704 784.67 266.924 783.64 266.924 782.2C266.924 780.76 266.704 779.73 266.264 779.11C265.824 778.49 265.154 778.18 264.254 778.18C263.354 778.18 262.684 778.49 262.244 779.11C261.804 779.73 261.584 780.76 261.584 782.2C261.584 783.64 261.804 784.67 262.244 785.29ZM284.967 787.9C284.407 788.64 283.707 789.23 282.867 789.67C282.047 790.09 281.207 790.3 280.347 790.3C278.467 790.3 277.117 789.81 276.297 788.83C275.497 787.85 275.097 786.14 275.097 783.7V774.4H280.737V783.1C280.737 784.26 280.847 785.03 281.067 785.41C281.287 785.77 281.697 785.95 282.297 785.95C282.917 785.95 283.467 785.61 283.947 784.93C284.447 784.25 284.697 783.44 284.697 782.5V774.4H290.397V790H285.147L285.027 787.9H284.967ZM321.364 790V781.3C321.364 780.1 321.254 779.31 321.034 778.93C320.814 778.55 320.414 778.36 319.834 778.36C319.314 778.36 318.884 778.62 318.544 779.14C318.204 779.64 318.034 780.36 318.034 781.3V790H312.574V781.3C312.574 780.1 312.464 779.31 312.244 778.93C312.044 778.55 311.654 778.36 311.074 778.36C310.554 778.36 310.124 778.62 309.784 779.14C309.444 779.64 309.274 780.36 309.274 781.3V790H303.724V774.4H308.824L308.944 776.5H309.004C309.564 775.76 310.214 775.18 310.954 774.76C311.694 774.32 312.434 774.1 313.174 774.1C314.134 774.1 314.894 774.27 315.454 774.61C316.034 774.93 316.564 775.51 317.044 776.35H317.104C317.964 775.51 318.754 774.93 319.474 774.61C320.194 774.27 321.014 774.1 321.934 774.1C323.654 774.1 324.894 774.57 325.654 775.51C326.434 776.45 326.824 778.08 326.824 780.4V790H321.364ZM338.243 779.8H339.143C339.143 779.12 339.013 778.65 338.753 778.39C338.493 778.13 338.023 778 337.343 778C335.243 778 333.193 778.45 331.193 779.35L330.443 775.45C332.643 774.55 335.043 774.1 337.643 774.1C340.243 774.1 342.093 774.59 343.193 775.57C344.293 776.53 344.843 778.14 344.843 780.4V785.8C344.843 787.24 344.993 788.64 345.293 790H339.893C339.773 789.32 339.673 788.62 339.593 787.9H339.533C338.993 788.62 338.293 789.2 337.433 789.64C336.573 790.08 335.693 790.3 334.793 790.3C333.253 790.3 332.013 789.88 331.073 789.04C330.153 788.18 329.693 787 329.693 785.5C329.693 783.78 330.423 782.4 331.883 781.36C333.363 780.32 335.483 779.8 338.243 779.8ZM334.793 784.9C334.793 785.8 335.293 786.25 336.293 786.25C337.153 786.25 337.843 786.01 338.363 785.53C338.883 785.05 339.143 784.39 339.143 783.55V783.1H338.243C337.103 783.1 336.243 783.27 335.663 783.61C335.083 783.93 334.793 784.36 334.793 784.9ZM355.194 784.9H355.254L358.074 774.4H364.074L355.974 796.6H349.974L352.674 790L346.674 774.4H352.974L355.194 784.9ZM388.654 779.11C386.834 778.45 385.134 778.12 383.554 778.12C382.694 778.12 382.104 778.2 381.784 778.36C381.464 778.5 381.304 778.73 381.304 779.05C381.304 779.35 381.434 779.58 381.694 779.74C381.954 779.9 382.424 780.02 383.104 780.1C385.564 780.4 387.324 780.98 388.384 781.84C389.464 782.7 390.004 783.87 390.004 785.35C390.004 786.87 389.394 788.08 388.174 788.98C386.974 789.86 385.234 790.3 382.954 790.3C380.254 790.3 377.804 789.8 375.604 788.8L376.654 784.78C378.454 785.74 380.354 786.22 382.354 786.22C383.654 786.22 384.304 785.88 384.304 785.2C384.304 784.94 384.204 784.76 384.004 784.66C383.804 784.56 383.304 784.44 382.504 784.3C380.084 783.92 378.354 783.3 377.314 782.44C376.274 781.56 375.754 780.38 375.754 778.9C375.754 777.4 376.354 776.23 377.554 775.39C378.754 774.53 380.554 774.1 382.954 774.1C385.334 774.1 387.584 774.45 389.704 775.15L388.654 779.11ZM408.984 785.5H409.044L410.514 774.4H416.004L412.404 790H405.804L404.034 779.2H403.974L402.204 790H395.604L392.004 774.4H397.614L399.084 785.5H399.144L400.914 774.4H407.214L408.984 785.5ZM426.397 779.8H427.297C427.297 779.12 427.167 778.65 426.907 778.39C426.647 778.13 426.177 778 425.497 778C423.397 778 421.347 778.45 419.347 779.35L418.597 775.45C420.797 774.55 423.197 774.1 425.797 774.1C428.397 774.1 430.247 774.59 431.347 775.57C432.447 776.53 432.997 778.14 432.997 780.4V785.8C432.997 787.24 433.147 788.64 433.447 790H428.047C427.927 789.32 427.827 788.62 427.747 787.9H427.687C427.147 788.62 426.447 789.2 425.587 789.64C424.727 790.08 423.847 790.3 422.947 790.3C421.407 790.3 420.167 789.88 419.227 789.04C418.307 788.18 417.847 787 417.847 785.5C417.847 783.78 418.577 782.4 420.037 781.36C421.517 780.32 423.637 779.8 426.397 779.8ZM422.947 784.9C422.947 785.8 423.447 786.25 424.447 786.25C425.307 786.25 425.997 786.01 426.517 785.53C427.037 785.05 427.297 784.39 427.297 783.55V783.1H426.397C425.257 783.1 424.397 783.27 423.817 783.61C423.237 783.93 422.947 784.36 422.947 784.9ZM442.187 774.4L442.307 776.5H442.367C443.667 774.9 445.207 774.1 446.987 774.1C448.867 774.1 450.357 774.81 451.457 776.23C452.577 777.63 453.137 779.62 453.137 782.2C453.137 784.72 452.557 786.7 451.397 788.14C450.257 789.58 448.787 790.3 446.987 790.3C445.227 790.3 443.797 789.6 442.697 788.2H442.637V796.6H436.937V774.4H442.187ZM447.737 782.2C447.737 780.96 447.507 780.03 447.047 779.41C446.607 778.77 445.987 778.45 445.187 778.45C444.407 778.45 443.787 778.77 443.327 779.41C442.867 780.03 442.637 780.91 442.637 782.05V782.35C442.637 783.51 442.867 784.4 443.327 785.02C443.787 785.64 444.407 785.95 445.187 785.95C445.927 785.95 446.537 785.63 447.017 784.99C447.497 784.33 447.737 783.4 447.737 782.2ZM481.64 785.5H481.7L483.17 774.4H488.66L485.06 790H478.46L476.69 779.2H476.63L474.86 790H468.26L464.66 774.4H470.27L471.74 785.5H471.8L473.57 774.4H479.87L481.64 785.5ZM492.146 771.7V767.5H498.146V771.7H492.146ZM492.146 790V774.4H498.146V790H492.146ZM510.783 790.3C508.803 790.3 507.333 789.85 506.373 788.95C505.413 788.03 504.933 786.58 504.933 784.6V778.9H501.783V775H504.933V769.3H510.753V775H515.583V778.9H510.753V783.7C510.753 784.66 510.863 785.3 511.083 785.62C511.303 785.94 511.703 786.1 512.283 786.1C513.163 786.1 514.063 785.95 514.983 785.65L515.583 789.7C514.103 790.1 512.503 790.3 510.783 790.3ZM535.099 781.6V790H529.459V782.2C529.459 780.7 529.319 779.7 529.039 779.2C528.779 778.7 528.299 778.45 527.599 778.45C526.979 778.45 526.419 778.79 525.919 779.47C525.439 780.15 525.199 780.96 525.199 781.9V790H519.499V767.5H525.199V776.2H525.259C525.759 775.56 526.399 775.05 527.179 774.67C527.959 774.29 528.749 774.1 529.549 774.1C531.529 774.1 532.949 774.66 533.809 775.78C534.669 776.88 535.099 778.82 535.099 781.6ZM549.404 776.26C550.844 774.82 552.874 774.1 555.494 774.1C558.114 774.1 560.144 774.82 561.584 776.26C563.024 777.7 563.744 779.68 563.744 782.2C563.744 784.72 563.024 786.7 561.584 788.14C560.144 789.58 558.114 790.3 555.494 790.3C552.874 790.3 550.844 789.58 549.404 788.14C547.964 786.7 547.244 784.72 547.244 782.2C547.244 779.68 547.964 777.7 549.404 776.26ZM553.484 785.29C553.924 785.91 554.594 786.22 555.494 786.22C556.394 786.22 557.064 785.91 557.504 785.29C557.944 784.67 558.164 783.64 558.164 782.2C558.164 780.76 557.944 779.73 557.504 779.11C557.064 778.49 556.394 778.18 555.494 778.18C554.594 778.18 553.924 778.49 553.484 779.11C553.044 779.73 552.824 780.76 552.824 782.2C552.824 783.64 553.044 784.67 553.484 785.29ZM571.918 776.5C572.478 775.76 573.168 775.18 573.988 774.76C574.828 774.32 575.678 774.1 576.538 774.1C578.518 774.1 579.938 774.66 580.798 775.78C581.658 776.88 582.088 778.82 582.088 781.6V790H576.448V782.2C576.448 780.7 576.308 779.7 576.028 779.2C575.768 778.7 575.288 778.45 574.588 778.45C573.968 778.45 573.408 778.79 572.908 779.47C572.428 780.15 572.188 780.96 572.188 781.9V790H566.488V774.4H571.738L571.858 776.5H571.918ZM590.236 780.7H595.306C595.306 778.8 594.456 777.85 592.756 777.85C591.216 777.85 590.376 778.8 590.236 780.7ZM590.296 784C590.636 785.6 591.776 786.4 593.716 786.4C595.216 786.4 596.646 786.05 598.006 785.35L599.206 789.1C597.366 789.9 595.366 790.3 593.206 790.3C590.626 790.3 588.556 789.57 586.996 788.11C585.436 786.65 584.656 784.68 584.656 782.2C584.656 779.7 585.366 777.73 586.786 776.29C588.226 774.83 590.166 774.1 592.606 774.1C595.106 774.1 597.056 774.81 598.456 776.23C599.856 777.63 600.556 779.62 600.556 782.2C600.556 782.74 600.506 783.34 600.406 784H590.296ZM139.614 819.26C141.054 817.82 143.084 817.1 145.704 817.1C148.324 817.1 150.354 817.82 151.794 819.26C153.234 820.7 153.954 822.68 153.954 825.2C153.954 827.72 153.234 829.7 151.794 831.14C150.354 832.58 148.324 833.3 145.704 833.3C143.084 833.3 141.054 832.58 139.614 831.14C138.174 829.7 137.454 827.72 137.454 825.2C137.454 822.68 138.174 820.7 139.614 819.26ZM143.694 828.29C144.134 828.91 144.804 829.22 145.704 829.22C146.604 829.22 147.274 828.91 147.714 828.29C148.154 827.67 148.374 826.64 148.374 825.2C148.374 823.76 148.154 822.73 147.714 822.11C147.274 821.49 146.604 821.18 145.704 821.18C144.804 821.18 144.134 821.49 143.694 822.11C143.254 822.73 143.034 823.76 143.034 825.2C143.034 826.64 143.254 827.67 143.694 828.29ZM165.855 810.8C167.135 810.8 168.485 810.95 169.905 811.25L169.155 815.45C168.435 815.15 167.685 815 166.905 815C166.205 815 165.725 815.17 165.465 815.51C165.205 815.83 165.075 816.46 165.075 817.4V818H169.605V821.9H165.075V833H159.255V821.9H155.805V818H159.255V817.4C159.255 815.26 159.825 813.63 160.965 812.51C162.105 811.37 163.735 810.8 165.855 810.8ZM190.414 827.9H190.474L193.294 817.4H199.294L191.194 839.6H185.194L187.894 833L181.894 817.4H188.194L190.414 827.9ZM202.222 819.26C203.662 817.82 205.692 817.1 208.312 817.1C210.932 817.1 212.962 817.82 214.402 819.26C215.842 820.7 216.562 822.68 216.562 825.2C216.562 827.72 215.842 829.7 214.402 831.14C212.962 832.58 210.932 833.3 208.312 833.3C205.692 833.3 203.662 832.58 202.222 831.14C200.782 829.7 200.062 827.72 200.062 825.2C200.062 822.68 200.782 820.7 202.222 819.26ZM206.302 828.29C206.742 828.91 207.412 829.22 208.312 829.22C209.212 829.22 209.882 828.91 210.322 828.29C210.762 827.67 210.982 826.64 210.982 825.2C210.982 823.76 210.762 822.73 210.322 822.11C209.882 821.49 209.212 821.18 208.312 821.18C207.412 821.18 206.742 821.49 206.302 822.11C205.862 822.73 205.642 823.76 205.642 825.2C205.642 826.64 205.862 827.67 206.302 828.29ZM229.025 830.9C228.465 831.64 227.765 832.23 226.925 832.67C226.105 833.09 225.265 833.3 224.405 833.3C222.525 833.3 221.175 832.81 220.355 831.83C219.555 830.85 219.155 829.14 219.155 826.7V817.4H224.795V826.1C224.795 827.26 224.905 828.03 225.125 828.41C225.345 828.77 225.755 828.95 226.355 828.95C226.975 828.95 227.525 828.61 228.005 827.93C228.505 827.25 228.755 826.44 228.755 825.5V817.4H234.455V833H229.205L229.085 830.9H229.025ZM250.831 817.1V821.6C248.591 821.6 246.901 822.02 245.761 822.86C244.621 823.7 244.051 824.88 244.051 826.4V833H238.231V817.4H243.601L243.631 820.4H243.691C245.411 818.2 247.791 817.1 250.831 817.1ZM264.683 819.26C266.123 817.82 268.153 817.1 270.773 817.1C273.393 817.1 275.423 817.82 276.863 819.26C278.303 820.7 279.023 822.68 279.023 825.2C279.023 827.72 278.303 829.7 276.863 831.14C275.423 832.58 273.393 833.3 270.773 833.3C268.153 833.3 266.123 832.58 264.683 831.14C263.243 829.7 262.523 827.72 262.523 825.2C262.523 822.68 263.243 820.7 264.683 819.26ZM268.763 828.29C269.203 828.91 269.873 829.22 270.773 829.22C271.673 829.22 272.343 828.91 272.783 828.29C273.223 827.67 273.443 826.64 273.443 825.2C273.443 823.76 273.223 822.73 272.783 822.11C272.343 821.49 271.673 821.18 270.773 821.18C269.873 821.18 269.203 821.49 268.763 822.11C268.323 822.73 268.103 823.76 268.103 825.2C268.103 826.64 268.323 827.67 268.763 828.29ZM297.553 828.5H297.613L299.083 817.4H304.573L300.973 833H294.373L292.603 822.2H292.543L290.773 833H284.173L280.573 817.4H286.183L287.653 828.5H287.713L289.483 817.4H295.783L297.553 828.5ZM312.889 819.5C313.449 818.76 314.139 818.18 314.959 817.76C315.799 817.32 316.649 817.1 317.509 817.1C319.489 817.1 320.909 817.66 321.769 818.78C322.629 819.88 323.059 821.82 323.059 824.6V833H317.419V825.2C317.419 823.7 317.279 822.7 316.999 822.2C316.739 821.7 316.259 821.45 315.559 821.45C314.939 821.45 314.379 821.79 313.879 822.47C313.399 823.15 313.159 823.96 313.159 824.9V833H307.459V817.4H312.709L312.829 819.5H312.889ZM337.339 819.26C338.779 817.82 340.809 817.1 343.429 817.1C346.049 817.1 348.079 817.82 349.519 819.26C350.959 820.7 351.679 822.68 351.679 825.2C351.679 827.72 350.959 829.7 349.519 831.14C348.079 832.58 346.049 833.3 343.429 833.3C340.809 833.3 338.779 832.58 337.339 831.14C335.899 829.7 335.179 827.72 335.179 825.2C335.179 822.68 335.899 820.7 337.339 819.26ZM341.419 828.29C341.859 828.91 342.529 829.22 343.429 829.22C344.329 829.22 344.999 828.91 345.439 828.29C345.879 827.67 346.099 826.64 346.099 825.2C346.099 823.76 345.879 822.73 345.439 822.11C344.999 821.49 344.329 821.18 343.429 821.18C342.529 821.18 341.859 821.49 341.419 822.11C340.979 822.73 340.759 823.76 340.759 825.2C340.759 826.64 340.979 827.67 341.419 828.29ZM367.022 817.1V821.6C364.782 821.6 363.092 822.02 361.952 822.86C360.812 823.7 360.242 824.88 360.242 826.4V833H354.422V817.4H359.792L359.822 820.4H359.882C361.602 818.2 363.982 817.1 367.022 817.1ZM392.364 817.1V821.6C390.124 821.6 388.434 822.02 387.294 822.86C386.154 823.7 385.584 824.88 385.584 826.4V833H379.764V817.4H385.134L385.164 820.4H385.224C386.944 818.2 389.324 817.1 392.364 817.1ZM399.499 823.7H404.569C404.569 821.8 403.719 820.85 402.019 820.85C400.479 820.85 399.639 821.8 399.499 823.7ZM399.559 827C399.899 828.6 401.039 829.4 402.979 829.4C404.479 829.4 405.909 829.05 407.269 828.35L408.469 832.1C406.629 832.9 404.629 833.3 402.469 833.3C399.889 833.3 397.819 832.57 396.259 831.11C394.699 829.65 393.919 827.68 393.919 825.2C393.919 822.7 394.629 820.73 396.049 819.29C397.489 817.83 399.429 817.1 401.869 817.1C404.369 817.1 406.319 817.81 407.719 819.23C409.119 820.63 409.819 822.62 409.819 825.2C409.819 825.74 409.769 826.34 409.669 827H399.559ZM420.651 833.3C418.671 833.3 417.201 832.85 416.241 831.95C415.281 831.03 414.801 829.58 414.801 827.6V821.9H411.651V818H414.801V812.3H420.621V818H425.451V821.9H420.621V826.7C420.621 827.66 420.731 828.3 420.951 828.62C421.171 828.94 421.571 829.1 422.151 829.1C423.031 829.1 423.931 828.95 424.851 828.65L425.451 832.7C423.971 833.1 422.371 833.3 420.651 833.3ZM438.937 830.9C438.377 831.64 437.677 832.23 436.837 832.67C436.017 833.09 435.177 833.3 434.317 833.3C432.437 833.3 431.087 832.81 430.267 831.83C429.467 830.85 429.067 829.14 429.067 826.7V817.4H434.707V826.1C434.707 827.26 434.817 828.03 435.037 828.41C435.257 828.77 435.667 828.95 436.267 828.95C436.887 828.95 437.437 828.61 437.917 827.93C438.417 827.25 438.667 826.44 438.667 825.5V817.4H444.367V833H439.117L438.997 830.9H438.937ZM460.743 817.1V821.6C458.503 821.6 456.813 822.02 455.673 822.86C454.533 823.7 453.963 824.88 453.963 826.4V833H448.143V817.4H453.513L453.543 820.4H453.603C455.323 818.2 457.703 817.1 460.743 817.1ZM469.364 819.5C469.924 818.76 470.614 818.18 471.434 817.76C472.274 817.32 473.124 817.1 473.984 817.1C475.964 817.1 477.384 817.66 478.244 818.78C479.104 819.88 479.534 821.82 479.534 824.6V833H473.894V825.2C473.894 823.7 473.754 822.7 473.474 822.2C473.214 821.7 472.734 821.45 472.034 821.45C471.414 821.45 470.854 821.79 470.354 822.47C469.874 823.15 469.634 823.96 469.634 824.9V833H463.934V817.4H469.184L469.304 819.5H469.364ZM483.753 833V826.7H490.353V833H483.753ZM103.714 858.3C103.274 858.3 102.824 858.35 102.364 858.45V862.65H103.264C105.564 862.65 106.714 861.9 106.714 860.4C106.714 859 105.714 858.3 103.714 858.3ZM112.714 869.7C112.714 871.96 111.974 873.63 110.494 874.71C109.034 875.77 106.674 876.3 103.414 876.3C100.974 876.3 98.6742 876.15 96.5142 875.85V854.25C98.5742 853.95 100.774 853.8 103.114 853.8C109.114 853.8 112.114 855.7 112.114 859.5C112.114 860.78 111.704 861.87 110.884 862.77C110.064 863.65 108.974 864.2 107.614 864.42V864.48C109.154 864.68 110.384 865.27 111.304 866.25C112.244 867.23 112.714 868.38 112.714 869.7ZM107.164 869.1C107.164 867.6 106.064 866.85 103.864 866.85H102.364V871.65C102.824 871.75 103.274 871.8 103.714 871.8C104.914 871.8 105.784 871.58 106.324 871.14C106.884 870.7 107.164 870.02 107.164 869.1ZM116.033 876V853.5H122.033V876H116.033ZM127.529 862.26C128.969 860.82 130.999 860.1 133.619 860.1C136.239 860.1 138.269 860.82 139.709 862.26C141.149 863.7 141.869 865.68 141.869 868.2C141.869 870.72 141.149 872.7 139.709 874.14C138.269 875.58 136.239 876.3 133.619 876.3C130.999 876.3 128.969 875.58 127.529 874.14C126.089 872.7 125.369 870.72 125.369 868.2C125.369 865.68 126.089 863.7 127.529 862.26ZM131.609 871.29C132.049 871.91 132.719 872.22 133.619 872.22C134.519 872.22 135.189 871.91 135.629 871.29C136.069 870.67 136.289 869.64 136.289 868.2C136.289 866.76 136.069 865.73 135.629 865.11C135.189 864.49 134.519 864.18 133.619 864.18C132.719 864.18 132.049 864.49 131.609 865.11C131.169 865.73 130.949 866.76 130.949 868.2C130.949 869.64 131.169 870.67 131.609 871.29ZM157.056 871.11L158.256 875.1C156.536 875.9 154.736 876.3 152.856 876.3C150.096 876.3 147.906 875.57 146.286 874.11C144.666 872.65 143.856 870.68 143.856 868.2C143.856 865.7 144.646 863.73 146.226 862.29C147.826 860.83 150.036 860.1 152.856 860.1C154.796 860.1 156.596 860.5 158.256 861.3L157.056 865.35C155.816 864.59 154.516 864.21 153.156 864.21C152.016 864.21 151.126 864.55 150.486 865.23C149.866 865.91 149.556 866.9 149.556 868.2C149.556 869.46 149.886 870.45 150.546 871.17C151.206 871.89 152.076 872.25 153.156 872.25C154.516 872.25 155.816 871.87 157.056 871.11ZM167.632 869.7H167.572V876H161.872V853.5H167.572V866.1H167.632L171.772 860.4H178.222L172.222 867.9L178.372 876H171.922L167.632 869.7ZM192.805 865.11C190.985 864.45 189.285 864.12 187.705 864.12C186.845 864.12 186.255 864.2 185.935 864.36C185.615 864.5 185.455 864.73 185.455 865.05C185.455 865.35 185.585 865.58 185.845 865.74C186.105 865.9 186.575 866.02 187.255 866.1C189.715 866.4 191.475 866.98 192.535 867.84C193.615 868.7 194.155 869.87 194.155 871.35C194.155 872.87 193.545 874.08 192.325 874.98C191.125 875.86 189.385 876.3 187.105 876.3C184.405 876.3 181.955 875.8 179.755 874.8L180.805 870.78C182.605 871.74 184.505 872.22 186.505 872.22C187.805 872.22 188.455 871.88 188.455 871.2C188.455 870.94 188.355 870.76 188.155 870.66C187.955 870.56 187.455 870.44 186.655 870.3C184.235 869.92 182.505 869.3 181.465 868.44C180.425 867.56 179.905 866.38 179.905 864.9C179.905 863.4 180.505 862.23 181.705 861.39C182.905 860.53 184.705 860.1 187.105 860.1C189.485 860.1 191.735 860.45 193.855 861.15L192.805 865.11ZM214.698 876.3C208.998 876.3 206.148 874.4 206.148 870.6C206.148 868.68 207.598 866.76 210.498 864.84C209.198 863.66 208.318 862.68 207.858 861.9C207.418 861.12 207.198 860.22 207.198 859.2C207.198 857.64 207.898 856.35 209.298 855.33C210.698 854.31 212.598 853.8 214.998 853.8C217.638 853.8 219.618 854.28 220.938 855.24C222.278 856.2 222.948 857.57 222.948 859.35C222.948 861.47 221.298 863.53 217.998 865.53L220.398 867.75V864.6H225.798V872.79L229.248 876H222.948L221.628 874.8C219.048 875.8 216.738 876.3 214.698 876.3ZM213.888 867.9C212.828 868.66 212.298 869.36 212.298 870C212.298 871.2 213.198 871.8 214.998 871.8C215.858 871.8 216.728 871.61 217.608 871.23L213.888 867.9ZM214.698 862.38C215.758 861.76 216.448 861.28 216.768 860.94C217.088 860.58 217.248 860.2 217.248 859.8C217.248 859.2 217.058 858.73 216.678 858.39C216.318 858.03 215.808 857.85 215.148 857.85C214.468 857.85 213.918 858.01 213.498 858.33C213.098 858.65 212.898 859.04 212.898 859.5C212.898 859.92 213.008 860.32 213.228 860.7C213.448 861.06 213.938 861.62 214.698 862.38ZM256.822 868.2C256.822 870.72 256.242 872.7 255.082 874.14C253.942 875.58 252.472 876.3 250.672 876.3C248.852 876.3 247.312 875.5 246.052 873.9H245.992L245.872 876H240.622V853.5H246.322V862.2H246.382C247.542 860.8 248.972 860.1 250.672 860.1C252.552 860.1 254.042 860.81 255.142 862.23C256.262 863.63 256.822 865.62 256.822 868.2ZM251.422 868.2C251.422 866.96 251.192 866.03 250.732 865.41C250.292 864.77 249.672 864.45 248.872 864.45C248.092 864.45 247.472 864.77 247.012 865.41C246.552 866.03 246.322 866.91 246.322 868.05V868.35C246.322 869.51 246.552 870.4 247.012 871.02C247.472 871.64 248.092 871.95 248.872 871.95C249.612 871.95 250.222 871.63 250.702 870.99C251.182 870.33 251.422 869.4 251.422 868.2ZM260.291 876V853.5H266.291V876H260.291ZM271.787 862.26C273.227 860.82 275.257 860.1 277.877 860.1C280.497 860.1 282.527 860.82 283.967 862.26C285.407 863.7 286.127 865.68 286.127 868.2C286.127 870.72 285.407 872.7 283.967 874.14C282.527 875.58 280.497 876.3 277.877 876.3C275.257 876.3 273.227 875.58 271.787 874.14C270.347 872.7 269.627 870.72 269.627 868.2C269.627 865.68 270.347 863.7 271.787 862.26ZM275.867 871.29C276.307 871.91 276.977 872.22 277.877 872.22C278.777 872.22 279.447 871.91 279.887 871.29C280.327 870.67 280.547 869.64 280.547 868.2C280.547 866.76 280.327 865.73 279.887 865.11C279.447 864.49 278.777 864.18 277.877 864.18C276.977 864.18 276.307 864.49 275.867 865.11C275.427 865.73 275.207 866.76 275.207 868.2C275.207 869.64 275.427 870.67 275.867 871.29ZM301.313 871.11L302.513 875.1C300.793 875.9 298.993 876.3 297.113 876.3C294.353 876.3 292.163 875.57 290.543 874.11C288.923 872.65 288.113 870.68 288.113 868.2C288.113 865.7 288.903 863.73 290.483 862.29C292.083 860.83 294.293 860.1 297.113 860.1C299.053 860.1 300.853 860.5 302.513 861.3L301.313 865.35C300.073 864.59 298.773 864.21 297.413 864.21C296.273 864.21 295.383 864.55 294.743 865.23C294.123 865.91 293.813 866.9 293.813 868.2C293.813 869.46 294.143 870.45 294.803 871.17C295.463 871.89 296.333 872.25 297.413 872.25C298.773 872.25 300.073 871.87 301.313 871.11ZM311.89 869.7H311.83V876H306.13V853.5H311.83V866.1H311.89L316.03 860.4H322.48L316.48 867.9L322.63 876H316.18L311.89 869.7ZM328.85 866.7H333.92C333.92 864.8 333.07 863.85 331.37 863.85C329.83 863.85 328.99 864.8 328.85 866.7ZM328.91 870C329.25 871.6 330.39 872.4 332.33 872.4C333.83 872.4 335.26 872.05 336.62 871.35L337.82 875.1C335.98 875.9 333.98 876.3 331.82 876.3C329.24 876.3 327.17 875.57 325.61 874.11C324.05 872.65 323.27 870.68 323.27 868.2C323.27 865.7 323.98 863.73 325.4 862.29C326.84 860.83 328.78 860.1 331.22 860.1C333.72 860.1 335.67 860.81 337.07 862.23C338.47 863.63 339.17 865.62 339.17 868.2C339.17 868.74 339.12 869.34 339.02 870H328.91ZM341.437 868.2C341.437 865.62 341.987 863.63 343.087 862.23C344.207 860.81 345.707 860.1 347.587 860.1C349.287 860.1 350.717 860.8 351.877 862.2H351.937V853.5H357.637V876H352.387L352.267 873.9H352.207C350.947 875.5 349.407 876.3 347.587 876.3C345.787 876.3 344.307 875.58 343.147 874.14C342.007 872.7 341.437 870.72 341.437 868.2ZM346.837 868.2C346.837 869.4 347.077 870.33 347.557 870.99C348.037 871.63 348.647 871.95 349.387 871.95C350.167 871.95 350.787 871.64 351.247 871.02C351.707 870.4 351.937 869.51 351.937 868.35V868.05C351.937 866.91 351.707 866.03 351.247 865.41C350.787 864.77 350.167 864.45 349.387 864.45C348.587 864.45 347.957 864.77 347.497 865.41C347.057 866.03 346.837 866.96 346.837 868.2ZM387.457 868.2C387.457 870.72 386.877 872.7 385.717 874.14C384.577 875.58 383.107 876.3 381.307 876.3C379.487 876.3 377.947 875.5 376.687 873.9H376.627L376.507 876H371.257V853.5H376.957V862.2H377.017C378.177 860.8 379.607 860.1 381.307 860.1C383.187 860.1 384.677 860.81 385.777 862.23C386.897 863.63 387.457 865.62 387.457 868.2ZM382.057 868.2C382.057 866.96 381.827 866.03 381.367 865.41C380.927 864.77 380.307 864.45 379.507 864.45C378.727 864.45 378.107 864.77 377.647 865.41C377.187 866.03 376.957 866.91 376.957 868.05V868.35C376.957 869.51 377.187 870.4 377.647 871.02C378.107 871.64 378.727 871.95 379.507 871.95C380.247 871.95 380.857 871.63 381.337 870.99C381.817 870.33 382.057 869.4 382.057 868.2ZM396.884 870.9H396.944L399.764 860.4H405.764L397.664 882.6H391.664L394.364 876L388.364 860.4H394.664L396.884 870.9ZM430.344 865.11C428.524 864.45 426.824 864.12 425.244 864.12C424.384 864.12 423.794 864.2 423.474 864.36C423.154 864.5 422.994 864.73 422.994 865.05C422.994 865.35 423.124 865.58 423.384 865.74C423.644 865.9 424.114 866.02 424.794 866.1C427.254 866.4 429.014 866.98 430.074 867.84C431.154 868.7 431.694 869.87 431.694 871.35C431.694 872.87 431.084 874.08 429.864 874.98C428.664 875.86 426.924 876.3 424.644 876.3C421.944 876.3 419.494 875.8 417.294 874.8L418.344 870.78C420.144 871.74 422.044 872.22 424.044 872.22C425.344 872.22 425.994 871.88 425.994 871.2C425.994 870.94 425.894 870.76 425.694 870.66C425.494 870.56 424.994 870.44 424.194 870.3C421.774 869.92 420.044 869.3 419.004 868.44C417.964 867.56 417.444 866.38 417.444 864.9C417.444 863.4 418.044 862.23 419.244 861.39C420.444 860.53 422.244 860.1 424.644 860.1C427.024 860.1 429.274 860.45 431.394 861.15L430.344 865.11ZM442.55 876.3C440.57 876.3 439.1 875.85 438.14 874.95C437.18 874.03 436.7 872.58 436.7 870.6V864.9H433.55V861H436.7V855.3H442.52V861H447.35V864.9H442.52V869.7C442.52 870.66 442.63 871.3 442.85 871.62C443.07 871.94 443.47 872.1 444.05 872.1C444.93 872.1 445.83 871.95 446.75 871.65L447.35 875.7C445.87 876.1 444.27 876.3 442.55 876.3ZM455.354 866.7H460.424C460.424 864.8 459.574 863.85 457.874 863.85C456.334 863.85 455.494 864.8 455.354 866.7ZM455.414 870C455.754 871.6 456.894 872.4 458.834 872.4C460.334 872.4 461.764 872.05 463.124 871.35L464.324 875.1C462.484 875.9 460.484 876.3 458.324 876.3C455.744 876.3 453.674 875.57 452.114 874.11C450.554 872.65 449.774 870.68 449.774 868.2C449.774 865.7 450.484 863.73 451.904 862.29C453.344 860.83 455.284 860.1 457.724 860.1C460.224 860.1 462.174 860.81 463.574 862.23C464.974 863.63 465.674 865.62 465.674 868.2C465.674 868.74 465.624 869.34 465.524 870H455.414ZM476.348 865.8H477.248C477.248 865.12 477.118 864.65 476.858 864.39C476.598 864.13 476.128 864 475.448 864C473.348 864 471.298 864.45 469.298 865.35L468.548 861.45C470.748 860.55 473.148 860.1 475.748 860.1C478.348 860.1 480.198 860.59 481.298 861.57C482.398 862.53 482.948 864.14 482.948 866.4V871.8C482.948 873.24 483.098 874.64 483.398 876H477.998C477.878 875.32 477.778 874.62 477.698 873.9H477.638C477.098 874.62 476.398 875.2 475.538 875.64C474.678 876.08 473.798 876.3 472.898 876.3C471.358 876.3 470.118 875.88 469.178 875.04C468.258 874.18 467.798 873 467.798 871.5C467.798 869.78 468.528 868.4 469.988 867.36C471.468 866.32 473.588 865.8 476.348 865.8ZM472.898 870.9C472.898 871.8 473.398 872.25 474.398 872.25C475.258 872.25 475.948 872.01 476.468 871.53C476.988 871.05 477.248 870.39 477.248 869.55V869.1H476.348C475.208 869.1 474.348 869.27 473.768 869.61C473.188 869.93 472.898 870.36 472.898 870.9ZM487.488 876V853.5H493.488V876H487.488ZM497.888 857.7V853.5H503.888V857.7H497.888ZM497.888 876V860.4H503.888V876H497.888ZM513.705 862.5C514.265 861.76 514.955 861.18 515.775 860.76C516.615 860.32 517.465 860.1 518.325 860.1C520.305 860.1 521.725 860.66 522.585 861.78C523.445 862.88 523.875 864.82 523.875 867.6V876H518.235V868.2C518.235 866.7 518.095 865.7 517.815 865.2C517.555 864.7 517.075 864.45 516.375 864.45C515.755 864.45 515.195 864.79 514.695 865.47C514.215 866.15 513.975 866.96 513.975 867.9V876H508.275V860.4H513.525L513.645 862.5H513.705ZM537.244 873.6H537.214C536.054 875 534.564 875.7 532.744 875.7C530.964 875.7 529.494 875.01 528.334 873.63C527.174 872.23 526.594 870.32 526.594 867.9C526.594 865.44 527.154 863.53 528.274 862.17C529.394 860.79 530.884 860.1 532.744 860.1C534.524 860.1 536.064 860.9 537.364 862.5H537.424L537.544 860.4H542.794V874.2C542.794 877.06 542.004 879.22 540.424 880.68C538.844 882.16 536.534 882.9 533.494 882.9C531.574 882.9 529.774 882.6 528.094 882L528.994 877.98C530.394 878.56 531.794 878.85 533.194 878.85C534.654 878.85 535.694 878.5 536.314 877.8C536.934 877.12 537.244 875.92 537.244 874.2V873.6ZM531.994 867.9C531.994 869.04 532.224 869.93 532.684 870.57C533.164 871.19 533.784 871.5 534.544 871.5C535.324 871.5 535.944 871.21 536.404 870.63C536.864 870.03 537.094 869.17 537.094 868.05V867.75C537.094 866.65 536.864 865.8 536.404 865.2C535.944 864.6 535.324 864.3 534.544 864.3C533.744 864.3 533.114 864.61 532.654 865.23C532.214 865.83 531.994 866.72 531.994 867.9Z" fill="white"/>
<defs>
<filter id="filter0_d_619_121" x="-232.9" y="-9.9" width="1194.8" height="1129.8" filterUnits="userSpaceOnUse" color-interpolation-filters="sRGB">
<feFlood flood-opacity="0" result="BackgroundImageFix"/>
<feColorMatrix in="SourceAlpha" type="matrix" values="0 0 0 0 0 0 0 0 0 0 0 0 0 0 0 0 0 0 127 0" result="hardAlpha"/>
<feOffset/>
<feGaussianBlur stdDeviation="34.95"/>
<feComposite in2="hardAlpha" operator="out"/>
<feColorMatrix type="matrix" values="0 0 0 0 0 0 0 0 0 0 0 0 0 0 0 0 0 0 0.15 0"/>
<feBlend mode="normal" in2="BackgroundImageFix" result="effect1_dropShadow_619_121"/>
<feBlend mode="normal" in="SourceGraphic" in2="effect1_dropShadow_619_121" result="shape"/>
</filter>
<linearGradient id="paint0_linear_619_121" x1="447.44" y1="155.096" x2="447.44" y2="1050" gradientUnits="userSpaceOnUse">
<stop stop-color="#D41BE4" stop-opacity="0.97"/>
<stop offset="1" stop-color="#204DA5" stop-opacity="0.54"/>
</linearGradient>
</defs>
</svg>
