<svg width="640" height="900" viewBox="0 0 640 900" fill="none" xmlns="http://www.w3.org/2000/svg">
<rect x="0.0195312" width="639.02" height="900" fill="#ABABAB"/>
<mask id="mask0_617_230" style="mask-type:alpha" maskUnits="userSpaceOnUse" x="0" y="0" width="640" height="900">
<rect x="0.0195312" width="639.02" height="900" fill="white"/>
</mask>
<g mask="url(#mask0_617_230)">
<path d="M409.387 88.2016L455.792 117.199L316.062 340.41L269.657 311.413L409.387 88.2016ZM433.556 103.304L584.373 197.545L524.489 293.207L373.672 198.966L398.472 159.349L502.24 224.19L512.523 207.763L408.756 142.922L433.556 103.304ZM362.906 213.299L534.67 320.629L465.107 431.752L418.057 402.352L462.215 331.813L337.501 253.883L362.906 213.299ZM326.692 274.014L477.831 368.457L452.425 409.041L301.286 314.598L326.692 274.014ZM522.514 46.4215L572.787 77.8351L533.67 140.321L483.398 108.908L522.514 46.4215ZM394.241 -5.0547L675.895 170.942L622.261 256.619L574.245 226.615L600.457 184.743L412.58 67.3446L386.368 109.217L340.608 80.6225L394.241 -5.0547ZM165.564 468.385L199.432 508.816C144.973 551.409 74.922 590.98 17.6957 607.199C20.7651 592.986 24.8514 559.244 24.6981 543.018C68.9875 531.709 122.593 503.369 165.564 468.385ZM77.0818 541.696L147.767 524.029L147.566 524.351L-12.731 780.416L-55.5913 753.634L77.0818 541.696ZM177.469 515.255L389.515 647.756L365.319 686.407L153.273 553.906L177.469 515.255ZM268.527 530.93L305.38 565.161C241.927 624.986 171.515 659.404 98.7824 661.005C99.0703 649.086 95.6584 622.309 91.7966 609.142C156.106 611.687 216.763 582.825 268.527 530.93ZM316.713 625.117C306.94 670.092 311.105 722.88 331.434 762.021C316.726 764.032 293.311 771.357 280.212 777.959C259.645 730.604 259.594 670.529 272.476 612.71L316.713 625.117ZM150.583 697.854L142.921 710.094L218.652 757.416L226.314 745.176L150.583 697.854ZM175.585 657.914L168.125 669.832L243.856 717.154L251.316 705.236L175.585 657.914ZM153.088 602.184L313.25 702.265L243.083 814.354L82.9205 714.273L153.088 602.184ZM147.178 740.535L193.583 769.532L157.289 827.509C144.788 847.479 135.113 855.772 117.425 853.233C100.059 850.895 83.302 840.424 62.6774 827.537C68.4059 814.089 73.2106 794.239 75.3132 779.421C84.9 786.308 99.7238 795.571 103.591 797.987C107.78 800.605 109.674 800.444 111.691 797.224L147.178 740.535ZM82.5138 722.085L116.423 760.301C91.0299 775.8 57.2562 789.646 32.3112 795.119C28.6906 782.999 19.2729 760.087 12.9122 748.046C35.922 744.949 62.8437 734.886 82.5138 722.085ZM183.772 809.554L231.599 814.795C235.616 840.606 239.346 874.751 236.999 895.689L185.384 890.769C188.617 871.282 187.183 836.331 183.772 809.554ZM131.059 577.217L175.226 568.969C182.109 584.472 190.439 606.256 192.205 619.906L145.136 629.926C144.015 616.679 137.337 593.686 131.059 577.217ZM337.484 668.566L356.681 715.961C332.262 717.729 309.454 720.505 292.893 720.462L279.815 684.061C296.619 681.566 321.847 674.926 337.484 668.566Z" fill="#E1832C"/>
<g filter="url(#filter0_d_617_230)">
<path d="M-224 1033.5L666.5 1006.5L680 876.5L600 674.5L504.5 531.5L414 445L429.5 345L465.5 332.5L479.5 249.5L456 127.5L394.5 60.5L235 45.5L157 91.5L125.5 231.5L144.5 332.5L171 345L206 392.5L225.5 445L183.8 491L157 591L97.5 674.5L26.5 648V614.5L82 557.5L-38.5 416V557.5L-145.5 681L-38.5 809.5L-70 981L-224 1033.5Z" fill="url(#paint0_linear_617_230)" shape-rendering="crispEdges"/>
</g>
</g>
<path d="M56.8247 656.85C55.5781 656.85 54.3031 656.992 52.9997 657.275V669.175H55.5497C62.0664 669.175 65.3247 667.05 65.3247 662.8C65.3247 658.833 62.4914 656.85 56.8247 656.85ZM82.3247 689.15C82.3247 695.553 80.2281 700.285 76.0347 703.345C71.8981 706.348 65.2114 707.85 55.9747 707.85C49.0614 707.85 42.5447 707.425 36.4247 706.575V645.375C42.2614 644.525 48.4947 644.1 55.1247 644.1C72.1247 644.1 80.6247 649.483 80.6247 660.25C80.6247 663.877 79.4631 666.965 77.1397 669.515C74.8164 672.008 71.7281 673.567 67.8747 674.19V674.36C72.2381 674.927 75.7231 676.598 78.3297 679.375C80.9931 682.152 82.3247 685.41 82.3247 689.15ZM66.5997 687.45C66.5997 683.2 63.4831 681.075 57.2497 681.075H52.9997V694.675C54.3031 694.958 55.5781 695.1 56.8247 695.1C60.2247 695.1 62.6897 694.477 64.2197 693.23C65.8064 691.983 66.5997 690.057 66.5997 687.45ZM134.398 701.22C130.035 705.64 123.745 707.85 115.528 707.85C107.311 707.85 100.993 705.64 96.5729 701.22C92.2095 696.743 90.0279 690.17 90.0279 681.5V644.95H107.198V682.775C107.198 686.798 107.906 689.717 109.323 691.53C110.74 693.343 112.865 694.25 115.698 694.25C118.531 694.25 120.656 693.343 122.073 691.53C123.49 689.717 124.198 686.798 124.198 682.775V644.95H141.028V681.5C141.028 690.17 138.818 696.743 134.398 701.22ZM169.128 685.325V707H152.553V645.375C159.919 644.525 167.286 644.1 174.653 644.1C191.653 644.1 200.153 650.475 200.153 663.225C200.153 666.795 199.048 670.11 196.838 673.17C194.628 676.23 191.766 678.412 188.253 679.715V679.885C189.953 680.848 191.369 682.095 192.503 683.625C193.636 685.098 194.713 687.223 195.733 690L201.853 707H184.428L179.158 690.85C178.534 688.867 177.741 687.45 176.778 686.6C175.814 685.75 174.539 685.325 172.953 685.325H169.128ZM169.128 673H173.803C176.693 673 178.959 672.292 180.603 670.875C182.303 669.402 183.153 667.418 183.153 664.925C183.153 659.542 180.036 656.85 173.803 656.85C171.989 656.85 170.431 656.992 169.128 657.275V673ZM249.924 668.75V681.5H227.824V693.4H251.624V707H210.824V644.95H251.624V658.55H227.824V668.75H249.924ZM282.497 682.35H293.717L288.192 659.4H288.022L282.497 682.35ZM279.437 695.1L276.632 707H258.952L279.352 644.95H297.202L317.602 707H299.582L296.692 695.1H279.437ZM365.907 701.22C361.543 705.64 355.253 707.85 347.037 707.85C338.82 707.85 332.502 705.64 328.082 701.22C323.718 696.743 321.537 690.17 321.537 681.5V644.95H338.707V682.775C338.707 686.798 339.415 689.717 340.832 691.53C342.248 693.343 344.373 694.25 347.207 694.25C350.04 694.25 352.165 693.343 353.582 691.53C354.998 689.717 355.707 686.798 355.707 682.775V644.95H372.537V681.5C372.537 690.17 370.327 696.743 365.907 701.22ZM413.386 707.85C403.356 707.85 395.31 705.017 389.246 699.35C383.24 693.627 380.236 685.835 380.236 675.975C380.236 666.002 383.126 658.21 388.906 652.6C394.743 646.933 402.903 644.1 413.386 644.1C421.376 644.1 428.176 646.083 433.786 650.05L429.111 662.375C424.408 659.258 419.733 657.7 415.086 657.7C409.59 657.7 405.311 659.287 402.251 662.46C399.191 665.577 397.661 670.082 397.661 675.975C397.661 681.642 399.248 686.118 402.421 689.405C405.651 692.635 409.873 694.25 415.086 694.25C419.733 694.25 424.408 692.692 429.111 689.575L433.786 701.9C428.176 705.867 421.376 707.85 413.386 707.85ZM461.066 685.325V707H444.491V645.375C451.858 644.525 459.224 644.1 466.591 644.1C483.591 644.1 492.091 650.475 492.091 663.225C492.091 666.795 490.986 670.11 488.776 673.17C486.566 676.23 483.704 678.412 480.191 679.715V679.885C481.891 680.848 483.308 682.095 484.441 683.625C485.574 685.098 486.651 687.223 487.671 690L493.791 707H476.366L471.096 690.85C470.473 688.867 469.679 687.45 468.716 686.6C467.753 685.75 466.478 685.325 464.891 685.325H461.066ZM461.066 673H465.741C468.631 673 470.898 672.292 472.541 670.875C474.241 669.402 475.091 667.418 475.091 664.925C475.091 659.542 471.974 656.85 465.741 656.85C463.928 656.85 462.369 656.992 461.066 657.275V673ZM522.888 682.35H534.108L528.583 659.4H528.413L522.888 682.35ZM519.828 695.1L517.023 707H499.343L519.743 644.95H537.593L557.993 707H539.973L537.083 695.1H519.828ZM605.676 644.95V658.975H588.846V707H571.506V658.975H554.676V644.95H605.676Z" fill="white"/>
<path d="M63.0345 732.45V738.225H56.1045V758H48.9645V738.225H42.0345V732.45H63.0345ZM73.2269 746.1H74.2769C74.2769 745.307 74.1252 744.758 73.8219 744.455C73.5185 744.152 72.9702 744 72.1769 744C69.7269 744 67.3352 744.525 65.0019 745.575L64.1269 741.025C66.6935 739.975 69.4935 739.45 72.5269 739.45C75.5602 739.45 77.7185 740.022 79.0019 741.165C80.2852 742.285 80.9269 744.163 80.9269 746.8V753.1C80.9269 754.78 81.1019 756.413 81.4519 758H75.1519C75.0119 757.207 74.8952 756.39 74.8019 755.55H74.7319C74.1019 756.39 73.2852 757.067 72.2819 757.58C71.2785 758.093 70.2519 758.35 69.2019 758.35C67.4052 758.35 65.9585 757.86 64.8619 756.88C63.7885 755.877 63.2519 754.5 63.2519 752.75C63.2519 750.743 64.1035 749.133 65.8069 747.92C67.5335 746.707 70.0069 746.1 73.2269 746.1ZM69.2019 752.05C69.2019 753.1 69.7852 753.625 70.9519 753.625C71.9552 753.625 72.7602 753.345 73.3669 752.785C73.9735 752.225 74.2769 751.455 74.2769 750.475V749.95H73.2269C71.8969 749.95 70.8935 750.148 70.2169 750.545C69.5402 750.918 69.2019 751.42 69.2019 752.05ZM92.4184 750.65H92.3484V758H85.6984V731.75H92.3484V746.45H92.4184L97.2484 739.8H104.773L97.7734 748.55L104.948 758H97.4234L92.4184 750.65ZM112.205 747.15H118.12C118.12 744.933 117.128 743.825 115.145 743.825C113.348 743.825 112.368 744.933 112.205 747.15ZM112.275 751C112.672 752.867 114.002 753.8 116.265 753.8C118.015 753.8 119.683 753.392 121.27 752.575L122.67 756.95C120.523 757.883 118.19 758.35 115.67 758.35C112.66 758.35 110.245 757.498 108.425 755.795C106.605 754.092 105.695 751.793 105.695 748.9C105.695 745.983 106.523 743.685 108.18 742.005C109.86 740.302 112.123 739.45 114.97 739.45C117.887 739.45 120.162 740.278 121.795 741.935C123.428 743.568 124.245 745.89 124.245 748.9C124.245 749.53 124.187 750.23 124.07 751H112.275ZM150.186 742.95H150.536C152.449 742.95 154.001 743.592 155.191 744.875C156.404 746.135 157.011 747.827 157.011 749.95C157.011 752.68 156.171 754.768 154.491 756.215C152.811 757.638 150.384 758.35 147.211 758.35C144.084 758.35 141.168 757.65 138.461 756.25L140.176 751C142.626 752.213 144.738 752.82 146.511 752.82C147.701 752.82 148.611 752.587 149.241 752.12C149.871 751.63 150.186 750.965 150.186 750.125C150.186 749.425 150.023 748.9 149.696 748.55C149.369 748.2 148.751 747.943 147.841 747.78C146.954 747.593 145.636 747.5 143.886 747.5H142.486V742.95L148.436 738.12V738.05H138.986V732.45H156.661V738.05L150.186 742.88V742.95ZM187.164 752.295L188.564 756.95C186.558 757.883 184.458 758.35 182.264 758.35C179.044 758.35 176.489 757.498 174.599 755.795C172.709 754.092 171.764 751.793 171.764 748.9C171.764 745.983 172.686 743.685 174.529 742.005C176.396 740.302 178.974 739.45 182.264 739.45C184.528 739.45 186.628 739.917 188.564 740.85L187.164 745.575C185.718 744.688 184.201 744.245 182.614 744.245C181.284 744.245 180.246 744.642 179.499 745.435C178.776 746.228 178.414 747.383 178.414 748.9C178.414 750.37 178.799 751.525 179.569 752.365C180.339 753.205 181.354 753.625 182.614 753.625C184.201 753.625 185.718 753.182 187.164 752.295ZM193.903 741.97C195.583 740.29 197.952 739.45 201.008 739.45C204.065 739.45 206.433 740.29 208.113 741.97C209.793 743.65 210.633 745.96 210.633 748.9C210.633 751.84 209.793 754.15 208.113 755.83C206.433 757.51 204.065 758.35 201.008 758.35C197.952 758.35 195.583 757.51 193.903 755.83C192.223 754.15 191.383 751.84 191.383 748.9C191.383 745.96 192.223 743.65 193.903 741.97ZM198.663 752.505C199.177 753.228 199.958 753.59 201.008 753.59C202.058 753.59 202.84 753.228 203.353 752.505C203.867 751.782 204.123 750.58 204.123 748.9C204.123 747.22 203.867 746.018 203.353 745.295C202.84 744.572 202.058 744.21 201.008 744.21C199.958 744.21 199.177 744.572 198.663 745.295C198.15 746.018 197.893 747.22 197.893 748.9C197.893 750.58 198.15 751.782 198.663 752.505ZM214.534 736.65V731.75H221.534V736.65H214.534ZM214.534 758V739.8H221.534V758H214.534ZM232.986 742.25C233.64 741.387 234.445 740.71 235.401 740.22C236.381 739.707 237.373 739.45 238.376 739.45C240.686 739.45 242.343 740.103 243.346 741.41C244.35 742.693 244.851 744.957 244.851 748.2V758H238.271V748.9C238.271 747.15 238.108 745.983 237.781 745.4C237.478 744.817 236.918 744.525 236.101 744.525C235.378 744.525 234.725 744.922 234.141 745.715C233.581 746.508 233.301 747.453 233.301 748.55V758H226.651V739.8H232.776L232.916 742.25H232.986ZM263.598 745.295C261.475 744.525 259.491 744.14 257.648 744.14C256.645 744.14 255.956 744.233 255.583 744.42C255.21 744.583 255.023 744.852 255.023 745.225C255.023 745.575 255.175 745.843 255.478 746.03C255.781 746.217 256.33 746.357 257.123 746.45C259.993 746.8 262.046 747.477 263.283 748.48C264.543 749.483 265.173 750.848 265.173 752.575C265.173 754.348 264.461 755.76 263.038 756.81C261.638 757.837 259.608 758.35 256.948 758.35C253.798 758.35 250.94 757.767 248.373 756.6L249.598 751.91C251.698 753.03 253.915 753.59 256.248 753.59C257.765 753.59 258.523 753.193 258.523 752.4C258.523 752.097 258.406 751.887 258.173 751.77C257.94 751.653 257.356 751.513 256.423 751.35C253.6 750.907 251.581 750.183 250.368 749.18C249.155 748.153 248.548 746.777 248.548 745.05C248.548 743.3 249.248 741.935 250.648 740.955C252.048 739.952 254.148 739.45 256.948 739.45C259.725 739.45 262.35 739.858 264.823 740.675L263.598 745.295ZM273.289 761.85H267.689L269.789 750.65H277.489L273.289 761.85ZM304.232 755.2H304.197C302.844 756.833 301.106 757.65 298.982 757.65C296.906 757.65 295.191 756.845 293.837 755.235C292.484 753.602 291.807 751.373 291.807 748.55C291.807 745.68 292.461 743.452 293.767 741.865C295.074 740.255 296.812 739.45 298.982 739.45C301.059 739.45 302.856 740.383 304.372 742.25H304.442L304.582 739.8H310.707V755.9C310.707 759.237 309.786 761.757 307.942 763.46C306.099 765.187 303.404 766.05 299.857 766.05C297.617 766.05 295.517 765.7 293.557 765L294.607 760.31C296.241 760.987 297.874 761.325 299.507 761.325C301.211 761.325 302.424 760.917 303.147 760.1C303.871 759.307 304.232 757.907 304.232 755.9V755.2ZM298.107 748.55C298.107 749.88 298.376 750.918 298.912 751.665C299.472 752.388 300.196 752.75 301.082 752.75C301.992 752.75 302.716 752.412 303.252 751.735C303.789 751.035 304.057 750.032 304.057 748.725V748.375C304.057 747.092 303.789 746.1 303.252 745.4C302.716 744.7 301.992 744.35 301.082 744.35C300.149 744.35 299.414 744.712 298.877 745.435C298.364 746.135 298.107 747.173 298.107 748.55ZM315.808 736.65V731.75H322.808V736.65H315.808ZM315.808 758V739.8H322.808V758H315.808ZM336.536 754.15H336.606L339.546 739.8H346.476L341.051 758H331.951L326.526 739.8H333.596L336.536 754.15ZM354.265 747.15H360.18C360.18 744.933 359.189 743.825 357.205 743.825C355.409 743.825 354.429 744.933 354.265 747.15ZM354.335 751C354.732 752.867 356.062 753.8 358.325 753.8C360.075 753.8 361.744 753.392 363.33 752.575L364.73 756.95C362.584 757.883 360.25 758.35 357.73 758.35C354.72 758.35 352.305 757.498 350.485 755.795C348.665 754.092 347.755 751.793 347.755 748.9C347.755 745.983 348.584 743.685 350.24 742.005C351.92 740.302 354.184 739.45 357.03 739.45C359.947 739.45 362.222 740.278 363.855 741.935C365.489 743.568 366.305 745.89 366.305 748.9C366.305 749.53 366.247 750.23 366.13 751H354.335ZM382.097 741.97C383.777 740.29 386.145 739.45 389.202 739.45C392.258 739.45 394.627 740.29 396.307 741.97C397.987 743.65 398.827 745.96 398.827 748.9C398.827 751.84 397.987 754.15 396.307 755.83C394.627 757.51 392.258 758.35 389.202 758.35C386.145 758.35 383.777 757.51 382.097 755.83C380.417 754.15 379.577 751.84 379.577 748.9C379.577 745.96 380.417 743.65 382.097 741.97ZM386.857 752.505C387.37 753.228 388.152 753.59 389.202 753.59C390.252 753.59 391.033 753.228 391.547 752.505C392.06 751.782 392.317 750.58 392.317 748.9C392.317 747.22 392.06 746.018 391.547 745.295C391.033 744.572 390.252 744.21 389.202 744.21C388.152 744.21 387.37 744.572 386.857 745.295C386.343 746.018 386.087 747.22 386.087 748.9C386.087 750.58 386.343 751.782 386.857 752.505ZM408.362 742.25C409.016 741.387 409.821 740.71 410.777 740.22C411.757 739.707 412.749 739.45 413.752 739.45C416.062 739.45 417.719 740.103 418.722 741.41C419.726 742.693 420.227 744.957 420.227 748.2V758H413.647V748.9C413.647 747.15 413.484 745.983 413.157 745.4C412.854 744.817 412.294 744.525 411.477 744.525C410.754 744.525 410.101 744.922 409.517 745.715C408.957 746.508 408.677 747.453 408.677 748.55V758H402.027V739.8H408.152L408.292 742.25H408.362ZM429.734 747.15H435.649C435.649 744.933 434.657 743.825 432.674 743.825C430.877 743.825 429.897 744.933 429.734 747.15ZM429.804 751C430.201 752.867 431.531 753.8 433.794 753.8C435.544 753.8 437.212 753.392 438.799 752.575L440.199 756.95C438.052 757.883 435.719 758.35 433.199 758.35C430.189 758.35 427.774 757.498 425.954 755.795C424.134 754.092 423.224 751.793 423.224 748.9C423.224 745.983 424.052 743.685 425.709 742.005C427.389 740.302 429.652 739.45 432.499 739.45C435.416 739.45 437.691 740.278 439.324 741.935C440.957 743.568 441.774 745.89 441.774 748.9C441.774 749.53 441.716 750.23 441.599 751H429.804ZM465.37 746.1H466.42C466.42 745.307 466.269 744.758 465.965 744.455C465.662 744.152 465.114 744 464.32 744C461.87 744 459.479 744.525 457.145 745.575L456.27 741.025C458.837 739.975 461.637 739.45 464.67 739.45C467.704 739.45 469.862 740.022 471.145 741.165C472.429 742.285 473.07 744.163 473.07 746.8V753.1C473.07 754.78 473.245 756.413 473.595 758H467.295C467.155 757.207 467.039 756.39 466.945 755.55H466.875C466.245 756.39 465.429 757.067 464.425 757.58C463.422 758.093 462.395 758.35 461.345 758.35C459.549 758.35 458.102 757.86 457.005 756.88C455.932 755.877 455.395 754.5 455.395 752.75C455.395 750.743 456.247 749.133 457.95 747.92C459.677 746.707 462.15 746.1 465.37 746.1ZM461.345 752.05C461.345 753.1 461.929 753.625 463.095 753.625C464.099 753.625 464.904 753.345 465.51 752.785C466.117 752.225 466.42 751.455 466.42 750.475V749.95H465.37C464.04 749.95 463.037 750.148 462.36 750.545C461.684 750.918 461.345 751.42 461.345 752.05ZM495.743 752.75H495.813L497.528 739.8H503.933L499.733 758H492.033L489.968 745.4H489.898L487.833 758H480.133L475.933 739.8H482.478L484.193 752.75H484.263L486.328 739.8H493.678L495.743 752.75ZM516.059 746.1H517.109C517.109 745.307 516.957 744.758 516.654 744.455C516.351 744.152 515.802 744 515.009 744C512.559 744 510.167 744.525 507.834 745.575L506.959 741.025C509.526 739.975 512.326 739.45 515.359 739.45C518.392 739.45 520.551 740.022 521.834 741.165C523.117 742.285 523.759 744.163 523.759 746.8V753.1C523.759 754.78 523.934 756.413 524.284 758H517.984C517.844 757.207 517.727 756.39 517.634 755.55H517.564C516.934 756.39 516.117 757.067 515.114 757.58C514.111 758.093 513.084 758.35 512.034 758.35C510.237 758.35 508.791 757.86 507.694 756.88C506.621 755.877 506.084 754.5 506.084 752.75C506.084 750.743 506.936 749.133 508.639 747.92C510.366 746.707 512.839 746.1 516.059 746.1ZM512.034 752.05C512.034 753.1 512.617 753.625 513.784 753.625C514.787 753.625 515.592 753.345 516.199 752.785C516.806 752.225 517.109 751.455 517.109 750.475V749.95H516.059C514.729 749.95 513.726 750.148 513.049 750.545C512.372 750.918 512.034 751.42 512.034 752.05ZM535.836 752.05H535.906L539.196 739.8H546.196L536.746 765.7H529.746L532.896 758L525.896 739.8H533.246L535.836 752.05ZM569.973 758.35C567.663 758.35 565.948 757.825 564.828 756.775C563.708 755.702 563.148 754.01 563.148 751.7V745.05H559.473V740.5H563.148V733.85H569.938V740.5H575.573V745.05H569.938V750.65C569.938 751.77 570.066 752.517 570.323 752.89C570.579 753.263 571.046 753.45 571.723 753.45C572.749 753.45 573.799 753.275 574.873 752.925L575.573 757.65C573.846 758.117 571.979 758.35 569.973 758.35ZM580.92 741.97C582.6 740.29 584.968 739.45 588.025 739.45C591.082 739.45 593.45 740.29 595.13 741.97C596.81 743.65 597.65 745.96 597.65 748.9C597.65 751.84 596.81 754.15 595.13 755.83C593.45 757.51 591.082 758.35 588.025 758.35C584.968 758.35 582.6 757.51 580.92 755.83C579.24 754.15 578.4 751.84 578.4 748.9C578.4 745.96 579.24 743.65 580.92 741.97ZM585.68 752.505C586.193 753.228 586.975 753.59 588.025 753.59C589.075 753.59 589.857 753.228 590.37 752.505C590.883 751.782 591.14 750.58 591.14 748.9C591.14 747.22 590.883 746.018 590.37 745.295C589.857 744.572 589.075 744.21 588.025 744.21C586.975 744.21 586.193 744.572 585.68 745.295C585.167 746.018 584.91 747.22 584.91 748.9C584.91 750.58 585.167 751.782 585.68 752.505ZM184.055 796.1H185.105C185.105 795.307 184.953 794.758 184.65 794.455C184.346 794.152 183.798 794 183.005 794C180.555 794 178.163 794.525 175.83 795.575L174.955 791.025C177.521 789.975 180.321 789.45 183.355 789.45C186.388 789.45 188.546 790.022 189.83 791.165C191.113 792.285 191.755 794.163 191.755 796.8V803.1C191.755 804.78 191.93 806.413 192.28 808H185.98C185.84 807.207 185.723 806.39 185.63 805.55H185.56C184.93 806.39 184.113 807.067 183.11 807.58C182.106 808.093 181.08 808.35 180.03 808.35C178.233 808.35 176.786 807.86 175.69 806.88C174.616 805.877 174.08 804.5 174.08 802.75C174.08 800.743 174.931 799.133 176.635 797.92C178.361 796.707 180.835 796.1 184.055 796.1ZM180.03 802.05C180.03 803.1 180.613 803.625 181.78 803.625C182.783 803.625 183.588 803.345 184.195 802.785C184.801 802.225 185.105 801.455 185.105 800.475V799.95H184.055C182.725 799.95 181.721 800.148 181.045 800.545C180.368 800.918 180.03 801.42 180.03 802.05ZM202.686 792.25C203.339 791.387 204.144 790.71 205.101 790.22C206.081 789.707 207.073 789.45 208.076 789.45C210.386 789.45 212.043 790.103 213.046 791.41C214.049 792.693 214.551 794.957 214.551 798.2V808H207.971V798.9C207.971 797.15 207.808 795.983 207.481 795.4C207.178 794.817 206.618 794.525 205.801 794.525C205.078 794.525 204.424 794.922 203.841 795.715C203.281 796.508 203.001 797.453 203.001 798.55V808H196.351V789.8H202.476L202.616 792.25H202.686ZM220.068 791.97C221.748 790.29 224.116 789.45 227.173 789.45C230.23 789.45 232.598 790.29 234.278 791.97C235.958 793.65 236.798 795.96 236.798 798.9C236.798 801.84 235.958 804.15 234.278 805.83C232.598 807.51 230.23 808.35 227.173 808.35C224.116 808.35 221.748 807.51 220.068 805.83C218.388 804.15 217.548 801.84 217.548 798.9C217.548 795.96 218.388 793.65 220.068 791.97ZM224.828 802.505C225.341 803.228 226.123 803.59 227.173 803.59C228.223 803.59 229.005 803.228 229.518 802.505C230.031 801.782 230.288 800.58 230.288 798.9C230.288 797.22 230.031 796.018 229.518 795.295C229.005 794.572 228.223 794.21 227.173 794.21C226.123 794.21 225.341 794.572 224.828 795.295C224.315 796.018 224.058 797.22 224.058 798.9C224.058 800.58 224.315 801.782 224.828 802.505ZM249.282 808.35C246.972 808.35 245.257 807.825 244.137 806.775C243.017 805.702 242.457 804.01 242.457 801.7V795.05H238.782V790.5H242.457V783.85H249.247V790.5H254.882V795.05H249.247V800.65C249.247 801.77 249.375 802.517 249.632 802.89C249.888 803.263 250.355 803.45 251.032 803.45C252.058 803.45 253.108 803.275 254.182 802.925L254.882 807.65C253.155 808.117 251.288 808.35 249.282 808.35ZM277.651 798.2V808H271.071V798.9C271.071 797.15 270.907 795.983 270.581 795.4C270.277 794.817 269.717 794.525 268.901 794.525C268.177 794.525 267.524 794.922 266.941 795.715C266.381 796.508 266.101 797.453 266.101 798.55V808H259.451V781.75H266.101V791.9H266.171C266.754 791.153 267.501 790.558 268.411 790.115C269.321 789.672 270.242 789.45 271.176 789.45C273.486 789.45 275.142 790.103 276.146 791.41C277.149 792.693 277.651 794.957 277.651 798.2ZM287.188 797.15H293.103C293.103 794.933 292.111 793.825 290.128 793.825C288.331 793.825 287.351 794.933 287.188 797.15ZM287.258 801C287.654 802.867 288.984 803.8 291.248 803.8C292.998 803.8 294.666 803.392 296.253 802.575L297.653 806.95C295.506 807.883 293.173 808.35 290.653 808.35C287.643 808.35 285.228 807.498 283.408 805.795C281.588 804.092 280.678 801.793 280.678 798.9C280.678 795.983 281.506 793.685 283.163 792.005C284.843 790.302 287.106 789.45 289.953 789.45C292.869 789.45 295.144 790.278 296.778 791.935C298.411 793.568 299.228 795.89 299.228 798.9C299.228 799.53 299.169 800.23 299.053 801H287.258ZM317.281 789.45V794.7C314.668 794.7 312.696 795.19 311.366 796.17C310.036 797.15 309.371 798.527 309.371 800.3V808H302.581V789.8H308.846L308.881 793.3H308.951C310.958 790.733 313.735 789.45 317.281 789.45ZM338.272 789.8L338.412 792.25H338.482C339.999 790.383 341.795 789.45 343.872 789.45C346.065 789.45 347.804 790.278 349.087 791.935C350.394 793.568 351.047 795.89 351.047 798.9C351.047 801.84 350.37 804.15 349.017 805.83C347.687 807.51 345.972 808.35 343.872 808.35C341.819 808.35 340.15 807.533 338.867 805.9H338.797V815.7H332.147V789.8H338.272ZM344.747 798.9C344.747 797.453 344.479 796.368 343.942 795.645C343.429 794.898 342.705 794.525 341.772 794.525C340.862 794.525 340.139 794.898 339.602 795.645C339.065 796.368 338.797 797.395 338.797 798.725V799.075C338.797 800.428 339.065 801.467 339.602 802.19C340.139 802.913 340.862 803.275 341.772 803.275C342.635 803.275 343.347 802.902 343.907 802.155C344.467 801.385 344.747 800.3 344.747 798.9ZM355.098 808V781.75H362.098V808H355.098ZM376.315 796.1H377.365C377.365 795.307 377.214 794.758 376.91 794.455C376.607 794.152 376.059 794 375.265 794C372.815 794 370.424 794.525 368.09 795.575L367.215 791.025C369.782 789.975 372.582 789.45 375.615 789.45C378.649 789.45 380.807 790.022 382.09 791.165C383.374 792.285 384.015 794.163 384.015 796.8V803.1C384.015 804.78 384.19 806.413 384.54 808H378.24C378.1 807.207 377.984 806.39 377.89 805.55H377.82C377.19 806.39 376.374 807.067 375.37 807.58C374.367 808.093 373.34 808.35 372.29 808.35C370.494 808.35 369.047 807.86 367.95 806.88C366.877 805.877 366.34 804.5 366.34 802.75C366.34 800.743 367.192 799.133 368.895 797.92C370.622 796.707 373.095 796.1 376.315 796.1ZM372.29 802.05C372.29 803.1 372.874 803.625 374.04 803.625C375.044 803.625 375.849 803.345 376.455 802.785C377.062 802.225 377.365 801.455 377.365 800.475V799.95H376.315C374.985 799.95 373.982 800.148 373.305 800.545C372.629 800.918 372.29 801.42 372.29 802.05ZM396.092 802.05H396.162L399.452 789.8H406.452L397.002 815.7H390.002L393.152 808L386.152 789.8H393.502L396.092 802.05ZM413.858 797.15H419.773C419.773 794.933 418.781 793.825 416.798 793.825C415.001 793.825 414.021 794.933 413.858 797.15ZM413.928 801C414.324 802.867 415.654 803.8 417.918 803.8C419.668 803.8 421.336 803.392 422.923 802.575L424.323 806.95C422.176 807.883 419.843 808.35 417.323 808.35C414.313 808.35 411.898 807.498 410.078 805.795C408.258 804.092 407.348 801.793 407.348 798.9C407.348 795.983 408.176 793.685 409.833 792.005C411.513 790.302 413.776 789.45 416.623 789.45C419.539 789.45 421.814 790.278 423.448 791.935C425.081 793.568 425.898 795.89 425.898 798.9C425.898 799.53 425.839 800.23 425.723 801H413.928ZM443.951 789.45V794.7C441.338 794.7 439.366 795.19 438.036 796.17C436.706 797.15 436.041 798.527 436.041 800.3V808H429.251V789.8H435.516L435.551 793.3H435.621C437.628 790.733 440.405 789.45 443.951 789.45ZM444.512 808V800.65H452.212V808H444.512ZM164.137 837.35C163.623 837.35 163.098 837.408 162.562 837.525V842.425H163.612C166.295 842.425 167.637 841.55 167.637 839.8C167.637 838.167 166.47 837.35 164.137 837.35ZM174.637 850.65C174.637 853.287 173.773 855.235 172.047 856.495C170.343 857.732 167.59 858.35 163.787 858.35C160.94 858.35 158.257 858.175 155.737 857.825V832.625C158.14 832.275 160.707 832.1 163.437 832.1C170.437 832.1 173.937 834.317 173.937 838.75C173.937 840.243 173.458 841.515 172.502 842.565C171.545 843.592 170.273 844.233 168.687 844.49V844.56C170.483 844.793 171.918 845.482 172.992 846.625C174.088 847.768 174.637 849.11 174.637 850.65ZM168.162 849.95C168.162 848.2 166.878 847.325 164.312 847.325H162.562V852.925C163.098 853.042 163.623 853.1 164.137 853.1C165.537 853.1 166.552 852.843 167.182 852.33C167.835 851.817 168.162 851.023 168.162 849.95ZM178.509 858V831.75H185.509V858H178.509ZM191.921 841.97C193.601 840.29 195.969 839.45 199.026 839.45C202.083 839.45 204.451 840.29 206.131 841.97C207.811 843.65 208.651 845.96 208.651 848.9C208.651 851.84 207.811 854.15 206.131 855.83C204.451 857.51 202.083 858.35 199.026 858.35C195.969 858.35 193.601 857.51 191.921 855.83C190.241 854.15 189.401 851.84 189.401 848.9C189.401 845.96 190.241 843.65 191.921 841.97ZM196.681 852.505C197.194 853.228 197.976 853.59 199.026 853.59C200.076 853.59 200.858 853.228 201.371 852.505C201.884 851.782 202.141 850.58 202.141 848.9C202.141 847.22 201.884 846.018 201.371 845.295C200.858 844.572 200.076 844.21 199.026 844.21C197.976 844.21 197.194 844.572 196.681 845.295C196.168 846.018 195.911 847.22 195.911 848.9C195.911 850.58 196.168 851.782 196.681 852.505ZM226.368 852.295L227.768 856.95C225.762 857.883 223.662 858.35 221.468 858.35C218.248 858.35 215.693 857.498 213.803 855.795C211.913 854.092 210.968 851.793 210.968 848.9C210.968 845.983 211.89 843.685 213.733 842.005C215.6 840.302 218.178 839.45 221.468 839.45C223.732 839.45 225.832 839.917 227.768 840.85L226.368 845.575C224.922 844.688 223.405 844.245 221.818 844.245C220.488 844.245 219.45 844.642 218.703 845.435C217.98 846.228 217.618 847.383 217.618 848.9C217.618 850.37 218.003 851.525 218.773 852.365C219.543 853.205 220.558 853.625 221.818 853.625C223.405 853.625 224.922 853.182 226.368 852.295ZM238.707 850.65H238.637V858H231.987V831.75H238.637V846.45H238.707L243.537 839.8H251.062L244.062 848.55L251.237 858H243.712L238.707 850.65ZM268.076 845.295C265.952 844.525 263.969 844.14 262.126 844.14C261.122 844.14 260.434 844.233 260.061 844.42C259.687 844.583 259.501 844.852 259.501 845.225C259.501 845.575 259.652 845.843 259.956 846.03C260.259 846.217 260.807 846.357 261.601 846.45C264.471 846.8 266.524 847.477 267.761 848.48C269.021 849.483 269.651 850.848 269.651 852.575C269.651 854.348 268.939 855.76 267.516 856.81C266.116 857.837 264.086 858.35 261.426 858.35C258.276 858.35 255.417 857.767 252.851 856.6L254.076 851.91C256.176 853.03 258.392 853.59 260.726 853.59C262.242 853.59 263.001 853.193 263.001 852.4C263.001 852.097 262.884 851.887 262.651 851.77C262.417 851.653 261.834 851.513 260.901 851.35C258.077 850.907 256.059 850.183 254.846 849.18C253.632 848.153 253.026 846.777 253.026 845.05C253.026 843.3 253.726 841.935 255.126 840.955C256.526 839.952 258.626 839.45 261.426 839.45C264.202 839.45 266.827 839.858 269.301 840.675L268.076 845.295ZM295.543 832.1C297.036 832.1 298.611 832.275 300.268 832.625L299.393 837.525C298.553 837.175 297.678 837 296.768 837C295.951 837 295.391 837.198 295.088 837.595C294.784 837.968 294.633 838.703 294.633 839.8V840.5H299.918V845.05H294.633V858H287.843V845.05H283.818V840.5H287.843V839.8C287.843 837.303 288.508 835.402 289.838 834.095C291.168 832.765 293.069 832.1 295.543 832.1ZM304.406 841.97C306.086 840.29 308.455 839.45 311.511 839.45C314.568 839.45 316.936 840.29 318.616 841.97C320.296 843.65 321.136 845.96 321.136 848.9C321.136 851.84 320.296 854.15 318.616 855.83C316.936 857.51 314.568 858.35 311.511 858.35C308.455 858.35 306.086 857.51 304.406 855.83C302.726 854.15 301.886 851.84 301.886 848.9C301.886 845.96 302.726 843.65 304.406 841.97ZM309.166 852.505C309.68 853.228 310.461 853.59 311.511 853.59C312.561 853.59 313.343 853.228 313.856 852.505C314.37 851.782 314.626 850.58 314.626 848.9C314.626 847.22 314.37 846.018 313.856 845.295C313.343 844.572 312.561 844.21 311.511 844.21C310.461 844.21 309.68 844.572 309.166 845.295C308.653 846.018 308.396 847.22 308.396 848.9C308.396 850.58 308.653 851.782 309.166 852.505ZM339.037 839.45V844.7C336.424 844.7 334.452 845.19 333.122 846.17C331.792 847.15 331.127 848.527 331.127 850.3V858H324.337V839.8H330.602L330.637 843.3H330.707C332.714 840.733 335.49 839.45 339.037 839.45ZM347.361 847.15H353.276C353.276 844.933 352.284 843.825 350.301 843.825C348.504 843.825 347.524 844.933 347.361 847.15ZM347.431 851C347.828 852.867 349.158 853.8 351.421 853.8C353.171 853.8 354.839 853.392 356.426 852.575L357.826 856.95C355.679 857.883 353.346 858.35 350.826 858.35C347.816 858.35 345.401 857.498 343.581 855.795C341.761 854.092 340.851 851.793 340.851 848.9C340.851 845.983 341.679 843.685 343.336 842.005C345.016 840.302 347.279 839.45 350.126 839.45C353.043 839.45 355.318 840.278 356.951 841.935C358.584 843.568 359.401 845.89 359.401 848.9C359.401 849.53 359.343 850.23 359.226 851H347.431ZM363.455 836.65V831.75H370.455V836.65H363.455ZM363.455 858V839.8H370.455V858H363.455ZM386.947 855.2H386.912C385.559 856.833 383.821 857.65 381.697 857.65C379.621 857.65 377.906 856.845 376.552 855.235C375.199 853.602 374.522 851.373 374.522 848.55C374.522 845.68 375.176 843.452 376.482 841.865C377.789 840.255 379.527 839.45 381.697 839.45C383.774 839.45 385.571 840.383 387.087 842.25H387.157L387.297 839.8H393.422V855.9C393.422 859.237 392.501 861.757 390.657 863.46C388.814 865.187 386.119 866.05 382.572 866.05C380.332 866.05 378.232 865.7 376.272 865L377.322 860.31C378.956 860.987 380.589 861.325 382.222 861.325C383.926 861.325 385.139 860.917 385.862 860.1C386.586 859.307 386.947 857.907 386.947 855.9V855.2ZM380.822 848.55C380.822 849.88 381.091 850.918 381.627 851.665C382.187 852.388 382.911 852.75 383.797 852.75C384.707 852.75 385.431 852.412 385.967 851.735C386.504 851.035 386.772 850.032 386.772 848.725V848.375C386.772 847.092 386.504 846.1 385.967 845.4C385.431 844.7 384.707 844.35 383.797 844.35C382.864 844.35 382.129 844.712 381.592 845.435C381.079 846.135 380.822 847.173 380.822 848.55ZM404.158 842.25C404.811 841.387 405.616 840.71 406.573 840.22C407.553 839.707 408.545 839.45 409.548 839.45C411.858 839.45 413.515 840.103 414.518 841.41C415.521 842.693 416.023 844.957 416.023 848.2V858H409.443V848.9C409.443 847.15 409.28 845.983 408.953 845.4C408.65 844.817 408.09 844.525 407.273 844.525C406.55 844.525 405.896 844.922 405.313 845.715C404.753 846.508 404.473 847.453 404.473 848.55V858H397.823V839.8H403.948L404.088 842.25H404.158ZM440.488 846.1H441.538C441.538 845.307 441.386 844.758 441.083 844.455C440.779 844.152 440.231 844 439.438 844C436.988 844 434.596 844.525 432.263 845.575L431.388 841.025C433.954 839.975 436.754 839.45 439.788 839.45C442.821 839.45 444.979 840.022 446.263 841.165C447.546 842.285 448.188 844.163 448.188 846.8V853.1C448.188 854.78 448.363 856.413 448.713 858H442.413C442.273 857.207 442.156 856.39 442.063 855.55H441.993C441.363 856.39 440.546 857.067 439.543 857.58C438.539 858.093 437.513 858.35 436.463 858.35C434.666 858.35 433.219 857.86 432.123 856.88C431.049 855.877 430.513 854.5 430.513 852.75C430.513 850.743 431.364 849.133 433.068 847.92C434.794 846.707 437.268 846.1 440.488 846.1ZM436.463 852.05C436.463 853.1 437.046 853.625 438.213 853.625C439.216 853.625 440.021 853.345 440.628 852.785C441.234 852.225 441.538 851.455 441.538 850.475V849.95H440.488C439.158 849.95 438.154 850.148 437.478 850.545C436.801 850.918 436.463 851.42 436.463 852.05ZM453.484 836.65V831.75H460.484V836.65H453.484ZM453.484 858V839.8H460.484V858H453.484ZM464.551 848.9C464.551 845.89 465.193 843.568 466.476 841.935C467.783 840.278 469.533 839.45 471.726 839.45C473.71 839.45 475.378 840.267 476.731 841.9H476.801V831.75H483.451V858H477.326L477.186 855.55H477.116C475.646 857.417 473.85 858.35 471.726 858.35C469.626 858.35 467.9 857.51 466.546 855.83C465.216 854.15 464.551 851.84 464.551 848.9ZM470.851 848.9C470.851 850.3 471.131 851.385 471.691 852.155C472.251 852.902 472.963 853.275 473.826 853.275C474.736 853.275 475.46 852.913 475.996 852.19C476.533 851.467 476.801 850.428 476.801 849.075V848.725C476.801 847.395 476.533 846.368 475.996 845.645C475.46 844.898 474.736 844.525 473.826 844.525C472.893 844.525 472.158 844.898 471.621 845.645C471.108 846.368 470.851 847.453 470.851 848.9Z" fill="white"/>
<defs>
<filter id="filter0_d_617_230" x="-293.9" y="-24.4" width="1043.8" height="1127.8" filterUnits="userSpaceOnUse" color-interpolation-filters="sRGB">
<feFlood flood-opacity="0" result="BackgroundImageFix"/>
<feColorMatrix in="SourceAlpha" type="matrix" values="0 0 0 0 0 0 0 0 0 0 0 0 0 0 0 0 0 0 127 0" result="hardAlpha"/>
<feOffset/>
<feGaussianBlur stdDeviation="34.95"/>
<feComposite in2="hardAlpha" operator="out"/>
<feColorMatrix type="matrix" values="0 0 0 0 0 0 0 0 0 0 0 0 0 0 0 0 0 0 0.15 0"/>
<feBlend mode="normal" in2="BackgroundImageFix" result="effect1_dropShadow_617_230"/>
<feBlend mode="normal" in="SourceGraphic" in2="effect1_dropShadow_617_230" result="shape"/>
</filter>
<linearGradient id="paint0_linear_617_230" x1="216.768" y1="139.5" x2="216.768" y2="1033.5" gradientUnits="userSpaceOnUse">
<stop stop-color="#2C8AE1"/>
<stop offset="1" stop-color="#2C8AE1" stop-opacity="0.54"/>
</linearGradient>
</defs>
</svg>
