<svg width="641" height="900" viewBox="0 0 641 900" fill="none" xmlns="http://www.w3.org/2000/svg">
<rect x="1.01953" width="639.02" height="900" fill="#2FB94D"/>
<mask id="mask0_674_8" style="mask-type:alpha" maskUnits="userSpaceOnUse" x="1" y="0" width="640" height="900">
<rect x="1.01953" width="639.02" height="900" fill="white"/>
</mask>
<g mask="url(#mask0_674_8)">
<path d="M-35.5658 75.5932L-14.2516 36.7719C10.7812 40.7353 48.3636 49.9161 68.299 57.2834L46.1358 100.354C28.0696 92.4754 -9.26471 81.3727 -35.5658 75.5932ZM-47.2827 132.028C-19.1665 125.491 21.9291 113.856 61.9137 102.679L69.8284 145.552C38.2621 157.282 4.3951 168.793 -23.5115 178.363L-47.2827 132.028ZM118.65 47.2868L260.423 37.373L263.043 75.2826L90.9436 87.317L118.65 47.2868ZM247.914 38.2477L255.495 37.7176L263.351 35.6445L299.966 41.8455C291.956 63.7376 280.313 88.1693 269.583 103.776L226.289 94.6135C234.522 81.4672 244.126 60.6064 248.307 43.9342L247.914 38.2477ZM153.919 61.5813L202.82 58.1619C199.39 113.255 182.415 148.726 94.2112 173.178C89.2554 162.097 76.6255 144.695 66.8728 135.854C140.764 119.259 151.075 97.5874 153.919 61.5813ZM200.573 69.7468C208.067 95.5068 225.05 115.27 312.84 117.893C303.364 129.602 293.054 151.274 289.069 165.266C190.978 156.888 169.548 116.866 156.889 76.9917L200.573 69.7468ZM111.692 23.7749L160.385 28.3694C146.638 60.9477 130.355 89.894 103.575 115.765C93.0641 106.977 73.7035 96.9029 60.4743 92.8759C86.4839 72.3917 102.976 46.4781 111.692 23.7749ZM65.6332 239.172L66.3668 249.787L216.48 239.29L215.747 228.675L65.6332 239.172ZM68.4366 279.736L69.1964 290.729L219.31 280.232L218.55 269.239L68.4366 279.736ZM62.8299 198.609L63.5635 209.224L213.677 198.727L212.943 188.112L62.8299 198.609ZM7.55869 170.476L266.466 152.372L277.208 307.801L18.3005 325.905L7.55869 170.476ZM161.842 336.057L206.308 307.045C246.4 319.478 295.173 336.257 323.03 348.022L259.48 376.465C238.878 364.954 199.634 348.271 161.842 336.057ZM78.8337 314.435L130.823 333.655C100.827 357.085 52.5302 380.27 14.2454 393.994C3.62966 383.69 -16.6864 365.302 -29.4718 356.673C10.6175 347.013 54.8104 330.59 78.8337 314.435ZM339.814 78.2947L677.948 54.65L681.825 110.756L343.691 134.401L339.814 78.2947ZM431.04 246.38L606.93 234.081L610.808 290.187L434.917 302.487L431.04 246.38ZM474.087 -1.56627L532.843 -5.67493L557.733 354.466L498.977 358.575L474.087 -1.56627ZM464.075 90.5565L515.971 102.927C489.54 188.96 444.127 264.893 380.423 313.154C370.003 300.169 350.34 280.212 337.071 270.093C396.45 230.896 443.746 160.164 464.075 90.5565ZM555.51 85.3055C586.146 148.302 643.645 208.658 708.55 238.403C695.689 250.73 677.575 275.233 669.173 291.439C599.874 253.24 544.832 184.332 506.22 105.132L555.51 85.3055ZM323.048 557.712L379.909 553.736L383.813 610.221L326.952 614.197L323.048 557.712ZM190.768 594.769L517.909 571.894L524.197 662.877L467.715 666.826L464.859 625.505L248.029 640.667L250.885 681.988L197.056 685.752L190.768 594.769ZM258.253 656.332L458.025 642.362L461.222 688.612L261.45 702.582L258.253 656.332ZM293.309 728.161L334.441 700.525C430.853 756.255 436.372 863.672 396.77 896.915C382.55 911.623 369.571 916.721 347.964 918.232C338.513 919.274 327.115 919.69 316.069 919.7C314.263 904.59 307.815 882.947 296.885 868.093C311.016 868.628 323.552 868.133 333.787 867.417C342.884 866.781 349.629 865.167 354.817 857.566C372.318 840.724 368.334 772.055 293.309 728.161ZM350.828 662.048L397.627 677.822C359.621 723.144 291.509 757.238 227.461 778.477C221.421 768.234 206.255 747.2 196.828 737.575C257.858 722.26 320.781 695.766 350.828 662.048ZM325.088 741.557L361.666 763.76C331.827 789.464 278.748 820.602 238.045 837.924C231.142 826.217 218.486 808.436 207.896 798.511C247.828 786.576 299.863 762.368 325.088 741.557ZM359.694 773.802L399.161 799.231C360.462 840.03 289.241 884.245 230.762 908.905C223.374 895.708 210.261 876.817 198.808 865.428C257.353 847.24 326.693 808.869 359.694 773.802ZM422.644 665.026C444.968 740.031 484.755 803.15 551.319 829.35C539.57 841.219 523.652 864.425 516.36 880.172C443.428 844.513 404.477 771.432 377.025 677.358L422.644 665.026ZM485.247 683.504L531.029 717.633C505.83 738.823 475.729 760.736 453.039 774.131L415.505 743.615C437.359 729.135 467.577 703.405 485.247 683.504Z" fill="#1C6424"/>
<g filter="url(#filter0_d_674_8)">
<path d="M1063 1108L30.3051 1089.47L-70 946.422L-17.6847 594.751L55.5568 527.218L146 489.2L217.485 412.162L204.531 386.65L201.5 293.5L181 272.5L204.531 232L211.5 219L222.5 189.5L217.485 162.5L273.288 97.0092L341 78H410.803L467 109.5L504 153.5L518.423 253.585L504 370L491.5 399.5L504 425.5L544.5 475.5L715 526.5L659.425 610.258L738.869 892.166L770.529 1063.93L1063 1108Z" fill="url(#paint0_linear_674_8)" shape-rendering="crispEdges"/>
</g>
</g>
<path d="M81.4677 709.9C70.8477 709.9 62.3277 706.9 55.9077 700.9C49.5477 694.84 46.3677 686.59 46.3677 676.15C46.3677 665.59 49.4277 657.34 55.5477 651.4C61.7277 645.4 70.3677 642.4 81.4677 642.4C89.9277 642.4 97.1277 644.5 103.068 648.7L98.1177 661.75C93.1377 658.45 88.1877 656.8 83.2677 656.8C77.4477 656.8 72.9177 658.48 69.6777 661.84C66.4377 665.14 64.8177 669.91 64.8177 676.15C64.8177 682.15 66.4977 686.89 69.8577 690.37C73.2777 693.79 77.7477 695.5 83.2677 695.5C88.1877 695.5 93.1377 693.85 98.1177 690.55L103.068 703.6C97.1277 707.8 89.9277 709.9 81.4677 709.9ZM133.514 682.9H145.394L139.544 658.6H139.364L133.514 682.9ZM130.274 696.4L127.304 709H108.584L130.184 643.3H149.084L170.684 709H151.604L148.544 696.4H130.274ZM196.903 688.48V709H179.353V643.75C185.533 642.85 192.133 642.4 199.153 642.4C219.553 642.4 229.753 649.75 229.753 664.45C229.753 672.43 227.443 678.49 222.823 682.63C218.263 686.71 211.573 688.75 202.753 688.75C200.413 688.75 198.463 688.66 196.903 688.48ZM196.903 675.43C198.043 675.61 199.393 675.7 200.953 675.7C204.853 675.7 207.853 674.8 209.953 673C212.053 671.2 213.103 668.65 213.103 665.35C213.103 659.05 209.053 655.9 200.953 655.9C199.633 655.9 198.283 656.05 196.903 656.35V675.43ZM239.316 709V643.3H259.116V709H239.316ZM324.883 643.3V658.15H307.063V709H288.703V658.15H270.883V643.3H324.883ZM346.297 682.9H358.177L352.327 658.6H352.147L346.297 682.9ZM343.057 696.4L340.087 709H321.367L342.967 643.3H361.867L383.467 709H364.387L361.327 696.4H343.057ZM410.586 643.3V694.15H437.136V709H392.136V643.3H410.586ZM448.935 709V643.3H468.735V709H448.935ZM526.402 660.85C520.342 657.85 514.192 656.35 507.952 656.35C505.132 656.35 503.002 656.86 501.562 657.88C500.122 658.84 499.402 660.13 499.402 661.75C499.402 664.27 501.352 666.07 505.252 667.15C514.672 669.67 521.302 672.7 525.142 676.24C528.982 679.72 530.902 684.19 530.902 689.65C530.902 696.25 528.622 701.29 524.062 704.77C519.502 708.19 512.632 709.9 503.452 709.9C499.612 709.9 495.472 709.27 491.032 708.01C486.652 706.69 483.142 705.07 480.502 703.15L484.552 689.2C487.612 691.3 490.912 692.95 494.452 694.15C498.052 695.35 501.352 695.95 504.352 695.95C509.752 695.95 512.452 694 512.452 690.1C512.452 687.58 510.052 685.63 505.252 684.25C496.492 681.73 490.252 678.7 486.532 675.16C482.812 671.62 480.952 667.15 480.952 661.75C480.952 655.81 483.202 651.1 487.702 647.62C492.262 644.14 498.712 642.4 507.052 642.4C515.932 642.4 523.432 643.9 529.552 646.9L526.402 660.85ZM591.806 643.3V658.15H573.986V709H555.626V658.15H537.806V643.3H591.806Z" fill="white"/>
<path d="M88.4988 736.45V742.225H81.5688V762H74.4288V742.225H67.4988V736.45H88.4988ZM98.6912 750.1H99.7412C99.7412 749.307 99.5896 748.758 99.2862 748.455C98.9829 748.152 98.4346 748 97.6412 748C95.1912 748 92.7996 748.525 90.4662 749.575L89.5912 745.025C92.1579 743.975 94.9579 743.45 97.9912 743.45C101.025 743.45 103.183 744.022 104.466 745.165C105.75 746.285 106.391 748.163 106.391 750.8V757.1C106.391 758.78 106.566 760.413 106.916 762H100.616C100.476 761.207 100.36 760.39 100.266 759.55H100.196C99.5662 760.39 98.7496 761.067 97.7462 761.58C96.7429 762.093 95.7162 762.35 94.6662 762.35C92.8696 762.35 91.4229 761.86 90.3262 760.88C89.2529 759.877 88.7162 758.5 88.7162 756.75C88.7162 754.743 89.5679 753.133 91.2712 751.92C92.9979 750.707 95.4712 750.1 98.6912 750.1ZM94.6662 756.05C94.6662 757.1 95.2496 757.625 96.4162 757.625C97.4196 757.625 98.2246 757.345 98.8312 756.785C99.4379 756.225 99.7412 755.455 99.7412 754.475V753.95H98.6912C97.3612 753.95 96.3579 754.148 95.6812 754.545C95.0046 754.918 94.6662 755.42 94.6662 756.05ZM117.883 754.65H117.813V762H111.163V735.75H117.813V750.45H117.883L122.713 743.8H130.238L123.238 752.55L130.413 762H122.888L117.883 754.65ZM137.669 751.15H143.584C143.584 748.933 142.593 747.825 140.609 747.825C138.813 747.825 137.833 748.933 137.669 751.15ZM137.739 755C138.136 756.867 139.466 757.8 141.729 757.8C143.479 757.8 145.148 757.392 146.734 756.575L148.134 760.95C145.988 761.883 143.654 762.35 141.134 762.35C138.124 762.35 135.709 761.498 133.889 759.795C132.069 758.092 131.159 755.793 131.159 752.9C131.159 749.983 131.988 747.685 133.644 746.005C135.324 744.302 137.588 743.45 140.434 743.45C143.351 743.45 145.626 744.278 147.259 745.935C148.893 747.568 149.709 749.89 149.709 752.9C149.709 753.53 149.651 754.23 149.534 755H137.739ZM168.3 751.955V752.025H173.55V744.5H173.48L168.3 751.955ZM180.2 757.45V762H173.55V757.45H162.35V752.025L173.55 736.45H180.2V752.025H183.7V757.45H180.2ZM212.629 756.295L214.029 760.95C212.022 761.883 209.922 762.35 207.729 762.35C204.509 762.35 201.954 761.498 200.064 759.795C198.174 758.092 197.229 755.793 197.229 752.9C197.229 749.983 198.15 747.685 199.994 746.005C201.86 744.302 204.439 743.45 207.729 743.45C209.992 743.45 212.092 743.917 214.029 744.85L212.629 749.575C211.182 748.688 209.665 748.245 208.079 748.245C206.749 748.245 205.71 748.642 204.964 749.435C204.24 750.228 203.879 751.383 203.879 752.9C203.879 754.37 204.264 755.525 205.034 756.365C205.804 757.205 206.819 757.625 208.079 757.625C209.665 757.625 211.182 757.182 212.629 756.295ZM219.368 745.97C221.048 744.29 223.416 743.45 226.473 743.45C229.529 743.45 231.898 744.29 233.578 745.97C235.258 747.65 236.098 749.96 236.098 752.9C236.098 755.84 235.258 758.15 233.578 759.83C231.898 761.51 229.529 762.35 226.473 762.35C223.416 762.35 221.048 761.51 219.368 759.83C217.688 758.15 216.848 755.84 216.848 752.9C216.848 749.96 217.688 747.65 219.368 745.97ZM224.128 756.505C224.641 757.228 225.423 757.59 226.473 757.59C227.523 757.59 228.304 757.228 228.818 756.505C229.331 755.782 229.588 754.58 229.588 752.9C229.588 751.22 229.331 750.018 228.818 749.295C228.304 748.572 227.523 748.21 226.473 748.21C225.423 748.21 224.641 748.572 224.128 749.295C223.614 750.018 223.358 751.22 223.358 752.9C223.358 754.58 223.614 755.782 224.128 756.505ZM239.998 740.65V735.75H246.998V740.65H239.998ZM239.998 762V743.8H246.998V762H239.998ZM258.451 746.25C259.104 745.387 259.909 744.71 260.866 744.22C261.846 743.707 262.837 743.45 263.841 743.45C266.151 743.45 267.807 744.103 268.811 745.41C269.814 746.693 270.316 748.957 270.316 752.2V762H263.736V752.9C263.736 751.15 263.572 749.983 263.246 749.4C262.942 748.817 262.382 748.525 261.566 748.525C260.842 748.525 260.189 748.922 259.606 749.715C259.046 750.508 258.766 751.453 258.766 752.55V762H252.116V743.8H258.241L258.381 746.25H258.451ZM289.063 749.295C286.939 748.525 284.956 748.14 283.113 748.14C282.109 748.14 281.421 748.233 281.048 748.42C280.674 748.583 280.488 748.852 280.488 749.225C280.488 749.575 280.639 749.843 280.943 750.03C281.246 750.217 281.794 750.357 282.588 750.45C285.458 750.8 287.511 751.477 288.748 752.48C290.008 753.483 290.638 754.848 290.638 756.575C290.638 758.348 289.926 759.76 288.503 760.81C287.103 761.837 285.073 762.35 282.413 762.35C279.263 762.35 276.404 761.767 273.838 760.6L275.063 755.91C277.163 757.03 279.379 757.59 281.713 757.59C283.229 757.59 283.988 757.193 283.988 756.4C283.988 756.097 283.871 755.887 283.638 755.77C283.404 755.653 282.821 755.513 281.888 755.35C279.064 754.907 277.046 754.183 275.833 753.18C274.619 752.153 274.013 750.777 274.013 749.05C274.013 747.3 274.713 745.935 276.113 744.955C277.513 743.952 279.613 743.45 282.413 743.45C285.189 743.45 287.814 743.858 290.288 744.675L289.063 749.295ZM298.753 765.85H293.153L295.253 754.65H302.953L298.753 765.85ZM329.697 759.2H329.662C328.308 760.833 326.57 761.65 324.447 761.65C322.37 761.65 320.655 760.845 319.302 759.235C317.948 757.602 317.272 755.373 317.272 752.55C317.272 749.68 317.925 747.452 319.232 745.865C320.538 744.255 322.277 743.45 324.447 743.45C326.523 743.45 328.32 744.383 329.837 746.25H329.907L330.047 743.8H336.172V759.9C336.172 763.237 335.25 765.757 333.407 767.46C331.563 769.187 328.868 770.05 325.322 770.05C323.082 770.05 320.982 769.7 319.022 769L320.072 764.31C321.705 764.987 323.338 765.325 324.972 765.325C326.675 765.325 327.888 764.917 328.612 764.1C329.335 763.307 329.697 761.907 329.697 759.9V759.2ZM323.572 752.55C323.572 753.88 323.84 754.918 324.377 755.665C324.937 756.388 325.66 756.75 326.547 756.75C327.457 756.75 328.18 756.412 328.717 755.735C329.253 755.035 329.522 754.032 329.522 752.725V752.375C329.522 751.092 329.253 750.1 328.717 749.4C328.18 748.7 327.457 748.35 326.547 748.35C325.613 748.35 324.878 748.712 324.342 749.435C323.828 750.135 323.572 751.173 323.572 752.55ZM341.273 740.65V735.75H348.273V740.65H341.273ZM341.273 762V743.8H348.273V762H341.273ZM362 758.15H362.07L365.01 743.8H371.94L366.515 762H357.415L351.99 743.8H359.06L362 758.15ZM379.73 751.15H385.645C385.645 748.933 384.653 747.825 382.67 747.825C380.873 747.825 379.893 748.933 379.73 751.15ZM379.8 755C380.196 756.867 381.526 757.8 383.79 757.8C385.54 757.8 387.208 757.392 388.795 756.575L390.195 760.95C388.048 761.883 385.715 762.35 383.195 762.35C380.185 762.35 377.77 761.498 375.95 759.795C374.13 758.092 373.22 755.793 373.22 752.9C373.22 749.983 374.048 747.685 375.705 746.005C377.385 744.302 379.648 743.45 382.495 743.45C385.411 743.45 387.686 744.278 389.32 745.935C390.953 747.568 391.77 749.89 391.77 752.9C391.77 753.53 391.711 754.23 391.595 755H379.8ZM413.511 744.5H413.476L408.261 749.4L406.161 743.45L413.511 736.45H420.861V762H413.511V744.5ZM454.689 756.295L456.089 760.95C454.082 761.883 451.982 762.35 449.789 762.35C446.569 762.35 444.014 761.498 442.124 759.795C440.234 758.092 439.289 755.793 439.289 752.9C439.289 749.983 440.211 747.685 442.054 746.005C443.921 744.302 446.499 743.45 449.789 743.45C452.052 743.45 454.152 743.917 456.089 744.85L454.689 749.575C453.242 748.688 451.726 748.245 450.139 748.245C448.809 748.245 447.771 748.642 447.024 749.435C446.301 750.228 445.939 751.383 445.939 752.9C445.939 754.37 446.324 755.525 447.094 756.365C447.864 757.205 448.879 757.625 450.139 757.625C451.726 757.625 453.242 757.182 454.689 756.295ZM461.428 745.97C463.108 744.29 465.477 743.45 468.533 743.45C471.59 743.45 473.958 744.29 475.638 745.97C477.318 747.65 478.158 749.96 478.158 752.9C478.158 755.84 477.318 758.15 475.638 759.83C473.958 761.51 471.59 762.35 468.533 762.35C465.477 762.35 463.108 761.51 461.428 759.83C459.748 758.15 458.908 755.84 458.908 752.9C458.908 749.96 459.748 747.65 461.428 745.97ZM466.188 756.505C466.702 757.228 467.483 757.59 468.533 757.59C469.583 757.59 470.365 757.228 470.878 756.505C471.392 755.782 471.648 754.58 471.648 752.9C471.648 751.22 471.392 750.018 470.878 749.295C470.365 748.572 469.583 748.21 468.533 748.21C467.483 748.21 466.702 748.572 466.188 749.295C465.675 750.018 465.418 751.22 465.418 752.9C465.418 754.58 465.675 755.782 466.188 756.505ZM482.059 740.65V735.75H489.059V740.65H482.059ZM482.059 762V743.8H489.059V762H482.059ZM500.511 746.25C501.165 745.387 501.97 744.71 502.926 744.22C503.906 743.707 504.898 743.45 505.901 743.45C508.211 743.45 509.868 744.103 510.871 745.41C511.875 746.693 512.376 748.957 512.376 752.2V762H505.796V752.9C505.796 751.15 505.633 749.983 505.306 749.4C505.003 748.817 504.443 748.525 503.626 748.525C502.903 748.525 502.25 748.922 501.666 749.715C501.106 750.508 500.826 751.453 500.826 752.55V762H494.176V743.8H500.301L500.441 746.25H500.511ZM537.366 762.35C535.056 762.35 533.341 761.825 532.221 760.775C531.101 759.702 530.541 758.01 530.541 755.7V749.05H526.866V744.5H530.541V737.85H537.331V744.5H542.966V749.05H537.331V754.65C537.331 755.77 537.459 756.517 537.716 756.89C537.972 757.263 538.439 757.45 539.116 757.45C540.142 757.45 541.192 757.275 542.266 756.925L542.966 761.65C541.239 762.117 539.372 762.35 537.366 762.35ZM548.313 745.97C549.993 744.29 552.361 743.45 555.418 743.45C558.475 743.45 560.843 744.29 562.523 745.97C564.203 747.65 565.043 749.96 565.043 752.9C565.043 755.84 564.203 758.15 562.523 759.83C560.843 761.51 558.475 762.35 555.418 762.35C552.361 762.35 549.993 761.51 548.313 759.83C546.633 758.15 545.793 755.84 545.793 752.9C545.793 749.96 546.633 747.65 548.313 745.97ZM553.073 756.505C553.586 757.228 554.368 757.59 555.418 757.59C556.468 757.59 557.25 757.228 557.763 756.505C558.276 755.782 558.533 754.58 558.533 752.9C558.533 751.22 558.276 750.018 557.763 749.295C557.25 748.572 556.468 748.21 555.418 748.21C554.368 748.21 553.586 748.572 553.073 749.295C552.56 750.018 552.303 751.22 552.303 752.9C552.303 754.58 552.56 755.782 553.073 756.505ZM44.4954 801.15H50.4104C50.4104 798.933 49.4187 797.825 47.4354 797.825C45.6387 797.825 44.6587 798.933 44.4954 801.15ZM44.5654 805C44.962 806.867 46.292 807.8 48.5554 807.8C50.3054 807.8 51.9737 807.392 53.5604 806.575L54.9604 810.95C52.8137 811.883 50.4804 812.35 47.9604 812.35C44.9504 812.35 42.5354 811.498 40.7154 809.795C38.8954 808.092 37.9854 805.793 37.9854 802.9C37.9854 799.983 38.8137 797.685 40.4704 796.005C42.1504 794.302 44.4137 793.45 47.2604 793.45C50.177 793.45 52.452 794.278 54.0854 795.935C55.7187 797.568 56.5354 799.89 56.5354 802.9C56.5354 803.53 56.477 804.23 56.3604 805H44.5654ZM68.9891 800.1H70.0391C70.0391 799.307 69.8874 798.758 69.5841 798.455C69.2807 798.152 68.7324 798 67.9391 798C65.4891 798 63.0974 798.525 60.7641 799.575L59.8891 795.025C62.4557 793.975 65.2557 793.45 68.2891 793.45C71.3224 793.45 73.4807 794.022 74.7641 795.165C76.0474 796.285 76.6891 798.163 76.6891 800.8V807.1C76.6891 808.78 76.8641 810.413 77.2141 812H70.9141C70.7741 811.207 70.6574 810.39 70.5641 809.55H70.4941C69.8641 810.39 69.0474 811.067 68.0441 811.58C67.0407 812.093 66.0141 812.35 64.9641 812.35C63.1674 812.35 61.7207 811.86 60.6241 810.88C59.5507 809.877 59.0141 808.5 59.0141 806.75C59.0141 804.743 59.8657 803.133 61.5691 801.92C63.2957 800.707 65.7691 800.1 68.9891 800.1ZM64.9641 806.05C64.9641 807.1 65.5474 807.625 66.7141 807.625C67.7174 807.625 68.5224 807.345 69.1291 806.785C69.7357 806.225 70.0391 805.455 70.0391 804.475V803.95H68.9891C67.6591 803.95 66.6557 804.148 65.9791 804.545C65.3024 804.918 64.9641 805.42 64.9641 806.05ZM95.4606 806.295L96.8606 810.95C94.8539 811.883 92.7539 812.35 90.5606 812.35C87.3406 812.35 84.7856 811.498 82.8956 809.795C81.0056 808.092 80.0606 805.793 80.0606 802.9C80.0606 799.983 80.9822 797.685 82.8256 796.005C84.6922 794.302 87.2706 793.45 90.5606 793.45C92.8239 793.45 94.9239 793.917 96.8606 794.85L95.4606 799.575C94.0139 798.688 92.4972 798.245 90.9106 798.245C89.5806 798.245 88.5422 798.642 87.7956 799.435C87.0722 800.228 86.7106 801.383 86.7106 802.9C86.7106 804.37 87.0956 805.525 87.8656 806.365C88.6356 807.205 89.6506 807.625 90.9106 807.625C92.4972 807.625 94.0139 807.182 95.4606 806.295ZM119.28 802.2V812H112.7V802.9C112.7 801.15 112.536 799.983 112.21 799.4C111.906 798.817 111.346 798.525 110.53 798.525C109.806 798.525 109.153 798.922 108.57 799.715C108.01 800.508 107.73 801.453 107.73 802.55V812H101.08V785.75H107.73V795.9H107.8C108.383 795.153 109.13 794.558 110.04 794.115C110.95 793.672 111.871 793.45 112.805 793.45C115.115 793.45 116.771 794.103 117.775 795.41C118.778 796.693 119.28 798.957 119.28 802.2ZM140.799 793.8L140.939 796.25H141.009C142.526 794.383 144.323 793.45 146.399 793.45C148.593 793.45 150.331 794.278 151.614 795.935C152.921 797.568 153.574 799.89 153.574 802.9C153.574 805.84 152.898 808.15 151.544 809.83C150.214 811.51 148.499 812.35 146.399 812.35C144.346 812.35 142.678 811.533 141.394 809.9H141.324V819.7H134.674V793.8H140.799ZM147.274 802.9C147.274 801.453 147.006 800.368 146.469 799.645C145.956 798.898 145.233 798.525 144.299 798.525C143.389 798.525 142.666 798.898 142.129 799.645C141.593 800.368 141.324 801.395 141.324 802.725V803.075C141.324 804.428 141.593 805.467 142.129 806.19C142.666 806.913 143.389 807.275 144.299 807.275C145.163 807.275 145.874 806.902 146.434 806.155C146.994 805.385 147.274 804.3 147.274 802.9ZM157.625 812V785.75H164.625V812H157.625ZM178.843 800.1H179.893C179.893 799.307 179.741 798.758 179.438 798.455C179.134 798.152 178.586 798 177.793 798C175.343 798 172.951 798.525 170.618 799.575L169.743 795.025C172.309 793.975 175.109 793.45 178.143 793.45C181.176 793.45 183.334 794.022 184.618 795.165C185.901 796.285 186.543 798.163 186.543 800.8V807.1C186.543 808.78 186.718 810.413 187.068 812H180.768C180.628 811.207 180.511 810.39 180.418 809.55H180.348C179.718 810.39 178.901 811.067 177.898 811.58C176.894 812.093 175.868 812.35 174.818 812.35C173.021 812.35 171.574 811.86 170.478 810.88C169.404 809.877 168.868 808.5 168.868 806.75C168.868 804.743 169.719 803.133 171.423 801.92C173.149 800.707 175.623 800.1 178.843 800.1ZM174.818 806.05C174.818 807.1 175.401 807.625 176.568 807.625C177.571 807.625 178.376 807.345 178.983 806.785C179.589 806.225 179.893 805.455 179.893 804.475V803.95H178.843C177.513 803.95 176.509 804.148 175.833 804.545C175.156 804.918 174.818 805.42 174.818 806.05ZM198.62 806.05H198.69L201.98 793.8H208.98L199.53 819.7H192.53L195.68 812L188.68 793.8H196.03L198.62 806.05ZM216.385 801.15H222.3C222.3 798.933 221.308 797.825 219.325 797.825C217.528 797.825 216.548 798.933 216.385 801.15ZM216.455 805C216.852 806.867 218.182 807.8 220.445 807.8C222.195 807.8 223.863 807.392 225.45 806.575L226.85 810.95C224.703 811.883 222.37 812.35 219.85 812.35C216.84 812.35 214.425 811.498 212.605 809.795C210.785 808.092 209.875 805.793 209.875 802.9C209.875 799.983 210.703 797.685 212.36 796.005C214.04 794.302 216.303 793.45 219.15 793.45C222.067 793.45 224.342 794.278 225.975 795.935C227.608 797.568 228.425 799.89 228.425 802.9C228.425 803.53 228.367 804.23 228.25 805H216.455ZM246.479 793.45V798.7C243.865 798.7 241.894 799.19 240.564 800.17C239.234 801.15 238.569 802.527 238.569 804.3V812H231.779V793.8H238.044L238.079 797.3H238.149C240.155 794.733 242.932 793.45 246.479 793.45ZM275.519 806.295L276.919 810.95C274.912 811.883 272.812 812.35 270.619 812.35C267.399 812.35 264.844 811.498 262.954 809.795C261.064 808.092 260.119 805.793 260.119 802.9C260.119 799.983 261.041 797.685 262.884 796.005C264.751 794.302 267.329 793.45 270.619 793.45C272.882 793.45 274.982 793.917 276.919 794.85L275.519 799.575C274.072 798.688 272.556 798.245 270.969 798.245C269.639 798.245 268.601 798.642 267.854 799.435C267.131 800.228 266.769 801.383 266.769 802.9C266.769 804.37 267.154 805.525 267.924 806.365C268.694 807.205 269.709 807.625 270.969 807.625C272.556 807.625 274.072 807.182 275.519 806.295ZM281.663 812V785.75H288.663V812H281.663ZM302.881 800.1H303.931C303.931 799.307 303.779 798.758 303.476 798.455C303.172 798.152 302.624 798 301.831 798C299.381 798 296.989 798.525 294.656 799.575L293.781 795.025C296.347 793.975 299.147 793.45 302.181 793.45C305.214 793.45 307.372 794.022 308.656 795.165C309.939 796.285 310.581 798.163 310.581 800.8V807.1C310.581 808.78 310.756 810.413 311.106 812H304.806C304.666 811.207 304.549 810.39 304.456 809.55H304.386C303.756 810.39 302.939 811.067 301.936 811.58C300.932 812.093 299.906 812.35 298.856 812.35C297.059 812.35 295.612 811.86 294.516 810.88C293.442 809.877 292.906 808.5 292.906 806.75C292.906 804.743 293.757 803.133 295.461 801.92C297.187 800.707 299.661 800.1 302.881 800.1ZM298.856 806.05C298.856 807.1 299.439 807.625 300.606 807.625C301.609 807.625 302.414 807.345 303.021 806.785C303.627 806.225 303.931 805.455 303.931 804.475V803.95H302.881C301.551 803.95 300.547 804.148 299.871 804.545C299.194 804.918 298.856 805.42 298.856 806.05ZM315.877 790.65V785.75H322.877V790.65H315.877ZM315.877 812V793.8H322.877V812H315.877ZM348.575 812V801.85C348.575 800.45 348.446 799.528 348.19 799.085C347.933 798.642 347.466 798.42 346.79 798.42C346.183 798.42 345.681 798.723 345.285 799.33C344.888 799.913 344.69 800.753 344.69 801.85V812H338.32V801.85C338.32 800.45 338.191 799.528 337.935 799.085C337.701 798.642 337.246 798.42 336.57 798.42C335.963 798.42 335.461 798.723 335.065 799.33C334.668 799.913 334.47 800.753 334.47 801.85V812H327.995V793.8H333.945L334.085 796.25H334.155C334.808 795.387 335.566 794.71 336.43 794.22C337.293 793.707 338.156 793.45 339.02 793.45C340.14 793.45 341.026 793.648 341.68 794.045C342.356 794.418 342.975 795.095 343.535 796.075H343.605C344.608 795.095 345.53 794.418 346.37 794.045C347.21 793.648 348.166 793.45 349.24 793.45C351.246 793.45 352.693 793.998 353.58 795.095C354.49 796.192 354.945 798.093 354.945 800.8V812H348.575ZM359.866 790.65V785.75H366.866V790.65H359.866ZM359.866 812V793.8H366.866V812H359.866ZM378.319 796.25C378.972 795.387 379.777 794.71 380.734 794.22C381.714 793.707 382.705 793.45 383.709 793.45C386.019 793.45 387.675 794.103 388.679 795.41C389.682 796.693 390.184 798.957 390.184 802.2V812H383.604V802.9C383.604 801.15 383.44 799.983 383.114 799.4C382.81 798.817 382.25 798.525 381.434 798.525C380.71 798.525 380.057 798.922 379.474 799.715C378.914 800.508 378.634 801.453 378.634 802.55V812H371.984V793.8H378.109L378.249 796.25H378.319ZM405.781 809.2H405.746C404.392 810.833 402.654 811.65 400.531 811.65C398.454 811.65 396.739 810.845 395.386 809.235C394.032 807.602 393.356 805.373 393.356 802.55C393.356 799.68 394.009 797.452 395.316 795.865C396.622 794.255 398.361 793.45 400.531 793.45C402.607 793.45 404.404 794.383 405.921 796.25H405.991L406.131 793.8H412.256V809.9C412.256 813.237 411.334 815.757 409.491 817.46C407.647 819.187 404.952 820.05 401.406 820.05C399.166 820.05 397.066 819.7 395.106 819L396.156 814.31C397.789 814.987 399.422 815.325 401.056 815.325C402.759 815.325 403.972 814.917 404.696 814.1C405.419 813.307 405.781 811.907 405.781 809.9V809.2ZM399.656 802.55C399.656 803.88 399.924 804.918 400.461 805.665C401.021 806.388 401.744 806.75 402.631 806.75C403.541 806.75 404.264 806.412 404.801 805.735C405.337 805.035 405.606 804.032 405.606 802.725V802.375C405.606 801.092 405.337 800.1 404.801 799.4C404.264 798.7 403.541 798.35 402.631 798.35C401.697 798.35 400.962 798.712 400.426 799.435C399.912 800.135 399.656 801.173 399.656 802.55ZM437.424 812.35C435.114 812.35 433.399 811.825 432.279 810.775C431.159 809.702 430.599 808.01 430.599 805.7V799.05H426.924V794.5H430.599V787.85H437.389V794.5H443.024V799.05H437.389V804.65C437.389 805.77 437.518 806.517 437.774 806.89C438.031 807.263 438.498 807.45 439.174 807.45C440.201 807.45 441.251 807.275 442.324 806.925L443.024 811.65C441.298 812.117 439.431 812.35 437.424 812.35ZM448.372 795.97C450.052 794.29 452.42 793.45 455.477 793.45C458.533 793.45 460.902 794.29 462.582 795.97C464.262 797.65 465.102 799.96 465.102 802.9C465.102 805.84 464.262 808.15 462.582 809.83C460.902 811.51 458.533 812.35 455.477 812.35C452.42 812.35 450.052 811.51 448.372 809.83C446.692 808.15 445.852 805.84 445.852 802.9C445.852 799.96 446.692 797.65 448.372 795.97ZM453.132 806.505C453.645 807.228 454.427 807.59 455.477 807.59C456.527 807.59 457.308 807.228 457.822 806.505C458.335 805.782 458.592 804.58 458.592 802.9C458.592 801.22 458.335 800.018 457.822 799.295C457.308 798.572 456.527 798.21 455.477 798.21C454.427 798.21 453.645 798.572 453.132 799.295C452.618 800.018 452.362 801.22 452.362 802.9C452.362 804.58 452.618 805.782 453.132 806.505ZM497.82 802.2V812H491.24V802.9C491.24 801.15 491.076 799.983 490.75 799.4C490.446 798.817 489.886 798.525 489.07 798.525C488.346 798.525 487.693 798.922 487.11 799.715C486.55 800.508 486.27 801.453 486.27 802.55V812H479.62V785.75H486.27V795.9H486.34C486.923 795.153 487.67 794.558 488.58 794.115C489.49 793.672 490.411 793.45 491.345 793.45C493.655 793.45 495.311 794.103 496.315 795.41C497.318 796.693 497.82 798.957 497.82 802.2ZM511.172 800.1H512.222C512.222 799.307 512.07 798.758 511.767 798.455C511.463 798.152 510.915 798 510.122 798C507.672 798 505.28 798.525 502.947 799.575L502.072 795.025C504.638 793.975 507.438 793.45 510.472 793.45C513.505 793.45 515.663 794.022 516.947 795.165C518.23 796.285 518.872 798.163 518.872 800.8V807.1C518.872 808.78 519.047 810.413 519.397 812H513.097C512.957 811.207 512.84 810.39 512.747 809.55H512.677C512.047 810.39 511.23 811.067 510.227 811.58C509.223 812.093 508.197 812.35 507.147 812.35C505.35 812.35 503.903 811.86 502.807 810.88C501.733 809.877 501.197 808.5 501.197 806.75C501.197 804.743 502.048 803.133 503.752 801.92C505.478 800.707 507.952 800.1 511.172 800.1ZM507.147 806.05C507.147 807.1 507.73 807.625 508.897 807.625C509.9 807.625 510.705 807.345 511.312 806.785C511.918 806.225 512.222 805.455 512.222 804.475V803.95H511.172C509.842 803.95 508.838 804.148 508.162 804.545C507.485 804.918 507.147 805.42 507.147 806.05ZM531.395 808.15H531.465L534.405 793.8H541.335L535.91 812H526.81L521.385 793.8H528.455L531.395 808.15ZM549.124 801.15H555.039C555.039 798.933 554.048 797.825 552.064 797.825C550.268 797.825 549.288 798.933 549.124 801.15ZM549.194 805C549.591 806.867 550.921 807.8 553.184 807.8C554.934 807.8 556.603 807.392 558.189 806.575L559.589 810.95C557.443 811.883 555.109 812.35 552.589 812.35C549.579 812.35 547.164 811.498 545.344 809.795C543.524 808.092 542.614 805.793 542.614 802.9C542.614 799.983 543.443 797.685 545.099 796.005C546.779 794.302 549.043 793.45 551.889 793.45C554.806 793.45 557.081 794.278 558.714 795.935C560.348 797.568 561.164 799.89 561.164 802.9C561.164 803.53 561.106 804.23 560.989 805H549.194ZM584.761 800.1H585.811C585.811 799.307 585.659 798.758 585.356 798.455C585.052 798.152 584.504 798 583.711 798C581.261 798 578.869 798.525 576.536 799.575L575.661 795.025C578.227 793.975 581.027 793.45 584.061 793.45C587.094 793.45 589.252 794.022 590.536 795.165C591.819 796.285 592.461 798.163 592.461 800.8V807.1C592.461 808.78 592.636 810.413 592.986 812H586.686C586.546 811.207 586.429 810.39 586.336 809.55H586.266C585.636 810.39 584.819 811.067 583.816 811.58C582.812 812.093 581.786 812.35 580.736 812.35C578.939 812.35 577.492 811.86 576.396 810.88C575.322 809.877 574.786 808.5 574.786 806.75C574.786 804.743 575.637 803.133 577.341 801.92C579.067 800.707 581.541 800.1 584.761 800.1ZM580.736 806.05C580.736 807.1 581.319 807.625 582.486 807.625C583.489 807.625 584.294 807.345 584.901 806.785C585.507 806.225 585.811 805.455 585.811 804.475V803.95H584.761C583.431 803.95 582.427 804.148 581.751 804.545C581.074 804.918 580.736 805.42 580.736 806.05ZM69.1764 856.295L70.5764 860.95C68.5697 861.883 66.4697 862.35 64.2764 862.35C61.0564 862.35 58.5014 861.498 56.6114 859.795C54.7214 858.092 53.7764 855.793 53.7764 852.9C53.7764 849.983 54.6981 847.685 56.5414 846.005C58.4081 844.302 60.9864 843.45 64.2764 843.45C66.5397 843.45 68.6397 843.917 70.5764 844.85L69.1764 849.575C67.7297 848.688 66.2131 848.245 64.6264 848.245C63.2964 848.245 62.2581 848.642 61.5114 849.435C60.7881 850.228 60.4264 851.383 60.4264 852.9C60.4264 854.37 60.8114 855.525 61.5814 856.365C62.3514 857.205 63.3664 857.625 64.6264 857.625C66.2131 857.625 67.7297 857.182 69.1764 856.295ZM83.7205 850.1H84.7705C84.7705 849.307 84.6189 848.758 84.3155 848.455C84.0122 848.152 83.4639 848 82.6705 848C80.2205 848 77.8289 848.525 75.4955 849.575L74.6205 845.025C77.1872 843.975 79.9872 843.45 83.0205 843.45C86.0539 843.45 88.2122 844.022 89.4955 845.165C90.7789 846.285 91.4205 848.163 91.4205 850.8V857.1C91.4205 858.78 91.5955 860.413 91.9455 862H85.6455C85.5055 861.207 85.3889 860.39 85.2955 859.55H85.2255C84.5955 860.39 83.7789 861.067 82.7755 861.58C81.7722 862.093 80.7455 862.35 79.6955 862.35C77.8989 862.35 76.4522 861.86 75.3555 860.88C74.2822 859.877 73.7455 858.5 73.7455 856.75C73.7455 854.743 74.5972 853.133 76.3005 851.92C78.0272 850.707 80.5005 850.1 83.7205 850.1ZM79.6955 856.05C79.6955 857.1 80.2789 857.625 81.4455 857.625C82.4489 857.625 83.2539 857.345 83.8605 856.785C84.4672 856.225 84.7705 855.455 84.7705 854.475V853.95H83.7205C82.3905 853.95 81.3872 854.148 80.7105 854.545C80.0339 854.918 79.6955 855.42 79.6955 856.05ZM102.142 843.8L102.282 846.25H102.352C103.869 844.383 105.665 843.45 107.742 843.45C109.935 843.45 111.674 844.278 112.957 845.935C114.264 847.568 114.917 849.89 114.917 852.9C114.917 855.84 114.24 858.15 112.887 859.83C111.557 861.51 109.842 862.35 107.742 862.35C105.689 862.35 104.02 861.533 102.737 859.9H102.667V869.7H96.017V843.8H102.142ZM108.617 852.9C108.617 851.453 108.349 850.368 107.812 849.645C107.299 848.898 106.575 848.525 105.642 848.525C104.732 848.525 104.009 848.898 103.472 849.645C102.935 850.368 102.667 851.395 102.667 852.725V853.075C102.667 854.428 102.935 855.467 103.472 856.19C104.009 856.913 104.732 857.275 105.642 857.275C106.505 857.275 107.217 856.902 107.777 856.155C108.337 855.385 108.617 854.3 108.617 852.9ZM118.968 840.65V835.75H125.968V840.65H118.968ZM118.968 862V843.8H125.968V862H118.968ZM140.71 862.35C138.4 862.35 136.685 861.825 135.565 860.775C134.445 859.702 133.885 858.01 133.885 855.7V849.05H130.21V844.5H133.885V837.85H140.675V844.5H146.31V849.05H140.675V854.65C140.675 855.77 140.804 856.517 141.06 856.89C141.317 857.263 141.784 857.45 142.46 857.45C143.487 857.45 144.537 857.275 145.61 856.925L146.31 861.65C144.584 862.117 142.717 862.35 140.71 862.35ZM159.463 850.1H160.513C160.513 849.307 160.361 848.758 160.058 848.455C159.754 848.152 159.206 848 158.413 848C155.963 848 153.571 848.525 151.238 849.575L150.363 845.025C152.929 843.975 155.729 843.45 158.763 843.45C161.796 843.45 163.954 844.022 165.238 845.165C166.521 846.285 167.163 848.163 167.163 850.8V857.1C167.163 858.78 167.338 860.413 167.688 862H161.388C161.248 861.207 161.131 860.39 161.038 859.55H160.968C160.338 860.39 159.521 861.067 158.518 861.58C157.514 862.093 156.488 862.35 155.438 862.35C153.641 862.35 152.194 861.86 151.098 860.88C150.024 859.877 149.488 858.5 149.488 856.75C149.488 854.743 150.339 853.133 152.043 851.92C153.769 850.707 156.243 850.1 159.463 850.1ZM155.438 856.05C155.438 857.1 156.021 857.625 157.188 857.625C158.191 857.625 158.996 857.345 159.603 856.785C160.209 856.225 160.513 855.455 160.513 854.475V853.95H159.463C158.133 853.95 157.129 854.148 156.453 854.545C155.776 854.918 155.438 855.42 155.438 856.05ZM172.459 862V835.75H179.459V862H172.459ZM184.593 840.65V835.75H191.593V840.65H184.593ZM184.593 862V843.8H191.593V862H184.593ZM211.235 849.295C209.112 848.525 207.129 848.14 205.285 848.14C204.282 848.14 203.594 848.233 203.22 848.42C202.847 848.583 202.66 848.852 202.66 849.225C202.66 849.575 202.812 849.843 203.115 850.03C203.419 850.217 203.967 850.357 204.76 850.45C207.63 850.8 209.684 851.477 210.92 852.48C212.18 853.483 212.81 854.848 212.81 856.575C212.81 858.348 212.099 859.76 210.675 860.81C209.275 861.837 207.245 862.35 204.585 862.35C201.435 862.35 198.577 861.767 196.01 860.6L197.235 855.91C199.335 857.03 201.552 857.59 203.885 857.59C205.402 857.59 206.16 857.193 206.16 856.4C206.16 856.097 206.044 855.887 205.81 855.77C205.577 855.653 204.994 855.513 204.06 855.35C201.237 854.907 199.219 854.183 198.005 853.18C196.792 852.153 196.185 850.777 196.185 849.05C196.185 847.3 196.885 845.935 198.285 844.955C199.685 843.952 201.785 843.45 204.585 843.45C207.362 843.45 209.987 843.858 212.46 844.675L211.235 849.295ZM225.476 862.35C223.166 862.35 221.451 861.825 220.331 860.775C219.211 859.702 218.651 858.01 218.651 855.7V849.05H214.976V844.5H218.651V837.85H225.441V844.5H231.076V849.05H225.441V854.65C225.441 855.77 225.569 856.517 225.826 856.89C226.083 857.263 226.549 857.45 227.226 857.45C228.253 857.45 229.303 857.275 230.376 856.925L231.076 861.65C229.349 862.117 227.483 862.35 225.476 862.35ZM235.828 862V854.65H243.528V862H235.828ZM268.522 841.35C268.009 841.35 267.484 841.408 266.947 841.525V846.425H267.997C270.68 846.425 272.022 845.55 272.022 843.8C272.022 842.167 270.855 841.35 268.522 841.35ZM279.022 854.65C279.022 857.287 278.159 859.235 276.432 860.495C274.729 861.732 271.975 862.35 268.172 862.35C265.325 862.35 262.642 862.175 260.122 861.825V836.625C262.525 836.275 265.092 836.1 267.822 836.1C274.822 836.1 278.322 838.317 278.322 842.75C278.322 844.243 277.844 845.515 276.887 846.565C275.93 847.592 274.659 848.233 273.072 848.49V848.56C274.869 848.793 276.304 849.482 277.377 850.625C278.474 851.768 279.022 853.11 279.022 854.65ZM272.547 853.95C272.547 852.2 271.264 851.325 268.697 851.325H266.947V856.925C267.484 857.042 268.009 857.1 268.522 857.1C269.922 857.1 270.937 856.843 271.567 856.33C272.22 855.817 272.547 855.023 272.547 853.95ZM282.894 862V835.75H289.894V862H282.894ZM296.306 845.97C297.986 844.29 300.354 843.45 303.411 843.45C306.468 843.45 308.836 844.29 310.516 845.97C312.196 847.65 313.036 849.96 313.036 852.9C313.036 855.84 312.196 858.15 310.516 859.83C308.836 861.51 306.468 862.35 303.411 862.35C300.354 862.35 297.986 861.51 296.306 859.83C294.626 858.15 293.786 855.84 293.786 852.9C293.786 849.96 294.626 847.65 296.306 845.97ZM301.066 856.505C301.579 857.228 302.361 857.59 303.411 857.59C304.461 857.59 305.243 857.228 305.756 856.505C306.269 855.782 306.526 854.58 306.526 852.9C306.526 851.22 306.269 850.018 305.756 849.295C305.243 848.572 304.461 848.21 303.411 848.21C302.361 848.21 301.579 848.572 301.066 849.295C300.553 850.018 300.296 851.22 300.296 852.9C300.296 854.58 300.553 855.782 301.066 856.505ZM330.754 856.295L332.154 860.95C330.147 861.883 328.047 862.35 325.854 862.35C322.634 862.35 320.079 861.498 318.189 859.795C316.299 858.092 315.354 855.793 315.354 852.9C315.354 849.983 316.275 847.685 318.119 846.005C319.985 844.302 322.564 843.45 325.854 843.45C328.117 843.45 330.217 843.917 332.154 844.85L330.754 849.575C329.307 848.688 327.79 848.245 326.204 848.245C324.874 848.245 323.835 848.642 323.089 849.435C322.365 850.228 322.004 851.383 322.004 852.9C322.004 854.37 322.389 855.525 323.159 856.365C323.929 857.205 324.944 857.625 326.204 857.625C327.79 857.625 329.307 857.182 330.754 856.295ZM343.093 854.65H343.023V862H336.373V835.75H343.023V850.45H343.093L347.923 843.8H355.448L348.448 852.55L355.623 862H348.098L343.093 854.65ZM372.461 849.295C370.338 848.525 368.354 848.14 366.511 848.14C365.508 848.14 364.819 848.233 364.446 848.42C364.073 848.583 363.886 848.852 363.886 849.225C363.886 849.575 364.038 849.843 364.341 850.03C364.644 850.217 365.193 850.357 365.986 850.45C368.856 850.8 370.909 851.477 372.146 852.48C373.406 853.483 374.036 854.848 374.036 856.575C374.036 858.348 373.324 859.76 371.901 860.81C370.501 861.837 368.471 862.35 365.811 862.35C362.661 862.35 359.803 861.767 357.236 860.6L358.461 855.91C360.561 857.03 362.778 857.59 365.111 857.59C366.628 857.59 367.386 857.193 367.386 856.4C367.386 856.097 367.269 855.887 367.036 855.77C366.803 855.653 366.219 855.513 365.286 855.35C362.463 854.907 360.444 854.183 359.231 853.18C358.018 852.153 357.411 850.777 357.411 849.05C357.411 847.3 358.111 845.935 359.511 844.955C360.911 843.952 363.011 843.45 365.811 843.45C368.588 843.45 371.213 843.858 373.686 844.675L372.461 849.295ZM399.928 836.1C401.421 836.1 402.996 836.275 404.653 836.625L403.778 841.525C402.938 841.175 402.063 841 401.153 841C400.336 841 399.776 841.198 399.473 841.595C399.169 841.968 399.018 842.703 399.018 843.8V844.5H404.303V849.05H399.018V862H392.228V849.05H388.203V844.5H392.228V843.8C392.228 841.303 392.893 839.402 394.223 838.095C395.553 836.765 397.454 836.1 399.928 836.1ZM408.792 845.97C410.472 844.29 412.84 843.45 415.897 843.45C418.953 843.45 421.322 844.29 423.002 845.97C424.682 847.65 425.522 849.96 425.522 852.9C425.522 855.84 424.682 858.15 423.002 859.83C421.322 861.51 418.953 862.35 415.897 862.35C412.84 862.35 410.472 861.51 408.792 859.83C407.112 858.15 406.272 855.84 406.272 852.9C406.272 849.96 407.112 847.65 408.792 845.97ZM413.552 856.505C414.065 857.228 414.847 857.59 415.897 857.59C416.947 857.59 417.728 857.228 418.242 856.505C418.755 855.782 419.012 854.58 419.012 852.9C419.012 851.22 418.755 850.018 418.242 849.295C417.728 848.572 416.947 848.21 415.897 848.21C414.847 848.21 414.065 848.572 413.552 849.295C413.038 850.018 412.782 851.22 412.782 852.9C412.782 854.58 413.038 855.782 413.552 856.505ZM443.422 843.45V848.7C440.809 848.7 438.837 849.19 437.507 850.17C436.177 851.15 435.512 852.527 435.512 854.3V862H428.722V843.8H434.987L435.022 847.3H435.092C437.099 844.733 439.875 843.45 443.422 843.45ZM451.746 851.15H457.661C457.661 848.933 456.67 847.825 454.686 847.825C452.89 847.825 451.91 848.933 451.746 851.15ZM451.816 855C452.213 856.867 453.543 857.8 455.806 857.8C457.556 857.8 459.225 857.392 460.811 856.575L462.211 860.95C460.065 861.883 457.731 862.35 455.211 862.35C452.201 862.35 449.786 861.498 447.966 859.795C446.146 858.092 445.236 855.793 445.236 852.9C445.236 849.983 446.065 847.685 447.721 846.005C449.401 844.302 451.665 843.45 454.511 843.45C457.428 843.45 459.703 844.278 461.336 845.935C462.97 847.568 463.786 849.89 463.786 852.9C463.786 853.53 463.728 854.23 463.611 855H451.816ZM467.84 840.65V835.75H474.84V840.65H467.84ZM467.84 862V843.8H474.84V862H467.84ZM491.332 859.2H491.297C489.944 860.833 488.206 861.65 486.082 861.65C484.006 861.65 482.291 860.845 480.937 859.235C479.584 857.602 478.907 855.373 478.907 852.55C478.907 849.68 479.561 847.452 480.867 845.865C482.174 844.255 483.912 843.45 486.082 843.45C488.159 843.45 489.956 844.383 491.472 846.25H491.542L491.682 843.8H497.807V859.9C497.807 863.237 496.886 865.757 495.042 867.46C493.199 869.187 490.504 870.05 486.957 870.05C484.717 870.05 482.617 869.7 480.657 869L481.707 864.31C483.341 864.987 484.974 865.325 486.607 865.325C488.311 865.325 489.524 864.917 490.247 864.1C490.971 863.307 491.332 861.907 491.332 859.9V859.2ZM485.207 852.55C485.207 853.88 485.476 854.918 486.012 855.665C486.572 856.388 487.296 856.75 488.182 856.75C489.092 856.75 489.816 856.412 490.352 855.735C490.889 855.035 491.157 854.032 491.157 852.725V852.375C491.157 851.092 490.889 850.1 490.352 849.4C489.816 848.7 489.092 848.35 488.182 848.35C487.249 848.35 486.514 848.712 485.977 849.435C485.464 850.135 485.207 851.173 485.207 852.55ZM508.543 846.25C509.197 845.387 510.002 844.71 510.958 844.22C511.938 843.707 512.93 843.45 513.933 843.45C516.243 843.45 517.9 844.103 518.903 845.41C519.907 846.693 520.408 848.957 520.408 852.2V862H513.828V852.9C513.828 851.15 513.665 849.983 513.338 849.4C513.035 848.817 512.475 848.525 511.658 848.525C510.935 848.525 510.282 848.922 509.698 849.715C509.138 850.508 508.858 851.453 508.858 852.55V862H502.208V843.8H508.333L508.473 846.25H508.543ZM544.873 850.1H545.923C545.923 849.307 545.771 848.758 545.468 848.455C545.165 848.152 544.616 848 543.823 848C541.373 848 538.981 848.525 536.648 849.575L535.773 845.025C538.34 843.975 541.14 843.45 544.173 843.45C547.206 843.45 549.365 844.022 550.648 845.165C551.931 846.285 552.573 848.163 552.573 850.8V857.1C552.573 858.78 552.748 860.413 553.098 862H546.798C546.658 861.207 546.541 860.39 546.448 859.55H546.378C545.748 860.39 544.931 861.067 543.928 861.58C542.925 862.093 541.898 862.35 540.848 862.35C539.051 862.35 537.605 861.86 536.508 860.88C535.435 859.877 534.898 858.5 534.898 856.75C534.898 854.743 535.75 853.133 537.453 851.92C539.18 850.707 541.653 850.1 544.873 850.1ZM540.848 856.05C540.848 857.1 541.431 857.625 542.598 857.625C543.601 857.625 544.406 857.345 545.013 856.785C545.62 856.225 545.923 855.455 545.923 854.475V853.95H544.873C543.543 853.95 542.54 854.148 541.863 854.545C541.186 854.918 540.848 855.42 540.848 856.05ZM557.869 840.65V835.75H564.869V840.65H557.869ZM557.869 862V843.8H564.869V862H557.869ZM568.937 852.9C568.937 849.89 569.578 847.568 570.862 845.935C572.168 844.278 573.918 843.45 576.112 843.45C578.095 843.45 579.763 844.267 581.117 845.9H581.187V835.75H587.837V862H581.712L581.572 859.55H581.502C580.032 861.417 578.235 862.35 576.112 862.35C574.012 862.35 572.285 861.51 570.932 859.83C569.602 858.15 568.937 855.84 568.937 852.9ZM575.237 852.9C575.237 854.3 575.517 855.385 576.077 856.155C576.637 856.902 577.348 857.275 578.212 857.275C579.122 857.275 579.845 856.913 580.382 856.19C580.918 855.467 581.187 854.428 581.187 853.075V852.725C581.187 851.395 580.918 850.368 580.382 849.645C579.845 848.898 579.122 848.525 578.212 848.525C577.278 848.525 576.543 848.898 576.007 849.645C575.493 850.368 575.237 851.453 575.237 852.9Z" fill="white"/>
<defs>
<filter id="filter0_d_674_8" x="-139.9" y="8.1" width="1272.8" height="1169.8" filterUnits="userSpaceOnUse" color-interpolation-filters="sRGB">
<feFlood flood-opacity="0" result="BackgroundImageFix"/>
<feColorMatrix in="SourceAlpha" type="matrix" values="0 0 0 0 0 0 0 0 0 0 0 0 0 0 0 0 0 0 127 0" result="hardAlpha"/>
<feOffset/>
<feGaussianBlur stdDeviation="34.95"/>
<feComposite in2="hardAlpha" operator="out"/>
<feColorMatrix type="matrix" values="0 0 0 0 0 0 0 0 0 0 0 0 0 0 0 0 0 0 0.15 0"/>
<feBlend mode="normal" in2="BackgroundImageFix" result="effect1_dropShadow_674_8"/>
<feBlend mode="normal" in="SourceGraphic" in2="effect1_dropShadow_674_8" result="shape"/>
</filter>
<linearGradient id="paint0_linear_674_8" x1="620.004" y1="212.613" x2="620.004" y2="1108" gradientUnits="userSpaceOnUse">
<stop stop-color="#CE4C24"/>
<stop offset="1" stop-color="#B92BC5" stop-opacity="0.67"/>
</linearGradient>
</defs>
</svg>
