<svg width="640" height="900" viewBox="0 0 640 900" fill="none" xmlns="http://www.w3.org/2000/svg">
<rect width="640" height="900" fill="#3863FA"/>
<mask id="mask0_612_115" style="mask-type:alpha" maskUnits="userSpaceOnUse" x="0" y="0" width="640" height="900">
<rect x="0.0195312" width="639.02" height="900" fill="white"/>
</mask>
<g mask="url(#mask0_612_115)">
<path d="M-18.7659 126.552C-24.1607 116.865 -29.06 108.908 -34.3053 101.051L22.1876 74.7138C25.2075 81.3376 29.9118 93.845 34.1191 102C46.0002 127.803 125.594 285.479 146.334 325.218C151.728 334.905 158.855 346.717 165.437 357.936L108.203 385.609C102.609 372.609 98.3495 360.348 93.3008 350.561C76.5691 315.664 -2.58 158.235 -18.7659 126.552ZM-99.8051 194.022C-87.8928 189.852 -77.0186 185.98 -66.6885 181.515C-38.9602 169.807 77.4859 116.139 105.905 101.611C116.729 96.2548 131.308 88.3222 140.204 82.771L165.894 134.572C157.096 137.848 141.873 144.842 131.197 149.406C95.5121 166.022 -18.7588 219.439 -40.7527 230.25C-51.8235 236.051 -60.5714 240.811 -72.383 247.948L-99.8051 194.022ZM-69.4367 296.168C-59.8474 293.04 -43.1413 285.995 -31.8722 280.886C3.56582 264.716 122.829 209.116 159.748 190.273C172.45 183.628 185.992 175.994 195.234 170.344L222.061 222.193C211.879 225.866 196.755 233.206 184.201 239.058C143.524 257.857 24.8053 314.05 -7.22141 330.364C-21.9993 337.604 -34.4542 343.803 -41.818 348.165L-69.4367 296.168ZM354.945 45.4464C359.005 54.3935 364.3 63.7346 368.953 72.1369C396.765 116.961 457.735 217.435 476.094 246.247C479.509 251.634 490.198 268.041 495.047 274.514L442.264 304.654C438.006 295.015 431.918 282.905 425.831 273.417C406.976 242.874 345.805 136.465 321.012 98.2647C316.014 89.9619 309.187 81.8098 302.656 74.696L354.945 45.4464ZM537.282 54.5083C531.223 89.5836 512.425 153.412 495.686 187.809L443.127 178.183C454.535 159.175 469.445 124.929 473.143 107.762C454.757 116.787 333.275 181.639 304.807 197.306L277.736 151.145C288.857 146.827 298.594 142.907 310.11 137.353C329.04 128.92 452.946 65.9937 478.597 52.2598C485.121 48.888 492.039 44.2792 496.536 40.366L537.282 54.5083ZM193.239 647.304C204.519 660.545 234.355 700.668 244.203 715.444L198.985 747.157C189.186 731.244 162.961 694.578 148.07 677.88L193.239 647.304ZM330.427 638.619C329.447 653.508 329.403 662.51 329.36 671.511C329.876 707.32 325.45 746.795 311.135 783.118C291.045 834.583 256.067 877.214 219.104 905.058L162.279 872.686C196.281 852.808 239.268 811.997 257.583 767.41C272.195 732.125 274.982 680.386 265.809 636.576L330.427 638.619ZM118.314 689.047C133.552 705.646 160.963 741.222 173.63 759.308L127.87 793.05C116.637 776.05 87.0475 735.482 72.9489 721.552L118.314 689.047ZM624.538 471.753C627.412 481.79 638.094 487.711 648.129 484.83C658.163 481.948 664.089 471.257 661.216 461.22C658.342 451.183 647.66 445.262 637.625 448.144C627.591 451.025 621.665 461.716 624.538 471.753ZM599.971 478.809C593.233 455.274 607.061 430.328 630.59 423.571C654.119 416.814 679.045 430.63 685.783 454.165C692.521 477.699 678.693 502.645 655.164 509.402C631.635 516.16 606.709 502.343 599.971 478.809ZM657.281 494.561C655.655 503.269 656.108 516.622 656.212 524.833C657.222 559.75 658.097 616.431 639.834 665.124C620.682 715.944 582.101 765.603 526.85 802.82L466.808 765.753C531.898 730.205 562.278 688.52 579.902 646.753C594.219 613.052 595.828 575.509 592.399 546.53C570.946 552.691 469.564 581.806 440.153 590.253C423.198 595.122 404.465 601.625 395.666 604.901L378.722 545.719C389.845 544.023 413.177 539.195 424.596 535.916C454.007 527.469 555.735 498.254 577.188 492.093C584.8 489.907 598.196 485.686 608.129 479.837L657.281 494.561Z" fill="#2533B6"/>
<g filter="url(#filter0_d_612_115)">
<path d="M-94.5 920.5H716.5L677 703.5L574 610L452.5 546L495 498.5L472.5 472L443 479.5L472.5 387.5L460.5 269L495 202L472.5 153H430L334.5 130.5L248 153H207.5L189.5 202L211 269L200.5 387.5L238.5 486L189.5 479.5L173.5 511L211 546L122.5 610L-22 694.5L-94.5 920.5Z" fill="url(#paint0_linear_612_115)" shape-rendering="crispEdges"/>
</g>
</g>
<path d="M107.13 719.15C93.5601 719.15 82.6734 715.317 74.4701 707.65C66.3434 699.907 62.2801 689.365 62.2801 676.025C62.2801 662.532 66.1901 651.99 74.0101 644.4C81.9067 636.733 92.9467 632.9 107.13 632.9C117.94 632.9 127.14 635.583 134.73 640.95L128.405 657.625C122.042 653.408 115.717 651.3 109.43 651.3C101.993 651.3 96.2051 653.447 92.0651 657.74C87.9251 661.957 85.8551 668.052 85.8551 676.025C85.8551 683.692 88.0017 689.748 92.2951 694.195C96.6651 698.565 102.377 700.75 109.43 700.75C115.717 700.75 122.042 698.642 128.405 694.425L134.73 711.1C127.14 716.467 117.94 719.15 107.13 719.15ZM173.633 684.65H188.813L181.338 653.6H181.108L173.633 684.65ZM169.493 701.9L165.698 718H141.778L169.378 634.05H193.528L221.128 718H196.748L192.838 701.9H169.493ZM254.631 691.78V718H232.206V634.625C240.103 633.475 248.536 632.9 257.506 632.9C283.573 632.9 296.606 642.292 296.606 661.075C296.606 671.272 293.654 679.015 287.751 684.305C281.924 689.518 273.376 692.125 262.106 692.125C259.116 692.125 256.624 692.01 254.631 691.78ZM254.631 675.105C256.088 675.335 257.813 675.45 259.806 675.45C264.789 675.45 268.623 674.3 271.306 672C273.989 669.7 275.331 666.442 275.331 662.225C275.331 654.175 270.156 650.15 259.806 650.15C258.119 650.15 256.394 650.342 254.631 650.725V675.105ZM372.115 634.05V653.025H349.345V718H325.885V653.025H303.115V634.05H372.115ZM399.478 684.65H414.658L407.183 653.6H406.953L399.478 684.65ZM395.338 701.9L391.543 718H367.623L395.223 634.05H419.373L446.973 718H422.593L418.683 701.9H395.338ZM459.201 718V634.05H484.501V718H459.201ZM549.906 680.05H550.136V634.05H572.561V718H550.136L525.066 672H524.836V718H502.411V634.05H524.836L549.906 680.05Z" fill="white"/>
<path d="M86.0661 776.275C83.7095 775.108 81.3178 774.525 78.8911 774.525C77.7945 774.525 76.9661 774.723 76.4061 775.12C75.8461 775.493 75.5661 775.995 75.5661 776.625C75.5661 777.605 76.3245 778.305 77.8411 778.725C81.5045 779.705 84.0828 780.883 85.5761 782.26C87.0695 783.613 87.8161 785.352 87.8161 787.475C87.8161 790.042 86.9295 792.002 85.1561 793.355C83.3828 794.685 80.7111 795.35 77.1411 795.35C75.6478 795.35 74.0378 795.105 72.3111 794.615C70.6078 794.102 69.2428 793.472 68.2161 792.725L69.7911 787.3C70.9811 788.117 72.2645 788.758 73.6411 789.225C75.0411 789.692 76.3245 789.925 77.4911 789.925C79.5911 789.925 80.6411 789.167 80.6411 787.65C80.6411 786.67 79.7078 785.912 77.8411 785.375C74.4345 784.395 72.0078 783.217 70.5611 781.84C69.1145 780.463 68.3911 778.725 68.3911 776.625C68.3911 774.315 69.2661 772.483 71.0161 771.13C72.7895 769.777 75.2978 769.1 78.5411 769.1C81.9945 769.1 84.9111 769.683 87.2911 770.85L86.0661 776.275ZM100.275 795.35C97.9653 795.35 96.2503 794.825 95.1303 793.775C94.0103 792.702 93.4503 791.01 93.4503 788.7V782.05H89.7753V777.5H93.4503V770.85H100.24V777.5H105.875V782.05H100.24V787.65C100.24 788.77 100.369 789.517 100.625 789.89C100.882 790.263 101.349 790.45 102.025 790.45C103.052 790.45 104.102 790.275 105.175 789.925L105.875 794.65C104.149 795.117 102.282 795.35 100.275 795.35ZM115.213 784.15H121.128C121.128 781.933 120.136 780.825 118.153 780.825C116.356 780.825 115.376 781.933 115.213 784.15ZM115.283 788C115.679 789.867 117.009 790.8 119.273 790.8C121.023 790.8 122.691 790.392 124.278 789.575L125.678 793.95C123.531 794.883 121.198 795.35 118.678 795.35C115.668 795.35 113.253 794.498 111.433 792.795C109.613 791.092 108.703 788.793 108.703 785.9C108.703 782.983 109.531 780.685 111.188 779.005C112.868 777.302 115.131 776.45 117.978 776.45C120.894 776.45 123.169 777.278 124.803 778.935C126.436 780.568 127.253 782.89 127.253 785.9C127.253 786.53 127.194 787.23 127.078 788H115.283ZM139.706 783.1H140.756C140.756 782.307 140.605 781.758 140.301 781.455C139.998 781.152 139.45 781 138.656 781C136.206 781 133.815 781.525 131.481 782.575L130.606 778.025C133.173 776.975 135.973 776.45 139.006 776.45C142.04 776.45 144.198 777.022 145.481 778.165C146.765 779.285 147.406 781.163 147.406 783.8V790.1C147.406 791.78 147.581 793.413 147.931 795H141.631C141.491 794.207 141.375 793.39 141.281 792.55H141.211C140.581 793.39 139.765 794.067 138.761 794.58C137.758 795.093 136.731 795.35 135.681 795.35C133.885 795.35 132.438 794.86 131.341 793.88C130.268 792.877 129.731 791.5 129.731 789.75C129.731 787.743 130.583 786.133 132.286 784.92C134.013 783.707 136.486 783.1 139.706 783.1ZM135.681 789.05C135.681 790.1 136.265 790.625 137.431 790.625C138.435 790.625 139.24 790.345 139.846 789.785C140.453 789.225 140.756 788.455 140.756 787.475V786.95H139.706C138.376 786.95 137.373 787.148 136.696 787.545C136.02 787.918 135.681 788.42 135.681 789.05ZM152.703 795V768.75H159.703V795H152.703ZM176.383 789.4C179.509 787.043 181.854 785.153 183.418 783.73C184.981 782.283 186.008 781.128 186.498 780.265C186.988 779.402 187.233 778.48 187.233 777.5C187.233 775.75 186.241 774.875 184.258 774.875C182.508 774.875 180.233 775.75 177.433 777.5L175.683 771.9C176.873 771.107 178.378 770.442 180.198 769.905C182.018 769.368 183.721 769.1 185.308 769.1C188.224 769.1 190.464 769.788 192.028 771.165C193.614 772.518 194.408 774.397 194.408 776.8C194.408 778.713 193.801 780.533 192.588 782.26C191.374 783.987 189.006 786.343 185.483 789.33V789.4H194.583V795H176.383V789.4ZM224.386 789.295L225.786 793.95C223.779 794.883 221.679 795.35 219.486 795.35C216.266 795.35 213.711 794.498 211.821 792.795C209.931 791.092 208.986 788.793 208.986 785.9C208.986 782.983 209.908 780.685 211.751 779.005C213.618 777.302 216.196 776.45 219.486 776.45C221.749 776.45 223.849 776.917 225.786 777.85L224.386 782.575C222.939 781.688 221.423 781.245 219.836 781.245C218.506 781.245 217.468 781.642 216.721 782.435C215.998 783.228 215.636 784.383 215.636 785.9C215.636 787.37 216.021 788.525 216.791 789.365C217.561 790.205 218.576 790.625 219.836 790.625C221.423 790.625 222.939 790.182 224.386 789.295ZM231.125 778.97C232.805 777.29 235.173 776.45 238.23 776.45C241.287 776.45 243.655 777.29 245.335 778.97C247.015 780.65 247.855 782.96 247.855 785.9C247.855 788.84 247.015 791.15 245.335 792.83C243.655 794.51 241.287 795.35 238.23 795.35C235.173 795.35 232.805 794.51 231.125 792.83C229.445 791.15 228.605 788.84 228.605 785.9C228.605 782.96 229.445 780.65 231.125 778.97ZM235.885 789.505C236.398 790.228 237.18 790.59 238.23 790.59C239.28 790.59 240.062 790.228 240.575 789.505C241.088 788.782 241.345 787.58 241.345 785.9C241.345 784.22 241.088 783.018 240.575 782.295C240.062 781.572 239.28 781.21 238.23 781.21C237.18 781.21 236.398 781.572 235.885 782.295C235.372 783.018 235.115 784.22 235.115 785.9C235.115 787.58 235.372 788.782 235.885 789.505ZM251.756 773.65V768.75H258.756V773.65H251.756ZM251.756 795V776.8H258.756V795H251.756ZM270.208 779.25C270.861 778.387 271.666 777.71 272.623 777.22C273.603 776.707 274.595 776.45 275.598 776.45C277.908 776.45 279.565 777.103 280.568 778.41C281.571 779.693 282.073 781.957 282.073 785.2V795H275.493V785.9C275.493 784.15 275.33 782.983 275.003 782.4C274.7 781.817 274.14 781.525 273.323 781.525C272.6 781.525 271.946 781.922 271.363 782.715C270.803 783.508 270.523 784.453 270.523 785.55V795H263.873V776.8H269.998L270.138 779.25H270.208ZM300.82 782.295C298.697 781.525 296.713 781.14 294.87 781.14C293.867 781.14 293.178 781.233 292.805 781.42C292.432 781.583 292.245 781.852 292.245 782.225C292.245 782.575 292.397 782.843 292.7 783.03C293.003 783.217 293.552 783.357 294.345 783.45C297.215 783.8 299.268 784.477 300.505 785.48C301.765 786.483 302.395 787.848 302.395 789.575C302.395 791.348 301.683 792.76 300.26 793.81C298.86 794.837 296.83 795.35 294.17 795.35C291.02 795.35 288.162 794.767 285.595 793.6L286.82 788.91C288.92 790.03 291.137 790.59 293.47 790.59C294.987 790.59 295.745 790.193 295.745 789.4C295.745 789.097 295.628 788.887 295.395 788.77C295.162 788.653 294.578 788.513 293.645 788.35C290.822 787.907 288.803 787.183 287.59 786.18C286.377 785.153 285.77 783.777 285.77 782.05C285.77 780.3 286.47 778.935 287.87 777.955C289.27 776.952 291.37 776.45 294.17 776.45C296.947 776.45 299.572 776.858 302.045 777.675L300.82 782.295ZM328.287 769.1C329.78 769.1 331.355 769.275 333.012 769.625L332.137 774.525C331.297 774.175 330.422 774 329.512 774C328.695 774 328.135 774.198 327.832 774.595C327.528 774.968 327.377 775.703 327.377 776.8V777.5H332.662V782.05H327.377V795H320.587V782.05H316.562V777.5H320.587V776.8C320.587 774.303 321.252 772.402 322.582 771.095C323.912 769.765 325.813 769.1 328.287 769.1ZM350.897 776.45V781.7C348.284 781.7 346.312 782.19 344.982 783.17C343.652 784.15 342.987 785.527 342.987 787.3V795H336.197V776.8H342.462L342.497 780.3H342.567C344.574 777.733 347.351 776.45 350.897 776.45ZM355.231 778.97C356.911 777.29 359.28 776.45 362.336 776.45C365.393 776.45 367.761 777.29 369.441 778.97C371.121 780.65 371.961 782.96 371.961 785.9C371.961 788.84 371.121 791.15 369.441 792.83C367.761 794.51 365.393 795.35 362.336 795.35C359.28 795.35 356.911 794.51 355.231 792.83C353.551 791.15 352.711 788.84 352.711 785.9C352.711 782.96 353.551 780.65 355.231 778.97ZM359.991 789.505C360.505 790.228 361.286 790.59 362.336 790.59C363.386 790.59 364.168 790.228 364.681 789.505C365.195 788.782 365.451 787.58 365.451 785.9C365.451 784.22 365.195 783.018 364.681 782.295C364.168 781.572 363.386 781.21 362.336 781.21C361.286 781.21 360.505 781.572 359.991 782.295C359.478 783.018 359.221 784.22 359.221 785.9C359.221 787.58 359.478 788.782 359.991 789.505ZM395.742 795V784.85C395.742 783.45 395.614 782.528 395.357 782.085C395.1 781.642 394.634 781.42 393.957 781.42C393.35 781.42 392.849 781.723 392.452 782.33C392.055 782.913 391.857 783.753 391.857 784.85V795H385.487V784.85C385.487 783.45 385.359 782.528 385.102 782.085C384.869 781.642 384.414 781.42 383.737 781.42C383.13 781.42 382.629 781.723 382.232 782.33C381.835 782.913 381.637 783.753 381.637 784.85V795H375.162V776.8H381.112L381.252 779.25H381.322C381.975 778.387 382.734 777.71 383.597 777.22C384.46 776.707 385.324 776.45 386.187 776.45C387.307 776.45 388.194 776.648 388.847 777.045C389.524 777.418 390.142 778.095 390.702 779.075H390.772C391.775 778.095 392.697 777.418 393.537 777.045C394.377 776.648 395.334 776.45 396.407 776.45C398.414 776.45 399.86 776.998 400.747 778.095C401.657 779.192 402.112 781.093 402.112 783.8V795H395.742ZM426.576 783.1H427.626C427.626 782.307 427.475 781.758 427.171 781.455C426.868 781.152 426.32 781 425.526 781C423.076 781 420.685 781.525 418.351 782.575L417.476 778.025C420.043 776.975 422.843 776.45 425.876 776.45C428.91 776.45 431.068 777.022 432.351 778.165C433.635 779.285 434.276 781.163 434.276 783.8V790.1C434.276 791.78 434.451 793.413 434.801 795H428.501C428.361 794.207 428.245 793.39 428.151 792.55H428.081C427.451 793.39 426.635 794.067 425.631 794.58C424.628 795.093 423.601 795.35 422.551 795.35C420.755 795.35 419.308 794.86 418.211 793.88C417.138 792.877 416.601 791.5 416.601 789.75C416.601 787.743 417.453 786.133 419.156 784.92C420.883 783.707 423.356 783.1 426.576 783.1ZM422.551 789.05C422.551 790.1 423.135 790.625 424.301 790.625C425.305 790.625 426.11 790.345 426.716 789.785C427.323 789.225 427.626 788.455 427.626 787.475V786.95H426.576C425.246 786.95 424.243 787.148 423.566 787.545C422.89 787.918 422.551 788.42 422.551 789.05ZM445.208 779.25C445.861 778.387 446.666 777.71 447.623 777.22C448.603 776.707 449.595 776.45 450.598 776.45C452.908 776.45 454.565 777.103 455.568 778.41C456.571 779.693 457.073 781.957 457.073 785.2V795H450.493V785.9C450.493 784.15 450.33 782.983 450.003 782.4C449.7 781.817 449.14 781.525 448.323 781.525C447.6 781.525 446.946 781.922 446.363 782.715C445.803 783.508 445.523 784.453 445.523 785.55V795H438.873V776.8H444.998L445.138 779.25H445.208ZM462.59 778.97C464.27 777.29 466.638 776.45 469.695 776.45C472.752 776.45 475.12 777.29 476.8 778.97C478.48 780.65 479.32 782.96 479.32 785.9C479.32 788.84 478.48 791.15 476.8 792.83C475.12 794.51 472.752 795.35 469.695 795.35C466.638 795.35 464.27 794.51 462.59 792.83C460.91 791.15 460.07 788.84 460.07 785.9C460.07 782.96 460.91 780.65 462.59 778.97ZM467.35 789.505C467.863 790.228 468.645 790.59 469.695 790.59C470.745 790.59 471.527 790.228 472.04 789.505C472.553 788.782 472.81 787.58 472.81 785.9C472.81 784.22 472.553 783.018 472.04 782.295C471.527 781.572 470.745 781.21 469.695 781.21C468.645 781.21 467.863 781.572 467.35 782.295C466.837 783.018 466.58 784.22 466.58 785.9C466.58 787.58 466.837 788.782 467.35 789.505ZM491.804 795.35C489.494 795.35 487.779 794.825 486.659 793.775C485.539 792.702 484.979 791.01 484.979 788.7V782.05H481.304V777.5H484.979V770.85H491.769V777.5H497.404V782.05H491.769V787.65C491.769 788.77 491.897 789.517 492.154 789.89C492.41 790.263 492.877 790.45 493.554 790.45C494.58 790.45 495.63 790.275 496.704 789.925L497.404 794.65C495.677 795.117 493.81 795.35 491.804 795.35ZM520.173 785.2V795H513.593V785.9C513.593 784.15 513.429 782.983 513.103 782.4C512.799 781.817 512.239 781.525 511.423 781.525C510.699 781.525 510.046 781.922 509.463 782.715C508.903 783.508 508.623 784.453 508.623 785.55V795H501.973V768.75H508.623V778.9H508.693C509.276 778.153 510.023 777.558 510.933 777.115C511.843 776.672 512.764 776.45 513.698 776.45C516.008 776.45 517.664 777.103 518.668 778.41C519.671 779.693 520.173 781.957 520.173 785.2ZM529.71 784.15H535.625C535.625 781.933 534.633 780.825 532.65 780.825C530.853 780.825 529.873 781.933 529.71 784.15ZM529.78 788C530.176 789.867 531.506 790.8 533.77 790.8C535.52 790.8 537.188 790.392 538.775 789.575L540.175 793.95C538.028 794.883 535.695 795.35 533.175 795.35C530.165 795.35 527.75 794.498 525.93 792.795C524.11 791.092 523.2 788.793 523.2 785.9C523.2 782.983 524.028 780.685 525.685 779.005C527.365 777.302 529.628 776.45 532.475 776.45C535.391 776.45 537.666 777.278 539.3 778.935C540.933 780.568 541.75 782.89 541.75 785.9C541.75 786.53 541.691 787.23 541.575 788H529.78ZM559.803 776.45V781.7C557.19 781.7 555.218 782.19 553.888 783.17C552.558 784.15 551.893 785.527 551.893 787.3V795H545.103V776.8H551.368L551.403 780.3H551.473C553.48 777.733 556.257 776.45 559.803 776.45ZM120.052 826.8L120.192 829.25H120.262C121.778 827.383 123.575 826.45 125.652 826.45C127.845 826.45 129.583 827.278 130.867 828.935C132.173 830.568 132.827 832.89 132.827 835.9C132.827 838.84 132.15 841.15 130.797 842.83C129.467 844.51 127.752 845.35 125.652 845.35C123.598 845.35 121.93 844.533 120.647 842.9H120.577V852.7H113.927V826.8H120.052ZM126.527 835.9C126.527 834.453 126.258 833.368 125.722 832.645C125.208 831.898 124.485 831.525 123.552 831.525C122.642 831.525 121.918 831.898 121.382 832.645C120.845 833.368 120.577 834.395 120.577 835.725V836.075C120.577 837.428 120.845 838.467 121.382 839.19C121.918 839.913 122.642 840.275 123.552 840.275C124.415 840.275 125.127 839.902 125.687 839.155C126.247 838.385 126.527 837.3 126.527 835.9ZM136.878 845V818.75H143.878V845H136.878ZM158.095 833.1H159.145C159.145 832.307 158.993 831.758 158.69 831.455C158.387 831.152 157.838 831 157.045 831C154.595 831 152.203 831.525 149.87 832.575L148.995 828.025C151.562 826.975 154.362 826.45 157.395 826.45C160.428 826.45 162.587 827.022 163.87 828.165C165.153 829.285 165.795 831.163 165.795 833.8V840.1C165.795 841.78 165.97 843.413 166.32 845H160.02C159.88 844.207 159.763 843.39 159.67 842.55H159.6C158.97 843.39 158.153 844.067 157.15 844.58C156.147 845.093 155.12 845.35 154.07 845.35C152.273 845.35 150.827 844.86 149.73 843.88C148.657 842.877 148.12 841.5 148.12 839.75C148.12 837.743 148.972 836.133 150.675 834.92C152.402 833.707 154.875 833.1 158.095 833.1ZM154.07 839.05C154.07 840.1 154.653 840.625 155.82 840.625C156.823 840.625 157.628 840.345 158.235 839.785C158.842 839.225 159.145 838.455 159.145 837.475V836.95H158.095C156.765 836.95 155.762 837.148 155.085 837.545C154.408 837.918 154.07 838.42 154.07 839.05ZM177.872 839.05H177.942L181.232 826.8H188.232L178.782 852.7H171.782L174.932 845L167.932 826.8H175.282L177.872 839.05ZM195.637 834.15H201.552C201.552 831.933 200.561 830.825 198.577 830.825C196.781 830.825 195.801 831.933 195.637 834.15ZM195.707 838C196.104 839.867 197.434 840.8 199.697 840.8C201.447 840.8 203.116 840.392 204.702 839.575L206.102 843.95C203.956 844.883 201.622 845.35 199.102 845.35C196.092 845.35 193.677 844.498 191.857 842.795C190.037 841.092 189.127 838.793 189.127 835.9C189.127 832.983 189.956 830.685 191.612 829.005C193.292 827.302 195.556 826.45 198.402 826.45C201.319 826.45 203.594 827.278 205.227 828.935C206.861 830.568 207.677 832.89 207.677 835.9C207.677 836.53 207.619 837.23 207.502 838H195.707ZM225.731 826.45V831.7C223.118 831.7 221.146 832.19 219.816 833.17C218.486 834.15 217.821 835.527 217.821 837.3V845H211.031V826.8H217.296L217.331 830.3H217.401C219.408 827.733 222.185 826.45 225.731 826.45ZM226.292 845V837.65H233.992V845H226.292ZM258.985 824.35C258.472 824.35 257.947 824.408 257.41 824.525V829.425H258.46C261.144 829.425 262.485 828.55 262.485 826.8C262.485 825.167 261.319 824.35 258.985 824.35ZM269.485 837.65C269.485 840.287 268.622 842.235 266.895 843.495C265.192 844.732 262.439 845.35 258.635 845.35C255.789 845.35 253.105 845.175 250.585 844.825V819.625C252.989 819.275 255.555 819.1 258.285 819.1C265.285 819.1 268.785 821.317 268.785 825.75C268.785 827.243 268.307 828.515 267.35 829.565C266.394 830.592 265.122 831.233 263.535 831.49V831.56C265.332 831.793 266.767 832.482 267.84 833.625C268.937 834.768 269.485 836.11 269.485 837.65ZM263.01 836.95C263.01 835.2 261.727 834.325 259.16 834.325H257.41V839.925C257.947 840.042 258.472 840.1 258.985 840.1C260.385 840.1 261.4 839.843 262.03 839.33C262.684 838.817 263.01 838.023 263.01 836.95ZM273.357 845V818.75H280.357V845H273.357ZM286.77 828.97C288.45 827.29 290.818 826.45 293.875 826.45C296.931 826.45 299.3 827.29 300.98 828.97C302.66 830.65 303.5 832.96 303.5 835.9C303.5 838.84 302.66 841.15 300.98 842.83C299.3 844.51 296.931 845.35 293.875 845.35C290.818 845.35 288.45 844.51 286.77 842.83C285.09 841.15 284.25 838.84 284.25 835.9C284.25 832.96 285.09 830.65 286.77 828.97ZM291.53 839.505C292.043 840.228 292.825 840.59 293.875 840.59C294.925 840.59 295.706 840.228 296.22 839.505C296.733 838.782 296.99 837.58 296.99 835.9C296.99 834.22 296.733 833.018 296.22 832.295C295.706 831.572 294.925 831.21 293.875 831.21C292.825 831.21 292.043 831.572 291.53 832.295C291.016 833.018 290.76 834.22 290.76 835.9C290.76 837.58 291.016 838.782 291.53 839.505ZM321.217 839.295L322.617 843.95C320.61 844.883 318.51 845.35 316.317 845.35C313.097 845.35 310.542 844.498 308.652 842.795C306.762 841.092 305.817 838.793 305.817 835.9C305.817 832.983 306.739 830.685 308.582 829.005C310.449 827.302 313.027 826.45 316.317 826.45C318.58 826.45 320.68 826.917 322.617 827.85L321.217 832.575C319.77 831.688 318.254 831.245 316.667 831.245C315.337 831.245 314.299 831.642 313.552 832.435C312.829 833.228 312.467 834.383 312.467 835.9C312.467 837.37 312.852 838.525 313.622 839.365C314.392 840.205 315.407 840.625 316.667 840.625C318.254 840.625 319.77 840.182 321.217 839.295ZM333.556 837.65H333.486V845H326.836V818.75H333.486V833.45H333.556L338.386 826.8H345.911L338.911 835.55L346.086 845H338.561L333.556 837.65ZM362.924 832.295C360.801 831.525 358.818 831.14 356.974 831.14C355.971 831.14 355.283 831.233 354.909 831.42C354.536 831.583 354.349 831.852 354.349 832.225C354.349 832.575 354.501 832.843 354.804 833.03C355.108 833.217 355.656 833.357 356.449 833.45C359.319 833.8 361.373 834.477 362.609 835.48C363.869 836.483 364.499 837.848 364.499 839.575C364.499 841.348 363.788 842.76 362.364 843.81C360.964 844.837 358.934 845.35 356.274 845.35C353.124 845.35 350.266 844.767 347.699 843.6L348.924 838.91C351.024 840.03 353.241 840.59 355.574 840.59C357.091 840.59 357.849 840.193 357.849 839.4C357.849 839.097 357.733 838.887 357.499 838.77C357.266 838.653 356.683 838.513 355.749 838.35C352.926 837.907 350.908 837.183 349.694 836.18C348.481 835.153 347.874 833.777 347.874 832.05C347.874 830.3 348.574 828.935 349.974 827.955C351.374 826.952 353.474 826.45 356.274 826.45C359.051 826.45 361.676 826.858 364.149 827.675L362.924 832.295ZM393.891 832.295C391.768 831.525 389.784 831.14 387.941 831.14C386.938 831.14 386.249 831.233 385.876 831.42C385.503 831.583 385.316 831.852 385.316 832.225C385.316 832.575 385.468 832.843 385.771 833.03C386.074 833.217 386.623 833.357 387.416 833.45C390.286 833.8 392.339 834.477 393.576 835.48C394.836 836.483 395.466 837.848 395.466 839.575C395.466 841.348 394.754 842.76 393.331 843.81C391.931 844.837 389.901 845.35 387.241 845.35C384.091 845.35 381.233 844.767 378.666 843.6L379.891 838.91C381.991 840.03 384.208 840.59 386.541 840.59C388.058 840.59 388.816 840.193 388.816 839.4C388.816 839.097 388.699 838.887 388.466 838.77C388.233 838.653 387.649 838.513 386.716 838.35C383.893 837.907 381.874 837.183 380.661 836.18C379.448 835.153 378.841 833.777 378.841 832.05C378.841 830.3 379.541 828.935 380.941 827.955C382.341 826.952 384.441 826.45 387.241 826.45C390.018 826.45 392.643 826.858 395.116 827.675L393.891 832.295ZM408.132 845.35C405.822 845.35 404.107 844.825 402.987 843.775C401.867 842.702 401.307 841.01 401.307 838.7V832.05H397.632V827.5H401.307V820.85H408.097V827.5H413.732V832.05H408.097V837.65C408.097 838.77 408.225 839.517 408.482 839.89C408.738 840.263 409.205 840.45 409.882 840.45C410.908 840.45 411.958 840.275 413.032 839.925L413.732 844.65C412.005 845.117 410.138 845.35 408.132 845.35ZM423.069 834.15H428.984C428.984 831.933 427.992 830.825 426.009 830.825C424.212 830.825 423.232 831.933 423.069 834.15ZM423.139 838C423.536 839.867 424.866 840.8 427.129 840.8C428.879 840.8 430.547 840.392 432.134 839.575L433.534 843.95C431.387 844.883 429.054 845.35 426.534 845.35C423.524 845.35 421.109 844.498 419.289 842.795C417.469 841.092 416.559 838.793 416.559 835.9C416.559 832.983 417.387 830.685 419.044 829.005C420.724 827.302 422.987 826.45 425.834 826.45C428.751 826.45 431.026 827.278 432.659 828.935C434.292 830.568 435.109 832.89 435.109 835.9C435.109 836.53 435.051 837.23 434.934 838H423.139ZM447.563 833.1H448.613C448.613 832.307 448.461 831.758 448.158 831.455C447.854 831.152 447.306 831 446.513 831C444.063 831 441.671 831.525 439.338 832.575L438.463 828.025C441.029 826.975 443.829 826.45 446.863 826.45C449.896 826.45 452.054 827.022 453.338 828.165C454.621 829.285 455.263 831.163 455.263 833.8V840.1C455.263 841.78 455.438 843.413 455.788 845H449.488C449.348 844.207 449.231 843.39 449.138 842.55H449.068C448.438 843.39 447.621 844.067 446.618 844.58C445.614 845.093 444.588 845.35 443.538 845.35C441.741 845.35 440.294 844.86 439.198 843.88C438.124 842.877 437.588 841.5 437.588 839.75C437.588 837.743 438.439 836.133 440.143 834.92C441.869 833.707 444.343 833.1 447.563 833.1ZM443.538 839.05C443.538 840.1 444.121 840.625 445.288 840.625C446.291 840.625 447.096 840.345 447.703 839.785C448.309 839.225 448.613 838.455 448.613 837.475V836.95H447.563C446.233 836.95 445.229 837.148 444.553 837.545C443.876 837.918 443.538 838.42 443.538 839.05ZM460.559 845V818.75H467.559V845H460.559ZM472.693 823.65V818.75H479.693V823.65H472.693ZM472.693 845V826.8H479.693V845H472.693ZM491.145 829.25C491.799 828.387 492.604 827.71 493.56 827.22C494.54 826.707 495.532 826.45 496.535 826.45C498.845 826.45 500.502 827.103 501.505 828.41C502.509 829.693 503.01 831.957 503.01 835.2V845H496.43V835.9C496.43 834.15 496.267 832.983 495.94 832.4C495.637 831.817 495.077 831.525 494.26 831.525C493.537 831.525 492.884 831.922 492.3 832.715C491.74 833.508 491.46 834.453 491.46 835.55V845H484.81V826.8H490.935L491.075 829.25H491.145ZM518.607 842.2H518.572C517.219 843.833 515.481 844.65 513.357 844.65C511.281 844.65 509.566 843.845 508.212 842.235C506.859 840.602 506.182 838.373 506.182 835.55C506.182 832.68 506.836 830.452 508.142 828.865C509.449 827.255 511.187 826.45 513.357 826.45C515.434 826.45 517.231 827.383 518.747 829.25H518.817L518.957 826.8H525.082V842.9C525.082 846.237 524.161 848.757 522.317 850.46C520.474 852.187 517.779 853.05 514.232 853.05C511.992 853.05 509.892 852.7 507.932 852L508.982 847.31C510.616 847.987 512.249 848.325 513.882 848.325C515.586 848.325 516.799 847.917 517.522 847.1C518.246 846.307 518.607 844.907 518.607 842.9V842.2ZM512.482 835.55C512.482 836.88 512.751 837.918 513.287 838.665C513.847 839.388 514.571 839.75 515.457 839.75C516.367 839.75 517.091 839.412 517.627 838.735C518.164 838.035 518.432 837.032 518.432 835.725V835.375C518.432 834.092 518.164 833.1 517.627 832.4C517.091 831.7 516.367 831.35 515.457 831.35C514.524 831.35 513.789 831.712 513.252 832.435C512.739 833.135 512.482 834.173 512.482 835.55Z" fill="white"/>
<defs>
<filter id="filter0_d_612_115" x="-164.4" y="60.6" width="950.8" height="929.8" filterUnits="userSpaceOnUse" color-interpolation-filters="sRGB">
<feFlood flood-opacity="0" result="BackgroundImageFix"/>
<feColorMatrix in="SourceAlpha" type="matrix" values="0 0 0 0 0 0 0 0 0 0 0 0 0 0 0 0 0 0 127 0" result="hardAlpha"/>
<feOffset/>
<feGaussianBlur stdDeviation="34.95"/>
<feComposite in2="hardAlpha" operator="out"/>
<feColorMatrix type="matrix" values="0 0 0 0 0 0 0 0 0 0 0 0 0 0 0 0 0 0 0.15 0"/>
<feBlend mode="normal" in2="BackgroundImageFix" result="effect1_dropShadow_612_115"/>
<feBlend mode="normal" in="SourceGraphic" in2="effect1_dropShadow_612_115" result="shape"/>
</filter>
<linearGradient id="paint0_linear_612_115" x1="121.268" y1="91.5001" x2="121.268" y2="985.501" gradientUnits="userSpaceOnUse">
<stop stop-color="#21D4ED"/>
<stop offset="1" stop-color="#36B2D8" stop-opacity="0.62"/>
</linearGradient>
</defs>
</svg>
