<svg width="640" height="900" viewBox="0 0 640 900" fill="none" xmlns="http://www.w3.org/2000/svg">
<rect x="1.01758" width="638.023" height="900" fill="#EE1C25"/>
<mask id="mask0_731_83" style="mask-type:alpha" maskUnits="userSpaceOnUse" x="1" y="0" width="639" height="900">
<rect x="1.01758" width="638.023" height="900" fill="white"/>
</mask>
<g mask="url(#mask0_731_83)">
<path d="M559.028 -13.1099L570.778 34.0896L390.361 78.9872L378.611 31.7877L559.028 -13.1099ZM586.161 95.8837L597.988 143.394L417.571 188.291L405.744 140.781L586.161 95.8837ZM393.119 -39.7531L464.159 245.617L420.064 256.591L349.024 -28.7799L393.119 -39.7531ZM490.848 -53.8508L557.327 213.199L513.853 224.018L447.374 -43.0321L490.848 -53.8508ZM359.876 139.335L392.592 175.381C380.222 205.17 361.239 250.784 346.856 275.138L309.796 236.216C324.331 215.122 345.331 170.984 359.876 139.335ZM359.733 50.0058L353.083 102.773C320.425 85.5089 284.129 58.9273 259.396 33.7551C266.626 21.7333 276.659 1.09984 281.793 -11.3898C303.5 13.5463 336.304 39.348 359.733 50.0058ZM500.439 364.865L542.955 535.653L508.797 544.153L466.281 373.366L500.439 364.865ZM446.105 370.472L488.234 539.707L454.386 548.131L412.257 378.896L446.105 370.472ZM386.042 361.017L439.998 577.762L403.045 586.958L349.089 370.213L386.042 361.017ZM534.229 414.494L545.283 458.899L395.608 496.146L384.554 451.742L534.229 414.494ZM522.023 357.516L522.679 399.891C492.956 397.065 462.077 386.943 441.134 374.348C445.645 364.651 451.564 344.712 453.748 333.616C471.973 347.217 498.198 355.86 522.023 357.516ZM549.092 298.018L609.001 538.673L570.495 548.255L510.587 307.6L549.092 298.018ZM606.724 255.317L669.415 507.151L631.531 516.578L568.839 264.744L606.724 255.317ZM652.65 353.698L663.936 399.034L622.014 409.466L610.728 364.13L652.65 353.698ZM542.831 272.865L553.576 316.028L501.717 328.933C456.691 340.138 385.353 351.626 334.614 331.936C340.987 323.095 352.109 300.212 354.835 289.971C398.825 306.393 454.02 294.966 491.283 285.693L542.831 272.865ZM579.813 311.477L600.886 349.762C591.563 358.677 578.437 368.209 568.964 372.545L546.264 331.697C555.659 328.37 569.638 319.615 579.813 311.477ZM623.472 425.921L626.211 480.639C607.901 474.644 590.987 468.96 579.349 464.601L580.631 424.711C593.824 426.045 611.131 426.684 623.472 425.921ZM646.454 572.551L709.454 825.627L665.359 836.601L602.359 583.524L646.454 572.551ZM560.806 612.661L615.458 832.201L571.984 843.02L517.332 623.48L560.806 612.661ZM458.83 605.722L528.788 886.745L484.382 897.796L414.424 616.773L458.83 605.722ZM632.836 684.761L645.282 734.755L476.044 776.87L463.598 726.876L632.836 684.761ZM696.913 638.807L732.662 669.812C725.498 692.699 713.125 725.126 702.009 742.732L662.77 709.628C673.806 694.351 688.041 662.779 696.913 638.807ZM113.265 213.236L175.569 463.518L142.964 471.632L80.659 221.35L113.265 213.236ZM77.847 239.197L132.19 457.495L101.758 465.068L47.4152 246.77L77.847 239.197ZM32.8534 217.418L102.502 497.199L68.9647 505.545L-0.683712 225.764L32.8534 217.418ZM-41.8282 235.344L28.516 517.919L-4.08954 526.033L-74.4337 243.458L-41.8282 235.344ZM118.824 319.024L130.419 365.603L56.2029 384.072L44.6077 337.494L118.824 319.024ZM182.8 373.343L186.318 425.888C171.655 419.974 159.32 414.14 150.632 409.707L150.208 368.263C160.373 370.68 173.487 373.022 182.8 373.343ZM-85.2236 245.153C-75.2478 281.253 -59.3144 335.985 -43.689 388.156L-73.5771 395.264C-89.7489 346.197 -106.151 294.879 -117.91 256.915L-85.2236 245.153ZM3.60146 286.693L14.4236 330.166L-95.1931 357.444C-114.135 362.158 -123.525 360.208 -131.817 348.092C-140.109 335.976 -144.672 318.974 -150.392 295.996C-140.375 291.194 -127.715 282.438 -119.326 275.074C-117.32 287.106 -112.991 304.495 -111.598 308.765C-110.439 313.423 -108.81 314.667 -104.773 313.662L3.60146 286.693ZM31.023 339.885L11.8211 371.374C-5.7634 337.827 -22.0139 289.769 -33.0719 249.323C-25.9284 246.226 -15.1332 239.253 -8.9187 233.749C2.60714 272.101 17.9313 315.113 31.023 339.885ZM31.1485 369.532L41.8161 412.384C-18.0414 430.248 -63.8729 470.012 -56.2187 499.435C-54.4408 506.577 -49.6296 507.358 -34.0271 505.124C-39.7032 515.44 -42.8231 530.726 -43.3001 542.057C-80.8675 544.81 -90.6366 534.71 -97.4391 507.384C-111.584 449.239 -53.9417 395.983 31.1485 369.532ZM-13.2685 469.291L-16.5695 510.343C-61.2552 491.125 -98.2312 445.916 -125.114 397.537C-117.114 391.259 -101.809 375.908 -95.1251 366.99C-74.6805 412.026 -45.3851 454.2 -13.2685 469.291ZM25.9738 421.603L57.544 439.797C55.8942 459.664 50.0463 486.511 43.1241 501.094L8.99372 481.887C15.9146 468.624 23.1592 442.089 25.9738 421.603ZM138.296 250.205L160.612 286.861C154.704 296.246 144.993 306.247 137.381 311.439L112.117 273.538C119.961 269.278 130.992 259.278 138.296 250.205ZM122.965 523.764L192.923 804.787L153.485 814.601L83.5278 533.578L122.965 523.764ZM190.166 535.4L234.073 711.777L195.257 721.437L151.35 545.06L190.166 535.4ZM33.288 635.116L66.7595 769.572L33.2223 777.918L-0.249126 643.461L33.288 635.116ZM-14.2229 646.939L19.2485 781.395L-18.3255 790.746L-51.797 656.289L-14.2229 646.939ZM237.913 597.384L249.045 642.099L135.702 670.305L124.57 625.59L237.913 597.384ZM263.93 736.334L253.718 780.095C152.472 741.647 65.7032 662.003 4.1711 569.814C12.4834 562.14 27.7912 544.151 34.7867 533.836C91.0398 627.339 172.302 703.406 263.93 736.334ZM77.5655 597.057L124.487 785.544L-18.6665 821.168L-30.4163 773.969L76.0952 747.463L52.1318 651.201L-55.6218 678.016L-66.8305 632.99L77.5655 597.057Z" fill="#FFFF00"/>
<g filter="url(#filter0_d_731_83)">
<path d="M397.186 359.352L477.964 428.117L525.04 563.119L595.119 592.445L699.97 465.533L537.879 355.813L507.387 372.499L471.01 374.521L426.608 347.723L384.981 302.722L366.891 252.16L401.663 162.664L447.669 141.934H494.745L483.031 157.102L455.17 166.204L426.608 188.957L409.092 238.002L416.057 270.362L429.988 292.61L447.669 306.767L471.01 322.442L494.745 324.97L527.502 283.509L767 442.78L761.49 897.842L613.308 912L-126 897.842L-40.4072 592.445L18.9727 438.735L79.4227 395.252L138.803 353.79L85.5 244L126.194 70.6406L236.567 58L321.222 124L346 238.002L321.222 346.206L397.186 359.352Z" fill="url(#paint0_linear_731_83)" shape-rendering="crispEdges"/>
</g>
</g>
<path d="M79.3638 717.85C69.3338 717.85 61.2871 715.017 55.2238 709.35C49.2171 703.627 46.2138 695.835 46.2138 685.975C46.2138 676.002 49.1038 668.21 54.8838 662.6C60.7205 656.933 68.8805 654.1 79.3638 654.1C87.3538 654.1 94.1538 656.083 99.7638 660.05L95.0888 672.375C90.3855 669.258 85.7105 667.7 81.0638 667.7C75.5671 667.7 71.2888 669.287 68.2288 672.46C65.1688 675.577 63.6388 680.082 63.6388 685.975C63.6388 691.642 65.2255 696.118 68.3988 699.405C71.6288 702.635 75.8505 704.25 81.0638 704.25C85.7105 704.25 90.3855 702.692 95.0888 699.575L99.7638 711.9C94.1538 715.867 87.3538 717.85 79.3638 717.85ZM113.568 662.685C119.348 656.962 127.112 654.1 136.858 654.1C146.605 654.1 154.34 656.962 160.063 662.685C165.843 668.352 168.733 676.115 168.733 685.975C168.733 695.835 165.843 703.627 160.063 709.35C154.34 715.017 146.605 717.85 136.858 717.85C127.112 717.85 119.348 715.017 113.568 709.35C107.845 703.627 104.983 695.835 104.983 685.975C104.983 676.115 107.845 668.352 113.568 662.685ZM122.408 685.975C122.408 697.875 127.225 703.825 136.858 703.825C146.492 703.825 151.308 697.875 151.308 685.975C151.308 674.075 146.492 668.125 136.858 668.125C127.225 668.125 122.408 674.075 122.408 685.975ZM225.57 683H225.4L217.07 704.25H201.77L193.44 683H193.27V717H177.29V654.95H194.97L209.335 691.5H209.505L223.87 654.95H241.89V717H225.57V683ZM302.601 683H302.431L294.101 704.25H278.801L270.471 683H270.301V717H254.321V654.95H272.001L286.366 691.5H286.536L300.901 654.95H318.921V717H302.601V683ZM374.872 711.22C370.509 715.64 364.219 717.85 356.002 717.85C347.786 717.85 341.467 715.64 337.047 711.22C332.684 706.743 330.502 700.17 330.502 691.5V654.95H347.672V692.775C347.672 696.798 348.381 699.717 349.797 701.53C351.214 703.343 353.339 704.25 356.172 704.25C359.006 704.25 361.131 703.343 362.547 701.53C363.964 699.717 364.672 696.798 364.672 692.775V654.95H381.502V691.5C381.502 700.17 379.292 706.743 374.872 711.22ZM428.132 688.95H428.302V654.95H444.877V717H428.302L409.772 683H409.602V717H393.027V654.95H409.602L428.132 688.95ZM458.125 717V654.95H476.825V717H458.125ZM531.288 671.525C525.565 668.692 519.757 667.275 513.863 667.275C511.2 667.275 509.188 667.757 507.828 668.72C506.468 669.627 505.788 670.845 505.788 672.375C505.788 674.755 507.63 676.455 511.313 677.475C520.21 679.855 526.472 682.717 530.098 686.06C533.725 689.347 535.538 693.568 535.538 698.725C535.538 704.958 533.385 709.718 529.078 713.005C524.772 716.235 518.283 717.85 509.613 717.85C505.987 717.85 502.077 717.255 497.883 716.065C493.747 714.818 490.432 713.288 487.938 711.475L491.763 698.3C494.653 700.283 497.77 701.842 501.113 702.975C504.513 704.108 507.63 704.675 510.463 704.675C515.563 704.675 518.113 702.833 518.113 699.15C518.113 696.77 515.847 694.928 511.313 693.625C503.04 691.245 497.147 688.383 493.633 685.04C490.12 681.697 488.363 677.475 488.363 672.375C488.363 666.765 490.488 662.317 494.738 659.03C499.045 655.743 505.137 654.1 513.013 654.1C521.4 654.1 528.483 655.517 534.263 658.35L531.288 671.525ZM593.059 654.95V668.975H576.229V717H558.889V668.975H542.059V654.95H593.059Z" fill="white"/>
<path d="M40.5479 761.96V766.16H33.5479V774H27.9479V753.56H41.1079V758.04H33.5479V761.96H40.5479ZM44.9734 761.176C46.3174 759.832 48.2121 759.16 50.6574 759.16C53.1028 759.16 54.9974 759.832 56.3414 761.176C57.6854 762.52 58.3574 764.368 58.3574 766.72C58.3574 769.072 57.6854 770.92 56.3414 772.264C54.9974 773.608 53.1028 774.28 50.6574 774.28C48.2121 774.28 46.3174 773.608 44.9734 772.264C43.6294 770.92 42.9574 769.072 42.9574 766.72C42.9574 764.368 43.6294 762.52 44.9734 761.176ZM48.7814 769.604C49.1921 770.183 49.8174 770.472 50.6574 770.472C51.4974 770.472 52.1228 770.183 52.5334 769.604C52.9441 769.025 53.1494 768.064 53.1494 766.72C53.1494 765.376 52.9441 764.415 52.5334 763.836C52.1228 763.257 51.4974 762.968 50.6574 762.968C49.8174 762.968 49.1921 763.257 48.7814 763.836C48.3708 764.415 48.1654 765.376 48.1654 766.72C48.1654 768.064 48.3708 769.025 48.7814 769.604ZM72.6779 759.16V763.36C70.5872 763.36 69.0099 763.752 67.9459 764.536C66.8819 765.32 66.3499 766.421 66.3499 767.84V774H60.9179V759.44H65.9299L65.9579 762.24H66.0139C67.6192 760.187 69.8406 759.16 72.6779 759.16ZM86.4493 769.436L87.5693 773.16C85.964 773.907 84.284 774.28 82.5293 774.28C79.9533 774.28 77.9093 773.599 76.3973 772.236C74.8853 770.873 74.1293 769.035 74.1293 766.72C74.1293 764.387 74.8666 762.548 76.3413 761.204C77.8346 759.841 79.8973 759.16 82.5293 759.16C84.34 759.16 86.02 759.533 87.5693 760.28L86.4493 764.06C85.292 763.351 84.0786 762.996 82.8093 762.996C81.7453 762.996 80.9146 763.313 80.3173 763.948C79.7386 764.583 79.4493 765.507 79.4493 766.72C79.4493 767.896 79.7573 768.82 80.3733 769.492C80.9893 770.164 81.8013 770.5 82.8093 770.5C84.0786 770.5 85.292 770.145 86.4493 769.436ZM95.0326 765.32H99.7646C99.7646 763.547 98.9713 762.66 97.3846 762.66C95.9473 762.66 95.1633 763.547 95.0326 765.32ZM95.0886 768.4C95.406 769.893 96.47 770.64 98.2806 770.64C99.6806 770.64 101.015 770.313 102.285 769.66L103.405 773.16C101.687 773.907 99.8206 774.28 97.8046 774.28C95.3966 774.28 93.4646 773.599 92.0086 772.236C90.5526 770.873 89.8246 769.035 89.8246 766.72C89.8246 764.387 90.4873 762.548 91.8126 761.204C93.1566 759.841 94.9673 759.16 97.2446 759.16C99.578 759.16 101.398 759.823 102.705 761.148C104.011 762.455 104.665 764.312 104.665 766.72C104.665 767.224 104.618 767.784 104.525 768.4H95.0886ZM123.962 774.28C122.114 774.28 120.742 773.86 119.846 773.02C118.95 772.161 118.502 770.808 118.502 768.96V763.64H115.562V760H118.502V754.68H123.934V760H128.442V763.64H123.934V768.12C123.934 769.016 124.036 769.613 124.242 769.912C124.447 770.211 124.82 770.36 125.362 770.36C126.183 770.36 127.023 770.22 127.882 769.94L128.442 773.72C127.06 774.093 125.567 774.28 123.962 774.28ZM146.657 766.16V774H141.393V766.72C141.393 765.32 141.262 764.387 141.001 763.92C140.758 763.453 140.31 763.22 139.657 763.22C139.078 763.22 138.556 763.537 138.089 764.172C137.641 764.807 137.417 765.563 137.417 766.44V774H132.097V753H137.417V761.12H137.473C137.94 760.523 138.537 760.047 139.265 759.692C139.993 759.337 140.73 759.16 141.477 759.16C143.325 759.16 144.65 759.683 145.453 760.728C146.256 761.755 146.657 763.565 146.657 766.16ZM154.287 765.32H159.019C159.019 763.547 158.225 762.66 156.639 762.66C155.201 762.66 154.417 763.547 154.287 765.32ZM154.343 768.4C154.66 769.893 155.724 770.64 157.535 770.64C158.935 770.64 160.269 770.313 161.539 769.66L162.659 773.16C160.941 773.907 159.075 774.28 157.059 774.28C154.651 774.28 152.719 773.599 151.263 772.236C149.807 770.873 149.079 769.035 149.079 766.72C149.079 764.387 149.741 762.548 151.067 761.204C152.411 759.841 154.221 759.16 156.499 759.16C158.832 759.16 160.652 759.823 161.959 761.148C163.265 762.455 163.919 764.312 163.919 766.72C163.919 767.224 163.872 767.784 163.779 768.4H154.343ZM180.416 759.44L180.528 761.4H180.584C181.797 759.907 183.234 759.16 184.896 759.16C186.65 759.16 188.041 759.823 189.068 761.148C190.113 762.455 190.636 764.312 190.636 766.72C190.636 769.072 190.094 770.92 189.012 772.264C187.948 773.608 186.576 774.28 184.896 774.28C183.253 774.28 181.918 773.627 180.892 772.32H180.836V780.16H175.516V759.44H180.416ZM185.596 766.72C185.596 765.563 185.381 764.695 184.952 764.116C184.541 763.519 183.962 763.22 183.216 763.22C182.488 763.22 181.909 763.519 181.48 764.116C181.05 764.695 180.836 765.516 180.836 766.58V766.86C180.836 767.943 181.05 768.773 181.48 769.352C181.909 769.931 182.488 770.22 183.216 770.22C183.906 770.22 184.476 769.921 184.924 769.324C185.372 768.708 185.596 767.84 185.596 766.72ZM193.876 774V753H199.476V774H193.876ZM210.85 764.48H211.69C211.69 763.845 211.569 763.407 211.326 763.164C211.084 762.921 210.645 762.8 210.01 762.8C208.05 762.8 206.137 763.22 204.27 764.06L203.57 760.42C205.624 759.58 207.864 759.16 210.29 759.16C212.717 759.16 214.444 759.617 215.47 760.532C216.497 761.428 217.01 762.931 217.01 765.04V770.08C217.01 771.424 217.15 772.731 217.43 774H212.39C212.278 773.365 212.185 772.712 212.11 772.04H212.054C211.55 772.712 210.897 773.253 210.094 773.664C209.292 774.075 208.47 774.28 207.63 774.28C206.193 774.28 205.036 773.888 204.158 773.104C203.3 772.301 202.87 771.2 202.87 769.8C202.87 768.195 203.552 766.907 204.914 765.936C206.296 764.965 208.274 764.48 210.85 764.48ZM207.63 769.24C207.63 770.08 208.097 770.5 209.03 770.5C209.833 770.5 210.477 770.276 210.962 769.828C211.448 769.38 211.69 768.764 211.69 767.98V767.56H210.85C209.786 767.56 208.984 767.719 208.442 768.036C207.901 768.335 207.63 768.736 207.63 769.24ZM226.672 769.24H226.728L229.36 759.44H234.96L227.4 780.16H221.8L224.32 774L218.72 759.44H224.6L226.672 769.24ZM240.884 765.32H245.616C245.616 763.547 244.823 762.66 243.236 762.66C241.799 762.66 241.015 763.547 240.884 765.32ZM240.94 768.4C241.258 769.893 242.322 770.64 244.132 770.64C245.532 770.64 246.867 770.313 248.136 769.66L249.256 773.16C247.539 773.907 245.672 774.28 243.656 774.28C241.248 774.28 239.316 773.599 237.86 772.236C236.404 770.873 235.676 769.035 235.676 766.72C235.676 764.387 236.339 762.548 237.664 761.204C239.008 759.841 240.819 759.16 243.096 759.16C245.43 759.16 247.25 759.823 248.556 761.148C249.863 762.455 250.516 764.312 250.516 766.72C250.516 767.224 250.47 767.784 250.376 768.4H240.94ZM264.959 759.16V763.36C262.868 763.36 261.291 763.752 260.227 764.536C259.163 765.32 258.631 766.421 258.631 767.84V774H253.199V759.44H258.211L258.239 762.24H258.295C259.9 760.187 262.122 759.16 264.959 759.16ZM291.859 769.8H291.915L293.287 759.44H298.411L295.051 774H288.891L287.239 763.92H287.183L285.531 774H279.371L276.011 759.44H281.247L282.619 769.8H282.675L284.327 759.44H290.207L291.859 769.8ZM301.665 756.92V753H307.265V756.92H301.665ZM301.665 774V759.44H307.265V774H301.665ZM319.059 774.28C317.211 774.28 315.839 773.86 314.943 773.02C314.047 772.161 313.599 770.808 313.599 768.96V763.64H310.659V760H313.599V754.68H319.031V760H323.539V763.64H319.031V768.12C319.031 769.016 319.134 769.613 319.339 769.912C319.545 770.211 319.918 770.36 320.459 770.36C321.281 770.36 322.121 770.22 322.979 769.94L323.539 773.72C322.158 774.093 320.665 774.28 319.059 774.28ZM341.755 766.16V774H336.491V766.72C336.491 765.32 336.36 764.387 336.099 763.92C335.856 763.453 335.408 763.22 334.755 763.22C334.176 763.22 333.653 763.537 333.187 764.172C332.739 764.807 332.515 765.563 332.515 766.44V774H327.195V753H332.515V761.12H332.571C333.037 760.523 333.635 760.047 334.363 759.692C335.091 759.337 335.828 759.16 336.575 759.16C338.423 759.16 339.748 759.683 340.551 760.728C341.353 761.755 341.755 763.565 341.755 766.16ZM361.77 774.28C359.922 774.28 358.55 773.86 357.654 773.02C356.758 772.161 356.31 770.808 356.31 768.96V763.64H353.37V760H356.31V754.68H361.742V760H366.25V763.64H361.742V768.12C361.742 769.016 361.845 769.613 362.05 769.912C362.256 770.211 362.629 770.36 363.17 770.36C363.992 770.36 364.832 770.22 365.69 769.94L366.25 773.72C364.869 774.093 363.376 774.28 361.77 774.28ZM384.466 766.16V774H379.202V766.72C379.202 765.32 379.071 764.387 378.81 763.92C378.567 763.453 378.119 763.22 377.466 763.22C376.887 763.22 376.364 763.537 375.898 764.172C375.45 764.807 375.226 765.563 375.226 766.44V774H369.906V753H375.226V761.12H375.282C375.748 760.523 376.346 760.047 377.074 759.692C377.802 759.337 378.539 759.16 379.286 759.16C381.134 759.16 382.459 759.683 383.262 760.728C384.064 761.755 384.466 763.565 384.466 766.16ZM392.095 765.32H396.827C396.827 763.547 396.034 762.66 394.447 762.66C393.01 762.66 392.226 763.547 392.095 765.32ZM392.151 768.4C392.468 769.893 393.532 770.64 395.343 770.64C396.743 770.64 398.078 770.313 399.347 769.66L400.467 773.16C398.75 773.907 396.883 774.28 394.867 774.28C392.459 774.28 390.527 773.599 389.071 772.236C387.615 770.873 386.887 769.035 386.887 766.72C386.887 764.387 387.55 762.548 388.875 761.204C390.219 759.841 392.03 759.16 394.307 759.16C396.64 759.16 398.46 759.823 399.767 761.148C401.074 762.455 401.727 764.312 401.727 766.72C401.727 767.224 401.68 767.784 401.587 768.4H392.151ZM429.788 774V765.88C429.788 764.76 429.685 764.023 429.48 763.668C429.275 763.313 428.901 763.136 428.36 763.136C427.875 763.136 427.473 763.379 427.156 763.864C426.839 764.331 426.68 765.003 426.68 765.88V774H421.584V765.88C421.584 764.76 421.481 764.023 421.276 763.668C421.089 763.313 420.725 763.136 420.184 763.136C419.699 763.136 419.297 763.379 418.98 763.864C418.663 764.331 418.504 765.003 418.504 765.88V774H413.324V759.44H418.084L418.196 761.4H418.252C418.775 760.709 419.381 760.168 420.072 759.776C420.763 759.365 421.453 759.16 422.144 759.16C423.04 759.16 423.749 759.319 424.272 759.636C424.813 759.935 425.308 760.476 425.756 761.26H425.812C426.615 760.476 427.352 759.935 428.024 759.636C428.696 759.319 429.461 759.16 430.32 759.16C431.925 759.16 433.083 759.599 433.792 760.476C434.52 761.353 434.884 762.875 434.884 765.04V774H429.788ZM439.298 761.176C440.642 759.832 442.536 759.16 444.982 759.16C447.427 759.16 449.322 759.832 450.666 761.176C452.01 762.52 452.682 764.368 452.682 766.72C452.682 769.072 452.01 770.92 450.666 772.264C449.322 773.608 447.427 774.28 444.982 774.28C442.536 774.28 440.642 773.608 439.298 772.264C437.954 770.92 437.282 769.072 437.282 766.72C437.282 764.368 437.954 762.52 439.298 761.176ZM443.106 769.604C443.516 770.183 444.142 770.472 444.982 770.472C445.822 770.472 446.447 770.183 446.858 769.604C447.268 769.025 447.474 768.064 447.474 766.72C447.474 765.376 447.268 764.415 446.858 763.836C446.447 763.257 445.822 762.968 444.982 762.968C444.142 762.968 443.516 763.257 443.106 763.836C442.695 764.415 442.49 765.376 442.49 766.72C442.49 768.064 442.695 769.025 443.106 769.604ZM466.862 763.836C465.163 763.22 463.577 762.912 462.102 762.912C461.299 762.912 460.749 762.987 460.45 763.136C460.151 763.267 460.002 763.481 460.002 763.78C460.002 764.06 460.123 764.275 460.366 764.424C460.609 764.573 461.047 764.685 461.682 764.76C463.978 765.04 465.621 765.581 466.61 766.384C467.618 767.187 468.122 768.279 468.122 769.66C468.122 771.079 467.553 772.208 466.414 773.048C465.294 773.869 463.67 774.28 461.542 774.28C459.022 774.28 456.735 773.813 454.682 772.88L455.662 769.128C457.342 770.024 459.115 770.472 460.982 770.472C462.195 770.472 462.802 770.155 462.802 769.52C462.802 769.277 462.709 769.109 462.522 769.016C462.335 768.923 461.869 768.811 461.122 768.68C458.863 768.325 457.249 767.747 456.278 766.944C455.307 766.123 454.822 765.021 454.822 763.64C454.822 762.24 455.382 761.148 456.502 760.364C457.622 759.561 459.302 759.16 461.542 759.16C463.763 759.16 465.863 759.487 467.842 760.14L466.862 763.836ZM478.255 774.28C476.407 774.28 475.035 773.86 474.139 773.02C473.243 772.161 472.795 770.808 472.795 768.96V763.64H469.855V760H472.795V754.68H478.227V760H482.735V763.64H478.227V768.12C478.227 769.016 478.329 769.613 478.535 769.912C478.74 770.211 479.113 770.36 479.655 770.36C480.476 770.36 481.316 770.22 482.175 769.94L482.735 773.72C481.353 774.093 479.86 774.28 478.255 774.28ZM502.444 764.48H503.284C503.284 763.845 503.163 763.407 502.92 763.164C502.677 762.921 502.239 762.8 501.604 762.8C499.644 762.8 497.731 763.22 495.864 764.06L495.164 760.42C497.217 759.58 499.457 759.16 501.884 759.16C504.311 759.16 506.037 759.617 507.064 760.532C508.091 761.428 508.604 762.931 508.604 765.04V770.08C508.604 771.424 508.744 772.731 509.024 774H503.984C503.872 773.365 503.779 772.712 503.704 772.04H503.648C503.144 772.712 502.491 773.253 501.688 773.664C500.885 774.075 500.064 774.28 499.224 774.28C497.787 774.28 496.629 773.888 495.752 773.104C494.893 772.301 494.464 771.2 494.464 769.8C494.464 768.195 495.145 766.907 496.508 765.936C497.889 764.965 499.868 764.48 502.444 764.48ZM499.224 769.24C499.224 770.08 499.691 770.5 500.624 770.5C501.427 770.5 502.071 770.276 502.556 769.828C503.041 769.38 503.284 768.764 503.284 767.98V767.56H502.444C501.38 767.56 500.577 767.719 500.036 768.036C499.495 768.335 499.224 768.736 499.224 769.24ZM528.745 774V765.88C528.745 764.76 528.643 764.023 528.437 763.668C528.232 763.313 527.859 763.136 527.317 763.136C526.832 763.136 526.431 763.379 526.113 763.864C525.796 764.331 525.637 765.003 525.637 765.88V774H520.541V765.88C520.541 764.76 520.439 764.023 520.233 763.668C520.047 763.313 519.683 763.136 519.141 763.136C518.656 763.136 518.255 763.379 517.937 763.864C517.62 764.331 517.461 765.003 517.461 765.88V774H512.281V759.44H517.041L517.153 761.4H517.209C517.732 760.709 518.339 760.168 519.029 759.776C519.72 759.365 520.411 759.16 521.101 759.16C521.997 759.16 522.707 759.319 523.229 759.636C523.771 759.935 524.265 760.476 524.713 761.26H524.769C525.572 760.476 526.309 759.935 526.981 759.636C527.653 759.319 528.419 759.16 529.277 759.16C530.883 759.16 532.04 759.599 532.749 760.476C533.477 761.353 533.841 762.875 533.841 765.04V774H528.745ZM538.255 761.176C539.599 759.832 541.493 759.16 543.939 759.16C546.384 759.16 548.279 759.832 549.623 761.176C550.967 762.52 551.639 764.368 551.639 766.72C551.639 769.072 550.967 770.92 549.623 772.264C548.279 773.608 546.384 774.28 543.939 774.28C541.493 774.28 539.599 773.608 538.255 772.264C536.911 770.92 536.239 769.072 536.239 766.72C536.239 764.368 536.911 762.52 538.255 761.176ZM542.063 769.604C542.473 770.183 543.099 770.472 543.939 770.472C544.779 770.472 545.404 770.183 545.815 769.604C546.225 769.025 546.431 768.064 546.431 766.72C546.431 765.376 546.225 764.415 545.815 763.836C545.404 763.257 544.779 762.968 543.939 762.968C543.099 762.968 542.473 763.257 542.063 763.836C541.652 764.415 541.447 765.376 541.447 766.72C541.447 768.064 541.652 769.025 542.063 769.604ZM563.271 772.04C562.749 772.731 562.095 773.281 561.311 773.692C560.546 774.084 559.762 774.28 558.959 774.28C557.205 774.28 555.945 773.823 555.179 772.908C554.433 771.993 554.059 770.397 554.059 768.12V759.44H559.323V767.56C559.323 768.643 559.426 769.361 559.631 769.716C559.837 770.052 560.219 770.22 560.779 770.22C561.358 770.22 561.871 769.903 562.319 769.268C562.786 768.633 563.019 767.877 563.019 767V759.44H568.339V774H563.439L563.327 772.04H563.271ZM576.931 761.4C577.454 760.709 578.098 760.168 578.863 759.776C579.647 759.365 580.441 759.16 581.243 759.16C583.091 759.16 584.417 759.683 585.219 760.728C586.022 761.755 586.423 763.565 586.423 766.16V774H581.159V766.72C581.159 765.32 581.029 764.387 580.767 763.92C580.525 763.453 580.077 763.22 579.423 763.22C578.845 763.22 578.322 763.537 577.855 764.172C577.407 764.807 577.183 765.563 577.183 766.44V774H571.863V759.44H576.763L576.875 761.4H576.931ZM596.954 774.28C595.106 774.28 593.734 773.86 592.838 773.02C591.942 772.161 591.494 770.808 591.494 768.96V763.64H588.554V760H591.494V754.68H596.926V760H601.434V763.64H596.926V768.12C596.926 769.016 597.029 769.613 597.234 769.912C597.439 770.211 597.813 770.36 598.354 770.36C599.175 770.36 600.015 770.22 600.874 769.94L601.434 773.72C600.053 774.093 598.559 774.28 596.954 774.28ZM44.8641 801.176C46.2081 799.832 48.1027 799.16 50.5481 799.16C52.9934 799.16 54.8881 799.832 56.2321 801.176C57.5761 802.52 58.2481 804.368 58.2481 806.72C58.2481 809.072 57.5761 810.92 56.2321 812.264C54.8881 813.608 52.9934 814.28 50.5481 814.28C48.1027 814.28 46.2081 813.608 44.8641 812.264C43.5201 810.92 42.8481 809.072 42.8481 806.72C42.8481 804.368 43.5201 802.52 44.8641 801.176ZM48.6721 809.604C49.0827 810.183 49.7081 810.472 50.5481 810.472C51.3881 810.472 52.0134 810.183 52.4241 809.604C52.8347 809.025 53.0401 808.064 53.0401 806.72C53.0401 805.376 52.8347 804.415 52.4241 803.836C52.0134 803.257 51.3881 802.968 50.5481 802.968C49.7081 802.968 49.0827 803.257 48.6721 803.836C48.2614 804.415 48.0561 805.376 48.0561 806.72C48.0561 808.064 48.2614 809.025 48.6721 809.604ZM69.3551 793.28C70.5498 793.28 71.8098 793.42 73.1351 793.7L72.4351 797.62C71.7631 797.34 71.0631 797.2 70.3351 797.2C69.6818 797.2 69.2338 797.359 68.9911 797.676C68.7484 797.975 68.6271 798.563 68.6271 799.44V800H72.8551V803.64H68.6271V814H63.1951V803.64H59.9751V800H63.1951V799.44C63.1951 797.443 63.7271 795.921 64.7911 794.876C65.8551 793.812 67.3764 793.28 69.3551 793.28ZM96.7852 809.436L97.9052 813.16C96.2999 813.907 94.6199 814.28 92.8652 814.28C90.2892 814.28 88.2452 813.599 86.7332 812.236C85.2212 810.873 84.4652 809.035 84.4652 806.72C84.4652 804.387 85.2026 802.548 86.6772 801.204C88.1706 799.841 90.2332 799.16 92.8652 799.16C94.6759 799.16 96.3559 799.533 97.9052 800.28L96.7852 804.06C95.6279 803.351 94.4146 802.996 93.1452 802.996C92.0812 802.996 91.2506 803.313 90.6532 803.948C90.0746 804.583 89.7852 805.507 89.7852 806.72C89.7852 807.896 90.0932 808.82 90.7092 809.492C91.3252 810.164 92.1372 810.5 93.1452 810.5C94.4146 810.5 95.6279 810.145 96.7852 809.436ZM102.177 801.176C103.521 799.832 105.415 799.16 107.861 799.16C110.306 799.16 112.201 799.832 113.545 801.176C114.889 802.52 115.561 804.368 115.561 806.72C115.561 809.072 114.889 810.92 113.545 812.264C112.201 813.608 110.306 814.28 107.861 814.28C105.415 814.28 103.521 813.608 102.177 812.264C100.833 810.92 100.161 809.072 100.161 806.72C100.161 804.368 100.833 802.52 102.177 801.176ZM105.985 809.604C106.395 810.183 107.021 810.472 107.861 810.472C108.701 810.472 109.326 810.183 109.737 809.604C110.147 809.025 110.353 808.064 110.353 806.72C110.353 805.376 110.147 804.415 109.737 803.836C109.326 803.257 108.701 802.968 107.861 802.968C107.021 802.968 106.395 803.257 105.985 803.836C105.574 804.415 105.369 805.376 105.369 806.72C105.369 808.064 105.574 809.025 105.985 809.604ZM118.681 796.92V793H124.281V796.92H118.681ZM118.681 814V799.44H124.281V814H118.681ZM133.443 801.4C133.966 800.709 134.61 800.168 135.375 799.776C136.159 799.365 136.952 799.16 137.755 799.16C139.603 799.16 140.928 799.683 141.731 800.728C142.534 801.755 142.935 803.565 142.935 806.16V814H137.671V806.72C137.671 805.32 137.54 804.387 137.279 803.92C137.036 803.453 136.588 803.22 135.935 803.22C135.356 803.22 134.834 803.537 134.367 804.172C133.919 804.807 133.695 805.563 133.695 806.44V814H128.375V799.44H133.275L133.387 801.4H133.443ZM157.932 803.836C156.234 803.22 154.647 802.912 153.172 802.912C152.37 802.912 151.819 802.987 151.52 803.136C151.222 803.267 151.072 803.481 151.072 803.78C151.072 804.06 151.194 804.275 151.436 804.424C151.679 804.573 152.118 804.685 152.752 804.76C155.048 805.04 156.691 805.581 157.68 806.384C158.688 807.187 159.192 808.279 159.192 809.66C159.192 811.079 158.623 812.208 157.484 813.048C156.364 813.869 154.74 814.28 152.612 814.28C150.092 814.28 147.806 813.813 145.752 812.88L146.732 809.128C148.412 810.024 150.186 810.472 152.052 810.472C153.266 810.472 153.872 810.155 153.872 809.52C153.872 809.277 153.779 809.109 153.592 809.016C153.406 808.923 152.939 808.811 152.192 808.68C149.934 808.325 148.319 807.747 147.348 806.944C146.378 806.123 145.892 805.021 145.892 803.64C145.892 802.24 146.452 801.148 147.572 800.364C148.692 799.561 150.372 799.16 152.612 799.16C154.834 799.16 156.934 799.487 158.912 800.14L157.932 803.836ZM178.786 814.28C176.938 814.28 175.566 813.86 174.67 813.02C173.774 812.161 173.326 810.808 173.326 808.96V803.64H170.386V800H173.326V794.68H178.758V800H183.266V803.64H178.758V808.12C178.758 809.016 178.861 809.613 179.066 809.912C179.271 810.211 179.645 810.36 180.186 810.36C181.007 810.36 181.847 810.22 182.706 809.94L183.266 813.72C181.885 814.093 180.391 814.28 178.786 814.28ZM187.544 801.176C188.888 799.832 190.782 799.16 193.228 799.16C195.673 799.16 197.568 799.832 198.912 801.176C200.256 802.52 200.928 804.368 200.928 806.72C200.928 809.072 200.256 810.92 198.912 812.264C197.568 813.608 195.673 814.28 193.228 814.28C190.782 814.28 188.888 813.608 187.544 812.264C186.2 810.92 185.528 809.072 185.528 806.72C185.528 804.368 186.2 802.52 187.544 801.176ZM191.352 809.604C191.762 810.183 192.388 810.472 193.228 810.472C194.068 810.472 194.693 810.183 195.104 809.604C195.514 809.025 195.72 808.064 195.72 806.72C195.72 805.376 195.514 804.415 195.104 803.836C194.693 803.257 194.068 802.968 193.228 802.968C192.388 802.968 191.762 803.257 191.352 803.836C190.941 804.415 190.736 805.376 190.736 806.72C190.736 808.064 190.941 809.025 191.352 809.604ZM221.502 811.76H221.474C220.392 813.067 219.001 813.72 217.302 813.72C215.641 813.72 214.269 813.076 213.186 811.788C212.104 810.481 211.562 808.699 211.562 806.44C211.562 804.144 212.085 802.361 213.13 801.092C214.176 799.804 215.566 799.16 217.302 799.16C218.964 799.16 220.401 799.907 221.614 801.4H221.67L221.782 799.44H226.682V812.32C226.682 814.989 225.945 817.005 224.47 818.368C222.996 819.749 220.84 820.44 218.002 820.44C216.21 820.44 214.53 820.16 212.962 819.6L213.802 815.848C215.109 816.389 216.416 816.66 217.722 816.66C219.085 816.66 220.056 816.333 220.634 815.68C221.213 815.045 221.502 813.925 221.502 812.32V811.76ZM216.602 806.44C216.602 807.504 216.817 808.335 217.246 808.932C217.694 809.511 218.273 809.8 218.982 809.8C219.71 809.8 220.289 809.529 220.718 808.988C221.148 808.428 221.362 807.625 221.362 806.58V806.3C221.362 805.273 221.148 804.48 220.718 803.92C220.289 803.36 219.71 803.08 218.982 803.08C218.236 803.08 217.648 803.369 217.218 803.948C216.808 804.508 216.602 805.339 216.602 806.44ZM230.763 796.92V793H236.363V796.92H230.763ZM230.763 814V799.44H236.363V814H230.763ZM247.345 810.92H247.401L249.753 799.44H255.297L250.957 814H243.677L239.337 799.44H244.993L247.345 810.92ZM261.529 805.32H266.261C266.261 803.547 265.467 802.66 263.881 802.66C262.443 802.66 261.659 803.547 261.529 805.32ZM261.585 808.4C261.902 809.893 262.966 810.64 264.777 810.64C266.177 810.64 267.511 810.313 268.781 809.66L269.901 813.16C268.183 813.907 266.317 814.28 264.301 814.28C261.893 814.28 259.961 813.599 258.505 812.236C257.049 810.873 256.321 809.035 256.321 806.72C256.321 804.387 256.983 802.548 258.309 801.204C259.653 799.841 261.463 799.16 263.741 799.16C266.074 799.16 267.894 799.823 269.201 801.148C270.507 802.455 271.161 804.312 271.161 806.72C271.161 807.224 271.114 807.784 271.021 808.4H261.585ZM283.094 809.52C285.595 807.635 287.471 806.123 288.722 804.984C289.972 803.827 290.794 802.903 291.186 802.212C291.578 801.521 291.774 800.784 291.774 800C291.774 798.6 290.98 797.9 289.394 797.9C287.994 797.9 286.174 798.6 283.934 800L282.534 795.52C283.486 794.885 284.69 794.353 286.146 793.924C287.602 793.495 288.964 793.28 290.234 793.28C292.567 793.28 294.359 793.831 295.61 794.932C296.879 796.015 297.514 797.517 297.514 799.44C297.514 800.971 297.028 802.427 296.058 803.808C295.087 805.189 293.192 807.075 290.374 809.464V809.52H297.654V814H283.094V809.52ZM321.496 809.436L322.616 813.16C321.011 813.907 319.331 814.28 317.576 814.28C315 814.28 312.956 813.599 311.444 812.236C309.932 810.873 309.176 809.035 309.176 806.72C309.176 804.387 309.914 802.548 311.388 801.204C312.882 799.841 314.944 799.16 317.576 799.16C319.387 799.16 321.067 799.533 322.616 800.28L321.496 804.06C320.339 803.351 319.126 802.996 317.856 802.996C316.792 802.996 315.962 803.313 315.364 803.948C314.786 804.583 314.496 805.507 314.496 806.72C314.496 807.896 314.804 808.82 315.42 809.492C316.036 810.164 316.848 810.5 317.856 810.5C319.126 810.5 320.339 810.145 321.496 809.436ZM326.887 801.176C328.231 799.832 330.126 799.16 332.571 799.16C335.017 799.16 336.911 799.832 338.255 801.176C339.599 802.52 340.271 804.368 340.271 806.72C340.271 809.072 339.599 810.92 338.255 812.264C336.911 813.608 335.017 814.28 332.571 814.28C330.126 814.28 328.231 813.608 326.887 812.264C325.543 810.92 324.871 809.072 324.871 806.72C324.871 804.368 325.543 802.52 326.887 801.176ZM330.695 809.604C331.106 810.183 331.731 810.472 332.571 810.472C333.411 810.472 334.037 810.183 334.447 809.604C334.858 809.025 335.063 808.064 335.063 806.72C335.063 805.376 334.858 804.415 334.447 803.836C334.037 803.257 333.411 802.968 332.571 802.968C331.731 802.968 331.106 803.257 330.695 803.836C330.285 804.415 330.079 805.376 330.079 806.72C330.079 808.064 330.285 809.025 330.695 809.604ZM343.392 796.92V793H348.992V796.92H343.392ZM343.392 814V799.44H348.992V814H343.392ZM358.154 801.4C358.677 800.709 359.321 800.168 360.086 799.776C360.87 799.365 361.663 799.16 362.466 799.16C364.314 799.16 365.639 799.683 366.442 800.728C367.245 801.755 367.646 803.565 367.646 806.16V814H362.382V806.72C362.382 805.32 362.251 804.387 361.99 803.92C361.747 803.453 361.299 803.22 360.646 803.22C360.067 803.22 359.545 803.537 359.078 804.172C358.63 804.807 358.406 805.563 358.406 806.44V814H353.086V799.44H357.986L358.098 801.4H358.154ZM382.643 803.836C380.945 803.22 379.358 802.912 377.883 802.912C377.081 802.912 376.53 802.987 376.231 803.136C375.933 803.267 375.783 803.481 375.783 803.78C375.783 804.06 375.905 804.275 376.147 804.424C376.39 804.573 376.829 804.685 377.463 804.76C379.759 805.04 381.402 805.581 382.391 806.384C383.399 807.187 383.903 808.279 383.903 809.66C383.903 811.079 383.334 812.208 382.195 813.048C381.075 813.869 379.451 814.28 377.323 814.28C374.803 814.28 372.517 813.813 370.463 812.88L371.443 809.128C373.123 810.024 374.897 810.472 376.763 810.472C377.977 810.472 378.583 810.155 378.583 809.52C378.583 809.277 378.49 809.109 378.303 809.016C378.117 808.923 377.65 808.811 376.903 808.68C374.645 808.325 373.03 807.747 372.059 806.944C371.089 806.123 370.603 805.021 370.603 803.64C370.603 802.24 371.163 801.148 372.283 800.364C373.403 799.561 375.083 799.16 377.323 799.16C379.545 799.16 381.645 799.487 383.623 800.14L382.643 803.836ZM403.497 814.28C401.649 814.28 400.277 813.86 399.381 813.02C398.485 812.161 398.037 810.808 398.037 808.96V803.64H395.097V800H398.037V794.68H403.469V800H407.977V803.64H403.469V808.12C403.469 809.016 403.571 809.613 403.777 809.912C403.982 810.211 404.355 810.36 404.897 810.36C405.718 810.36 406.558 810.22 407.417 809.94L407.977 813.72C406.595 814.093 405.102 814.28 403.497 814.28ZM412.255 801.176C413.599 799.832 415.493 799.16 417.939 799.16C420.384 799.16 422.279 799.832 423.623 801.176C424.967 802.52 425.639 804.368 425.639 806.72C425.639 809.072 424.967 810.92 423.623 812.264C422.279 813.608 420.384 814.28 417.939 814.28C415.493 814.28 413.599 813.608 412.255 812.264C410.911 810.92 410.239 809.072 410.239 806.72C410.239 804.368 410.911 802.52 412.255 801.176ZM416.063 809.604C416.473 810.183 417.099 810.472 417.939 810.472C418.779 810.472 419.404 810.183 419.815 809.604C420.225 809.025 420.431 808.064 420.431 806.72C420.431 805.376 420.225 804.415 419.815 803.836C419.404 803.257 418.779 802.968 417.939 802.968C417.099 802.968 416.473 803.257 416.063 803.836C415.652 804.415 415.447 805.376 415.447 806.72C415.447 808.064 415.652 809.025 416.063 809.604ZM444.813 814.28C442.965 814.28 441.593 813.86 440.697 813.02C439.801 812.161 439.353 810.808 439.353 808.96V803.64H436.413V800H439.353V794.68H444.785V800H449.293V803.64H444.785V808.12C444.785 809.016 444.888 809.613 445.093 809.912C445.299 810.211 445.672 810.36 446.213 810.36C447.035 810.36 447.875 810.22 448.733 809.94L449.293 813.72C447.912 814.093 446.419 814.28 444.813 814.28ZM467.509 806.16V814H462.245V806.72C462.245 805.32 462.114 804.387 461.853 803.92C461.61 803.453 461.162 803.22 460.509 803.22C459.93 803.22 459.407 803.537 458.941 804.172C458.493 804.807 458.269 805.563 458.269 806.44V814H452.949V793H458.269V801.12H458.325C458.791 800.523 459.389 800.047 460.117 799.692C460.845 799.337 461.582 799.16 462.329 799.16C464.177 799.16 465.502 799.683 466.305 800.728C467.107 801.755 467.509 803.565 467.509 806.16ZM475.138 805.32H479.87C479.87 803.547 479.077 802.66 477.49 802.66C476.053 802.66 475.269 803.547 475.138 805.32ZM475.194 808.4C475.511 809.893 476.575 810.64 478.386 810.64C479.786 810.64 481.121 810.313 482.39 809.66L483.51 813.16C481.793 813.907 479.926 814.28 477.91 814.28C475.502 814.28 473.57 813.599 472.114 812.236C470.658 810.873 469.93 809.035 469.93 806.72C469.93 804.387 470.593 802.548 471.918 801.204C473.262 799.841 475.073 799.16 477.35 799.16C479.683 799.16 481.503 799.823 482.81 801.148C484.117 802.455 484.77 804.312 484.77 806.72C484.77 807.224 484.723 807.784 484.63 808.4H475.194ZM501.267 799.44L501.379 801.4H501.435C502.648 799.907 504.086 799.16 505.747 799.16C507.502 799.16 508.892 799.823 509.919 801.148C510.964 802.455 511.487 804.312 511.487 806.72C511.487 809.072 510.946 810.92 509.863 812.264C508.799 813.608 507.427 814.28 505.747 814.28C504.104 814.28 502.77 813.627 501.743 812.32H501.687V820.16H496.367V799.44H501.267ZM506.447 806.72C506.447 805.563 506.232 804.695 505.803 804.116C505.392 803.519 504.814 803.22 504.067 803.22C503.339 803.22 502.76 803.519 502.331 804.116C501.902 804.695 501.687 805.516 501.687 806.58V806.86C501.687 807.943 501.902 808.773 502.331 809.352C502.76 809.931 503.339 810.22 504.067 810.22C504.758 810.22 505.327 809.921 505.775 809.324C506.223 808.708 506.447 807.84 506.447 806.72ZM514.728 814V793H520.328V814H514.728ZM531.702 804.48H532.542C532.542 803.845 532.421 803.407 532.178 803.164C531.935 802.921 531.497 802.8 530.862 802.8C528.902 802.8 526.989 803.22 525.122 804.06L524.422 800.42C526.475 799.58 528.715 799.16 531.142 799.16C533.569 799.16 535.295 799.617 536.322 800.532C537.349 801.428 537.862 802.931 537.862 805.04V810.08C537.862 811.424 538.002 812.731 538.282 814H533.242C533.13 813.365 533.037 812.712 532.962 812.04H532.906C532.402 812.712 531.749 813.253 530.946 813.664C530.143 814.075 529.322 814.28 528.482 814.28C527.045 814.28 525.887 813.888 525.01 813.104C524.151 812.301 523.722 811.2 523.722 809.8C523.722 808.195 524.403 806.907 525.766 805.936C527.147 804.965 529.126 804.48 531.702 804.48ZM528.482 809.24C528.482 810.08 528.949 810.5 529.882 810.5C530.685 810.5 531.329 810.276 531.814 809.828C532.299 809.38 532.542 808.764 532.542 807.98V807.56H531.702C530.638 807.56 529.835 807.719 529.294 808.036C528.753 808.335 528.482 808.736 528.482 809.24ZM547.523 809.24H547.579L550.211 799.44H555.811L548.251 820.16H542.651L545.171 814L539.571 799.44H545.451L547.523 809.24ZM561.736 805.32H566.468C566.468 803.547 565.674 802.66 564.088 802.66C562.65 802.66 561.866 803.547 561.736 805.32ZM561.792 808.4C562.109 809.893 563.173 810.64 564.984 810.64C566.384 810.64 567.718 810.313 568.988 809.66L570.108 813.16C568.39 813.907 566.524 814.28 564.508 814.28C562.1 814.28 560.168 813.599 558.712 812.236C557.256 810.873 556.528 809.035 556.528 806.72C556.528 804.387 557.19 802.548 558.516 801.204C559.86 799.841 561.67 799.16 563.948 799.16C566.281 799.16 568.101 799.823 569.408 801.148C570.714 802.455 571.368 804.312 571.368 806.72C571.368 807.224 571.321 807.784 571.228 808.4H561.792ZM585.811 799.16V803.36C583.72 803.36 582.143 803.752 581.079 804.536C580.015 805.32 579.483 806.421 579.483 807.84V814H574.051V799.44H579.063L579.091 802.24H579.147C580.752 800.187 582.973 799.16 585.811 799.16ZM108.793 849.8H108.849L110.221 839.44H115.345L111.985 854H105.825L104.173 843.92H104.117L102.465 854H96.3051L92.9451 839.44H98.1811L99.5531 849.8H99.6091L101.261 839.44H107.141L108.793 849.8ZM118.599 836.92V833H124.199V836.92H118.599ZM118.599 854V839.44H124.199V854H118.599ZM135.993 854.28C134.145 854.28 132.773 853.86 131.877 853.02C130.981 852.161 130.533 850.808 130.533 848.96V843.64H127.593V840H130.533V834.68H135.965V840H140.473V843.64H135.965V848.12C135.965 849.016 136.068 849.613 136.273 849.912C136.478 850.211 136.852 850.36 137.393 850.36C138.214 850.36 139.054 850.22 139.913 849.94L140.473 853.72C139.092 854.093 137.598 854.28 135.993 854.28ZM158.688 846.16V854H153.424V846.72C153.424 845.32 153.294 844.387 153.032 843.92C152.79 843.453 152.342 843.22 151.688 843.22C151.11 843.22 150.587 843.537 150.12 844.172C149.672 844.807 149.448 845.563 149.448 846.44V854H144.128V833H149.448V841.12H149.504C149.971 840.523 150.568 840.047 151.296 839.692C152.024 839.337 152.762 839.16 153.508 839.16C155.356 839.16 156.682 839.683 157.484 840.728C158.287 841.755 158.688 843.565 158.688 846.16ZM178.704 854.28C176.856 854.28 175.484 853.86 174.588 853.02C173.692 852.161 173.244 850.808 173.244 848.96V843.64H170.304V840H173.244V834.68H178.676V840H183.184V843.64H178.676V848.12C178.676 849.016 178.779 849.613 178.984 849.912C179.189 850.211 179.563 850.36 180.104 850.36C180.925 850.36 181.765 850.22 182.624 849.94L183.184 853.72C181.803 854.093 180.309 854.28 178.704 854.28ZM201.399 846.16V854H196.135V846.72C196.135 845.32 196.004 844.387 195.743 843.92C195.5 843.453 195.052 843.22 194.399 843.22C193.82 843.22 193.298 843.537 192.831 844.172C192.383 844.807 192.159 845.563 192.159 846.44V854H186.839V833H192.159V841.12H192.215C192.682 840.523 193.279 840.047 194.007 839.692C194.735 839.337 195.472 839.16 196.219 839.16C198.067 839.16 199.392 839.683 200.195 840.728C200.998 841.755 201.399 843.565 201.399 846.16ZM209.029 845.32H213.761C213.761 843.547 212.967 842.66 211.381 842.66C209.943 842.66 209.159 843.547 209.029 845.32ZM209.085 848.4C209.402 849.893 210.466 850.64 212.277 850.64C213.677 850.64 215.011 850.313 216.281 849.66L217.401 853.16C215.683 853.907 213.817 854.28 211.801 854.28C209.393 854.28 207.461 853.599 206.005 852.236C204.549 850.873 203.821 849.035 203.821 846.72C203.821 844.387 204.483 842.548 205.809 841.204C207.153 839.841 208.963 839.16 211.241 839.16C213.574 839.16 215.394 839.823 216.701 841.148C218.007 842.455 218.661 844.312 218.661 846.72C218.661 847.224 218.614 847.784 218.521 848.4H209.085ZM230.818 854V833H236.418V854H230.818ZM244.74 845.32H249.472C249.472 843.547 248.678 842.66 247.092 842.66C245.654 842.66 244.87 843.547 244.74 845.32ZM244.796 848.4C245.113 849.893 246.177 850.64 247.988 850.64C249.388 850.64 250.722 850.313 251.992 849.66L253.112 853.16C251.394 853.907 249.528 854.28 247.512 854.28C245.104 854.28 243.172 853.599 241.716 852.236C240.26 850.873 239.532 849.035 239.532 846.72C239.532 844.387 240.194 842.548 241.52 841.204C242.864 839.841 244.674 839.16 246.952 839.16C249.285 839.16 251.105 839.823 252.412 841.148C253.718 842.455 254.372 844.312 254.372 846.72C254.372 847.224 254.325 847.784 254.232 848.4H244.796ZM264.335 844.48H265.175C265.175 843.845 265.053 843.407 264.811 843.164C264.568 842.921 264.129 842.8 263.495 842.8C261.535 842.8 259.621 843.22 257.755 844.06L257.055 840.42C259.108 839.58 261.348 839.16 263.775 839.16C266.201 839.16 267.928 839.617 268.955 840.532C269.981 841.428 270.495 842.931 270.495 845.04V850.08C270.495 851.424 270.635 852.731 270.915 854H265.875C265.763 853.365 265.669 852.712 265.595 852.04H265.539C265.035 852.712 264.381 853.253 263.579 853.664C262.776 854.075 261.955 854.28 261.115 854.28C259.677 854.28 258.52 853.888 257.643 853.104C256.784 852.301 256.355 851.2 256.355 849.8C256.355 848.195 257.036 846.907 258.399 845.936C259.78 844.965 261.759 844.48 264.335 844.48ZM261.115 849.24C261.115 850.08 261.581 850.5 262.515 850.5C263.317 850.5 263.961 850.276 264.447 849.828C264.932 849.38 265.175 848.764 265.175 847.98V847.56H264.335C263.271 847.56 262.468 847.719 261.927 848.036C261.385 848.335 261.115 848.736 261.115 849.24ZM285.518 843.836C283.82 843.22 282.233 842.912 280.758 842.912C279.956 842.912 279.405 842.987 279.106 843.136C278.808 843.267 278.658 843.481 278.658 843.78C278.658 844.06 278.78 844.275 279.022 844.424C279.265 844.573 279.704 844.685 280.338 844.76C282.634 845.04 284.277 845.581 285.266 846.384C286.274 847.187 286.778 848.279 286.778 849.66C286.778 851.079 286.209 852.208 285.07 853.048C283.95 853.869 282.326 854.28 280.198 854.28C277.678 854.28 275.392 853.813 273.338 852.88L274.318 849.128C275.998 850.024 277.772 850.472 279.638 850.472C280.852 850.472 281.458 850.155 281.458 849.52C281.458 849.277 281.365 849.109 281.178 849.016C280.992 848.923 280.525 848.811 279.778 848.68C277.52 848.325 275.905 847.747 274.934 846.944C273.964 846.123 273.478 845.021 273.478 843.64C273.478 842.24 274.038 841.148 275.158 840.364C276.278 839.561 277.958 839.16 280.198 839.16C282.42 839.16 284.52 839.487 286.498 840.14L285.518 843.836ZM296.911 854.28C295.063 854.28 293.691 853.86 292.795 853.02C291.899 852.161 291.451 850.808 291.451 848.96V843.64H288.511V840H291.451V834.68H296.883V840H301.391V843.64H296.883V848.12C296.883 849.016 296.986 849.613 297.191 849.912C297.396 850.211 297.77 850.36 298.311 850.36C299.132 850.36 299.972 850.22 300.831 849.94L301.391 853.72C300.01 854.093 298.516 854.28 296.911 854.28ZM305.193 854V848.12H311.353V854H305.193ZM331.348 837.48C330.937 837.48 330.517 837.527 330.088 837.62V841.54H330.928C333.074 841.54 334.148 840.84 334.148 839.44C334.148 838.133 333.214 837.48 331.348 837.48ZM339.748 848.12C339.748 850.229 339.057 851.788 337.676 852.796C336.313 853.785 334.11 854.28 331.068 854.28C328.79 854.28 326.644 854.14 324.628 853.86V833.7C326.55 833.42 328.604 833.28 330.788 833.28C336.388 833.28 339.188 835.053 339.188 838.6C339.188 839.795 338.805 840.812 338.04 841.652C337.274 842.473 336.257 842.987 334.988 843.192V843.248C336.425 843.435 337.573 843.985 338.432 844.9C339.309 845.815 339.748 846.888 339.748 848.12ZM334.568 847.56C334.568 846.16 333.541 845.46 331.488 845.46H330.088V849.94C330.517 850.033 330.937 850.08 331.348 850.08C332.468 850.08 333.28 849.875 333.784 849.464C334.306 849.053 334.568 848.419 334.568 847.56ZM342.845 854V833H348.445V854H342.845ZM353.575 841.176C354.919 839.832 356.814 839.16 359.259 839.16C361.704 839.16 363.599 839.832 364.943 841.176C366.287 842.52 366.959 844.368 366.959 846.72C366.959 849.072 366.287 850.92 364.943 852.264C363.599 853.608 361.704 854.28 359.259 854.28C356.814 854.28 354.919 853.608 353.575 852.264C352.231 850.92 351.559 849.072 351.559 846.72C351.559 844.368 352.231 842.52 353.575 841.176ZM357.383 849.604C357.794 850.183 358.419 850.472 359.259 850.472C360.099 850.472 360.724 850.183 361.135 849.604C361.546 849.025 361.751 848.064 361.751 846.72C361.751 845.376 361.546 844.415 361.135 843.836C360.724 843.257 360.099 842.968 359.259 842.968C358.419 842.968 357.794 843.257 357.383 843.836C356.972 844.415 356.767 845.376 356.767 846.72C356.767 848.064 356.972 849.025 357.383 849.604ZM381.133 849.436L382.253 853.16C380.648 853.907 378.968 854.28 377.213 854.28C374.637 854.28 372.593 853.599 371.081 852.236C369.569 850.873 368.813 849.035 368.813 846.72C368.813 844.387 369.55 842.548 371.025 841.204C372.518 839.841 374.581 839.16 377.213 839.16C379.024 839.16 380.704 839.533 382.253 840.28L381.133 844.06C379.976 843.351 378.762 842.996 377.493 842.996C376.429 842.996 375.598 843.313 375.001 843.948C374.422 844.583 374.133 845.507 374.133 846.72C374.133 847.896 374.441 848.82 375.057 849.492C375.673 850.164 376.485 850.5 377.493 850.5C378.762 850.5 379.976 850.145 381.133 849.436ZM391.004 848.12H390.948V854H385.628V833H390.948V844.76H391.004L394.868 839.44H400.888L395.288 846.44L401.028 854H395.008L391.004 848.12ZM414.499 843.836C412.8 843.22 411.214 842.912 409.739 842.912C408.936 842.912 408.386 842.987 408.087 843.136C407.788 843.267 407.639 843.481 407.639 843.78C407.639 844.06 407.76 844.275 408.003 844.424C408.246 844.573 408.684 844.685 409.319 844.76C411.615 845.04 413.258 845.581 414.247 846.384C415.255 847.187 415.759 848.279 415.759 849.66C415.759 851.079 415.19 852.208 414.051 853.048C412.931 853.869 411.307 854.28 409.179 854.28C406.659 854.28 404.372 853.813 402.319 852.88L403.299 849.128C404.979 850.024 406.752 850.472 408.619 850.472C409.832 850.472 410.439 850.155 410.439 849.52C410.439 849.277 410.346 849.109 410.159 849.016C409.972 848.923 409.506 848.811 408.759 848.68C406.5 848.325 404.886 847.747 403.915 846.944C402.944 846.123 402.459 845.021 402.459 843.64C402.459 842.24 403.019 841.148 404.139 840.364C405.259 839.561 406.939 839.16 409.179 839.16C411.4 839.16 413.5 839.487 415.479 840.14L414.499 843.836ZM439.272 843.836C437.574 843.22 435.987 842.912 434.512 842.912C433.71 842.912 433.159 842.987 432.86 843.136C432.562 843.267 432.412 843.481 432.412 843.78C432.412 844.06 432.534 844.275 432.776 844.424C433.019 844.573 433.458 844.685 434.092 844.76C436.388 845.04 438.031 845.581 439.02 846.384C440.028 847.187 440.532 848.279 440.532 849.66C440.532 851.079 439.963 852.208 438.824 853.048C437.704 853.869 436.08 854.28 433.952 854.28C431.432 854.28 429.146 853.813 427.092 852.88L428.072 849.128C429.752 850.024 431.526 850.472 433.392 850.472C434.606 850.472 435.212 850.155 435.212 849.52C435.212 849.277 435.119 849.109 434.932 849.016C434.746 848.923 434.279 848.811 433.532 848.68C431.274 848.325 429.659 847.747 428.688 846.944C427.718 846.123 427.232 845.021 427.232 843.64C427.232 842.24 427.792 841.148 428.912 840.364C430.032 839.561 431.712 839.16 433.952 839.16C436.174 839.16 438.274 839.487 440.252 840.14L439.272 843.836ZM450.665 854.28C448.817 854.28 447.445 853.86 446.549 853.02C445.653 852.161 445.205 850.808 445.205 848.96V843.64H442.265V840H445.205V834.68H450.637V840H455.145V843.64H450.637V848.12C450.637 849.016 450.739 849.613 450.945 849.912C451.15 850.211 451.523 850.36 452.065 850.36C452.886 850.36 453.726 850.22 454.585 849.94L455.145 853.72C453.763 854.093 452.27 854.28 450.665 854.28ZM462.615 845.32H467.347C467.347 843.547 466.553 842.66 464.967 842.66C463.529 842.66 462.745 843.547 462.615 845.32ZM462.671 848.4C462.988 849.893 464.052 850.64 465.863 850.64C467.263 850.64 468.597 850.313 469.867 849.66L470.987 853.16C469.269 853.907 467.403 854.28 465.387 854.28C462.979 854.28 461.047 853.599 459.591 852.236C458.135 850.873 457.407 849.035 457.407 846.72C457.407 844.387 458.069 842.548 459.395 841.204C460.739 839.841 462.549 839.16 464.827 839.16C467.16 839.16 468.98 839.823 470.287 841.148C471.593 842.455 472.247 844.312 472.247 846.72C472.247 847.224 472.2 847.784 472.107 848.4H462.671ZM482.21 844.48H483.05C483.05 843.845 482.928 843.407 482.686 843.164C482.443 842.921 482.004 842.8 481.37 842.8C479.41 842.8 477.496 843.22 475.63 844.06L474.93 840.42C476.983 839.58 479.223 839.16 481.65 839.16C484.076 839.16 485.803 839.617 486.83 840.532C487.856 841.428 488.37 842.931 488.37 845.04V850.08C488.37 851.424 488.51 852.731 488.79 854H483.75C483.638 853.365 483.544 852.712 483.47 852.04H483.414C482.91 852.712 482.256 853.253 481.454 853.664C480.651 854.075 479.83 854.28 478.99 854.28C477.552 854.28 476.395 853.888 475.518 853.104C474.659 852.301 474.23 851.2 474.23 849.8C474.23 848.195 474.911 846.907 476.274 845.936C477.655 844.965 479.634 844.48 482.21 844.48ZM478.99 849.24C478.99 850.08 479.456 850.5 480.39 850.5C481.192 850.5 481.836 850.276 482.322 849.828C482.807 849.38 483.05 848.764 483.05 847.98V847.56H482.21C481.146 847.56 480.343 847.719 479.802 848.036C479.26 848.335 478.99 848.736 478.99 849.24ZM492.607 854V833H498.207V854H492.607ZM502.314 836.92V833H507.914V836.92H502.314ZM502.314 854V839.44H507.914V854H502.314ZM517.076 841.4C517.598 840.709 518.242 840.168 519.008 839.776C519.792 839.365 520.585 839.16 521.388 839.16C523.236 839.16 524.561 839.683 525.364 840.728C526.166 841.755 526.568 843.565 526.568 846.16V854H521.304V846.72C521.304 845.32 521.173 844.387 520.912 843.92C520.669 843.453 520.221 843.22 519.568 843.22C518.989 843.22 518.466 843.537 518 844.172C517.552 844.807 517.328 845.563 517.328 846.44V854H512.008V839.44H516.908L517.02 841.4H517.076ZM539.045 851.76H539.017C537.935 853.067 536.544 853.72 534.845 853.72C533.184 853.72 531.812 853.076 530.729 851.788C529.647 850.481 529.105 848.699 529.105 846.44C529.105 844.144 529.628 842.361 530.673 841.092C531.719 839.804 533.109 839.16 534.845 839.16C536.507 839.16 537.944 839.907 539.157 841.4H539.213L539.325 839.44H544.225V852.32C544.225 854.989 543.488 857.005 542.013 858.368C540.539 859.749 538.383 860.44 535.545 860.44C533.753 860.44 532.073 860.16 530.505 859.6L531.345 855.848C532.652 856.389 533.959 856.66 535.265 856.66C536.628 856.66 537.599 856.333 538.177 855.68C538.756 855.045 539.045 853.925 539.045 852.32V851.76ZM534.145 846.44C534.145 847.504 534.36 848.335 534.789 848.932C535.237 849.511 535.816 849.8 536.525 849.8C537.253 849.8 537.832 849.529 538.261 848.988C538.691 848.428 538.905 847.625 538.905 846.58V846.3C538.905 845.273 538.691 844.48 538.261 843.92C537.832 843.36 537.253 843.08 536.525 843.08C535.779 843.08 535.191 843.369 534.761 843.948C534.351 844.508 534.145 845.339 534.145 846.44Z" fill="white"/>
<defs>
<filter id="filter0_d_731_83" x="-195.9" y="-11.9" width="1032.8" height="993.8" filterUnits="userSpaceOnUse" color-interpolation-filters="sRGB">
<feFlood flood-opacity="0" result="BackgroundImageFix"/>
<feColorMatrix in="SourceAlpha" type="matrix" values="0 0 0 0 0 0 0 0 0 0 0 0 0 0 0 0 0 0 127 0" result="hardAlpha"/>
<feOffset/>
<feGaussianBlur stdDeviation="34.95"/>
<feComposite in2="hardAlpha" operator="out"/>
<feColorMatrix type="matrix" values="0 0 0 0 0 0 0 0 0 0 0 0 0 0 0 0 0 0 0.15 0"/>
<feBlend mode="normal" in2="BackgroundImageFix" result="effect1_dropShadow_731_83"/>
<feBlend mode="normal" in="SourceGraphic" in2="effect1_dropShadow_731_83" result="shape"/>
</filter>
<linearGradient id="paint0_linear_731_83" x1="239.232" y1="69.9756" x2="553.162" y2="944.316" gradientUnits="userSpaceOnUse">
<stop stop-color="#FFA723"/>
<stop offset="1" stop-color="#FF4016" stop-opacity="0.85"/>
</linearGradient>
</defs>
</svg>
