<svg width="640" height="900" viewBox="0 0 640 900" fill="none" xmlns="http://www.w3.org/2000/svg">
<rect x="0.0195312" width="639.02" height="900" fill="#FA3838"/>
<mask id="mask0_612_87" style="mask-type:alpha" maskUnits="userSpaceOnUse" x="0" y="0" width="640" height="900">
<rect x="0.0195312" width="639.02" height="900" fill="white"/>
</mask>
<g mask="url(#mask0_612_87)">
<path d="M199.963 67.7764L288.085 89.7477L278.493 128.086L190.371 106.115L199.963 67.7764ZM184.93 124.731L274.895 147.162L265.304 185.501L175.338 163.07L184.93 124.731ZM228.172 53.6616L269.099 63.8658L244.197 163.398L203.27 153.194L228.172 53.6616ZM185.777 -7.03782L333.63 29.8262L322.378 74.8L174.525 37.936L185.777 -7.03782ZM193.218 182.41L261.061 199.325L236.252 298.489L168.409 281.573L177.724 244.341L207.958 251.879L214.138 227.18L183.903 219.642L193.218 182.41ZM172.57 177.262L209.442 186.455L181.588 297.783L144.717 288.59L172.57 177.262ZM314.457 25.0459L363.865 37.3645L293.678 317.898C287.683 341.859 280.307 355.685 264.543 360.763C248.687 366.208 230.344 362.81 204.534 356.375C206.564 341.999 206.383 316.106 203.158 300.812C215.787 305.135 231.365 308.627 236.527 309.914C241.32 311.11 243.164 310.003 244.455 304.842L314.457 25.0459ZM159.967 -13.4729L208.268 -1.43007L172.852 140.127C158.095 199.109 131.997 284.635 90.8779 329.995C84.5188 319.402 66.5461 298.864 56.776 290.945C92.4555 250.104 111.362 180.799 124.551 128.084L159.967 -13.4729ZM13.5737 58.1179L113.495 83.031L103.534 122.844L3.6129 97.9307L13.5737 58.1179ZM41.6103 -44.5491L138.213 -20.4633L128.252 19.3495L31.6495 -4.73621L41.6103 -44.5491ZM0.846011 108.99L100.767 133.903L90.8063 173.716L-9.11479 148.803L0.846011 108.99ZM11.2766 1.54164L135.901 32.6141L125.479 74.2701L0.854677 43.1977L11.2766 1.54164ZM12.1766 167.035L87.0253 185.697L58.5263 299.606L-16.3223 280.944L-5.9926 239.657L26.4541 247.747L34.2936 216.412L1.84692 208.323L12.1766 167.035ZM-13.6332 160.6L27.6626 170.896L-4.34113 298.813L-45.6369 288.517L-13.6332 160.6ZM326.677 331.608L665.524 416.092L653.81 462.909L314.964 378.425L326.677 331.608ZM435.46 263.172L599.905 304.173L590.867 340.3L426.421 299.299L435.46 263.172ZM424.3 307.777L588.746 348.778L579.707 384.905L415.261 343.904L424.3 307.777ZM422.838 205.588L640.747 259.919L598.967 426.912L543.661 413.123L574.65 289.26L464.405 261.773L433.047 387.11L380.689 374.056L422.838 205.588ZM395.017 72.546L727.227 155.375L715.698 201.455L383.489 118.626L395.017 72.546ZM542.415 68.9583L595.51 82.1963L558.526 230.02L505.431 216.782L542.415 68.9583ZM505.905 116.251L545.632 143.779C502.117 186.191 442.38 215.16 379.788 222.661C375.457 208.657 365.504 185.811 356.933 173.099C414.178 169.749 471.702 148.061 505.905 116.251ZM602.047 140.613C618.542 184.28 660.939 229.315 712.28 258.956C698.36 266.059 678.262 282.197 667.199 293.537C614.66 257.723 574.845 203.933 555.587 146.261L602.047 140.613ZM128.405 629.346L181.499 642.584L117.584 898.049L64.4895 884.812L128.405 629.346ZM156.058 636.24L328.615 679.264L301.223 788.749L128.666 745.726L140.01 700.383L258.735 729.985L263.439 711.184L144.714 681.583L156.058 636.24ZM122.856 762.684L319.38 811.683L287.561 938.863L233.729 925.441L253.927 844.709L111.235 809.132L122.856 762.684ZM107.176 831.618L280.102 874.734L268.482 921.182L95.5554 878.067L107.176 831.618ZM223.084 554.652L280.604 568.993L262.711 640.509L205.192 626.168L223.084 554.652ZM85.1828 545.334L407.437 625.681L382.904 723.739L327.966 710.041L339.956 662.118L124.997 608.523L113.007 656.446L60.6497 643.391L85.1828 545.334Z" fill="#BC2C2C"/>
<g filter="url(#filter0_d_612_87)">
<path d="M-226 967.5L664.5 940.5L678 810.5L598 608.5L521 364L489.2 205L338.2 109L205.5 223L223.5 417L205.5 544.5L167.5 590L144 502L167.5 417L117.5 348H59.5L13 460.5L87 525.5L35 752L-72 915L-226 967.5Z" fill="url(#paint0_linear_612_87)" shape-rendering="crispEdges"/>
</g>
</g>
<path d="M94.9346 711.95C83.7246 711.95 74.7313 708.783 67.9546 702.45C61.2413 696.053 57.8846 687.345 57.8846 676.325C57.8846 665.178 61.1146 656.47 67.5746 650.2C74.0979 643.867 83.2179 640.7 94.9346 640.7C103.865 640.7 111.465 642.917 117.735 647.35L112.51 661.125C107.253 657.642 102.028 655.9 96.8346 655.9C90.6913 655.9 85.9096 657.673 82.4896 661.22C79.0696 664.703 77.3596 669.738 77.3596 676.325C77.3596 682.658 79.1329 687.662 82.6796 691.335C86.2896 694.945 91.0079 696.75 96.8346 696.75C102.028 696.75 107.253 695.008 112.51 691.525L117.735 705.3C111.465 709.733 103.865 711.95 94.9346 711.95ZM133.163 650.295C139.623 643.898 148.3 640.7 159.193 640.7C170.087 640.7 178.732 643.898 185.128 650.295C191.588 656.628 194.818 665.305 194.818 676.325C194.818 687.345 191.588 696.053 185.128 702.45C178.732 708.783 170.087 711.95 159.193 711.95C148.3 711.95 139.623 708.783 133.163 702.45C126.767 696.053 123.568 687.345 123.568 676.325C123.568 665.305 126.767 656.628 133.163 650.295ZM143.043 676.325C143.043 689.625 148.427 696.275 159.193 696.275C169.96 696.275 175.343 689.625 175.343 676.325C175.343 663.025 169.96 656.375 159.193 656.375C148.427 656.375 143.043 663.025 143.043 676.325ZM253.021 704.54C248.145 709.48 241.115 711.95 231.931 711.95C222.748 711.95 215.686 709.48 210.746 704.54C205.87 699.537 203.431 692.19 203.431 682.5V641.65H222.621V683.925C222.621 688.422 223.413 691.683 224.996 693.71C226.58 695.737 228.955 696.75 232.121 696.75C235.288 696.75 237.663 695.737 239.246 693.71C240.83 691.683 241.621 688.422 241.621 683.925V641.65H260.431V682.5C260.431 692.19 257.961 699.537 253.021 704.54ZM312.547 679.65H312.737V641.65H331.262V711H312.737L292.027 673H291.837V711H273.312V641.65H291.837L312.547 679.65ZM399.744 641.65V657.325H380.934V711H361.554V657.325H342.744V641.65H399.744ZM454.966 668.25V682.5H430.266V695.8H456.866V711H411.266V641.65H456.866V656.85H430.266V668.25H454.966ZM514.953 660.175C508.557 657.008 502.065 655.425 495.478 655.425C492.502 655.425 490.253 655.963 488.733 657.04C487.213 658.053 486.453 659.415 486.453 661.125C486.453 663.785 488.512 665.685 492.628 666.825C502.572 669.485 509.57 672.683 513.623 676.42C517.677 680.093 519.703 684.812 519.703 690.575C519.703 697.542 517.297 702.862 512.483 706.535C507.67 710.145 500.418 711.95 490.728 711.95C486.675 711.95 482.305 711.285 477.618 709.955C472.995 708.562 469.29 706.852 466.503 704.825L470.778 690.1C474.008 692.317 477.492 694.058 481.228 695.325C485.028 696.592 488.512 697.225 491.678 697.225C497.378 697.225 500.228 695.167 500.228 691.05C500.228 688.39 497.695 686.332 492.628 684.875C483.382 682.215 476.795 679.017 472.868 675.28C468.942 671.543 466.978 666.825 466.978 661.125C466.978 654.855 469.353 649.883 474.103 646.21C478.917 642.537 485.725 640.7 494.528 640.7C503.902 640.7 511.818 642.283 518.278 645.45L514.953 660.175ZM575.442 660.175C569.045 657.008 562.553 655.425 555.967 655.425C552.99 655.425 550.742 655.963 549.222 657.04C547.702 658.053 546.942 659.415 546.942 661.125C546.942 663.785 549 665.685 553.117 666.825C563.06 669.485 570.058 672.683 574.112 676.42C578.165 680.093 580.192 684.812 580.192 690.575C580.192 697.542 577.785 702.862 572.972 706.535C568.158 710.145 560.907 711.95 551.217 711.95C547.163 711.95 542.793 711.285 538.107 709.955C533.483 708.562 529.778 706.852 526.992 704.825L531.267 690.1C534.497 692.317 537.98 694.058 541.717 695.325C545.517 696.592 549 697.225 552.167 697.225C557.867 697.225 560.717 695.167 560.717 691.05C560.717 688.39 558.183 686.332 553.117 684.875C543.87 682.215 537.283 679.017 533.357 675.28C529.43 671.543 527.467 666.825 527.467 661.125C527.467 654.855 529.842 649.883 534.592 646.21C539.405 642.537 546.213 640.7 555.017 640.7C564.39 640.7 572.307 642.283 578.767 645.45L575.442 660.175Z" fill="white"/>
<path d="M139.698 804.35C139.185 804.35 138.66 804.408 138.123 804.525V809.425H139.173C141.856 809.425 143.198 808.55 143.198 806.8C143.198 805.167 142.031 804.35 139.698 804.35ZM150.198 817.65C150.198 820.287 149.335 822.235 147.608 823.495C145.905 824.732 143.151 825.35 139.348 825.35C136.501 825.35 133.818 825.175 131.298 824.825V799.625C133.701 799.275 136.268 799.1 138.998 799.1C145.998 799.1 149.498 801.317 149.498 805.75C149.498 807.243 149.02 808.515 148.063 809.565C147.106 810.592 145.835 811.233 144.248 811.49V811.56C146.045 811.793 147.48 812.482 148.553 813.625C149.65 814.768 150.198 816.11 150.198 817.65ZM143.723 816.95C143.723 815.2 142.44 814.325 139.873 814.325H138.123V819.925C138.66 820.042 139.185 820.1 139.698 820.1C141.098 820.1 142.113 819.843 142.743 819.33C143.396 818.817 143.723 818.023 143.723 816.95ZM154.07 825V798.75H161.07V825H154.07ZM167.482 808.97C169.162 807.29 171.531 806.45 174.587 806.45C177.644 806.45 180.012 807.29 181.692 808.97C183.372 810.65 184.212 812.96 184.212 815.9C184.212 818.84 183.372 821.15 181.692 822.83C180.012 824.51 177.644 825.35 174.587 825.35C171.531 825.35 169.162 824.51 167.482 822.83C165.802 821.15 164.962 818.84 164.962 815.9C164.962 812.96 165.802 810.65 167.482 808.97ZM172.242 819.505C172.756 820.228 173.537 820.59 174.587 820.59C175.637 820.59 176.419 820.228 176.932 819.505C177.446 818.782 177.702 817.58 177.702 815.9C177.702 814.22 177.446 813.018 176.932 812.295C176.419 811.572 175.637 811.21 174.587 811.21C173.537 811.21 172.756 811.572 172.242 812.295C171.729 813.018 171.472 814.22 171.472 815.9C171.472 817.58 171.729 818.782 172.242 819.505ZM201.93 819.295L203.33 823.95C201.323 824.883 199.223 825.35 197.03 825.35C193.81 825.35 191.255 824.498 189.365 822.795C187.475 821.092 186.53 818.793 186.53 815.9C186.53 812.983 187.451 810.685 189.295 809.005C191.161 807.302 193.74 806.45 197.03 806.45C199.293 806.45 201.393 806.917 203.33 807.85L201.93 812.575C200.483 811.688 198.966 811.245 197.38 811.245C196.05 811.245 195.011 811.642 194.265 812.435C193.541 813.228 193.18 814.383 193.18 815.9C193.18 817.37 193.565 818.525 194.335 819.365C195.105 820.205 196.12 820.625 197.38 820.625C198.966 820.625 200.483 820.182 201.93 819.295ZM214.269 817.65H214.199V825H207.549V798.75H214.199V813.45H214.269L219.099 806.8H226.624L219.624 815.55L226.799 825H219.274L214.269 817.65ZM243.637 812.295C241.514 811.525 239.531 811.14 237.687 811.14C236.684 811.14 235.996 811.233 235.622 811.42C235.249 811.583 235.062 811.852 235.062 812.225C235.062 812.575 235.214 812.843 235.517 813.03C235.821 813.217 236.369 813.357 237.162 813.45C240.032 813.8 242.086 814.477 243.322 815.48C244.582 816.483 245.212 817.848 245.212 819.575C245.212 821.348 244.501 822.76 243.077 823.81C241.677 824.837 239.647 825.35 236.987 825.35C233.837 825.35 230.979 824.767 228.412 823.6L229.637 818.91C231.737 820.03 233.954 820.59 236.287 820.59C237.804 820.59 238.562 820.193 238.562 819.4C238.562 819.097 238.446 818.887 238.212 818.77C237.979 818.653 237.396 818.513 236.462 818.35C233.639 817.907 231.621 817.183 230.407 816.18C229.194 815.153 228.587 813.777 228.587 812.05C228.587 810.3 229.287 808.935 230.687 807.955C232.087 806.952 234.187 806.45 236.987 806.45C239.764 806.45 242.389 806.858 244.862 807.675L243.637 812.295ZM269.179 813.1H270.229C270.229 812.307 270.077 811.758 269.774 811.455C269.471 811.152 268.922 811 268.129 811C265.679 811 263.287 811.525 260.954 812.575L260.079 808.025C262.646 806.975 265.446 806.45 268.479 806.45C271.512 806.45 273.671 807.022 274.954 808.165C276.237 809.285 276.879 811.163 276.879 813.8V820.1C276.879 821.78 277.054 823.413 277.404 825H271.104C270.964 824.207 270.847 823.39 270.754 822.55H270.684C270.054 823.39 269.237 824.067 268.234 824.58C267.231 825.093 266.204 825.35 265.154 825.35C263.357 825.35 261.911 824.86 260.814 823.88C259.741 822.877 259.204 821.5 259.204 819.75C259.204 817.743 260.056 816.133 261.759 814.92C263.486 813.707 265.959 813.1 269.179 813.1ZM265.154 819.05C265.154 820.1 265.737 820.625 266.904 820.625C267.907 820.625 268.712 820.345 269.319 819.785C269.926 819.225 270.229 818.455 270.229 817.475V816.95H269.179C267.849 816.95 266.846 817.148 266.169 817.545C265.492 817.918 265.154 818.42 265.154 819.05ZM295.659 812.295C293.535 811.525 291.552 811.14 289.709 811.14C288.705 811.14 288.017 811.233 287.644 811.42C287.27 811.583 287.084 811.852 287.084 812.225C287.084 812.575 287.235 812.843 287.539 813.03C287.842 813.217 288.39 813.357 289.184 813.45C292.054 813.8 294.107 814.477 295.344 815.48C296.604 816.483 297.234 817.848 297.234 819.575C297.234 821.348 296.522 822.76 295.099 823.81C293.699 824.837 291.669 825.35 289.009 825.35C285.859 825.35 283 824.767 280.434 823.6L281.659 818.91C283.759 820.03 285.975 820.59 288.309 820.59C289.825 820.59 290.584 820.193 290.584 819.4C290.584 819.097 290.467 818.887 290.234 818.77C290 818.653 289.417 818.513 288.484 818.35C285.66 817.907 283.642 817.183 282.429 816.18C281.215 815.153 280.609 813.777 280.609 812.05C280.609 810.3 281.309 808.935 282.709 807.955C284.109 806.952 286.209 806.45 289.009 806.45C291.785 806.45 294.41 806.858 296.884 807.675L295.659 812.295ZM315.141 812.295C313.018 811.525 311.034 811.14 309.191 811.14C308.188 811.14 307.499 811.233 307.126 811.42C306.753 811.583 306.566 811.852 306.566 812.225C306.566 812.575 306.718 812.843 307.021 813.03C307.324 813.217 307.873 813.357 308.666 813.45C311.536 813.8 313.589 814.477 314.826 815.48C316.086 816.483 316.716 817.848 316.716 819.575C316.716 821.348 316.004 822.76 314.581 823.81C313.181 824.837 311.151 825.35 308.491 825.35C305.341 825.35 302.483 824.767 299.916 823.6L301.141 818.91C303.241 820.03 305.458 820.59 307.791 820.59C309.308 820.59 310.066 820.193 310.066 819.4C310.066 819.097 309.949 818.887 309.716 818.77C309.483 818.653 308.899 818.513 307.966 818.35C305.143 817.907 303.124 817.183 301.911 816.18C300.698 815.153 300.091 813.777 300.091 812.05C300.091 810.3 300.791 808.935 302.191 807.955C303.591 806.952 305.691 806.45 308.491 806.45C311.268 806.45 313.893 806.858 316.366 807.675L315.141 812.295ZM329.54 813.1H330.59C330.59 812.307 330.439 811.758 330.135 811.455C329.832 811.152 329.284 811 328.49 811C326.04 811 323.649 811.525 321.315 812.575L320.44 808.025C323.007 806.975 325.807 806.45 328.84 806.45C331.874 806.45 334.032 807.022 335.315 808.165C336.599 809.285 337.24 811.163 337.24 813.8V820.1C337.24 821.78 337.415 823.413 337.765 825H331.465C331.325 824.207 331.209 823.39 331.115 822.55H331.045C330.415 823.39 329.599 824.067 328.595 824.58C327.592 825.093 326.565 825.35 325.515 825.35C323.719 825.35 322.272 824.86 321.175 823.88C320.102 822.877 319.565 821.5 319.565 819.75C319.565 817.743 320.417 816.133 322.12 814.92C323.847 813.707 326.32 813.1 329.54 813.1ZM325.515 819.05C325.515 820.1 326.099 820.625 327.265 820.625C328.269 820.625 329.074 820.345 329.68 819.785C330.287 819.225 330.59 818.455 330.59 817.475V816.95H329.54C328.21 816.95 327.207 817.148 326.53 817.545C325.854 817.918 325.515 818.42 325.515 819.05ZM356.02 812.295C353.897 811.525 351.913 811.14 350.07 811.14C349.067 811.14 348.378 811.233 348.005 811.42C347.632 811.583 347.445 811.852 347.445 812.225C347.445 812.575 347.597 812.843 347.9 813.03C348.203 813.217 348.752 813.357 349.545 813.45C352.415 813.8 354.468 814.477 355.705 815.48C356.965 816.483 357.595 817.848 357.595 819.575C357.595 821.348 356.883 822.76 355.46 823.81C354.06 824.837 352.03 825.35 349.37 825.35C346.22 825.35 343.362 824.767 340.795 823.6L342.02 818.91C344.12 820.03 346.337 820.59 348.67 820.59C350.187 820.59 350.945 820.193 350.945 819.4C350.945 819.097 350.828 818.887 350.595 818.77C350.362 818.653 349.778 818.513 348.845 818.35C346.022 817.907 344.003 817.183 342.79 816.18C341.577 815.153 340.97 813.777 340.97 812.05C340.97 810.3 341.67 808.935 343.07 807.955C344.47 806.952 346.57 806.45 349.37 806.45C352.147 806.45 354.772 806.858 357.245 807.675L356.02 812.295ZM375.502 812.295C373.379 811.525 371.396 811.14 369.552 811.14C368.549 811.14 367.861 811.233 367.487 811.42C367.114 811.583 366.927 811.852 366.927 812.225C366.927 812.575 367.079 812.843 367.382 813.03C367.686 813.217 368.234 813.357 369.027 813.45C371.897 813.8 373.951 814.477 375.187 815.48C376.447 816.483 377.077 817.848 377.077 819.575C377.077 821.348 376.366 822.76 374.942 823.81C373.542 824.837 371.512 825.35 368.852 825.35C365.702 825.35 362.844 824.767 360.277 823.6L361.502 818.91C363.602 820.03 365.819 820.59 368.152 820.59C369.669 820.59 370.427 820.193 370.427 819.4C370.427 819.097 370.311 818.887 370.077 818.77C369.844 818.653 369.261 818.513 368.327 818.35C365.504 817.907 363.486 817.183 362.272 816.18C361.059 815.153 360.452 813.777 360.452 812.05C360.452 810.3 361.152 808.935 362.552 807.955C363.952 806.952 366.052 806.45 368.852 806.45C371.629 806.45 374.254 806.858 376.727 807.675L375.502 812.295ZM381.502 803.65V798.75H388.502V803.65H381.502ZM381.502 825V806.8H388.502V825H381.502ZM399.954 809.25C400.607 808.387 401.412 807.71 402.369 807.22C403.349 806.707 404.341 806.45 405.344 806.45C407.654 806.45 409.311 807.103 410.314 808.41C411.317 809.693 411.819 811.957 411.819 815.2V825H405.239V815.9C405.239 814.15 405.076 812.983 404.749 812.4C404.446 811.817 403.886 811.525 403.069 811.525C402.346 811.525 401.692 811.922 401.109 812.715C400.549 813.508 400.269 814.453 400.269 815.55V825H393.619V806.8H399.744L399.884 809.25H399.954ZM425.141 813.1H426.191C426.191 812.307 426.039 811.758 425.736 811.455C425.433 811.152 424.884 811 424.091 811C421.641 811 419.249 811.525 416.916 812.575L416.041 808.025C418.608 806.975 421.408 806.45 424.441 806.45C427.474 806.45 429.633 807.022 430.916 808.165C432.199 809.285 432.841 811.163 432.841 813.8V820.1C432.841 821.78 433.016 823.413 433.366 825H427.066C426.926 824.207 426.809 823.39 426.716 822.55H426.646C426.016 823.39 425.199 824.067 424.196 824.58C423.193 825.093 422.166 825.35 421.116 825.35C419.319 825.35 417.873 824.86 416.776 823.88C415.703 822.877 415.166 821.5 415.166 819.75C415.166 817.743 416.018 816.133 417.721 814.92C419.448 813.707 421.921 813.1 425.141 813.1ZM421.116 819.05C421.116 820.1 421.699 820.625 422.866 820.625C423.869 820.625 424.674 820.345 425.281 819.785C425.888 819.225 426.191 818.455 426.191 817.475V816.95H425.141C423.811 816.95 422.808 817.148 422.131 817.545C421.454 817.918 421.116 818.42 421.116 819.05ZM446.003 825.35C443.693 825.35 441.978 824.825 440.858 823.775C439.738 822.702 439.178 821.01 439.178 818.7V812.05H435.503V807.5H439.178V800.85H445.968V807.5H451.603V812.05H445.968V817.65C445.968 818.77 446.096 819.517 446.353 819.89C446.61 820.263 447.076 820.45 447.753 820.45C448.78 820.45 449.83 820.275 450.903 819.925L451.603 824.65C449.876 825.117 448.01 825.35 446.003 825.35ZM456.697 803.65V798.75H463.697V803.65H456.697ZM456.697 825V806.8H463.697V825H456.697ZM470.109 808.97C471.789 807.29 474.158 806.45 477.214 806.45C480.271 806.45 482.639 807.29 484.319 808.97C485.999 810.65 486.839 812.96 486.839 815.9C486.839 818.84 485.999 821.15 484.319 822.83C482.639 824.51 480.271 825.35 477.214 825.35C474.158 825.35 471.789 824.51 470.109 822.83C468.429 821.15 467.589 818.84 467.589 815.9C467.589 812.96 468.429 810.65 470.109 808.97ZM474.869 819.505C475.383 820.228 476.164 820.59 477.214 820.59C478.264 820.59 479.046 820.228 479.559 819.505C480.073 818.782 480.329 817.58 480.329 815.9C480.329 814.22 480.073 813.018 479.559 812.295C479.046 811.572 478.264 811.21 477.214 811.21C476.164 811.21 475.383 811.572 474.869 812.295C474.356 813.018 474.099 814.22 474.099 815.9C474.099 817.58 474.356 818.782 474.869 819.505ZM496.375 809.25C497.028 808.387 497.833 807.71 498.79 807.22C499.77 806.707 500.762 806.45 501.765 806.45C504.075 806.45 505.732 807.103 506.735 808.41C507.738 809.693 508.24 811.957 508.24 815.2V825H501.66V815.9C501.66 814.15 501.497 812.983 501.17 812.4C500.867 811.817 500.307 811.525 499.49 811.525C498.767 811.525 498.113 811.922 497.53 812.715C496.97 813.508 496.69 814.453 496.69 815.55V825H490.04V806.8H496.165L496.305 809.25H496.375Z" fill="white"/>
<defs>
<filter id="filter0_d_612_87" x="-295.9" y="39.1" width="1043.8" height="998.3" filterUnits="userSpaceOnUse" color-interpolation-filters="sRGB">
<feFlood flood-opacity="0" result="BackgroundImageFix"/>
<feColorMatrix in="SourceAlpha" type="matrix" values="0 0 0 0 0 0 0 0 0 0 0 0 0 0 0 0 0 0 127 0" result="hardAlpha"/>
<feOffset/>
<feGaussianBlur stdDeviation="34.95"/>
<feComposite in2="hardAlpha" operator="out"/>
<feColorMatrix type="matrix" values="0 0 0 0 0 0 0 0 0 0 0 0 0 0 0 0 0 0 0.15 0"/>
<feBlend mode="normal" in2="BackgroundImageFix" result="effect1_dropShadow_612_87"/>
<feBlend mode="normal" in="SourceGraphic" in2="effect1_dropShadow_612_87" result="shape"/>
</filter>
<linearGradient id="paint0_linear_612_87" x1="214.768" y1="73.5" x2="214.768" y2="967.5" gradientUnits="userSpaceOnUse">
<stop stop-color="#FAC91D" stop-opacity="0.91"/>
<stop offset="1" stop-color="#CBAD42" stop-opacity="0.4"/>
</linearGradient>
</defs>
</svg>
