<svg width="642" height="900" viewBox="0 0 642 900" fill="none" xmlns="http://www.w3.org/2000/svg">
<rect x="2.01953" width="639.02" height="900" fill="#581451"/>
<mask id="mask0_713_8" style="mask-type:alpha" maskUnits="userSpaceOnUse" x="2" y="0" width="640" height="900">
<rect x="2.01953" width="639.02" height="900" fill="white"/>
</mask>
<g mask="url(#mask0_713_8)">
<path d="M11.2495 103.194L101.572 93.7007L106.972 145.48L16.6492 154.973L11.2495 103.194ZM159.962 34.4528L217.405 28.4152L254.651 385.578L197.208 391.616L159.962 34.4528ZM-18.0081 229.303L4.86646 184.869C32.4406 196.49 70.3691 215.811 88.3932 231.111L64.1808 281.035C47.1722 264.483 10.1409 242.774 -18.0081 229.303ZM6.74713 49.0279L62.7277 54.6069C50.7779 134.192 23.5374 210.035 -14.178 258.704C-24.9892 250.288 -49.9341 234.569 -63.611 227.983C-25.942 186.196 -1.99154 119.105 6.74713 49.0279ZM154.8 127.844C188.741 178.534 250.112 224.812 314.889 245.132C302.844 257.861 287.408 282.027 279.875 297.721C212.042 270.08 152.032 214.87 110.09 149.737L154.8 127.844ZM86.4553 95.2895L96.6591 94.2171L105.91 91.3343L143.451 99.6155C136.746 247.808 88.794 352.192 11.7125 408.055C1.3812 396.914 -21.95 378.351 -36.4221 371.467C40.0774 321.014 84.0159 233.099 87.7165 107.384L86.4553 95.2895ZM537.947 152.911L598.636 163.345C564.385 270.874 485.824 334.535 374.987 374.459C367.143 361.528 347.079 337.654 334.819 326.334C442.326 294.784 514.393 242.122 537.947 152.911ZM410.194 100.237L469.546 116.16C445.962 153.791 407.041 194.563 374.558 220.138C362.755 209.534 338.251 190.712 323.621 182.316C357.033 161.992 391.908 130.051 410.194 100.237ZM461.426 162.865C502.283 239.574 577.023 282.155 694.479 287.386C683.308 301.169 669.997 327.404 664.055 343.695C537.237 332.952 464.575 280.982 410.134 183.921L461.426 162.865ZM317.873 57.5933L654.977 22.1623L660.573 75.8313L323.47 111.262L317.873 57.5933ZM453.029 1.7397L509.717 -4.21843L517.718 72.5055L461.03 78.4636L453.029 1.7397ZM526.109 116.328L567.99 78.3024C601.982 96.509 650.383 124.664 674.825 146.549L629.259 189.547C608.258 167.683 561.51 137.062 526.109 116.328ZM256.107 670.648L310.527 664.928L337.841 926.847L283.421 932.567L256.107 670.648ZM284.451 667.669L461.316 649.079L473.022 761.331L296.157 779.92L291.309 733.432L412.998 720.642L410.988 701.366L289.299 714.156L284.451 667.669ZM296.497 797.842L497.928 776.671L511.526 907.064L456.349 912.863L447.718 830.092L301.463 845.464L296.497 797.842ZM305.34 867.982L482.584 849.353L487.55 896.975L310.306 915.604L305.34 867.982ZM319.53 568.076L378.485 561.88L386.132 635.202L327.176 641.399L319.53 568.076ZM186.758 606.485L517.058 571.769L527.542 672.304L471.233 678.222L466.109 629.089L245.782 652.246L250.906 701.38L197.242 707.02L186.758 606.485Z" fill="#9C2B76"/>
<g filter="url(#filter0_d_713_8)">
<path d="M239.001 110L314.501 54L422.501 110L442.75 168.625L470.5 194L459.5 224L470.5 257.5L416.5 351L534 417L667.5 869.5L791 918L-48 909L138.5 445L250.5 351L217 208L239.001 110Z" fill="url(#paint0_linear_713_8)" shape-rendering="crispEdges"/>
</g>
</g>
<path d="M78.8801 685C80.4134 685.333 81.9134 685.5 83.3801 685.5C95.3801 685.5 101.38 677.833 101.38 662.5C101.38 648.5 95.3801 641.5 83.3801 641.5C81.9134 641.5 80.4134 641.667 78.8801 642V685ZM120.38 662.5C120.38 674.7 116.947 684.167 110.08 690.9C103.213 697.633 93.6467 701 81.3801 701C73.5801 701 66.2467 700.5 59.3801 699.5V627.5C66.2467 626.5 73.5801 626 81.3801 626C93.6467 626 103.213 629.267 110.08 635.8C116.947 642.267 120.38 651.167 120.38 662.5ZM131.474 700V627H153.474V700H131.474ZM188.548 677.2V700H169.048V627.5C175.915 626.5 183.248 626 191.048 626C213.715 626 225.048 634.167 225.048 650.5C225.048 659.367 222.481 666.1 217.348 670.7C212.281 675.233 204.848 677.5 195.048 677.5C192.448 677.5 190.281 677.4 188.548 677.2ZM188.548 662.7C189.815 662.9 191.315 663 193.048 663C197.381 663 200.715 662 203.048 660C205.381 658 206.548 655.167 206.548 651.5C206.548 644.5 202.048 641 193.048 641C191.581 641 190.081 641.167 188.548 641.5V662.7ZM255.173 627V683.5H284.673V700H234.673V627H255.173ZM297.402 636.1C304.202 629.367 313.335 626 324.802 626C336.269 626 345.369 629.367 352.102 636.1C358.902 642.767 362.302 651.9 362.302 663.5C362.302 675.1 358.902 684.267 352.102 691C345.369 697.667 336.269 701 324.802 701C313.335 701 304.202 697.667 297.402 691C290.669 684.267 287.302 675.1 287.302 663.5C287.302 651.9 290.669 642.767 297.402 636.1ZM307.802 663.5C307.802 677.5 313.469 684.5 324.802 684.5C336.135 684.5 341.802 677.5 341.802 663.5C341.802 649.5 336.135 642.5 324.802 642.5C313.469 642.5 307.802 649.5 307.802 663.5ZM429.168 660H428.968L419.168 685H401.168L391.368 660H391.168V700H372.368V627H393.168L410.068 670H410.268L427.168 627H448.368V700H429.168V660ZM485.693 671H498.893L492.393 644H492.193L485.693 671ZM482.093 686L478.793 700H457.993L481.993 627H502.993L526.993 700H505.793L502.393 686H482.093ZM583.091 627V643.5H563.291V700H542.891V643.5H523.091V627H583.091Z" fill="white"/>
<path d="M50.7144 724.1V729.05H44.7744V746H38.6544V729.05H32.7144V724.1H50.7144ZM59.4507 735.8H60.3507C60.3507 735.12 60.2207 734.65 59.9607 734.39C59.7007 734.13 59.2307 734 58.5507 734C56.4507 734 54.4007 734.45 52.4007 735.35L51.6507 731.45C53.8507 730.55 56.2507 730.1 58.8507 730.1C61.4507 730.1 63.3007 730.59 64.4007 731.57C65.5007 732.53 66.0507 734.14 66.0507 736.4V741.8C66.0507 743.24 66.2007 744.64 66.5007 746H61.1007C60.9807 745.32 60.8807 744.62 60.8007 743.9H60.7407C60.2007 744.62 59.5007 745.2 58.6407 745.64C57.7807 746.08 56.9007 746.3 56.0007 746.3C54.4607 746.3 53.2207 745.88 52.2807 745.04C51.3607 744.18 50.9007 743 50.9007 741.5C50.9007 739.78 51.6307 738.4 53.0907 737.36C54.5707 736.32 56.6907 735.8 59.4507 735.8ZM56.0007 740.9C56.0007 741.8 56.5007 742.25 57.5007 742.25C58.3607 742.25 59.0507 742.01 59.5707 741.53C60.0907 741.05 60.3507 740.39 60.3507 739.55V739.1H59.4507C58.3107 739.1 57.4507 739.27 56.8707 739.61C56.2907 739.93 56.0007 740.36 56.0007 740.9ZM75.9006 739.7H75.8406V746H70.1406V723.5H75.8406V736.1H75.9006L80.0406 730.4H86.4906L80.4906 737.9L86.6406 746H80.1906L75.9006 739.7ZM92.8604 736.7H97.9304C97.9304 734.8 97.0804 733.85 95.3804 733.85C93.8404 733.85 93.0004 734.8 92.8604 736.7ZM92.9204 740C93.2604 741.6 94.4004 742.4 96.3404 742.4C97.8404 742.4 99.2704 742.05 100.63 741.35L101.83 745.1C99.9904 745.9 97.9904 746.3 95.8304 746.3C93.2504 746.3 91.1804 745.57 89.6204 744.11C88.0604 742.65 87.2804 740.68 87.2804 738.2C87.2804 735.7 87.9904 733.73 89.4104 732.29C90.8504 730.83 92.7904 730.1 95.2304 730.1C97.7304 730.1 99.6804 730.81 101.08 732.23C102.48 733.63 103.18 735.62 103.18 738.2C103.18 738.74 103.13 739.34 103.03 740H92.9204ZM121.816 731H121.786L117.316 735.2L115.516 730.1L121.816 724.1H128.116V746H121.816V731ZM157.111 741.11L158.311 745.1C156.591 745.9 154.791 746.3 152.911 746.3C150.151 746.3 147.961 745.57 146.341 744.11C144.721 742.65 143.911 740.68 143.911 738.2C143.911 735.7 144.701 733.73 146.281 732.29C147.881 730.83 150.091 730.1 152.911 730.1C154.851 730.1 156.651 730.5 158.311 731.3L157.111 735.35C155.871 734.59 154.571 734.21 153.211 734.21C152.071 734.21 151.181 734.55 150.541 735.23C149.921 735.91 149.611 736.9 149.611 738.2C149.611 739.46 149.941 740.45 150.601 741.17C151.261 741.89 152.131 742.25 153.211 742.25C154.571 742.25 155.871 741.87 157.111 741.11ZM169.578 735.8H170.478C170.478 735.12 170.348 734.65 170.088 734.39C169.828 734.13 169.358 734 168.678 734C166.578 734 164.528 734.45 162.528 735.35L161.778 731.45C163.978 730.55 166.378 730.1 168.978 730.1C171.578 730.1 173.428 730.59 174.528 731.57C175.628 732.53 176.178 734.14 176.178 736.4V741.8C176.178 743.24 176.328 744.64 176.628 746H171.228C171.108 745.32 171.008 744.62 170.928 743.9H170.868C170.328 744.62 169.628 745.2 168.768 745.64C167.908 746.08 167.028 746.3 166.128 746.3C164.588 746.3 163.348 745.88 162.408 745.04C161.488 744.18 161.028 743 161.028 741.5C161.028 739.78 161.758 738.4 163.218 737.36C164.698 736.32 166.818 735.8 169.578 735.8ZM166.128 740.9C166.128 741.8 166.628 742.25 167.628 742.25C168.488 742.25 169.178 742.01 169.698 741.53C170.218 741.05 170.478 740.39 170.478 739.55V739.1H169.578C168.438 739.1 167.578 739.27 166.998 739.61C166.418 739.93 166.128 740.36 166.128 740.9ZM192.718 730.1V734.6C190.478 734.6 188.788 735.02 187.648 735.86C186.508 736.7 185.938 737.88 185.938 739.4V746H180.118V730.4H185.488L185.518 733.4H185.578C187.298 731.2 189.678 730.1 192.718 730.1ZM194.423 738.2C194.423 735.62 194.973 733.63 196.073 732.23C197.193 730.81 198.693 730.1 200.573 730.1C202.273 730.1 203.703 730.8 204.863 732.2H204.923V723.5H210.623V746H205.373L205.253 743.9H205.193C203.933 745.5 202.393 746.3 200.573 746.3C198.773 746.3 197.293 745.58 196.133 744.14C194.993 742.7 194.423 740.72 194.423 738.2ZM199.823 738.2C199.823 739.4 200.063 740.33 200.543 740.99C201.023 741.63 201.633 741.95 202.373 741.95C203.153 741.95 203.773 741.64 204.233 741.02C204.693 740.4 204.923 739.51 204.923 738.35V738.05C204.923 736.91 204.693 736.03 204.233 735.41C203.773 734.77 203.153 734.45 202.373 734.45C201.573 734.45 200.943 734.77 200.483 735.41C200.043 736.03 199.823 736.96 199.823 738.2ZM218.891 749.3H214.091L215.891 739.7H222.491L218.891 749.3ZM242.984 740.9H243.044L245.864 730.4H251.864L243.764 752.6H237.764L240.464 746L234.464 730.4H240.764L242.984 740.9ZM254.792 732.26C256.232 730.82 258.262 730.1 260.882 730.1C263.502 730.1 265.532 730.82 266.972 732.26C268.412 733.7 269.132 735.68 269.132 738.2C269.132 740.72 268.412 742.7 266.972 744.14C265.532 745.58 263.502 746.3 260.882 746.3C258.262 746.3 256.232 745.58 254.792 744.14C253.352 742.7 252.632 740.72 252.632 738.2C252.632 735.68 253.352 733.7 254.792 732.26ZM258.872 741.29C259.312 741.91 259.982 742.22 260.882 742.22C261.782 742.22 262.452 741.91 262.892 741.29C263.332 740.67 263.552 739.64 263.552 738.2C263.552 736.76 263.332 735.73 262.892 735.11C262.452 734.49 261.782 734.18 260.882 734.18C259.982 734.18 259.312 734.49 258.872 735.11C258.432 735.73 258.212 736.76 258.212 738.2C258.212 739.64 258.432 740.67 258.872 741.29ZM281.595 743.9C281.035 744.64 280.335 745.23 279.495 745.67C278.675 746.09 277.835 746.3 276.975 746.3C275.095 746.3 273.745 745.81 272.925 744.83C272.125 743.85 271.725 742.14 271.725 739.7V730.4H277.365V739.1C277.365 740.26 277.475 741.03 277.695 741.41C277.915 741.77 278.325 741.95 278.925 741.95C279.545 741.95 280.095 741.61 280.575 740.93C281.075 740.25 281.325 739.44 281.325 738.5V730.4H287.025V746H281.775L281.655 743.9H281.595ZM317.992 746V737.3C317.992 736.1 317.882 735.31 317.662 734.93C317.442 734.55 317.042 734.36 316.462 734.36C315.942 734.36 315.512 734.62 315.172 735.14C314.832 735.64 314.662 736.36 314.662 737.3V746H309.202V737.3C309.202 736.1 309.092 735.31 308.872 734.93C308.672 734.55 308.282 734.36 307.702 734.36C307.182 734.36 306.752 734.62 306.412 735.14C306.072 735.64 305.902 736.36 305.902 737.3V746H300.352V730.4H305.452L305.572 732.5H305.632C306.192 731.76 306.842 731.18 307.582 730.76C308.322 730.32 309.062 730.1 309.802 730.1C310.762 730.1 311.522 730.27 312.082 730.61C312.662 730.93 313.192 731.51 313.672 732.35H313.732C314.592 731.51 315.382 730.93 316.102 730.61C316.822 730.27 317.642 730.1 318.562 730.1C320.282 730.1 321.522 730.57 322.282 731.51C323.062 732.45 323.452 734.08 323.452 736.4V746H317.992ZM334.871 735.8H335.771C335.771 735.12 335.641 734.65 335.381 734.39C335.121 734.13 334.651 734 333.971 734C331.871 734 329.821 734.45 327.821 735.35L327.071 731.45C329.271 730.55 331.671 730.1 334.271 730.1C336.871 730.1 338.721 730.59 339.821 731.57C340.921 732.53 341.471 734.14 341.471 736.4V741.8C341.471 743.24 341.621 744.64 341.921 746H336.521C336.401 745.32 336.301 744.62 336.221 743.9H336.161C335.621 744.62 334.921 745.2 334.061 745.64C333.201 746.08 332.321 746.3 331.421 746.3C329.881 746.3 328.641 745.88 327.701 745.04C326.781 744.18 326.321 743 326.321 741.5C326.321 739.78 327.051 738.4 328.511 737.36C329.991 736.32 332.111 735.8 334.871 735.8ZM331.421 740.9C331.421 741.8 331.921 742.25 332.921 742.25C333.781 742.25 334.471 742.01 334.991 741.53C335.511 741.05 335.771 740.39 335.771 739.55V739.1H334.871C333.731 739.1 332.871 739.27 332.291 739.61C331.711 739.93 331.421 740.36 331.421 740.9ZM351.822 740.9H351.882L354.702 730.4H360.702L352.602 752.6H346.602L349.302 746L343.302 730.4H349.602L351.822 740.9ZM381.082 746.3C379.102 746.3 377.632 745.85 376.672 744.95C375.712 744.03 375.232 742.58 375.232 740.6V734.9H372.082V731H375.232V725.3H381.052V731H385.882V734.9H381.052V739.7C381.052 740.66 381.162 741.3 381.382 741.62C381.602 741.94 382.002 742.1 382.582 742.1C383.462 742.1 384.362 741.95 385.282 741.65L385.882 745.7C384.402 746.1 382.802 746.3 381.082 746.3ZM397.156 735.8H398.056C398.056 735.12 397.926 734.65 397.666 734.39C397.406 734.13 396.936 734 396.256 734C394.156 734 392.106 734.45 390.106 735.35L389.356 731.45C391.556 730.55 393.956 730.1 396.556 730.1C399.156 730.1 401.006 730.59 402.106 731.57C403.206 732.53 403.756 734.14 403.756 736.4V741.8C403.756 743.24 403.906 744.64 404.206 746H398.806C398.686 745.32 398.586 744.62 398.506 743.9H398.446C397.906 744.62 397.206 745.2 396.346 745.64C395.486 746.08 394.606 746.3 393.706 746.3C392.166 746.3 390.926 745.88 389.986 745.04C389.066 744.18 388.606 743 388.606 741.5C388.606 739.78 389.336 738.4 390.796 737.36C392.276 736.32 394.396 735.8 397.156 735.8ZM393.706 740.9C393.706 741.8 394.206 742.25 395.206 742.25C396.066 742.25 396.756 742.01 397.276 741.53C397.796 741.05 398.056 740.39 398.056 739.55V739.1H397.156C396.016 739.1 395.156 739.27 394.576 739.61C393.996 739.93 393.706 740.36 393.706 740.9ZM413.606 739.7H413.546V746H407.846V723.5H413.546V736.1H413.606L417.746 730.4H424.196L418.196 737.9L424.346 746H417.896L413.606 739.7ZM430.566 736.7H435.636C435.636 734.8 434.786 733.85 433.086 733.85C431.546 733.85 430.706 734.8 430.566 736.7ZM430.626 740C430.966 741.6 432.106 742.4 434.046 742.4C435.546 742.4 436.976 742.05 438.336 741.35L439.536 745.1C437.696 745.9 435.696 746.3 433.536 746.3C430.956 746.3 428.886 745.57 427.326 744.11C425.766 742.65 424.986 740.68 424.986 738.2C424.986 735.7 425.696 733.73 427.116 732.29C428.556 730.83 430.496 730.1 432.936 730.1C435.436 730.1 437.386 730.81 438.786 732.23C440.186 733.63 440.886 735.62 440.886 738.2C440.886 738.74 440.836 739.34 440.736 740H430.626ZM461.111 735.8H462.011C462.011 735.12 461.881 734.65 461.621 734.39C461.361 734.13 460.891 734 460.211 734C458.111 734 456.061 734.45 454.061 735.35L453.311 731.45C455.511 730.55 457.911 730.1 460.511 730.1C463.111 730.1 464.961 730.59 466.061 731.57C467.161 732.53 467.711 734.14 467.711 736.4V741.8C467.711 743.24 467.861 744.64 468.161 746H462.761C462.641 745.32 462.541 744.62 462.461 743.9H462.401C461.861 744.62 461.161 745.2 460.301 745.64C459.441 746.08 458.561 746.3 457.661 746.3C456.121 746.3 454.881 745.88 453.941 745.04C453.021 744.18 452.561 743 452.561 741.5C452.561 739.78 453.291 738.4 454.751 737.36C456.231 736.32 458.351 735.8 461.111 735.8ZM457.661 740.9C457.661 741.8 458.161 742.25 459.161 742.25C460.021 742.25 460.711 742.01 461.231 741.53C461.751 741.05 462.011 740.39 462.011 739.55V739.1H461.111C459.971 739.1 459.111 739.27 458.531 739.61C457.951 739.93 457.661 740.36 457.661 740.9ZM470.751 738.2C470.751 735.62 471.301 733.63 472.401 732.23C473.521 730.81 475.021 730.1 476.901 730.1C478.601 730.1 480.031 730.8 481.191 732.2H481.251V723.5H486.951V746H481.701L481.581 743.9H481.521C480.261 745.5 478.721 746.3 476.901 746.3C475.101 746.3 473.621 745.58 472.461 744.14C471.321 742.7 470.751 740.72 470.751 738.2ZM476.151 738.2C476.151 739.4 476.391 740.33 476.871 740.99C477.351 741.63 477.961 741.95 478.701 741.95C479.481 741.95 480.101 741.64 480.561 741.02C481.021 740.4 481.251 739.51 481.251 738.35V738.05C481.251 736.91 481.021 736.03 480.561 735.41C480.101 734.77 479.481 734.45 478.701 734.45C477.901 734.45 477.271 734.77 476.811 735.41C476.371 736.03 476.151 736.96 476.151 738.2ZM489.969 738.2C489.969 735.62 490.519 733.63 491.619 732.23C492.739 730.81 494.239 730.1 496.119 730.1C497.819 730.1 499.249 730.8 500.409 732.2H500.469V723.5H506.169V746H500.919L500.799 743.9H500.739C499.479 745.5 497.939 746.3 496.119 746.3C494.319 746.3 492.839 745.58 491.679 744.14C490.539 742.7 489.969 740.72 489.969 738.2ZM495.369 738.2C495.369 739.4 495.609 740.33 496.089 740.99C496.569 741.63 497.179 741.95 497.919 741.95C498.699 741.95 499.319 741.64 499.779 741.02C500.239 740.4 500.469 739.51 500.469 738.35V738.05C500.469 736.91 500.239 736.03 499.779 735.41C499.319 734.77 498.699 734.45 497.919 734.45C497.119 734.45 496.489 734.77 496.029 735.41C495.589 736.03 495.369 736.96 495.369 738.2ZM510.688 727.7V723.5H516.688V727.7H510.688ZM510.688 746V730.4H516.688V746H510.688ZM529.325 746.3C527.345 746.3 525.875 745.85 524.915 744.95C523.955 744.03 523.475 742.58 523.475 740.6V734.9H520.325V731H523.475V725.3H529.295V731H534.125V734.9H529.295V739.7C529.295 740.66 529.405 741.3 529.625 741.62C529.845 741.94 530.245 742.1 530.825 742.1C531.705 742.1 532.605 741.95 533.525 741.65L534.125 745.7C532.645 746.1 531.045 746.3 529.325 746.3ZM538.491 727.7V723.5H544.491V727.7H538.491ZM538.491 746V730.4H544.491V746H538.491ZM549.987 732.26C551.427 730.82 553.457 730.1 556.077 730.1C558.697 730.1 560.727 730.82 562.167 732.26C563.607 733.7 564.327 735.68 564.327 738.2C564.327 740.72 563.607 742.7 562.167 744.14C560.727 745.58 558.697 746.3 556.077 746.3C553.457 746.3 551.427 745.58 549.987 744.14C548.547 742.7 547.827 740.72 547.827 738.2C547.827 735.68 548.547 733.7 549.987 732.26ZM554.067 741.29C554.507 741.91 555.177 742.22 556.077 742.22C556.977 742.22 557.647 741.91 558.087 741.29C558.527 740.67 558.747 739.64 558.747 738.2C558.747 736.76 558.527 735.73 558.087 735.11C557.647 734.49 556.977 734.18 556.077 734.18C555.177 734.18 554.507 734.49 554.067 735.11C553.627 735.73 553.407 736.76 553.407 738.2C553.407 739.64 553.627 740.67 554.067 741.29ZM572.501 732.5C573.061 731.76 573.751 731.18 574.571 730.76C575.411 730.32 576.261 730.1 577.121 730.1C579.101 730.1 580.521 730.66 581.381 731.78C582.241 732.88 582.671 734.82 582.671 737.6V746H577.031V738.2C577.031 736.7 576.891 735.7 576.611 735.2C576.351 734.7 575.871 734.45 575.171 734.45C574.551 734.45 573.991 734.79 573.491 735.47C573.011 736.15 572.771 736.96 572.771 737.9V746H567.071V730.4H572.321L572.441 732.5H572.501ZM594.089 735.8H594.989C594.989 735.12 594.859 734.65 594.599 734.39C594.339 734.13 593.869 734 593.189 734C591.089 734 589.039 734.45 587.039 735.35L586.289 731.45C588.489 730.55 590.889 730.1 593.489 730.1C596.089 730.1 597.939 730.59 599.039 731.57C600.139 732.53 600.689 734.14 600.689 736.4V741.8C600.689 743.24 600.839 744.64 601.139 746H595.739C595.619 745.32 595.519 744.62 595.439 743.9H595.379C594.839 744.62 594.139 745.2 593.279 745.64C592.419 746.08 591.539 746.3 590.639 746.3C589.099 746.3 587.859 745.88 586.919 745.04C585.999 744.18 585.539 743 585.539 741.5C585.539 739.78 586.269 738.4 587.729 737.36C589.209 736.32 591.329 735.8 594.089 735.8ZM590.639 740.9C590.639 741.8 591.139 742.25 592.139 742.25C592.999 742.25 593.689 742.01 594.209 741.53C594.729 741.05 594.989 740.39 594.989 739.55V739.1H594.089C592.949 739.1 592.089 739.27 591.509 739.61C590.929 739.93 590.639 740.36 590.639 740.9ZM605.229 746V723.5H611.229V746H605.229ZM69.3818 784.11L70.5818 788.1C68.8618 788.9 67.0618 789.3 65.1818 789.3C62.4218 789.3 60.2318 788.57 58.6118 787.11C56.9918 785.65 56.1818 783.68 56.1818 781.2C56.1818 778.7 56.9718 776.73 58.5518 775.29C60.1518 773.83 62.3618 773.1 65.1818 773.1C67.1218 773.1 68.9218 773.5 70.5818 774.3L69.3818 778.35C68.1418 777.59 66.8418 777.21 65.4818 777.21C64.3418 777.21 63.4518 777.55 62.8118 778.23C62.1918 778.91 61.8818 779.9 61.8818 781.2C61.8818 782.46 62.2118 783.45 62.8718 784.17C63.5318 784.89 64.4018 785.25 65.4818 785.25C66.8418 785.25 68.1418 784.87 69.3818 784.11ZM81.8482 778.8H82.7482C82.7482 778.12 82.6182 777.65 82.3582 777.39C82.0982 777.13 81.6282 777 80.9482 777C78.8482 777 76.7982 777.45 74.7982 778.35L74.0482 774.45C76.2482 773.55 78.6482 773.1 81.2482 773.1C83.8482 773.1 85.6982 773.59 86.7982 774.57C87.8982 775.53 88.4482 777.14 88.4482 779.4V784.8C88.4482 786.24 88.5982 787.64 88.8982 789H83.4982C83.3782 788.32 83.2782 787.62 83.1982 786.9H83.1382C82.5982 787.62 81.8982 788.2 81.0382 788.64C80.1782 789.08 79.2982 789.3 78.3982 789.3C76.8582 789.3 75.6182 788.88 74.6782 788.04C73.7582 787.18 73.2982 786 73.2982 784.5C73.2982 782.78 74.0282 781.4 75.4882 780.36C76.9682 779.32 79.0882 778.8 81.8482 778.8ZM78.3982 783.9C78.3982 784.8 78.8982 785.25 79.8982 785.25C80.7582 785.25 81.4482 785.01 81.9682 784.53C82.4882 784.05 82.7482 783.39 82.7482 782.55V782.1H81.8482C80.7082 782.1 79.8482 782.27 79.2682 782.61C78.6882 782.93 78.3982 783.36 78.3982 783.9ZM104.988 773.1V777.6C102.748 777.6 101.058 778.02 99.918 778.86C98.778 779.7 98.208 780.88 98.208 782.4V789H92.388V773.4H97.758L97.788 776.4H97.848C99.568 774.2 101.948 773.1 104.988 773.1ZM106.693 781.2C106.693 778.62 107.243 776.63 108.343 775.23C109.463 773.81 110.963 773.1 112.843 773.1C114.543 773.1 115.973 773.8 117.133 775.2H117.193V766.5H122.893V789H117.643L117.523 786.9H117.463C116.203 788.5 114.663 789.3 112.843 789.3C111.043 789.3 109.563 788.58 108.403 787.14C107.263 785.7 106.693 783.72 106.693 781.2ZM112.093 781.2C112.093 782.4 112.333 783.33 112.813 783.99C113.293 784.63 113.903 784.95 114.643 784.95C115.423 784.95 116.043 784.64 116.503 784.02C116.963 783.4 117.193 782.51 117.193 781.35V781.05C117.193 779.91 116.963 779.03 116.503 778.41C116.043 777.77 115.423 777.45 114.643 777.45C113.843 777.45 113.213 777.77 112.753 778.41C112.313 779.03 112.093 779.96 112.093 781.2ZM139.262 778.11C137.442 777.45 135.742 777.12 134.162 777.12C133.302 777.12 132.712 777.2 132.392 777.36C132.072 777.5 131.912 777.73 131.912 778.05C131.912 778.35 132.042 778.58 132.302 778.74C132.562 778.9 133.032 779.02 133.712 779.1C136.172 779.4 137.932 779.98 138.992 780.84C140.072 781.7 140.612 782.87 140.612 784.35C140.612 785.87 140.002 787.08 138.782 787.98C137.582 788.86 135.842 789.3 133.562 789.3C130.862 789.3 128.412 788.8 126.212 787.8L127.262 783.78C129.062 784.74 130.962 785.22 132.962 785.22C134.262 785.22 134.912 784.88 134.912 784.2C134.912 783.94 134.812 783.76 134.612 783.66C134.412 783.56 133.912 783.44 133.112 783.3C130.692 782.92 128.962 782.3 127.922 781.44C126.882 780.56 126.362 779.38 126.362 777.9C126.362 776.4 126.962 775.23 128.162 774.39C129.362 773.53 131.162 773.1 133.562 773.1C135.942 773.1 138.192 773.45 140.312 774.15L139.262 778.11ZM162.805 766.8C164.085 766.8 165.435 766.95 166.855 767.25L166.105 771.45C165.385 771.15 164.635 771 163.855 771C163.155 771 162.675 771.17 162.415 771.51C162.155 771.83 162.025 772.46 162.025 773.4V774H166.555V777.9H162.025V789H156.205V777.9H152.755V774H156.205V773.4C156.205 771.26 156.775 769.63 157.915 768.51C159.055 767.37 160.685 766.8 162.805 766.8ZM170.402 775.26C171.842 773.82 173.872 773.1 176.492 773.1C179.112 773.1 181.142 773.82 182.582 775.26C184.022 776.7 184.742 778.68 184.742 781.2C184.742 783.72 184.022 785.7 182.582 787.14C181.142 788.58 179.112 789.3 176.492 789.3C173.872 789.3 171.842 788.58 170.402 787.14C168.962 785.7 168.242 783.72 168.242 781.2C168.242 778.68 168.962 776.7 170.402 775.26ZM174.482 784.29C174.922 784.91 175.592 785.22 176.492 785.22C177.392 785.22 178.062 784.91 178.502 784.29C178.942 783.67 179.162 782.64 179.162 781.2C179.162 779.76 178.942 778.73 178.502 778.11C178.062 777.49 177.392 777.18 176.492 777.18C175.592 777.18 174.922 777.49 174.482 778.11C174.042 778.73 173.822 779.76 173.822 781.2C173.822 782.64 174.042 783.67 174.482 784.29ZM200.086 773.1V777.6C197.846 777.6 196.156 778.02 195.016 778.86C193.876 779.7 193.306 780.88 193.306 782.4V789H187.486V773.4H192.856L192.886 776.4H192.946C194.666 774.2 197.046 773.1 200.086 773.1ZM219.038 774H219.008L214.538 778.2L212.738 773.1L219.038 767.1H225.338V789H219.038V774ZM254.333 784.11L255.533 788.1C253.813 788.9 252.013 789.3 250.133 789.3C247.373 789.3 245.183 788.57 243.563 787.11C241.943 785.65 241.133 783.68 241.133 781.2C241.133 778.7 241.923 776.73 243.503 775.29C245.103 773.83 247.313 773.1 250.133 773.1C252.073 773.1 253.873 773.5 255.533 774.3L254.333 778.35C253.093 777.59 251.793 777.21 250.433 777.21C249.293 777.21 248.403 777.55 247.763 778.23C247.143 778.91 246.833 779.9 246.833 781.2C246.833 782.46 247.163 783.45 247.823 784.17C248.483 784.89 249.353 785.25 250.433 785.25C251.793 785.25 253.093 784.87 254.333 784.11ZM260.109 775.26C261.549 773.82 263.579 773.1 266.199 773.1C268.819 773.1 270.849 773.82 272.289 775.26C273.729 776.7 274.449 778.68 274.449 781.2C274.449 783.72 273.729 785.7 272.289 787.14C270.849 788.58 268.819 789.3 266.199 789.3C263.579 789.3 261.549 788.58 260.109 787.14C258.669 785.7 257.949 783.72 257.949 781.2C257.949 778.68 258.669 776.7 260.109 775.26ZM264.189 784.29C264.629 784.91 265.299 785.22 266.199 785.22C267.099 785.22 267.769 784.91 268.209 784.29C268.649 783.67 268.869 782.64 268.869 781.2C268.869 779.76 268.649 778.73 268.209 778.11C267.769 777.49 267.099 777.18 266.199 777.18C265.299 777.18 264.629 777.49 264.189 778.11C263.749 778.73 263.529 779.76 263.529 781.2C263.529 782.64 263.749 783.67 264.189 784.29ZM277.793 770.7V766.5H283.793V770.7H277.793ZM277.793 789V773.4H283.793V789H277.793ZM293.609 775.5C294.169 774.76 294.859 774.18 295.679 773.76C296.519 773.32 297.369 773.1 298.229 773.1C300.209 773.1 301.629 773.66 302.489 774.78C303.349 775.88 303.779 777.82 303.779 780.6V789H298.139V781.2C298.139 779.7 297.999 778.7 297.719 778.2C297.459 777.7 296.979 777.45 296.279 777.45C295.659 777.45 295.099 777.79 294.599 778.47C294.119 779.15 293.879 779.96 293.879 780.9V789H288.179V773.4H293.429L293.549 775.5H293.609ZM321.479 779.7H326.549C326.549 777.8 325.699 776.85 323.999 776.85C322.459 776.85 321.619 777.8 321.479 779.7ZM321.539 783C321.879 784.6 323.019 785.4 324.959 785.4C326.459 785.4 327.889 785.05 329.249 784.35L330.449 788.1C328.609 788.9 326.609 789.3 324.449 789.3C321.869 789.3 319.799 788.57 318.239 787.11C316.679 785.65 315.899 783.68 315.899 781.2C315.899 778.7 316.609 776.73 318.029 775.29C319.469 773.83 321.409 773.1 323.849 773.1C326.349 773.1 328.299 773.81 329.699 775.23C331.099 776.63 331.799 778.62 331.799 781.2C331.799 781.74 331.749 782.34 331.649 783H321.539ZM342.473 778.8H343.373C343.373 778.12 343.243 777.65 342.983 777.39C342.723 777.13 342.253 777 341.573 777C339.473 777 337.423 777.45 335.423 778.35L334.673 774.45C336.873 773.55 339.273 773.1 341.873 773.1C344.473 773.1 346.323 773.59 347.423 774.57C348.523 775.53 349.073 777.14 349.073 779.4V784.8C349.073 786.24 349.223 787.64 349.523 789H344.123C344.003 788.32 343.903 787.62 343.823 786.9H343.763C343.223 787.62 342.523 788.2 341.663 788.64C340.803 789.08 339.923 789.3 339.023 789.3C337.483 789.3 336.243 788.88 335.303 788.04C334.383 787.18 333.923 786 333.923 784.5C333.923 782.78 334.653 781.4 336.113 780.36C337.593 779.32 339.713 778.8 342.473 778.8ZM339.023 783.9C339.023 784.8 339.523 785.25 340.523 785.25C341.383 785.25 342.073 785.01 342.593 784.53C343.113 784.05 343.373 783.39 343.373 782.55V782.1H342.473C341.333 782.1 340.473 782.27 339.893 782.61C339.313 782.93 339.023 783.36 339.023 783.9ZM365.163 784.11L366.363 788.1C364.643 788.9 362.843 789.3 360.963 789.3C358.203 789.3 356.013 788.57 354.393 787.11C352.773 785.65 351.963 783.68 351.963 781.2C351.963 778.7 352.753 776.73 354.333 775.29C355.933 773.83 358.143 773.1 360.963 773.1C362.903 773.1 364.703 773.5 366.363 774.3L365.163 778.35C363.923 777.59 362.623 777.21 361.263 777.21C360.123 777.21 359.233 777.55 358.593 778.23C357.973 778.91 357.663 779.9 357.663 781.2C357.663 782.46 357.993 783.45 358.653 784.17C359.313 784.89 360.183 785.25 361.263 785.25C362.623 785.25 363.923 784.87 365.163 784.11ZM385.579 780.6V789H379.939V781.2C379.939 779.7 379.799 778.7 379.519 778.2C379.259 777.7 378.779 777.45 378.079 777.45C377.459 777.45 376.899 777.79 376.399 778.47C375.919 779.15 375.679 779.96 375.679 780.9V789H369.979V766.5H375.679V775.2H375.739C376.239 774.56 376.879 774.05 377.659 773.67C378.439 773.29 379.229 773.1 380.029 773.1C382.009 773.1 383.429 773.66 384.289 774.78C385.149 775.88 385.579 777.82 385.579 780.6ZM389.824 789V782.7H396.424V789H389.824ZM416.497 781.35V789H410.647V767.25C413.247 766.95 415.847 766.8 418.447 766.8C424.447 766.8 427.447 769.05 427.447 773.55C427.447 774.81 427.057 775.98 426.277 777.06C425.497 778.14 424.487 778.91 423.247 779.37V779.43C423.847 779.77 424.347 780.21 424.747 780.75C425.147 781.27 425.527 782.02 425.887 783L428.047 789H421.897L420.037 783.3C419.817 782.6 419.537 782.1 419.197 781.8C418.857 781.5 418.407 781.35 417.847 781.35H416.497ZM416.497 777H418.147C419.167 777 419.967 776.75 420.547 776.25C421.147 775.73 421.447 775.03 421.447 774.15C421.447 772.25 420.347 771.3 418.147 771.3C417.507 771.3 416.957 771.35 416.497 771.45V777ZM434.858 779.7H439.928C439.928 777.8 439.078 776.85 437.378 776.85C435.838 776.85 434.998 777.8 434.858 779.7ZM434.918 783C435.258 784.6 436.398 785.4 438.338 785.4C439.838 785.4 441.268 785.05 442.628 784.35L443.828 788.1C441.988 788.9 439.988 789.3 437.828 789.3C435.248 789.3 433.178 788.57 431.618 787.11C430.058 785.65 429.278 783.68 429.278 781.2C429.278 778.7 429.988 776.73 431.408 775.29C432.848 773.83 434.788 773.1 437.228 773.1C439.728 773.1 441.678 773.81 443.078 775.23C444.478 776.63 445.178 778.62 445.178 781.2C445.178 781.74 445.128 782.34 445.028 783H434.918ZM456.009 789.3C454.029 789.3 452.559 788.85 451.599 787.95C450.639 787.03 450.159 785.58 450.159 783.6V777.9H447.009V774H450.159V768.3H455.979V774H460.809V777.9H455.979V782.7C455.979 783.66 456.089 784.3 456.309 784.62C456.529 784.94 456.929 785.1 457.509 785.1C458.389 785.1 459.289 784.95 460.209 784.65L460.809 788.7C459.329 789.1 457.729 789.3 456.009 789.3ZM474.296 786.9C473.736 787.64 473.036 788.23 472.196 788.67C471.376 789.09 470.536 789.3 469.676 789.3C467.796 789.3 466.446 788.81 465.626 787.83C464.826 786.85 464.426 785.14 464.426 782.7V773.4H470.066V782.1C470.066 783.26 470.176 784.03 470.396 784.41C470.616 784.77 471.026 784.95 471.626 784.95C472.246 784.95 472.796 784.61 473.276 783.93C473.776 783.25 474.026 782.44 474.026 781.5V773.4H479.726V789H474.476L474.356 786.9H474.296ZM496.101 773.1V777.6C493.861 777.6 492.171 778.02 491.031 778.86C489.891 779.7 489.321 780.88 489.321 782.4V789H483.501V773.4H488.871L488.901 776.4H488.961C490.681 774.2 493.061 773.1 496.101 773.1ZM504.722 775.5C505.282 774.76 505.972 774.18 506.792 773.76C507.632 773.32 508.482 773.1 509.342 773.1C511.322 773.1 512.742 773.66 513.602 774.78C514.462 775.88 514.892 777.82 514.892 780.6V789H509.252V781.2C509.252 779.7 509.112 778.7 508.832 778.2C508.572 777.7 508.092 777.45 507.392 777.45C506.772 777.45 506.212 777.79 505.712 778.47C505.232 779.15 504.992 779.96 504.992 780.9V789H499.292V773.4H504.542L504.662 775.5H504.722ZM536.312 789.3C534.332 789.3 532.862 788.85 531.902 787.95C530.942 787.03 530.462 785.58 530.462 783.6V777.9H527.312V774H530.462V768.3H536.282V774H541.112V777.9H536.282V782.7C536.282 783.66 536.392 784.3 536.612 784.62C536.832 784.94 537.232 785.1 537.812 785.1C538.692 785.1 539.592 784.95 540.512 784.65L541.112 788.7C539.632 789.1 538.032 789.3 536.312 789.3ZM560.628 780.6V789H554.988V781.2C554.988 779.7 554.848 778.7 554.568 778.2C554.308 777.7 553.828 777.45 553.128 777.45C552.508 777.45 551.948 777.79 551.448 778.47C550.968 779.15 550.728 779.96 550.728 780.9V789H545.028V766.5H550.728V775.2H550.788C551.288 774.56 551.928 774.05 552.708 773.67C553.488 773.29 554.278 773.1 555.078 773.1C557.058 773.1 558.478 773.66 559.338 774.78C560.198 775.88 560.628 777.82 560.628 780.6ZM568.803 779.7H573.873C573.873 777.8 573.023 776.85 571.323 776.85C569.783 776.85 568.943 777.8 568.803 779.7ZM568.863 783C569.203 784.6 570.343 785.4 572.283 785.4C573.783 785.4 575.213 785.05 576.573 784.35L577.773 788.1C575.933 788.9 573.933 789.3 571.773 789.3C569.193 789.3 567.123 788.57 565.563 787.11C564.003 785.65 563.223 783.68 563.223 781.2C563.223 778.7 563.933 776.73 565.353 775.29C566.793 773.83 568.733 773.1 571.173 773.1C573.673 773.1 575.623 773.81 577.023 775.23C578.423 776.63 579.123 778.62 579.123 781.2C579.123 781.74 579.073 782.34 578.973 783H568.863ZM62.6066 821.11C60.7866 820.45 59.0866 820.12 57.5066 820.12C56.6466 820.12 56.0566 820.2 55.7366 820.36C55.4166 820.5 55.2566 820.73 55.2566 821.05C55.2566 821.35 55.3866 821.58 55.6466 821.74C55.9066 821.9 56.3766 822.02 57.0566 822.1C59.5166 822.4 61.2766 822.98 62.3366 823.84C63.4166 824.7 63.9566 825.87 63.9566 827.35C63.9566 828.87 63.3466 830.08 62.1266 830.98C60.9266 831.86 59.1866 832.3 56.9066 832.3C54.2066 832.3 51.7566 831.8 49.5566 830.8L50.6066 826.78C52.4066 827.74 54.3066 828.22 56.3066 828.22C57.6066 828.22 58.2566 827.88 58.2566 827.2C58.2566 826.94 58.1566 826.76 57.9566 826.66C57.7566 826.56 57.2566 826.44 56.4566 826.3C54.0366 825.92 52.3066 825.3 51.2666 824.44C50.2266 823.56 49.7066 822.38 49.7066 820.9C49.7066 819.4 50.3066 818.23 51.5066 817.39C52.7066 816.53 54.5066 816.1 56.9066 816.1C59.2866 816.1 61.5366 816.45 63.6566 817.15L62.6066 821.11ZM74.9488 821.8H75.8488C75.8488 821.12 75.7188 820.65 75.4588 820.39C75.1988 820.13 74.7288 820 74.0488 820C71.9488 820 69.8988 820.45 67.8988 821.35L67.1488 817.45C69.3488 816.55 71.7488 816.1 74.3488 816.1C76.9488 816.1 78.7988 816.59 79.8988 817.57C80.9988 818.53 81.5488 820.14 81.5488 822.4V827.8C81.5488 829.24 81.6988 830.64 81.9988 832H76.5988C76.4788 831.32 76.3788 830.62 76.2988 829.9H76.2388C75.6988 830.62 74.9988 831.2 74.1388 831.64C73.2788 832.08 72.3988 832.3 71.4988 832.3C69.9588 832.3 68.7188 831.88 67.7788 831.04C66.8588 830.18 66.3988 829 66.3988 827.5C66.3988 825.78 67.1288 824.4 68.5888 823.36C70.0688 822.32 72.1888 821.8 74.9488 821.8ZM71.4988 826.9C71.4988 827.8 71.9988 828.25 72.9988 828.25C73.8588 828.25 74.5488 828.01 75.0688 827.53C75.5888 827.05 75.8488 826.39 75.8488 825.55V825.1H74.9488C73.8088 825.1 72.9488 825.27 72.3688 825.61C71.7888 825.93 71.4988 826.36 71.4988 826.9ZM103.129 832V823.3C103.129 822.1 103.019 821.31 102.799 820.93C102.579 820.55 102.179 820.36 101.599 820.36C101.079 820.36 100.649 820.62 100.309 821.14C99.9686 821.64 99.7986 822.36 99.7986 823.3V832H94.3386V823.3C94.3386 822.1 94.2286 821.31 94.0086 820.93C93.8086 820.55 93.4186 820.36 92.8386 820.36C92.3186 820.36 91.8886 820.62 91.5486 821.14C91.2086 821.64 91.0386 822.36 91.0386 823.3V832H85.4886V816.4H90.5886L90.7086 818.5H90.7686C91.3286 817.76 91.9786 817.18 92.7186 816.76C93.4586 816.32 94.1986 816.1 94.9386 816.1C95.8986 816.1 96.6586 816.27 97.2186 816.61C97.7986 816.93 98.3286 817.51 98.8086 818.35H98.8686C99.7286 817.51 100.519 816.93 101.239 816.61C101.959 816.27 102.779 816.1 103.699 816.1C105.419 816.1 106.659 816.57 107.419 817.51C108.199 818.45 108.589 820.08 108.589 822.4V832H103.129ZM116.737 822.7H121.807C121.807 820.8 120.957 819.85 119.257 819.85C117.717 819.85 116.877 820.8 116.737 822.7ZM116.797 826C117.137 827.6 118.277 828.4 120.217 828.4C121.717 828.4 123.147 828.05 124.507 827.35L125.707 831.1C123.867 831.9 121.867 832.3 119.707 832.3C117.127 832.3 115.057 831.57 113.497 830.11C111.937 828.65 111.157 826.68 111.157 824.2C111.157 821.7 111.867 819.73 113.287 818.29C114.727 816.83 116.667 816.1 119.107 816.1C121.607 816.1 123.557 816.81 124.957 818.23C126.357 819.63 127.057 821.62 127.057 824.2C127.057 824.74 127.007 825.34 126.907 826H116.797ZM147.283 821.8H148.183C148.183 821.12 148.053 820.65 147.793 820.39C147.533 820.13 147.063 820 146.383 820C144.283 820 142.233 820.45 140.233 821.35L139.483 817.45C141.683 816.55 144.083 816.1 146.683 816.1C149.283 816.1 151.133 816.59 152.233 817.57C153.333 818.53 153.883 820.14 153.883 822.4V827.8C153.883 829.24 154.033 830.64 154.333 832H148.933C148.813 831.32 148.713 830.62 148.633 829.9H148.573C148.033 830.62 147.333 831.2 146.473 831.64C145.613 832.08 144.733 832.3 143.833 832.3C142.293 832.3 141.053 831.88 140.113 831.04C139.193 830.18 138.733 829 138.733 827.5C138.733 825.78 139.463 824.4 140.923 823.36C142.403 822.32 144.523 821.8 147.283 821.8ZM143.833 826.9C143.833 827.8 144.333 828.25 145.333 828.25C146.193 828.25 146.883 828.01 147.403 827.53C147.923 827.05 148.183 826.39 148.183 825.55V825.1H147.283C146.143 825.1 145.283 825.27 144.703 825.61C144.123 825.93 143.833 826.36 143.833 826.9ZM175.463 832V823.3C175.463 822.1 175.353 821.31 175.133 820.93C174.913 820.55 174.513 820.36 173.933 820.36C173.413 820.36 172.983 820.62 172.643 821.14C172.303 821.64 172.133 822.36 172.133 823.3V832H166.673V823.3C166.673 822.1 166.563 821.31 166.343 820.93C166.143 820.55 165.753 820.36 165.173 820.36C164.653 820.36 164.223 820.62 163.883 821.14C163.543 821.64 163.373 822.36 163.373 823.3V832H157.823V816.4H162.923L163.043 818.5H163.103C163.663 817.76 164.313 817.18 165.053 816.76C165.793 816.32 166.533 816.1 167.273 816.1C168.233 816.1 168.993 816.27 169.553 816.61C170.133 816.93 170.663 817.51 171.143 818.35H171.203C172.063 817.51 172.853 816.93 173.573 816.61C174.293 816.27 175.113 816.1 176.033 816.1C177.753 816.1 178.993 816.57 179.753 817.51C180.533 818.45 180.923 820.08 180.923 822.4V832H175.463ZM185.651 818.26C187.091 816.82 189.121 816.1 191.741 816.1C194.361 816.1 196.391 816.82 197.831 818.26C199.271 819.7 199.991 821.68 199.991 824.2C199.991 826.72 199.271 828.7 197.831 830.14C196.391 831.58 194.361 832.3 191.741 832.3C189.121 832.3 187.091 831.58 185.651 830.14C184.211 828.7 183.491 826.72 183.491 824.2C183.491 821.68 184.211 819.7 185.651 818.26ZM189.731 827.29C190.171 827.91 190.841 828.22 191.741 828.22C192.641 828.22 193.311 827.91 193.751 827.29C194.191 826.67 194.411 825.64 194.411 824.2C194.411 822.76 194.191 821.73 193.751 821.11C193.311 820.49 192.641 820.18 191.741 820.18C190.841 820.18 190.171 820.49 189.731 821.11C189.291 821.73 189.071 822.76 189.071 824.2C189.071 825.64 189.291 826.67 189.731 827.29ZM212.455 829.9C211.895 830.64 211.195 831.23 210.355 831.67C209.535 832.09 208.695 832.3 207.835 832.3C205.955 832.3 204.605 831.81 203.785 830.83C202.985 829.85 202.585 828.14 202.585 825.7V816.4H208.225V825.1C208.225 826.26 208.335 827.03 208.555 827.41C208.775 827.77 209.185 827.95 209.785 827.95C210.405 827.95 210.955 827.61 211.435 826.93C211.935 826.25 212.185 825.44 212.185 824.5V816.4H217.885V832H212.635L212.515 829.9H212.455ZM227.091 818.5C227.651 817.76 228.341 817.18 229.161 816.76C230.001 816.32 230.851 816.1 231.711 816.1C233.691 816.1 235.111 816.66 235.971 817.78C236.831 818.88 237.261 820.82 237.261 823.6V832H231.621V824.2C231.621 822.7 231.481 821.7 231.201 821.2C230.941 820.7 230.461 820.45 229.761 820.45C229.141 820.45 228.581 820.79 228.081 821.47C227.601 822.15 227.361 822.96 227.361 823.9V832H221.661V816.4H226.911L227.031 818.5H227.091ZM248.543 832.3C246.563 832.3 245.093 831.85 244.133 830.95C243.173 830.03 242.693 828.58 242.693 826.6V820.9H239.543V817H242.693V811.3H248.513V817H253.343V820.9H248.513V825.7C248.513 826.66 248.623 827.3 248.843 827.62C249.063 827.94 249.463 828.1 250.043 828.1C250.923 828.1 251.823 827.95 252.743 827.65L253.343 831.7C251.863 832.1 250.263 832.3 248.543 832.3ZM267.771 818.26C269.211 816.82 271.241 816.1 273.861 816.1C276.481 816.1 278.511 816.82 279.951 818.26C281.391 819.7 282.111 821.68 282.111 824.2C282.111 826.72 281.391 828.7 279.951 830.14C278.511 831.58 276.481 832.3 273.861 832.3C271.241 832.3 269.211 831.58 267.771 830.14C266.331 828.7 265.611 826.72 265.611 824.2C265.611 821.68 266.331 819.7 267.771 818.26ZM271.851 827.29C272.291 827.91 272.961 828.22 273.861 828.22C274.761 828.22 275.431 827.91 275.871 827.29C276.311 826.67 276.531 825.64 276.531 824.2C276.531 822.76 276.311 821.73 275.871 821.11C275.431 820.49 274.761 820.18 273.861 820.18C272.961 820.18 272.291 820.49 271.851 821.11C271.411 821.73 271.191 822.76 271.191 824.2C271.191 825.64 271.411 826.67 271.851 827.29ZM294.011 809.8C295.291 809.8 296.641 809.95 298.061 810.25L297.311 814.45C296.591 814.15 295.841 814 295.061 814C294.361 814 293.881 814.17 293.621 814.51C293.361 814.83 293.231 815.46 293.231 816.4V817H297.761V820.9H293.231V832H287.411V820.9H283.961V817H287.411V816.4C287.411 814.26 287.981 812.63 289.121 811.51C290.261 810.37 291.891 809.8 294.011 809.8ZM323.4 827.11L324.6 831.1C322.88 831.9 321.08 832.3 319.2 832.3C316.44 832.3 314.25 831.57 312.63 830.11C311.01 828.65 310.2 826.68 310.2 824.2C310.2 821.7 310.99 819.73 312.57 818.29C314.17 816.83 316.38 816.1 319.2 816.1C321.14 816.1 322.94 816.5 324.6 817.3L323.4 821.35C322.16 820.59 320.86 820.21 319.5 820.21C318.36 820.21 317.47 820.55 316.83 821.23C316.21 821.91 315.9 822.9 315.9 824.2C315.9 825.46 316.23 826.45 316.89 827.17C317.55 827.89 318.42 828.25 319.5 828.25C320.86 828.25 322.16 827.87 323.4 827.11ZM335.867 821.8H336.767C336.767 821.12 336.637 820.65 336.377 820.39C336.117 820.13 335.647 820 334.967 820C332.867 820 330.817 820.45 328.817 821.35L328.067 817.45C330.267 816.55 332.667 816.1 335.267 816.1C337.867 816.1 339.717 816.59 340.817 817.57C341.917 818.53 342.467 820.14 342.467 822.4V827.8C342.467 829.24 342.617 830.64 342.917 832H337.517C337.397 831.32 337.297 830.62 337.217 829.9H337.157C336.617 830.62 335.917 831.2 335.057 831.64C334.197 832.08 333.317 832.3 332.417 832.3C330.877 832.3 329.637 831.88 328.697 831.04C327.777 830.18 327.317 829 327.317 827.5C327.317 825.78 328.047 824.4 329.507 823.36C330.987 822.32 333.107 821.8 335.867 821.8ZM332.417 826.9C332.417 827.8 332.917 828.25 333.917 828.25C334.777 828.25 335.467 828.01 335.987 827.53C336.507 827.05 336.767 826.39 336.767 825.55V825.1H335.867C334.727 825.1 333.867 825.27 333.287 825.61C332.707 825.93 332.417 826.36 332.417 826.9ZM359.007 816.1V820.6C356.767 820.6 355.077 821.02 353.937 821.86C352.797 822.7 352.227 823.88 352.227 825.4V832H346.407V816.4H351.777L351.807 819.4H351.867C353.587 817.2 355.967 816.1 359.007 816.1ZM360.712 824.2C360.712 821.62 361.262 819.63 362.362 818.23C363.482 816.81 364.982 816.1 366.862 816.1C368.562 816.1 369.992 816.8 371.152 818.2H371.212V809.5H376.912V832H371.662L371.542 829.9H371.482C370.222 831.5 368.682 832.3 366.862 832.3C365.062 832.3 363.582 831.58 362.422 830.14C361.282 828.7 360.712 826.72 360.712 824.2ZM366.112 824.2C366.112 825.4 366.352 826.33 366.832 826.99C367.312 827.63 367.922 827.95 368.662 827.95C369.442 827.95 370.062 827.64 370.522 827.02C370.982 826.4 371.212 825.51 371.212 824.35V824.05C371.212 822.91 370.982 822.03 370.522 821.41C370.062 820.77 369.442 820.45 368.662 820.45C367.862 820.45 367.232 820.77 366.772 821.41C366.332 822.03 366.112 822.96 366.112 824.2ZM393.28 821.11C391.46 820.45 389.76 820.12 388.18 820.12C387.32 820.12 386.73 820.2 386.41 820.36C386.09 820.5 385.93 820.73 385.93 821.05C385.93 821.35 386.06 821.58 386.32 821.74C386.58 821.9 387.05 822.02 387.73 822.1C390.19 822.4 391.95 822.98 393.01 823.84C394.09 824.7 394.63 825.87 394.63 827.35C394.63 828.87 394.02 830.08 392.8 830.98C391.6 831.86 389.86 832.3 387.58 832.3C384.88 832.3 382.43 831.8 380.23 830.8L381.28 826.78C383.08 827.74 384.98 828.22 386.98 828.22C388.28 828.22 388.93 827.88 388.93 827.2C388.93 826.94 388.83 826.76 388.63 826.66C388.43 826.56 387.93 826.44 387.13 826.3C384.71 825.92 382.98 825.3 381.94 824.44C380.9 823.56 380.38 822.38 380.38 820.9C380.38 819.4 380.98 818.23 382.18 817.39C383.38 816.53 385.18 816.1 387.58 816.1C389.96 816.1 392.21 816.45 394.33 817.15L393.28 821.11ZM414.693 826.9H414.753L417.573 816.4H423.573L415.473 838.6H409.473L412.173 832L406.173 816.4H412.473L414.693 826.9ZM426.501 818.26C427.941 816.82 429.971 816.1 432.591 816.1C435.211 816.1 437.241 816.82 438.681 818.26C440.121 819.7 440.841 821.68 440.841 824.2C440.841 826.72 440.121 828.7 438.681 830.14C437.241 831.58 435.211 832.3 432.591 832.3C429.971 832.3 427.941 831.58 426.501 830.14C425.061 828.7 424.341 826.72 424.341 824.2C424.341 821.68 425.061 819.7 426.501 818.26ZM430.581 827.29C431.021 827.91 431.691 828.22 432.591 828.22C433.491 828.22 434.161 827.91 434.601 827.29C435.041 826.67 435.261 825.64 435.261 824.2C435.261 822.76 435.041 821.73 434.601 821.11C434.161 820.49 433.491 820.18 432.591 820.18C431.691 820.18 431.021 820.49 430.581 821.11C430.141 821.73 429.921 822.76 429.921 824.2C429.921 825.64 430.141 826.67 430.581 827.29ZM453.304 829.9C452.744 830.64 452.044 831.23 451.204 831.67C450.384 832.09 449.544 832.3 448.684 832.3C446.804 832.3 445.454 831.81 444.634 830.83C443.834 829.85 443.434 828.14 443.434 825.7V816.4H449.074V825.1C449.074 826.26 449.184 827.03 449.404 827.41C449.624 827.77 450.034 827.95 450.634 827.95C451.254 827.95 451.804 827.61 452.284 826.93C452.784 826.25 453.034 825.44 453.034 824.5V816.4H458.734V832H453.484L453.364 829.9H453.304ZM480.311 832.3C478.331 832.3 476.861 831.85 475.901 830.95C474.941 830.03 474.461 828.58 474.461 826.6V820.9H471.311V817H474.461V811.3H480.281V817H485.111V820.9H480.281V825.7C480.281 826.66 480.391 827.3 480.611 827.62C480.831 827.94 481.231 828.1 481.811 828.1C482.691 828.1 483.591 827.95 484.511 827.65L485.111 831.7C483.631 832.1 482.031 832.3 480.311 832.3ZM489.694 818.26C491.134 816.82 493.164 816.1 495.784 816.1C498.404 816.1 500.434 816.82 501.874 818.26C503.314 819.7 504.034 821.68 504.034 824.2C504.034 826.72 503.314 828.7 501.874 830.14C500.434 831.58 498.404 832.3 495.784 832.3C493.164 832.3 491.134 831.58 489.694 830.14C488.254 828.7 487.534 826.72 487.534 824.2C487.534 821.68 488.254 819.7 489.694 818.26ZM493.774 827.29C494.214 827.91 494.884 828.22 495.784 828.22C496.684 828.22 497.354 827.91 497.794 827.29C498.234 826.67 498.454 825.64 498.454 824.2C498.454 822.76 498.234 821.73 497.794 821.11C497.354 820.49 496.684 820.18 495.784 820.18C494.884 820.18 494.214 820.49 493.774 821.11C493.334 821.73 493.114 822.76 493.114 824.2C493.114 825.64 493.334 826.67 493.774 827.29ZM508.181 818.26C509.621 816.82 511.651 816.1 514.271 816.1C516.891 816.1 518.921 816.82 520.361 818.26C521.801 819.7 522.521 821.68 522.521 824.2C522.521 826.72 521.801 828.7 520.361 830.14C518.921 831.58 516.891 832.3 514.271 832.3C511.651 832.3 509.621 831.58 508.181 830.14C506.741 828.7 506.021 826.72 506.021 824.2C506.021 821.68 506.741 819.7 508.181 818.26ZM512.261 827.29C512.701 827.91 513.371 828.22 514.271 828.22C515.171 828.22 515.841 827.91 516.281 827.29C516.721 826.67 516.941 825.64 516.941 824.2C516.941 822.76 516.721 821.73 516.281 821.11C515.841 820.49 515.171 820.18 514.271 820.18C513.371 820.18 512.701 820.49 512.261 821.11C511.821 821.73 511.601 822.76 511.601 824.2C511.601 825.64 511.821 826.67 512.261 827.29ZM531.174 825.7H531.114V832H525.414V809.5H531.114V822.1H531.174L535.314 816.4H541.764L535.764 823.9L541.914 832H535.464L531.174 825.7ZM562.606 832.3C560.626 832.3 559.156 831.85 558.196 830.95C557.236 830.03 556.756 828.58 556.756 826.6V820.9H553.606V817H556.756V811.3H562.576V817H567.406V820.9H562.576V825.7C562.576 826.66 562.686 827.3 562.906 827.62C563.126 827.94 563.526 828.1 564.106 828.1C564.986 828.1 565.886 827.95 566.806 827.65L567.406 831.7C565.926 832.1 564.326 832.3 562.606 832.3ZM571.989 818.26C573.429 816.82 575.459 816.1 578.079 816.1C580.699 816.1 582.729 816.82 584.169 818.26C585.609 819.7 586.329 821.68 586.329 824.2C586.329 826.72 585.609 828.7 584.169 830.14C582.729 831.58 580.699 832.3 578.079 832.3C575.459 832.3 573.429 831.58 571.989 830.14C570.549 828.7 569.829 826.72 569.829 824.2C569.829 821.68 570.549 819.7 571.989 818.26ZM576.069 827.29C576.509 827.91 577.179 828.22 578.079 828.22C578.979 828.22 579.649 827.91 580.089 827.29C580.529 826.67 580.749 825.64 580.749 824.2C580.749 822.76 580.529 821.73 580.089 821.11C579.649 820.49 578.979 820.18 578.079 820.18C577.179 820.18 576.509 820.49 576.069 821.11C575.629 821.73 575.409 822.76 575.409 824.2C575.409 825.64 575.629 826.67 576.069 827.29ZM86.2679 875.3C84.2879 875.3 82.8179 874.85 81.8579 873.95C80.8979 873.03 80.4179 871.58 80.4179 869.6V863.9H77.2679V860H80.4179V854.3H86.2379V860H91.0679V863.9H86.2379V868.7C86.2379 869.66 86.3479 870.3 86.5679 870.62C86.7879 870.94 87.1879 871.1 87.7679 871.1C88.6479 871.1 89.5479 870.95 90.4679 870.65L91.0679 874.7C89.5879 875.1 87.9879 875.3 86.2679 875.3ZM110.584 866.6V875H104.944V867.2C104.944 865.7 104.804 864.7 104.524 864.2C104.264 863.7 103.784 863.45 103.084 863.45C102.464 863.45 101.904 863.79 101.404 864.47C100.924 865.15 100.684 865.96 100.684 866.9V875H94.9843V852.5H100.684V861.2H100.744C101.244 860.56 101.884 860.05 102.664 859.67C103.444 859.29 104.234 859.1 105.034 859.1C107.014 859.1 108.434 859.66 109.294 860.78C110.154 861.88 110.584 863.82 110.584 866.6ZM118.759 865.7H123.829C123.829 863.8 122.979 862.85 121.279 862.85C119.739 862.85 118.899 863.8 118.759 865.7ZM118.819 869C119.159 870.6 120.299 871.4 122.239 871.4C123.739 871.4 125.169 871.05 126.529 870.35L127.729 874.1C125.889 874.9 123.889 875.3 121.729 875.3C119.149 875.3 117.079 874.57 115.519 873.11C113.959 871.65 113.179 869.68 113.179 867.2C113.179 864.7 113.889 862.73 115.309 861.29C116.749 859.83 118.689 859.1 121.129 859.1C123.629 859.1 125.579 859.81 126.979 861.23C128.379 862.63 129.079 864.62 129.079 867.2C129.079 867.74 129.029 868.34 128.929 869H118.819ZM153.654 870.11L154.854 874.1C153.134 874.9 151.334 875.3 149.454 875.3C146.694 875.3 144.504 874.57 142.884 873.11C141.264 871.65 140.454 869.68 140.454 867.2C140.454 864.7 141.244 862.73 142.824 861.29C144.424 859.83 146.634 859.1 149.454 859.1C151.394 859.1 153.194 859.5 154.854 860.3L153.654 864.35C152.414 863.59 151.114 863.21 149.754 863.21C148.614 863.21 147.724 863.55 147.084 864.23C146.464 864.91 146.154 865.9 146.154 867.2C146.154 868.46 146.484 869.45 147.144 870.17C147.804 870.89 148.674 871.25 149.754 871.25C151.114 871.25 152.414 870.87 153.654 870.11ZM159.431 861.26C160.871 859.82 162.901 859.1 165.521 859.1C168.141 859.1 170.171 859.82 171.611 861.26C173.051 862.7 173.771 864.68 173.771 867.2C173.771 869.72 173.051 871.7 171.611 873.14C170.171 874.58 168.141 875.3 165.521 875.3C162.901 875.3 160.871 874.58 159.431 873.14C157.991 871.7 157.271 869.72 157.271 867.2C157.271 864.68 157.991 862.7 159.431 861.26ZM163.511 870.29C163.951 870.91 164.621 871.22 165.521 871.22C166.421 871.22 167.091 870.91 167.531 870.29C167.971 869.67 168.191 868.64 168.191 867.2C168.191 865.76 167.971 864.73 167.531 864.11C167.091 863.49 166.421 863.18 165.521 863.18C164.621 863.18 163.951 863.49 163.511 864.11C163.071 864.73 162.851 865.76 162.851 867.2C162.851 868.64 163.071 869.67 163.511 870.29ZM186.234 872.9C185.674 873.64 184.974 874.23 184.134 874.67C183.314 875.09 182.474 875.3 181.614 875.3C179.734 875.3 178.384 874.81 177.564 873.83C176.764 872.85 176.364 871.14 176.364 868.7V859.4H182.004V868.1C182.004 869.26 182.114 870.03 182.334 870.41C182.554 870.77 182.964 870.95 183.564 870.95C184.184 870.95 184.734 870.61 185.214 869.93C185.714 869.25 185.964 868.44 185.964 867.5V859.4H191.664V875H186.414L186.294 872.9H186.234ZM208.04 859.1V863.6C205.8 863.6 204.11 864.02 202.97 864.86C201.83 865.7 201.26 866.88 201.26 868.4V875H195.44V859.4H200.81L200.84 862.4H200.9C202.62 860.2 205 859.1 208.04 859.1ZM219.481 875.3C217.501 875.3 216.031 874.85 215.071 873.95C214.111 873.03 213.631 871.58 213.631 869.6V863.9H210.481V860H213.631V854.3H219.451V860H224.281V863.9H219.451V868.7C219.451 869.66 219.561 870.3 219.781 870.62C220.001 870.94 220.401 871.1 220.981 871.1C221.861 871.1 222.761 870.95 223.681 870.65L224.281 874.7C222.801 875.1 221.201 875.3 219.481 875.3ZM236.698 867.2C236.698 864.62 237.248 862.63 238.348 861.23C239.468 859.81 240.968 859.1 242.848 859.1C244.548 859.1 245.978 859.8 247.138 861.2H247.198V852.5H252.898V875H247.648L247.528 872.9H247.468C246.208 874.5 244.668 875.3 242.848 875.3C241.048 875.3 239.568 874.58 238.408 873.14C237.268 871.7 236.698 869.72 236.698 867.2ZM242.098 867.2C242.098 868.4 242.338 869.33 242.818 869.99C243.298 870.63 243.908 870.95 244.648 870.95C245.428 870.95 246.048 870.64 246.508 870.02C246.968 869.4 247.198 868.51 247.198 867.35V867.05C247.198 865.91 246.968 865.03 246.508 864.41C246.048 863.77 245.428 863.45 244.648 863.45C243.848 863.45 243.218 863.77 242.758 864.41C242.318 865.03 242.098 865.96 242.098 867.2ZM261.347 865.7H266.417C266.417 863.8 265.567 862.85 263.867 862.85C262.327 862.85 261.487 863.8 261.347 865.7ZM261.407 869C261.747 870.6 262.887 871.4 264.827 871.4C266.327 871.4 267.757 871.05 269.117 870.35L270.317 874.1C268.477 874.9 266.477 875.3 264.317 875.3C261.737 875.3 259.667 874.57 258.107 873.11C256.547 871.65 255.767 869.68 255.767 867.2C255.767 864.7 256.477 862.73 257.897 861.29C259.337 859.83 261.277 859.1 263.717 859.1C266.217 859.1 268.167 859.81 269.567 861.23C270.967 862.63 271.667 864.62 271.667 867.2C271.667 867.74 271.617 868.34 271.517 869H261.407ZM286.984 870.11L288.184 874.1C286.464 874.9 284.664 875.3 282.784 875.3C280.024 875.3 277.834 874.57 276.214 873.11C274.594 871.65 273.784 869.68 273.784 867.2C273.784 864.7 274.574 862.73 276.154 861.29C277.754 859.83 279.964 859.1 282.784 859.1C284.724 859.1 286.524 859.5 288.184 860.3L286.984 864.35C285.744 863.59 284.444 863.21 283.084 863.21C281.944 863.21 281.054 863.55 280.414 864.23C279.794 864.91 279.484 865.9 279.484 867.2C279.484 868.46 279.814 869.45 280.474 870.17C281.134 870.89 282.004 871.25 283.084 871.25C284.444 871.25 285.744 870.87 286.984 870.11ZM297.561 868.7H297.501V875H291.801V852.5H297.501V865.1H297.561L301.701 859.4H308.151L302.151 866.9L308.301 875H301.851L297.561 868.7ZM310.884 875V868.7H317.484V875H310.884ZM338.907 857.3C338.467 857.3 338.017 857.35 337.557 857.45V861.65H338.457C340.757 861.65 341.907 860.9 341.907 859.4C341.907 858 340.907 857.3 338.907 857.3ZM347.907 868.7C347.907 870.96 347.167 872.63 345.687 873.71C344.227 874.77 341.867 875.3 338.607 875.3C336.167 875.3 333.867 875.15 331.707 874.85V853.25C333.767 852.95 335.967 852.8 338.307 852.8C344.307 852.8 347.307 854.7 347.307 858.5C347.307 859.78 346.897 860.87 346.077 861.77C345.257 862.65 344.167 863.2 342.807 863.42V863.48C344.347 863.68 345.577 864.27 346.497 865.25C347.437 866.23 347.907 867.38 347.907 868.7ZM342.357 868.1C342.357 866.6 341.257 865.85 339.057 865.85H337.557V870.65C338.017 870.75 338.467 870.8 338.907 870.8C340.107 870.8 340.977 870.58 341.517 870.14C342.077 869.7 342.357 869.02 342.357 868.1ZM351.225 875V852.5H357.225V875H351.225ZM362.722 861.26C364.162 859.82 366.192 859.1 368.812 859.1C371.432 859.1 373.462 859.82 374.902 861.26C376.342 862.7 377.062 864.68 377.062 867.2C377.062 869.72 376.342 871.7 374.902 873.14C373.462 874.58 371.432 875.3 368.812 875.3C366.192 875.3 364.162 874.58 362.722 873.14C361.282 871.7 360.562 869.72 360.562 867.2C360.562 864.68 361.282 862.7 362.722 861.26ZM366.802 870.29C367.242 870.91 367.912 871.22 368.812 871.22C369.712 871.22 370.382 870.91 370.822 870.29C371.262 869.67 371.482 868.64 371.482 867.2C371.482 865.76 371.262 864.73 370.822 864.11C370.382 863.49 369.712 863.18 368.812 863.18C367.912 863.18 367.242 863.49 366.802 864.11C366.362 864.73 366.142 865.76 366.142 867.2C366.142 868.64 366.362 869.67 366.802 870.29ZM392.248 870.11L393.448 874.1C391.728 874.9 389.928 875.3 388.048 875.3C385.288 875.3 383.098 874.57 381.478 873.11C379.858 871.65 379.048 869.68 379.048 867.2C379.048 864.7 379.838 862.73 381.418 861.29C383.018 859.83 385.228 859.1 388.048 859.1C389.988 859.1 391.788 859.5 393.448 860.3L392.248 864.35C391.008 863.59 389.708 863.21 388.348 863.21C387.208 863.21 386.318 863.55 385.678 864.23C385.058 864.91 384.748 865.9 384.748 867.2C384.748 868.46 385.078 869.45 385.738 870.17C386.398 870.89 387.268 871.25 388.348 871.25C389.708 871.25 391.008 870.87 392.248 870.11ZM402.824 868.7H402.764V875H397.064V852.5H402.764V865.1H402.824L406.964 859.4H413.414L407.414 866.9L413.564 875H407.114L402.824 868.7ZM427.997 864.11C426.177 863.45 424.477 863.12 422.897 863.12C422.037 863.12 421.447 863.2 421.127 863.36C420.807 863.5 420.647 863.73 420.647 864.05C420.647 864.35 420.777 864.58 421.037 864.74C421.297 864.9 421.767 865.02 422.447 865.1C424.907 865.4 426.667 865.98 427.727 866.84C428.807 867.7 429.347 868.87 429.347 870.35C429.347 871.87 428.737 873.08 427.517 873.98C426.317 874.86 424.577 875.3 422.297 875.3C419.597 875.3 417.147 874.8 414.947 873.8L415.997 869.78C417.797 870.74 419.697 871.22 421.697 871.22C422.997 871.22 423.647 870.88 423.647 870.2C423.647 869.94 423.547 869.76 423.347 869.66C423.147 869.56 422.647 869.44 421.847 869.3C419.427 868.92 417.697 868.3 416.657 867.44C415.617 866.56 415.097 865.38 415.097 863.9C415.097 862.4 415.697 861.23 416.897 860.39C418.097 859.53 419.897 859.1 422.297 859.1C424.677 859.1 426.927 859.45 429.047 860.15L427.997 864.11ZM454.54 864.11C452.72 863.45 451.02 863.12 449.44 863.12C448.58 863.12 447.99 863.2 447.67 863.36C447.35 863.5 447.19 863.73 447.19 864.05C447.19 864.35 447.32 864.58 447.58 864.74C447.84 864.9 448.31 865.02 448.99 865.1C451.45 865.4 453.21 865.98 454.27 866.84C455.35 867.7 455.89 868.87 455.89 870.35C455.89 871.87 455.28 873.08 454.06 873.98C452.86 874.86 451.12 875.3 448.84 875.3C446.14 875.3 443.69 874.8 441.49 873.8L442.54 869.78C444.34 870.74 446.24 871.22 448.24 871.22C449.54 871.22 450.19 870.88 450.19 870.2C450.19 869.94 450.09 869.76 449.89 869.66C449.69 869.56 449.19 869.44 448.39 869.3C445.97 868.92 444.24 868.3 443.2 867.44C442.16 866.56 441.64 865.38 441.64 863.9C441.64 862.4 442.24 861.23 443.44 860.39C444.64 859.53 446.44 859.1 448.84 859.1C451.22 859.1 453.47 859.45 455.59 860.15L454.54 864.11ZM466.746 875.3C464.766 875.3 463.296 874.85 462.336 873.95C461.376 873.03 460.896 871.58 460.896 869.6V863.9H457.746V860H460.896V854.3H466.716V860H471.546V863.9H466.716V868.7C466.716 869.66 466.826 870.3 467.046 870.62C467.266 870.94 467.666 871.1 468.246 871.1C469.126 871.1 470.026 870.95 470.946 870.65L471.546 874.7C470.066 875.1 468.466 875.3 466.746 875.3ZM479.55 865.7H484.62C484.62 863.8 483.77 862.85 482.07 862.85C480.53 862.85 479.69 863.8 479.55 865.7ZM479.61 869C479.95 870.6 481.09 871.4 483.03 871.4C484.53 871.4 485.96 871.05 487.32 870.35L488.52 874.1C486.68 874.9 484.68 875.3 482.52 875.3C479.94 875.3 477.87 874.57 476.31 873.11C474.75 871.65 473.97 869.68 473.97 867.2C473.97 864.7 474.68 862.73 476.1 861.29C477.54 859.83 479.48 859.1 481.92 859.1C484.42 859.1 486.37 859.81 487.77 861.23C489.17 862.63 489.87 864.62 489.87 867.2C489.87 867.74 489.82 868.34 489.72 869H479.61ZM500.544 864.8H501.444C501.444 864.12 501.314 863.65 501.054 863.39C500.794 863.13 500.324 863 499.644 863C497.544 863 495.494 863.45 493.494 864.35L492.744 860.45C494.944 859.55 497.344 859.1 499.944 859.1C502.544 859.1 504.394 859.59 505.494 860.57C506.594 861.53 507.144 863.14 507.144 865.4V870.8C507.144 872.24 507.294 873.64 507.594 875H502.194C502.074 874.32 501.974 873.62 501.894 872.9H501.834C501.294 873.62 500.594 874.2 499.734 874.64C498.874 875.08 497.994 875.3 497.094 875.3C495.554 875.3 494.314 874.88 493.374 874.04C492.454 873.18 491.994 872 491.994 870.5C491.994 868.78 492.724 867.4 494.184 866.36C495.664 865.32 497.784 864.8 500.544 864.8ZM497.094 869.9C497.094 870.8 497.594 871.25 498.594 871.25C499.454 871.25 500.144 871.01 500.664 870.53C501.184 870.05 501.444 869.39 501.444 868.55V868.1H500.544C499.404 868.1 498.544 868.27 497.964 868.61C497.384 868.93 497.094 869.36 497.094 869.9ZM511.684 875V852.5H517.684V875H511.684ZM522.085 856.7V852.5H528.085V856.7H522.085ZM522.085 875V859.4H528.085V875H522.085ZM537.901 861.5C538.461 860.76 539.151 860.18 539.971 859.76C540.811 859.32 541.661 859.1 542.521 859.1C544.501 859.1 545.921 859.66 546.781 860.78C547.641 861.88 548.071 863.82 548.071 866.6V875H542.431V867.2C542.431 865.7 542.291 864.7 542.011 864.2C541.751 863.7 541.271 863.45 540.571 863.45C539.951 863.45 539.391 863.79 538.891 864.47C538.411 865.15 538.171 865.96 538.171 866.9V875H532.471V859.4H537.721L537.841 861.5H537.901ZM561.44 872.6H561.41C560.25 874 558.76 874.7 556.94 874.7C555.16 874.7 553.69 874.01 552.53 872.63C551.37 871.23 550.79 869.32 550.79 866.9C550.79 864.44 551.35 862.53 552.47 861.17C553.59 859.79 555.08 859.1 556.94 859.1C558.72 859.1 560.26 859.9 561.56 861.5H561.62L561.74 859.4H566.99V873.2C566.99 876.06 566.2 878.22 564.62 879.68C563.04 881.16 560.73 881.9 557.69 881.9C555.77 881.9 553.97 881.6 552.29 881L553.19 876.98C554.59 877.56 555.99 877.85 557.39 877.85C558.85 877.85 559.89 877.5 560.51 876.8C561.13 876.12 561.44 874.92 561.44 873.2V872.6ZM556.19 866.9C556.19 868.04 556.42 868.93 556.88 869.57C557.36 870.19 557.98 870.5 558.74 870.5C559.52 870.5 560.14 870.21 560.6 869.63C561.06 869.03 561.29 868.17 561.29 867.05V866.75C561.29 865.65 561.06 864.8 560.6 864.2C560.14 863.6 559.52 863.3 558.74 863.3C557.94 863.3 557.31 863.61 556.85 864.23C556.41 864.83 556.19 865.72 556.19 866.9Z" fill="white"/>
<defs>
<filter id="filter0_d_713_8" x="-117.9" y="-15.9" width="978.8" height="1003.8" filterUnits="userSpaceOnUse" color-interpolation-filters="sRGB">
<feFlood flood-opacity="0" result="BackgroundImageFix"/>
<feColorMatrix in="SourceAlpha" type="matrix" values="0 0 0 0 0 0 0 0 0 0 0 0 0 0 0 0 0 0 127 0" result="hardAlpha"/>
<feOffset/>
<feGaussianBlur stdDeviation="34.95"/>
<feComposite in2="hardAlpha" operator="out"/>
<feColorMatrix type="matrix" values="0 0 0 0 0 0 0 0 0 0 0 0 0 0 0 0 0 0 0.15 0"/>
<feBlend mode="normal" in2="BackgroundImageFix" result="effect1_dropShadow_713_8"/>
<feBlend mode="normal" in="SourceGraphic" in2="effect1_dropShadow_713_8" result="shape"/>
</filter>
<linearGradient id="paint0_linear_713_8" x1="318.5" y1="82.9999" x2="518" y2="998" gradientUnits="userSpaceOnUse">
<stop stop-color="#FF1275"/>
<stop offset="1" stop-color="#C21D80" stop-opacity="0.75"/>
</linearGradient>
</defs>
</svg>
