<svg width="640" height="900" viewBox="0 0 640 900" fill="none" xmlns="http://www.w3.org/2000/svg">
<rect x="0.0195312" width="639.02" height="900" fill="#B038FA"/>
<mask id="mask0_612_73" style="mask-type:alpha" maskUnits="userSpaceOnUse" x="0" y="0" width="640" height="900">
<rect x="0.0195312" width="639.02" height="900" fill="white"/>
</mask>
<g mask="url(#mask0_612_73)">
<path d="M316.075 116.679L384.707 152.404C340.054 212.177 284.762 273.729 242.198 312.751L190.256 281.187C232.82 238.62 284.045 172.065 316.075 116.679ZM148.223 250.765C229.061 267.818 353.187 292.562 462.71 313.664L446.116 372.9C338.158 354.403 221.333 332.366 140.078 316.981L148.223 250.765ZM374.37 229.153L440.4 216.81C464.801 271.642 487.427 340.656 496.705 386.842L424.937 404.402C418.998 359.048 396.372 284.716 374.37 229.153ZM306.917 -39.8253L372.106 -2.74318C329.435 56.1945 269.345 110.346 217.812 139.155C208.113 122.999 184.126 93.087 169.942 78.9145C220.118 57.3012 272.488 10.9745 306.917 -39.8253ZM485.594 6.05343C496.644 57.5565 528.137 123.02 557.234 167.943C537.831 176.401 508.413 194.769 492.556 208.542C463.878 154.86 434.159 80.5326 418.104 15.373L485.594 6.05343ZM380.21 607.978L402.734 657.911C306.457 647.644 179.411 622.172 72.4964 595.958C74.6885 583.653 73.7525 562.591 72.2937 550.705C179 575.981 301.665 599.474 380.21 607.978ZM103.476 603.239L154.588 602.688C160.114 616.031 164.597 633.546 164.804 645.12L110.563 645.777C111.503 634.933 108.063 616.792 103.476 603.239ZM197.874 622.787L249.507 625.468C253.991 637.665 256.596 653.825 255.76 664.253L201.102 661.261C202.668 651.458 201.419 635.193 197.874 622.787ZM88.5238 872.057L137.551 863.895C151.212 890.789 166.332 927.796 171.023 951.567L118.032 961.4C114.906 938.462 101.35 900.515 88.5238 872.057ZM188.35 859.278L237.064 854.14C245.51 875.302 252.078 902.2 252.076 919.926L200.129 925.587C200.861 908.486 195.336 880.962 188.35 859.278ZM321.376 632.308L372.379 662.308C354.332 677.75 337.432 692.149 324.809 701.854L286.322 676.747C297.902 664.124 312.612 646.076 321.376 632.308ZM291.219 713.865L287.358 729.299L324.074 738.453L327.935 723.019L291.219 713.865ZM200.264 691.187L196.402 706.621L232.284 715.567L236.145 700.133L200.264 691.187ZM109.726 668.613L105.864 684.047L141.328 692.89L145.19 677.455L109.726 668.613ZM62.584 617.861L396.783 701.186L374.449 790.455L40.2499 707.13L62.584 617.861ZM71.2276 725.046L200.151 757.19L167.902 886.087L38.9788 853.943L48.2673 816.817L121.282 835.022L135.058 779.959L62.0435 761.754L71.2276 725.046ZM59.5387 771.766L159.256 796.628L150.907 830L51.1895 805.137L59.5387 771.766ZM200.668 787.011L388.838 833.927L376.627 882.733L188.458 835.817L200.668 787.011ZM301.016 781.009L357.759 795.157L318.1 953.671C311.734 979.116 303.596 992.155 283.985 996.129C264.896 999.789 242.887 995.631 214.932 988.662C215.873 972.499 212.852 947.372 208.473 931.213C225.37 936.312 245.814 941.409 252.177 942.552C258.018 944.009 260.418 943.277 261.67 938.272L301.016 781.009ZM-26.4259 870.873C16.2361 877.521 80.0728 886.347 140.154 894.236L131.073 939.391C74.2253 932.751 14.1436 924.861 -31.022 919.361L-26.4259 870.873ZM41.6045 717.66L97.5129 731.6L54.4101 903.879L-2.64632 894.529L41.6045 717.66Z" fill="#8133D0"/>
<g filter="url(#filter0_d_612_73)">
<path d="M-155 970H726.536L542.977 747.916L481.791 464.08L542.977 324L511.5 219.5L379 182.5L256 200.5L203.5 240L185.5 303.5L221 464.08L68.7833 631.5L-155 970Z" fill="url(#paint0_linear_612_73)" shape-rendering="crispEdges"/>
</g>
<g filter="url(#filter1_d_612_73)">
<path d="M548 228.5L522.597 69L438 120L363.5 52.5L289.5 120L209 69L186 156V228.5L237 177.5L298 166L383.5 156L467.5 177.5L522.597 194L548 228.5Z" fill="url(#paint1_linear_612_73)" shape-rendering="crispEdges"/>
</g>
</g>
<path d="M174.249 704.5C176.243 704.933 178.193 705.15 180.099 705.15C195.699 705.15 203.499 695.183 203.499 675.25C203.499 657.05 195.699 647.95 180.099 647.95C178.193 647.95 176.243 648.167 174.249 648.6V704.5ZM228.199 675.25C228.199 691.11 223.736 703.417 214.809 712.17C205.883 720.923 193.446 725.3 177.499 725.3C167.359 725.3 157.826 724.65 148.899 723.35V629.75C157.826 628.45 167.359 627.8 177.499 627.8C193.446 627.8 205.883 632.047 214.809 640.54C223.736 648.947 228.199 660.517 228.199 675.25ZM307.881 715.16C301.208 721.92 291.588 725.3 279.021 725.3C266.454 725.3 256.791 721.92 250.031 715.16C243.358 708.313 240.021 698.26 240.021 685V629.1H266.281V686.95C266.281 693.103 267.364 697.567 269.531 700.34C271.698 703.113 274.948 704.5 279.281 704.5C283.614 704.5 286.864 703.113 289.031 700.34C291.198 697.567 292.281 693.103 292.281 686.95V629.1H318.021V685C318.021 698.26 314.641 708.313 307.881 715.16ZM361.647 669.4H361.907L386.347 629.1H416.247L386.347 674.6L417.547 724H387.647L361.907 679.8H361.647V724H335.647V629.1H361.647V669.4ZM489.773 665.5V685H455.973V703.2H492.373V724H429.973V629.1H492.373V649.9H455.973V665.5H489.773Z" fill="white"/>
<path d="M50.5418 799.45V805.225H43.6118V825H36.4718V805.225H29.5418V799.45H50.5418ZM60.7342 813.1H61.7842C61.7842 812.307 61.6325 811.758 61.3292 811.455C61.0259 811.152 60.4775 811 59.6842 811C57.2342 811 54.8425 811.525 52.5092 812.575L51.6342 808.025C54.2009 806.975 57.0009 806.45 60.0342 806.45C63.0675 806.45 65.2259 807.022 66.5092 808.165C67.7925 809.285 68.4342 811.163 68.4342 813.8V820.1C68.4342 821.78 68.6092 823.413 68.9592 825H62.6592C62.5192 824.207 62.4025 823.39 62.3092 822.55H62.2392C61.6092 823.39 60.7925 824.067 59.7892 824.58C58.7859 825.093 57.7592 825.35 56.7092 825.35C54.9125 825.35 53.4659 824.86 52.3692 823.88C51.2959 822.877 50.7592 821.5 50.7592 819.75C50.7592 817.743 51.6109 816.133 53.3142 814.92C55.0409 813.707 57.5142 813.1 60.7342 813.1ZM56.7092 819.05C56.7092 820.1 57.2925 820.625 58.4592 820.625C59.4625 820.625 60.2675 820.345 60.8742 819.785C61.4809 819.225 61.7842 818.455 61.7842 817.475V816.95H60.7342C59.4042 816.95 58.4009 817.148 57.7242 817.545C57.0475 817.918 56.7092 818.42 56.7092 819.05ZM79.9257 817.65H79.8557V825H73.2057V798.75H79.8557V813.45H79.9257L84.7557 806.8H92.2807L85.2807 815.55L92.4557 825H84.9307L79.9257 817.65ZM99.7122 814.15H105.627C105.627 811.933 104.636 810.825 102.652 810.825C100.856 810.825 99.8755 811.933 99.7122 814.15ZM99.7822 818C100.179 819.867 101.509 820.8 103.772 820.8C105.522 820.8 107.191 820.392 108.777 819.575L110.177 823.95C108.031 824.883 105.697 825.35 103.177 825.35C100.167 825.35 97.7522 824.498 95.9322 822.795C94.1122 821.092 93.2022 818.793 93.2022 815.9C93.2022 812.983 94.0305 810.685 95.6872 809.005C97.3672 807.302 99.6305 806.45 102.477 806.45C105.394 806.45 107.669 807.278 109.302 808.935C110.936 810.568 111.752 812.89 111.752 815.9C111.752 816.53 111.694 817.23 111.577 818H99.7822ZM137.693 809.95H138.043C139.957 809.95 141.508 810.592 142.698 811.875C143.912 813.135 144.518 814.827 144.518 816.95C144.518 819.68 143.678 821.768 141.998 823.215C140.318 824.638 137.892 825.35 134.718 825.35C131.592 825.35 128.675 824.65 125.968 823.25L127.683 818C130.133 819.213 132.245 819.82 134.018 819.82C135.208 819.82 136.118 819.587 136.748 819.12C137.378 818.63 137.693 817.965 137.693 817.125C137.693 816.425 137.53 815.9 137.203 815.55C136.877 815.2 136.258 814.943 135.348 814.78C134.462 814.593 133.143 814.5 131.393 814.5H129.993V809.95L135.943 805.12V805.05H126.493V799.45H144.168V805.05L137.693 809.88V809.95ZM174.672 819.295L176.072 823.95C174.065 824.883 171.965 825.35 169.772 825.35C166.552 825.35 163.997 824.498 162.107 822.795C160.217 821.092 159.272 818.793 159.272 815.9C159.272 812.983 160.193 810.685 162.037 809.005C163.903 807.302 166.482 806.45 169.772 806.45C172.035 806.45 174.135 806.917 176.072 807.85L174.672 812.575C173.225 811.688 171.708 811.245 170.122 811.245C168.792 811.245 167.753 811.642 167.007 812.435C166.283 813.228 165.922 814.383 165.922 815.9C165.922 817.37 166.307 818.525 167.077 819.365C167.847 820.205 168.862 820.625 170.122 820.625C171.708 820.625 173.225 820.182 174.672 819.295ZM181.411 808.97C183.091 807.29 185.459 806.45 188.516 806.45C191.572 806.45 193.941 807.29 195.621 808.97C197.301 810.65 198.141 812.96 198.141 815.9C198.141 818.84 197.301 821.15 195.621 822.83C193.941 824.51 191.572 825.35 188.516 825.35C185.459 825.35 183.091 824.51 181.411 822.83C179.731 821.15 178.891 818.84 178.891 815.9C178.891 812.96 179.731 810.65 181.411 808.97ZM186.171 819.505C186.684 820.228 187.466 820.59 188.516 820.59C189.566 820.59 190.347 820.228 190.861 819.505C191.374 818.782 191.631 817.58 191.631 815.9C191.631 814.22 191.374 813.018 190.861 812.295C190.347 811.572 189.566 811.21 188.516 811.21C187.466 811.21 186.684 811.572 186.171 812.295C185.657 813.018 185.401 814.22 185.401 815.9C185.401 817.58 185.657 818.782 186.171 819.505ZM202.041 803.65V798.75H209.041V803.65H202.041ZM202.041 825V806.8H209.041V825H202.041ZM220.494 809.25C221.147 808.387 221.952 807.71 222.909 807.22C223.889 806.707 224.88 806.45 225.884 806.45C228.194 806.45 229.85 807.103 230.854 808.41C231.857 809.693 232.359 811.957 232.359 815.2V825H225.779V815.9C225.779 814.15 225.615 812.983 225.289 812.4C224.985 811.817 224.425 811.525 223.609 811.525C222.885 811.525 222.232 811.922 221.649 812.715C221.089 813.508 220.809 814.453 220.809 815.55V825H214.159V806.8H220.284L220.424 809.25H220.494ZM251.105 812.295C248.982 811.525 246.999 811.14 245.155 811.14C244.152 811.14 243.464 811.233 243.09 811.42C242.717 811.583 242.53 811.852 242.53 812.225C242.53 812.575 242.682 812.843 242.985 813.03C243.289 813.217 243.837 813.357 244.63 813.45C247.5 813.8 249.554 814.477 250.79 815.48C252.05 816.483 252.68 817.848 252.68 819.575C252.68 821.348 251.969 822.76 250.545 823.81C249.145 824.837 247.115 825.35 244.455 825.35C241.305 825.35 238.447 824.767 235.88 823.6L237.105 818.91C239.205 820.03 241.422 820.59 243.755 820.59C245.272 820.59 246.03 820.193 246.03 819.4C246.03 819.097 245.914 818.887 245.68 818.77C245.447 818.653 244.864 818.513 243.93 818.35C241.107 817.907 239.089 817.183 237.875 816.18C236.662 815.153 236.055 813.777 236.055 812.05C236.055 810.3 236.755 808.935 238.155 807.955C239.555 806.952 241.655 806.45 244.455 806.45C247.232 806.45 249.857 806.858 252.33 807.675L251.105 812.295ZM256.763 825V817.65H264.463V825H256.763ZM289.456 804.35C288.943 804.35 288.418 804.408 287.881 804.525V809.425H288.931C291.615 809.425 292.956 808.55 292.956 806.8C292.956 805.167 291.79 804.35 289.456 804.35ZM299.956 817.65C299.956 820.287 299.093 822.235 297.366 823.495C295.663 824.732 292.91 825.35 289.106 825.35C286.26 825.35 283.576 825.175 281.056 824.825V799.625C283.46 799.275 286.026 799.1 288.756 799.1C295.756 799.1 299.256 801.317 299.256 805.75C299.256 807.243 298.778 808.515 297.821 809.565C296.865 810.592 295.593 811.233 294.006 811.49V811.56C295.803 811.793 297.238 812.482 298.311 813.625C299.408 814.768 299.956 816.11 299.956 817.65ZM293.481 816.95C293.481 815.2 292.198 814.325 289.631 814.325H287.881V819.925C288.418 820.042 288.943 820.1 289.456 820.1C290.856 820.1 291.871 819.843 292.501 819.33C293.155 818.817 293.481 818.023 293.481 816.95ZM303.828 825V798.75H310.828V825H303.828ZM317.241 808.97C318.921 807.29 321.289 806.45 324.346 806.45C327.402 806.45 329.771 807.29 331.451 808.97C333.131 810.65 333.971 812.96 333.971 815.9C333.971 818.84 333.131 821.15 331.451 822.83C329.771 824.51 327.402 825.35 324.346 825.35C321.289 825.35 318.921 824.51 317.241 822.83C315.561 821.15 314.721 818.84 314.721 815.9C314.721 812.96 315.561 810.65 317.241 808.97ZM322.001 819.505C322.514 820.228 323.296 820.59 324.346 820.59C325.396 820.59 326.177 820.228 326.691 819.505C327.204 818.782 327.461 817.58 327.461 815.9C327.461 814.22 327.204 813.018 326.691 812.295C326.177 811.572 325.396 811.21 324.346 811.21C323.296 811.21 322.514 811.572 322.001 812.295C321.487 813.018 321.231 814.22 321.231 815.9C321.231 817.58 321.487 818.782 322.001 819.505ZM351.688 819.295L353.088 823.95C351.081 824.883 348.981 825.35 346.788 825.35C343.568 825.35 341.013 824.498 339.123 822.795C337.233 821.092 336.288 818.793 336.288 815.9C336.288 812.983 337.21 810.685 339.053 809.005C340.92 807.302 343.498 806.45 346.788 806.45C349.051 806.45 351.151 806.917 353.088 807.85L351.688 812.575C350.241 811.688 348.725 811.245 347.138 811.245C345.808 811.245 344.77 811.642 344.023 812.435C343.3 813.228 342.938 814.383 342.938 815.9C342.938 817.37 343.323 818.525 344.093 819.365C344.863 820.205 345.878 820.625 347.138 820.625C348.725 820.625 350.241 820.182 351.688 819.295ZM364.027 817.65H363.957V825H357.307V798.75H363.957V813.45H364.027L368.857 806.8H376.382L369.382 815.55L376.557 825H369.032L364.027 817.65ZM393.396 812.295C391.272 811.525 389.289 811.14 387.446 811.14C386.442 811.14 385.754 811.233 385.381 811.42C385.007 811.583 384.821 811.852 384.821 812.225C384.821 812.575 384.972 812.843 385.276 813.03C385.579 813.217 386.127 813.357 386.921 813.45C389.791 813.8 391.844 814.477 393.081 815.48C394.341 816.483 394.971 817.848 394.971 819.575C394.971 821.348 394.259 822.76 392.836 823.81C391.436 824.837 389.406 825.35 386.746 825.35C383.596 825.35 380.737 824.767 378.171 823.6L379.396 818.91C381.496 820.03 383.712 820.59 386.046 820.59C387.562 820.59 388.321 820.193 388.321 819.4C388.321 819.097 388.204 818.887 387.971 818.77C387.737 818.653 387.154 818.513 386.221 818.35C383.397 817.907 381.379 817.183 380.166 816.18C378.952 815.153 378.346 813.777 378.346 812.05C378.346 810.3 379.046 808.935 380.446 807.955C381.846 806.952 383.946 806.45 386.746 806.45C389.522 806.45 392.147 806.858 394.621 807.675L393.396 812.295ZM420.862 799.1C422.356 799.1 423.931 799.275 425.587 799.625L424.712 804.525C423.872 804.175 422.997 804 422.087 804C421.271 804 420.711 804.198 420.407 804.595C420.104 804.968 419.952 805.703 419.952 806.8V807.5H425.237V812.05H419.952V825H413.162V812.05H409.137V807.5H413.162V806.8C413.162 804.303 413.827 802.402 415.157 801.095C416.487 799.765 418.389 799.1 420.862 799.1ZM429.726 808.97C431.406 807.29 433.774 806.45 436.831 806.45C439.888 806.45 442.256 807.29 443.936 808.97C445.616 810.65 446.456 812.96 446.456 815.9C446.456 818.84 445.616 821.15 443.936 822.83C442.256 824.51 439.888 825.35 436.831 825.35C433.774 825.35 431.406 824.51 429.726 822.83C428.046 821.15 427.206 818.84 427.206 815.9C427.206 812.96 428.046 810.65 429.726 808.97ZM434.486 819.505C434.999 820.228 435.781 820.59 436.831 820.59C437.881 820.59 438.663 820.228 439.176 819.505C439.689 818.782 439.946 817.58 439.946 815.9C439.946 814.22 439.689 813.018 439.176 812.295C438.663 811.572 437.881 811.21 436.831 811.21C435.781 811.21 434.999 811.572 434.486 812.295C433.973 813.018 433.716 814.22 433.716 815.9C433.716 817.58 433.973 818.782 434.486 819.505ZM464.357 806.45V811.7C461.743 811.7 459.772 812.19 458.442 813.17C457.112 814.15 456.447 815.527 456.447 817.3V825H449.657V806.8H455.922L455.957 810.3H456.027C458.033 807.733 460.81 806.45 464.357 806.45ZM472.681 814.15H478.596C478.596 811.933 477.604 810.825 475.621 810.825C473.824 810.825 472.844 811.933 472.681 814.15ZM472.751 818C473.148 819.867 474.478 820.8 476.741 820.8C478.491 820.8 480.159 820.392 481.746 819.575L483.146 823.95C480.999 824.883 478.666 825.35 476.146 825.35C473.136 825.35 470.721 824.498 468.901 822.795C467.081 821.092 466.171 818.793 466.171 815.9C466.171 812.983 466.999 810.685 468.656 809.005C470.336 807.302 472.599 806.45 475.446 806.45C478.363 806.45 480.638 807.278 482.271 808.935C483.904 810.568 484.721 812.89 484.721 815.9C484.721 816.53 484.663 817.23 484.546 818H472.751ZM488.775 803.65V798.75H495.775V803.65H488.775ZM488.775 825V806.8H495.775V825H488.775ZM512.267 822.2H512.232C510.879 823.833 509.14 824.65 507.017 824.65C504.94 824.65 503.225 823.845 501.872 822.235C500.519 820.602 499.842 818.373 499.842 815.55C499.842 812.68 500.495 810.452 501.802 808.865C503.109 807.255 504.847 806.45 507.017 806.45C509.094 806.45 510.89 807.383 512.407 809.25H512.477L512.617 806.8H518.742V822.9C518.742 826.237 517.82 828.757 515.977 830.46C514.134 832.187 511.439 833.05 507.892 833.05C505.652 833.05 503.552 832.7 501.592 832L502.642 827.31C504.275 827.987 505.909 828.325 507.542 828.325C509.245 828.325 510.459 827.917 511.182 827.1C511.905 826.307 512.267 824.907 512.267 822.9V822.2ZM506.142 815.55C506.142 816.88 506.41 817.918 506.947 818.665C507.507 819.388 508.23 819.75 509.117 819.75C510.027 819.75 510.75 819.412 511.287 818.735C511.824 818.035 512.092 817.032 512.092 815.725V815.375C512.092 814.092 511.824 813.1 511.287 812.4C510.75 811.7 510.027 811.35 509.117 811.35C508.184 811.35 507.449 811.712 506.912 812.435C506.399 813.135 506.142 814.173 506.142 815.55ZM529.478 809.25C530.131 808.387 530.936 807.71 531.893 807.22C532.873 806.707 533.865 806.45 534.868 806.45C537.178 806.45 538.835 807.103 539.838 808.41C540.841 809.693 541.343 811.957 541.343 815.2V825H534.763V815.9C534.763 814.15 534.6 812.983 534.273 812.4C533.97 811.817 533.41 811.525 532.593 811.525C531.87 811.525 531.216 811.922 530.633 812.715C530.073 813.508 529.793 814.453 529.793 815.55V825H523.143V806.8H529.268L529.408 809.25H529.478ZM565.807 813.1H566.857C566.857 812.307 566.706 811.758 566.402 811.455C566.099 811.152 565.551 811 564.757 811C562.307 811 559.916 811.525 557.582 812.575L556.707 808.025C559.274 806.975 562.074 806.45 565.107 806.45C568.141 806.45 570.299 807.022 571.582 808.165C572.866 809.285 573.507 811.163 573.507 813.8V820.1C573.507 821.78 573.682 823.413 574.032 825H567.732C567.592 824.207 567.476 823.39 567.382 822.55H567.312C566.682 823.39 565.866 824.067 564.862 824.58C563.859 825.093 562.832 825.35 561.782 825.35C559.986 825.35 558.539 824.86 557.442 823.88C556.369 822.877 555.832 821.5 555.832 819.75C555.832 817.743 556.684 816.133 558.387 814.92C560.114 813.707 562.587 813.1 565.807 813.1ZM561.782 819.05C561.782 820.1 562.366 820.625 563.532 820.625C564.536 820.625 565.341 820.345 565.947 819.785C566.554 819.225 566.857 818.455 566.857 817.475V816.95H565.807C564.477 816.95 563.474 817.148 562.797 817.545C562.121 817.918 561.782 818.42 561.782 819.05ZM578.804 803.65V798.75H585.804V803.65H578.804ZM578.804 825V806.8H585.804V825H578.804ZM589.871 815.9C589.871 812.89 590.513 810.568 591.796 808.935C593.103 807.278 594.853 806.45 597.046 806.45C599.03 806.45 600.698 807.267 602.051 808.9H602.121V798.75H608.771V825H602.646L602.506 822.55H602.436C600.966 824.417 599.17 825.35 597.046 825.35C594.946 825.35 593.22 824.51 591.866 822.83C590.536 821.15 589.871 818.84 589.871 815.9ZM596.171 815.9C596.171 817.3 596.451 818.385 597.011 819.155C597.571 819.902 598.283 820.275 599.146 820.275C600.056 820.275 600.78 819.913 601.316 819.19C601.853 818.467 602.121 817.428 602.121 816.075V815.725C602.121 814.395 601.853 813.368 601.316 812.645C600.78 811.898 600.056 811.525 599.146 811.525C598.213 811.525 597.478 811.898 596.941 812.645C596.428 813.368 596.171 814.453 596.171 815.9Z" fill="white"/>
<defs>
<filter id="filter0_d_612_73" x="-224.9" y="112.6" width="1021.34" height="927.3" filterUnits="userSpaceOnUse" color-interpolation-filters="sRGB">
<feFlood flood-opacity="0" result="BackgroundImageFix"/>
<feColorMatrix in="SourceAlpha" type="matrix" values="0 0 0 0 0 0 0 0 0 0 0 0 0 0 0 0 0 0 127 0" result="hardAlpha"/>
<feOffset/>
<feGaussianBlur stdDeviation="34.95"/>
<feComposite in2="hardAlpha" operator="out"/>
<feColorMatrix type="matrix" values="0 0 0 0 0 0 0 0 0 0 0 0 0 0 0 0 0 0 0.15 0"/>
<feBlend mode="normal" in2="BackgroundImageFix" result="effect1_dropShadow_612_73"/>
<feBlend mode="normal" in="SourceGraphic" in2="effect1_dropShadow_612_73" result="shape"/>
</filter>
<filter id="filter1_d_612_73" x="116.1" y="-17.4" width="501.8" height="315.8" filterUnits="userSpaceOnUse" color-interpolation-filters="sRGB">
<feFlood flood-opacity="0" result="BackgroundImageFix"/>
<feColorMatrix in="SourceAlpha" type="matrix" values="0 0 0 0 0 0 0 0 0 0 0 0 0 0 0 0 0 0 127 0" result="hardAlpha"/>
<feOffset/>
<feGaussianBlur stdDeviation="34.95"/>
<feComposite in2="hardAlpha" operator="out"/>
<feColorMatrix type="matrix" values="0 0 0 0 0 0 0 0 0 0 0 0 0 0 0 0 0 0 0.15 0"/>
<feBlend mode="normal" in2="BackgroundImageFix" result="effect1_dropShadow_612_73"/>
<feBlend mode="normal" in="SourceGraphic" in2="effect1_dropShadow_612_73" result="shape"/>
</filter>
<linearGradient id="paint0_linear_612_73" x1="285.768" y1="76" x2="285.768" y2="970" gradientUnits="userSpaceOnUse">
<stop stop-color="#FA38CF"/>
<stop offset="1" stop-color="#CE43AF" stop-opacity="0.63"/>
</linearGradient>
<linearGradient id="paint1_linear_612_73" x1="285.768" y1="23.5" x2="285.768" y2="917.5" gradientUnits="userSpaceOnUse">
<stop stop-color="#FA38CF"/>
<stop offset="1" stop-color="#CE43AF" stop-opacity="0.54"/>
</linearGradient>
</defs>
</svg>
