<svg width="641" height="900" viewBox="0 0 641 900" fill="none" xmlns="http://www.w3.org/2000/svg">
<rect x="1.01953" width="639.02" height="900" fill="#BD904C"/>
<mask id="mask0_620_161" style="mask-type:alpha" maskUnits="userSpaceOnUse" x="1" y="0" width="640" height="900">
<rect x="1.01953" width="639.02" height="900" fill="white"/>
</mask>
<g mask="url(#mask0_620_161)">
<path d="M125.248 21.5328C137.656 33.098 156.152 54.1776 165.798 65.6005L134.031 88.5344C122.763 75.146 107 55.7755 93.6805 43.6407L125.248 21.5328ZM166.701 -6.75718C179.565 5.09283 198.346 25.7166 207.537 36.8546L176.139 59.7031C165.242 46.2292 148.368 27.1151 135.134 15.3506L166.701 -6.75718ZM32.7091 46.4071C33.6426 55.5515 36.4502 72.8431 38.1242 81.8165C67.4422 227.926 54.3135 313.246 -18.3022 395.92L-80.2196 365.755C-65.032 352.109 -47.8194 333.705 -34.8761 311.997C2.89872 249.067 -2.04041 183.518 -21.9727 96.861C-23.8467 88.7137 -29.6719 70.1688 -33.1973 61.6228L32.7091 46.4071ZM175.316 98.5028C175.568 104.685 176.557 115.766 177.409 119.469C185.724 162.399 204.165 264.61 197.558 307.085C194.097 329.334 181.186 344.405 153.047 350.901C130.091 356.201 107.449 359.478 89.706 362.015L68.8718 303.645C87.0406 302.961 106.435 300.823 120.505 297.575C133.094 294.668 136.144 289.284 137.718 279.171C141.919 256.751 132.281 191.117 122.996 150.751L-49.545 190.586C-61.0231 193.235 -84.6346 199.077 -101.326 204.49L-114.784 145.978C-97.3265 143.897 -75.9662 140.136 -61.8963 136.888L102.87 98.8485C112.126 96.7115 122.978 93.036 132.92 88.7909L175.316 98.5028ZM302.537 -6.13765C332.088 5.36964 389.451 32.6859 417.119 51.2581L382.024 108.89C357.46 91.9411 301.437 61.9754 270.434 49.2433L302.537 -6.13765ZM304.298 252.413C357.023 232.44 400.954 204.748 432.384 175.262C490.172 121.361 526.954 52.4203 539.751 -5.52348L589.121 49.7677C571.596 109.193 530.859 172.807 477.374 223.375C444.718 254.314 401.013 284.684 356.064 302.861L304.298 252.413ZM332.975 605.943C328.67 614.346 324.764 621.098 322.624 627.052C304.247 682.774 263.185 763.623 219.267 815.102L164.84 783.598C200.891 743.685 228.35 690.156 239.938 652.382C207.725 659.819 88.8713 687.258 56.6587 694.695C41.478 698.2 19.7734 705.551 11.8833 708.542L-2.59747 645.586C7.4552 645.215 31.2927 642.052 43.8816 639.145C69.7998 633.162 199.391 603.243 240.49 593.755C257.152 589.908 271.536 584.637 280.111 579.538L332.975 605.943ZM167.057 832.226C140.641 815.704 98.5112 791.891 71.3517 780.612L109.886 731.156C135.109 742.492 175.106 762.118 210.66 782.769C241.375 801.028 277.781 825.383 301.86 843.613L258.623 898.055C237.306 879.967 197.201 851.396 167.057 832.226ZM425.152 526.942C454.704 538.45 512.067 565.766 539.734 584.338L504.64 641.97C480.075 625.021 424.053 595.056 393.05 582.323L425.152 526.942ZM426.914 785.493C479.639 765.52 523.569 737.828 554.999 708.342C612.787 654.442 649.569 585.5 662.366 527.557L711.737 582.848C694.212 642.273 653.475 705.887 599.989 756.455C567.333 787.394 523.629 817.764 478.68 835.941L426.914 785.493Z" fill="#CACACA"/>
<g filter="url(#filter0_d_620_161)">
<path d="M990 1092L-46.3408 1073.48L-59.9569 943.35L-65 804.209L-29.1945 572.976L-11 541.5L55.5283 516.419L107.5 495.5L162 432.5L169 343.04L147 273.04L64.5 207.04L86.5 144.54L208.836 133.581L297.593 53L359.5 92.5399H433.25L480.151 198.647L540 248.04L580.5 313.54L467.543 350.04L446.362 421.823L411.565 465.367L433.25 582.986L467.543 657.561L527.555 741.146L617.321 688.592L696.496 572.976V517.42L787.775 430.832L813.999 582.986L737.849 642.045L664.725 876.282L696.496 1047.96L990 1092Z" fill="url(#paint0_linear_620_161)" shape-rendering="crispEdges"/>
</g>
</g>
<path d="M79.6353 607H106.835V639.8C99.8486 642.467 92.382 643.8 84.4353 643.8C74.6753 643.8 66.8886 641.08 61.0753 635.64C55.3153 630.2 52.4353 622.92 52.4353 613.8C52.4353 604.467 55.2353 597.133 60.8353 591.8C66.4886 586.467 74.3553 583.8 84.4353 583.8C92.3286 583.8 98.9953 585.667 104.435 589.4L100.035 600.84C95.2886 597.907 90.622 596.44 86.0353 596.44C80.542 596.44 76.2753 597.96 73.2353 601C70.1953 604.04 68.6753 608.307 68.6753 613.8C68.6753 619.24 70.2486 623.507 73.3953 626.6C76.542 629.64 80.7553 631.16 86.0353 631.16C88.1153 631.16 89.982 630.893 91.6353 630.36V619H79.6353V607ZM158.714 637.56C154.607 641.72 148.687 643.8 140.954 643.8C133.221 643.8 127.274 641.72 123.114 637.56C119.007 633.347 116.954 627.16 116.954 619V584.6H133.114V620.2C133.114 623.987 133.781 626.733 135.114 628.44C136.447 630.147 138.447 631 141.114 631C143.781 631 145.781 630.147 147.114 628.44C148.447 626.733 149.114 623.987 149.114 620.2V584.6H164.954V619C164.954 627.16 162.874 633.347 158.714 637.56ZM208.841 616.6H209.001V584.6H224.601V643H209.001L191.561 611H191.401V643H175.801V584.6H191.401L208.841 616.6ZM275.07 600.2C269.683 597.533 264.216 596.2 258.67 596.2C256.163 596.2 254.27 596.653 252.99 597.56C251.71 598.413 251.07 599.56 251.07 601C251.07 603.24 252.803 604.84 256.27 605.8C264.643 608.04 270.536 610.733 273.95 613.88C277.363 616.973 279.07 620.947 279.07 625.8C279.07 631.667 277.043 636.147 272.99 639.24C268.936 642.28 262.83 643.8 254.67 643.8C251.256 643.8 247.576 643.24 243.63 642.12C239.736 640.947 236.616 639.507 234.27 637.8L237.87 625.4C240.59 627.267 243.523 628.733 246.67 629.8C249.87 630.867 252.803 631.4 255.47 631.4C260.27 631.4 262.67 629.667 262.67 626.2C262.67 623.96 260.536 622.227 256.27 621C248.483 618.76 242.936 616.067 239.63 612.92C236.323 609.773 234.67 605.8 234.67 601C234.67 595.72 236.67 591.533 240.67 588.44C244.723 585.347 250.456 583.8 257.87 583.8C265.763 583.8 272.43 585.133 277.87 587.8L275.07 600.2ZM305.17 584.6V629.8H328.77V643H288.77V584.6H305.17ZM339.257 643V584.6H356.857V643H339.257ZM402.357 616.6H402.517V584.6H418.117V643H402.517L385.077 611H384.917V643H369.317V584.6H384.917L402.357 616.6ZM453.385 607H480.585V639.8C473.599 642.467 466.132 643.8 458.185 643.8C448.425 643.8 440.639 641.08 434.825 635.64C429.065 630.2 426.185 622.92 426.185 613.8C426.185 604.467 428.985 597.133 434.585 591.8C440.239 586.467 448.105 583.8 458.185 583.8C466.079 583.8 472.745 585.667 478.185 589.4L473.785 600.84C469.039 597.907 464.372 596.44 459.785 596.44C454.292 596.44 450.025 597.96 446.985 601C443.945 604.04 442.425 608.307 442.425 613.8C442.425 619.24 443.999 623.507 447.145 626.6C450.292 629.64 454.505 631.16 459.785 631.16C461.865 631.16 463.732 630.893 465.385 630.36V619H453.385V607ZM528.304 607V619H507.504V630.2H529.904V643H491.504V584.6H529.904V597.4H507.504V607H528.304ZM556.401 622.6V643H540.801V585C547.734 584.2 554.668 583.8 561.601 583.8C577.601 583.8 585.601 589.8 585.601 601.8C585.601 605.16 584.561 608.28 582.481 611.16C580.401 614.04 577.708 616.093 574.401 617.32V617.48C576.001 618.387 577.334 619.56 578.401 621C579.468 622.387 580.481 624.387 581.441 627L587.201 643H570.801L565.841 627.8C565.254 625.933 564.508 624.6 563.601 623.8C562.694 623 561.494 622.6 560.001 622.6H556.401ZM556.401 611H560.801C563.521 611 565.654 610.333 567.201 609C568.801 607.613 569.601 605.747 569.601 603.4C569.601 598.333 566.668 595.8 560.801 595.8C559.094 595.8 557.628 595.933 556.401 596.2V611Z" fill="white"/>
<path d="M30.681 676.3C30.241 676.3 29.791 676.35 29.331 676.45V680.65H30.231C32.531 680.65 33.681 679.9 33.681 678.4C33.681 677 32.681 676.3 30.681 676.3ZM39.681 687.7C39.681 689.96 38.941 691.63 37.461 692.71C36.001 693.77 33.641 694.3 30.381 694.3C27.941 694.3 25.641 694.15 23.481 693.85V672.25C25.541 671.95 27.741 671.8 30.081 671.8C36.081 671.8 39.081 673.7 39.081 677.5C39.081 678.78 38.671 679.87 37.851 680.77C37.031 681.65 35.941 682.2 34.581 682.42V682.48C36.121 682.68 37.351 683.27 38.271 684.25C39.211 685.23 39.681 686.38 39.681 687.7ZM34.131 687.1C34.131 685.6 33.031 684.85 30.831 684.85H29.331V689.65C29.791 689.75 30.241 689.8 30.681 689.8C31.881 689.8 32.751 689.58 33.291 689.14C33.851 688.7 34.131 688.02 34.131 687.1ZM46.9298 684.7H51.9998C51.9998 682.8 51.1498 681.85 49.4498 681.85C47.9098 681.85 47.0698 682.8 46.9298 684.7ZM46.9898 688C47.3298 689.6 48.4698 690.4 50.4098 690.4C51.9098 690.4 53.3398 690.05 54.6998 689.35L55.8998 693.1C54.0598 693.9 52.0598 694.3 49.8998 694.3C47.3198 694.3 45.2498 693.57 43.6898 692.11C42.1298 690.65 41.3498 688.68 41.3498 686.2C41.3498 683.7 42.0598 681.73 43.4798 680.29C44.9198 678.83 46.8598 678.1 49.2998 678.1C51.7998 678.1 53.7498 678.81 55.1498 680.23C56.5498 681.63 57.2498 683.62 57.2498 686.2C57.2498 686.74 57.1998 687.34 57.0998 688H46.9898ZM68.0814 694.3C66.1014 694.3 64.6314 693.85 63.6714 692.95C62.7114 692.03 62.2314 690.58 62.2314 688.6V682.9H59.0814V679H62.2314V673.3H68.0514V679H72.8814V682.9H68.0514V687.7C68.0514 688.66 68.1614 689.3 68.3814 689.62C68.6014 689.94 69.0014 690.1 69.5814 690.1C70.4614 690.1 71.3614 689.95 72.2814 689.65L72.8814 693.7C71.4014 694.1 69.8014 694.3 68.0814 694.3ZM95.9186 691.9C95.3586 692.64 94.6586 693.23 93.8186 693.67C92.9986 694.09 92.1586 694.3 91.2986 694.3C89.4186 694.3 88.0686 693.81 87.2486 692.83C86.4486 691.85 86.0486 690.14 86.0486 687.7V678.4H91.6886V687.1C91.6886 688.26 91.7986 689.03 92.0186 689.41C92.2386 689.77 92.6486 689.95 93.2486 689.95C93.8686 689.95 94.4186 689.61 94.8986 688.93C95.3986 688.25 95.6486 687.44 95.6486 686.5V678.4H101.349V694H96.0986L95.9786 691.9H95.9186ZM110.374 678.4L110.494 680.5H110.554C111.854 678.9 113.394 678.1 115.174 678.1C117.054 678.1 118.544 678.81 119.644 680.23C120.764 681.63 121.324 683.62 121.324 686.2C121.324 688.72 120.744 690.7 119.584 692.14C118.444 693.58 116.974 694.3 115.174 694.3C113.414 694.3 111.984 693.6 110.884 692.2H110.824V700.6H105.124V678.4H110.374ZM115.924 686.2C115.924 684.96 115.694 684.03 115.234 683.41C114.794 682.77 114.174 682.45 113.374 682.45C112.594 682.45 111.974 682.77 111.514 683.41C111.054 684.03 110.824 684.91 110.824 686.05V686.35C110.824 687.51 111.054 688.4 111.514 689.02C111.974 689.64 112.594 689.95 113.374 689.95C114.114 689.95 114.724 689.63 115.204 688.99C115.684 688.33 115.924 687.4 115.924 686.2ZM141.997 694.3C140.017 694.3 138.547 693.85 137.587 692.95C136.627 692.03 136.147 690.58 136.147 688.6V682.9H132.997V679H136.147V673.3H141.967V679H146.797V682.9H141.967V687.7C141.967 688.66 142.077 689.3 142.297 689.62C142.517 689.94 142.917 690.1 143.497 690.1C144.377 690.1 145.277 689.95 146.197 689.65L146.797 693.7C145.317 694.1 143.717 694.3 141.997 694.3ZM151.381 680.26C152.821 678.82 154.851 678.1 157.471 678.1C160.091 678.1 162.121 678.82 163.561 680.26C165.001 681.7 165.721 683.68 165.721 686.2C165.721 688.72 165.001 690.7 163.561 692.14C162.121 693.58 160.091 694.3 157.471 694.3C154.851 694.3 152.821 693.58 151.381 692.14C149.941 690.7 149.221 688.72 149.221 686.2C149.221 683.68 149.941 681.7 151.381 680.26ZM155.461 689.29C155.901 689.91 156.571 690.22 157.471 690.22C158.371 690.22 159.041 689.91 159.481 689.29C159.921 688.67 160.141 687.64 160.141 686.2C160.141 684.76 159.921 683.73 159.481 683.11C159.041 682.49 158.371 682.18 157.471 682.18C156.571 682.18 155.901 682.49 155.461 683.11C155.021 683.73 154.801 684.76 154.801 686.2C154.801 687.64 155.021 688.67 155.461 689.29ZM187.825 681.1H188.125C189.765 681.1 191.095 681.65 192.115 682.75C193.155 683.83 193.675 685.28 193.675 687.1C193.675 689.44 192.955 691.23 191.515 692.47C190.075 693.69 187.995 694.3 185.275 694.3C182.595 694.3 180.095 693.7 177.775 692.5L179.245 688C181.345 689.04 183.155 689.56 184.675 689.56C185.695 689.56 186.475 689.36 187.015 688.96C187.555 688.54 187.825 687.97 187.825 687.25C187.825 686.65 187.685 686.2 187.405 685.9C187.125 685.6 186.595 685.38 185.815 685.24C185.055 685.08 183.925 685 182.425 685H181.225V681.1L186.325 676.96V676.9H178.225V672.1H193.375V676.9L187.825 681.04V681.1ZM219.52 689.11L220.72 693.1C219 693.9 217.2 694.3 215.32 694.3C212.56 694.3 210.37 693.57 208.75 692.11C207.13 690.65 206.32 688.68 206.32 686.2C206.32 683.7 207.11 681.73 208.69 680.29C210.29 678.83 212.5 678.1 215.32 678.1C217.26 678.1 219.06 678.5 220.72 679.3L219.52 683.35C218.28 682.59 216.98 682.21 215.62 682.21C214.48 682.21 213.59 682.55 212.95 683.23C212.33 683.91 212.02 684.9 212.02 686.2C212.02 687.46 212.35 688.45 213.01 689.17C213.67 689.89 214.54 690.25 215.62 690.25C216.98 690.25 218.28 689.87 219.52 689.11ZM225.297 680.26C226.737 678.82 228.767 678.1 231.387 678.1C234.007 678.1 236.037 678.82 237.477 680.26C238.917 681.7 239.637 683.68 239.637 686.2C239.637 688.72 238.917 690.7 237.477 692.14C236.037 693.58 234.007 694.3 231.387 694.3C228.767 694.3 226.737 693.58 225.297 692.14C223.857 690.7 223.137 688.72 223.137 686.2C223.137 683.68 223.857 681.7 225.297 680.26ZM229.377 689.29C229.817 689.91 230.487 690.22 231.387 690.22C232.287 690.22 232.957 689.91 233.397 689.29C233.837 688.67 234.057 687.64 234.057 686.2C234.057 684.76 233.837 683.73 233.397 683.11C232.957 682.49 232.287 682.18 231.387 682.18C230.487 682.18 229.817 682.49 229.377 683.11C228.937 683.73 228.717 684.76 228.717 686.2C228.717 687.64 228.937 688.67 229.377 689.29ZM242.98 675.7V671.5H248.98V675.7H242.98ZM242.98 694V678.4H248.98V694H242.98ZM258.797 680.5C259.357 679.76 260.047 679.18 260.867 678.76C261.707 678.32 262.557 678.1 263.417 678.1C265.397 678.1 266.817 678.66 267.677 679.78C268.537 680.88 268.967 682.82 268.967 685.6V694H263.327V686.2C263.327 684.7 263.187 683.7 262.907 683.2C262.647 682.7 262.167 682.45 261.467 682.45C260.847 682.45 260.287 682.79 259.787 683.47C259.307 684.15 259.067 684.96 259.067 685.9V694H253.367V678.4H258.617L258.737 680.5H258.797ZM285.035 683.11C283.215 682.45 281.515 682.12 279.935 682.12C279.075 682.12 278.485 682.2 278.165 682.36C277.845 682.5 277.685 682.73 277.685 683.05C277.685 683.35 277.815 683.58 278.075 683.74C278.335 683.9 278.805 684.02 279.485 684.1C281.945 684.4 283.705 684.98 284.765 685.84C285.845 686.7 286.385 687.87 286.385 689.35C286.385 690.87 285.775 692.08 284.555 692.98C283.355 693.86 281.615 694.3 279.335 694.3C276.635 694.3 274.185 693.8 271.985 692.8L273.035 688.78C274.835 689.74 276.735 690.22 278.735 690.22C280.035 690.22 280.685 689.88 280.685 689.2C280.685 688.94 280.585 688.76 280.385 688.66C280.185 688.56 279.685 688.44 278.885 688.3C276.465 687.92 274.735 687.3 273.695 686.44C272.655 685.56 272.135 684.38 272.135 682.9C272.135 681.4 272.735 680.23 273.935 679.39C275.135 678.53 276.935 678.1 279.335 678.1C281.715 678.1 283.965 678.45 286.085 679.15L285.035 683.11ZM293.342 697.3H288.542L290.342 687.7H296.942L293.342 697.3ZM322.265 689.11L323.465 693.1C321.745 693.9 319.945 694.3 318.065 694.3C315.305 694.3 313.115 693.57 311.495 692.11C309.875 690.65 309.065 688.68 309.065 686.2C309.065 683.7 309.855 681.73 311.435 680.29C313.035 678.83 315.245 678.1 318.065 678.1C320.005 678.1 321.805 678.5 323.465 679.3L322.265 683.35C321.025 682.59 319.725 682.21 318.365 682.21C317.225 682.21 316.335 682.55 315.695 683.23C315.075 683.91 314.765 684.9 314.765 686.2C314.765 687.46 315.095 688.45 315.755 689.17C316.415 689.89 317.285 690.25 318.365 690.25C319.725 690.25 321.025 689.87 322.265 689.11ZM342.681 685.6V694H337.041V686.2C337.041 684.7 336.901 683.7 336.621 683.2C336.361 682.7 335.881 682.45 335.181 682.45C334.561 682.45 334.001 682.79 333.501 683.47C333.021 684.15 332.781 684.96 332.781 685.9V694H327.081V671.5H332.781V680.2H332.841C333.341 679.56 333.981 679.05 334.761 678.67C335.541 678.29 336.331 678.1 337.131 678.1C339.111 678.1 340.531 678.66 341.391 679.78C342.251 680.88 342.681 682.82 342.681 685.6ZM347.436 680.26C348.876 678.82 350.906 678.1 353.526 678.1C356.146 678.1 358.176 678.82 359.616 680.26C361.056 681.7 361.776 683.68 361.776 686.2C361.776 688.72 361.056 690.7 359.616 692.14C358.176 693.58 356.146 694.3 353.526 694.3C350.906 694.3 348.876 693.58 347.436 692.14C345.996 690.7 345.276 688.72 345.276 686.2C345.276 683.68 345.996 681.7 347.436 680.26ZM351.516 689.29C351.956 689.91 352.626 690.22 353.526 690.22C354.426 690.22 355.096 689.91 355.536 689.29C355.976 688.67 356.196 687.64 356.196 686.2C356.196 684.76 355.976 683.73 355.536 683.11C355.096 682.49 354.426 682.18 353.526 682.18C352.626 682.18 351.956 682.49 351.516 683.11C351.076 683.73 350.856 684.76 350.856 686.2C350.856 687.64 351.076 688.67 351.516 689.29ZM365.922 680.26C367.362 678.82 369.392 678.1 372.012 678.1C374.632 678.1 376.662 678.82 378.102 680.26C379.542 681.7 380.262 683.68 380.262 686.2C380.262 688.72 379.542 690.7 378.102 692.14C376.662 693.58 374.632 694.3 372.012 694.3C369.392 694.3 367.362 693.58 365.922 692.14C364.482 690.7 363.762 688.72 363.762 686.2C363.762 683.68 364.482 681.7 365.922 680.26ZM370.002 689.29C370.442 689.91 371.112 690.22 372.012 690.22C372.912 690.22 373.582 689.91 374.022 689.29C374.462 688.67 374.682 687.64 374.682 686.2C374.682 684.76 374.462 683.73 374.022 683.11C373.582 682.49 372.912 682.18 372.012 682.18C371.112 682.18 370.442 682.49 370.002 683.11C369.562 683.73 369.342 684.76 369.342 686.2C369.342 687.64 369.562 688.67 370.002 689.29ZM395.455 683.11C393.635 682.45 391.935 682.12 390.355 682.12C389.495 682.12 388.905 682.2 388.585 682.36C388.265 682.5 388.105 682.73 388.105 683.05C388.105 683.35 388.235 683.58 388.495 683.74C388.755 683.9 389.225 684.02 389.905 684.1C392.365 684.4 394.125 684.98 395.185 685.84C396.265 686.7 396.805 687.87 396.805 689.35C396.805 690.87 396.195 692.08 394.975 692.98C393.775 693.86 392.035 694.3 389.755 694.3C387.055 694.3 384.605 693.8 382.405 692.8L383.455 688.78C385.255 689.74 387.155 690.22 389.155 690.22C390.455 690.22 391.105 689.88 391.105 689.2C391.105 688.94 391.005 688.76 390.805 688.66C390.605 688.56 390.105 688.44 389.305 688.3C386.885 687.92 385.155 687.3 384.115 686.44C383.075 685.56 382.555 684.38 382.555 682.9C382.555 681.4 383.155 680.23 384.355 679.39C385.555 678.53 387.355 678.1 389.755 678.1C392.135 678.1 394.385 678.45 396.505 679.15L395.455 683.11ZM404.527 684.7H409.597C409.597 682.8 408.747 681.85 407.047 681.85C405.507 681.85 404.667 682.8 404.527 684.7ZM404.587 688C404.927 689.6 406.067 690.4 408.007 690.4C409.507 690.4 410.937 690.05 412.297 689.35L413.497 693.1C411.657 693.9 409.657 694.3 407.497 694.3C404.917 694.3 402.847 693.57 401.287 692.11C399.727 690.65 398.947 688.68 398.947 686.2C398.947 683.7 399.657 681.73 401.077 680.29C402.517 678.83 404.457 678.1 406.897 678.1C409.397 678.1 411.347 678.81 412.747 680.23C414.147 681.63 414.847 683.62 414.847 686.2C414.847 686.74 414.797 687.34 414.697 688H404.587ZM435.073 683.8H435.973C435.973 683.12 435.843 682.65 435.583 682.39C435.323 682.13 434.853 682 434.173 682C432.073 682 430.023 682.45 428.023 683.35L427.273 679.45C429.473 678.55 431.873 678.1 434.473 678.1C437.073 678.1 438.923 678.59 440.023 679.57C441.123 680.53 441.673 682.14 441.673 684.4V689.8C441.673 691.24 441.823 692.64 442.123 694H436.723C436.603 693.32 436.503 692.62 436.423 691.9H436.363C435.823 692.62 435.123 693.2 434.263 693.64C433.403 694.08 432.523 694.3 431.623 694.3C430.083 694.3 428.843 693.88 427.903 693.04C426.983 692.18 426.523 691 426.523 689.5C426.523 687.78 427.253 686.4 428.713 685.36C430.193 684.32 432.313 683.8 435.073 683.8ZM431.623 688.9C431.623 689.8 432.123 690.25 433.123 690.25C433.983 690.25 434.673 690.01 435.193 689.53C435.713 689.05 435.973 688.39 435.973 687.55V687.1H435.073C433.933 687.1 433.073 687.27 432.493 687.61C431.913 687.93 431.623 688.36 431.623 688.9ZM451.043 680.5C451.603 679.76 452.293 679.18 453.113 678.76C453.953 678.32 454.803 678.1 455.663 678.1C457.643 678.1 459.063 678.66 459.923 679.78C460.783 680.88 461.213 682.82 461.213 685.6V694H455.573V686.2C455.573 684.7 455.433 683.7 455.153 683.2C454.893 682.7 454.413 682.45 453.713 682.45C453.093 682.45 452.533 682.79 452.033 683.47C451.553 684.15 451.313 684.96 451.313 685.9V694H445.613V678.4H450.863L450.983 680.5H451.043ZM475.492 680.26C476.932 678.82 478.962 678.1 481.582 678.1C484.202 678.1 486.232 678.82 487.672 680.26C489.112 681.7 489.832 683.68 489.832 686.2C489.832 688.72 489.112 690.7 487.672 692.14C486.232 693.58 484.202 694.3 481.582 694.3C478.962 694.3 476.932 693.58 475.492 692.14C474.052 690.7 473.332 688.72 473.332 686.2C473.332 683.68 474.052 681.7 475.492 680.26ZM479.572 689.29C480.012 689.91 480.682 690.22 481.582 690.22C482.482 690.22 483.152 689.91 483.592 689.29C484.032 688.67 484.252 687.64 484.252 686.2C484.252 684.76 484.032 683.73 483.592 683.11C483.152 682.49 482.482 682.18 481.582 682.18C480.682 682.18 480.012 682.49 479.572 683.11C479.132 683.73 478.912 684.76 478.912 686.2C478.912 687.64 479.132 688.67 479.572 689.29ZM497.826 678.4L497.946 680.5H498.006C499.306 678.9 500.846 678.1 502.626 678.1C504.506 678.1 505.996 678.81 507.096 680.23C508.216 681.63 508.776 683.62 508.776 686.2C508.776 688.72 508.196 690.7 507.036 692.14C505.896 693.58 504.426 694.3 502.626 694.3C500.866 694.3 499.436 693.6 498.336 692.2H498.276V700.6H492.576V678.4H497.826ZM503.376 686.2C503.376 684.96 503.146 684.03 502.686 683.41C502.246 682.77 501.626 682.45 500.826 682.45C500.046 682.45 499.426 682.77 498.966 683.41C498.506 684.03 498.276 684.91 498.276 686.05V686.35C498.276 687.51 498.506 688.4 498.966 689.02C499.426 689.64 500.046 689.95 500.826 689.95C501.566 689.95 502.176 689.63 502.656 688.99C503.136 688.33 503.376 687.4 503.376 686.2ZM516.898 678.4L517.018 680.5H517.078C518.378 678.9 519.918 678.1 521.698 678.1C523.578 678.1 525.068 678.81 526.168 680.23C527.288 681.63 527.848 683.62 527.848 686.2C527.848 688.72 527.268 690.7 526.108 692.14C524.968 693.58 523.498 694.3 521.698 694.3C519.938 694.3 518.508 693.6 517.408 692.2H517.348V700.6H511.648V678.4H516.898ZM522.448 686.2C522.448 684.96 522.218 684.03 521.758 683.41C521.318 682.77 520.698 682.45 519.898 682.45C519.118 682.45 518.498 682.77 518.038 683.41C517.578 684.03 517.348 684.91 517.348 686.05V686.35C517.348 687.51 517.578 688.4 518.038 689.02C518.498 689.64 519.118 689.95 519.898 689.95C520.638 689.95 521.248 689.63 521.728 688.99C522.208 688.33 522.448 687.4 522.448 686.2ZM532.123 680.26C533.563 678.82 535.593 678.1 538.213 678.1C540.833 678.1 542.863 678.82 544.303 680.26C545.743 681.7 546.463 683.68 546.463 686.2C546.463 688.72 545.743 690.7 544.303 692.14C542.863 693.58 540.833 694.3 538.213 694.3C535.593 694.3 533.563 693.58 532.123 692.14C530.683 690.7 529.963 688.72 529.963 686.2C529.963 683.68 530.683 681.7 532.123 680.26ZM536.203 689.29C536.643 689.91 537.313 690.22 538.213 690.22C539.113 690.22 539.783 689.91 540.223 689.29C540.663 688.67 540.883 687.64 540.883 686.2C540.883 684.76 540.663 683.73 540.223 683.11C539.783 682.49 539.113 682.18 538.213 682.18C537.313 682.18 536.643 682.49 536.203 683.11C535.763 683.73 535.543 684.76 535.543 686.2C535.543 687.64 535.763 688.67 536.203 689.29ZM554.636 680.5C555.196 679.76 555.886 679.18 556.706 678.76C557.546 678.32 558.396 678.1 559.256 678.1C561.236 678.1 562.656 678.66 563.516 679.78C564.376 680.88 564.806 682.82 564.806 685.6V694H559.166V686.2C559.166 684.7 559.026 683.7 558.746 683.2C558.486 682.7 558.006 682.45 557.306 682.45C556.686 682.45 556.126 682.79 555.626 683.47C555.146 684.15 554.906 684.96 554.906 685.9V694H549.206V678.4H554.456L554.576 680.5H554.636ZM572.955 684.7H578.025C578.025 682.8 577.175 681.85 575.475 681.85C573.935 681.85 573.095 682.8 572.955 684.7ZM573.015 688C573.355 689.6 574.495 690.4 576.435 690.4C577.935 690.4 579.365 690.05 580.725 689.35L581.925 693.1C580.085 693.9 578.085 694.3 575.925 694.3C573.345 694.3 571.275 693.57 569.715 692.11C568.155 690.65 567.375 688.68 567.375 686.2C567.375 683.7 568.085 681.73 569.505 680.29C570.945 678.83 572.885 678.1 575.325 678.1C577.825 678.1 579.775 678.81 581.175 680.23C582.575 681.63 583.275 683.62 583.275 686.2C583.275 686.74 583.225 687.34 583.125 688H573.015ZM591.58 680.5C592.14 679.76 592.83 679.18 593.65 678.76C594.49 678.32 595.34 678.1 596.2 678.1C598.18 678.1 599.6 678.66 600.46 679.78C601.32 680.88 601.75 682.82 601.75 685.6V694H596.11V686.2C596.11 684.7 595.97 683.7 595.69 683.2C595.43 682.7 594.95 682.45 594.25 682.45C593.63 682.45 593.07 682.79 592.57 683.47C592.09 684.15 591.85 684.96 591.85 685.9V694H586.15V678.4H591.4L591.52 680.5H591.58ZM613.033 694.3C611.053 694.3 609.583 693.85 608.623 692.95C607.663 692.03 607.183 690.58 607.183 688.6V682.9H604.033V679H607.183V673.3H613.003V679H617.833V682.9H613.003V687.7C613.003 688.66 613.113 689.3 613.333 689.62C613.553 689.94 613.953 690.1 614.533 690.1C615.413 690.1 616.313 689.95 617.233 689.65L617.833 693.7C616.353 694.1 614.753 694.3 613.033 694.3ZM52.847 737.3C50.867 737.3 49.397 736.85 48.437 735.95C47.477 735.03 46.997 733.58 46.997 731.6V725.9H43.847V722H46.997V716.3H52.817V722H57.647V725.9H52.817V730.7C52.817 731.66 52.927 732.3 53.147 732.62C53.367 732.94 53.767 733.1 54.347 733.1C55.227 733.1 56.127 732.95 57.047 732.65L57.647 736.7C56.167 737.1 54.567 737.3 52.847 737.3ZM62.2305 723.26C63.6705 721.82 65.7005 721.1 68.3205 721.1C70.9405 721.1 72.9705 721.82 74.4105 723.26C75.8505 724.7 76.5705 726.68 76.5705 729.2C76.5705 731.72 75.8505 733.7 74.4105 735.14C72.9705 736.58 70.9405 737.3 68.3205 737.3C65.7005 737.3 63.6705 736.58 62.2305 735.14C60.7905 733.7 60.0705 731.72 60.0705 729.2C60.0705 726.68 60.7905 724.7 62.2305 723.26ZM66.3105 732.29C66.7505 732.91 67.4205 733.22 68.3205 733.22C69.2205 733.22 69.8905 732.91 70.3305 732.29C70.7705 731.67 70.9905 730.64 70.9905 729.2C70.9905 727.76 70.7705 726.73 70.3305 726.11C69.8905 725.49 69.2205 725.18 68.3205 725.18C67.4205 725.18 66.7505 725.49 66.3105 726.11C65.8705 726.73 65.6505 727.76 65.6505 729.2C65.6505 730.64 65.8705 731.67 66.3105 732.29ZM106.505 737V728.3C106.505 727.1 106.395 726.31 106.175 725.93C105.955 725.55 105.555 725.36 104.975 725.36C104.455 725.36 104.025 725.62 103.685 726.14C103.345 726.64 103.175 727.36 103.175 728.3V737H97.7146V728.3C97.7146 727.1 97.6046 726.31 97.3846 725.93C97.1846 725.55 96.7946 725.36 96.2146 725.36C95.6946 725.36 95.2646 725.62 94.9246 726.14C94.5846 726.64 94.4146 727.36 94.4146 728.3V737H88.8646V721.4H93.9646L94.0846 723.5H94.1446C94.7046 722.76 95.3546 722.18 96.0946 721.76C96.8346 721.32 97.5746 721.1 98.3146 721.1C99.2746 721.1 100.035 721.27 100.595 721.61C101.175 721.93 101.705 722.51 102.185 723.35H102.245C103.105 722.51 103.895 721.93 104.615 721.61C105.335 721.27 106.155 721.1 107.075 721.1C108.795 721.1 110.035 721.57 110.795 722.51C111.575 723.45 111.965 725.08 111.965 727.4V737H106.505ZM123.383 726.8H124.283C124.283 726.12 124.153 725.65 123.893 725.39C123.633 725.13 123.163 725 122.483 725C120.383 725 118.333 725.45 116.333 726.35L115.583 722.45C117.783 721.55 120.183 721.1 122.783 721.1C125.383 721.1 127.233 721.59 128.333 722.57C129.433 723.53 129.983 725.14 129.983 727.4V732.8C129.983 734.24 130.133 735.64 130.433 737H125.033C124.913 736.32 124.813 735.62 124.733 734.9H124.673C124.133 735.62 123.433 736.2 122.573 736.64C121.713 737.08 120.833 737.3 119.933 737.3C118.393 737.3 117.153 736.88 116.213 736.04C115.293 735.18 114.833 734 114.833 732.5C114.833 730.78 115.563 729.4 117.023 728.36C118.503 727.32 120.623 726.8 123.383 726.8ZM119.933 731.9C119.933 732.8 120.433 733.25 121.433 733.25C122.293 733.25 122.983 733.01 123.503 732.53C124.023 732.05 124.283 731.39 124.283 730.55V730.1H123.383C122.243 730.1 121.383 730.27 120.803 730.61C120.223 730.93 119.933 731.36 119.933 731.9ZM141.265 737.3C139.285 737.3 137.815 736.85 136.855 735.95C135.895 735.03 135.415 733.58 135.415 731.6V725.9H132.265V722H135.415V716.3H141.235V722H146.065V725.9H141.235V730.7C141.235 731.66 141.345 732.3 141.565 732.62C141.785 732.94 142.185 733.1 142.765 733.1C143.645 733.1 144.545 732.95 145.465 732.65L146.065 736.7C144.585 737.1 142.985 737.3 141.265 737.3ZM161.688 732.11L162.888 736.1C161.168 736.9 159.368 737.3 157.488 737.3C154.728 737.3 152.538 736.57 150.918 735.11C149.298 733.65 148.488 731.68 148.488 729.2C148.488 726.7 149.278 724.73 150.858 723.29C152.458 721.83 154.668 721.1 157.488 721.1C159.428 721.1 161.228 721.5 162.888 722.3L161.688 726.35C160.448 725.59 159.148 725.21 157.788 725.21C156.648 725.21 155.758 725.55 155.118 726.23C154.498 726.91 154.188 727.9 154.188 729.2C154.188 730.46 154.518 731.45 155.178 732.17C155.838 732.89 156.708 733.25 157.788 733.25C159.148 733.25 160.448 732.87 161.688 732.11ZM182.105 728.6V737H176.465V729.2C176.465 727.7 176.325 726.7 176.045 726.2C175.785 725.7 175.305 725.45 174.605 725.45C173.985 725.45 173.425 725.79 172.925 726.47C172.445 727.15 172.205 727.96 172.205 728.9V737H166.505V714.5H172.205V723.2H172.265C172.765 722.56 173.405 722.05 174.185 721.67C174.965 721.29 175.755 721.1 176.555 721.1C178.535 721.1 179.955 721.66 180.815 722.78C181.675 723.88 182.105 725.82 182.105 728.6ZM202.62 731.9H202.68L205.5 721.4H211.5L203.4 743.6H197.4L200.1 737L194.1 721.4H200.4L202.62 731.9ZM214.428 723.26C215.868 721.82 217.898 721.1 220.518 721.1C223.138 721.1 225.168 721.82 226.608 723.26C228.048 724.7 228.768 726.68 228.768 729.2C228.768 731.72 228.048 733.7 226.608 735.14C225.168 736.58 223.138 737.3 220.518 737.3C217.898 737.3 215.868 736.58 214.428 735.14C212.988 733.7 212.268 731.72 212.268 729.2C212.268 726.68 212.988 724.7 214.428 723.26ZM218.508 732.29C218.948 732.91 219.618 733.22 220.518 733.22C221.418 733.22 222.088 732.91 222.528 732.29C222.968 731.67 223.188 730.64 223.188 729.2C223.188 727.76 222.968 726.73 222.528 726.11C222.088 725.49 221.418 725.18 220.518 725.18C219.618 725.18 218.948 725.49 218.508 726.11C218.068 726.73 217.848 727.76 217.848 729.2C217.848 730.64 218.068 731.67 218.508 732.29ZM241.231 734.9C240.671 735.64 239.971 736.23 239.131 736.67C238.311 737.09 237.471 737.3 236.611 737.3C234.731 737.3 233.381 736.81 232.561 735.83C231.761 734.85 231.361 733.14 231.361 730.7V721.4H237.001V730.1C237.001 731.26 237.111 732.03 237.331 732.41C237.551 732.77 237.961 732.95 238.561 732.95C239.181 732.95 239.731 732.61 240.211 731.93C240.711 731.25 240.961 730.44 240.961 729.5V721.4H246.661V737H241.411L241.291 734.9H241.231ZM263.037 721.1V725.6C260.797 725.6 259.107 726.02 257.967 726.86C256.827 727.7 256.257 728.88 256.257 730.4V737H250.437V721.4H255.807L255.837 724.4H255.897C257.617 722.2 259.997 721.1 263.037 721.1ZM292.129 729.2C292.129 731.72 291.549 733.7 290.389 735.14C289.249 736.58 287.779 737.3 285.979 737.3C284.159 737.3 282.619 736.5 281.359 734.9H281.299L281.179 737H275.929V714.5H281.629V723.2H281.689C282.849 721.8 284.279 721.1 285.979 721.1C287.859 721.1 289.349 721.81 290.449 723.23C291.569 724.63 292.129 726.62 292.129 729.2ZM286.729 729.2C286.729 727.96 286.499 727.03 286.039 726.41C285.599 725.77 284.979 725.45 284.179 725.45C283.399 725.45 282.779 725.77 282.319 726.41C281.859 727.03 281.629 727.91 281.629 729.05V729.35C281.629 730.51 281.859 731.4 282.319 732.02C282.779 732.64 283.399 732.95 284.179 732.95C284.919 732.95 285.529 732.63 286.009 731.99C286.489 731.33 286.729 730.4 286.729 729.2ZM299.82 727.7H304.89C304.89 725.8 304.04 724.85 302.34 724.85C300.8 724.85 299.96 725.8 299.82 727.7ZM299.88 731C300.22 732.6 301.36 733.4 303.3 733.4C304.8 733.4 306.23 733.05 307.59 732.35L308.79 736.1C306.95 736.9 304.95 737.3 302.79 737.3C300.21 737.3 298.14 736.57 296.58 735.11C295.02 733.65 294.24 731.68 294.24 729.2C294.24 726.7 294.95 724.73 296.37 723.29C297.81 721.83 299.75 721.1 302.19 721.1C304.69 721.1 306.64 721.81 308.04 723.23C309.44 724.63 310.14 726.62 310.14 729.2C310.14 729.74 310.09 730.34 309.99 731H299.88ZM320.972 737.3C318.992 737.3 317.522 736.85 316.562 735.95C315.602 735.03 315.122 733.58 315.122 731.6V725.9H311.972V722H315.122V716.3H320.942V722H325.772V725.9H320.942V730.7C320.942 731.66 321.052 732.3 321.272 732.62C321.492 732.94 321.892 733.1 322.472 733.1C323.352 733.1 324.252 732.95 325.172 732.65L325.772 736.7C324.292 737.1 322.692 737.3 320.972 737.3ZM329.845 737V730.7H336.445V737H329.845ZM359.519 723.5H369.719V735.8C367.099 736.8 364.299 737.3 361.319 737.3C357.659 737.3 354.739 736.28 352.559 734.24C350.399 732.2 349.319 729.47 349.319 726.05C349.319 722.55 350.369 719.8 352.469 717.8C354.589 715.8 357.539 714.8 361.319 714.8C364.279 714.8 366.779 715.5 368.819 716.9L367.169 721.19C365.389 720.09 363.639 719.54 361.919 719.54C359.859 719.54 358.259 720.11 357.119 721.25C355.979 722.39 355.409 723.99 355.409 726.05C355.409 728.09 355.999 729.69 357.179 730.85C358.359 731.99 359.939 732.56 361.919 732.56C362.699 732.56 363.399 732.46 364.019 732.26V728H359.519V723.5ZM383.233 734.9C382.673 735.64 381.973 736.23 381.133 736.67C380.313 737.09 379.473 737.3 378.613 737.3C376.733 737.3 375.383 736.81 374.563 735.83C373.763 734.85 373.363 733.14 373.363 730.7V721.4H379.003V730.1C379.003 731.26 379.113 732.03 379.333 732.41C379.553 732.77 379.963 732.95 380.563 732.95C381.183 732.95 381.733 732.61 382.213 731.93C382.713 731.25 382.963 730.44 382.963 729.5V721.4H388.663V737H383.413L383.293 734.9H383.233ZM396.969 727.7H402.039C402.039 725.8 401.189 724.85 399.489 724.85C397.949 724.85 397.109 725.8 396.969 727.7ZM397.029 731C397.369 732.6 398.509 733.4 400.449 733.4C401.949 733.4 403.379 733.05 404.739 732.35L405.939 736.1C404.099 736.9 402.099 737.3 399.939 737.3C397.359 737.3 395.289 736.57 393.729 735.11C392.169 733.65 391.389 731.68 391.389 729.2C391.389 726.7 392.099 724.73 393.519 723.29C394.959 721.83 396.899 721.1 399.339 721.1C401.839 721.1 403.789 721.81 405.189 723.23C406.589 724.63 407.289 726.62 407.289 729.2C407.289 729.74 407.239 730.34 407.139 731H397.029ZM422.613 726.11C420.793 725.45 419.093 725.12 417.513 725.12C416.653 725.12 416.063 725.2 415.743 725.36C415.423 725.5 415.263 725.73 415.263 726.05C415.263 726.35 415.393 726.58 415.653 726.74C415.913 726.9 416.383 727.02 417.063 727.1C419.523 727.4 421.283 727.98 422.343 728.84C423.423 729.7 423.963 730.87 423.963 732.35C423.963 733.87 423.353 735.08 422.133 735.98C420.933 736.86 419.193 737.3 416.913 737.3C414.213 737.3 411.763 736.8 409.563 735.8L410.613 731.78C412.413 732.74 414.313 733.22 416.313 733.22C417.613 733.22 418.263 732.88 418.263 732.2C418.263 731.94 418.163 731.76 417.963 731.66C417.763 731.56 417.263 731.44 416.463 731.3C414.043 730.92 412.313 730.3 411.273 729.44C410.233 728.56 409.713 727.38 409.713 725.9C409.713 724.4 410.313 723.23 411.513 722.39C412.713 721.53 414.513 721.1 416.913 721.1C419.293 721.1 421.543 721.45 423.663 722.15L422.613 726.11ZM439.313 726.11C437.493 725.45 435.793 725.12 434.213 725.12C433.353 725.12 432.763 725.2 432.443 725.36C432.123 725.5 431.963 725.73 431.963 726.05C431.963 726.35 432.093 726.58 432.353 726.74C432.613 726.9 433.083 727.02 433.763 727.1C436.223 727.4 437.983 727.98 439.043 728.84C440.123 729.7 440.663 730.87 440.663 732.35C440.663 733.87 440.053 735.08 438.833 735.98C437.633 736.86 435.893 737.3 433.613 737.3C430.913 737.3 428.463 736.8 426.263 735.8L427.313 731.78C429.113 732.74 431.013 733.22 433.013 733.22C434.313 733.22 434.963 732.88 434.963 732.2C434.963 731.94 434.863 731.76 434.663 731.66C434.463 731.56 433.963 731.44 433.163 731.3C430.743 730.92 429.013 730.3 427.973 729.44C426.933 728.56 426.413 727.38 426.413 725.9C426.413 724.4 427.013 723.23 428.213 722.39C429.413 721.53 431.213 721.1 433.613 721.1C435.993 721.1 438.243 721.45 440.363 722.15L439.313 726.11ZM461.206 726.8H462.106C462.106 726.12 461.976 725.65 461.716 725.39C461.456 725.13 460.986 725 460.306 725C458.206 725 456.156 725.45 454.156 726.35L453.406 722.45C455.606 721.55 458.006 721.1 460.606 721.1C463.206 721.1 465.056 721.59 466.156 722.57C467.256 723.53 467.806 725.14 467.806 727.4V732.8C467.806 734.24 467.956 735.64 468.256 737H462.856C462.736 736.32 462.636 735.62 462.556 734.9H462.496C461.956 735.62 461.256 736.2 460.396 736.64C459.536 737.08 458.656 737.3 457.756 737.3C456.216 737.3 454.976 736.88 454.036 736.04C453.116 735.18 452.656 734 452.656 732.5C452.656 730.78 453.386 729.4 454.846 728.36C456.326 727.32 458.446 726.8 461.206 726.8ZM457.756 731.9C457.756 732.8 458.256 733.25 459.256 733.25C460.116 733.25 460.806 733.01 461.326 732.53C461.846 732.05 462.106 731.39 462.106 730.55V730.1H461.206C460.066 730.1 459.206 730.27 458.626 730.61C458.046 730.93 457.756 731.36 457.756 731.9ZM493.446 732.11L494.646 736.1C492.926 736.9 491.126 737.3 489.246 737.3C486.486 737.3 484.296 736.57 482.676 735.11C481.056 733.65 480.246 731.68 480.246 729.2C480.246 726.7 481.036 724.73 482.616 723.29C484.216 721.83 486.426 721.1 489.246 721.1C491.186 721.1 492.986 721.5 494.646 722.3L493.446 726.35C492.206 725.59 490.906 725.21 489.546 725.21C488.406 725.21 487.516 725.55 486.876 726.23C486.256 726.91 485.946 727.9 485.946 729.2C485.946 730.46 486.276 731.45 486.936 732.17C487.596 732.89 488.466 733.25 489.546 733.25C490.906 733.25 492.206 732.87 493.446 732.11ZM505.913 726.8H506.813C506.813 726.12 506.683 725.65 506.423 725.39C506.163 725.13 505.693 725 505.013 725C502.913 725 500.863 725.45 498.863 726.35L498.113 722.45C500.313 721.55 502.713 721.1 505.313 721.1C507.913 721.1 509.763 721.59 510.863 722.57C511.963 723.53 512.513 725.14 512.513 727.4V732.8C512.513 734.24 512.663 735.64 512.963 737H507.563C507.443 736.32 507.343 735.62 507.263 734.9H507.203C506.663 735.62 505.963 736.2 505.103 736.64C504.243 737.08 503.363 737.3 502.463 737.3C500.923 737.3 499.683 736.88 498.743 736.04C497.823 735.18 497.363 734 497.363 732.5C497.363 730.78 498.093 729.4 499.553 728.36C501.033 727.32 503.153 726.8 505.913 726.8ZM502.463 731.9C502.463 732.8 502.963 733.25 503.963 733.25C504.823 733.25 505.513 733.01 506.033 732.53C506.553 732.05 506.813 731.39 506.813 730.55V730.1H505.913C504.773 730.1 503.913 730.27 503.333 730.61C502.753 730.93 502.463 731.36 502.463 731.9ZM529.053 721.1V725.6C526.813 725.6 525.123 726.02 523.983 726.86C522.843 727.7 522.272 728.88 522.272 730.4V737H516.453V721.4H521.823L521.853 724.4H521.913C523.633 722.2 526.013 721.1 529.053 721.1ZM530.758 729.2C530.758 726.62 531.308 724.63 532.408 723.23C533.528 721.81 535.028 721.1 536.908 721.1C538.608 721.1 540.038 721.8 541.198 723.2H541.258V714.5H546.958V737H541.708L541.588 734.9H541.528C540.268 736.5 538.728 737.3 536.908 737.3C535.108 737.3 533.628 736.58 532.468 735.14C531.328 733.7 530.758 731.72 530.758 729.2ZM536.158 729.2C536.158 730.4 536.398 731.33 536.878 731.99C537.358 732.63 537.968 732.95 538.708 732.95C539.488 732.95 540.108 732.64 540.568 732.02C541.028 731.4 541.258 730.51 541.258 729.35V729.05C541.258 727.91 541.028 727.03 540.568 726.41C540.108 725.77 539.488 725.45 538.708 725.45C537.908 725.45 537.278 725.77 536.818 726.41C536.378 727.03 536.158 727.96 536.158 729.2ZM561.027 718.7V714.5H567.027V718.7H561.027ZM561.027 737V721.4H567.027V737H561.027ZM576.843 723.5C577.403 722.76 578.093 722.18 578.913 721.76C579.753 721.32 580.603 721.1 581.463 721.1C583.443 721.1 584.863 721.66 585.723 722.78C586.583 723.88 587.013 725.82 587.013 728.6V737H581.373V729.2C581.373 727.7 581.233 726.7 580.953 726.2C580.693 725.7 580.213 725.45 579.513 725.45C578.893 725.45 578.333 725.79 577.833 726.47C577.353 727.15 577.113 727.96 577.113 728.9V737H571.413V721.4H576.663L576.783 723.5H576.843ZM83.7259 780.3C81.7459 780.3 80.2759 779.85 79.3159 778.95C78.3559 778.03 77.8759 776.58 77.8759 774.6V768.9H74.7259V765H77.8759V759.3H83.6959V765H88.5259V768.9H83.6959V773.7C83.6959 774.66 83.8059 775.3 84.0259 775.62C84.2459 775.94 84.6459 776.1 85.2259 776.1C86.1059 776.1 87.0059 775.95 87.9259 775.65L88.5259 779.7C87.0459 780.1 85.4459 780.3 83.7259 780.3ZM108.042 771.6V780H102.402V772.2C102.402 770.7 102.262 769.7 101.982 769.2C101.722 768.7 101.242 768.45 100.542 768.45C99.9223 768.45 99.3623 768.79 98.8623 769.47C98.3823 770.15 98.1423 770.96 98.1423 771.9V780H92.4423V757.5H98.1423V766.2H98.2023C98.7023 765.56 99.3423 765.05 100.122 764.67C100.902 764.29 101.692 764.1 102.492 764.1C104.472 764.1 105.892 764.66 106.752 765.78C107.612 766.88 108.042 768.82 108.042 771.6ZM116.217 770.7H121.287C121.287 768.8 120.437 767.85 118.737 767.85C117.197 767.85 116.357 768.8 116.217 770.7ZM116.277 774C116.617 775.6 117.757 776.4 119.697 776.4C121.197 776.4 122.627 776.05 123.987 775.35L125.187 779.1C123.347 779.9 121.347 780.3 119.187 780.3C116.607 780.3 114.537 779.57 112.977 778.11C111.417 776.65 110.637 774.68 110.637 772.2C110.637 769.7 111.347 767.73 112.767 766.29C114.207 764.83 116.147 764.1 118.587 764.1C121.087 764.1 123.037 764.81 124.437 766.23C125.837 767.63 126.537 769.62 126.537 772.2C126.537 772.74 126.487 773.34 126.387 774H116.277ZM130.011 761.7V757.5H136.011V761.7H130.011ZM130.011 780V764.4H136.011V780H130.011ZM152.998 764.1V768.6C150.758 768.6 149.068 769.02 147.928 769.86C146.788 770.7 146.218 771.88 146.218 773.4V780H140.398V764.4H145.768L145.798 767.4H145.858C147.578 765.2 149.958 764.1 152.998 764.1ZM181.49 771.6V780H175.85V772.2C175.85 770.7 175.71 769.7 175.43 769.2C175.17 768.7 174.69 768.45 173.99 768.45C173.37 768.45 172.81 768.79 172.31 769.47C171.83 770.15 171.59 770.96 171.59 771.9V780H165.89V757.5H171.59V766.2H171.65C172.15 765.56 172.79 765.05 173.57 764.67C174.35 764.29 175.14 764.1 175.94 764.1C177.92 764.1 179.34 764.66 180.2 765.78C181.06 766.88 181.49 768.82 181.49 771.6ZM192.934 769.8H193.834C193.834 769.12 193.704 768.65 193.444 768.39C193.184 768.13 192.714 768 192.034 768C189.934 768 187.884 768.45 185.884 769.35L185.134 765.45C187.334 764.55 189.734 764.1 192.334 764.1C194.934 764.1 196.784 764.59 197.884 765.57C198.984 766.53 199.534 768.14 199.534 770.4V775.8C199.534 777.24 199.684 778.64 199.984 780H194.584C194.464 779.32 194.364 778.62 194.284 777.9H194.224C193.684 778.62 192.984 779.2 192.124 779.64C191.264 780.08 190.384 780.3 189.484 780.3C187.944 780.3 186.704 779.88 185.764 779.04C184.844 778.18 184.384 777 184.384 775.5C184.384 773.78 185.114 772.4 186.574 771.36C188.054 770.32 190.174 769.8 192.934 769.8ZM189.484 774.9C189.484 775.8 189.984 776.25 190.984 776.25C191.844 776.25 192.534 776.01 193.054 775.53C193.574 775.05 193.834 774.39 193.834 773.55V773.1H192.934C191.794 773.1 190.934 773.27 190.354 773.61C189.774 773.93 189.484 774.36 189.484 774.9ZM208.904 766.5C209.464 765.76 210.154 765.18 210.974 764.76C211.814 764.32 212.664 764.1 213.524 764.1C215.504 764.1 216.924 764.66 217.784 765.78C218.644 766.88 219.074 768.82 219.074 771.6V780H213.434V772.2C213.434 770.7 213.294 769.7 213.014 769.2C212.754 768.7 212.274 768.45 211.574 768.45C210.954 768.45 210.394 768.79 209.894 769.47C209.414 770.15 209.174 770.96 209.174 771.9V780H203.474V764.4H208.724L208.844 766.5H208.904ZM221.793 772.2C221.793 769.62 222.343 767.63 223.443 766.23C224.563 764.81 226.063 764.1 227.943 764.1C229.643 764.1 231.073 764.8 232.233 766.2H232.293V757.5H237.993V780H232.743L232.623 777.9H232.563C231.303 779.5 229.763 780.3 227.943 780.3C226.143 780.3 224.663 779.58 223.503 778.14C222.363 776.7 221.793 774.72 221.793 772.2ZM227.193 772.2C227.193 773.4 227.433 774.33 227.913 774.99C228.393 775.63 229.003 775.95 229.743 775.95C230.523 775.95 231.143 775.64 231.603 775.02C232.063 774.4 232.293 773.51 232.293 772.35V772.05C232.293 770.91 232.063 770.03 231.603 769.41C231.143 768.77 230.523 768.45 229.743 768.45C228.943 768.45 228.313 768.77 227.853 769.41C227.413 770.03 227.193 770.96 227.193 772.2ZM259.712 780.3C257.732 780.3 256.262 779.85 255.302 778.95C254.342 778.03 253.862 776.58 253.862 774.6V768.9H250.712V765H253.862V759.3H259.682V765H264.512V768.9H259.682V773.7C259.682 774.66 259.792 775.3 260.012 775.62C260.232 775.94 260.632 776.1 261.212 776.1C262.092 776.1 262.992 775.95 263.912 775.65L264.512 779.7C263.032 780.1 261.432 780.3 259.712 780.3ZM269.096 766.26C270.536 764.82 272.566 764.1 275.186 764.1C277.806 764.1 279.836 764.82 281.276 766.26C282.716 767.7 283.436 769.68 283.436 772.2C283.436 774.72 282.716 776.7 281.276 778.14C279.836 779.58 277.806 780.3 275.186 780.3C272.566 780.3 270.536 779.58 269.096 778.14C267.656 776.7 266.936 774.72 266.936 772.2C266.936 769.68 267.656 767.7 269.096 766.26ZM273.176 775.29C273.616 775.91 274.286 776.22 275.186 776.22C276.086 776.22 276.756 775.91 277.196 775.29C277.636 774.67 277.856 773.64 277.856 772.2C277.856 770.76 277.636 769.73 277.196 769.11C276.756 768.49 276.086 768.18 275.186 768.18C274.286 768.18 273.616 768.49 273.176 769.11C272.736 769.73 272.516 770.76 272.516 772.2C272.516 773.64 272.736 774.67 273.176 775.29ZM311.81 775.5H311.87L313.34 764.4H318.83L315.23 780H308.63L306.86 769.2H306.8L305.03 780H298.43L294.83 764.4H300.44L301.91 775.5H301.97L303.74 764.4H310.04L311.81 775.5ZM322.316 761.7V757.5H328.316V761.7H322.316ZM322.316 780V764.4H328.316V780H322.316ZM338.133 766.5C338.693 765.76 339.383 765.18 340.203 764.76C341.043 764.32 341.893 764.1 342.753 764.1C344.733 764.1 346.153 764.66 347.013 765.78C347.873 766.88 348.303 768.82 348.303 771.6V780H342.663V772.2C342.663 770.7 342.523 769.7 342.243 769.2C341.983 768.7 341.503 768.45 340.803 768.45C340.183 768.45 339.623 768.79 339.123 769.47C338.643 770.15 338.403 770.96 338.403 771.9V780H332.703V764.4H337.953L338.073 766.5H338.133ZM369.722 780.3C367.742 780.3 366.272 779.85 365.312 778.95C364.352 778.03 363.872 776.58 363.872 774.6V768.9H360.722V765H363.872V759.3H369.692V765H374.522V768.9H369.692V773.7C369.692 774.66 369.802 775.3 370.022 775.62C370.242 775.94 370.642 776.1 371.222 776.1C372.102 776.1 373.002 775.95 373.922 775.65L374.522 779.7C373.042 780.1 371.442 780.3 369.722 780.3ZM394.038 771.6V780H388.398V772.2C388.398 770.7 388.258 769.7 387.978 769.2C387.718 768.7 387.238 768.45 386.538 768.45C385.918 768.45 385.358 768.79 384.858 769.47C384.378 770.15 384.138 770.96 384.138 771.9V780H378.438V757.5H384.138V766.2H384.198C384.698 765.56 385.338 765.05 386.118 764.67C386.898 764.29 387.688 764.1 388.488 764.1C390.468 764.1 391.888 764.66 392.748 765.78C393.608 766.88 394.038 768.82 394.038 771.6ZM402.213 770.7H407.283C407.283 768.8 406.433 767.85 404.733 767.85C403.193 767.85 402.353 768.8 402.213 770.7ZM402.273 774C402.613 775.6 403.753 776.4 405.693 776.4C407.193 776.4 408.623 776.05 409.983 775.35L411.183 779.1C409.343 779.9 407.343 780.3 405.183 780.3C402.603 780.3 400.533 779.57 398.973 778.11C397.413 776.65 396.633 774.68 396.633 772.2C396.633 769.7 397.343 767.73 398.763 766.29C400.203 764.83 402.143 764.1 404.583 764.1C407.083 764.1 409.033 764.81 410.433 766.23C411.833 767.63 412.533 769.62 412.533 772.2C412.533 772.74 412.483 773.34 412.383 774H402.273ZM437.108 775.11L438.308 779.1C436.588 779.9 434.788 780.3 432.908 780.3C430.148 780.3 427.958 779.57 426.338 778.11C424.718 776.65 423.908 774.68 423.908 772.2C423.908 769.7 424.698 767.73 426.278 766.29C427.878 764.83 430.088 764.1 432.908 764.1C434.848 764.1 436.648 764.5 438.308 765.3L437.108 769.35C435.868 768.59 434.568 768.21 433.208 768.21C432.068 768.21 431.178 768.55 430.538 769.23C429.918 769.91 429.608 770.9 429.608 772.2C429.608 773.46 429.938 774.45 430.598 775.17C431.258 775.89 432.128 776.25 433.208 776.25C434.568 776.25 435.868 775.87 437.108 775.11ZM442.885 766.26C444.325 764.82 446.355 764.1 448.975 764.1C451.595 764.1 453.625 764.82 455.065 766.26C456.505 767.7 457.225 769.68 457.225 772.2C457.225 774.72 456.505 776.7 455.065 778.14C453.625 779.58 451.595 780.3 448.975 780.3C446.355 780.3 444.325 779.58 442.885 778.14C441.445 776.7 440.725 774.72 440.725 772.2C440.725 769.68 441.445 767.7 442.885 766.26ZM446.965 775.29C447.405 775.91 448.075 776.22 448.975 776.22C449.875 776.22 450.545 775.91 450.985 775.29C451.425 774.67 451.645 773.64 451.645 772.2C451.645 770.76 451.425 769.73 450.985 769.11C450.545 768.49 449.875 768.18 448.975 768.18C448.075 768.18 447.405 768.49 446.965 769.11C446.525 769.73 446.305 770.76 446.305 772.2C446.305 773.64 446.525 774.67 446.965 775.29ZM460.568 761.7V757.5H466.568V761.7H460.568ZM460.568 780V764.4H466.568V780H460.568ZM476.384 766.5C476.944 765.76 477.634 765.18 478.454 764.76C479.294 764.32 480.144 764.1 481.004 764.1C482.984 764.1 484.404 764.66 485.264 765.78C486.124 766.88 486.554 768.82 486.554 771.6V780H480.914V772.2C480.914 770.7 480.774 769.7 480.494 769.2C480.234 768.7 479.754 768.45 479.054 768.45C478.434 768.45 477.874 768.79 477.374 769.47C476.894 770.15 476.654 770.96 476.654 771.9V780H470.954V764.4H476.204L476.324 766.5H476.384ZM502.623 769.11C500.803 768.45 499.103 768.12 497.523 768.12C496.663 768.12 496.073 768.2 495.753 768.36C495.433 768.5 495.273 768.73 495.273 769.05C495.273 769.35 495.403 769.58 495.663 769.74C495.923 769.9 496.393 770.02 497.073 770.1C499.533 770.4 501.293 770.98 502.353 771.84C503.433 772.7 503.973 773.87 503.973 775.35C503.973 776.87 503.363 778.08 502.143 778.98C500.943 779.86 499.203 780.3 496.923 780.3C494.223 780.3 491.773 779.8 489.573 778.8L490.623 774.78C492.423 775.74 494.323 776.22 496.323 776.22C497.623 776.22 498.273 775.88 498.273 775.2C498.273 774.94 498.173 774.76 497.973 774.66C497.773 774.56 497.273 774.44 496.473 774.3C494.053 773.92 492.323 773.3 491.283 772.44C490.243 771.56 489.723 770.38 489.723 768.9C489.723 767.4 490.323 766.23 491.523 765.39C492.723 764.53 494.523 764.1 496.923 764.1C499.303 764.1 501.553 764.45 503.673 765.15L502.623 769.11ZM507.472 780V773.7H514.072V780H507.472ZM535.105 771.3H539.065L537.115 763.2H537.055L535.105 771.3ZM534.025 775.8L533.035 780H526.795L533.995 758.1H540.295L547.495 780H541.135L540.115 775.8H534.025ZM555.515 766.5C556.075 765.76 556.765 765.18 557.585 764.76C558.425 764.32 559.275 764.1 560.135 764.1C562.115 764.1 563.535 764.66 564.395 765.78C565.255 766.88 565.685 768.82 565.685 771.6V780H560.045V772.2C560.045 770.7 559.905 769.7 559.625 769.2C559.365 768.7 558.885 768.45 558.185 768.45C557.565 768.45 557.005 768.79 556.505 769.47C556.025 770.15 555.785 770.96 555.785 771.9V780H550.085V764.4H555.335L555.455 766.5H555.515ZM49.4597 804.7V800.5H55.4597V804.7H49.4597ZM49.4597 823V807.4H55.4597V823H49.4597ZM65.2761 809.5C65.8361 808.76 66.5261 808.18 67.3461 807.76C68.1861 807.32 69.0361 807.1 69.8961 807.1C71.8761 807.1 73.2961 807.66 74.1561 808.78C75.0161 809.88 75.4461 811.82 75.4461 814.6V823H69.8061V815.2C69.8061 813.7 69.6661 812.7 69.3861 812.2C69.1261 811.7 68.6461 811.45 67.9461 811.45C67.3261 811.45 66.7661 811.79 66.2661 812.47C65.7861 813.15 65.5461 813.96 65.5461 814.9V823H59.8461V807.4H65.0961L65.2161 809.5H65.2761ZM91.2148 818.11L92.4148 822.1C90.6948 822.9 88.8948 823.3 87.0148 823.3C84.2548 823.3 82.0648 822.57 80.4448 821.11C78.8248 819.65 78.0148 817.68 78.0148 815.2C78.0148 812.7 78.8048 810.73 80.3848 809.29C81.9848 807.83 84.1948 807.1 87.0148 807.1C88.9548 807.1 90.7548 807.5 92.4148 808.3L91.2148 812.35C89.9748 811.59 88.6748 811.21 87.3148 811.21C86.1748 811.21 85.2848 811.55 84.6448 812.23C84.0248 812.91 83.7148 813.9 83.7148 815.2C83.7148 816.46 84.0448 817.45 84.7048 818.17C85.3648 818.89 86.2348 819.25 87.3148 819.25C88.6748 819.25 89.9748 818.87 91.2148 818.11ZM96.9912 809.26C98.4312 807.82 100.461 807.1 103.081 807.1C105.701 807.1 107.731 807.82 109.171 809.26C110.611 810.7 111.331 812.68 111.331 815.2C111.331 817.72 110.611 819.7 109.171 821.14C107.731 822.58 105.701 823.3 103.081 823.3C100.461 823.3 98.4312 822.58 96.9912 821.14C95.5512 819.7 94.8312 817.72 94.8312 815.2C94.8312 812.68 95.5512 810.7 96.9912 809.26ZM101.071 818.29C101.511 818.91 102.181 819.22 103.081 819.22C103.981 819.22 104.651 818.91 105.091 818.29C105.531 817.67 105.751 816.64 105.751 815.2C105.751 813.76 105.531 812.73 105.091 812.11C104.651 811.49 103.981 811.18 103.081 811.18C102.181 811.18 101.511 811.49 101.071 812.11C100.631 812.73 100.411 813.76 100.411 815.2C100.411 816.64 100.631 817.67 101.071 818.29ZM126.675 807.1V811.6C124.435 811.6 122.745 812.02 121.605 812.86C120.465 813.7 119.895 814.88 119.895 816.4V823H114.075V807.4H119.445L119.475 810.4H119.535C121.255 808.2 123.635 807.1 126.675 807.1ZM142.466 807.1V811.6C140.226 811.6 138.536 812.02 137.396 812.86C136.256 813.7 135.686 814.88 135.686 816.4V823H129.866V807.4H135.236L135.266 810.4H135.326C137.046 808.2 139.426 807.1 142.466 807.1ZM149.601 813.7H154.671C154.671 811.8 153.821 810.85 152.121 810.85C150.581 810.85 149.741 811.8 149.601 813.7ZM149.661 817C150.001 818.6 151.141 819.4 153.081 819.4C154.581 819.4 156.011 819.05 157.371 818.35L158.571 822.1C156.731 822.9 154.731 823.3 152.571 823.3C149.991 823.3 147.921 822.57 146.361 821.11C144.801 819.65 144.021 817.68 144.021 815.2C144.021 812.7 144.731 810.73 146.151 809.29C147.591 807.83 149.531 807.1 151.971 807.1C154.471 807.1 156.421 807.81 157.821 809.23C159.221 810.63 159.921 812.62 159.921 815.2C159.921 815.74 159.871 816.34 159.771 817H149.661ZM175.238 818.11L176.438 822.1C174.718 822.9 172.918 823.3 171.038 823.3C168.278 823.3 166.088 822.57 164.468 821.11C162.848 819.65 162.038 817.68 162.038 815.2C162.038 812.7 162.828 810.73 164.408 809.29C166.008 807.83 168.218 807.1 171.038 807.1C172.978 807.1 174.778 807.5 176.438 808.3L175.238 812.35C173.998 811.59 172.698 811.21 171.338 811.21C170.198 811.21 169.308 811.55 168.668 812.23C168.048 812.91 167.738 813.9 167.738 815.2C167.738 816.46 168.068 817.45 168.728 818.17C169.388 818.89 170.258 819.25 171.338 819.25C172.698 819.25 173.998 818.87 175.238 818.11ZM188.155 823.3C186.175 823.3 184.705 822.85 183.745 821.95C182.785 821.03 182.305 819.58 182.305 817.6V811.9H179.155V808H182.305V802.3H188.125V808H192.955V811.9H188.125V816.7C188.125 817.66 188.235 818.3 188.455 818.62C188.675 818.94 189.075 819.1 189.655 819.1C190.535 819.1 191.435 818.95 192.355 818.65L192.955 822.7C191.475 823.1 189.875 823.3 188.155 823.3ZM216.022 820.6H215.992C214.832 822 213.342 822.7 211.522 822.7C209.742 822.7 208.272 822.01 207.112 820.63C205.952 819.23 205.372 817.32 205.372 814.9C205.372 812.44 205.932 810.53 207.052 809.17C208.172 807.79 209.662 807.1 211.522 807.1C213.302 807.1 214.842 807.9 216.142 809.5H216.202L216.322 807.4H221.572V821.2C221.572 824.06 220.782 826.22 219.202 827.68C217.622 829.16 215.312 829.9 212.272 829.9C210.352 829.9 208.552 829.6 206.872 829L207.772 824.98C209.172 825.56 210.572 825.85 211.972 825.85C213.432 825.85 214.472 825.5 215.092 824.8C215.712 824.12 216.022 822.92 216.022 821.2V820.6ZM210.772 814.9C210.772 816.04 211.002 816.93 211.462 817.57C211.942 818.19 212.562 818.5 213.322 818.5C214.102 818.5 214.722 818.21 215.182 817.63C215.642 817.03 215.872 816.17 215.872 815.05V814.75C215.872 813.65 215.642 812.8 215.182 812.2C214.722 811.6 214.102 811.3 213.322 811.3C212.522 811.3 211.892 811.61 211.432 812.23C210.992 812.83 210.772 813.72 210.772 814.9ZM235.064 820.9C234.504 821.64 233.804 822.23 232.964 822.67C232.144 823.09 231.304 823.3 230.444 823.3C228.564 823.3 227.214 822.81 226.394 821.83C225.594 820.85 225.194 819.14 225.194 816.7V807.4H230.834V816.1C230.834 817.26 230.944 818.03 231.164 818.41C231.384 818.77 231.794 818.95 232.394 818.95C233.014 818.95 233.564 818.61 234.044 817.93C234.544 817.25 234.794 816.44 234.794 815.5V807.4H240.494V823H235.244L235.124 820.9H235.064ZM248.8 813.7H253.87C253.87 811.8 253.02 810.85 251.32 810.85C249.78 810.85 248.94 811.8 248.8 813.7ZM248.86 817C249.2 818.6 250.34 819.4 252.28 819.4C253.78 819.4 255.21 819.05 256.57 818.35L257.77 822.1C255.93 822.9 253.93 823.3 251.77 823.3C249.19 823.3 247.12 822.57 245.56 821.11C244 819.65 243.22 817.68 243.22 815.2C243.22 812.7 243.93 810.73 245.35 809.29C246.79 807.83 248.73 807.1 251.17 807.1C253.67 807.1 255.62 807.81 257.02 809.23C258.42 810.63 259.12 812.62 259.12 815.2C259.12 815.74 259.07 816.34 258.97 817H248.86ZM274.444 812.11C272.624 811.45 270.924 811.12 269.344 811.12C268.484 811.12 267.894 811.2 267.574 811.36C267.254 811.5 267.094 811.73 267.094 812.05C267.094 812.35 267.224 812.58 267.484 812.74C267.744 812.9 268.214 813.02 268.894 813.1C271.354 813.4 273.114 813.98 274.174 814.84C275.254 815.7 275.794 816.87 275.794 818.35C275.794 819.87 275.184 821.08 273.964 821.98C272.764 822.86 271.024 823.3 268.744 823.3C266.044 823.3 263.594 822.8 261.394 821.8L262.444 817.78C264.244 818.74 266.144 819.22 268.144 819.22C269.444 819.22 270.094 818.88 270.094 818.2C270.094 817.94 269.994 817.76 269.794 817.66C269.594 817.56 269.094 817.44 268.294 817.3C265.874 816.92 264.144 816.3 263.104 815.44C262.064 814.56 261.544 813.38 261.544 811.9C261.544 810.4 262.144 809.23 263.344 808.39C264.544 807.53 266.344 807.1 268.744 807.1C271.124 807.1 273.374 807.45 275.494 808.15L274.444 812.11ZM291.144 812.11C289.324 811.45 287.624 811.12 286.044 811.12C285.184 811.12 284.594 811.2 284.274 811.36C283.954 811.5 283.794 811.73 283.794 812.05C283.794 812.35 283.924 812.58 284.184 812.74C284.444 812.9 284.914 813.02 285.594 813.1C288.054 813.4 289.814 813.98 290.874 814.84C291.954 815.7 292.494 816.87 292.494 818.35C292.494 819.87 291.884 821.08 290.664 821.98C289.464 822.86 287.724 823.3 285.444 823.3C282.744 823.3 280.294 822.8 278.094 821.8L279.144 817.78C280.944 818.74 282.844 819.22 284.844 819.22C286.144 819.22 286.794 818.88 286.794 818.2C286.794 817.94 286.694 817.76 286.494 817.66C286.294 817.56 285.794 817.44 284.994 817.3C282.574 816.92 280.844 816.3 279.804 815.44C278.764 814.56 278.244 813.38 278.244 811.9C278.244 810.4 278.844 809.23 280.044 808.39C281.244 807.53 283.044 807.1 285.444 807.1C287.824 807.1 290.074 807.45 292.194 808.15L291.144 812.11ZM317.837 807.1V811.6C315.597 811.6 313.907 812.02 312.767 812.86C311.627 813.7 311.057 814.88 311.057 816.4V823H305.237V807.4H310.607L310.637 810.4H310.697C312.417 808.2 314.797 807.1 317.837 807.1ZM324.972 813.7H330.042C330.042 811.8 329.192 810.85 327.492 810.85C325.952 810.85 325.112 811.8 324.972 813.7ZM325.032 817C325.372 818.6 326.512 819.4 328.452 819.4C329.952 819.4 331.382 819.05 332.742 818.35L333.942 822.1C332.102 822.9 330.102 823.3 327.942 823.3C325.362 823.3 323.292 822.57 321.732 821.11C320.172 819.65 319.392 817.68 319.392 815.2C319.392 812.7 320.102 810.73 321.522 809.29C322.962 807.83 324.902 807.1 327.342 807.1C329.842 807.1 331.792 807.81 333.192 809.23C334.592 810.63 335.292 812.62 335.292 815.2C335.292 815.74 335.242 816.34 335.142 817H325.032ZM350.616 812.11C348.796 811.45 347.096 811.12 345.516 811.12C344.656 811.12 344.066 811.2 343.746 811.36C343.426 811.5 343.266 811.73 343.266 812.05C343.266 812.35 343.396 812.58 343.656 812.74C343.916 812.9 344.386 813.02 345.066 813.1C347.526 813.4 349.286 813.98 350.346 814.84C351.426 815.7 351.966 816.87 351.966 818.35C351.966 819.87 351.356 821.08 350.136 821.98C348.936 822.86 347.196 823.3 344.916 823.3C342.216 823.3 339.766 822.8 337.566 821.8L338.616 817.78C340.416 818.74 342.316 819.22 344.316 819.22C345.616 819.22 346.266 818.88 346.266 818.2C346.266 817.94 346.166 817.76 345.966 817.66C345.766 817.56 345.266 817.44 344.466 817.3C342.046 816.92 340.316 816.3 339.276 815.44C338.236 814.56 337.716 813.38 337.716 811.9C337.716 810.4 338.316 809.23 339.516 808.39C340.716 807.53 342.516 807.1 344.916 807.1C347.296 807.1 349.546 807.45 351.666 808.15L350.616 812.11ZM364.879 820.9C364.319 821.64 363.619 822.23 362.779 822.67C361.959 823.09 361.119 823.3 360.259 823.3C358.379 823.3 357.029 822.81 356.209 821.83C355.409 820.85 355.009 819.14 355.009 816.7V807.4H360.649V816.1C360.649 817.26 360.759 818.03 360.979 818.41C361.199 818.77 361.609 818.95 362.209 818.95C362.829 818.95 363.379 818.61 363.859 817.93C364.359 817.25 364.609 816.44 364.609 815.5V807.4H370.309V823H365.059L364.939 820.9H364.879ZM374.684 823V800.5H380.684V823H374.684ZM393.321 823.3C391.341 823.3 389.871 822.85 388.911 821.95C387.951 821.03 387.471 819.58 387.471 817.6V811.9H384.321V808H387.471V802.3H393.291V808H398.121V811.9H393.291V816.7C393.291 817.66 393.401 818.3 393.621 818.62C393.841 818.94 394.241 819.1 394.821 819.1C395.701 819.1 396.601 818.95 397.521 818.65L398.121 822.7C396.641 823.1 395.041 823.3 393.321 823.3ZM412.038 804.7V800.5H418.038V804.7H412.038ZM412.038 823V807.4H418.038V823H412.038ZM427.854 809.5C428.414 808.76 429.104 808.18 429.924 807.76C430.764 807.32 431.614 807.1 432.474 807.1C434.454 807.1 435.874 807.66 436.734 808.78C437.594 809.88 438.024 811.82 438.024 814.6V823H432.384V815.2C432.384 813.7 432.244 812.7 431.964 812.2C431.704 811.7 431.224 811.45 430.524 811.45C429.904 811.45 429.344 811.79 428.844 812.47C428.364 813.15 428.124 813.96 428.124 814.9V823H422.424V807.4H427.674L427.794 809.5H427.854ZM451.794 823V800.5H457.794V823H451.794ZM463.29 809.26C464.73 807.82 466.76 807.1 469.38 807.1C472 807.1 474.03 807.82 475.47 809.26C476.91 810.7 477.63 812.68 477.63 815.2C477.63 817.72 476.91 819.7 475.47 821.14C474.03 822.58 472 823.3 469.38 823.3C466.76 823.3 464.73 822.58 463.29 821.14C461.85 819.7 461.13 817.72 461.13 815.2C461.13 812.68 461.85 810.7 463.29 809.26ZM467.37 818.29C467.81 818.91 468.48 819.22 469.38 819.22C470.28 819.22 470.95 818.91 471.39 818.29C471.83 817.67 472.05 816.64 472.05 815.2C472.05 813.76 471.83 812.73 471.39 812.11C470.95 811.49 470.28 811.18 469.38 811.18C468.48 811.18 467.81 811.49 467.37 812.11C466.93 812.73 466.71 813.76 466.71 815.2C466.71 816.64 466.93 817.67 467.37 818.29ZM492.823 812.11C491.003 811.45 489.303 811.12 487.723 811.12C486.863 811.12 486.273 811.2 485.953 811.36C485.633 811.5 485.473 811.73 485.473 812.05C485.473 812.35 485.603 812.58 485.863 812.74C486.123 812.9 486.593 813.02 487.273 813.1C489.733 813.4 491.493 813.98 492.553 814.84C493.633 815.7 494.173 816.87 494.173 818.35C494.173 819.87 493.563 821.08 492.343 821.98C491.143 822.86 489.403 823.3 487.123 823.3C484.423 823.3 481.973 822.8 479.773 821.8L480.823 817.78C482.623 818.74 484.523 819.22 486.523 819.22C487.823 819.22 488.473 818.88 488.473 818.2C488.473 817.94 488.373 817.76 488.173 817.66C487.973 817.56 487.473 817.44 486.673 817.3C484.253 816.92 482.523 816.3 481.483 815.44C480.443 814.56 479.923 813.38 479.923 811.9C479.923 810.4 480.523 809.23 481.723 808.39C482.923 807.53 484.723 807.1 487.123 807.1C489.503 807.1 491.753 807.45 493.873 808.15L492.823 812.11ZM497.966 804.7V800.5H503.966V804.7H497.966ZM497.966 823V807.4H503.966V823H497.966ZM513.782 809.5C514.342 808.76 515.032 808.18 515.852 807.76C516.692 807.32 517.542 807.1 518.402 807.1C520.382 807.1 521.802 807.66 522.662 808.78C523.522 809.88 523.952 811.82 523.952 814.6V823H518.312V815.2C518.312 813.7 518.172 812.7 517.892 812.2C517.632 811.7 517.152 811.45 516.452 811.45C515.832 811.45 515.272 811.79 514.772 812.47C514.292 813.15 514.052 813.96 514.052 814.9V823H508.352V807.4H513.602L513.722 809.5H513.782ZM537.321 820.6H537.291C536.131 822 534.641 822.7 532.821 822.7C531.041 822.7 529.571 822.01 528.411 820.63C527.251 819.23 526.671 817.32 526.671 814.9C526.671 812.44 527.231 810.53 528.351 809.17C529.471 807.79 530.961 807.1 532.821 807.1C534.601 807.1 536.141 807.9 537.441 809.5H537.501L537.621 807.4H542.871V821.2C542.871 824.06 542.081 826.22 540.501 827.68C538.921 829.16 536.611 829.9 533.571 829.9C531.651 829.9 529.851 829.6 528.171 829L529.071 824.98C530.471 825.56 531.871 825.85 533.271 825.85C534.731 825.85 535.771 825.5 536.391 824.8C537.011 824.12 537.321 822.92 537.321 821.2V820.6ZM532.071 814.9C532.071 816.04 532.301 816.93 532.761 817.57C533.241 818.19 533.861 818.5 534.621 818.5C535.401 818.5 536.021 818.21 536.481 817.63C536.941 817.03 537.171 816.17 537.171 815.05V814.75C537.171 813.65 536.941 812.8 536.481 812.2C536.021 811.6 535.401 811.3 534.621 811.3C533.821 811.3 533.191 811.61 532.731 812.23C532.291 812.83 532.071 813.72 532.071 814.9ZM563.994 812.8H564.894C564.894 812.12 564.764 811.65 564.504 811.39C564.244 811.13 563.774 811 563.094 811C560.994 811 558.944 811.45 556.944 812.35L556.194 808.45C558.394 807.55 560.794 807.1 563.394 807.1C565.994 807.1 567.844 807.59 568.944 808.57C570.044 809.53 570.594 811.14 570.594 813.4V818.8C570.594 820.24 570.744 821.64 571.044 823H565.644C565.524 822.32 565.424 821.62 565.344 820.9H565.284C564.744 821.62 564.044 822.2 563.184 822.64C562.324 823.08 561.444 823.3 560.544 823.3C559.004 823.3 557.764 822.88 556.824 822.04C555.904 821.18 555.444 820 555.444 818.5C555.444 816.78 556.174 815.4 557.634 814.36C559.114 813.32 561.234 812.8 563.994 812.8ZM560.544 817.9C560.544 818.8 561.044 819.25 562.044 819.25C562.904 819.25 563.594 819.01 564.114 818.53C564.634 818.05 564.894 817.39 564.894 816.55V816.1H563.994C562.854 816.1 561.994 816.27 561.414 816.61C560.834 816.93 560.544 817.36 560.544 817.9ZM575.134 823V800.5H581.134V823H575.134ZM585.534 823V800.5H591.534V823H585.534ZM163.344 861.11L164.544 865.1C162.824 865.9 161.024 866.3 159.144 866.3C156.384 866.3 154.194 865.57 152.574 864.11C150.954 862.65 150.144 860.68 150.144 858.2C150.144 855.7 150.934 853.73 152.514 852.29C154.114 850.83 156.324 850.1 159.144 850.1C161.084 850.1 162.884 850.5 164.544 851.3L163.344 855.35C162.104 854.59 160.804 854.21 159.444 854.21C158.304 854.21 157.414 854.55 156.774 855.23C156.154 855.91 155.844 856.9 155.844 858.2C155.844 859.46 156.174 860.45 156.834 861.17C157.494 861.89 158.364 862.25 159.444 862.25C160.804 862.25 162.104 861.87 163.344 861.11ZM169.12 852.26C170.56 850.82 172.59 850.1 175.21 850.1C177.83 850.1 179.86 850.82 181.3 852.26C182.74 853.7 183.46 855.68 183.46 858.2C183.46 860.72 182.74 862.7 181.3 864.14C179.86 865.58 177.83 866.3 175.21 866.3C172.59 866.3 170.56 865.58 169.12 864.14C167.68 862.7 166.96 860.72 166.96 858.2C166.96 855.68 167.68 853.7 169.12 852.26ZM173.2 861.29C173.64 861.91 174.31 862.22 175.21 862.22C176.11 862.22 176.78 861.91 177.22 861.29C177.66 860.67 177.88 859.64 177.88 858.2C177.88 856.76 177.66 855.73 177.22 855.11C176.78 854.49 176.11 854.18 175.21 854.18C174.31 854.18 173.64 854.49 173.2 855.11C172.76 855.73 172.54 856.76 172.54 858.2C172.54 859.64 172.76 860.67 173.2 861.29ZM186.803 847.7V843.5H192.803V847.7H186.803ZM186.803 866V850.4H192.803V866H186.803ZM202.62 852.5C203.18 851.76 203.87 851.18 204.69 850.76C205.53 850.32 206.38 850.1 207.24 850.1C209.22 850.1 210.64 850.66 211.5 851.78C212.36 852.88 212.79 854.82 212.79 857.6V866H207.15V858.2C207.15 856.7 207.01 855.7 206.73 855.2C206.47 854.7 205.99 854.45 205.29 854.45C204.67 854.45 204.11 854.79 203.61 855.47C203.13 856.15 202.89 856.96 202.89 857.9V866H197.19V850.4H202.44L202.56 852.5H202.62ZM228.859 855.11C227.039 854.45 225.339 854.12 223.759 854.12C222.899 854.12 222.309 854.2 221.989 854.36C221.669 854.5 221.509 854.73 221.509 855.05C221.509 855.35 221.639 855.58 221.899 855.74C222.159 855.9 222.629 856.02 223.309 856.1C225.769 856.4 227.529 856.98 228.589 857.84C229.669 858.7 230.209 859.87 230.209 861.35C230.209 862.87 229.599 864.08 228.379 864.98C227.179 865.86 225.439 866.3 223.159 866.3C220.459 866.3 218.009 865.8 215.809 864.8L216.859 860.78C218.659 861.74 220.559 862.22 222.559 862.22C223.859 862.22 224.509 861.88 224.509 861.2C224.509 860.94 224.409 860.76 224.209 860.66C224.009 860.56 223.509 860.44 222.709 860.3C220.289 859.92 218.559 859.3 217.519 858.44C216.479 857.56 215.959 856.38 215.959 854.9C215.959 853.4 216.559 852.23 217.759 851.39C218.959 850.53 220.759 850.1 223.159 850.1C225.539 850.1 227.789 850.45 229.909 851.15L228.859 855.11ZM233.708 866V859.7H240.308V866H233.708ZM261.731 848.3C261.291 848.3 260.841 848.35 260.381 848.45V852.65H261.281C263.581 852.65 264.731 851.9 264.731 850.4C264.731 849 263.731 848.3 261.731 848.3ZM270.731 859.7C270.731 861.96 269.991 863.63 268.511 864.71C267.051 865.77 264.691 866.3 261.431 866.3C258.991 866.3 256.691 866.15 254.531 865.85V844.25C256.591 843.95 258.791 843.8 261.131 843.8C267.131 843.8 270.131 845.7 270.131 849.5C270.131 850.78 269.721 851.87 268.901 852.77C268.081 853.65 266.991 854.2 265.631 854.42V854.48C267.171 854.68 268.401 855.27 269.321 856.25C270.261 857.23 270.731 858.38 270.731 859.7ZM265.181 859.1C265.181 857.6 264.081 856.85 261.881 856.85H260.381V861.65C260.841 861.75 261.291 861.8 261.731 861.8C262.931 861.8 263.801 861.58 264.341 861.14C264.901 860.7 265.181 860.02 265.181 859.1ZM274.05 866V843.5H280.05V866H274.05ZM285.546 852.26C286.986 850.82 289.016 850.1 291.636 850.1C294.256 850.1 296.286 850.82 297.726 852.26C299.166 853.7 299.886 855.68 299.886 858.2C299.886 860.72 299.166 862.7 297.726 864.14C296.286 865.58 294.256 866.3 291.636 866.3C289.016 866.3 286.986 865.58 285.546 864.14C284.106 862.7 283.386 860.72 283.386 858.2C283.386 855.68 284.106 853.7 285.546 852.26ZM289.626 861.29C290.066 861.91 290.736 862.22 291.636 862.22C292.536 862.22 293.206 861.91 293.646 861.29C294.086 860.67 294.306 859.64 294.306 858.2C294.306 856.76 294.086 855.73 293.646 855.11C293.206 854.49 292.536 854.18 291.636 854.18C290.736 854.18 290.066 854.49 289.626 855.11C289.186 855.73 288.966 856.76 288.966 858.2C288.966 859.64 289.186 860.67 289.626 861.29ZM315.072 861.11L316.272 865.1C314.552 865.9 312.752 866.3 310.872 866.3C308.112 866.3 305.922 865.57 304.302 864.11C302.682 862.65 301.872 860.68 301.872 858.2C301.872 855.7 302.662 853.73 304.242 852.29C305.842 850.83 308.052 850.1 310.872 850.1C312.812 850.1 314.612 850.5 316.272 851.3L315.072 855.35C313.832 854.59 312.532 854.21 311.172 854.21C310.032 854.21 309.142 854.55 308.502 855.23C307.882 855.91 307.572 856.9 307.572 858.2C307.572 859.46 307.902 860.45 308.562 861.17C309.222 861.89 310.092 862.25 311.172 862.25C312.532 862.25 313.832 861.87 315.072 861.11ZM325.649 859.7H325.589V866H319.889V843.5H325.589V856.1H325.649L329.789 850.4H336.239L330.239 857.9L336.389 866H329.939L325.649 859.7ZM350.821 855.11C349.001 854.45 347.301 854.12 345.721 854.12C344.861 854.12 344.271 854.2 343.951 854.36C343.631 854.5 343.471 854.73 343.471 855.05C343.471 855.35 343.601 855.58 343.861 855.74C344.121 855.9 344.591 856.02 345.271 856.1C347.731 856.4 349.491 856.98 350.551 857.84C351.631 858.7 352.171 859.87 352.171 861.35C352.171 862.87 351.561 864.08 350.341 864.98C349.141 865.86 347.401 866.3 345.121 866.3C342.421 866.3 339.971 865.8 337.771 864.8L338.821 860.78C340.621 861.74 342.521 862.22 344.521 862.22C345.821 862.22 346.471 861.88 346.471 861.2C346.471 860.94 346.371 860.76 346.171 860.66C345.971 860.56 345.471 860.44 344.671 860.3C342.251 859.92 340.521 859.3 339.481 858.44C338.441 857.56 337.921 856.38 337.921 854.9C337.921 853.4 338.521 852.23 339.721 851.39C340.921 850.53 342.721 850.1 345.121 850.1C347.501 850.1 349.751 850.45 351.871 851.15L350.821 855.11ZM377.364 855.11C375.544 854.45 373.844 854.12 372.264 854.12C371.404 854.12 370.814 854.2 370.494 854.36C370.174 854.5 370.014 854.73 370.014 855.05C370.014 855.35 370.144 855.58 370.404 855.74C370.664 855.9 371.134 856.02 371.814 856.1C374.274 856.4 376.034 856.98 377.094 857.84C378.174 858.7 378.714 859.87 378.714 861.35C378.714 862.87 378.104 864.08 376.884 864.98C375.684 865.86 373.944 866.3 371.664 866.3C368.964 866.3 366.514 865.8 364.314 864.8L365.364 860.78C367.164 861.74 369.064 862.22 371.064 862.22C372.364 862.22 373.014 861.88 373.014 861.2C373.014 860.94 372.914 860.76 372.714 860.66C372.514 860.56 372.014 860.44 371.214 860.3C368.794 859.92 367.064 859.3 366.024 858.44C364.984 857.56 364.464 856.38 364.464 854.9C364.464 853.4 365.064 852.23 366.264 851.39C367.464 850.53 369.264 850.1 371.664 850.1C374.044 850.1 376.294 850.45 378.414 851.15L377.364 855.11ZM389.571 866.3C387.591 866.3 386.121 865.85 385.161 864.95C384.201 864.03 383.721 862.58 383.721 860.6V854.9H380.571V851H383.721V845.3H389.541V851H394.371V854.9H389.541V859.7C389.541 860.66 389.651 861.3 389.871 861.62C390.091 861.94 390.491 862.1 391.071 862.1C391.951 862.1 392.851 861.95 393.771 861.65L394.371 865.7C392.891 866.1 391.291 866.3 389.571 866.3ZM402.374 856.7H407.444C407.444 854.8 406.594 853.85 404.894 853.85C403.354 853.85 402.514 854.8 402.374 856.7ZM402.434 860C402.774 861.6 403.914 862.4 405.854 862.4C407.354 862.4 408.784 862.05 410.144 861.35L411.344 865.1C409.504 865.9 407.504 866.3 405.344 866.3C402.764 866.3 400.694 865.57 399.134 864.11C397.574 862.65 396.794 860.68 396.794 858.2C396.794 855.7 397.504 853.73 398.924 852.29C400.364 850.83 402.304 850.1 404.744 850.1C407.244 850.1 409.194 850.81 410.594 852.23C411.994 853.63 412.694 855.62 412.694 858.2C412.694 858.74 412.644 859.34 412.544 860H402.434ZM423.369 855.8H424.269C424.269 855.12 424.139 854.65 423.879 854.39C423.619 854.13 423.149 854 422.469 854C420.369 854 418.319 854.45 416.319 855.35L415.569 851.45C417.769 850.55 420.169 850.1 422.769 850.1C425.369 850.1 427.219 850.59 428.319 851.57C429.419 852.53 429.969 854.14 429.969 856.4V861.8C429.969 863.24 430.119 864.64 430.419 866H425.019C424.899 865.32 424.799 864.62 424.719 863.9H424.659C424.119 864.62 423.419 865.2 422.559 865.64C421.699 866.08 420.819 866.3 419.919 866.3C418.379 866.3 417.139 865.88 416.199 865.04C415.279 864.18 414.819 863 414.819 861.5C414.819 859.78 415.549 858.4 417.009 857.36C418.489 856.32 420.609 855.8 423.369 855.8ZM419.919 860.9C419.919 861.8 420.419 862.25 421.419 862.25C422.279 862.25 422.969 862.01 423.489 861.53C424.009 861.05 424.269 860.39 424.269 859.55V859.1H423.369C422.229 859.1 421.369 859.27 420.789 859.61C420.209 859.93 419.919 860.36 419.919 860.9ZM434.509 866V843.5H440.509V866H434.509ZM444.909 847.7V843.5H450.909V847.7H444.909ZM444.909 866V850.4H450.909V866H444.909ZM460.725 852.5C461.285 851.76 461.975 851.18 462.795 850.76C463.635 850.32 464.485 850.1 465.345 850.1C467.325 850.1 468.745 850.66 469.605 851.78C470.465 852.88 470.895 854.82 470.895 857.6V866H465.255V858.2C465.255 856.7 465.115 855.7 464.835 855.2C464.575 854.7 464.095 854.45 463.395 854.45C462.775 854.45 462.215 854.79 461.715 855.47C461.235 856.15 460.995 856.96 460.995 857.9V866H455.295V850.4H460.545L460.665 852.5H460.725ZM484.264 863.6H484.234C483.074 865 481.584 865.7 479.764 865.7C477.984 865.7 476.514 865.01 475.354 863.63C474.194 862.23 473.614 860.32 473.614 857.9C473.614 855.44 474.174 853.53 475.294 852.17C476.414 850.79 477.904 850.1 479.764 850.1C481.544 850.1 483.084 850.9 484.384 852.5H484.444L484.564 850.4H489.814V864.2C489.814 867.06 489.024 869.22 487.444 870.68C485.864 872.16 483.554 872.9 480.514 872.9C478.594 872.9 476.794 872.6 475.114 872L476.014 867.98C477.414 868.56 478.814 868.85 480.214 868.85C481.674 868.85 482.714 868.5 483.334 867.8C483.954 867.12 484.264 865.92 484.264 864.2V863.6ZM479.014 857.9C479.014 859.04 479.244 859.93 479.704 860.57C480.184 861.19 480.804 861.5 481.564 861.5C482.344 861.5 482.964 861.21 483.424 860.63C483.884 860.03 484.114 859.17 484.114 858.05V857.75C484.114 856.65 483.884 855.8 483.424 855.2C482.964 854.6 482.344 854.3 481.564 854.3C480.764 854.3 480.134 854.61 479.674 855.23C479.234 855.83 479.014 856.72 479.014 857.9Z" fill="white"/>
<defs>
<filter id="filter0_d_620_161" x="-134.9" y="-16.9" width="1194.8" height="1178.8" filterUnits="userSpaceOnUse" color-interpolation-filters="sRGB">
<feFlood flood-opacity="0" result="BackgroundImageFix"/>
<feColorMatrix in="SourceAlpha" type="matrix" values="0 0 0 0 0 0 0 0 0 0 0 0 0 0 0 0 0 0 127 0" result="hardAlpha"/>
<feOffset/>
<feGaussianBlur stdDeviation="34.95"/>
<feComposite in2="hardAlpha" operator="out"/>
<feColorMatrix type="matrix" values="0 0 0 0 0 0 0 0 0 0 0 0 0 0 0 0 0 0 0.15 0"/>
<feBlend mode="normal" in2="BackgroundImageFix" result="effect1_dropShadow_620_161"/>
<feBlend mode="normal" in="SourceGraphic" in2="effect1_dropShadow_620_161" result="shape"/>
</filter>
<linearGradient id="paint0_linear_620_161" x1="545.44" y1="197.096" x2="545.44" y2="1092" gradientUnits="userSpaceOnUse">
<stop stop-color="#E44B1B" stop-opacity="0.97"/>
<stop offset="1" stop-color="#A53820" stop-opacity="0.54"/>
</linearGradient>
</defs>
</svg>
