<svg width="640" height="900" viewBox="0 0 640 900" fill="none" xmlns="http://www.w3.org/2000/svg">
<rect x="0.0195312" width="639.02" height="900" fill="#E8E8E8"/>
<mask id="mask0_607_9" style="mask-type:alpha" maskUnits="userSpaceOnUse" x="0" y="0" width="640" height="900">
<rect x="0.0195312" width="639.02" height="900" fill="white"/>
</mask>
<g mask="url(#mask0_607_9)">
<path d="M199.963 67.7764L288.085 89.7477L278.493 128.086L190.371 106.115L199.963 67.7764ZM184.93 124.731L274.895 147.162L265.304 185.501L175.338 163.07L184.93 124.731ZM228.172 53.6616L269.099 63.8658L244.197 163.398L203.27 153.194L228.172 53.6616ZM185.777 -7.03782L333.63 29.8262L322.378 74.8L174.525 37.936L185.777 -7.03782ZM193.218 182.41L261.061 199.325L236.252 298.489L168.409 281.573L177.724 244.341L207.958 251.879L214.138 227.18L183.903 219.642L193.218 182.41ZM172.57 177.262L209.442 186.455L181.588 297.783L144.717 288.59L172.57 177.262ZM314.457 25.0459L363.865 37.3645L293.678 317.898C287.683 341.859 280.307 355.685 264.543 360.763C248.687 366.208 230.344 362.81 204.534 356.375C206.564 341.999 206.383 316.106 203.158 300.812C215.787 305.135 231.365 308.627 236.527 309.914C241.32 311.11 243.164 310.003 244.455 304.842L314.457 25.0459ZM159.967 -13.4729L208.268 -1.43007L172.852 140.127C158.095 199.109 131.997 284.635 90.8779 329.995C84.5188 319.402 66.5461 298.864 56.776 290.945C92.4555 250.104 111.362 180.799 124.551 128.084L159.967 -13.4729ZM13.5737 58.1179L113.495 83.031L103.534 122.844L3.6129 97.9307L13.5737 58.1179ZM41.6103 -44.5491L138.213 -20.4633L128.252 19.3495L31.6495 -4.73621L41.6103 -44.5491ZM0.846011 108.99L100.767 133.903L90.8063 173.716L-9.11479 148.803L0.846011 108.99ZM11.2766 1.54164L135.901 32.6141L125.479 74.2701L0.854677 43.1977L11.2766 1.54164ZM12.1766 167.035L87.0253 185.697L58.5263 299.606L-16.3223 280.944L-5.9926 239.657L26.4541 247.747L34.2936 216.412L1.84692 208.323L12.1766 167.035ZM-13.6332 160.6L27.6626 170.896L-4.34113 298.813L-45.6369 288.517L-13.6332 160.6ZM326.677 331.608L665.524 416.092L653.81 462.909L314.964 378.425L326.677 331.608ZM435.46 263.172L599.905 304.173L590.867 340.3L426.421 299.299L435.46 263.172ZM424.3 307.777L588.746 348.778L579.707 384.905L415.261 343.904L424.3 307.777ZM422.838 205.588L640.747 259.919L598.967 426.912L543.661 413.123L574.65 289.26L464.405 261.773L433.047 387.11L380.689 374.056L422.838 205.588ZM395.017 72.546L727.227 155.375L715.698 201.455L383.489 118.626L395.017 72.546ZM542.415 68.9583L595.51 82.1963L558.526 230.02L505.431 216.782L542.415 68.9583ZM505.905 116.251L545.632 143.779C502.117 186.191 442.38 215.16 379.788 222.661C375.457 208.657 365.504 185.811 356.933 173.099C414.178 169.749 471.702 148.061 505.905 116.251ZM602.047 140.613C618.542 184.28 660.939 229.315 712.28 258.956C698.36 266.059 678.262 282.197 667.199 293.537C614.66 257.723 574.845 203.933 555.587 146.261L602.047 140.613ZM128.405 629.346L181.499 642.584L117.584 898.049L64.4895 884.812L128.405 629.346ZM156.058 636.24L328.615 679.264L301.223 788.749L128.666 745.726L140.01 700.383L258.735 729.985L263.439 711.184L144.714 681.583L156.058 636.24ZM122.856 762.684L319.38 811.683L287.561 938.863L233.729 925.441L253.927 844.709L111.235 809.132L122.856 762.684ZM107.176 831.618L280.102 874.734L268.482 921.182L95.5554 878.067L107.176 831.618ZM223.084 554.652L280.604 568.993L262.711 640.509L205.192 626.168L223.084 554.652ZM85.1828 545.334L407.437 625.681L382.904 723.739L327.966 710.041L339.956 662.118L124.997 608.523L113.007 656.446L60.6497 643.391L85.1828 545.334Z" fill="#CACACA"/>
<g filter="url(#filter0_d_607_9)">
<path d="M-226 967.5H655.536L546.194 645.5L506.5 531L456.5 441L546.194 301V240.5L579.5 190.5L506.5 125.5L370.5 76L249.5 98.5L180.5 157L205.5 207L180.5 301L233 420L159.5 560L47 679L-72 915L-226 967.5Z" fill="url(#paint0_linear_607_9)" shape-rendering="crispEdges"/>
</g>
</g>
<path d="M31.0564 711V641.65H51.9564V711H31.0564ZM105.987 679.65H106.177V641.65H124.702V711H106.177L85.4669 673H85.2769V711H66.7519V641.65H85.2769L105.987 679.65ZM190.809 705.205V705.395C195.115 707.738 199.01 710.652 202.494 714.135C206.04 717.682 208.795 721.387 210.759 725.25H190.809C187.515 719.107 184.76 715.338 182.544 713.945C180.39 712.615 176.179 711.95 169.909 711.95C159.015 711.95 150.339 708.783 143.879 702.45C137.482 696.053 134.284 687.345 134.284 676.325C134.284 665.305 137.482 656.628 143.879 650.295C150.339 643.898 159.015 640.7 169.909 640.7C180.802 640.7 189.447 643.898 195.844 650.295C202.304 656.628 205.534 665.305 205.534 676.325C205.534 682.342 204.235 687.852 201.639 692.855C199.105 697.795 195.495 701.912 190.809 705.205ZM153.759 676.325C153.759 689.625 159.142 696.275 169.909 696.275C180.675 696.275 186.059 689.625 186.059 676.325C186.059 663.025 180.675 656.375 169.909 656.375C159.142 656.375 153.759 663.025 153.759 676.325ZM263.829 704.54C258.953 709.48 251.923 711.95 242.739 711.95C233.556 711.95 226.494 709.48 221.554 704.54C216.678 699.537 214.239 692.19 214.239 682.5V641.65H233.429V683.925C233.429 688.422 234.221 691.683 235.804 693.71C237.388 695.737 239.763 696.75 242.929 696.75C246.096 696.75 248.471 695.737 250.054 693.71C251.638 691.683 252.429 688.422 252.429 683.925V641.65H271.239V682.5C271.239 692.19 268.769 699.537 263.829 704.54ZM285.07 711V641.65H305.97V711H285.07ZM366.841 660.175C360.444 657.008 353.952 655.425 347.366 655.425C344.389 655.425 342.141 655.963 340.621 657.04C339.101 658.053 338.341 659.415 338.341 661.125C338.341 663.785 340.399 665.685 344.516 666.825C354.459 669.485 361.457 672.683 365.511 676.42C369.564 680.093 371.591 684.812 371.591 690.575C371.591 697.542 369.184 702.862 364.371 706.535C359.557 710.145 352.306 711.95 342.616 711.95C338.562 711.95 334.192 711.285 329.506 709.955C324.882 708.562 321.177 706.852 318.391 704.825L322.666 690.1C325.896 692.317 329.379 694.058 333.116 695.325C336.916 696.592 340.399 697.225 343.566 697.225C349.266 697.225 352.116 695.167 352.116 691.05C352.116 688.39 349.582 686.332 344.516 684.875C335.269 682.215 328.682 679.017 324.756 675.28C320.829 671.543 318.866 666.825 318.866 661.125C318.866 654.855 321.241 649.883 325.991 646.21C330.804 642.537 337.612 640.7 346.416 640.7C355.789 640.7 363.706 642.283 370.166 645.45L366.841 660.175ZM384.059 711V641.65H404.959V711H384.059ZM474.38 641.65V657.325H455.57V711H436.19V657.325H417.38V641.65H474.38ZM487.419 650.295C493.879 643.898 502.555 640.7 513.449 640.7C524.342 640.7 532.987 643.898 539.384 650.295C545.844 656.628 549.074 665.305 549.074 676.325C549.074 687.345 545.844 696.053 539.384 702.45C532.987 708.783 524.342 711.95 513.449 711.95C502.555 711.95 493.879 708.783 487.419 702.45C481.022 696.053 477.824 687.345 477.824 676.325C477.824 665.305 481.022 656.628 487.419 650.295ZM497.299 676.325C497.299 689.625 502.682 696.275 513.449 696.275C524.215 696.275 529.599 689.625 529.599 676.325C529.599 663.025 524.215 656.375 513.449 656.375C502.682 656.375 497.299 663.025 497.299 676.325ZM577.162 686.775V711H558.637V642.125C566.87 641.175 575.103 640.7 583.337 640.7C602.337 640.7 611.837 647.825 611.837 662.075C611.837 666.065 610.602 669.77 608.132 673.19C605.662 676.61 602.463 679.048 598.537 680.505V680.695C600.437 681.772 602.02 683.165 603.287 684.875C604.553 686.522 605.757 688.897 606.897 692L613.737 711H594.262L588.372 692.95C587.675 690.733 586.788 689.15 585.712 688.2C584.635 687.25 583.21 686.775 581.437 686.775H577.162ZM577.162 673H582.387C585.617 673 588.15 672.208 589.987 670.625C591.887 668.978 592.837 666.762 592.837 663.975C592.837 657.958 589.353 654.95 582.387 654.95C580.36 654.95 578.618 655.108 577.162 655.425V673Z" fill="white"/>
<path d="M44.2539 762.16V769H38.4039V747.25C40.4639 746.95 42.6639 746.8 45.0039 746.8C51.8039 746.8 55.2039 749.25 55.2039 754.15C55.2039 756.81 54.4339 758.83 52.8939 760.21C51.3739 761.57 49.1439 762.25 46.2039 762.25C45.4239 762.25 44.7739 762.22 44.2539 762.16ZM44.2539 757.81C44.6339 757.87 45.0839 757.9 45.6039 757.9C46.9039 757.9 47.9039 757.6 48.6039 757C49.3039 756.4 49.6539 755.55 49.6539 754.45C49.6539 752.35 48.3039 751.3 45.6039 751.3C45.1639 751.3 44.7139 751.35 44.2539 751.45V757.81ZM65.0054 758.8H65.9054C65.9054 758.12 65.7754 757.65 65.5154 757.39C65.2554 757.13 64.7854 757 64.1054 757C62.0054 757 59.9554 757.45 57.9554 758.35L57.2054 754.45C59.4054 753.55 61.8054 753.1 64.4054 753.1C67.0054 753.1 68.8554 753.59 69.9554 754.57C71.0554 755.53 71.6054 757.14 71.6054 759.4V764.8C71.6054 766.24 71.7554 767.64 72.0554 769H66.6554C66.5354 768.32 66.4354 767.62 66.3554 766.9H66.2954C65.7554 767.62 65.0554 768.2 64.1954 768.64C63.3354 769.08 62.4554 769.3 61.5554 769.3C60.0154 769.3 58.7754 768.88 57.8354 768.04C56.9154 767.18 56.4554 766 56.4554 764.5C56.4554 762.78 57.1854 761.4 58.6454 760.36C60.1254 759.32 62.2454 758.8 65.0054 758.8ZM61.5554 763.9C61.5554 764.8 62.0554 765.25 63.0554 765.25C63.9154 765.25 64.6054 765.01 65.1254 764.53C65.6454 764.05 65.9054 763.39 65.9054 762.55V762.1H65.0054C63.8654 762.1 63.0054 762.27 62.4254 762.61C61.8454 762.93 61.5554 763.36 61.5554 763.9ZM81.9571 763.9H82.0171L84.8371 753.4H90.8371L82.7371 775.6H76.7371L79.4371 769L73.4371 753.4H79.7371L81.9571 763.9ZM109.177 754H109.147L104.677 758.2L102.877 753.1L109.177 747.1H115.477V769H109.177V754ZM144.473 764.11L145.673 768.1C143.953 768.9 142.153 769.3 140.273 769.3C137.513 769.3 135.323 768.57 133.703 767.11C132.083 765.65 131.273 763.68 131.273 761.2C131.273 758.7 132.063 756.73 133.643 755.29C135.243 753.83 137.453 753.1 140.273 753.1C142.213 753.1 144.013 753.5 145.673 754.3L144.473 758.35C143.233 757.59 141.933 757.21 140.573 757.21C139.433 757.21 138.543 757.55 137.903 758.23C137.283 758.91 136.973 759.9 136.973 761.2C136.973 762.46 137.303 763.45 137.963 764.17C138.623 764.89 139.493 765.25 140.573 765.25C141.933 765.25 143.233 764.87 144.473 764.11ZM150.249 755.26C151.689 753.82 153.719 753.1 156.339 753.1C158.959 753.1 160.989 753.82 162.429 755.26C163.869 756.7 164.589 758.68 164.589 761.2C164.589 763.72 163.869 765.7 162.429 767.14C160.989 768.58 158.959 769.3 156.339 769.3C153.719 769.3 151.689 768.58 150.249 767.14C148.809 765.7 148.089 763.72 148.089 761.2C148.089 758.68 148.809 756.7 150.249 755.26ZM154.329 764.29C154.769 764.91 155.439 765.22 156.339 765.22C157.239 765.22 157.909 764.91 158.349 764.29C158.789 763.67 159.009 762.64 159.009 761.2C159.009 759.76 158.789 758.73 158.349 758.11C157.909 757.49 157.239 757.18 156.339 757.18C155.439 757.18 154.769 757.49 154.329 758.11C153.889 758.73 153.669 759.76 153.669 761.2C153.669 762.64 153.889 763.67 154.329 764.29ZM167.932 750.7V746.5H173.932V750.7H167.932ZM167.932 769V753.4H173.932V769H167.932ZM183.749 755.5C184.309 754.76 184.999 754.18 185.819 753.76C186.659 753.32 187.509 753.1 188.369 753.1C190.349 753.1 191.769 753.66 192.629 754.78C193.489 755.88 193.919 757.82 193.919 760.6V769H188.279V761.2C188.279 759.7 188.139 758.7 187.859 758.2C187.599 757.7 187.119 757.45 186.419 757.45C185.799 757.45 185.239 757.79 184.739 758.47C184.259 759.15 184.019 759.96 184.019 760.9V769H178.319V753.4H183.569L183.689 755.5H183.749ZM201.887 772.3H197.087L198.887 762.7H205.487L201.887 772.3ZM232.761 755.5V760H224.961V764.2H233.361V769H218.961V747.1H233.361V751.9H224.961V755.5H232.761ZM244.324 763.81H244.264L242.044 769H236.104L240.604 761.05L236.254 753.4H242.314L244.384 758.38H244.444L246.514 753.4H252.454L248.104 761.05L252.604 769H246.544L244.324 763.81ZM262.847 758.8H263.747C263.747 758.12 263.617 757.65 263.357 757.39C263.097 757.13 262.627 757 261.947 757C259.847 757 257.797 757.45 255.797 758.35L255.047 754.45C257.247 753.55 259.647 753.1 262.247 753.1C264.847 753.1 266.697 753.59 267.797 754.57C268.897 755.53 269.447 757.14 269.447 759.4V764.8C269.447 766.24 269.597 767.64 269.897 769H264.497C264.377 768.32 264.277 767.62 264.197 766.9H264.137C263.597 767.62 262.897 768.2 262.037 768.64C261.177 769.08 260.297 769.3 259.397 769.3C257.857 769.3 256.617 768.88 255.677 768.04C254.757 767.18 254.297 766 254.297 764.5C254.297 762.78 255.027 761.4 256.487 760.36C257.967 759.32 260.087 758.8 262.847 758.8ZM259.397 763.9C259.397 764.8 259.897 765.25 260.897 765.25C261.757 765.25 262.447 765.01 262.967 764.53C263.487 764.05 263.747 763.39 263.747 762.55V762.1H262.847C261.707 762.1 260.847 762.27 260.267 762.61C259.687 762.93 259.397 763.36 259.397 763.9ZM291.027 769V760.3C291.027 759.1 290.917 758.31 290.697 757.93C290.477 757.55 290.077 757.36 289.497 757.36C288.977 757.36 288.547 757.62 288.207 758.14C287.867 758.64 287.697 759.36 287.697 760.3V769H282.237V760.3C282.237 759.1 282.127 758.31 281.907 757.93C281.707 757.55 281.317 757.36 280.737 757.36C280.217 757.36 279.787 757.62 279.447 758.14C279.107 758.64 278.937 759.36 278.937 760.3V769H273.387V753.4H278.487L278.607 755.5H278.667C279.227 754.76 279.877 754.18 280.617 753.76C281.357 753.32 282.097 753.1 282.837 753.1C283.797 753.1 284.557 753.27 285.117 753.61C285.697 753.93 286.227 754.51 286.707 755.35H286.767C287.627 754.51 288.417 753.93 289.137 753.61C289.857 753.27 290.677 753.1 291.597 753.1C293.317 753.1 294.557 753.57 295.317 754.51C296.097 755.45 296.487 757.08 296.487 759.4V769H291.027ZM300.706 750.7V746.5H306.706V750.7H300.706ZM300.706 769V753.4H306.706V769H300.706ZM316.522 755.5C317.082 754.76 317.772 754.18 318.592 753.76C319.432 753.32 320.282 753.1 321.142 753.1C323.122 753.1 324.542 753.66 325.402 754.78C326.262 755.88 326.692 757.82 326.692 760.6V769H321.052V761.2C321.052 759.7 320.912 758.7 320.632 758.2C320.372 757.7 319.892 757.45 319.192 757.45C318.572 757.45 318.012 757.79 317.512 758.47C317.032 759.15 316.792 759.96 316.792 760.9V769H311.092V753.4H316.342L316.462 755.5H316.522ZM334.841 759.7H339.911C339.911 757.8 339.061 756.85 337.361 756.85C335.821 756.85 334.981 757.8 334.841 759.7ZM334.901 763C335.241 764.6 336.381 765.4 338.321 765.4C339.821 765.4 341.251 765.05 342.611 764.35L343.811 768.1C341.971 768.9 339.971 769.3 337.811 769.3C335.231 769.3 333.161 768.57 331.601 767.11C330.041 765.65 329.261 763.68 329.261 761.2C329.261 758.7 329.971 756.73 331.391 755.29C332.831 753.83 334.771 753.1 337.211 753.1C339.711 753.1 341.661 753.81 343.061 755.23C344.461 756.63 345.161 758.62 345.161 761.2C345.161 761.74 345.111 762.34 345.011 763H334.901ZM371.986 747.1L361.486 770.2H356.386L366.886 747.1H371.986ZM398.369 756.1V760.6H390.869V769H384.869V747.1H398.969V751.9H390.869V756.1H398.369ZM403.11 755.26C404.55 753.82 406.58 753.1 409.2 753.1C411.82 753.1 413.85 753.82 415.29 755.26C416.73 756.7 417.45 758.68 417.45 761.2C417.45 763.72 416.73 765.7 415.29 767.14C413.85 768.58 411.82 769.3 409.2 769.3C406.58 769.3 404.55 768.58 403.11 767.14C401.67 765.7 400.95 763.72 400.95 761.2C400.95 758.68 401.67 756.7 403.11 755.26ZM407.19 764.29C407.63 764.91 408.3 765.22 409.2 765.22C410.1 765.22 410.77 764.91 411.21 764.29C411.65 763.67 411.87 762.64 411.87 761.2C411.87 759.76 411.65 758.73 411.21 758.11C410.77 757.49 410.1 757.18 409.2 757.18C408.3 757.18 407.63 757.49 407.19 758.11C406.75 758.73 406.53 759.76 406.53 761.2C406.53 762.64 406.75 763.67 407.19 764.29ZM432.794 753.1V757.6C430.554 757.6 428.864 758.02 427.724 758.86C426.584 759.7 426.014 760.88 426.014 762.4V769H420.194V753.4H425.564L425.594 756.4H425.654C427.374 754.2 429.754 753.1 432.794 753.1ZM447.549 764.11L448.749 768.1C447.029 768.9 445.229 769.3 443.349 769.3C440.589 769.3 438.399 768.57 436.779 767.11C435.159 765.65 434.349 763.68 434.349 761.2C434.349 758.7 435.139 756.73 436.719 755.29C438.319 753.83 440.529 753.1 443.349 753.1C445.289 753.1 447.089 753.5 448.749 754.3L447.549 758.35C446.309 757.59 445.009 757.21 443.649 757.21C442.509 757.21 441.619 757.55 440.979 758.23C440.359 758.91 440.049 759.9 440.049 761.2C440.049 762.46 440.379 763.45 441.039 764.17C441.699 764.89 442.569 765.25 443.649 765.25C445.009 765.25 446.309 764.87 447.549 764.11ZM456.745 759.7H461.815C461.815 757.8 460.965 756.85 459.265 756.85C457.725 756.85 456.885 757.8 456.745 759.7ZM456.805 763C457.145 764.6 458.285 765.4 460.225 765.4C461.725 765.4 463.155 765.05 464.515 764.35L465.715 768.1C463.875 768.9 461.875 769.3 459.715 769.3C457.135 769.3 455.065 768.57 453.505 767.11C451.945 765.65 451.165 763.68 451.165 761.2C451.165 758.7 451.875 756.73 453.295 755.29C454.735 753.83 456.675 753.1 459.115 753.1C461.615 753.1 463.565 753.81 464.965 755.23C466.365 756.63 467.065 758.62 467.065 761.2C467.065 761.74 467.015 762.34 466.915 763H456.805ZM487.291 758.8H488.191C488.191 758.12 488.061 757.65 487.801 757.39C487.541 757.13 487.071 757 486.391 757C484.291 757 482.241 757.45 480.241 758.35L479.491 754.45C481.691 753.55 484.091 753.1 486.691 753.1C489.291 753.1 491.141 753.59 492.241 754.57C493.341 755.53 493.891 757.14 493.891 759.4V764.8C493.891 766.24 494.041 767.64 494.341 769H488.941C488.821 768.32 488.721 767.62 488.641 766.9H488.581C488.041 767.62 487.341 768.2 486.481 768.64C485.621 769.08 484.741 769.3 483.841 769.3C482.301 769.3 481.061 768.88 480.121 768.04C479.201 767.18 478.741 766 478.741 764.5C478.741 762.78 479.471 761.4 480.931 760.36C482.411 759.32 484.531 758.8 487.291 758.8ZM483.841 763.9C483.841 764.8 484.341 765.25 485.341 765.25C486.201 765.25 486.891 765.01 487.411 764.53C487.931 764.05 488.191 763.39 488.191 762.55V762.1H487.291C486.151 762.1 485.291 762.27 484.711 762.61C484.131 762.93 483.841 763.36 483.841 763.9ZM503.26 755.5C503.82 754.76 504.51 754.18 505.33 753.76C506.17 753.32 507.02 753.1 507.88 753.1C509.86 753.1 511.28 753.66 512.14 754.78C513 755.88 513.43 757.82 513.43 760.6V769H507.79V761.2C507.79 759.7 507.65 758.7 507.37 758.2C507.11 757.7 506.63 757.45 505.93 757.45C505.31 757.45 504.75 757.79 504.25 758.47C503.77 759.15 503.53 759.96 503.53 760.9V769H497.83V753.4H503.08L503.2 755.5H503.26ZM518.159 755.26C519.599 753.82 521.629 753.1 524.249 753.1C526.869 753.1 528.899 753.82 530.339 755.26C531.779 756.7 532.499 758.68 532.499 761.2C532.499 763.72 531.779 765.7 530.339 767.14C528.899 768.58 526.869 769.3 524.249 769.3C521.629 769.3 519.599 768.58 518.159 767.14C516.719 765.7 515.999 763.72 515.999 761.2C515.999 758.68 516.719 756.7 518.159 755.26ZM522.239 764.29C522.679 764.91 523.349 765.22 524.249 765.22C525.149 765.22 525.819 764.91 526.259 764.29C526.699 763.67 526.919 762.64 526.919 761.2C526.919 759.76 526.699 758.73 526.259 758.11C525.819 757.49 525.149 757.18 524.249 757.18C523.349 757.18 522.679 757.49 522.239 758.11C521.799 758.73 521.579 759.76 521.579 761.2C521.579 762.64 521.799 763.67 522.239 764.29ZM543.2 769.3C541.22 769.3 539.75 768.85 538.79 767.95C537.83 767.03 537.35 765.58 537.35 763.6V757.9H534.2V754H537.35V748.3H543.17V754H548V757.9H543.17V762.7C543.17 763.66 543.28 764.3 543.5 764.62C543.72 764.94 544.12 765.1 544.7 765.1C545.58 765.1 546.48 764.95 547.4 764.65L548 768.7C546.52 769.1 544.92 769.3 543.2 769.3ZM567.516 760.6V769H561.876V761.2C561.876 759.7 561.736 758.7 561.456 758.2C561.196 757.7 560.716 757.45 560.016 757.45C559.396 757.45 558.836 757.79 558.336 758.47C557.856 759.15 557.616 759.96 557.616 760.9V769H551.916V746.5H557.616V755.2H557.676C558.176 754.56 558.816 754.05 559.596 753.67C560.376 753.29 561.166 753.1 561.966 753.1C563.946 753.1 565.366 753.66 566.226 754.78C567.086 755.88 567.516 757.82 567.516 760.6ZM575.691 759.7H580.761C580.761 757.8 579.911 756.85 578.211 756.85C576.671 756.85 575.831 757.8 575.691 759.7ZM575.751 763C576.091 764.6 577.231 765.4 579.171 765.4C580.671 765.4 582.101 765.05 583.461 764.35L584.661 768.1C582.821 768.9 580.821 769.3 578.661 769.3C576.081 769.3 574.011 768.57 572.451 767.11C570.891 765.65 570.111 763.68 570.111 761.2C570.111 758.7 570.821 756.73 572.241 755.29C573.681 753.83 575.621 753.1 578.061 753.1C580.561 753.1 582.511 753.81 583.911 755.23C585.311 756.63 586.011 758.62 586.011 761.2C586.011 761.74 585.961 762.34 585.861 763H575.751ZM601.485 753.1V757.6C599.245 757.6 597.555 758.02 596.415 758.86C595.275 759.7 594.705 760.88 594.705 762.4V769H588.885V753.4H594.255L594.285 756.4H594.345C596.065 754.2 598.445 753.1 601.485 753.1ZM51.4984 796.4L51.6184 798.5H51.6784C52.9784 796.9 54.5184 796.1 56.2984 796.1C58.1784 796.1 59.6684 796.81 60.7684 798.23C61.8884 799.63 62.4484 801.62 62.4484 804.2C62.4484 806.72 61.8684 808.7 60.7084 810.14C59.5684 811.58 58.0984 812.3 56.2984 812.3C54.5384 812.3 53.1084 811.6 52.0084 810.2H51.9484V818.6H46.2484V796.4H51.4984ZM57.0484 804.2C57.0484 802.96 56.8184 802.03 56.3584 801.41C55.9184 800.77 55.2984 800.45 54.4984 800.45C53.7184 800.45 53.0984 800.77 52.6384 801.41C52.1784 802.03 51.9484 802.91 51.9484 804.05V804.35C51.9484 805.51 52.1784 806.4 52.6384 807.02C53.0984 807.64 53.7184 807.95 54.4984 807.95C55.2384 807.95 55.8484 807.63 56.3284 806.99C56.8084 806.33 57.0484 805.4 57.0484 804.2ZM65.9207 812V789.5H71.9207V812H65.9207ZM84.107 801.8H85.007C85.007 801.12 84.877 800.65 84.617 800.39C84.357 800.13 83.887 800 83.207 800C81.107 800 79.057 800.45 77.057 801.35L76.307 797.45C78.507 796.55 80.907 796.1 83.507 796.1C86.107 796.1 87.957 796.59 89.057 797.57C90.157 798.53 90.707 800.14 90.707 802.4V807.8C90.707 809.24 90.857 810.64 91.157 812H85.757C85.637 811.32 85.537 810.62 85.457 809.9H85.397C84.857 810.62 84.157 811.2 83.297 811.64C82.437 812.08 81.557 812.3 80.657 812.3C79.117 812.3 77.877 811.88 76.937 811.04C76.017 810.18 75.557 809 75.557 807.5C75.557 805.78 76.287 804.4 77.747 803.36C79.227 802.32 81.347 801.8 84.107 801.8ZM80.657 806.9C80.657 807.8 81.157 808.25 82.157 808.25C83.017 808.25 83.707 808.01 84.227 807.53C84.747 807.05 85.007 806.39 85.007 805.55V805.1H84.107C82.967 805.1 82.107 805.27 81.527 805.61C80.947 805.93 80.657 806.36 80.657 806.9ZM101.059 806.9H101.119L103.939 796.4H109.939L101.839 818.6H95.8386L98.5386 812L92.5386 796.4H98.8386L101.059 806.9ZM116.286 802.7H121.356C121.356 800.8 120.506 799.85 118.806 799.85C117.266 799.85 116.426 800.8 116.286 802.7ZM116.346 806C116.686 807.6 117.826 808.4 119.766 808.4C121.266 808.4 122.696 808.05 124.056 807.35L125.256 811.1C123.416 811.9 121.416 812.3 119.256 812.3C116.676 812.3 114.606 811.57 113.046 810.11C111.486 808.65 110.706 806.68 110.706 804.2C110.706 801.7 111.416 799.73 112.836 798.29C114.276 796.83 116.216 796.1 118.656 796.1C121.156 796.1 123.106 796.81 124.506 798.23C125.906 799.63 126.606 801.62 126.606 804.2C126.606 804.74 126.556 805.34 126.456 806H116.346ZM142.081 796.1V800.6C139.841 800.6 138.151 801.02 137.011 801.86C135.871 802.7 135.301 803.88 135.301 805.4V812H129.481V796.4H134.851L134.881 799.4H134.941C136.661 797.2 139.041 796.1 142.081 796.1ZM163.073 812.3C161.093 812.3 159.623 811.85 158.663 810.95C157.703 810.03 157.223 808.58 157.223 806.6V800.9H154.073V797H157.223V791.3H163.043V797H167.873V800.9H163.043V805.7C163.043 806.66 163.153 807.3 163.373 807.62C163.593 807.94 163.993 808.1 164.573 808.1C165.453 808.1 166.353 807.95 167.273 807.65L167.873 811.7C166.393 812.1 164.793 812.3 163.073 812.3ZM172.456 798.26C173.896 796.82 175.926 796.1 178.546 796.1C181.166 796.1 183.196 796.82 184.636 798.26C186.076 799.7 186.796 801.68 186.796 804.2C186.796 806.72 186.076 808.7 184.636 810.14C183.196 811.58 181.166 812.3 178.546 812.3C175.926 812.3 173.896 811.58 172.456 810.14C171.016 808.7 170.296 806.72 170.296 804.2C170.296 801.68 171.016 799.7 172.456 798.26ZM176.536 807.29C176.976 807.91 177.646 808.22 178.546 808.22C179.446 808.22 180.116 807.91 180.556 807.29C180.996 806.67 181.216 805.64 181.216 804.2C181.216 802.76 180.996 801.73 180.556 801.11C180.116 800.49 179.446 800.18 178.546 800.18C177.646 800.18 176.976 800.49 176.536 801.11C176.096 801.73 175.876 802.76 175.876 804.2C175.876 805.64 176.096 806.67 176.536 807.29ZM203.62 802.7H208.69C208.69 800.8 207.84 799.85 206.14 799.85C204.6 799.85 203.76 800.8 203.62 802.7ZM203.68 806C204.02 807.6 205.16 808.4 207.1 808.4C208.6 808.4 210.03 808.05 211.39 807.35L212.59 811.1C210.75 811.9 208.75 812.3 206.59 812.3C204.01 812.3 201.94 811.57 200.38 810.11C198.82 808.65 198.04 806.68 198.04 804.2C198.04 801.7 198.75 799.73 200.17 798.29C201.61 796.83 203.55 796.1 205.99 796.1C208.49 796.1 210.44 796.81 211.84 798.23C213.24 799.63 213.94 801.62 213.94 804.2C213.94 804.74 213.89 805.34 213.79 806H203.68ZM223.523 806.81H223.463L221.243 812H215.303L219.803 804.05L215.453 796.4H221.513L223.583 801.38H223.643L225.713 796.4H231.653L227.303 804.05L231.803 812H225.743L223.523 806.81ZM246.221 807.11L247.421 811.1C245.701 811.9 243.901 812.3 242.021 812.3C239.261 812.3 237.071 811.57 235.451 810.11C233.831 808.65 233.021 806.68 233.021 804.2C233.021 801.7 233.811 799.73 235.391 798.29C236.991 796.83 239.201 796.1 242.021 796.1C243.961 796.1 245.761 796.5 247.421 797.3L246.221 801.35C244.981 800.59 243.681 800.21 242.321 800.21C241.181 800.21 240.291 800.55 239.651 801.23C239.031 801.91 238.721 802.9 238.721 804.2C238.721 805.46 239.051 806.45 239.711 807.17C240.371 807.89 241.241 808.25 242.321 808.25C243.681 808.25 244.981 807.87 246.221 807.11ZM266.637 803.6V812H260.997V804.2C260.997 802.7 260.857 801.7 260.577 801.2C260.317 800.7 259.837 800.45 259.137 800.45C258.517 800.45 257.957 800.79 257.457 801.47C256.977 802.15 256.737 802.96 256.737 803.9V812H251.037V789.5H256.737V798.2H256.797C257.297 797.56 257.937 797.05 258.717 796.67C259.497 796.29 260.287 796.1 261.087 796.1C263.067 796.1 264.487 796.66 265.347 797.78C266.207 798.88 266.637 800.82 266.637 803.6ZM278.082 801.8H278.982C278.982 801.12 278.852 800.65 278.592 800.39C278.332 800.13 277.862 800 277.182 800C275.082 800 273.032 800.45 271.032 801.35L270.282 797.45C272.482 796.55 274.882 796.1 277.482 796.1C280.082 796.1 281.932 796.59 283.032 797.57C284.132 798.53 284.682 800.14 284.682 802.4V807.8C284.682 809.24 284.832 810.64 285.132 812H279.732C279.612 811.32 279.512 810.62 279.432 809.9H279.372C278.832 810.62 278.132 811.2 277.272 811.64C276.412 812.08 275.532 812.3 274.632 812.3C273.092 812.3 271.852 811.88 270.912 811.04C269.992 810.18 269.532 809 269.532 807.5C269.532 805.78 270.262 804.4 271.722 803.36C273.202 802.32 275.322 801.8 278.082 801.8ZM274.632 806.9C274.632 807.8 275.132 808.25 276.132 808.25C276.992 808.25 277.682 808.01 278.202 807.53C278.722 807.05 278.982 806.39 278.982 805.55V805.1H278.082C276.942 805.1 276.082 805.27 275.502 805.61C274.922 805.93 274.632 806.36 274.632 806.9ZM294.051 798.5C294.611 797.76 295.301 797.18 296.121 796.76C296.961 796.32 297.811 796.1 298.671 796.1C300.651 796.1 302.071 796.66 302.931 797.78C303.791 798.88 304.221 800.82 304.221 803.6V812H298.581V804.2C298.581 802.7 298.441 801.7 298.161 801.2C297.901 800.7 297.421 800.45 296.721 800.45C296.101 800.45 295.541 800.79 295.041 801.47C294.561 802.15 294.321 802.96 294.321 803.9V812H288.621V796.4H293.871L293.991 798.5H294.051ZM317.59 809.6H317.56C316.4 811 314.91 811.7 313.09 811.7C311.31 811.7 309.84 811.01 308.68 809.63C307.52 808.23 306.94 806.32 306.94 803.9C306.94 801.44 307.5 799.53 308.62 798.17C309.74 796.79 311.23 796.1 313.09 796.1C314.87 796.1 316.41 796.9 317.71 798.5H317.77L317.89 796.4H323.14V810.2C323.14 813.06 322.35 815.22 320.77 816.68C319.19 818.16 316.88 818.9 313.84 818.9C311.92 818.9 310.12 818.6 308.44 818L309.34 813.98C310.74 814.56 312.14 814.85 313.54 814.85C315 814.85 316.04 814.5 316.66 813.8C317.28 813.12 317.59 811.92 317.59 810.2V809.6ZM312.34 803.9C312.34 805.04 312.57 805.93 313.03 806.57C313.51 807.19 314.13 807.5 314.89 807.5C315.67 807.5 316.29 807.21 316.75 806.63C317.21 806.03 317.44 805.17 317.44 804.05V803.75C317.44 802.65 317.21 801.8 316.75 801.2C316.29 800.6 315.67 800.3 314.89 800.3C314.09 800.3 313.46 800.61 313 801.23C312.56 801.83 312.34 802.72 312.34 803.9ZM331.442 802.7H336.512C336.512 800.8 335.662 799.85 333.962 799.85C332.422 799.85 331.582 800.8 331.442 802.7ZM331.502 806C331.842 807.6 332.982 808.4 334.922 808.4C336.422 808.4 337.852 808.05 339.212 807.35L340.412 811.1C338.572 811.9 336.572 812.3 334.412 812.3C331.832 812.3 329.762 811.57 328.202 810.11C326.642 808.65 325.862 806.68 325.862 804.2C325.862 801.7 326.572 799.73 327.992 798.29C329.432 796.83 331.372 796.1 333.812 796.1C336.312 796.1 338.262 796.81 339.662 798.23C341.062 799.63 341.762 801.62 341.762 804.2C341.762 804.74 341.712 805.34 341.612 806H331.502ZM366.338 807.11L367.538 811.1C365.818 811.9 364.018 812.3 362.138 812.3C359.378 812.3 357.188 811.57 355.568 810.11C353.948 808.65 353.138 806.68 353.138 804.2C353.138 801.7 353.928 799.73 355.508 798.29C357.108 796.83 359.318 796.1 362.138 796.1C364.078 796.1 365.878 796.5 367.538 797.3L366.338 801.35C365.098 800.59 363.798 800.21 362.438 800.21C361.298 800.21 360.408 800.55 359.768 801.23C359.148 801.91 358.838 802.9 358.838 804.2C358.838 805.46 359.168 806.45 359.828 807.17C360.488 807.89 361.358 808.25 362.438 808.25C363.798 808.25 365.098 807.87 366.338 807.11ZM378.804 801.8H379.704C379.704 801.12 379.574 800.65 379.314 800.39C379.054 800.13 378.584 800 377.904 800C375.804 800 373.754 800.45 371.754 801.35L371.004 797.45C373.204 796.55 375.604 796.1 378.204 796.1C380.804 796.1 382.654 796.59 383.754 797.57C384.854 798.53 385.404 800.14 385.404 802.4V807.8C385.404 809.24 385.554 810.64 385.854 812H380.454C380.334 811.32 380.234 810.62 380.154 809.9H380.094C379.554 810.62 378.854 811.2 377.994 811.64C377.134 812.08 376.254 812.3 375.354 812.3C373.814 812.3 372.574 811.88 371.634 811.04C370.714 810.18 370.254 809 370.254 807.5C370.254 805.78 370.984 804.4 372.444 803.36C373.924 802.32 376.044 801.8 378.804 801.8ZM375.354 806.9C375.354 807.8 375.854 808.25 376.854 808.25C377.714 808.25 378.404 808.01 378.924 807.53C379.444 807.05 379.704 806.39 379.704 805.55V805.1H378.804C377.664 805.1 376.804 805.27 376.224 805.61C375.644 805.93 375.354 806.36 375.354 806.9ZM401.944 796.1V800.6C399.704 800.6 398.014 801.02 396.874 801.86C395.734 802.7 395.164 803.88 395.164 805.4V812H389.344V796.4H394.714L394.744 799.4H394.804C396.524 797.2 398.904 796.1 401.944 796.1ZM403.649 804.2C403.649 801.62 404.199 799.63 405.299 798.23C406.419 796.81 407.919 796.1 409.799 796.1C411.499 796.1 412.929 796.8 414.089 798.2H414.149V789.5H419.849V812H414.599L414.479 809.9H414.419C413.159 811.5 411.619 812.3 409.799 812.3C407.999 812.3 406.519 811.58 405.359 810.14C404.219 808.7 403.649 806.72 403.649 804.2ZM409.049 804.2C409.049 805.4 409.289 806.33 409.769 806.99C410.249 807.63 410.859 807.95 411.599 807.95C412.379 807.95 412.999 807.64 413.459 807.02C413.919 806.4 414.149 805.51 414.149 804.35V804.05C414.149 802.91 413.919 802.03 413.459 801.41C412.999 800.77 412.379 800.45 411.599 800.45C410.799 800.45 410.169 800.77 409.709 801.41C409.269 802.03 409.049 802.96 409.049 804.2ZM436.218 801.11C434.398 800.45 432.698 800.12 431.118 800.12C430.258 800.12 429.668 800.2 429.348 800.36C429.028 800.5 428.868 800.73 428.868 801.05C428.868 801.35 428.998 801.58 429.258 801.74C429.518 801.9 429.988 802.02 430.668 802.1C433.128 802.4 434.888 802.98 435.948 803.84C437.028 804.7 437.568 805.87 437.568 807.35C437.568 808.87 436.958 810.08 435.738 810.98C434.538 811.86 432.798 812.3 430.518 812.3C427.818 812.3 425.368 811.8 423.168 810.8L424.218 806.78C426.018 807.74 427.918 808.22 429.918 808.22C431.218 808.22 431.868 807.88 431.868 807.2C431.868 806.94 431.768 806.76 431.568 806.66C431.368 806.56 430.868 806.44 430.068 806.3C427.648 805.92 425.918 805.3 424.878 804.44C423.838 803.56 423.318 802.38 423.318 800.9C423.318 799.4 423.918 798.23 425.118 797.39C426.318 796.53 428.118 796.1 430.518 796.1C432.898 796.1 435.148 796.45 437.268 797.15L436.218 801.11ZM466.391 807.5H466.451L467.921 796.4H473.411L469.811 812H463.211L461.441 801.2H461.381L459.611 812H453.011L449.411 796.4H455.021L456.491 807.5H456.551L458.321 796.4H464.621L466.391 807.5ZM476.897 793.7V789.5H482.897V793.7H476.897ZM476.897 812V796.4H482.897V812H476.897ZM495.534 812.3C493.554 812.3 492.084 811.85 491.124 810.95C490.164 810.03 489.684 808.58 489.684 806.6V800.9H486.534V797H489.684V791.3H495.504V797H500.334V800.9H495.504V805.7C495.504 806.66 495.614 807.3 495.834 807.62C496.054 807.94 496.454 808.1 497.034 808.1C497.914 808.1 498.814 807.95 499.734 807.65L500.334 811.7C498.854 812.1 497.254 812.3 495.534 812.3ZM519.85 803.6V812H514.21V804.2C514.21 802.7 514.07 801.7 513.79 801.2C513.53 800.7 513.05 800.45 512.35 800.45C511.73 800.45 511.17 800.79 510.67 801.47C510.19 802.15 509.95 802.96 509.95 803.9V812H504.25V789.5H509.95V798.2H510.01C510.51 797.56 511.15 797.05 511.93 796.67C512.71 796.29 513.5 796.1 514.3 796.1C516.28 796.1 517.7 796.66 518.56 797.78C519.42 798.88 519.85 800.82 519.85 803.6ZM541.295 812.3C539.315 812.3 537.845 811.85 536.885 810.95C535.925 810.03 535.445 808.58 535.445 806.6V800.9H532.295V797H535.445V791.3H541.265V797H546.095V800.9H541.265V805.7C541.265 806.66 541.375 807.3 541.595 807.62C541.815 807.94 542.215 808.1 542.795 808.1C543.675 808.1 544.575 807.95 545.495 807.65L546.095 811.7C544.615 812.1 543.015 812.3 541.295 812.3ZM565.612 803.6V812H559.972V804.2C559.972 802.7 559.832 801.7 559.552 801.2C559.292 800.7 558.812 800.45 558.112 800.45C557.492 800.45 556.932 800.79 556.432 801.47C555.952 802.15 555.712 802.96 555.712 803.9V812H550.012V789.5H555.712V798.2H555.772C556.272 797.56 556.912 797.05 557.692 796.67C558.472 796.29 559.262 796.1 560.062 796.1C562.042 796.1 563.462 796.66 564.322 797.78C565.182 798.88 565.612 800.82 565.612 803.6ZM573.786 802.7H578.856C578.856 800.8 578.006 799.85 576.306 799.85C574.766 799.85 573.926 800.8 573.786 802.7ZM573.846 806C574.186 807.6 575.326 808.4 577.266 808.4C578.766 808.4 580.196 808.05 581.556 807.35L582.756 811.1C580.916 811.9 578.916 812.3 576.756 812.3C574.176 812.3 572.106 811.57 570.546 810.11C568.986 808.65 568.206 806.68 568.206 804.2C568.206 801.7 568.916 799.73 570.336 798.29C571.776 796.83 573.716 796.1 576.156 796.1C578.656 796.1 580.606 796.81 582.006 798.23C583.406 799.63 584.106 801.62 584.106 804.2C584.106 804.74 584.056 805.34 583.956 806H573.846ZM118.911 850.11L120.111 854.1C118.391 854.9 116.591 855.3 114.711 855.3C111.951 855.3 109.761 854.57 108.141 853.11C106.521 851.65 105.711 849.68 105.711 847.2C105.711 844.7 106.501 842.73 108.081 841.29C109.681 839.83 111.891 839.1 114.711 839.1C116.651 839.1 118.451 839.5 120.111 840.3L118.911 844.35C117.671 843.59 116.371 843.21 115.011 843.21C113.871 843.21 112.981 843.55 112.341 844.23C111.721 844.91 111.411 845.9 111.411 847.2C111.411 848.46 111.741 849.45 112.401 850.17C113.061 850.89 113.931 851.25 115.011 851.25C116.371 851.25 117.671 850.87 118.911 850.11ZM124.688 841.26C126.128 839.82 128.158 839.1 130.778 839.1C133.398 839.1 135.428 839.82 136.868 841.26C138.308 842.7 139.028 844.68 139.028 847.2C139.028 849.72 138.308 851.7 136.868 853.14C135.428 854.58 133.398 855.3 130.778 855.3C128.158 855.3 126.128 854.58 124.688 853.14C123.248 851.7 122.528 849.72 122.528 847.2C122.528 844.68 123.248 842.7 124.688 841.26ZM128.768 850.29C129.208 850.91 129.878 851.22 130.778 851.22C131.678 851.22 132.348 850.91 132.788 850.29C133.228 849.67 133.448 848.64 133.448 847.2C133.448 845.76 133.228 844.73 132.788 844.11C132.348 843.49 131.678 843.18 130.778 843.18C129.878 843.18 129.208 843.49 128.768 844.11C128.328 844.73 128.108 845.76 128.108 847.2C128.108 848.64 128.328 849.67 128.768 850.29ZM151.491 852.9C150.931 853.64 150.231 854.23 149.391 854.67C148.571 855.09 147.731 855.3 146.871 855.3C144.991 855.3 143.641 854.81 142.821 853.83C142.021 852.85 141.621 851.14 141.621 848.7V839.4H147.261V848.1C147.261 849.26 147.371 850.03 147.591 850.41C147.811 850.77 148.221 850.95 148.821 850.95C149.441 850.95 149.991 850.61 150.471 849.93C150.971 849.25 151.221 848.44 151.221 847.5V839.4H156.921V855H151.671L151.551 852.9H151.491ZM173.297 839.1V843.6C171.057 843.6 169.367 844.02 168.227 844.86C167.087 845.7 166.517 846.88 166.517 848.4V855H160.697V839.4H166.067L166.097 842.4H166.157C167.877 840.2 170.257 839.1 173.297 839.1ZM184.738 855.3C182.758 855.3 181.288 854.85 180.328 853.95C179.368 853.03 178.888 851.58 178.888 849.6V843.9H175.738V840H178.888V834.3H184.708V840H189.538V843.9H184.708V848.7C184.708 849.66 184.818 850.3 185.038 850.62C185.258 850.94 185.658 851.1 186.238 851.1C187.118 851.1 188.018 850.95 188.938 850.65L189.538 854.7C188.058 855.1 186.458 855.3 184.738 855.3ZM201.955 847.2C201.955 844.62 202.505 842.63 203.605 841.23C204.725 839.81 206.225 839.1 208.105 839.1C209.805 839.1 211.235 839.8 212.395 841.2H212.455V832.5H218.155V855H212.905L212.785 852.9H212.725C211.465 854.5 209.925 855.3 208.105 855.3C206.305 855.3 204.825 854.58 203.665 853.14C202.525 851.7 201.955 849.72 201.955 847.2ZM207.355 847.2C207.355 848.4 207.595 849.33 208.075 849.99C208.555 850.63 209.165 850.95 209.905 850.95C210.685 850.95 211.305 850.64 211.765 850.02C212.225 849.4 212.455 848.51 212.455 847.35V847.05C212.455 845.91 212.225 845.03 211.765 844.41C211.305 843.77 210.685 843.45 209.905 843.45C209.105 843.45 208.475 843.77 208.015 844.41C207.575 845.03 207.355 845.96 207.355 847.2ZM226.604 845.7H231.674C231.674 843.8 230.824 842.85 229.124 842.85C227.584 842.85 226.744 843.8 226.604 845.7ZM226.664 849C227.004 850.6 228.144 851.4 230.084 851.4C231.584 851.4 233.014 851.05 234.374 850.35L235.574 854.1C233.734 854.9 231.734 855.3 229.574 855.3C226.994 855.3 224.924 854.57 223.364 853.11C221.804 851.65 221.024 849.68 221.024 847.2C221.024 844.7 221.734 842.73 223.154 841.29C224.594 839.83 226.534 839.1 228.974 839.1C231.474 839.1 233.424 839.81 234.824 841.23C236.224 842.63 236.924 844.62 236.924 847.2C236.924 847.74 236.874 848.34 236.774 849H226.664ZM252.241 850.11L253.441 854.1C251.721 854.9 249.921 855.3 248.041 855.3C245.281 855.3 243.091 854.57 241.471 853.11C239.851 851.65 239.041 849.68 239.041 847.2C239.041 844.7 239.831 842.73 241.411 841.29C243.011 839.83 245.221 839.1 248.041 839.1C249.981 839.1 251.781 839.5 253.441 840.3L252.241 844.35C251.001 843.59 249.701 843.21 248.341 843.21C247.201 843.21 246.311 843.55 245.671 844.23C245.051 844.91 244.741 845.9 244.741 847.2C244.741 848.46 245.071 849.45 245.731 850.17C246.391 850.89 247.261 851.25 248.341 851.25C249.701 851.25 251.001 850.87 252.241 850.11ZM262.818 848.7H262.758V855H257.058V832.5H262.758V845.1H262.818L266.958 839.4H273.408L267.408 846.9L273.558 855H267.108L262.818 848.7ZM276.14 855V848.7H282.74V855H276.14ZM304.163 837.3C303.723 837.3 303.273 837.35 302.813 837.45V841.65H303.713C306.013 841.65 307.163 840.9 307.163 839.4C307.163 838 306.163 837.3 304.163 837.3ZM313.163 848.7C313.163 850.96 312.423 852.63 310.943 853.71C309.483 854.77 307.123 855.3 303.863 855.3C301.423 855.3 299.123 855.15 296.963 854.85V833.25C299.023 832.95 301.223 832.8 303.563 832.8C309.563 832.8 312.563 834.7 312.563 838.5C312.563 839.78 312.153 840.87 311.333 841.77C310.513 842.65 309.423 843.2 308.063 843.42V843.48C309.603 843.68 310.833 844.27 311.753 845.25C312.693 846.23 313.163 847.38 313.163 848.7ZM307.613 848.1C307.613 846.6 306.513 845.85 304.313 845.85H302.813V850.65C303.273 850.75 303.723 850.8 304.163 850.8C305.363 850.8 306.233 850.58 306.773 850.14C307.333 849.7 307.613 849.02 307.613 848.1ZM316.482 855V832.5H322.482V855H316.482ZM327.979 841.26C329.419 839.82 331.449 839.1 334.069 839.1C336.689 839.1 338.719 839.82 340.159 841.26C341.599 842.7 342.319 844.68 342.319 847.2C342.319 849.72 341.599 851.7 340.159 853.14C338.719 854.58 336.689 855.3 334.069 855.3C331.449 855.3 329.419 854.58 327.979 853.14C326.539 851.7 325.819 849.72 325.819 847.2C325.819 844.68 326.539 842.7 327.979 841.26ZM332.059 850.29C332.499 850.91 333.169 851.22 334.069 851.22C334.969 851.22 335.639 850.91 336.079 850.29C336.519 849.67 336.739 848.64 336.739 847.2C336.739 845.76 336.519 844.73 336.079 844.11C335.639 843.49 334.969 843.18 334.069 843.18C333.169 843.18 332.499 843.49 332.059 844.11C331.619 844.73 331.399 845.76 331.399 847.2C331.399 848.64 331.619 849.67 332.059 850.29ZM357.505 850.11L358.705 854.1C356.985 854.9 355.185 855.3 353.305 855.3C350.545 855.3 348.355 854.57 346.735 853.11C345.115 851.65 344.305 849.68 344.305 847.2C344.305 844.7 345.095 842.73 346.675 841.29C348.275 839.83 350.485 839.1 353.305 839.1C355.245 839.1 357.045 839.5 358.705 840.3L357.505 844.35C356.265 843.59 354.965 843.21 353.605 843.21C352.465 843.21 351.575 843.55 350.935 844.23C350.315 844.91 350.005 845.9 350.005 847.2C350.005 848.46 350.335 849.45 350.995 850.17C351.655 850.89 352.525 851.25 353.605 851.25C354.965 851.25 356.265 850.87 357.505 850.11ZM368.081 848.7H368.021V855H362.321V832.5H368.021V845.1H368.081L372.221 839.4H378.671L372.671 846.9L378.821 855H372.371L368.081 848.7ZM393.254 844.11C391.434 843.45 389.734 843.12 388.154 843.12C387.294 843.12 386.704 843.2 386.384 843.36C386.064 843.5 385.904 843.73 385.904 844.05C385.904 844.35 386.034 844.58 386.294 844.74C386.554 844.9 387.024 845.02 387.704 845.1C390.164 845.4 391.924 845.98 392.984 846.84C394.064 847.7 394.604 848.87 394.604 850.35C394.604 851.87 393.994 853.08 392.774 853.98C391.574 854.86 389.834 855.3 387.554 855.3C384.854 855.3 382.404 854.8 380.204 853.8L381.254 849.78C383.054 850.74 384.954 851.22 386.954 851.22C388.254 851.22 388.904 850.88 388.904 850.2C388.904 849.94 388.804 849.76 388.604 849.66C388.404 849.56 387.904 849.44 387.104 849.3C384.684 848.92 382.954 848.3 381.914 847.44C380.874 846.56 380.354 845.38 380.354 843.9C380.354 842.4 380.954 841.23 382.154 840.39C383.354 839.53 385.154 839.1 387.554 839.1C389.934 839.1 392.184 839.45 394.304 840.15L393.254 844.11ZM419.797 844.11C417.977 843.45 416.277 843.12 414.697 843.12C413.837 843.12 413.247 843.2 412.927 843.36C412.607 843.5 412.447 843.73 412.447 844.05C412.447 844.35 412.577 844.58 412.837 844.74C413.097 844.9 413.567 845.02 414.247 845.1C416.707 845.4 418.467 845.98 419.527 846.84C420.607 847.7 421.147 848.87 421.147 850.35C421.147 851.87 420.537 853.08 419.317 853.98C418.117 854.86 416.377 855.3 414.097 855.3C411.397 855.3 408.947 854.8 406.747 853.8L407.797 849.78C409.597 850.74 411.497 851.22 413.497 851.22C414.797 851.22 415.447 850.88 415.447 850.2C415.447 849.94 415.347 849.76 415.147 849.66C414.947 849.56 414.447 849.44 413.647 849.3C411.227 848.92 409.497 848.3 408.457 847.44C407.417 846.56 406.897 845.38 406.897 843.9C406.897 842.4 407.497 841.23 408.697 840.39C409.897 839.53 411.697 839.1 414.097 839.1C416.477 839.1 418.727 839.45 420.847 840.15L419.797 844.11ZM432.003 855.3C430.023 855.3 428.553 854.85 427.593 853.95C426.633 853.03 426.153 851.58 426.153 849.6V843.9H423.003V840H426.153V834.3H431.973V840H436.803V843.9H431.973V848.7C431.973 849.66 432.083 850.3 432.303 850.62C432.523 850.94 432.923 851.1 433.503 851.1C434.383 851.1 435.283 850.95 436.203 850.65L436.803 854.7C435.323 855.1 433.723 855.3 432.003 855.3ZM444.807 845.7H449.877C449.877 843.8 449.027 842.85 447.327 842.85C445.787 842.85 444.947 843.8 444.807 845.7ZM444.867 849C445.207 850.6 446.347 851.4 448.287 851.4C449.787 851.4 451.217 851.05 452.577 850.35L453.777 854.1C451.937 854.9 449.937 855.3 447.777 855.3C445.197 855.3 443.127 854.57 441.567 853.11C440.007 851.65 439.227 849.68 439.227 847.2C439.227 844.7 439.937 842.73 441.357 841.29C442.797 839.83 444.737 839.1 447.177 839.1C449.677 839.1 451.627 839.81 453.027 841.23C454.427 842.63 455.127 844.62 455.127 847.2C455.127 847.74 455.077 848.34 454.977 849H444.867ZM465.801 844.8H466.701C466.701 844.12 466.571 843.65 466.311 843.39C466.051 843.13 465.581 843 464.901 843C462.801 843 460.751 843.45 458.751 844.35L458.001 840.45C460.201 839.55 462.601 839.1 465.201 839.1C467.801 839.1 469.651 839.59 470.751 840.57C471.851 841.53 472.401 843.14 472.401 845.4V850.8C472.401 852.24 472.551 853.64 472.851 855H467.451C467.331 854.32 467.231 853.62 467.151 852.9H467.091C466.551 853.62 465.851 854.2 464.991 854.64C464.131 855.08 463.251 855.3 462.351 855.3C460.811 855.3 459.571 854.88 458.631 854.04C457.711 853.18 457.251 852 457.251 850.5C457.251 848.78 457.981 847.4 459.441 846.36C460.921 845.32 463.041 844.8 465.801 844.8ZM462.351 849.9C462.351 850.8 462.851 851.25 463.851 851.25C464.711 851.25 465.401 851.01 465.921 850.53C466.441 850.05 466.701 849.39 466.701 848.55V848.1H465.801C464.661 848.1 463.801 848.27 463.221 848.61C462.641 848.93 462.351 849.36 462.351 849.9ZM476.941 855V832.5H482.941V855H476.941ZM487.342 836.7V832.5H493.342V836.7H487.342ZM487.342 855V839.4H493.342V855H487.342ZM503.158 841.5C503.718 840.76 504.408 840.18 505.228 839.76C506.068 839.32 506.918 839.1 507.778 839.1C509.758 839.1 511.178 839.66 512.038 840.78C512.898 841.88 513.328 843.82 513.328 846.6V855H507.688V847.2C507.688 845.7 507.548 844.7 507.268 844.2C507.008 843.7 506.528 843.45 505.828 843.45C505.208 843.45 504.648 843.79 504.148 844.47C503.668 845.15 503.428 845.96 503.428 846.9V855H497.728V839.4H502.978L503.098 841.5H503.158ZM526.697 852.6H526.667C525.507 854 524.017 854.7 522.197 854.7C520.417 854.7 518.947 854.01 517.787 852.63C516.627 851.23 516.047 849.32 516.047 846.9C516.047 844.44 516.607 842.53 517.727 841.17C518.847 839.79 520.337 839.1 522.197 839.1C523.977 839.1 525.517 839.9 526.817 841.5H526.877L526.997 839.4H532.247V853.2C532.247 856.06 531.457 858.22 529.877 859.68C528.297 861.16 525.987 861.9 522.947 861.9C521.027 861.9 519.227 861.6 517.547 861L518.447 856.98C519.847 857.56 521.247 857.85 522.647 857.85C524.107 857.85 525.147 857.5 525.767 856.8C526.387 856.12 526.697 854.92 526.697 853.2V852.6ZM521.447 846.9C521.447 848.04 521.677 848.93 522.137 849.57C522.617 850.19 523.237 850.5 523.997 850.5C524.777 850.5 525.397 850.21 525.857 849.63C526.317 849.03 526.547 848.17 526.547 847.05V846.75C526.547 845.65 526.317 844.8 525.857 844.2C525.397 843.6 524.777 843.3 523.997 843.3C523.197 843.3 522.567 843.61 522.107 844.23C521.667 844.83 521.447 845.72 521.447 846.9Z" fill="white"/>
<defs>
<filter id="filter0_d_607_9" x="-295.9" y="6.1" width="1021.34" height="1031.3" filterUnits="userSpaceOnUse" color-interpolation-filters="sRGB">
<feFlood flood-opacity="0" result="BackgroundImageFix"/>
<feColorMatrix in="SourceAlpha" type="matrix" values="0 0 0 0 0 0 0 0 0 0 0 0 0 0 0 0 0 0 127 0" result="hardAlpha"/>
<feOffset/>
<feGaussianBlur stdDeviation="34.95"/>
<feComposite in2="hardAlpha" operator="out"/>
<feColorMatrix type="matrix" values="0 0 0 0 0 0 0 0 0 0 0 0 0 0 0 0 0 0 0.15 0"/>
<feBlend mode="normal" in2="BackgroundImageFix" result="effect1_dropShadow_607_9"/>
<feBlend mode="normal" in="SourceGraphic" in2="effect1_dropShadow_607_9" result="shape"/>
</filter>
<linearGradient id="paint0_linear_607_9" x1="214.768" y1="73.5" x2="214.768" y2="967.5" gradientUnits="userSpaceOnUse">
<stop stop-color="#E2C946" stop-opacity="0.93"/>
<stop offset="1" stop-color="#A8944E" stop-opacity="0.57"/>
</linearGradient>
</defs>
</svg>
