<svg width="641" height="900" viewBox="0 0 641 900" fill="none" xmlns="http://www.w3.org/2000/svg">
<rect x="1.01953" width="639.02" height="900" fill="#3230A3"/>
<mask id="mask0_672_8" style="mask-type:alpha" maskUnits="userSpaceOnUse" x="1" y="0" width="640" height="900">
<rect x="1.01953" width="639.02" height="900" fill="white"/>
</mask>
<g mask="url(#mask0_672_8)">
<path d="M39.2617 32.4918L93.9127 50.4628C82.3245 98.5349 67.3975 142.053 32.6903 166.68L-14.7085 130.749C13.8496 110.06 29.7456 75.4323 39.2617 32.4918ZM268.36 55.8068L327.141 85.2927C303.149 120.598 276.689 157.555 255.449 181.305L209.655 155.476C230.001 129.34 254.176 88.7044 268.36 55.8068ZM171.678 -23.5137L201.911 -20.3361L189.623 95.6749C182.698 161.049 215.227 243.561 321.136 297.105C307.006 307.847 287.1 329.827 277.105 344.824C200.629 302.016 157.353 227.162 149.302 187.725C133.384 226.171 80.4908 289.007 -2.55458 315.431C-8.41411 302.206 -25.5441 276.333 -36.4767 264.104C74.7972 234.533 122.729 153.6 129.494 89.7372L141.822 -26.6517L171.678 -23.5137ZM488.722 85.8455L723.787 110.552L717.903 166.101L482.838 141.395L488.722 85.8455ZM636.259 24.1695L693.325 30.1673L662.504 321.14C659.021 354.016 650.36 367.243 629.072 373.411C607.783 379.58 577.052 377.496 534.765 372.669C533.761 356.898 526.537 331.303 519.744 316.069C547.549 320.52 581.562 324.095 591.05 324.71C600.498 325.703 604.597 323.077 605.478 314.764L636.259 24.1695ZM491.542 185.486L542.695 167.937C555.388 196.017 574.598 234.717 582.778 258.503L527.446 279.434C521.195 255.469 504.034 215.456 491.542 185.486ZM410.172 113.124L471.192 63.752L471.867 64.5872L440.406 361.606L384.474 355.727L410.172 113.124ZM457.744 3.11423L510.323 26.2168C478.038 89.3076 428.902 156.359 381.176 195.665C376.948 181.466 363.98 148.771 355.595 134.134C393.886 104.535 432.786 54.7483 457.744 3.11423ZM223.686 546.103C221.174 555.391 219.755 565.176 218.456 573.828C215.659 593.021 208.031 668.638 205.59 691.689C196.023 782.003 180.038 831.906 102.354 872.649L53.8484 825.521C70.8594 820.049 93.0859 808.629 105.824 796.595C131.004 771.731 142.738 743.925 148.942 685.353C152.184 654.744 158.451 591.975 159.123 567.592C159.368 558.065 158.421 545.357 157.55 539.152L223.686 546.103ZM60.7962 601.198C80.1678 605.909 95.5424 608.671 115.572 610.776C165.457 616.019 230.482 619.033 267.74 617.217L261.078 676.506C225.611 675.835 164.068 672.423 111.16 666.862C95.665 665.234 74.6216 661.876 54.672 659.015L60.7962 601.198ZM36.6517 533.322C31.7517 543.506 25.5756 558.523 22.8054 566.638C11.1865 600.569 -10.6242 676.606 -7.10862 715.566C-1.23501 707.014 6.87076 691.818 13.7003 681.455L39.745 702.533C23.471 737.121 10.3982 773.956 3.04359 796.491C0.891487 802.378 -1.20294 811.328 -1.64324 815.485C-2.08355 819.642 -2.46615 826.861 -2.72868 832.947L-54.6459 832.458C-60.9364 808.871 -69.1153 752.608 -64.1919 706.128C-57.5874 643.777 -44.9985 586.258 -36.8433 556.165C-33.7529 545.027 -31.8539 530.707 -30.3152 519.788L36.6517 533.322ZM497.263 567.979L590.987 577.83L585.944 625.444L492.22 615.593L497.263 567.979ZM433.457 712.2L598.607 729.558L593.363 779.061L428.213 761.703L433.457 712.2ZM559.242 574.493L614.418 580.293L606.132 658.515C605.452 664.939 605.132 667.962 605.727 669.553C606.363 670.766 607.795 671.681 609.306 671.84C610.818 671.999 613.086 672.237 614.975 672.436C616.109 672.555 617.661 672.336 618.874 671.699C620.088 671.063 621.462 668.914 622.818 663.326C624.135 658.115 625.793 646.062 627.732 631.364C635.922 640.631 653.479 651.647 666.226 657.571C663.331 674.079 659.48 692.397 655.198 700.353C650.916 708.309 645.403 713.461 637.026 716.784C630.242 719.509 619.46 720.287 611.901 719.492C603.965 718.658 594.895 717.705 588.092 716.99C576.755 715.798 564.306 710.669 557.588 701.939C550.492 693.169 547.754 682.947 550.636 655.739L559.242 574.493ZM579.333 727.532L589.915 728.644L599.941 727.787L635.296 747.551C594.295 846.025 519.034 892.754 421.472 911.921C416.529 897.264 405.543 874.712 396.5 862.681C480.252 851.233 549.026 808.025 578.413 736.223L579.333 727.532ZM495.385 766.088C517.071 821.096 568.405 863.173 645.451 886.172C632.116 896.615 614.22 917.66 605.101 931.603C522.311 901.504 473.112 850.1 444.694 775.662L495.385 766.088ZM471.943 565.318L524.851 570.879L520.849 608.667C516.966 645.322 505.28 690.71 467.509 715.397C458.982 705.712 436.437 687.677 424.606 680.32C458.913 659.472 465.378 627.291 468.06 601.973L471.943 565.318ZM394.921 628.674L441.551 653.826C408.323 696.949 357.987 742.859 315.024 769.675C311.392 757.066 299.695 726.798 292.324 713.414C327.982 694.236 369.239 661.892 394.921 628.674ZM392.349 544.725L442.26 571.368C411.586 604.825 367.483 638.781 328.344 658.357C323.996 645.291 313.548 621.268 306.475 608.679C337.416 594.355 373.915 567.242 392.349 544.725ZM347.122 719.173L403.127 673.859L405.652 675.271L381.195 906.159L327.909 900.559L347.122 719.173Z" fill="#111111"/>
<g filter="url(#filter0_d_672_8)">
<path d="M-440 1118L596.341 1099.48L697 956.5L644.5 605L571 537.5L476.5 517.5L433 491L429 456.5L441 413L408.5 422.5L421.5 397L437 362L487.5 327L408.5 232L352.5 107.5L214.5 88.5L133.5 159.5L106.5 264L133.5 387.5V422.5L106.5 409L114 461.5L106.5 499.5L59 555.5L-35 620.5L-114.725 902.271L-146.496 1073.95L-440 1118Z" fill="url(#paint0_linear_672_8)" shape-rendering="crispEdges"/>
</g>
</g>
<path d="M70.4291 705V646.6H88.0291V705H70.4291ZM133.528 678.6H133.688V646.6H149.288V705H133.688L116.248 673H116.088V705H100.488V646.6H116.088L133.528 678.6ZM199.757 662.2C194.371 659.533 188.904 658.2 183.357 658.2C180.851 658.2 178.957 658.653 177.677 659.56C176.397 660.413 175.757 661.56 175.757 663C175.757 665.24 177.491 666.84 180.957 667.8C189.331 670.04 195.224 672.733 198.637 675.88C202.051 678.973 203.757 682.947 203.757 687.8C203.757 693.667 201.731 698.147 197.677 701.24C193.624 704.28 187.517 705.8 179.357 705.8C175.944 705.8 172.264 705.24 168.317 704.12C164.424 702.947 161.304 701.507 158.957 699.8L162.557 687.4C165.277 689.267 168.211 690.733 171.357 691.8C174.557 692.867 177.491 693.4 180.157 693.4C184.957 693.4 187.357 691.667 187.357 688.2C187.357 685.96 185.224 684.227 180.957 683C173.171 680.76 167.624 678.067 164.317 674.92C161.011 671.773 159.357 667.8 159.357 663C159.357 657.72 161.357 653.533 165.357 650.44C169.411 647.347 175.144 645.8 182.557 645.8C190.451 645.8 197.117 647.133 202.557 649.8L199.757 662.2ZM257.895 646.6V659.8H242.055V705H225.735V659.8H209.895V646.6H257.895ZM268.398 705V646.6H285.998V705H268.398ZM322.057 669H349.257V701.8C342.271 704.467 334.804 705.8 326.857 705.8C317.097 705.8 309.311 703.08 303.497 697.64C297.737 692.2 294.857 684.92 294.857 675.8C294.857 666.467 297.657 659.133 303.257 653.8C308.911 648.467 316.777 645.8 326.857 645.8C334.751 645.8 341.417 647.667 346.857 651.4L342.457 662.84C337.711 659.907 333.044 658.44 328.457 658.44C322.964 658.44 318.697 659.96 315.657 663C312.617 666.04 311.097 670.307 311.097 675.8C311.097 681.24 312.671 685.507 315.817 688.6C318.964 691.64 323.177 693.16 328.457 693.16C330.537 693.16 332.404 692.893 334.057 692.36V681H322.057V669ZM378.336 681.8H388.896L383.696 660.2H383.536L378.336 681.8ZM375.456 693.8L372.816 705H356.176L375.376 646.6H392.176L411.376 705H394.416L391.696 693.8H375.456ZM456.254 646.6V659.8H440.414V705H424.094V659.8H408.254V646.6H456.254ZM467.234 653.88C472.674 648.493 479.981 645.8 489.154 645.8C498.327 645.8 505.607 648.493 510.994 653.88C516.434 659.213 519.154 666.52 519.154 675.8C519.154 685.08 516.434 692.413 510.994 697.8C505.607 703.133 498.327 705.8 489.154 705.8C479.981 705.8 472.674 703.133 467.234 697.8C461.847 692.413 459.154 685.08 459.154 675.8C459.154 666.52 461.847 659.213 467.234 653.88ZM475.554 675.8C475.554 687 480.087 692.6 489.154 692.6C498.221 692.6 502.754 687 502.754 675.8C502.754 664.6 498.221 659 489.154 659C480.087 659 475.554 664.6 475.554 675.8ZM542.807 684.6V705H527.207V647C534.141 646.2 541.074 645.8 548.007 645.8C564.007 645.8 572.007 651.8 572.007 663.8C572.007 667.16 570.967 670.28 568.887 673.16C566.807 676.04 564.114 678.093 560.807 679.32V679.48C562.407 680.387 563.741 681.56 564.807 683C565.874 684.387 566.887 686.387 567.847 689L573.607 705H557.207L552.247 689.8C551.661 687.933 550.914 686.6 550.007 685.8C549.101 685 547.901 684.6 546.407 684.6H542.807ZM542.807 673H547.207C549.927 673 552.061 672.333 553.607 671C555.207 669.613 556.007 667.747 556.007 665.4C556.007 660.333 553.074 657.8 547.207 657.8C545.501 657.8 544.034 657.933 542.807 658.2V673Z" fill="white"/>
<path d="M62.1405 731.29V735.745H56.7945V751H51.2865V735.745H45.9405V731.29H62.1405ZM70.0032 741.82H70.8132C70.8132 741.208 70.6962 740.785 70.4622 740.551C70.2282 740.317 69.8052 740.2 69.1932 740.2C67.3032 740.2 65.4582 740.605 63.6582 741.415L62.9832 737.905C64.9632 737.095 67.1232 736.69 69.4632 736.69C71.8032 736.69 73.4682 737.131 74.4582 738.013C75.4482 738.877 75.9432 740.326 75.9432 742.36V747.22C75.9432 748.516 76.0782 749.776 76.3482 751H71.4882C71.3802 750.388 71.2902 749.758 71.2182 749.11H71.1642C70.6782 749.758 70.0482 750.28 69.2742 750.676C68.5002 751.072 67.7082 751.27 66.8982 751.27C65.5122 751.27 64.3962 750.892 63.5502 750.136C62.7222 749.362 62.3082 748.3 62.3082 746.95C62.3082 745.402 62.9652 744.16 64.2792 743.224C65.6112 742.288 67.5192 741.82 70.0032 741.82ZM66.8982 746.41C66.8982 747.22 67.3482 747.625 68.2482 747.625C69.0222 747.625 69.6432 747.409 70.1112 746.977C70.5792 746.545 70.8132 745.951 70.8132 745.195V744.79H70.0032C68.9772 744.79 68.2032 744.943 67.6812 745.249C67.1592 745.537 66.8982 745.924 66.8982 746.41ZM84.8081 745.33H84.7541V751H79.6241V730.75H84.7541V742.09H84.8081L88.5341 736.96H94.3391L88.9391 743.71L94.4741 751H88.6691L84.8081 745.33ZM100.072 742.63H104.635C104.635 740.92 103.87 740.065 102.34 740.065C100.954 740.065 100.198 740.92 100.072 742.63ZM100.126 745.6C100.432 747.04 101.458 747.76 103.204 747.76C104.554 747.76 105.841 747.445 107.065 746.815L108.145 750.19C106.489 750.91 104.689 751.27 102.745 751.27C100.423 751.27 98.5599 750.613 97.1559 749.299C95.7519 747.985 95.0499 746.212 95.0499 743.98C95.0499 741.73 95.6889 739.957 96.9669 738.661C98.2629 737.347 100.009 736.69 102.205 736.69C104.455 736.69 106.21 737.329 107.47 738.607C108.73 739.867 109.36 741.658 109.36 743.98C109.36 744.466 109.315 745.006 109.225 745.6H100.126ZM126.132 737.5H126.105L122.082 741.28L120.462 736.69L126.132 731.29H131.802V751H126.132V737.5ZM157.898 746.599L158.978 750.19C157.43 750.91 155.81 751.27 154.118 751.27C151.634 751.27 149.663 750.613 148.205 749.299C146.747 747.985 146.018 746.212 146.018 743.98C146.018 741.73 146.729 739.957 148.151 738.661C149.591 737.347 151.58 736.69 154.118 736.69C155.864 736.69 157.484 737.05 158.978 737.77L157.898 741.415C156.782 740.731 155.612 740.389 154.388 740.389C153.362 740.389 152.561 740.695 151.985 741.307C151.427 741.919 151.148 742.81 151.148 743.98C151.148 745.114 151.445 746.005 152.039 746.653C152.633 747.301 153.416 747.625 154.388 747.625C155.612 747.625 156.782 747.283 157.898 746.599ZM169.117 741.82H169.927C169.927 741.208 169.81 740.785 169.576 740.551C169.342 740.317 168.919 740.2 168.307 740.2C166.417 740.2 164.572 740.605 162.772 741.415L162.097 737.905C164.077 737.095 166.237 736.69 168.577 736.69C170.917 736.69 172.582 737.131 173.572 738.013C174.562 738.877 175.057 740.326 175.057 742.36V747.22C175.057 748.516 175.192 749.776 175.462 751H170.602C170.494 750.388 170.404 749.758 170.332 749.11H170.278C169.792 749.758 169.162 750.28 168.388 750.676C167.614 751.072 166.822 751.27 166.012 751.27C164.626 751.27 163.51 750.892 162.664 750.136C161.836 749.362 161.422 748.3 161.422 746.95C161.422 745.402 162.079 744.16 163.393 743.224C164.725 742.288 166.633 741.82 169.117 741.82ZM166.012 746.41C166.012 747.22 166.462 747.625 167.362 747.625C168.136 747.625 168.757 747.409 169.225 746.977C169.693 746.545 169.927 745.951 169.927 745.195V744.79H169.117C168.091 744.79 167.317 744.943 166.795 745.249C166.273 745.537 166.012 745.924 166.012 746.41ZM189.943 736.69V740.74C187.927 740.74 186.406 741.118 185.38 741.874C184.354 742.63 183.841 743.692 183.841 745.06V751H178.603V736.96H183.436L183.463 739.66H183.517C185.065 737.68 187.207 736.69 189.943 736.69ZM191.478 743.98C191.478 741.658 191.973 739.867 192.963 738.607C193.971 737.329 195.321 736.69 197.013 736.69C198.543 736.69 199.83 737.32 200.874 738.58H200.928V730.75H206.058V751H201.333L201.225 749.11H201.171C200.037 750.55 198.651 751.27 197.013 751.27C195.393 751.27 194.061 750.622 193.017 749.326C191.991 748.03 191.478 746.248 191.478 743.98ZM196.338 743.98C196.338 745.06 196.554 745.897 196.986 746.491C197.418 747.067 197.967 747.355 198.633 747.355C199.335 747.355 199.893 747.076 200.307 746.518C200.721 745.96 200.928 745.159 200.928 744.115V743.845C200.928 742.819 200.721 742.027 200.307 741.469C199.893 740.893 199.335 740.605 198.633 740.605C197.913 740.605 197.346 740.893 196.932 741.469C196.536 742.027 196.338 742.864 196.338 743.98ZM226.685 731.02C227.837 731.02 229.052 731.155 230.33 731.425L229.655 735.205C229.007 734.935 228.332 734.8 227.63 734.8C227 734.8 226.568 734.953 226.334 735.259C226.1 735.547 225.983 736.114 225.983 736.96V737.5H230.06V741.01H225.983V751H220.745V741.01H217.64V737.5H220.745V736.96C220.745 735.034 221.258 733.567 222.284 732.559C223.31 731.533 224.777 731.02 226.685 731.02ZM244.128 736.69V740.74C242.112 740.74 240.591 741.118 239.565 741.874C238.539 742.63 238.026 743.692 238.026 745.06V751H232.788V736.96H237.621L237.648 739.66H237.702C239.25 737.68 241.392 736.69 244.128 736.69ZM247.471 738.634C248.767 737.338 250.594 736.69 252.952 736.69C255.31 736.69 257.137 737.338 258.433 738.634C259.729 739.93 260.377 741.712 260.377 743.98C260.377 746.248 259.729 748.03 258.433 749.326C257.137 750.622 255.31 751.27 252.952 751.27C250.594 751.27 248.767 750.622 247.471 749.326C246.175 748.03 245.527 746.248 245.527 743.98C245.527 741.712 246.175 739.93 247.471 738.634ZM251.143 746.761C251.539 747.319 252.142 747.598 252.952 747.598C253.762 747.598 254.365 747.319 254.761 746.761C255.157 746.203 255.355 745.276 255.355 743.98C255.355 742.684 255.157 741.757 254.761 741.199C254.365 740.641 253.762 740.362 252.952 740.362C252.142 740.362 251.539 740.641 251.143 741.199C250.747 741.757 250.549 742.684 250.549 743.98C250.549 745.276 250.747 746.203 251.143 746.761ZM278.723 751V743.17C278.723 742.09 278.624 741.379 278.426 741.037C278.228 740.695 277.868 740.524 277.346 740.524C276.878 740.524 276.491 740.758 276.185 741.226C275.879 741.676 275.726 742.324 275.726 743.17V751H270.812V743.17C270.812 742.09 270.713 741.379 270.515 741.037C270.335 740.695 269.984 740.524 269.462 740.524C268.994 740.524 268.607 740.758 268.301 741.226C267.995 741.676 267.842 742.324 267.842 743.17V751H262.847V736.96H267.437L267.545 738.85H267.599C268.103 738.184 268.688 737.662 269.354 737.284C270.02 736.888 270.686 736.69 271.352 736.69C272.216 736.69 272.9 736.843 273.404 737.149C273.926 737.437 274.403 737.959 274.835 738.715H274.889C275.663 737.959 276.374 737.437 277.022 737.149C277.67 736.843 278.408 736.69 279.236 736.69C280.784 736.69 281.9 737.113 282.584 737.959C283.286 738.805 283.637 740.272 283.637 742.36V751H278.723ZM302.914 751.27C301.132 751.27 299.809 750.865 298.945 750.055C298.081 749.227 297.649 747.922 297.649 746.14V741.01H294.814V737.5H297.649V732.37H302.887V737.5H307.234V741.01H302.887V745.33C302.887 746.194 302.986 746.77 303.184 747.058C303.382 747.346 303.742 747.49 304.264 747.49C305.056 747.49 305.866 747.355 306.694 747.085L307.234 750.73C305.902 751.09 304.462 751.27 302.914 751.27ZM324.799 743.44V751H319.723V743.98C319.723 742.63 319.597 741.73 319.345 741.28C319.111 740.83 318.679 740.605 318.049 740.605C317.491 740.605 316.987 740.911 316.537 741.523C316.105 742.135 315.889 742.864 315.889 743.71V751H310.759V730.75H315.889V738.58H315.943C316.393 738.004 316.969 737.545 317.671 737.203C318.373 736.861 319.084 736.69 319.804 736.69C321.586 736.69 322.864 737.194 323.638 738.202C324.412 739.192 324.799 740.938 324.799 743.44ZM332.156 742.63H336.719C336.719 740.92 335.954 740.065 334.424 740.065C333.038 740.065 332.282 740.92 332.156 742.63ZM332.21 745.6C332.516 747.04 333.542 747.76 335.288 747.76C336.638 747.76 337.925 747.445 339.149 746.815L340.229 750.19C338.573 750.91 336.773 751.27 334.829 751.27C332.507 751.27 330.644 750.613 329.24 749.299C327.836 747.985 327.134 746.212 327.134 743.98C327.134 741.73 327.773 739.957 329.051 738.661C330.347 737.347 332.093 736.69 334.289 736.69C336.539 736.69 338.294 737.329 339.554 738.607C340.814 739.867 341.444 741.658 341.444 743.98C341.444 744.466 341.399 745.006 341.309 745.6H332.21ZM363.562 746.599L364.642 750.19C363.094 750.91 361.474 751.27 359.782 751.27C357.298 751.27 355.327 750.613 353.869 749.299C352.411 747.985 351.682 746.212 351.682 743.98C351.682 741.73 352.393 739.957 353.815 738.661C355.255 737.347 357.244 736.69 359.782 736.69C361.528 736.69 363.148 737.05 364.642 737.77L363.562 741.415C362.446 740.731 361.276 740.389 360.052 740.389C359.026 740.389 358.225 740.695 357.649 741.307C357.091 741.919 356.812 742.81 356.812 743.98C356.812 745.114 357.109 746.005 357.703 746.653C358.297 747.301 359.08 747.625 360.052 747.625C361.276 747.625 362.446 747.283 363.562 746.599ZM368.761 738.634C370.057 737.338 371.884 736.69 374.242 736.69C376.6 736.69 378.427 737.338 379.723 738.634C381.019 739.93 381.667 741.712 381.667 743.98C381.667 746.248 381.019 748.03 379.723 749.326C378.427 750.622 376.6 751.27 374.242 751.27C371.884 751.27 370.057 750.622 368.761 749.326C367.465 748.03 366.817 746.248 366.817 743.98C366.817 741.712 367.465 739.93 368.761 738.634ZM372.433 746.761C372.829 747.319 373.432 747.598 374.242 747.598C375.052 747.598 375.655 747.319 376.051 746.761C376.447 746.203 376.645 745.276 376.645 743.98C376.645 742.684 376.447 741.757 376.051 741.199C375.655 740.641 375.052 740.362 374.242 740.362C373.432 740.362 372.829 740.641 372.433 741.199C372.037 741.757 371.839 742.684 371.839 743.98C371.839 745.276 372.037 746.203 372.433 746.761ZM392.884 749.11C392.38 749.776 391.75 750.307 390.994 750.703C390.256 751.081 389.5 751.27 388.726 751.27C387.034 751.27 385.819 750.829 385.081 749.947C384.361 749.065 384.001 747.526 384.001 745.33V736.96H389.077V744.79C389.077 745.834 389.176 746.527 389.374 746.869C389.572 747.193 389.941 747.355 390.481 747.355C391.039 747.355 391.534 747.049 391.966 746.437C392.416 745.825 392.641 745.096 392.641 744.25V736.96H397.771V751H393.046L392.938 749.11H392.884ZM412.509 736.69V740.74C410.493 740.74 408.972 741.118 407.946 741.874C406.92 742.63 406.407 743.692 406.407 745.06V751H401.169V736.96H406.002L406.029 739.66H406.083C407.631 737.68 409.773 736.69 412.509 736.69ZM422.806 751.27C421.024 751.27 419.701 750.865 418.837 750.055C417.973 749.227 417.541 747.922 417.541 746.14V741.01H414.706V737.5H417.541V732.37H422.779V737.5H427.126V741.01H422.779V745.33C422.779 746.194 422.878 746.77 423.076 747.058C423.274 747.346 423.634 747.49 424.156 747.49C424.948 747.49 425.758 747.355 426.586 747.085L427.126 750.73C425.794 751.09 424.354 751.27 422.806 751.27ZM438.301 743.98C438.301 741.658 438.796 739.867 439.786 738.607C440.794 737.329 442.144 736.69 443.836 736.69C445.366 736.69 446.653 737.32 447.697 738.58H447.751V730.75H452.881V751H448.156L448.048 749.11H447.994C446.86 750.55 445.474 751.27 443.836 751.27C442.216 751.27 440.884 750.622 439.84 749.326C438.814 748.03 438.301 746.248 438.301 743.98ZM443.161 743.98C443.161 745.06 443.377 745.897 443.809 746.491C444.241 747.067 444.79 747.355 445.456 747.355C446.158 747.355 446.716 747.076 447.13 746.518C447.544 745.96 447.751 745.159 447.751 744.115V743.845C447.751 742.819 447.544 742.027 447.13 741.469C446.716 740.893 446.158 740.605 445.456 740.605C444.736 740.605 444.169 740.893 443.755 741.469C443.359 742.027 443.161 742.864 443.161 743.98ZM460.485 742.63H465.048C465.048 740.92 464.283 740.065 462.753 740.065C461.367 740.065 460.611 740.92 460.485 742.63ZM460.539 745.6C460.845 747.04 461.871 747.76 463.617 747.76C464.967 747.76 466.254 747.445 467.478 746.815L468.558 750.19C466.902 750.91 465.102 751.27 463.158 751.27C460.836 751.27 458.973 750.613 457.569 749.299C456.165 747.985 455.463 746.212 455.463 743.98C455.463 741.73 456.102 739.957 457.38 738.661C458.676 737.347 460.422 736.69 462.618 736.69C464.868 736.69 466.623 737.329 467.883 738.607C469.143 739.867 469.773 741.658 469.773 743.98C469.773 744.466 469.728 745.006 469.638 745.6H460.539ZM483.559 746.599L484.639 750.19C483.091 750.91 481.471 751.27 479.779 751.27C477.295 751.27 475.324 750.613 473.866 749.299C472.408 747.985 471.679 746.212 471.679 743.98C471.679 741.73 472.39 739.957 473.812 738.661C475.252 737.347 477.241 736.69 479.779 736.69C481.525 736.69 483.145 737.05 484.639 737.77L483.559 741.415C482.443 740.731 481.273 740.389 480.049 740.389C479.023 740.389 478.222 740.695 477.646 741.307C477.088 741.919 476.809 742.81 476.809 743.98C476.809 745.114 477.106 746.005 477.7 746.653C478.294 747.301 479.077 747.625 480.049 747.625C481.273 747.625 482.443 747.283 483.559 746.599ZM493.078 745.33H493.024V751H487.894V730.75H493.024V742.09H493.078L496.804 736.96H502.609L497.209 743.71L502.744 751H496.939L493.078 745.33ZM520.961 741.82H521.771C521.771 741.208 521.654 740.785 521.42 740.551C521.186 740.317 520.763 740.2 520.151 740.2C518.261 740.2 516.416 740.605 514.616 741.415L513.941 737.905C515.921 737.095 518.081 736.69 520.421 736.69C522.761 736.69 524.426 737.131 525.416 738.013C526.406 738.877 526.901 740.326 526.901 742.36V747.22C526.901 748.516 527.036 749.776 527.306 751H522.446C522.338 750.388 522.248 749.758 522.176 749.11H522.122C521.636 749.758 521.006 750.28 520.232 750.676C519.458 751.072 518.666 751.27 517.856 751.27C516.47 751.27 515.354 750.892 514.508 750.136C513.68 749.362 513.266 748.3 513.266 746.95C513.266 745.402 513.923 744.16 515.237 743.224C516.569 742.288 518.477 741.82 520.961 741.82ZM517.856 746.41C517.856 747.22 518.306 747.625 519.206 747.625C519.98 747.625 520.601 747.409 521.069 746.977C521.537 746.545 521.771 745.951 521.771 745.195V744.79H520.961C519.935 744.79 519.161 744.943 518.639 745.249C518.117 745.537 517.856 745.924 517.856 746.41ZM535.334 738.85C535.838 738.184 536.459 737.662 537.197 737.284C537.953 736.888 538.718 736.69 539.492 736.69C541.274 736.69 542.552 737.194 543.326 738.202C544.1 739.192 544.487 740.938 544.487 743.44V751H539.411V743.98C539.411 742.63 539.285 741.73 539.033 741.28C538.799 740.83 538.367 740.605 537.737 740.605C537.179 740.605 536.675 740.911 536.225 741.523C535.793 742.135 535.577 742.864 535.577 743.71V751H530.447V736.96H535.172L535.28 738.85H535.334ZM546.934 743.98C546.934 741.658 547.429 739.867 548.419 738.607C549.427 737.329 550.777 736.69 552.469 736.69C553.999 736.69 555.286 737.32 556.33 738.58H556.384V730.75H561.514V751H556.789L556.681 749.11H556.627C555.493 750.55 554.107 751.27 552.469 751.27C550.849 751.27 549.517 750.622 548.473 749.326C547.447 748.03 546.934 746.248 546.934 743.98ZM551.794 743.98C551.794 745.06 552.01 745.897 552.442 746.491C552.874 747.067 553.423 747.355 554.089 747.355C554.791 747.355 555.349 747.076 555.763 746.518C556.177 745.96 556.384 745.159 556.384 744.115V743.845C556.384 742.819 556.177 742.027 555.763 741.469C555.349 740.893 554.791 740.605 554.089 740.605C553.369 740.605 552.802 740.893 552.388 741.469C551.992 742.027 551.794 742.864 551.794 743.98ZM579.226 737.5H579.199L575.176 741.28L573.556 736.69L579.226 731.29H584.896V751H579.226V737.5ZM50.2495 770.02C51.4015 770.02 52.6165 770.155 53.8945 770.425L53.2195 774.205C52.5715 773.935 51.8965 773.8 51.1945 773.8C50.5645 773.8 50.1325 773.953 49.8985 774.259C49.6645 774.547 49.5475 775.114 49.5475 775.96V776.5H53.6245V780.01H49.5475V790H44.3095V780.01H41.2045V776.5H44.3095V775.96C44.3095 774.034 44.8225 772.567 45.8485 771.559C46.8745 770.533 48.3415 770.02 50.2495 770.02ZM67.6919 775.69V779.74C65.6759 779.74 64.1549 780.118 63.1289 780.874C62.1029 781.63 61.5899 782.692 61.5899 784.06V790H56.3519V775.96H61.1849L61.2119 778.66H61.2659C62.8139 776.68 64.9559 775.69 67.6919 775.69ZM71.0354 777.634C72.3314 776.338 74.1584 775.69 76.5164 775.69C78.8744 775.69 80.7014 776.338 81.9975 777.634C83.2934 778.93 83.9414 780.712 83.9414 782.98C83.9414 785.248 83.2934 787.03 81.9975 788.326C80.7014 789.622 78.8744 790.27 76.5164 790.27C74.1584 790.27 72.3314 789.622 71.0354 788.326C69.7394 787.03 69.0914 785.248 69.0914 782.98C69.0914 780.712 69.7394 778.93 71.0354 777.634ZM74.7074 785.761C75.1034 786.319 75.7064 786.598 76.5164 786.598C77.3264 786.598 77.9294 786.319 78.3254 785.761C78.7214 785.203 78.9194 784.276 78.9194 782.98C78.9194 781.684 78.7214 780.757 78.3254 780.199C77.9294 779.641 77.3264 779.362 76.5164 779.362C75.7064 779.362 75.1034 779.641 74.7074 780.199C74.3114 780.757 74.1134 781.684 74.1134 782.98C74.1134 784.276 74.3114 785.203 74.7074 785.761ZM102.286 790V782.17C102.286 781.09 102.187 780.379 101.989 780.037C101.791 779.695 101.431 779.524 100.909 779.524C100.441 779.524 100.054 779.758 99.7485 780.226C99.4425 780.676 99.2895 781.324 99.2895 782.17V790H94.3755V782.17C94.3755 781.09 94.2765 780.379 94.0785 780.037C93.8985 779.695 93.5475 779.524 93.0255 779.524C92.5575 779.524 92.1705 779.758 91.8645 780.226C91.5585 780.676 91.4055 781.324 91.4055 782.17V790H86.4105V775.96H91.0005L91.1085 777.85H91.1625C91.6665 777.184 92.2515 776.662 92.9175 776.284C93.5835 775.888 94.2495 775.69 94.9155 775.69C95.7795 775.69 96.4635 775.843 96.9675 776.149C97.4895 776.437 97.9665 776.959 98.3985 777.715H98.4525C99.2265 776.959 99.9375 776.437 100.585 776.149C101.233 775.843 101.971 775.69 102.799 775.69C104.347 775.69 105.463 776.113 106.147 776.959C106.849 777.805 107.2 779.272 107.2 781.36V790H102.286ZM126.073 780.82H126.883C126.883 780.208 126.766 779.785 126.532 779.551C126.298 779.317 125.875 779.2 125.263 779.2C123.373 779.2 121.528 779.605 119.728 780.415L119.053 776.905C121.033 776.095 123.193 775.69 125.533 775.69C127.873 775.69 129.538 776.131 130.528 777.013C131.518 777.877 132.013 779.326 132.013 781.36V786.22C132.013 787.516 132.148 788.776 132.418 790H127.558C127.45 789.388 127.36 788.758 127.288 788.11H127.234C126.748 788.758 126.118 789.28 125.344 789.676C124.57 790.072 123.778 790.27 122.968 790.27C121.582 790.27 120.466 789.892 119.62 789.136C118.792 788.362 118.378 787.3 118.378 785.95C118.378 784.402 119.035 783.16 120.349 782.224C121.681 781.288 123.589 780.82 126.073 780.82ZM122.968 785.41C122.968 786.22 123.418 786.625 124.318 786.625C125.092 786.625 125.713 786.409 126.181 785.977C126.649 785.545 126.883 784.951 126.883 784.195V783.79H126.073C125.047 783.79 124.273 783.943 123.751 784.249C123.229 784.537 122.968 784.924 122.968 785.41ZM140.446 777.85C140.95 777.184 141.571 776.662 142.309 776.284C143.065 775.888 143.83 775.69 144.604 775.69C146.386 775.69 147.664 776.194 148.438 777.202C149.212 778.192 149.599 779.938 149.599 782.44V790H144.523V782.98C144.523 781.63 144.397 780.73 144.145 780.28C143.911 779.83 143.479 779.605 142.849 779.605C142.291 779.605 141.787 779.911 141.337 780.523C140.905 781.135 140.689 781.864 140.689 782.71V790H135.559V775.96H140.284L140.392 777.85H140.446ZM162.45 777.634C163.746 776.338 165.573 775.69 167.931 775.69C170.289 775.69 172.116 776.338 173.412 777.634C174.708 778.93 175.356 780.712 175.356 782.98C175.356 785.248 174.708 787.03 173.412 788.326C172.116 789.622 170.289 790.27 167.931 790.27C165.573 790.27 163.746 789.622 162.45 788.326C161.154 787.03 160.506 785.248 160.506 782.98C160.506 780.712 161.154 778.93 162.45 777.634ZM166.122 785.761C166.518 786.319 167.121 786.598 167.931 786.598C168.741 786.598 169.344 786.319 169.74 785.761C170.136 785.203 170.334 784.276 170.334 782.98C170.334 781.684 170.136 780.757 169.74 780.199C169.344 779.641 168.741 779.362 167.931 779.362C167.121 779.362 166.518 779.641 166.122 780.199C165.726 780.757 165.528 781.684 165.528 782.98C165.528 784.276 165.726 785.203 166.122 785.761ZM182.551 775.96L182.659 777.85H182.713C183.883 776.41 185.269 775.69 186.871 775.69C188.563 775.69 189.904 776.329 190.894 777.607C191.902 778.867 192.406 780.658 192.406 782.98C192.406 785.248 191.884 787.03 190.84 788.326C189.814 789.622 188.491 790.27 186.871 790.27C185.287 790.27 184 789.64 183.01 788.38H182.956V795.94H177.826V775.96H182.551ZM187.546 782.98C187.546 781.864 187.339 781.027 186.925 780.469C186.529 779.893 185.971 779.605 185.251 779.605C184.549 779.605 183.991 779.893 183.577 780.469C183.163 781.027 182.956 781.819 182.956 782.845V783.115C182.956 784.159 183.163 784.96 183.577 785.518C183.991 786.076 184.549 786.355 185.251 786.355C185.917 786.355 186.466 786.067 186.898 785.491C187.33 784.897 187.546 784.06 187.546 782.98ZM199.716 775.96L199.824 777.85H199.878C201.048 776.41 202.434 775.69 204.036 775.69C205.728 775.69 207.069 776.329 208.059 777.607C209.067 778.867 209.571 780.658 209.571 782.98C209.571 785.248 209.049 787.03 208.005 788.326C206.979 789.622 205.656 790.27 204.036 790.27C202.452 790.27 201.165 789.64 200.175 788.38H200.121V795.94H194.991V775.96H199.716ZM204.711 782.98C204.711 781.864 204.504 781.027 204.09 780.469C203.694 779.893 203.136 779.605 202.416 779.605C201.714 779.605 201.156 779.893 200.742 780.469C200.328 781.027 200.121 781.819 200.121 782.845V783.115C200.121 784.159 200.328 784.96 200.742 785.518C201.156 786.076 201.714 786.355 202.416 786.355C203.082 786.355 203.631 786.067 204.063 785.491C204.495 784.897 204.711 784.06 204.711 782.98ZM213.418 777.634C214.714 776.338 216.541 775.69 218.899 775.69C221.257 775.69 223.084 776.338 224.38 777.634C225.676 778.93 226.324 780.712 226.324 782.98C226.324 785.248 225.676 787.03 224.38 788.326C223.084 789.622 221.257 790.27 218.899 790.27C216.541 790.27 214.714 789.622 213.418 788.326C212.122 787.03 211.474 785.248 211.474 782.98C211.474 780.712 212.122 778.93 213.418 777.634ZM217.09 785.761C217.486 786.319 218.089 786.598 218.899 786.598C219.709 786.598 220.312 786.319 220.708 785.761C221.104 785.203 221.302 784.276 221.302 782.98C221.302 781.684 221.104 780.757 220.708 780.199C220.312 779.641 219.709 779.362 218.899 779.362C218.089 779.362 217.486 779.641 217.09 780.199C216.694 780.757 216.496 781.684 216.496 782.98C216.496 784.276 216.694 785.203 217.09 785.761ZM233.68 777.85C234.184 777.184 234.805 776.662 235.543 776.284C236.299 775.888 237.064 775.69 237.838 775.69C239.62 775.69 240.898 776.194 241.672 777.202C242.446 778.192 242.833 779.938 242.833 782.44V790H237.757V782.98C237.757 781.63 237.631 780.73 237.379 780.28C237.145 779.83 236.713 779.605 236.083 779.605C235.525 779.605 235.021 779.911 234.571 780.523C234.139 781.135 233.923 781.864 233.923 782.71V790H228.793V775.96H233.518L233.626 777.85H233.68ZM250.167 781.63H254.73C254.73 779.92 253.965 779.065 252.435 779.065C251.049 779.065 250.293 779.92 250.167 781.63ZM250.221 784.6C250.527 786.04 251.553 786.76 253.299 786.76C254.649 786.76 255.936 786.445 257.16 785.815L258.24 789.19C256.584 789.91 254.784 790.27 252.84 790.27C250.518 790.27 248.655 789.613 247.251 788.299C245.847 786.985 245.145 785.212 245.145 782.98C245.145 780.73 245.784 778.957 247.062 777.661C248.358 776.347 250.104 775.69 252.3 775.69C254.55 775.69 256.305 776.329 257.565 777.607C258.825 778.867 259.455 780.658 259.455 782.98C259.455 783.466 259.41 784.006 259.32 784.6H250.221ZM266.929 777.85C267.433 777.184 268.054 776.662 268.792 776.284C269.548 775.888 270.313 775.69 271.087 775.69C272.869 775.69 274.147 776.194 274.921 777.202C275.695 778.192 276.082 779.938 276.082 782.44V790H271.006V782.98C271.006 781.63 270.88 780.73 270.628 780.28C270.394 779.83 269.962 779.605 269.332 779.605C268.774 779.605 268.27 779.911 267.82 780.523C267.388 781.135 267.172 781.864 267.172 782.71V790H262.042V775.96H266.767L266.875 777.85H266.929ZM286.237 790.27C284.455 790.27 283.132 789.865 282.268 789.055C281.404 788.227 280.972 786.922 280.972 785.14V780.01H278.137V776.5H280.972V771.37H286.21V776.5H290.557V780.01H286.21V784.33C286.21 785.194 286.309 785.77 286.507 786.058C286.705 786.346 287.065 786.49 287.587 786.49C288.379 786.49 289.189 786.355 290.017 786.085L290.557 789.73C289.225 790.09 287.785 790.27 286.237 790.27ZM294.223 790V784.33H300.163V790H294.223ZM318.229 783.115V790H312.964V770.425C315.304 770.155 317.644 770.02 319.984 770.02C325.384 770.02 328.084 772.045 328.084 776.095C328.084 777.229 327.733 778.282 327.031 779.254C326.329 780.226 325.42 780.919 324.304 781.333V781.387C324.844 781.693 325.294 782.089 325.654 782.575C326.014 783.043 326.356 783.718 326.68 784.6L328.624 790H323.089L321.415 784.87C321.217 784.24 320.965 783.79 320.659 783.52C320.353 783.25 319.948 783.115 319.444 783.115H318.229ZM318.229 779.2H319.714C320.632 779.2 321.352 778.975 321.874 778.525C322.414 778.057 322.684 777.427 322.684 776.635C322.684 774.925 321.694 774.07 319.714 774.07C319.138 774.07 318.643 774.115 318.229 774.205V779.2ZM334.753 781.63H339.316C339.316 779.92 338.551 779.065 337.021 779.065C335.635 779.065 334.879 779.92 334.753 781.63ZM334.807 784.6C335.113 786.04 336.139 786.76 337.885 786.76C339.235 786.76 340.522 786.445 341.746 785.815L342.826 789.19C341.17 789.91 339.37 790.27 337.426 790.27C335.104 790.27 333.241 789.613 331.837 788.299C330.433 786.985 329.731 785.212 329.731 782.98C329.731 780.73 330.37 778.957 331.648 777.661C332.944 776.347 334.69 775.69 336.886 775.69C339.136 775.69 340.891 776.329 342.151 777.607C343.411 778.867 344.041 780.658 344.041 782.98C344.041 783.466 343.996 784.006 343.906 784.6H334.807ZM353.79 790.27C352.008 790.27 350.685 789.865 349.821 789.055C348.957 788.227 348.525 786.922 348.525 785.14V780.01H345.69V776.5H348.525V771.37H353.763V776.5H358.11V780.01H353.763V784.33C353.763 785.194 353.862 785.77 354.06 786.058C354.258 786.346 354.618 786.49 355.14 786.49C355.932 786.49 356.742 786.355 357.57 786.085L358.11 789.73C356.778 790.09 355.338 790.27 353.79 790.27ZM370.247 788.11C369.743 788.776 369.113 789.307 368.357 789.703C367.619 790.081 366.863 790.27 366.089 790.27C364.397 790.27 363.182 789.829 362.444 788.947C361.724 788.065 361.364 786.526 361.364 784.33V775.96H366.44V783.79C366.44 784.834 366.539 785.527 366.737 785.869C366.935 786.193 367.304 786.355 367.844 786.355C368.402 786.355 368.897 786.049 369.329 785.437C369.779 784.825 370.004 784.096 370.004 783.25V775.96H375.134V790H370.409L370.301 788.11H370.247ZM389.873 775.69V779.74C387.857 779.74 386.336 780.118 385.31 780.874C384.284 781.63 383.771 782.692 383.771 784.06V790H378.533V775.96H383.366L383.393 778.66H383.447C384.995 776.68 387.137 775.69 389.873 775.69ZM397.631 777.85C398.135 777.184 398.756 776.662 399.494 776.284C400.25 775.888 401.015 775.69 401.789 775.69C403.571 775.69 404.849 776.194 405.623 777.202C406.397 778.192 406.784 779.938 406.784 782.44V790H401.708V782.98C401.708 781.63 401.582 780.73 401.33 780.28C401.096 779.83 400.664 779.605 400.034 779.605C399.476 779.605 398.972 779.911 398.522 780.523C398.09 781.135 397.874 781.864 397.874 782.71V790H392.744V775.96H397.469L397.577 777.85H397.631ZM424.226 776.5H424.199L420.176 780.28L418.556 775.69L424.226 770.29H429.896V790H424.226V776.5ZM455.992 785.599L457.072 789.19C455.524 789.91 453.904 790.27 452.212 790.27C449.728 790.27 447.757 789.613 446.299 788.299C444.841 786.985 444.112 785.212 444.112 782.98C444.112 780.73 444.823 778.957 446.245 777.661C447.685 776.347 449.674 775.69 452.212 775.69C453.958 775.69 455.578 776.05 457.072 776.77L455.992 780.415C454.876 779.731 453.706 779.389 452.482 779.389C451.456 779.389 450.655 779.695 450.079 780.307C449.521 780.919 449.242 781.81 449.242 782.98C449.242 784.114 449.539 785.005 450.133 785.653C450.727 786.301 451.51 786.625 452.482 786.625C453.706 786.625 454.876 786.283 455.992 785.599ZM467.212 780.82H468.022C468.022 780.208 467.905 779.785 467.671 779.551C467.437 779.317 467.014 779.2 466.402 779.2C464.512 779.2 462.667 779.605 460.867 780.415L460.192 776.905C462.172 776.095 464.332 775.69 466.672 775.69C469.012 775.69 470.677 776.131 471.667 777.013C472.657 777.877 473.152 779.326 473.152 781.36V786.22C473.152 787.516 473.287 788.776 473.557 790H468.697C468.589 789.388 468.499 788.758 468.427 788.11H468.373C467.887 788.758 467.257 789.28 466.483 789.676C465.709 790.072 464.917 790.27 464.107 790.27C462.721 790.27 461.605 789.892 460.759 789.136C459.931 788.362 459.517 787.3 459.517 785.95C459.517 784.402 460.174 783.16 461.488 782.224C462.82 781.288 464.728 780.82 467.212 780.82ZM464.107 785.41C464.107 786.22 464.557 786.625 465.457 786.625C466.231 786.625 466.852 786.409 467.32 785.977C467.788 785.545 468.022 784.951 468.022 784.195V783.79H467.212C466.186 783.79 465.412 783.943 464.89 784.249C464.368 784.537 464.107 784.924 464.107 785.41ZM488.038 775.69V779.74C486.022 779.74 484.501 780.118 483.475 780.874C482.449 781.63 481.936 782.692 481.936 784.06V790H476.698V775.96H481.531L481.558 778.66H481.612C483.16 776.68 485.302 775.69 488.038 775.69ZM489.572 782.98C489.572 780.658 490.067 778.867 491.057 777.607C492.065 776.329 493.415 775.69 495.107 775.69C496.637 775.69 497.924 776.32 498.968 777.58H499.022V769.75H504.152V790H499.427L499.319 788.11H499.265C498.131 789.55 496.745 790.27 495.107 790.27C493.487 790.27 492.155 789.622 491.111 788.326C490.085 787.03 489.572 785.248 489.572 782.98ZM494.432 782.98C494.432 784.06 494.648 784.897 495.08 785.491C495.512 786.067 496.061 786.355 496.727 786.355C497.429 786.355 497.987 786.076 498.401 785.518C498.815 784.96 499.022 784.159 499.022 783.115V782.845C499.022 781.819 498.815 781.027 498.401 780.469C497.987 779.893 497.429 779.605 496.727 779.605C496.007 779.605 495.44 779.893 495.026 780.469C494.63 781.027 494.432 781.864 494.432 782.98ZM523.7 790.27C521.918 790.27 520.595 789.865 519.731 789.055C518.867 788.227 518.435 786.922 518.435 785.14V780.01H515.6V776.5H518.435V771.37H523.673V776.5H528.02V780.01H523.673V784.33C523.673 785.194 523.772 785.77 523.97 786.058C524.168 786.346 524.528 786.49 525.05 786.49C525.842 786.49 526.652 786.355 527.48 786.085L528.02 789.73C526.688 790.09 525.248 790.27 523.7 790.27ZM532.145 777.634C533.441 776.338 535.268 775.69 537.626 775.69C539.984 775.69 541.811 776.338 543.107 777.634C544.403 778.93 545.051 780.712 545.051 782.98C545.051 785.248 544.403 787.03 543.107 788.326C541.811 789.622 539.984 790.27 537.626 790.27C535.268 790.27 533.441 789.622 532.145 788.326C530.849 787.03 530.201 785.248 530.201 782.98C530.201 780.712 530.849 778.93 532.145 777.634ZM535.817 785.761C536.213 786.319 536.816 786.598 537.626 786.598C538.436 786.598 539.039 786.319 539.435 785.761C539.831 785.203 540.029 784.276 540.029 782.98C540.029 781.684 539.831 780.757 539.435 780.199C539.039 779.641 538.436 779.362 537.626 779.362C536.816 779.362 536.213 779.641 535.817 780.199C535.421 780.757 535.223 781.684 535.223 782.98C535.223 784.276 535.421 785.203 535.817 785.761ZM563.541 790.27C561.759 790.27 560.436 789.865 559.572 789.055C558.708 788.227 558.276 786.922 558.276 785.14V780.01H555.441V776.5H558.276V771.37H563.514V776.5H567.861V780.01H563.514V784.33C563.514 785.194 563.613 785.77 563.811 786.058C564.009 786.346 564.369 786.49 564.891 786.49C565.683 786.49 566.493 786.355 567.321 786.085L567.861 789.73C566.529 790.09 565.089 790.27 563.541 790.27ZM585.425 782.44V790H580.349V782.98C580.349 781.63 580.223 780.73 579.971 780.28C579.737 779.83 579.305 779.605 578.675 779.605C578.117 779.605 577.613 779.911 577.163 780.523C576.731 781.135 576.515 781.864 576.515 782.71V790H571.385V769.75H576.515V777.58H576.569C577.019 777.004 577.595 776.545 578.297 776.203C578.999 775.861 579.71 775.69 580.43 775.69C582.212 775.69 583.49 776.194 584.264 777.202C585.038 778.192 585.425 779.938 585.425 782.44ZM592.782 781.63H597.345C597.345 779.92 596.58 779.065 595.05 779.065C593.664 779.065 592.908 779.92 592.782 781.63ZM592.836 784.6C593.142 786.04 594.168 786.76 595.914 786.76C597.264 786.76 598.551 786.445 599.775 785.815L600.855 789.19C599.199 789.91 597.399 790.27 595.455 790.27C593.133 790.27 591.27 789.613 589.866 788.299C588.462 786.985 587.76 785.212 587.76 782.98C587.76 780.73 588.399 778.957 589.677 777.661C590.973 776.347 592.719 775.69 594.915 775.69C597.165 775.69 598.92 776.329 600.18 777.607C601.44 778.867 602.07 780.658 602.07 782.98C602.07 783.466 602.025 784.006 601.935 784.6H592.836ZM90.6087 824.599L91.6887 828.19C90.1407 828.91 88.5207 829.27 86.8287 829.27C84.3447 829.27 82.3737 828.613 80.9157 827.299C79.4577 825.985 78.7287 824.212 78.7287 821.98C78.7287 819.73 79.4397 817.957 80.8617 816.661C82.3017 815.347 84.2907 814.69 86.8287 814.69C88.5747 814.69 90.1947 815.05 91.6887 815.77L90.6087 819.415C89.4927 818.731 88.3227 818.389 87.0987 818.389C86.0727 818.389 85.2717 818.695 84.6957 819.307C84.1377 819.919 83.8587 820.81 83.8587 821.98C83.8587 823.114 84.1557 824.005 84.7497 824.653C85.3437 825.301 86.1267 825.625 87.0987 825.625C88.3227 825.625 89.4927 825.283 90.6087 824.599ZM95.8074 816.634C97.1034 815.338 98.9304 814.69 101.288 814.69C103.646 814.69 105.473 815.338 106.769 816.634C108.065 817.93 108.713 819.712 108.713 821.98C108.713 824.248 108.065 826.03 106.769 827.326C105.473 828.622 103.646 829.27 101.288 829.27C98.9304 829.27 97.1034 828.622 95.8074 827.326C94.5114 826.03 93.8634 824.248 93.8634 821.98C93.8634 819.712 94.5114 817.93 95.8074 816.634ZM99.4794 824.761C99.8754 825.319 100.478 825.598 101.288 825.598C102.098 825.598 102.701 825.319 103.097 824.761C103.493 824.203 103.691 823.276 103.691 821.98C103.691 820.684 103.493 819.757 103.097 819.199C102.701 818.641 102.098 818.362 101.288 818.362C100.478 818.362 99.8754 818.641 99.4794 819.199C99.0834 819.757 98.8854 820.684 98.8854 821.98C98.8854 823.276 99.0834 824.203 99.4794 824.761ZM119.93 827.11C119.426 827.776 118.796 828.307 118.04 828.703C117.302 829.081 116.546 829.27 115.772 829.27C114.08 829.27 112.865 828.829 112.127 827.947C111.407 827.065 111.047 825.526 111.047 823.33V814.96H116.123V822.79C116.123 823.834 116.222 824.527 116.42 824.869C116.618 825.193 116.987 825.355 117.527 825.355C118.085 825.355 118.58 825.049 119.012 824.437C119.462 823.825 119.687 823.096 119.687 822.25V814.96H124.817V829H120.092L119.984 827.11H119.93ZM139.556 814.69V818.74C137.54 818.74 136.019 819.118 134.993 819.874C133.967 820.63 133.454 821.692 133.454 823.06V829H128.216V814.96H133.049L133.076 817.66H133.13C134.678 815.68 136.82 814.69 139.556 814.69ZM149.853 829.27C148.071 829.27 146.748 828.865 145.884 828.055C145.02 827.227 144.588 825.922 144.588 824.14V819.01H141.753V815.5H144.588V810.37H149.826V815.5H154.173V819.01H149.826V823.33C149.826 824.194 149.925 824.77 150.123 825.058C150.321 825.346 150.681 825.49 151.203 825.49C151.995 825.49 152.805 825.355 153.633 825.085L154.173 828.73C152.841 829.09 151.401 829.27 149.853 829.27ZM165.348 821.98C165.348 819.658 165.843 817.867 166.833 816.607C167.841 815.329 169.191 814.69 170.883 814.69C172.413 814.69 173.7 815.32 174.744 816.58H174.798V808.75H179.928V829H175.203L175.095 827.11H175.041C173.907 828.55 172.521 829.27 170.883 829.27C169.263 829.27 167.931 828.622 166.887 827.326C165.861 826.03 165.348 824.248 165.348 821.98ZM170.208 821.98C170.208 823.06 170.424 823.897 170.856 824.491C171.288 825.067 171.837 825.355 172.503 825.355C173.205 825.355 173.763 825.076 174.177 824.518C174.591 823.96 174.798 823.159 174.798 822.115V821.845C174.798 820.819 174.591 820.027 174.177 819.469C173.763 818.893 173.205 818.605 172.503 818.605C171.783 818.605 171.216 818.893 170.802 819.469C170.406 820.027 170.208 820.864 170.208 821.98ZM187.532 820.63H192.095C192.095 818.92 191.33 818.065 189.8 818.065C188.414 818.065 187.658 818.92 187.532 820.63ZM187.586 823.6C187.892 825.04 188.918 825.76 190.664 825.76C192.014 825.76 193.301 825.445 194.525 824.815L195.605 828.19C193.949 828.91 192.149 829.27 190.205 829.27C187.883 829.27 186.02 828.613 184.616 827.299C183.212 825.985 182.51 824.212 182.51 821.98C182.51 819.73 183.149 817.957 184.427 816.661C185.723 815.347 187.469 814.69 189.665 814.69C191.915 814.69 193.67 815.329 194.93 816.607C196.19 817.867 196.82 819.658 196.82 821.98C196.82 822.466 196.775 823.006 196.685 823.6H187.586ZM210.606 824.599L211.686 828.19C210.138 828.91 208.518 829.27 206.826 829.27C204.342 829.27 202.371 828.613 200.913 827.299C199.455 825.985 198.726 824.212 198.726 821.98C198.726 819.73 199.437 817.957 200.859 816.661C202.299 815.347 204.288 814.69 206.826 814.69C208.572 814.69 210.192 815.05 211.686 815.77L210.606 819.415C209.49 818.731 208.32 818.389 207.096 818.389C206.07 818.389 205.269 818.695 204.693 819.307C204.135 819.919 203.856 820.81 203.856 821.98C203.856 823.114 204.153 824.005 204.747 824.653C205.341 825.301 206.124 825.625 207.096 825.625C208.32 825.625 209.49 825.283 210.606 824.599ZM220.124 823.33H220.07V829H214.94V808.75H220.07V820.09H220.124L223.85 814.96H229.655L224.255 821.71L229.79 829H223.985L220.124 823.33ZM248.008 819.82H248.818C248.818 819.208 248.701 818.785 248.467 818.551C248.233 818.317 247.81 818.2 247.198 818.2C245.308 818.2 243.463 818.605 241.663 819.415L240.988 815.905C242.968 815.095 245.128 814.69 247.468 814.69C249.808 814.69 251.473 815.131 252.463 816.013C253.453 816.877 253.948 818.326 253.948 820.36V825.22C253.948 826.516 254.083 827.776 254.353 829H249.493C249.385 828.388 249.295 827.758 249.223 827.11H249.169C248.683 827.758 248.053 828.28 247.279 828.676C246.505 829.072 245.713 829.27 244.903 829.27C243.517 829.27 242.401 828.892 241.555 828.136C240.727 827.362 240.313 826.3 240.313 824.95C240.313 823.402 240.97 822.16 242.284 821.224C243.616 820.288 245.524 819.82 248.008 819.82ZM244.903 824.41C244.903 825.22 245.353 825.625 246.253 825.625C247.027 825.625 247.648 825.409 248.116 824.977C248.584 824.545 248.818 823.951 248.818 823.195V822.79H248.008C246.982 822.79 246.208 822.943 245.686 823.249C245.164 823.537 244.903 823.924 244.903 824.41ZM262.381 816.85C262.885 816.184 263.506 815.662 264.244 815.284C265 814.888 265.765 814.69 266.539 814.69C268.321 814.69 269.599 815.194 270.373 816.202C271.147 817.192 271.534 818.938 271.534 821.44V829H266.458V821.98C266.458 820.63 266.332 819.73 266.08 819.28C265.846 818.83 265.414 818.605 264.784 818.605C264.226 818.605 263.722 818.911 263.272 819.523C262.84 820.135 262.624 820.864 262.624 821.71V829H257.494V814.96H262.219L262.327 816.85H262.381ZM273.981 821.98C273.981 819.658 274.476 817.867 275.466 816.607C276.474 815.329 277.824 814.69 279.516 814.69C281.046 814.69 282.333 815.32 283.377 816.58H283.431V808.75H288.561V829H283.836L283.728 827.11H283.674C282.54 828.55 281.154 829.27 279.516 829.27C277.896 829.27 276.564 828.622 275.52 827.326C274.494 826.03 273.981 824.248 273.981 821.98ZM278.841 821.98C278.841 823.06 279.057 823.897 279.489 824.491C279.921 825.067 280.47 825.355 281.136 825.355C281.838 825.355 282.396 825.076 282.81 824.518C283.224 823.96 283.431 823.159 283.431 822.115V821.845C283.431 820.819 283.224 820.027 282.81 819.469C282.396 818.893 281.838 818.605 281.136 818.605C280.416 818.605 279.849 818.893 279.435 819.469C279.039 820.027 278.841 820.864 278.841 821.98ZM306.272 815.5H306.245L302.222 819.28L300.602 814.69L306.272 809.29H311.942V829H306.272V815.5ZM334.528 829.27C332.746 829.27 331.423 828.865 330.559 828.055C329.695 827.227 329.263 825.922 329.263 824.14V819.01H326.428V815.5H329.263V810.37H334.501V815.5H338.848V819.01H334.501V823.33C334.501 824.194 334.6 824.77 334.798 825.058C334.996 825.346 335.356 825.49 335.878 825.49C336.67 825.49 337.48 825.355 338.308 825.085L338.848 828.73C337.516 829.09 336.076 829.27 334.528 829.27ZM342.973 816.634C344.269 815.338 346.096 814.69 348.454 814.69C350.812 814.69 352.639 815.338 353.935 816.634C355.231 817.93 355.879 819.712 355.879 821.98C355.879 824.248 355.231 826.03 353.935 827.326C352.639 828.622 350.812 829.27 348.454 829.27C346.096 829.27 344.269 828.622 342.973 827.326C341.677 826.03 341.029 824.248 341.029 821.98C341.029 819.712 341.677 817.93 342.973 816.634ZM346.645 824.761C347.041 825.319 347.644 825.598 348.454 825.598C349.264 825.598 349.867 825.319 350.263 824.761C350.659 824.203 350.857 823.276 350.857 821.98C350.857 820.684 350.659 819.757 350.263 819.199C349.867 818.641 349.264 818.362 348.454 818.362C347.644 818.362 347.041 818.641 346.645 819.199C346.249 819.757 346.051 820.684 346.051 821.98C346.051 823.276 346.249 824.203 346.645 824.761ZM374.369 829.27C372.587 829.27 371.264 828.865 370.4 828.055C369.536 827.227 369.104 825.922 369.104 824.14V819.01H366.269V815.5H369.104V810.37H374.342V815.5H378.689V819.01H374.342V823.33C374.342 824.194 374.441 824.77 374.639 825.058C374.837 825.346 375.197 825.49 375.719 825.49C376.511 825.49 377.321 825.355 378.149 825.085L378.689 828.73C377.357 829.09 375.917 829.27 374.369 829.27ZM396.254 821.44V829H391.178V821.98C391.178 820.63 391.052 819.73 390.8 819.28C390.566 818.83 390.134 818.605 389.504 818.605C388.946 818.605 388.442 818.911 387.992 819.523C387.56 820.135 387.344 820.864 387.344 821.71V829H382.214V808.75H387.344V816.58H387.398C387.848 816.004 388.424 815.545 389.126 815.203C389.828 814.861 390.539 814.69 391.259 814.69C393.041 814.69 394.319 815.194 395.093 816.202C395.867 817.192 396.254 818.938 396.254 821.44ZM403.611 820.63H408.174C408.174 818.92 407.409 818.065 405.879 818.065C404.493 818.065 403.737 818.92 403.611 820.63ZM403.665 823.6C403.971 825.04 404.997 825.76 406.743 825.76C408.093 825.76 409.38 825.445 410.604 824.815L411.684 828.19C410.028 828.91 408.228 829.27 406.284 829.27C403.962 829.27 402.099 828.613 400.695 827.299C399.291 825.985 398.589 824.212 398.589 821.98C398.589 819.73 399.228 817.957 400.506 816.661C401.802 815.347 403.548 814.69 405.744 814.69C407.994 814.69 409.749 815.329 411.009 816.607C412.269 817.867 412.899 819.658 412.899 821.98C412.899 822.466 412.854 823.006 412.764 823.6H403.665ZM425.081 816.634C426.377 815.338 428.204 814.69 430.562 814.69C432.92 814.69 434.747 815.338 436.043 816.634C437.339 817.93 437.987 819.712 437.987 821.98C437.987 824.248 437.339 826.03 436.043 827.326C434.747 828.622 432.92 829.27 430.562 829.27C428.204 829.27 426.377 828.622 425.081 827.326C423.785 826.03 423.137 824.248 423.137 821.98C423.137 819.712 423.785 817.93 425.081 816.634ZM428.753 824.761C429.149 825.319 429.752 825.598 430.562 825.598C431.372 825.598 431.975 825.319 432.371 824.761C432.767 824.203 432.965 823.276 432.965 821.98C432.965 820.684 432.767 819.757 432.371 819.199C431.975 818.641 431.372 818.362 430.562 818.362C429.752 818.362 429.149 818.641 428.753 819.199C428.357 819.757 428.159 820.684 428.159 821.98C428.159 823.276 428.357 824.203 428.753 824.761ZM445.181 814.96L445.289 816.85H445.343C446.513 815.41 447.899 814.69 449.501 814.69C451.193 814.69 452.534 815.329 453.524 816.607C454.532 817.867 455.036 819.658 455.036 821.98C455.036 824.248 454.514 826.03 453.47 827.326C452.444 828.622 451.121 829.27 449.501 829.27C447.917 829.27 446.63 828.64 445.64 827.38H445.586V834.94H440.456V814.96H445.181ZM450.176 821.98C450.176 820.864 449.969 820.027 449.555 819.469C449.159 818.893 448.601 818.605 447.881 818.605C447.179 818.605 446.621 818.893 446.207 819.469C445.793 820.027 445.586 820.819 445.586 821.845V822.115C445.586 823.159 445.793 823.96 446.207 824.518C446.621 825.076 447.179 825.355 447.881 825.355C448.547 825.355 449.096 825.067 449.528 824.491C449.96 823.897 450.176 823.06 450.176 821.98ZM462.346 814.96L462.454 816.85H462.508C463.678 815.41 465.064 814.69 466.666 814.69C468.358 814.69 469.699 815.329 470.689 816.607C471.697 817.867 472.201 819.658 472.201 821.98C472.201 824.248 471.679 826.03 470.635 827.326C469.609 828.622 468.286 829.27 466.666 829.27C465.082 829.27 463.795 828.64 462.805 827.38H462.751V834.94H457.621V814.96H462.346ZM467.341 821.98C467.341 820.864 467.134 820.027 466.72 819.469C466.324 818.893 465.766 818.605 465.046 818.605C464.344 818.605 463.786 818.893 463.372 819.469C462.958 820.027 462.751 820.819 462.751 821.845V822.115C462.751 823.159 462.958 823.96 463.372 824.518C463.786 825.076 464.344 825.355 465.046 825.355C465.712 825.355 466.261 825.067 466.693 824.491C467.125 823.897 467.341 823.06 467.341 821.98ZM476.049 816.634C477.345 815.338 479.172 814.69 481.53 814.69C483.888 814.69 485.715 815.338 487.011 816.634C488.307 817.93 488.955 819.712 488.955 821.98C488.955 824.248 488.307 826.03 487.011 827.326C485.715 828.622 483.888 829.27 481.53 829.27C479.172 829.27 477.345 828.622 476.049 827.326C474.753 826.03 474.105 824.248 474.105 821.98C474.105 819.712 474.753 817.93 476.049 816.634ZM479.721 824.761C480.117 825.319 480.72 825.598 481.53 825.598C482.34 825.598 482.943 825.319 483.339 824.761C483.735 824.203 483.933 823.276 483.933 821.98C483.933 820.684 483.735 819.757 483.339 819.199C482.943 818.641 482.34 818.362 481.53 818.362C480.72 818.362 480.117 818.641 479.721 819.199C479.325 819.757 479.127 820.684 479.127 821.98C479.127 823.276 479.325 824.203 479.721 824.761ZM496.311 816.85C496.815 816.184 497.436 815.662 498.174 815.284C498.93 814.888 499.695 814.69 500.469 814.69C502.251 814.69 503.529 815.194 504.303 816.202C505.077 817.192 505.464 818.938 505.464 821.44V829H500.388V821.98C500.388 820.63 500.262 819.73 500.01 819.28C499.776 818.83 499.344 818.605 498.714 818.605C498.156 818.605 497.652 818.911 497.202 819.523C496.77 820.135 496.554 820.864 496.554 821.71V829H491.424V814.96H496.149L496.257 816.85H496.311ZM512.798 820.63H517.361C517.361 818.92 516.596 818.065 515.066 818.065C513.68 818.065 512.924 818.92 512.798 820.63ZM512.852 823.6C513.158 825.04 514.184 825.76 515.93 825.76C517.28 825.76 518.567 825.445 519.791 824.815L520.871 828.19C519.215 828.91 517.415 829.27 515.471 829.27C513.149 829.27 511.286 828.613 509.882 827.299C508.478 825.985 507.776 824.212 507.776 821.98C507.776 819.73 508.415 817.957 509.693 816.661C510.989 815.347 512.735 814.69 514.931 814.69C517.181 814.69 518.936 815.329 520.196 816.607C521.456 817.867 522.086 819.658 522.086 821.98C522.086 822.466 522.041 823.006 521.951 823.6H512.852ZM529.56 816.85C530.064 816.184 530.685 815.662 531.423 815.284C532.179 814.888 532.944 814.69 533.718 814.69C535.5 814.69 536.778 815.194 537.552 816.202C538.326 817.192 538.713 818.938 538.713 821.44V829H533.637V821.98C533.637 820.63 533.511 819.73 533.259 819.28C533.025 818.83 532.593 818.605 531.963 818.605C531.405 818.605 530.901 818.911 530.451 819.523C530.019 820.135 529.803 820.864 529.803 821.71V829H524.673V814.96H529.398L529.506 816.85H529.56ZM548.867 829.27C547.085 829.27 545.762 828.865 544.898 828.055C544.034 827.227 543.602 825.922 543.602 824.14V819.01H540.767V815.5H543.602V810.37H548.84V815.5H553.187V819.01H548.84V823.33C548.84 824.194 548.939 824.77 549.137 825.058C549.335 825.346 549.695 825.49 550.217 825.49C551.009 825.49 551.819 825.355 552.647 825.085L553.187 828.73C551.855 829.09 550.415 829.27 548.867 829.27ZM556.853 829V823.33H562.793V829H556.853ZM88.9417 852.07C88.5457 852.07 88.1407 852.115 87.7267 852.205V855.985H88.5367C90.6067 855.985 91.6417 855.31 91.6417 853.96C91.6417 852.7 90.7417 852.07 88.9417 852.07ZM97.0417 862.33C97.0417 864.364 96.3757 865.867 95.0437 866.839C93.7297 867.793 91.6057 868.27 88.6717 868.27C86.4757 868.27 84.4057 868.135 82.4617 867.865V848.425C84.3157 848.155 86.2957 848.02 88.4017 848.02C93.8017 848.02 96.5017 849.73 96.5017 853.15C96.5017 854.302 96.1327 855.283 95.3947 856.093C94.6567 856.885 93.6757 857.38 92.4517 857.578V857.632C93.8377 857.812 94.9447 858.343 95.7727 859.225C96.6187 860.107 97.0417 861.142 97.0417 862.33ZM92.0467 861.79C92.0467 860.44 91.0567 859.765 89.0767 859.765H87.7267V864.085C88.1407 864.175 88.5457 864.22 88.9417 864.22C90.0217 864.22 90.8047 864.022 91.2907 863.626C91.7947 863.23 92.0467 862.618 92.0467 861.79ZM100.029 868V847.75H105.429V868H100.029ZM110.375 855.634C111.671 854.338 113.498 853.69 115.856 853.69C118.214 853.69 120.041 854.338 121.337 855.634C122.633 856.93 123.281 858.712 123.281 860.98C123.281 863.248 122.633 865.03 121.337 866.326C120.041 867.622 118.214 868.27 115.856 868.27C113.498 868.27 111.671 867.622 110.375 866.326C109.079 865.03 108.431 863.248 108.431 860.98C108.431 858.712 109.079 856.93 110.375 855.634ZM114.047 863.761C114.443 864.319 115.046 864.598 115.856 864.598C116.666 864.598 117.269 864.319 117.665 863.761C118.061 863.203 118.259 862.276 118.259 860.98C118.259 859.684 118.061 858.757 117.665 858.199C117.269 857.641 116.666 857.362 115.856 857.362C115.046 857.362 114.443 857.641 114.047 858.199C113.651 858.757 113.453 859.684 113.453 860.98C113.453 862.276 113.651 863.203 114.047 863.761ZM136.949 863.599L138.029 867.19C136.481 867.91 134.861 868.27 133.169 868.27C130.685 868.27 128.714 867.613 127.256 866.299C125.798 864.985 125.069 863.212 125.069 860.98C125.069 858.73 125.78 856.957 127.202 855.661C128.642 854.347 130.631 853.69 133.169 853.69C134.915 853.69 136.535 854.05 138.029 854.77L136.949 858.415C135.833 857.731 134.663 857.389 133.439 857.389C132.413 857.389 131.612 857.695 131.036 858.307C130.478 858.919 130.199 859.81 130.199 860.98C130.199 862.114 130.496 863.005 131.09 863.653C131.684 864.301 132.467 864.625 133.439 864.625C134.663 864.625 135.833 864.283 136.949 863.599ZM146.468 862.33H146.414V868H141.284V847.75H146.414V859.09H146.468L150.194 853.96H155.999L150.599 860.71L156.134 868H150.329L146.468 862.33ZM169.123 858.199C167.485 857.605 165.955 857.308 164.533 857.308C163.759 857.308 163.228 857.38 162.94 857.524C162.652 857.65 162.508 857.857 162.508 858.145C162.508 858.415 162.625 858.622 162.859 858.766C163.093 858.91 163.516 859.018 164.128 859.09C166.342 859.36 167.926 859.882 168.88 860.656C169.852 861.43 170.338 862.483 170.338 863.815C170.338 865.183 169.789 866.272 168.691 867.082C167.611 867.874 166.045 868.27 163.993 868.27C161.563 868.27 159.358 867.82 157.378 866.92L158.323 863.302C159.943 864.166 161.653 864.598 163.453 864.598C164.623 864.598 165.208 864.292 165.208 863.68C165.208 863.446 165.118 863.284 164.938 863.194C164.758 863.104 164.308 862.996 163.588 862.87C161.41 862.528 159.853 861.97 158.917 861.196C157.981 860.404 157.513 859.342 157.513 858.01C157.513 856.66 158.053 855.607 159.133 854.851C160.213 854.077 161.833 853.69 163.993 853.69C166.135 853.69 168.16 854.005 170.068 854.635L169.123 858.199ZM193.012 858.199C191.374 857.605 189.844 857.308 188.422 857.308C187.648 857.308 187.117 857.38 186.829 857.524C186.541 857.65 186.397 857.857 186.397 858.145C186.397 858.415 186.514 858.622 186.748 858.766C186.982 858.91 187.405 859.018 188.017 859.09C190.231 859.36 191.815 859.882 192.769 860.656C193.741 861.43 194.227 862.483 194.227 863.815C194.227 865.183 193.678 866.272 192.58 867.082C191.5 867.874 189.934 868.27 187.882 868.27C185.452 868.27 183.247 867.82 181.267 866.92L182.212 863.302C183.832 864.166 185.542 864.598 187.342 864.598C188.512 864.598 189.097 864.292 189.097 863.68C189.097 863.446 189.007 863.284 188.827 863.194C188.647 863.104 188.197 862.996 187.477 862.87C185.299 862.528 183.742 861.97 182.806 861.196C181.87 860.404 181.402 859.342 181.402 858.01C181.402 856.66 181.942 855.607 183.022 854.851C184.102 854.077 185.722 853.69 187.882 853.69C190.024 853.69 192.049 854.005 193.957 854.635L193.012 858.199ZM203.998 868.27C202.216 868.27 200.893 867.865 200.029 867.055C199.165 866.227 198.733 864.922 198.733 863.14V858.01H195.898V854.5H198.733V849.37H203.971V854.5H208.318V858.01H203.971V862.33C203.971 863.194 204.07 863.77 204.268 864.058C204.466 864.346 204.826 864.49 205.348 864.49C206.14 864.49 206.95 864.355 207.778 864.085L208.318 867.73C206.986 868.09 205.546 868.27 203.998 868.27ZM215.521 859.63H220.084C220.084 857.92 219.319 857.065 217.789 857.065C216.403 857.065 215.647 857.92 215.521 859.63ZM215.575 862.6C215.881 864.04 216.907 864.76 218.653 864.76C220.003 864.76 221.29 864.445 222.514 863.815L223.594 867.19C221.938 867.91 220.138 868.27 218.194 868.27C215.872 868.27 214.009 867.613 212.605 866.299C211.201 864.985 210.499 863.212 210.499 860.98C210.499 858.73 211.138 856.957 212.416 855.661C213.712 854.347 215.458 853.69 217.654 853.69C219.904 853.69 221.659 854.329 222.919 855.607C224.179 856.867 224.809 858.658 224.809 860.98C224.809 861.466 224.764 862.006 224.674 862.6H215.575ZM234.416 858.82H235.226C235.226 858.208 235.109 857.785 234.875 857.551C234.641 857.317 234.218 857.2 233.606 857.2C231.716 857.2 229.871 857.605 228.071 858.415L227.396 854.905C229.376 854.095 231.536 853.69 233.876 853.69C236.216 853.69 237.881 854.131 238.871 855.013C239.861 855.877 240.356 857.326 240.356 859.36V864.22C240.356 865.516 240.491 866.776 240.761 868H235.901C235.793 867.388 235.703 866.758 235.631 866.11H235.577C235.091 866.758 234.461 867.28 233.687 867.676C232.913 868.072 232.121 868.27 231.311 868.27C229.925 868.27 228.809 867.892 227.963 867.136C227.135 866.362 226.721 865.3 226.721 863.95C226.721 862.402 227.378 861.16 228.692 860.224C230.024 859.288 231.932 858.82 234.416 858.82ZM231.311 863.41C231.311 864.22 231.761 864.625 232.661 864.625C233.435 864.625 234.056 864.409 234.524 863.977C234.992 863.545 235.226 862.951 235.226 862.195V861.79H234.416C233.39 861.79 232.616 861.943 232.094 862.249C231.572 862.537 231.311 862.924 231.311 863.41ZM244.442 868V847.75H249.842V868H244.442ZM253.802 851.53V847.75H259.202V851.53H253.802ZM253.802 868V853.96H259.202V868H253.802ZM268.037 855.85C268.541 855.184 269.162 854.662 269.9 854.284C270.656 853.888 271.421 853.69 272.195 853.69C273.977 853.69 275.255 854.194 276.029 855.202C276.803 856.192 277.19 857.938 277.19 860.44V868H272.114V860.98C272.114 859.63 271.988 858.73 271.736 858.28C271.502 857.83 271.07 857.605 270.44 857.605C269.882 857.605 269.378 857.911 268.928 858.523C268.496 859.135 268.28 859.864 268.28 860.71V868H263.15V853.96H267.875L267.983 855.85H268.037ZM289.222 865.84H289.195C288.151 867.1 286.81 867.73 285.172 867.73C283.57 867.73 282.247 867.109 281.203 865.867C280.159 864.607 279.637 862.888 279.637 860.71C279.637 858.496 280.141 856.777 281.149 855.553C282.157 854.311 283.498 853.69 285.172 853.69C286.774 853.69 288.16 854.41 289.33 855.85H289.384L289.492 853.96H294.217V866.38C294.217 868.954 293.506 870.898 292.084 872.212C290.662 873.544 288.583 874.21 285.847 874.21C284.119 874.21 282.499 873.94 280.987 873.4L281.797 869.782C283.057 870.304 284.317 870.565 285.577 870.565C286.891 870.565 287.827 870.25 288.385 869.62C288.943 869.008 289.222 867.928 289.222 866.38V865.84ZM284.497 860.71C284.497 861.736 284.704 862.537 285.118 863.113C285.55 863.671 286.108 863.95 286.792 863.95C287.494 863.95 288.052 863.689 288.466 863.167C288.88 862.627 289.087 861.853 289.087 860.845V860.575C289.087 859.585 288.88 858.82 288.466 858.28C288.052 857.74 287.494 857.47 286.792 857.47C286.072 857.47 285.505 857.749 285.091 858.307C284.695 858.847 284.497 859.648 284.497 860.71ZM302.067 870.97H297.747L299.367 862.33H305.307L302.067 870.97ZM299.367 858.01V852.34H305.307V858.01H299.367ZM325.534 852.07C325.138 852.07 324.733 852.115 324.319 852.205V855.985H325.129C327.199 855.985 328.234 855.31 328.234 853.96C328.234 852.7 327.334 852.07 325.534 852.07ZM333.634 862.33C333.634 864.364 332.968 865.867 331.636 866.839C330.322 867.793 328.198 868.27 325.264 868.27C323.068 868.27 320.998 868.135 319.054 867.865V848.425C320.908 848.155 322.888 848.02 324.994 848.02C330.394 848.02 333.094 849.73 333.094 853.15C333.094 854.302 332.725 855.283 331.987 856.093C331.249 856.885 330.268 857.38 329.044 857.578V857.632C330.43 857.812 331.537 858.343 332.365 859.225C333.211 860.107 333.634 861.142 333.634 862.33ZM328.639 861.79C328.639 860.44 327.649 859.765 325.669 859.765H324.319V864.085C324.733 864.175 325.138 864.22 325.534 864.22C326.614 864.22 327.397 864.022 327.883 863.626C328.387 863.23 328.639 862.618 328.639 861.79ZM336.621 868V847.75H342.021V868H336.621ZM346.968 855.634C348.264 854.338 350.091 853.69 352.449 853.69C354.807 853.69 356.634 854.338 357.93 855.634C359.226 856.93 359.874 858.712 359.874 860.98C359.874 863.248 359.226 865.03 357.93 866.326C356.634 867.622 354.807 868.27 352.449 868.27C350.091 868.27 348.264 867.622 346.968 866.326C345.672 865.03 345.024 863.248 345.024 860.98C345.024 858.712 345.672 856.93 346.968 855.634ZM350.64 863.761C351.036 864.319 351.639 864.598 352.449 864.598C353.259 864.598 353.862 864.319 354.258 863.761C354.654 863.203 354.852 862.276 354.852 860.98C354.852 859.684 354.654 858.757 354.258 858.199C353.862 857.641 353.259 857.362 352.449 857.362C351.639 857.362 351.036 857.641 350.64 858.199C350.244 858.757 350.046 859.684 350.046 860.98C350.046 862.276 350.244 863.203 350.64 863.761ZM373.542 863.599L374.622 867.19C373.074 867.91 371.454 868.27 369.762 868.27C367.278 868.27 365.307 867.613 363.849 866.299C362.391 864.985 361.662 863.212 361.662 860.98C361.662 858.73 362.373 856.957 363.795 855.661C365.235 854.347 367.224 853.69 369.762 853.69C371.508 853.69 373.128 854.05 374.622 854.77L373.542 858.415C372.426 857.731 371.256 857.389 370.032 857.389C369.006 857.389 368.205 857.695 367.629 858.307C367.071 858.919 366.792 859.81 366.792 860.98C366.792 862.114 367.089 863.005 367.683 863.653C368.277 864.301 369.06 864.625 370.032 864.625C371.256 864.625 372.426 864.283 373.542 863.599ZM383.061 862.33H383.007V868H377.877V847.75H383.007V859.09H383.061L386.787 853.96H392.592L387.192 860.71L392.727 868H386.922L383.061 862.33ZM405.716 858.199C404.078 857.605 402.548 857.308 401.126 857.308C400.352 857.308 399.821 857.38 399.533 857.524C399.245 857.65 399.101 857.857 399.101 858.145C399.101 858.415 399.218 858.622 399.452 858.766C399.686 858.91 400.109 859.018 400.721 859.09C402.935 859.36 404.519 859.882 405.473 860.656C406.445 861.43 406.931 862.483 406.931 863.815C406.931 865.183 406.382 866.272 405.284 867.082C404.204 867.874 402.638 868.27 400.586 868.27C398.156 868.27 395.951 867.82 393.971 866.92L394.916 863.302C396.536 864.166 398.246 864.598 400.046 864.598C401.216 864.598 401.801 864.292 401.801 863.68C401.801 863.446 401.711 863.284 401.531 863.194C401.351 863.104 400.901 862.996 400.181 862.87C398.003 862.528 396.446 861.97 395.51 861.196C394.574 860.404 394.106 859.342 394.106 858.01C394.106 856.66 394.646 855.607 395.726 854.851C396.806 854.077 398.426 853.69 400.586 853.69C402.728 853.69 404.753 854.005 406.661 854.635L405.716 858.199ZM418.94 868V848.29H424.88V868H418.94ZM433.702 855.85C434.206 855.184 434.827 854.662 435.565 854.284C436.321 853.888 437.086 853.69 437.86 853.69C439.642 853.69 440.92 854.194 441.694 855.202C442.468 856.192 442.855 857.938 442.855 860.44V868H437.779V860.98C437.779 859.63 437.653 858.73 437.401 858.28C437.167 857.83 436.735 857.605 436.105 857.605C435.547 857.605 435.043 857.911 434.593 858.523C434.161 859.135 433.945 859.864 433.945 860.71V868H428.815V853.96H433.54L433.648 855.85H433.702ZM457.317 858.199C455.679 857.605 454.149 857.308 452.727 857.308C451.953 857.308 451.422 857.38 451.134 857.524C450.846 857.65 450.702 857.857 450.702 858.145C450.702 858.415 450.819 858.622 451.053 858.766C451.287 858.91 451.71 859.018 452.322 859.09C454.536 859.36 456.12 859.882 457.074 860.656C458.046 861.43 458.532 862.483 458.532 863.815C458.532 865.183 457.983 866.272 456.885 867.082C455.805 867.874 454.239 868.27 452.187 868.27C449.757 868.27 447.552 867.82 445.572 866.92L446.517 863.302C448.137 864.166 449.847 864.598 451.647 864.598C452.817 864.598 453.402 864.292 453.402 863.68C453.402 863.446 453.312 863.284 453.132 863.194C452.952 863.104 452.502 862.996 451.782 862.87C449.604 862.528 448.047 861.97 447.111 861.196C446.175 860.404 445.707 859.342 445.707 858.01C445.707 856.66 446.247 855.607 447.327 854.851C448.407 854.077 450.027 853.69 452.187 853.69C454.329 853.69 456.354 854.005 458.262 854.635L457.317 858.199ZM468.302 868.27C466.52 868.27 465.197 867.865 464.333 867.055C463.469 866.227 463.037 864.922 463.037 863.14V858.01H460.202V854.5H463.037V849.37H468.275V854.5H472.622V858.01H468.275V862.33C468.275 863.194 468.374 863.77 468.572 864.058C468.77 864.346 469.13 864.49 469.652 864.49C470.444 864.49 471.254 864.355 472.082 864.085L472.622 867.73C471.29 868.09 469.85 868.27 468.302 868.27ZM476.552 851.53V847.75H481.952V851.53H476.552ZM476.552 868V853.96H481.952V868H476.552ZM494.675 865.84H494.648C493.604 867.1 492.263 867.73 490.625 867.73C489.023 867.73 487.7 867.109 486.656 865.867C485.612 864.607 485.09 862.888 485.09 860.71C485.09 858.496 485.594 856.777 486.602 855.553C487.61 854.311 488.951 853.69 490.625 853.69C492.227 853.69 493.613 854.41 494.783 855.85H494.837L494.945 853.96H499.67V866.38C499.67 868.954 498.959 870.898 497.537 872.212C496.115 873.544 494.036 874.21 491.3 874.21C489.572 874.21 487.952 873.94 486.44 873.4L487.25 869.782C488.51 870.304 489.77 870.565 491.03 870.565C492.344 870.565 493.28 870.25 493.838 869.62C494.396 869.008 494.675 867.928 494.675 866.38V865.84ZM489.95 860.71C489.95 861.736 490.157 862.537 490.571 863.113C491.003 863.671 491.561 863.95 492.245 863.95C492.947 863.95 493.505 863.689 493.919 863.167C494.333 862.627 494.54 861.853 494.54 860.845V860.575C494.54 859.585 494.333 858.82 493.919 858.28C493.505 857.74 492.947 857.47 492.245 857.47C491.525 857.47 490.958 857.749 490.544 858.307C490.148 858.847 489.95 859.648 489.95 860.71ZM510.085 858.82H510.895C510.895 858.208 510.778 857.785 510.544 857.551C510.31 857.317 509.887 857.2 509.275 857.2C507.385 857.2 505.54 857.605 503.74 858.415L503.065 854.905C505.045 854.095 507.205 853.69 509.545 853.69C511.885 853.69 513.55 854.131 514.54 855.013C515.53 855.877 516.025 857.326 516.025 859.36V864.22C516.025 865.516 516.16 866.776 516.43 868H511.57C511.462 867.388 511.372 866.758 511.3 866.11H511.246C510.76 866.758 510.13 867.28 509.356 867.676C508.582 868.072 507.79 868.27 506.98 868.27C505.594 868.27 504.478 867.892 503.632 867.136C502.804 866.362 502.39 865.3 502.39 863.95C502.39 862.402 503.047 861.16 504.361 860.224C505.693 859.288 507.601 858.82 510.085 858.82ZM506.98 863.41C506.98 864.22 507.43 864.625 508.33 864.625C509.104 864.625 509.725 864.409 510.193 863.977C510.661 863.545 510.895 862.951 510.895 862.195V861.79H510.085C509.059 861.79 508.285 861.943 507.763 862.249C507.241 862.537 506.98 862.924 506.98 863.41ZM526.178 868.27C524.396 868.27 523.073 867.865 522.209 867.055C521.345 866.227 520.913 864.922 520.913 863.14V858.01H518.078V854.5H520.913V849.37H526.151V854.5H530.498V858.01H526.151V862.33C526.151 863.194 526.25 863.77 526.448 864.058C526.646 864.346 527.006 864.49 527.528 864.49C528.32 864.49 529.13 864.355 529.958 864.085L530.498 867.73C529.166 868.09 527.726 868.27 526.178 868.27ZM534.623 855.634C535.919 854.338 537.746 853.69 540.104 853.69C542.462 853.69 544.289 854.338 545.585 855.634C546.881 856.93 547.529 858.712 547.529 860.98C547.529 863.248 546.881 865.03 545.585 866.326C544.289 867.622 542.462 868.27 540.104 868.27C537.746 868.27 535.919 867.622 534.623 866.326C533.327 865.03 532.679 863.248 532.679 860.98C532.679 858.712 533.327 856.93 534.623 855.634ZM538.295 863.761C538.691 864.319 539.294 864.598 540.104 864.598C540.914 864.598 541.517 864.319 541.913 863.761C542.309 863.203 542.507 862.276 542.507 860.98C542.507 859.684 542.309 858.757 541.913 858.199C541.517 857.641 540.914 857.362 540.104 857.362C539.294 857.362 538.691 857.641 538.295 858.199C537.899 858.757 537.701 859.684 537.701 860.98C537.701 862.276 537.899 863.203 538.295 863.761ZM561.338 853.69V857.74C559.322 857.74 557.801 858.118 556.775 858.874C555.749 859.63 555.236 860.692 555.236 862.06V868H549.998V853.96H554.831L554.858 856.66H554.912C556.46 854.68 558.602 853.69 561.338 853.69Z" fill="white"/>
<defs>
<filter id="filter0_d_672_8" x="-509.9" y="18.6" width="1276.8" height="1169.3" filterUnits="userSpaceOnUse" color-interpolation-filters="sRGB">
<feFlood flood-opacity="0" result="BackgroundImageFix"/>
<feColorMatrix in="SourceAlpha" type="matrix" values="0 0 0 0 0 0 0 0 0 0 0 0 0 0 0 0 0 0 127 0" result="hardAlpha"/>
<feOffset/>
<feGaussianBlur stdDeviation="34.95"/>
<feComposite in2="hardAlpha" operator="out"/>
<feColorMatrix type="matrix" values="0 0 0 0 0 0 0 0 0 0 0 0 0 0 0 0 0 0 0.15 0"/>
<feBlend mode="normal" in2="BackgroundImageFix" result="effect1_dropShadow_672_8"/>
<feBlend mode="normal" in="SourceGraphic" in2="effect1_dropShadow_672_8" result="shape"/>
</filter>
<linearGradient id="paint0_linear_672_8" x1="4.56025" y1="223.048" x2="4.56025" y2="1118" gradientUnits="userSpaceOnUse">
<stop stop-color="#B6B929" stop-opacity="0.94"/>
<stop offset="1" stop-color="#A33030" stop-opacity="0.45"/>
</linearGradient>
</defs>
</svg>
