<svg width="640" height="900" viewBox="0 0 640 900" fill="none" xmlns="http://www.w3.org/2000/svg">
<rect x="0.0195312" width="639.02" height="900" fill="#783BDC"/>
<mask id="mask0_612_161" style="mask-type:alpha" maskUnits="userSpaceOnUse" x="0" y="0" width="640" height="900">
<rect x="0.0195312" width="639.02" height="900" fill="white"/>
</mask>
<g mask="url(#mask0_612_161)">
<path d="M308.001 49.284L545.452 108.487L534.753 151.249L297.303 92.046L308.001 49.284ZM390.037 92.4525L451.243 110.846C437.966 129.467 421.648 146.155 410.585 157.495L369.198 139.736C376.758 125.172 385.334 106.554 390.037 92.4525ZM465.815 49.4681L516.88 73.9491C502.959 87.3184 490.237 99.0284 480.465 106.774L438.156 84.8684C447.376 74.6348 459.177 60.3452 465.815 49.4681ZM344.968 36.1777L390.875 31.1749C397.418 44.1637 403.684 61.3913 404.696 73.0011L355.839 78.8349C355.472 67.7776 350.589 49.7198 344.968 36.1777ZM271.484 152.97L236.713 291.946L184.356 278.892L206.768 189.313L168.791 179.844L181.149 130.447L271.484 152.97ZM242.524 268.722C250.448 294.979 273.215 310.446 308.98 320.93C353.501 333.988 437.844 353.842 492.138 362.288C483.011 373.72 468.074 397.41 461.527 412.618C414.055 403.523 340.497 385.966 294.961 372.263C251.546 359.48 224.723 343.002 207.49 308.549C189.052 318.051 170.246 327.461 146.37 338.348L134.579 275.88C153.108 270.709 174.31 264.246 193.485 256.495L242.524 268.722ZM205.222 27.9662L253.067 5.82326C270.302 26.1774 291.5 55.7439 299.794 75.8268L248.169 100.552C241.719 80.9288 222.088 49.795 205.222 27.9662ZM345.774 209.872L342.546 222.775L430.3 244.654L433.528 231.752L345.774 209.872ZM333.877 257.426L330.649 270.329L418.402 292.208L421.63 279.306L333.877 257.426ZM357.672 162.318L354.444 175.22L442.198 197.1L445.426 184.197L357.672 162.318ZM316.658 111.754L508.02 159.466L461.997 343.416L270.636 295.704L316.658 111.754ZM240.874 568.095L295.074 581.609L229.776 842.604C224.058 865.46 225.163 868.868 241.755 873.005C249.13 874.844 278.258 882.106 285.263 883.853C301.855 887.99 307.849 876.56 323.618 826.055C333.849 838.397 353.481 853.866 367.4 860.861C345.084 925.007 324.801 946.581 278.343 934.998C266.913 932.148 232.623 923.599 221.93 920.933C171.048 908.246 161.003 887.335 175.667 828.722L240.874 568.095ZM363.278 664.408L390.924 721.43C339.854 739.244 281.225 752.824 228.496 761.609C227.945 748.156 222.324 726.781 217.809 713.515C267.865 704.455 322.9 683.322 363.278 664.408ZM166.671 543.72L215.339 574.652C171.084 634.112 107.195 693.768 49.8537 725.684C47.7355 710.666 39.8124 676.576 33.6384 660.546C80.2851 636.93 131.359 592.486 166.671 543.72ZM102.316 642.814L168.691 602.968L169.244 603.89L96.9362 892.901L43.1042 879.48L102.316 642.814Z" fill="#B7C947"/>
<g filter="url(#filter0_d_612_161)">
<path d="M-121.5 970H726.536L698.5 745L645 631L552.5 607.5L481.791 464.08L542.977 324L511.5 219.5L379 182.5L256 200.5L203.5 240L185.5 303.5L221 464.08L124 595.5L13 799L-121.5 970Z" fill="url(#paint0_linear_612_161)" shape-rendering="crispEdges"/>
</g>
<g filter="url(#filter1_d_612_161)">
<path d="M548 228.5L569.5 156L667.5 290.5V194L636.5 85L522.597 12L416.5 24.5L320.5 69L205 24.5L90 35L33.5 102L8.5 177.5L-28 260.5L22.5 325L66.5 290.5L50.5 246.5L90 156H159L186 228.5L237 177.5L298 166L383.5 156L467.5 177.5L522.597 194L548 228.5Z" fill="url(#paint1_linear_612_161)" shape-rendering="crispEdges"/>
</g>
</g>
<path d="M113.842 607.1H140.492V660.4C140.492 676.347 137.459 687.483 131.392 693.81C125.326 700.137 114.926 703.3 100.192 703.3C89.9657 703.3 80.4323 700.917 71.5923 696.15L76.1423 675.35C84.6357 680.117 92.219 682.5 98.8923 682.5C104.786 682.5 108.729 680.94 110.722 677.82C112.802 674.613 113.842 667.94 113.842 657.8V607.1ZM218.03 643.5V663H184.23V681.2H220.63V702H158.23V607.1H220.63V627.9H184.23V643.5H218.03ZM300.118 632.45C291.365 628.117 282.481 625.95 273.468 625.95C269.395 625.95 266.318 626.687 264.238 628.16C262.158 629.547 261.118 631.41 261.118 633.75C261.118 637.39 263.935 639.99 269.568 641.55C283.175 645.19 292.751 649.567 298.298 654.68C303.845 659.707 306.618 666.163 306.618 674.05C306.618 683.583 303.325 690.863 296.738 695.89C290.151 700.83 280.228 703.3 266.968 703.3C261.421 703.3 255.441 702.39 249.028 700.57C242.701 698.663 237.631 696.323 233.818 693.55L239.668 673.4C244.088 676.433 248.855 678.817 253.968 680.55C259.168 682.283 263.935 683.15 268.268 683.15C276.068 683.15 279.968 680.333 279.968 674.7C279.968 671.06 276.501 668.243 269.568 666.25C256.915 662.61 247.901 658.233 242.528 653.12C237.155 648.007 234.468 641.55 234.468 633.75C234.468 625.17 237.718 618.367 244.218 613.34C250.805 608.313 260.121 605.8 272.168 605.8C284.995 605.8 295.828 607.967 304.668 612.3L300.118 632.45ZM394.592 607.1V628.55H368.852V702H342.332V628.55H316.592V607.1H394.592ZM470.159 643.5V663H436.359V681.2H472.759V702H410.359V607.1H472.759V627.9H436.359V643.5H470.159ZM515.817 668.85V702H490.467V607.75C501.733 606.45 513 605.8 524.267 605.8C550.267 605.8 563.267 615.55 563.267 635.05C563.267 640.51 561.577 645.58 558.197 650.26C554.817 654.94 550.44 658.277 545.067 660.27V660.53C547.667 662.003 549.833 663.91 551.567 666.25C553.3 668.503 554.947 671.753 556.507 676L565.867 702H539.217L531.157 677.3C530.203 674.267 528.99 672.1 527.517 670.8C526.043 669.5 524.093 668.85 521.667 668.85H515.817ZM515.817 650H522.967C527.387 650 530.853 648.917 533.367 646.75C535.967 644.497 537.267 641.463 537.267 637.65C537.267 629.417 532.5 625.3 522.967 625.3C520.193 625.3 517.81 625.517 515.817 625.95V650Z" fill="white"/>
<path d="M74.9716 742.16V749H69.1216V727.25C71.1816 726.95 73.3816 726.8 75.7216 726.8C82.5216 726.8 85.9216 729.25 85.9216 734.15C85.9216 736.81 85.1516 738.83 83.6116 740.21C82.0916 741.57 79.8616 742.25 76.9216 742.25C76.1416 742.25 75.4916 742.22 74.9716 742.16ZM74.9716 737.81C75.3516 737.87 75.8016 737.9 76.3216 737.9C77.6216 737.9 78.6216 737.6 79.3216 737C80.0216 736.4 80.3716 735.55 80.3716 734.45C80.3716 732.35 79.0216 731.3 76.3216 731.3C75.8816 731.3 75.4316 731.35 74.9716 731.45V737.81ZM95.7232 738.8H96.6232C96.6232 738.12 96.4932 737.65 96.2332 737.39C95.9732 737.13 95.5032 737 94.8232 737C92.7232 737 90.6732 737.45 88.6732 738.35L87.9232 734.45C90.1232 733.55 92.5232 733.1 95.1232 733.1C97.7232 733.1 99.5732 733.59 100.673 734.57C101.773 735.53 102.323 737.14 102.323 739.4V744.8C102.323 746.24 102.473 747.64 102.773 749H97.3732C97.2532 748.32 97.1532 747.62 97.0732 746.9H97.0132C96.4732 747.62 95.7732 748.2 94.9132 748.64C94.0532 749.08 93.1732 749.3 92.2732 749.3C90.7332 749.3 89.4932 748.88 88.5532 748.04C87.6332 747.18 87.1732 746 87.1732 744.5C87.1732 742.78 87.9032 741.4 89.3632 740.36C90.8432 739.32 92.9632 738.8 95.7232 738.8ZM92.2732 743.9C92.2732 744.8 92.7732 745.25 93.7732 745.25C94.6332 745.25 95.3232 745.01 95.8432 744.53C96.3632 744.05 96.6232 743.39 96.6232 742.55V742.1H95.7232C94.5832 742.1 93.7232 742.27 93.1432 742.61C92.5632 742.93 92.2732 743.36 92.2732 743.9ZM112.675 743.9H112.735L115.555 733.4H121.555L113.455 755.6H107.455L110.155 749L104.155 733.4H110.455L112.675 743.9ZM139.895 734H139.865L135.395 738.2L133.595 733.1L139.895 727.1H146.195V749H139.895V734ZM175.19 744.11L176.39 748.1C174.67 748.9 172.87 749.3 170.99 749.3C168.23 749.3 166.04 748.57 164.42 747.11C162.8 745.65 161.99 743.68 161.99 741.2C161.99 738.7 162.78 736.73 164.36 735.29C165.96 733.83 168.17 733.1 170.99 733.1C172.93 733.1 174.73 733.5 176.39 734.3L175.19 738.35C173.95 737.59 172.65 737.21 171.29 737.21C170.15 737.21 169.26 737.55 168.62 738.23C168 738.91 167.69 739.9 167.69 741.2C167.69 742.46 168.02 743.45 168.68 744.17C169.34 744.89 170.21 745.25 171.29 745.25C172.65 745.25 173.95 744.87 175.19 744.11ZM180.967 735.26C182.407 733.82 184.437 733.1 187.057 733.1C189.677 733.1 191.707 733.82 193.147 735.26C194.587 736.7 195.307 738.68 195.307 741.2C195.307 743.72 194.587 745.7 193.147 747.14C191.707 748.58 189.677 749.3 187.057 749.3C184.437 749.3 182.407 748.58 180.967 747.14C179.527 745.7 178.807 743.72 178.807 741.2C178.807 738.68 179.527 736.7 180.967 735.26ZM185.047 744.29C185.487 744.91 186.157 745.22 187.057 745.22C187.957 745.22 188.627 744.91 189.067 744.29C189.507 743.67 189.727 742.64 189.727 741.2C189.727 739.76 189.507 738.73 189.067 738.11C188.627 737.49 187.957 737.18 187.057 737.18C186.157 737.18 185.487 737.49 185.047 738.11C184.607 738.73 184.387 739.76 184.387 741.2C184.387 742.64 184.607 743.67 185.047 744.29ZM198.65 730.7V726.5H204.65V730.7H198.65ZM198.65 749V733.4H204.65V749H198.65ZM214.466 735.5C215.026 734.76 215.716 734.18 216.536 733.76C217.376 733.32 218.226 733.1 219.086 733.1C221.066 733.1 222.486 733.66 223.346 734.78C224.206 735.88 224.636 737.82 224.636 740.6V749H218.996V741.2C218.996 739.7 218.856 738.7 218.576 738.2C218.316 737.7 217.836 737.45 217.136 737.45C216.516 737.45 215.956 737.79 215.456 738.47C214.976 739.15 214.736 739.96 214.736 740.9V749H209.036V733.4H214.286L214.406 735.5H214.466ZM232.605 752.3H227.805L229.605 742.7H236.205L232.605 752.3ZM261.528 744.11L262.728 748.1C261.008 748.9 259.208 749.3 257.328 749.3C254.568 749.3 252.378 748.57 250.758 747.11C249.138 745.65 248.328 743.68 248.328 741.2C248.328 738.7 249.118 736.73 250.698 735.29C252.298 733.83 254.508 733.1 257.328 733.1C259.268 733.1 261.068 733.5 262.728 734.3L261.528 738.35C260.288 737.59 258.988 737.21 257.628 737.21C256.488 737.21 255.598 737.55 254.958 738.23C254.338 738.91 254.028 739.9 254.028 741.2C254.028 742.46 254.358 743.45 255.018 744.17C255.678 744.89 256.548 745.25 257.628 745.25C258.988 745.25 260.288 744.87 261.528 744.11ZM267.305 735.26C268.745 733.82 270.775 733.1 273.395 733.1C276.015 733.1 278.045 733.82 279.485 735.26C280.925 736.7 281.645 738.68 281.645 741.2C281.645 743.72 280.925 745.7 279.485 747.14C278.045 748.58 276.015 749.3 273.395 749.3C270.775 749.3 268.745 748.58 267.305 747.14C265.865 745.7 265.145 743.72 265.145 741.2C265.145 738.68 265.865 736.7 267.305 735.26ZM271.385 744.29C271.825 744.91 272.495 745.22 273.395 745.22C274.295 745.22 274.965 744.91 275.405 744.29C275.845 743.67 276.065 742.64 276.065 741.2C276.065 739.76 275.845 738.73 275.405 738.11C274.965 737.49 274.295 737.18 273.395 737.18C272.495 737.18 271.825 737.49 271.385 738.11C270.945 738.73 270.725 739.76 270.725 741.2C270.725 742.64 270.945 743.67 271.385 744.29ZM289.638 733.4L289.758 735.5H289.818C291.118 733.9 292.658 733.1 294.438 733.1C296.318 733.1 297.808 733.81 298.908 735.23C300.028 736.63 300.588 738.62 300.588 741.2C300.588 743.72 300.008 745.7 298.848 747.14C297.708 748.58 296.238 749.3 294.438 749.3C292.678 749.3 291.248 748.6 290.148 747.2H290.088V755.6H284.388V733.4H289.638ZM295.188 741.2C295.188 739.96 294.958 739.03 294.498 738.41C294.058 737.77 293.438 737.45 292.638 737.45C291.858 737.45 291.238 737.77 290.778 738.41C290.318 739.03 290.088 739.91 290.088 741.05V741.35C290.088 742.51 290.318 743.4 290.778 744.02C291.238 744.64 291.858 744.95 292.638 744.95C293.378 744.95 293.988 744.63 294.468 743.99C294.948 743.33 295.188 742.4 295.188 741.2ZM310.019 743.9H310.079L312.899 733.4H318.899L310.799 755.6H304.799L307.499 749L301.499 733.4H307.799L310.019 743.9ZM338.829 738.8H339.729C339.729 738.12 339.599 737.65 339.339 737.39C339.079 737.13 338.609 737 337.929 737C335.829 737 333.779 737.45 331.779 738.35L331.029 734.45C333.229 733.55 335.629 733.1 338.229 733.1C340.829 733.1 342.679 733.59 343.779 734.57C344.879 735.53 345.429 737.14 345.429 739.4V744.8C345.429 746.24 345.579 747.64 345.879 749H340.479C340.359 748.32 340.259 747.62 340.179 746.9H340.119C339.579 747.62 338.879 748.2 338.019 748.64C337.159 749.08 336.279 749.3 335.379 749.3C333.839 749.3 332.599 748.88 331.659 748.04C330.739 747.18 330.279 746 330.279 744.5C330.279 742.78 331.009 741.4 332.469 740.36C333.949 739.32 336.069 738.8 338.829 738.8ZM335.379 743.9C335.379 744.8 335.879 745.25 336.879 745.25C337.739 745.25 338.429 745.01 338.949 744.53C339.469 744.05 339.729 743.39 339.729 742.55V742.1H338.829C337.689 742.1 336.829 742.27 336.249 742.61C335.669 742.93 335.379 743.36 335.379 743.9ZM354.799 735.5C355.359 734.76 356.049 734.18 356.869 733.76C357.709 733.32 358.559 733.1 359.419 733.1C361.399 733.1 362.819 733.66 363.679 734.78C364.539 735.88 364.969 737.82 364.969 740.6V749H359.329V741.2C359.329 739.7 359.189 738.7 358.909 738.2C358.649 737.7 358.169 737.45 357.469 737.45C356.849 737.45 356.289 737.79 355.789 738.47C355.309 739.15 355.069 739.96 355.069 740.9V749H349.369V733.4H354.619L354.739 735.5H354.799ZM385.938 738.8H386.838C386.838 738.12 386.708 737.65 386.448 737.39C386.188 737.13 385.718 737 385.038 737C382.938 737 380.888 737.45 378.888 738.35L378.138 734.45C380.338 733.55 382.738 733.1 385.338 733.1C387.938 733.1 389.788 733.59 390.888 734.57C391.988 735.53 392.538 737.14 392.538 739.4V744.8C392.538 746.24 392.688 747.64 392.988 749H387.588C387.468 748.32 387.368 747.62 387.288 746.9H387.228C386.688 747.62 385.988 748.2 385.128 748.64C384.268 749.08 383.388 749.3 382.488 749.3C380.948 749.3 379.708 748.88 378.768 748.04C377.848 747.18 377.388 746 377.388 744.5C377.388 742.78 378.118 741.4 379.578 740.36C381.058 739.32 383.178 738.8 385.938 738.8ZM382.488 743.9C382.488 744.8 382.988 745.25 383.988 745.25C384.848 745.25 385.538 745.01 386.058 744.53C386.578 744.05 386.838 743.39 386.838 742.55V742.1H385.938C384.798 742.1 383.938 742.27 383.358 742.61C382.778 742.93 382.488 743.36 382.488 743.9ZM408.628 744.11L409.828 748.1C408.108 748.9 406.308 749.3 404.428 749.3C401.668 749.3 399.478 748.57 397.858 747.11C396.238 745.65 395.428 743.68 395.428 741.2C395.428 738.7 396.218 736.73 397.798 735.29C399.398 733.83 401.608 733.1 404.428 733.1C406.368 733.1 408.168 733.5 409.828 734.3L408.628 738.35C407.388 737.59 406.088 737.21 404.728 737.21C403.588 737.21 402.698 737.55 402.058 738.23C401.438 738.91 401.128 739.9 401.128 741.2C401.128 742.46 401.458 743.45 402.118 744.17C402.778 744.89 403.648 745.25 404.728 745.25C406.088 745.25 407.388 744.87 408.628 744.11ZM421.544 749.3C419.564 749.3 418.094 748.85 417.134 747.95C416.174 747.03 415.694 745.58 415.694 743.6V737.9H412.544V734H415.694V728.3H421.514V734H426.344V737.9H421.514V742.7C421.514 743.66 421.624 744.3 421.844 744.62C422.064 744.94 422.464 745.1 423.044 745.1C423.924 745.1 424.824 744.95 425.744 744.65L426.344 748.7C424.864 749.1 423.264 749.3 421.544 749.3ZM430.711 730.7V726.5H436.711V730.7H430.711ZM430.711 749V733.4H436.711V749H430.711ZM442.207 735.26C443.647 733.82 445.677 733.1 448.297 733.1C450.917 733.1 452.947 733.82 454.387 735.26C455.827 736.7 456.547 738.68 456.547 741.2C456.547 743.72 455.827 745.7 454.387 747.14C452.947 748.58 450.917 749.3 448.297 749.3C445.677 749.3 443.647 748.58 442.207 747.14C440.767 745.7 440.047 743.72 440.047 741.2C440.047 738.68 440.767 736.7 442.207 735.26ZM446.287 744.29C446.727 744.91 447.397 745.22 448.297 745.22C449.197 745.22 449.867 744.91 450.307 744.29C450.747 743.67 450.967 742.64 450.967 741.2C450.967 739.76 450.747 738.73 450.307 738.11C449.867 737.49 449.197 737.18 448.297 737.18C447.397 737.18 446.727 737.49 446.287 738.11C445.847 738.73 445.627 739.76 445.627 741.2C445.627 742.64 445.847 743.67 446.287 744.29ZM464.72 735.5C465.28 734.76 465.97 734.18 466.79 733.76C467.63 733.32 468.48 733.1 469.34 733.1C471.32 733.1 472.74 733.66 473.6 734.78C474.46 735.88 474.89 737.82 474.89 740.6V749H469.25V741.2C469.25 739.7 469.11 738.7 468.83 738.2C468.57 737.7 468.09 737.45 467.39 737.45C466.77 737.45 466.21 737.79 465.71 738.47C465.23 739.15 464.99 739.96 464.99 740.9V749H459.29V733.4H464.54L464.66 735.5H464.72ZM497.51 726.8C498.79 726.8 500.14 726.95 501.56 727.25L500.81 731.45C500.09 731.15 499.34 731 498.56 731C497.86 731 497.38 731.17 497.12 731.51C496.86 731.83 496.73 732.46 496.73 733.4V734H501.26V737.9H496.73V749H490.91V737.9H487.46V734H490.91V733.4C490.91 731.26 491.48 729.63 492.62 728.51C493.76 727.37 495.39 726.8 497.51 726.8ZM516.89 733.1V737.6C514.65 737.6 512.96 738.02 511.82 738.86C510.68 739.7 510.11 740.88 510.11 742.4V749H504.29V733.4H509.66L509.69 736.4H509.75C511.47 734.2 513.85 733.1 516.89 733.1ZM520.605 735.26C522.045 733.82 524.075 733.1 526.695 733.1C529.315 733.1 531.345 733.82 532.785 735.26C534.225 736.7 534.945 738.68 534.945 741.2C534.945 743.72 534.225 745.7 532.785 747.14C531.345 748.58 529.315 749.3 526.695 749.3C524.075 749.3 522.045 748.58 520.605 747.14C519.165 745.7 518.445 743.72 518.445 741.2C518.445 738.68 519.165 736.7 520.605 735.26ZM524.685 744.29C525.125 744.91 525.795 745.22 526.695 745.22C527.595 745.22 528.265 744.91 528.705 744.29C529.145 743.67 529.365 742.64 529.365 741.2C529.365 739.76 529.145 738.73 528.705 738.11C528.265 737.49 527.595 737.18 526.695 737.18C525.795 737.18 525.125 737.49 524.685 738.11C524.245 738.73 524.025 739.76 524.025 741.2C524.025 742.64 524.245 743.67 524.685 744.29ZM555.329 749V740.3C555.329 739.1 555.219 738.31 554.999 737.93C554.779 737.55 554.379 737.36 553.799 737.36C553.279 737.36 552.849 737.62 552.509 738.14C552.169 738.64 551.999 739.36 551.999 740.3V749H546.539V740.3C546.539 739.1 546.429 738.31 546.209 737.93C546.009 737.55 545.619 737.36 545.039 737.36C544.519 737.36 544.089 737.62 543.749 738.14C543.409 738.64 543.239 739.36 543.239 740.3V749H537.689V733.4H542.789L542.909 735.5H542.969C543.529 734.76 544.179 734.18 544.919 733.76C545.659 733.32 546.399 733.1 547.139 733.1C548.099 733.1 548.859 733.27 549.419 733.61C549.999 733.93 550.529 734.51 551.009 735.35H551.069C551.929 734.51 552.719 733.93 553.439 733.61C554.159 733.27 554.979 733.1 555.899 733.1C557.619 733.1 558.859 733.57 559.619 734.51C560.399 735.45 560.789 737.08 560.789 739.4V749H555.329ZM47.9107 781.8H48.8107C48.8107 781.12 48.6807 780.65 48.4207 780.39C48.1607 780.13 47.6907 780 47.0107 780C44.9107 780 42.8607 780.45 40.8607 781.35L40.1107 777.45C42.3107 776.55 44.7107 776.1 47.3107 776.1C49.9107 776.1 51.7607 776.59 52.8607 777.57C53.9607 778.53 54.5107 780.14 54.5107 782.4V787.8C54.5107 789.24 54.6607 790.64 54.9607 792H49.5607C49.4407 791.32 49.3407 790.62 49.2607 789.9H49.2007C48.6607 790.62 47.9607 791.2 47.1007 791.64C46.2407 792.08 45.3607 792.3 44.4607 792.3C42.9207 792.3 41.6807 791.88 40.7407 791.04C39.8207 790.18 39.3607 789 39.3607 787.5C39.3607 785.78 40.0907 784.4 41.5507 783.36C43.0307 782.32 45.1507 781.8 47.9107 781.8ZM44.4607 786.9C44.4607 787.8 44.9607 788.25 45.9607 788.25C46.8207 788.25 47.5107 788.01 48.0307 787.53C48.5507 787.05 48.8107 786.39 48.8107 785.55V785.1H47.9107C46.7707 785.1 45.9107 785.27 45.3307 785.61C44.7507 785.93 44.4607 786.36 44.4607 786.9ZM63.8805 778.5C64.4405 777.76 65.1305 777.18 65.9505 776.76C66.7905 776.32 67.6405 776.1 68.5005 776.1C70.4805 776.1 71.9005 776.66 72.7605 777.78C73.6205 778.88 74.0505 780.82 74.0505 783.6V792H68.4105V784.2C68.4105 782.7 68.2705 781.7 67.9905 781.2C67.7305 780.7 67.2505 780.45 66.5505 780.45C65.9305 780.45 65.3705 780.79 64.8705 781.47C64.3905 782.15 64.1505 782.96 64.1505 783.9V792H58.4505V776.4H63.7005L63.8205 778.5H63.8805ZM78.7793 778.26C80.2193 776.82 82.2493 776.1 84.8693 776.1C87.4893 776.1 89.5193 776.82 90.9593 778.26C92.3993 779.7 93.1193 781.68 93.1193 784.2C93.1193 786.72 92.3993 788.7 90.9593 790.14C89.5193 791.58 87.4893 792.3 84.8693 792.3C82.2493 792.3 80.2193 791.58 78.7793 790.14C77.3393 788.7 76.6193 786.72 76.6193 784.2C76.6193 781.68 77.3393 779.7 78.7793 778.26ZM82.8593 787.29C83.2993 787.91 83.9693 788.22 84.8693 788.22C85.7693 788.22 86.4393 787.91 86.8793 787.29C87.3193 786.67 87.5393 785.64 87.5393 784.2C87.5393 782.76 87.3193 781.73 86.8793 781.11C86.4393 780.49 85.7693 780.18 84.8693 780.18C83.9693 780.18 83.2993 780.49 82.8593 781.11C82.4193 781.73 82.1993 782.76 82.1993 784.2C82.1993 785.64 82.4193 786.67 82.8593 787.29ZM103.82 792.3C101.84 792.3 100.37 791.85 99.4097 790.95C98.4497 790.03 97.9697 788.58 97.9697 786.6V780.9H94.8197V777H97.9697V771.3H103.79V777H108.62V780.9H103.79V785.7C103.79 786.66 103.9 787.3 104.12 787.62C104.34 787.94 104.74 788.1 105.32 788.1C106.2 788.1 107.1 787.95 108.02 787.65L108.62 791.7C107.14 792.1 105.54 792.3 103.82 792.3ZM128.136 783.6V792H122.496V784.2C122.496 782.7 122.356 781.7 122.076 781.2C121.816 780.7 121.336 780.45 120.636 780.45C120.016 780.45 119.456 780.79 118.956 781.47C118.476 782.15 118.236 782.96 118.236 783.9V792H112.536V769.5H118.236V778.2H118.296C118.796 777.56 119.436 777.05 120.216 776.67C120.996 776.29 121.786 776.1 122.586 776.1C124.566 776.1 125.986 776.66 126.846 777.78C127.706 778.88 128.136 780.82 128.136 783.6ZM136.311 782.7H141.381C141.381 780.8 140.531 779.85 138.831 779.85C137.291 779.85 136.451 780.8 136.311 782.7ZM136.371 786C136.711 787.6 137.851 788.4 139.791 788.4C141.291 788.4 142.721 788.05 144.081 787.35L145.281 791.1C143.441 791.9 141.441 792.3 139.281 792.3C136.701 792.3 134.631 791.57 133.071 790.11C131.511 788.65 130.731 786.68 130.731 784.2C130.731 781.7 131.441 779.73 132.861 778.29C134.301 776.83 136.241 776.1 138.681 776.1C141.181 776.1 143.131 776.81 144.531 778.23C145.931 779.63 146.631 781.62 146.631 784.2C146.631 784.74 146.581 785.34 146.481 786H136.371ZM162.105 776.1V780.6C159.865 780.6 158.175 781.02 157.035 781.86C155.895 782.7 155.325 783.88 155.325 785.4V792H149.505V776.4H154.875L154.905 779.4H154.965C156.685 777.2 159.065 776.1 162.105 776.1ZM180.097 776.4L180.217 778.5H180.277C181.577 776.9 183.117 776.1 184.897 776.1C186.777 776.1 188.267 776.81 189.367 778.23C190.487 779.63 191.047 781.62 191.047 784.2C191.047 786.72 190.467 788.7 189.307 790.14C188.167 791.58 186.697 792.3 184.897 792.3C183.137 792.3 181.707 791.6 180.607 790.2H180.547V798.6H174.847V776.4H180.097ZM185.647 784.2C185.647 782.96 185.417 782.03 184.957 781.41C184.517 780.77 183.897 780.45 183.097 780.45C182.317 780.45 181.697 780.77 181.237 781.41C180.777 782.03 180.547 782.91 180.547 784.05V784.35C180.547 785.51 180.777 786.4 181.237 787.02C181.697 787.64 182.317 787.95 183.097 787.95C183.837 787.95 184.447 787.63 184.927 786.99C185.407 786.33 185.647 785.4 185.647 784.2ZM194.519 792V769.5H200.519V792H194.519ZM212.706 781.8H213.606C213.606 781.12 213.476 780.65 213.216 780.39C212.956 780.13 212.486 780 211.806 780C209.706 780 207.656 780.45 205.656 781.35L204.906 777.45C207.106 776.55 209.506 776.1 212.106 776.1C214.706 776.1 216.556 776.59 217.656 777.57C218.756 778.53 219.306 780.14 219.306 782.4V787.8C219.306 789.24 219.456 790.64 219.756 792H214.356C214.236 791.32 214.136 790.62 214.056 789.9H213.996C213.456 790.62 212.756 791.2 211.896 791.64C211.036 792.08 210.156 792.3 209.256 792.3C207.716 792.3 206.476 791.88 205.536 791.04C204.616 790.18 204.156 789 204.156 787.5C204.156 785.78 204.886 784.4 206.346 783.36C207.826 782.32 209.946 781.8 212.706 781.8ZM209.256 786.9C209.256 787.8 209.756 788.25 210.756 788.25C211.616 788.25 212.306 788.01 212.826 787.53C213.346 787.05 213.606 786.39 213.606 785.55V785.1H212.706C211.566 785.1 210.706 785.27 210.126 785.61C209.546 785.93 209.256 786.36 209.256 786.9ZM229.657 786.9H229.717L232.537 776.4H238.537L230.437 798.6H224.437L227.137 792L221.137 776.4H227.437L229.657 786.9ZM244.885 782.7H249.955C249.955 780.8 249.105 779.85 247.405 779.85C245.865 779.85 245.025 780.8 244.885 782.7ZM244.945 786C245.285 787.6 246.425 788.4 248.365 788.4C249.865 788.4 251.295 788.05 252.655 787.35L253.855 791.1C252.015 791.9 250.015 792.3 247.855 792.3C245.275 792.3 243.205 791.57 241.645 790.11C240.085 788.65 239.305 786.68 239.305 784.2C239.305 781.7 240.015 779.73 241.435 778.29C242.875 776.83 244.815 776.1 247.255 776.1C249.755 776.1 251.705 776.81 253.105 778.23C254.505 779.63 255.205 781.62 255.205 784.2C255.205 784.74 255.155 785.34 255.055 786H244.945ZM270.679 776.1V780.6C268.439 780.6 266.749 781.02 265.609 781.86C264.469 782.7 263.899 783.88 263.899 785.4V792H258.079V776.4H263.449L263.479 779.4H263.539C265.259 777.2 267.639 776.1 270.679 776.1ZM285.735 781.11C283.915 780.45 282.215 780.12 280.635 780.12C279.775 780.12 279.185 780.2 278.865 780.36C278.545 780.5 278.385 780.73 278.385 781.05C278.385 781.35 278.515 781.58 278.775 781.74C279.035 781.9 279.505 782.02 280.185 782.1C282.645 782.4 284.405 782.98 285.465 783.84C286.545 784.7 287.085 785.87 287.085 787.35C287.085 788.87 286.475 790.08 285.255 790.98C284.055 791.86 282.315 792.3 280.035 792.3C277.335 792.3 274.885 791.8 272.685 790.8L273.735 786.78C275.535 787.74 277.435 788.22 279.435 788.22C280.735 788.22 281.385 787.88 281.385 787.2C281.385 786.94 281.285 786.76 281.085 786.66C280.885 786.56 280.385 786.44 279.585 786.3C277.165 785.92 275.435 785.3 274.395 784.44C273.355 783.56 272.835 782.38 272.835 780.9C272.835 779.4 273.435 778.23 274.635 777.39C275.835 776.53 277.635 776.1 280.035 776.1C282.415 776.1 284.665 776.45 286.785 777.15L285.735 781.11ZM311.978 787.11L313.178 791.1C311.458 791.9 309.658 792.3 307.778 792.3C305.018 792.3 302.828 791.57 301.208 790.11C299.588 788.65 298.778 786.68 298.778 784.2C298.778 781.7 299.568 779.73 301.148 778.29C302.748 776.83 304.958 776.1 307.778 776.1C309.718 776.1 311.518 776.5 313.178 777.3L311.978 781.35C310.738 780.59 309.438 780.21 308.078 780.21C306.938 780.21 306.048 780.55 305.408 781.23C304.788 781.91 304.478 782.9 304.478 784.2C304.478 785.46 304.808 786.45 305.468 787.17C306.128 787.89 306.998 788.25 308.078 788.25C309.438 788.25 310.738 787.87 311.978 787.11ZM324.444 781.8H325.344C325.344 781.12 325.214 780.65 324.954 780.39C324.694 780.13 324.224 780 323.544 780C321.444 780 319.394 780.45 317.394 781.35L316.644 777.45C318.844 776.55 321.244 776.1 323.844 776.1C326.444 776.1 328.294 776.59 329.394 777.57C330.494 778.53 331.044 780.14 331.044 782.4V787.8C331.044 789.24 331.194 790.64 331.494 792H326.094C325.974 791.32 325.874 790.62 325.794 789.9H325.734C325.194 790.62 324.494 791.2 323.634 791.64C322.774 792.08 321.894 792.3 320.994 792.3C319.454 792.3 318.214 791.88 317.274 791.04C316.354 790.18 315.894 789 315.894 787.5C315.894 785.78 316.624 784.4 318.084 783.36C319.564 782.32 321.684 781.8 324.444 781.8ZM320.994 786.9C320.994 787.8 321.494 788.25 322.494 788.25C323.354 788.25 324.044 788.01 324.564 787.53C325.084 787.05 325.344 786.39 325.344 785.55V785.1H324.444C323.304 785.1 322.444 785.27 321.864 785.61C321.284 785.93 320.994 786.36 320.994 786.9ZM347.584 776.1V780.6C345.344 780.6 343.654 781.02 342.514 781.86C341.374 782.7 340.804 783.88 340.804 785.4V792H334.984V776.4H340.354L340.384 779.4H340.444C342.164 777.2 344.544 776.1 347.584 776.1ZM349.289 784.2C349.289 781.62 349.839 779.63 350.939 778.23C352.059 776.81 353.559 776.1 355.439 776.1C357.139 776.1 358.569 776.8 359.729 778.2H359.789V769.5H365.489V792H360.239L360.119 789.9H360.059C358.799 791.5 357.259 792.3 355.439 792.3C353.639 792.3 352.159 791.58 350.999 790.14C349.859 788.7 349.289 786.72 349.289 784.2ZM354.689 784.2C354.689 785.4 354.929 786.33 355.409 786.99C355.889 787.63 356.499 787.95 357.239 787.95C358.019 787.95 358.639 787.64 359.099 787.02C359.559 786.4 359.789 785.51 359.789 784.35V784.05C359.789 782.91 359.559 782.03 359.099 781.41C358.639 780.77 358.019 780.45 357.239 780.45C356.439 780.45 355.809 780.77 355.349 781.41C354.909 782.03 354.689 782.96 354.689 784.2ZM374.358 795.3H369.558L371.358 785.7H377.958L374.358 795.3ZM371.358 780.9V774.6H377.958V780.9H371.358ZM393.533 773.7V769.5H399.533V773.7H393.533ZM393.533 792V776.4H399.533V792H393.533ZM413.369 769.8C414.649 769.8 415.999 769.95 417.419 770.25L416.669 774.45C415.949 774.15 415.199 774 414.419 774C413.719 774 413.239 774.17 412.979 774.51C412.719 774.83 412.589 775.46 412.589 776.4V777H417.119V780.9H412.589V792H406.769V780.9H403.319V777H406.769V776.4C406.769 774.26 407.339 772.63 408.479 771.51C409.619 770.37 411.249 769.8 413.369 769.8ZM438.859 792.3C436.879 792.3 435.409 791.85 434.449 790.95C433.489 790.03 433.009 788.58 433.009 786.6V780.9H429.859V777H433.009V771.3H438.829V777H443.659V780.9H438.829V785.7C438.829 786.66 438.939 787.3 439.159 787.62C439.379 787.94 439.779 788.1 440.359 788.1C441.239 788.1 442.139 787.95 443.059 787.65L443.659 791.7C442.179 792.1 440.579 792.3 438.859 792.3ZM463.175 783.6V792H457.535V784.2C457.535 782.7 457.395 781.7 457.115 781.2C456.855 780.7 456.375 780.45 455.675 780.45C455.055 780.45 454.495 780.79 453.995 781.47C453.515 782.15 453.275 782.96 453.275 783.9V792H447.575V769.5H453.275V778.2H453.335C453.835 777.56 454.475 777.05 455.255 776.67C456.035 776.29 456.825 776.1 457.625 776.1C459.605 776.1 461.025 776.66 461.885 777.78C462.745 778.88 463.175 780.82 463.175 783.6ZM471.35 782.7H476.42C476.42 780.8 475.57 779.85 473.87 779.85C472.33 779.85 471.49 780.8 471.35 782.7ZM471.41 786C471.75 787.6 472.89 788.4 474.83 788.4C476.33 788.4 477.76 788.05 479.12 787.35L480.32 791.1C478.48 791.9 476.48 792.3 474.32 792.3C471.74 792.3 469.67 791.57 468.11 790.11C466.55 788.65 465.77 786.68 465.77 784.2C465.77 781.7 466.48 779.73 467.9 778.29C469.34 776.83 471.28 776.1 473.72 776.1C476.22 776.1 478.17 776.81 479.57 778.23C480.97 779.63 481.67 781.62 481.67 784.2C481.67 784.74 481.62 785.34 481.52 786H471.41ZM499.345 776.4L499.465 778.5H499.525C500.825 776.9 502.365 776.1 504.145 776.1C506.025 776.1 507.515 776.81 508.615 778.23C509.735 779.63 510.295 781.62 510.295 784.2C510.295 786.72 509.715 788.7 508.555 790.14C507.415 791.58 505.945 792.3 504.145 792.3C502.385 792.3 500.955 791.6 499.855 790.2H499.795V798.6H494.095V776.4H499.345ZM504.895 784.2C504.895 782.96 504.665 782.03 504.205 781.41C503.765 780.77 503.145 780.45 502.345 780.45C501.565 780.45 500.945 780.77 500.485 781.41C500.025 782.03 499.795 782.91 499.795 784.05V784.35C499.795 785.51 500.025 786.4 500.485 787.02C500.945 787.64 501.565 787.95 502.345 787.95C503.085 787.95 503.695 787.63 504.175 786.99C504.655 786.33 504.895 785.4 504.895 784.2ZM513.767 792V769.5H519.767V792H513.767ZM531.954 781.8H532.854C532.854 781.12 532.724 780.65 532.464 780.39C532.204 780.13 531.734 780 531.054 780C528.954 780 526.904 780.45 524.904 781.35L524.154 777.45C526.354 776.55 528.754 776.1 531.354 776.1C533.954 776.1 535.804 776.59 536.904 777.57C538.004 778.53 538.554 780.14 538.554 782.4V787.8C538.554 789.24 538.704 790.64 539.004 792H533.604C533.484 791.32 533.384 790.62 533.304 789.9H533.244C532.704 790.62 532.004 791.2 531.144 791.64C530.284 792.08 529.404 792.3 528.504 792.3C526.964 792.3 525.724 791.88 524.784 791.04C523.864 790.18 523.404 789 523.404 787.5C523.404 785.78 524.134 784.4 525.594 783.36C527.074 782.32 529.194 781.8 531.954 781.8ZM528.504 786.9C528.504 787.8 529.004 788.25 530.004 788.25C530.864 788.25 531.554 788.01 532.074 787.53C532.594 787.05 532.854 786.39 532.854 785.55V785.1H531.954C530.814 785.1 529.954 785.27 529.374 785.61C528.794 785.93 528.504 786.36 528.504 786.9ZM548.905 786.9H548.965L551.785 776.4H557.785L549.685 798.6H543.685L546.385 792L540.385 776.4H546.685L548.905 786.9ZM564.133 782.7H569.203C569.203 780.8 568.353 779.85 566.653 779.85C565.113 779.85 564.273 780.8 564.133 782.7ZM564.193 786C564.533 787.6 565.673 788.4 567.613 788.4C569.113 788.4 570.543 788.05 571.903 787.35L573.103 791.1C571.263 791.9 569.263 792.3 567.103 792.3C564.523 792.3 562.453 791.57 560.893 790.11C559.333 788.65 558.553 786.68 558.553 784.2C558.553 781.7 559.263 779.73 560.683 778.29C562.123 776.83 564.063 776.1 566.503 776.1C569.003 776.1 570.953 776.81 572.353 778.23C573.753 779.63 574.453 781.62 574.453 784.2C574.453 784.74 574.403 785.34 574.303 786H564.193ZM589.928 776.1V780.6C587.688 780.6 585.998 781.02 584.858 781.86C583.718 782.7 583.147 783.88 583.147 785.4V792H577.328V776.4H582.698L582.728 779.4H582.788C584.508 777.2 586.888 776.1 589.928 776.1ZM26.5398 827.2C26.5398 824.62 27.0898 822.63 28.1898 821.23C29.3098 819.81 30.8098 819.1 32.6898 819.1C34.3898 819.1 35.8198 819.8 36.9798 821.2H37.0398V812.5H42.7398V835H37.4898L37.3698 832.9H37.3098C36.0498 834.5 34.5098 835.3 32.6898 835.3C30.8898 835.3 29.4098 834.58 28.2498 833.14C27.1098 831.7 26.5398 829.72 26.5398 827.2ZM31.9398 827.2C31.9398 828.4 32.1798 829.33 32.6598 829.99C33.1398 830.63 33.7498 830.95 34.4898 830.95C35.2698 830.95 35.8898 830.64 36.3498 830.02C36.8098 829.4 37.0398 828.51 37.0398 827.35V827.05C37.0398 825.91 36.8098 825.03 36.3498 824.41C35.8898 823.77 35.2698 823.45 34.4898 823.45C33.6898 823.45 33.0598 823.77 32.5998 824.41C32.1598 825.03 31.9398 825.96 31.9398 827.2ZM47.7686 821.26C49.2086 819.82 51.2386 819.1 53.8586 819.1C56.4786 819.1 58.5086 819.82 59.9486 821.26C61.3886 822.7 62.1086 824.68 62.1086 827.2C62.1086 829.72 61.3886 831.7 59.9486 833.14C58.5086 834.58 56.4786 835.3 53.8586 835.3C51.2386 835.3 49.2086 834.58 47.7686 833.14C46.3286 831.7 45.6086 829.72 45.6086 827.2C45.6086 824.68 46.3286 822.7 47.7686 821.26ZM51.8486 830.29C52.2886 830.91 52.9586 831.22 53.8586 831.22C54.7586 831.22 55.4286 830.91 55.8686 830.29C56.3086 829.67 56.5286 828.64 56.5286 827.2C56.5286 825.76 56.3086 824.73 55.8686 824.11C55.4286 823.49 54.7586 823.18 53.8586 823.18C52.9586 823.18 52.2886 823.49 51.8486 824.11C51.4086 824.73 51.1886 825.76 51.1886 827.2C51.1886 828.64 51.4086 829.67 51.8486 830.29ZM69.6749 825.7H74.7449C74.7449 823.8 73.8949 822.85 72.1949 822.85C70.6549 822.85 69.8149 823.8 69.6749 825.7ZM69.7349 829C70.0749 830.6 71.2149 831.4 73.1549 831.4C74.6549 831.4 76.0849 831.05 77.4449 830.35L78.6449 834.1C76.8049 834.9 74.8049 835.3 72.6449 835.3C70.0649 835.3 67.9949 834.57 66.4349 833.11C64.8749 831.65 64.0949 829.68 64.0949 827.2C64.0949 824.7 64.8049 822.73 66.2249 821.29C67.6649 819.83 69.6049 819.1 72.0449 819.1C74.5449 819.1 76.4949 819.81 77.8949 821.23C79.2949 822.63 79.9949 824.62 79.9949 827.2C79.9949 827.74 79.9449 828.34 79.8449 829H69.7349ZM95.3195 824.11C93.4995 823.45 91.7995 823.12 90.2195 823.12C89.3595 823.12 88.7695 823.2 88.4495 823.36C88.1295 823.5 87.9695 823.73 87.9695 824.05C87.9695 824.35 88.0995 824.58 88.3595 824.74C88.6195 824.9 89.0895 825.02 89.7695 825.1C92.2295 825.4 93.9895 825.98 95.0495 826.84C96.1295 827.7 96.6695 828.87 96.6695 830.35C96.6695 831.87 96.0595 833.08 94.8395 833.98C93.6395 834.86 91.8995 835.3 89.6195 835.3C86.9195 835.3 84.4695 834.8 82.2695 833.8L83.3195 829.78C85.1195 830.74 87.0195 831.22 89.0195 831.22C90.3195 831.22 90.9695 830.88 90.9695 830.2C90.9695 829.94 90.8695 829.76 90.6695 829.66C90.4695 829.56 89.9695 829.44 89.1695 829.3C86.7495 828.92 85.0195 828.3 83.9795 827.44C82.9395 826.56 82.4195 825.38 82.4195 823.9C82.4195 822.4 83.0195 821.23 84.2195 820.39C85.4195 819.53 87.2195 819.1 89.6195 819.1C91.9995 819.1 94.2495 819.45 96.3695 820.15L95.3195 824.11ZM114.842 821.5C115.402 820.76 116.092 820.18 116.912 819.76C117.752 819.32 118.602 819.1 119.462 819.1C121.442 819.1 122.862 819.66 123.722 820.78C124.582 821.88 125.012 823.82 125.012 826.6V835H119.372V827.2C119.372 825.7 119.232 824.7 118.952 824.2C118.692 823.7 118.212 823.45 117.512 823.45C116.892 823.45 116.332 823.79 115.832 824.47C115.352 825.15 115.112 825.96 115.112 826.9V835H109.412V819.4H114.662L114.782 821.5H114.842ZM129.741 821.26C131.181 819.82 133.211 819.1 135.831 819.1C138.451 819.1 140.481 819.82 141.921 821.26C143.361 822.7 144.081 824.68 144.081 827.2C144.081 829.72 143.361 831.7 141.921 833.14C140.481 834.58 138.451 835.3 135.831 835.3C133.211 835.3 131.181 834.58 129.741 833.14C128.301 831.7 127.581 829.72 127.581 827.2C127.581 824.68 128.301 822.7 129.741 821.26ZM133.821 830.29C134.261 830.91 134.931 831.22 135.831 831.22C136.731 831.22 137.401 830.91 137.841 830.29C138.281 829.67 138.501 828.64 138.501 827.2C138.501 825.76 138.281 824.73 137.841 824.11C137.401 823.49 136.731 823.18 135.831 823.18C134.931 823.18 134.261 823.49 133.821 824.11C133.381 824.73 133.161 825.76 133.161 827.2C133.161 828.64 133.381 829.67 133.821 830.29ZM154.782 835.3C152.802 835.3 151.332 834.85 150.372 833.95C149.412 833.03 148.932 831.58 148.932 829.6V823.9H145.782V820H148.932V814.3H154.752V820H159.582V823.9H154.752V828.7C154.752 829.66 154.862 830.3 155.082 830.62C155.302 830.94 155.702 831.1 156.282 831.1C157.162 831.1 158.062 830.95 158.982 830.65L159.582 834.7C158.102 835.1 156.502 835.3 154.782 835.3ZM188.649 826.6V835H183.009V827.2C183.009 825.7 182.869 824.7 182.589 824.2C182.329 823.7 181.849 823.45 181.149 823.45C180.529 823.45 179.969 823.79 179.469 824.47C178.989 825.15 178.749 825.96 178.749 826.9V835H173.049V812.5H178.749V821.2H178.809C179.309 820.56 179.949 820.05 180.729 819.67C181.509 819.29 182.299 819.1 183.099 819.1C185.079 819.1 186.499 819.66 187.359 820.78C188.219 821.88 188.649 823.82 188.649 826.6ZM200.093 824.8H200.993C200.993 824.12 200.863 823.65 200.603 823.39C200.343 823.13 199.873 823 199.193 823C197.093 823 195.043 823.45 193.043 824.35L192.293 820.45C194.493 819.55 196.893 819.1 199.493 819.1C202.093 819.1 203.943 819.59 205.043 820.57C206.143 821.53 206.693 823.14 206.693 825.4V830.8C206.693 832.24 206.843 833.64 207.143 835H201.743C201.623 834.32 201.523 833.62 201.443 832.9H201.383C200.843 833.62 200.143 834.2 199.283 834.64C198.423 835.08 197.543 835.3 196.643 835.3C195.103 835.3 193.863 834.88 192.923 834.04C192.003 833.18 191.543 832 191.543 830.5C191.543 828.78 192.273 827.4 193.733 826.36C195.213 825.32 197.333 824.8 200.093 824.8ZM196.643 829.9C196.643 830.8 197.143 831.25 198.143 831.25C199.003 831.25 199.693 831.01 200.213 830.53C200.733 830.05 200.993 829.39 200.993 828.55V828.1H200.093C198.953 828.1 198.093 828.27 197.513 828.61C196.933 828.93 196.643 829.36 196.643 829.9ZM217.427 831.7H217.487L220.007 819.4H225.947L221.297 835H213.497L208.847 819.4H214.907L217.427 831.7ZM232.624 825.7H237.694C237.694 823.8 236.844 822.85 235.144 822.85C233.604 822.85 232.764 823.8 232.624 825.7ZM232.684 829C233.024 830.6 234.164 831.4 236.104 831.4C237.604 831.4 239.034 831.05 240.394 830.35L241.594 834.1C239.754 834.9 237.754 835.3 235.594 835.3C233.014 835.3 230.944 834.57 229.384 833.11C227.824 831.65 227.044 829.68 227.044 827.2C227.044 824.7 227.754 822.73 229.174 821.29C230.614 819.83 232.554 819.1 234.994 819.1C237.494 819.1 239.444 819.81 240.844 821.23C242.244 822.63 242.944 824.62 242.944 827.2C242.944 827.74 242.894 828.34 242.794 829H232.684ZM267.819 824.11C265.999 823.45 264.299 823.12 262.719 823.12C261.859 823.12 261.269 823.2 260.949 823.36C260.629 823.5 260.469 823.73 260.469 824.05C260.469 824.35 260.599 824.58 260.859 824.74C261.119 824.9 261.589 825.02 262.269 825.1C264.729 825.4 266.489 825.98 267.549 826.84C268.629 827.7 269.169 828.87 269.169 830.35C269.169 831.87 268.559 833.08 267.339 833.98C266.139 834.86 264.399 835.3 262.119 835.3C259.419 835.3 256.969 834.8 254.769 833.8L255.819 829.78C257.619 830.74 259.519 831.22 261.519 831.22C262.819 831.22 263.469 830.88 263.469 830.2C263.469 829.94 263.369 829.76 263.169 829.66C262.969 829.56 262.469 829.44 261.669 829.3C259.249 828.92 257.519 828.3 256.479 827.44C255.439 826.56 254.919 825.38 254.919 823.9C254.919 822.4 255.519 821.23 256.719 820.39C257.919 819.53 259.719 819.1 262.119 819.1C264.499 819.1 266.749 819.45 268.869 820.15L267.819 824.11ZM280.162 824.8H281.062C281.062 824.12 280.932 823.65 280.672 823.39C280.412 823.13 279.942 823 279.262 823C277.162 823 275.112 823.45 273.112 824.35L272.362 820.45C274.562 819.55 276.962 819.1 279.562 819.1C282.162 819.1 284.012 819.59 285.112 820.57C286.212 821.53 286.762 823.14 286.762 825.4V830.8C286.762 832.24 286.912 833.64 287.212 835H281.812C281.692 834.32 281.592 833.62 281.512 832.9H281.452C280.912 833.62 280.212 834.2 279.352 834.64C278.492 835.08 277.612 835.3 276.712 835.3C275.172 835.3 273.932 834.88 272.992 834.04C272.072 833.18 271.612 832 271.612 830.5C271.612 828.78 272.342 827.4 273.802 826.36C275.282 825.32 277.402 824.8 280.162 824.8ZM276.712 829.9C276.712 830.8 277.212 831.25 278.212 831.25C279.072 831.25 279.762 831.01 280.282 830.53C280.802 830.05 281.062 829.39 281.062 828.55V828.1H280.162C279.022 828.1 278.162 828.27 277.582 828.61C277.002 828.93 276.712 829.36 276.712 829.9ZM291.302 816.7V812.5H297.302V816.7H291.302ZM291.302 835V819.4H297.302V835H291.302ZM300.788 827.2C300.788 824.62 301.338 822.63 302.438 821.23C303.558 819.81 305.058 819.1 306.938 819.1C308.638 819.1 310.068 819.8 311.228 821.2H311.288V812.5H316.988V835H311.738L311.618 832.9H311.558C310.298 834.5 308.758 835.3 306.938 835.3C305.138 835.3 303.658 834.58 302.498 833.14C301.358 831.7 300.788 829.72 300.788 827.2ZM306.188 827.2C306.188 828.4 306.428 829.33 306.908 829.99C307.388 830.63 307.998 830.95 308.738 830.95C309.518 830.95 310.138 830.64 310.598 830.02C311.058 829.4 311.288 828.51 311.288 827.35V827.05C311.288 825.91 311.058 825.03 310.598 824.41C310.138 823.77 309.518 823.45 308.738 823.45C307.938 823.45 307.308 823.77 306.848 824.41C306.408 825.03 306.188 825.96 306.188 827.2ZM342.607 830.11L343.807 834.1C342.087 834.9 340.287 835.3 338.407 835.3C335.647 835.3 333.457 834.57 331.837 833.11C330.217 831.65 329.407 829.68 329.407 827.2C329.407 824.7 330.197 822.73 331.777 821.29C333.377 819.83 335.587 819.1 338.407 819.1C340.347 819.1 342.147 819.5 343.807 820.3L342.607 824.35C341.367 823.59 340.067 823.21 338.707 823.21C337.567 823.21 336.677 823.55 336.037 824.23C335.417 824.91 335.107 825.9 335.107 827.2C335.107 828.46 335.437 829.45 336.097 830.17C336.757 830.89 337.627 831.25 338.707 831.25C340.067 831.25 341.367 830.87 342.607 830.11ZM355.074 824.8H355.974C355.974 824.12 355.844 823.65 355.584 823.39C355.324 823.13 354.854 823 354.174 823C352.074 823 350.024 823.45 348.024 824.35L347.274 820.45C349.474 819.55 351.874 819.1 354.474 819.1C357.074 819.1 358.924 819.59 360.024 820.57C361.124 821.53 361.674 823.14 361.674 825.4V830.8C361.674 832.24 361.824 833.64 362.124 835H356.724C356.604 834.32 356.504 833.62 356.424 832.9H356.364C355.824 833.62 355.124 834.2 354.264 834.64C353.404 835.08 352.524 835.3 351.624 835.3C350.084 835.3 348.844 834.88 347.904 834.04C346.984 833.18 346.524 832 346.524 830.5C346.524 828.78 347.254 827.4 348.714 826.36C350.194 825.32 352.314 824.8 355.074 824.8ZM351.624 829.9C351.624 830.8 352.124 831.25 353.124 831.25C353.984 831.25 354.674 831.01 355.194 830.53C355.714 830.05 355.974 829.39 355.974 828.55V828.1H355.074C353.934 828.1 353.074 828.27 352.494 828.61C351.914 828.93 351.624 829.36 351.624 829.9ZM378.214 819.1V823.6C375.974 823.6 374.284 824.02 373.144 824.86C372.004 825.7 371.434 826.88 371.434 828.4V835H365.614V819.4H370.984L371.014 822.4H371.074C372.794 820.2 375.174 819.1 378.214 819.1ZM379.919 827.2C379.919 824.62 380.469 822.63 381.569 821.23C382.689 819.81 384.189 819.1 386.069 819.1C387.769 819.1 389.199 819.8 390.359 821.2H390.419V812.5H396.119V835H390.869L390.749 832.9H390.689C389.429 834.5 387.889 835.3 386.069 835.3C384.269 835.3 382.789 834.58 381.629 833.14C380.489 831.7 379.919 829.72 379.919 827.2ZM385.319 827.2C385.319 828.4 385.559 829.33 386.039 829.99C386.519 830.63 387.129 830.95 387.869 830.95C388.649 830.95 389.269 830.64 389.729 830.02C390.189 829.4 390.419 828.51 390.419 827.35V827.05C390.419 825.91 390.189 825.03 389.729 824.41C389.269 823.77 388.649 823.45 387.869 823.45C387.069 823.45 386.439 823.77 385.979 824.41C385.539 825.03 385.319 825.96 385.319 827.2ZM404.387 838.3H399.587L401.387 828.7H407.987L404.387 838.3ZM428.481 829.9H428.541L431.361 819.4H437.361L429.261 841.6H423.261L425.961 835L419.961 819.4H426.261L428.481 829.9ZM440.288 821.26C441.728 819.82 443.758 819.1 446.378 819.1C448.998 819.1 451.028 819.82 452.468 821.26C453.908 822.7 454.628 824.68 454.628 827.2C454.628 829.72 453.908 831.7 452.468 833.14C451.028 834.58 448.998 835.3 446.378 835.3C443.758 835.3 441.728 834.58 440.288 833.14C438.848 831.7 438.128 829.72 438.128 827.2C438.128 824.68 438.848 822.7 440.288 821.26ZM444.368 830.29C444.808 830.91 445.478 831.22 446.378 831.22C447.278 831.22 447.948 830.91 448.388 830.29C448.828 829.67 449.048 828.64 449.048 827.2C449.048 825.76 448.828 824.73 448.388 824.11C447.948 823.49 447.278 823.18 446.378 823.18C445.478 823.18 444.808 823.49 444.368 824.11C443.928 824.73 443.708 825.76 443.708 827.2C443.708 828.64 443.928 829.67 444.368 830.29ZM467.091 832.9C466.531 833.64 465.831 834.23 464.991 834.67C464.171 835.09 463.331 835.3 462.471 835.3C460.591 835.3 459.241 834.81 458.421 833.83C457.621 832.85 457.221 831.14 457.221 828.7V819.4H462.861V828.1C462.861 829.26 462.971 830.03 463.191 830.41C463.411 830.77 463.821 830.95 464.421 830.95C465.041 830.95 465.591 830.61 466.071 829.93C466.571 829.25 466.821 828.44 466.821 827.5V819.4H472.521V835H467.271L467.151 832.9H467.091ZM486.448 835V812.5H492.448V835H486.448ZM497.944 821.26C499.384 819.82 501.414 819.1 504.034 819.1C506.654 819.1 508.684 819.82 510.124 821.26C511.564 822.7 512.284 824.68 512.284 827.2C512.284 829.72 511.564 831.7 510.124 833.14C508.684 834.58 506.654 835.3 504.034 835.3C501.414 835.3 499.384 834.58 497.944 833.14C496.504 831.7 495.784 829.72 495.784 827.2C495.784 824.68 496.504 822.7 497.944 821.26ZM502.024 830.29C502.464 830.91 503.134 831.22 504.034 831.22C504.934 831.22 505.604 830.91 506.044 830.29C506.484 829.67 506.704 828.64 506.704 827.2C506.704 825.76 506.484 824.73 506.044 824.11C505.604 823.49 504.934 823.18 504.034 823.18C503.134 823.18 502.464 823.49 502.024 824.11C501.584 824.73 501.364 825.76 501.364 827.2C501.364 828.64 501.584 829.67 502.024 830.29ZM516.431 821.26C517.871 819.82 519.901 819.1 522.521 819.1C525.141 819.1 527.171 819.82 528.611 821.26C530.051 822.7 530.771 824.68 530.771 827.2C530.771 829.72 530.051 831.7 528.611 833.14C527.171 834.58 525.141 835.3 522.521 835.3C519.901 835.3 517.871 834.58 516.431 833.14C514.991 831.7 514.271 829.72 514.271 827.2C514.271 824.68 514.991 822.7 516.431 821.26ZM520.511 830.29C520.951 830.91 521.621 831.22 522.521 831.22C523.421 831.22 524.091 830.91 524.531 830.29C524.971 829.67 525.191 828.64 525.191 827.2C525.191 825.76 524.971 824.73 524.531 824.11C524.091 823.49 523.421 823.18 522.521 823.18C521.621 823.18 520.951 823.49 520.511 824.11C520.071 824.73 519.851 825.76 519.851 827.2C519.851 828.64 520.071 829.67 520.511 830.29ZM545.964 824.11C544.144 823.45 542.444 823.12 540.864 823.12C540.004 823.12 539.414 823.2 539.094 823.36C538.774 823.5 538.614 823.73 538.614 824.05C538.614 824.35 538.744 824.58 539.004 824.74C539.264 824.9 539.734 825.02 540.414 825.1C542.874 825.4 544.634 825.98 545.694 826.84C546.774 827.7 547.314 828.87 547.314 830.35C547.314 831.87 546.704 833.08 545.484 833.98C544.284 834.86 542.544 835.3 540.264 835.3C537.564 835.3 535.114 834.8 532.914 833.8L533.964 829.78C535.764 830.74 537.664 831.22 539.664 831.22C540.964 831.22 541.614 830.88 541.614 830.2C541.614 829.94 541.514 829.76 541.314 829.66C541.114 829.56 540.614 829.44 539.814 829.3C537.394 828.92 535.664 828.3 534.624 827.44C533.584 826.56 533.064 825.38 533.064 823.9C533.064 822.4 533.664 821.23 534.864 820.39C536.064 819.53 537.864 819.1 540.264 819.1C542.644 819.1 544.894 819.45 547.014 820.15L545.964 824.11ZM555.036 825.7H560.106C560.106 823.8 559.256 822.85 557.556 822.85C556.016 822.85 555.176 823.8 555.036 825.7ZM555.096 829C555.436 830.6 556.576 831.4 558.516 831.4C560.016 831.4 561.446 831.05 562.806 830.35L564.006 834.1C562.166 834.9 560.166 835.3 558.006 835.3C555.426 835.3 553.356 834.57 551.796 833.11C550.236 831.65 549.456 829.68 549.456 827.2C549.456 824.7 550.166 822.73 551.586 821.29C553.026 819.83 554.966 819.1 557.406 819.1C559.906 819.1 561.856 819.81 563.256 821.23C564.656 822.63 565.356 824.62 565.356 827.2C565.356 827.74 565.306 828.34 565.206 829H555.096ZM585.582 824.8H586.482C586.482 824.12 586.352 823.65 586.092 823.39C585.832 823.13 585.362 823 584.682 823C582.582 823 580.532 823.45 578.532 824.35L577.782 820.45C579.982 819.55 582.382 819.1 584.982 819.1C587.582 819.1 589.432 819.59 590.532 820.57C591.632 821.53 592.182 823.14 592.182 825.4V830.8C592.182 832.24 592.332 833.64 592.632 835H587.232C587.112 834.32 587.012 833.62 586.932 832.9H586.872C586.332 833.62 585.632 834.2 584.772 834.64C583.912 835.08 583.032 835.3 582.132 835.3C580.592 835.3 579.352 834.88 578.412 834.04C577.492 833.18 577.032 832 577.032 830.5C577.032 828.78 577.762 827.4 579.222 826.36C580.702 825.32 582.822 824.8 585.582 824.8ZM582.132 829.9C582.132 830.8 582.632 831.25 583.632 831.25C584.492 831.25 585.182 831.01 585.702 830.53C586.222 830.05 586.482 829.39 586.482 828.55V828.1H585.582C584.442 828.1 583.582 828.27 583.002 828.61C582.422 828.93 582.132 829.36 582.132 829.9ZM601.551 821.5C602.111 820.76 602.801 820.18 603.621 819.76C604.461 819.32 605.311 819.1 606.171 819.1C608.151 819.1 609.571 819.66 610.431 820.78C611.291 821.88 611.721 823.82 611.721 826.6V835H606.081V827.2C606.081 825.7 605.941 824.7 605.661 824.2C605.401 823.7 604.921 823.45 604.221 823.45C603.601 823.45 603.041 823.79 602.541 824.47C602.061 825.15 601.821 825.96 601.821 826.9V835H596.121V819.4H601.371L601.491 821.5H601.551ZM119.798 859.7V855.5H125.798V859.7H119.798ZM119.798 878V862.4H125.798V878H119.798ZM135.614 864.5C136.174 863.76 136.864 863.18 137.684 862.76C138.524 862.32 139.374 862.1 140.234 862.1C142.214 862.1 143.634 862.66 144.494 863.78C145.354 864.88 145.784 866.82 145.784 869.6V878H140.144V870.2C140.144 868.7 140.004 867.7 139.724 867.2C139.464 866.7 138.984 866.45 138.284 866.45C137.664 866.45 137.104 866.79 136.604 867.47C136.124 868.15 135.884 868.96 135.884 869.9V878H130.184V862.4H135.434L135.554 864.5H135.614ZM163.053 860.3C161.993 860.1 161.093 860 160.353 860C159.213 860 158.443 860.17 158.043 860.51C157.663 860.83 157.473 861.46 157.473 862.4V863H161.853V866.9H157.473V878H151.653V866.9H148.803V863H151.653V862.4C151.653 860.4 152.413 858.8 153.933 857.6C155.473 856.4 157.613 855.8 160.353 855.8C163.793 855.8 166.693 856.2 169.053 857V878H163.053V860.3ZM182.707 875.9C182.147 876.64 181.447 877.23 180.607 877.67C179.787 878.09 178.947 878.3 178.087 878.3C176.207 878.3 174.857 877.81 174.037 876.83C173.237 875.85 172.837 874.14 172.837 871.7V862.4H178.477V871.1C178.477 872.26 178.587 873.03 178.807 873.41C179.027 873.77 179.437 873.95 180.037 873.95C180.657 873.95 181.207 873.61 181.687 872.93C182.187 872.25 182.437 871.44 182.437 870.5V862.4H188.137V878H182.887L182.767 875.9H182.707ZM196.442 868.7H201.512C201.512 866.8 200.662 865.85 198.962 865.85C197.422 865.85 196.582 866.8 196.442 868.7ZM196.502 872C196.842 873.6 197.982 874.4 199.922 874.4C201.422 874.4 202.852 874.05 204.212 873.35L205.412 877.1C203.572 877.9 201.572 878.3 199.412 878.3C196.832 878.3 194.762 877.57 193.202 876.11C191.642 874.65 190.862 872.68 190.862 870.2C190.862 867.7 191.572 865.73 192.992 864.29C194.432 862.83 196.372 862.1 198.812 862.1C201.312 862.1 203.262 862.81 204.662 864.23C206.062 865.63 206.762 867.62 206.762 870.2C206.762 870.74 206.712 871.34 206.612 872H196.502ZM215.067 864.5C215.627 863.76 216.317 863.18 217.137 862.76C217.977 862.32 218.827 862.1 219.687 862.1C221.667 862.1 223.087 862.66 223.947 863.78C224.807 864.88 225.237 866.82 225.237 869.6V878H219.597V870.2C219.597 868.7 219.457 867.7 219.177 867.2C218.917 866.7 218.437 866.45 217.737 866.45C217.117 866.45 216.557 866.79 216.057 867.47C215.577 868.15 215.337 868.96 215.337 869.9V878H209.637V862.4H214.887L215.007 864.5H215.067ZM241.006 873.11L242.206 877.1C240.486 877.9 238.686 878.3 236.806 878.3C234.046 878.3 231.856 877.57 230.236 876.11C228.616 874.65 227.806 872.68 227.806 870.2C227.806 867.7 228.596 865.73 230.176 864.29C231.776 862.83 233.986 862.1 236.806 862.1C238.746 862.1 240.546 862.5 242.206 863.3L241.006 867.35C239.766 866.59 238.466 866.21 237.106 866.21C235.966 866.21 235.076 866.55 234.436 867.23C233.816 867.91 233.506 868.9 233.506 870.2C233.506 871.46 233.836 872.45 234.496 873.17C235.156 873.89 236.026 874.25 237.106 874.25C238.466 874.25 239.766 873.87 241.006 873.11ZM250.202 868.7H255.272C255.272 866.8 254.422 865.85 252.722 865.85C251.182 865.85 250.342 866.8 250.202 868.7ZM250.262 872C250.602 873.6 251.742 874.4 253.682 874.4C255.182 874.4 256.612 874.05 257.972 873.35L259.172 877.1C257.332 877.9 255.332 878.3 253.172 878.3C250.592 878.3 248.522 877.57 246.962 876.11C245.402 874.65 244.622 872.68 244.622 870.2C244.622 867.7 245.332 865.73 246.752 864.29C248.192 862.83 250.132 862.1 252.572 862.1C255.072 862.1 257.022 862.81 258.422 864.23C259.822 865.63 260.522 867.62 260.522 870.2C260.522 870.74 260.472 871.34 260.372 872H250.262ZM263.704 878V871.7H270.304V878H263.704ZM291.727 860.3C291.287 860.3 290.837 860.35 290.377 860.45V864.65H291.277C293.577 864.65 294.727 863.9 294.727 862.4C294.727 861 293.727 860.3 291.727 860.3ZM300.727 871.7C300.727 873.96 299.987 875.63 298.507 876.71C297.047 877.77 294.687 878.3 291.427 878.3C288.987 878.3 286.687 878.15 284.527 877.85V856.25C286.587 855.95 288.787 855.8 291.127 855.8C297.127 855.8 300.127 857.7 300.127 861.5C300.127 862.78 299.717 863.87 298.897 864.77C298.077 865.65 296.987 866.2 295.627 866.42V866.48C297.167 866.68 298.397 867.27 299.317 868.25C300.257 869.23 300.727 870.38 300.727 871.7ZM295.177 871.1C295.177 869.6 294.077 868.85 291.877 868.85H290.377V873.65C290.837 873.75 291.287 873.8 291.727 873.8C292.927 873.8 293.797 873.58 294.337 873.14C294.897 872.7 295.177 872.02 295.177 871.1ZM304.046 878V855.5H310.046V878H304.046ZM315.542 864.26C316.982 862.82 319.012 862.1 321.632 862.1C324.252 862.1 326.282 862.82 327.722 864.26C329.162 865.7 329.882 867.68 329.882 870.2C329.882 872.72 329.162 874.7 327.722 876.14C326.282 877.58 324.252 878.3 321.632 878.3C319.012 878.3 316.982 877.58 315.542 876.14C314.102 874.7 313.382 872.72 313.382 870.2C313.382 867.68 314.102 865.7 315.542 864.26ZM319.622 873.29C320.062 873.91 320.732 874.22 321.632 874.22C322.532 874.22 323.202 873.91 323.642 873.29C324.082 872.67 324.302 871.64 324.302 870.2C324.302 868.76 324.082 867.73 323.642 867.11C323.202 866.49 322.532 866.18 321.632 866.18C320.732 866.18 320.062 866.49 319.622 867.11C319.182 867.73 318.962 868.76 318.962 870.2C318.962 871.64 319.182 872.67 319.622 873.29ZM345.068 873.11L346.268 877.1C344.548 877.9 342.748 878.3 340.868 878.3C338.108 878.3 335.918 877.57 334.298 876.11C332.678 874.65 331.868 872.68 331.868 870.2C331.868 867.7 332.658 865.73 334.238 864.29C335.838 862.83 338.048 862.1 340.868 862.1C342.808 862.1 344.608 862.5 346.268 863.3L345.068 867.35C343.828 866.59 342.528 866.21 341.168 866.21C340.028 866.21 339.138 866.55 338.498 867.23C337.878 867.91 337.568 868.9 337.568 870.2C337.568 871.46 337.898 872.45 338.558 873.17C339.218 873.89 340.088 874.25 341.168 874.25C342.528 874.25 343.828 873.87 345.068 873.11ZM355.645 871.7H355.585V878H349.885V855.5H355.585V868.1H355.645L359.785 862.4H366.235L360.235 869.9L366.385 878H359.935L355.645 871.7ZM380.818 867.11C378.998 866.45 377.298 866.12 375.718 866.12C374.858 866.12 374.268 866.2 373.948 866.36C373.628 866.5 373.468 866.73 373.468 867.05C373.468 867.35 373.598 867.58 373.858 867.74C374.118 867.9 374.588 868.02 375.268 868.1C377.728 868.4 379.488 868.98 380.548 869.84C381.628 870.7 382.168 871.87 382.168 873.35C382.168 874.87 381.558 876.08 380.338 876.98C379.138 877.86 377.398 878.3 375.118 878.3C372.418 878.3 369.968 877.8 367.768 876.8L368.818 872.78C370.618 873.74 372.518 874.22 374.518 874.22C375.818 874.22 376.468 873.88 376.468 873.2C376.468 872.94 376.368 872.76 376.168 872.66C375.968 872.56 375.468 872.44 374.668 872.3C372.248 871.92 370.518 871.3 369.478 870.44C368.438 869.56 367.918 868.38 367.918 866.9C367.918 865.4 368.518 864.23 369.718 863.39C370.918 862.53 372.718 862.1 375.118 862.1C377.498 862.1 379.748 862.45 381.868 863.15L380.818 867.11ZM407.361 867.11C405.541 866.45 403.841 866.12 402.261 866.12C401.401 866.12 400.811 866.2 400.491 866.36C400.171 866.5 400.011 866.73 400.011 867.05C400.011 867.35 400.141 867.58 400.401 867.74C400.661 867.9 401.131 868.02 401.811 868.1C404.271 868.4 406.031 868.98 407.091 869.84C408.171 870.7 408.711 871.87 408.711 873.35C408.711 874.87 408.101 876.08 406.881 876.98C405.681 877.86 403.941 878.3 401.661 878.3C398.961 878.3 396.511 877.8 394.311 876.8L395.361 872.78C397.161 873.74 399.061 874.22 401.061 874.22C402.361 874.22 403.011 873.88 403.011 873.2C403.011 872.94 402.911 872.76 402.711 872.66C402.511 872.56 402.011 872.44 401.211 872.3C398.791 871.92 397.061 871.3 396.021 870.44C394.981 869.56 394.461 868.38 394.461 866.9C394.461 865.4 395.061 864.23 396.261 863.39C397.461 862.53 399.261 862.1 401.661 862.1C404.041 862.1 406.291 862.45 408.411 863.15L407.361 867.11ZM419.567 878.3C417.587 878.3 416.117 877.85 415.157 876.95C414.197 876.03 413.717 874.58 413.717 872.6V866.9H410.567V863H413.717V857.3H419.537V863H424.367V866.9H419.537V871.7C419.537 872.66 419.647 873.3 419.867 873.62C420.087 873.94 420.487 874.1 421.067 874.1C421.947 874.1 422.847 873.95 423.767 873.65L424.367 877.7C422.887 878.1 421.287 878.3 419.567 878.3ZM432.37 868.7H437.44C437.44 866.8 436.59 865.85 434.89 865.85C433.35 865.85 432.51 866.8 432.37 868.7ZM432.43 872C432.77 873.6 433.91 874.4 435.85 874.4C437.35 874.4 438.78 874.05 440.14 873.35L441.34 877.1C439.5 877.9 437.5 878.3 435.34 878.3C432.76 878.3 430.69 877.57 429.13 876.11C427.57 874.65 426.79 872.68 426.79 870.2C426.79 867.7 427.5 865.73 428.92 864.29C430.36 862.83 432.3 862.1 434.74 862.1C437.24 862.1 439.19 862.81 440.59 864.23C441.99 865.63 442.69 867.62 442.69 870.2C442.69 870.74 442.64 871.34 442.54 872H432.43ZM453.365 867.8H454.265C454.265 867.12 454.135 866.65 453.875 866.39C453.615 866.13 453.145 866 452.465 866C450.365 866 448.315 866.45 446.315 867.35L445.565 863.45C447.765 862.55 450.165 862.1 452.765 862.1C455.365 862.1 457.215 862.59 458.315 863.57C459.415 864.53 459.965 866.14 459.965 868.4V873.8C459.965 875.24 460.115 876.64 460.415 878H455.015C454.895 877.32 454.795 876.62 454.715 875.9H454.655C454.115 876.62 453.415 877.2 452.555 877.64C451.695 878.08 450.815 878.3 449.915 878.3C448.375 878.3 447.135 877.88 446.195 877.04C445.275 876.18 444.815 875 444.815 873.5C444.815 871.78 445.545 870.4 447.005 869.36C448.485 868.32 450.605 867.8 453.365 867.8ZM449.915 872.9C449.915 873.8 450.415 874.25 451.415 874.25C452.275 874.25 452.965 874.01 453.485 873.53C454.005 873.05 454.265 872.39 454.265 871.55V871.1H453.365C452.225 871.1 451.365 871.27 450.785 871.61C450.205 871.93 449.915 872.36 449.915 872.9ZM464.505 878V855.5H470.505V878H464.505ZM474.905 859.7V855.5H480.905V859.7H474.905ZM474.905 878V862.4H480.905V878H474.905ZM490.721 864.5C491.281 863.76 491.971 863.18 492.791 862.76C493.631 862.32 494.481 862.1 495.341 862.1C497.321 862.1 498.741 862.66 499.601 863.78C500.461 864.88 500.891 866.82 500.891 869.6V878H495.251V870.2C495.251 868.7 495.111 867.7 494.831 867.2C494.571 866.7 494.091 866.45 493.391 866.45C492.771 866.45 492.211 866.79 491.711 867.47C491.231 868.15 490.991 868.96 490.991 869.9V878H485.291V862.4H490.541L490.661 864.5H490.721ZM514.26 875.6H514.23C513.07 877 511.58 877.7 509.76 877.7C507.98 877.7 506.51 877.01 505.35 875.63C504.19 874.23 503.61 872.32 503.61 869.9C503.61 867.44 504.17 865.53 505.29 864.17C506.41 862.79 507.9 862.1 509.76 862.1C511.54 862.1 513.08 862.9 514.38 864.5H514.44L514.56 862.4H519.81V876.2C519.81 879.06 519.02 881.22 517.44 882.68C515.86 884.16 513.55 884.9 510.51 884.9C508.59 884.9 506.79 884.6 505.11 884L506.01 879.98C507.41 880.56 508.81 880.85 510.21 880.85C511.67 880.85 512.71 880.5 513.33 879.8C513.95 879.12 514.26 877.92 514.26 876.2V875.6ZM509.01 869.9C509.01 871.04 509.24 871.93 509.7 872.57C510.18 873.19 510.8 873.5 511.56 873.5C512.34 873.5 512.96 873.21 513.42 872.63C513.88 872.03 514.11 871.17 514.11 870.05V869.75C514.11 868.65 513.88 867.8 513.42 867.2C512.96 866.6 512.34 866.3 511.56 866.3C510.76 866.3 510.13 866.61 509.67 867.23C509.23 867.83 509.01 868.72 509.01 869.9Z" fill="white"/>
<defs>
<filter id="filter0_d_612_161" x="-191.4" y="112.6" width="987.837" height="927.3" filterUnits="userSpaceOnUse" color-interpolation-filters="sRGB">
<feFlood flood-opacity="0" result="BackgroundImageFix"/>
<feColorMatrix in="SourceAlpha" type="matrix" values="0 0 0 0 0 0 0 0 0 0 0 0 0 0 0 0 0 0 127 0" result="hardAlpha"/>
<feOffset/>
<feGaussianBlur stdDeviation="34.95"/>
<feComposite in2="hardAlpha" operator="out"/>
<feColorMatrix type="matrix" values="0 0 0 0 0 0 0 0 0 0 0 0 0 0 0 0 0 0 0.15 0"/>
<feBlend mode="normal" in2="BackgroundImageFix" result="effect1_dropShadow_612_161"/>
<feBlend mode="normal" in="SourceGraphic" in2="effect1_dropShadow_612_161" result="shape"/>
</filter>
<filter id="filter1_d_612_161" x="-97.9" y="-57.9" width="835.3" height="452.8" filterUnits="userSpaceOnUse" color-interpolation-filters="sRGB">
<feFlood flood-opacity="0" result="BackgroundImageFix"/>
<feColorMatrix in="SourceAlpha" type="matrix" values="0 0 0 0 0 0 0 0 0 0 0 0 0 0 0 0 0 0 127 0" result="hardAlpha"/>
<feOffset/>
<feGaussianBlur stdDeviation="34.95"/>
<feComposite in2="hardAlpha" operator="out"/>
<feColorMatrix type="matrix" values="0 0 0 0 0 0 0 0 0 0 0 0 0 0 0 0 0 0 0.15 0"/>
<feBlend mode="normal" in2="BackgroundImageFix" result="effect1_dropShadow_612_161"/>
<feBlend mode="normal" in="SourceGraphic" in2="effect1_dropShadow_612_161" result="shape"/>
</filter>
<linearGradient id="paint0_linear_612_161" x1="285.768" y1="76" x2="285.768" y2="970" gradientUnits="userSpaceOnUse">
<stop stop-color="#EA38FA"/>
<stop offset="1" stop-color="#CE43C8" stop-opacity="0.47"/>
</linearGradient>
<linearGradient id="paint1_linear_612_161" x1="367" y1="28.6981" x2="367" y2="228.5" gradientUnits="userSpaceOnUse">
<stop stop-color="#EA38FA"/>
<stop offset="1" stop-color="#CE43C8" stop-opacity="0.8"/>
</linearGradient>
</defs>
</svg>
