<svg width="641" height="900" viewBox="0 0 641 900" fill="none" xmlns="http://www.w3.org/2000/svg">
<rect x="1.01953" width="639.02" height="900" fill="#6A0000"/>
<mask id="mask0_678_36" style="mask-type:alpha" maskUnits="userSpaceOnUse" x="1" y="0" width="640" height="900">
<rect x="1.01953" width="639.02" height="900" fill="white"/>
</mask>
<g mask="url(#mask0_678_36)">
<path d="M129.415 56.4663L179.28 80.7871L152.582 135.412C127.22 187.306 86.78 244.952 -12.0036 243.702C-14.178 229.112 -23.77 202.872 -31.7193 188.848C53.1393 191.762 84.029 149.329 103.218 110.067L129.415 56.4663ZM242.434 108.207L294.006 133.361L191.889 342.301L140.316 317.148L242.434 108.207ZM36.1034 58.7305L349.98 211.818L327.121 258.591L13.2438 105.503L36.1034 58.7305ZM86.6668 -25.6875C150.353 4.10576 256.025 51.8403 353.666 95.2355L330.768 137.761C236.914 99.596 136.222 57.2497 67.2696 27.8473L86.6668 -25.6875ZM211.366 -53.2306L261.713 -13.4541C225.901 11.358 185.49 35.1953 156.034 48.7327L119.173 15.1115C149.114 -1.14895 186.595 -29.3751 211.366 -53.2306ZM271.644 31.1316L324.969 25.0079C347.777 64.8817 372.084 119.861 377.694 156.844L318.944 164.549C315.398 130.265 294.134 73.387 271.644 31.1316ZM467.938 338.265L625.047 414.892L608.194 449.374L451.085 372.747L467.938 338.265ZM613.776 409.395L622.314 413.559L631.004 415.684L652.169 443.341C588.672 489.318 505.291 480.783 416.115 452.087C417.698 439.329 417.335 418.436 414.668 405.72C491.953 435.381 566.849 445.698 611.106 414.857L613.776 409.395ZM514.732 398.293C529.517 434.677 576.639 474.994 635.098 509.425C621.029 513.979 599.89 526.077 588.411 534.853C527.523 495.008 484.071 447.18 466.921 394L514.732 398.293ZM560.45 138.591L760.594 236.208L743.741 270.69L543.597 173.073L560.45 138.591ZM552.371 258.105L695.477 327.903L684.131 351.118L541.025 281.321L552.371 258.105ZM537.687 288.149L680.793 357.946L669.447 381.162L526.341 311.365L537.687 288.149ZM606.894 142.218L650.612 163.541L619.076 228.067L575.358 206.744L606.894 142.218ZM613.423 260.401L656.116 281.224L604.223 387.401L561.53 366.579L613.423 260.401ZM684.083 179.866L728.142 201.355L696.606 265.88L652.547 244.391L684.083 179.866ZM569.109 192.704L602.523 221.261C576.393 245.3 542.242 265.849 513.255 274.964C510.103 264.971 500.908 244.843 494.864 234.708C521.158 228.507 548.549 212.271 569.109 192.704ZM640.681 229.726L682.253 258.035C667.898 268.368 655.394 276.644 645.758 282.514L611.184 257.195C620.971 249.285 633.11 238.294 640.681 229.726ZM719.995 295.045L705.478 324.748L578.083 262.613L545.379 329.528L681.312 395.828L666.796 425.53L487.828 338.242L549.565 211.921L719.995 295.045ZM411.379 177.924L503.937 223.067L485.916 259.939L393.359 214.796L411.379 177.924ZM460.149 83.3295L549.633 126.974L531.612 163.846L442.128 120.201L460.149 83.3295ZM388.353 225.038L480.911 270.181L462.89 307.053L370.332 261.91L388.353 225.038ZM420.895 122.106L536.336 178.411L517.481 216.99L402.04 160.685L420.895 122.106ZM387.368 284.17L456.701 317.986L405.141 423.481L335.808 389.665L354.496 351.427L384.552 366.087L398.735 337.067L368.679 322.408L387.368 284.17ZM363.46 272.51L401.712 291.167L343.812 409.635L305.56 390.978L363.46 272.51ZM-65.0794 746.924L211.911 882.021L187.716 931.525L-89.2739 796.428L-65.0794 746.924ZM-4.60649 575.594L309.27 728.682L285.243 777.844L-28.6341 624.756L-4.60649 575.594ZM172.377 539.729L225.999 565.882L81.8332 860.857L28.2112 834.704L172.377 539.729Z" fill="black"/>
<g filter="url(#filter0_d_678_36)">
<path d="M-417 1111L562.83 1092.47L658 949.422L674 525.5L570 435.5L611.5 385.5L592.5 354.5L557.5 341L451.5 463L468 498.5L507.5 510.5L545 471L635 556L539 677.5L435 478.5L352.5 428.5L385.232 323V227L352.5 134L232 82L129.5 147.5L99.6996 256.585L113.384 363.5L147.5 428.5L-86.8146 529.5L-34.0844 613.258L-109.462 895.166L-139.501 1066.93L-417 1111Z" fill="url(#paint0_linear_678_36)" shape-rendering="crispEdges"/>
</g>
</g>
<path d="M113.5 636.7V698.85H145.95V717H90.9499V636.7H113.5ZM185.314 685.1H199.834L192.684 655.4H192.464L185.314 685.1ZM181.354 701.6L177.724 717H154.844L181.244 636.7H204.344L230.744 717H207.424L203.684 701.6H181.354ZM278.842 658.7H278.622L270.482 717H245.182L228.132 636.7H250.352L258.492 695H258.712L265.752 636.7H292.152L299.192 695H299.412L307.552 636.7H329.332L312.282 717H286.982L278.842 658.7ZM374.112 669.7H374.332L387.422 636.7H411.952L385.332 687.3V717H362.672V687.3L336.052 636.7H361.022L374.112 669.7ZM472.517 667.5V684H443.917V699.4H474.717V717H421.917V636.7H474.717V654.3H443.917V667.5H472.517ZM511.15 688.95V717H489.7V637.25C499.233 636.15 508.767 635.6 518.3 635.6C540.3 635.6 551.3 643.85 551.3 660.35C551.3 664.97 549.87 669.26 547.01 673.22C544.15 677.18 540.447 680.003 535.9 681.69V681.91C538.1 683.157 539.933 684.77 541.4 686.75C542.867 688.657 544.26 691.407 545.58 695L553.5 717H530.95L524.13 696.1C523.323 693.533 522.297 691.7 521.05 690.6C519.803 689.5 518.153 688.95 516.1 688.95H511.15ZM511.15 673H517.2C520.94 673 523.873 672.083 526 670.25C528.2 668.343 529.3 665.777 529.3 662.55C529.3 655.583 525.267 652.1 517.2 652.1C514.853 652.1 512.837 652.283 511.15 652.65V673Z" fill="white"/>
<path d="M71.6531 756.95C69.6331 755.95 67.5831 755.45 65.5031 755.45C64.5631 755.45 63.8531 755.62 63.3731 755.96C62.8931 756.28 62.6531 756.71 62.6531 757.25C62.6531 758.09 63.3031 758.69 64.6031 759.05C67.7431 759.89 69.9531 760.9 71.2331 762.08C72.5131 763.24 73.1531 764.73 73.1531 766.55C73.1531 768.75 72.3931 770.43 70.8731 771.59C69.3531 772.73 67.0631 773.3 64.0031 773.3C62.7231 773.3 61.3431 773.09 59.8631 772.67C58.4031 772.23 57.2331 771.69 56.3531 771.05L57.7031 766.4C58.7231 767.1 59.8231 767.65 61.0031 768.05C62.2031 768.45 63.3031 768.65 64.3031 768.65C66.1031 768.65 67.0031 768 67.0031 766.7C67.0031 765.86 66.2031 765.21 64.6031 764.75C61.6831 763.91 59.6031 762.9 58.3631 761.72C57.1231 760.54 56.5031 759.05 56.5031 757.25C56.5031 755.27 57.2531 753.7 58.7531 752.54C60.2731 751.38 62.4231 750.8 65.2031 750.8C68.1631 750.8 70.6631 751.3 72.7031 752.3L71.6531 756.95ZM83.8324 773.3C81.8524 773.3 80.3824 772.85 79.4224 771.95C78.4624 771.03 77.9824 769.58 77.9824 767.6V761.9H74.8324V758H77.9824V752.3H83.8024V758H88.6324V761.9H83.8024V766.7C83.8024 767.66 83.9124 768.3 84.1324 768.62C84.3524 768.94 84.7524 769.1 85.3324 769.1C86.2124 769.1 87.1124 768.95 88.0324 768.65L88.6324 772.7C87.1524 773.1 85.5524 773.3 83.8324 773.3ZM96.6358 763.7H101.706C101.706 761.8 100.856 760.85 99.1558 760.85C97.6158 760.85 96.7758 761.8 96.6358 763.7ZM96.6958 767C97.0358 768.6 98.1758 769.4 100.116 769.4C101.616 769.4 103.046 769.05 104.406 768.35L105.606 772.1C103.766 772.9 101.766 773.3 99.6058 773.3C97.0258 773.3 94.9558 772.57 93.3958 771.11C91.8358 769.65 91.0558 767.68 91.0558 765.2C91.0558 762.7 91.7658 760.73 93.1858 759.29C94.6258 757.83 96.5658 757.1 99.0058 757.1C101.506 757.1 103.456 757.81 104.856 759.23C106.256 760.63 106.956 762.62 106.956 765.2C106.956 765.74 106.906 766.34 106.806 767H96.6958ZM117.63 762.8H118.53C118.53 762.12 118.4 761.65 118.14 761.39C117.88 761.13 117.41 761 116.73 761C114.63 761 112.58 761.45 110.58 762.35L109.83 758.45C112.03 757.55 114.43 757.1 117.03 757.1C119.63 757.1 121.48 757.59 122.58 758.57C123.68 759.53 124.23 761.14 124.23 763.4V768.8C124.23 770.24 124.38 771.64 124.68 773H119.28C119.16 772.32 119.06 771.62 118.98 770.9H118.92C118.38 771.62 117.68 772.2 116.82 772.64C115.96 773.08 115.08 773.3 114.18 773.3C112.64 773.3 111.4 772.88 110.46 772.04C109.54 771.18 109.08 770 109.08 768.5C109.08 766.78 109.81 765.4 111.27 764.36C112.75 763.32 114.87 762.8 117.63 762.8ZM114.18 767.9C114.18 768.8 114.68 769.25 115.68 769.25C116.54 769.25 117.23 769.01 117.75 768.53C118.27 768.05 118.53 767.39 118.53 766.55V766.1H117.63C116.49 766.1 115.63 766.27 115.05 766.61C114.47 766.93 114.18 767.36 114.18 767.9ZM128.77 773V750.5H134.77V773H128.77ZM156.507 762.8H157.407C157.407 762.12 157.277 761.65 157.017 761.39C156.757 761.13 156.287 761 155.607 761C153.507 761 151.457 761.45 149.457 762.35L148.707 758.45C150.907 757.55 153.307 757.1 155.907 757.1C158.507 757.1 160.357 757.59 161.457 758.57C162.557 759.53 163.107 761.14 163.107 763.4V768.8C163.107 770.24 163.257 771.64 163.557 773H158.157C158.037 772.32 157.937 771.62 157.857 770.9H157.797C157.257 771.62 156.557 772.2 155.697 772.64C154.837 773.08 153.957 773.3 153.057 773.3C151.517 773.3 150.277 772.88 149.337 772.04C148.417 771.18 147.957 770 147.957 768.5C147.957 766.78 148.687 765.4 150.147 764.36C151.627 763.32 153.747 762.8 156.507 762.8ZM153.057 767.9C153.057 768.8 153.557 769.25 154.557 769.25C155.417 769.25 156.107 769.01 156.627 768.53C157.147 768.05 157.407 767.39 157.407 766.55V766.1H156.507C155.367 766.1 154.507 766.27 153.927 766.61C153.347 766.93 153.057 767.36 153.057 767.9ZM167.647 773V750.5H173.647V773H167.647ZM178.048 773V750.5H184.048V773H178.048ZM210.135 768.11L211.335 772.1C209.615 772.9 207.815 773.3 205.935 773.3C203.175 773.3 200.985 772.57 199.365 771.11C197.745 769.65 196.935 767.68 196.935 765.2C196.935 762.7 197.725 760.73 199.305 759.29C200.905 757.83 203.115 757.1 205.935 757.1C207.875 757.1 209.675 757.5 211.335 758.3L210.135 762.35C208.895 761.59 207.595 761.21 206.235 761.21C205.095 761.21 204.205 761.55 203.565 762.23C202.945 762.91 202.635 763.9 202.635 765.2C202.635 766.46 202.965 767.45 203.625 768.17C204.285 768.89 205.155 769.25 206.235 769.25C207.595 769.25 208.895 768.87 210.135 768.11ZM215.911 759.26C217.351 757.82 219.381 757.1 222.001 757.1C224.621 757.1 226.651 757.82 228.091 759.26C229.531 760.7 230.251 762.68 230.251 765.2C230.251 767.72 229.531 769.7 228.091 771.14C226.651 772.58 224.621 773.3 222.001 773.3C219.381 773.3 217.351 772.58 215.911 771.14C214.471 769.7 213.751 767.72 213.751 765.2C213.751 762.68 214.471 760.7 215.911 759.26ZM219.991 768.29C220.431 768.91 221.101 769.22 222.001 769.22C222.901 769.22 223.571 768.91 224.011 768.29C224.451 767.67 224.671 766.64 224.671 765.2C224.671 763.76 224.451 762.73 224.011 762.11C223.571 761.49 222.901 761.18 222.001 761.18C221.101 761.18 220.431 761.49 219.991 762.11C219.551 762.73 219.331 763.76 219.331 765.2C219.331 766.64 219.551 767.67 219.991 768.29ZM233.594 754.7V750.5H239.594V754.7H233.594ZM233.594 773V757.4H239.594V773H233.594ZM249.411 759.5C249.971 758.76 250.661 758.18 251.481 757.76C252.321 757.32 253.171 757.1 254.031 757.1C256.011 757.1 257.431 757.66 258.291 758.78C259.151 759.88 259.581 761.82 259.581 764.6V773H253.941V765.2C253.941 763.7 253.801 762.7 253.521 762.2C253.261 761.7 252.781 761.45 252.081 761.45C251.461 761.45 250.901 761.79 250.401 762.47C249.921 763.15 249.681 763.96 249.681 764.9V773H243.981V757.4H249.231L249.351 759.5H249.411ZM275.65 762.11C273.83 761.45 272.13 761.12 270.55 761.12C269.69 761.12 269.1 761.2 268.78 761.36C268.46 761.5 268.3 761.73 268.3 762.05C268.3 762.35 268.43 762.58 268.69 762.74C268.95 762.9 269.42 763.02 270.1 763.1C272.56 763.4 274.32 763.98 275.38 764.84C276.46 765.7 277 766.87 277 768.35C277 769.87 276.39 771.08 275.17 771.98C273.97 772.86 272.23 773.3 269.95 773.3C267.25 773.3 264.8 772.8 262.6 771.8L263.65 767.78C265.45 768.74 267.35 769.22 269.35 769.22C270.65 769.22 271.3 768.88 271.3 768.2C271.3 767.94 271.2 767.76 271 767.66C270.8 767.56 270.3 767.44 269.5 767.3C267.08 766.92 265.35 766.3 264.31 765.44C263.27 764.56 262.75 763.38 262.75 761.9C262.75 760.4 263.35 759.23 264.55 758.39C265.75 757.53 267.55 757.1 269.95 757.1C272.33 757.1 274.58 757.45 276.7 758.15L275.65 762.11ZM299.193 750.8C300.473 750.8 301.823 750.95 303.243 751.25L302.493 755.45C301.773 755.15 301.023 755 300.243 755C299.543 755 299.063 755.17 298.803 755.51C298.543 755.83 298.413 756.46 298.413 757.4V758H302.943V761.9H298.413V773H292.593V761.9H289.143V758H292.593V757.4C292.593 755.26 293.163 753.63 294.303 752.51C295.443 751.37 297.073 750.8 299.193 750.8ZM318.573 757.1V761.6C316.333 761.6 314.643 762.02 313.503 762.86C312.363 763.7 311.793 764.88 311.793 766.4V773H305.973V757.4H311.343L311.373 760.4H311.433C313.153 758.2 315.533 757.1 318.573 757.1ZM322.288 759.26C323.728 757.82 325.758 757.1 328.378 757.1C330.998 757.1 333.028 757.82 334.468 759.26C335.908 760.7 336.628 762.68 336.628 765.2C336.628 767.72 335.908 769.7 334.468 771.14C333.028 772.58 330.998 773.3 328.378 773.3C325.758 773.3 323.728 772.58 322.288 771.14C320.848 769.7 320.128 767.72 320.128 765.2C320.128 762.68 320.848 760.7 322.288 759.26ZM326.368 768.29C326.808 768.91 327.478 769.22 328.378 769.22C329.278 769.22 329.948 768.91 330.388 768.29C330.828 767.67 331.048 766.64 331.048 765.2C331.048 763.76 330.828 762.73 330.388 762.11C329.948 761.49 329.278 761.18 328.378 761.18C327.478 761.18 326.808 761.49 326.368 762.11C325.928 762.73 325.708 763.76 325.708 765.2C325.708 766.64 325.928 767.67 326.368 768.29ZM357.011 773V764.3C357.011 763.1 356.901 762.31 356.681 761.93C356.461 761.55 356.061 761.36 355.481 761.36C354.961 761.36 354.531 761.62 354.191 762.14C353.851 762.64 353.681 763.36 353.681 764.3V773H348.221V764.3C348.221 763.1 348.111 762.31 347.891 761.93C347.691 761.55 347.301 761.36 346.721 761.36C346.201 761.36 345.771 761.62 345.431 762.14C345.091 762.64 344.921 763.36 344.921 764.3V773H339.371V757.4H344.471L344.591 759.5H344.651C345.211 758.76 345.861 758.18 346.601 757.76C347.341 757.32 348.081 757.1 348.821 757.1C349.781 757.1 350.541 757.27 351.101 757.61C351.681 757.93 352.211 758.51 352.691 759.35H352.751C353.611 758.51 354.401 757.93 355.121 757.61C355.841 757.27 356.661 757.1 357.581 757.1C359.301 757.1 360.541 757.57 361.301 758.51C362.081 759.45 362.471 761.08 362.471 763.4V773H357.011ZM383.441 762.8H384.341C384.341 762.12 384.211 761.65 383.951 761.39C383.691 761.13 383.221 761 382.541 761C380.441 761 378.391 761.45 376.391 762.35L375.641 758.45C377.841 757.55 380.241 757.1 382.841 757.1C385.441 757.1 387.291 757.59 388.391 758.57C389.491 759.53 390.041 761.14 390.041 763.4V768.8C390.041 770.24 390.191 771.64 390.491 773H385.091C384.971 772.32 384.871 771.62 384.791 770.9H384.731C384.191 771.62 383.491 772.2 382.631 772.64C381.771 773.08 380.891 773.3 379.991 773.3C378.451 773.3 377.211 772.88 376.271 772.04C375.351 771.18 374.891 770 374.891 768.5C374.891 766.78 375.621 765.4 377.081 764.36C378.561 763.32 380.681 762.8 383.441 762.8ZM379.991 767.9C379.991 768.8 380.491 769.25 381.491 769.25C382.351 769.25 383.041 769.01 383.561 768.53C384.081 768.05 384.341 767.39 384.341 766.55V766.1H383.441C382.301 766.1 381.441 766.27 380.861 766.61C380.281 766.93 379.991 767.36 379.991 767.9ZM399.411 759.5C399.971 758.76 400.661 758.18 401.481 757.76C402.321 757.32 403.171 757.1 404.031 757.1C406.011 757.1 407.431 757.66 408.291 758.78C409.151 759.88 409.581 761.82 409.581 764.6V773H403.941V765.2C403.941 763.7 403.801 762.7 403.521 762.2C403.261 761.7 402.781 761.45 402.081 761.45C401.461 761.45 400.901 761.79 400.401 762.47C399.921 763.15 399.681 763.96 399.681 764.9V773H393.981V757.4H399.231L399.351 759.5H399.411ZM427.28 763.7H432.35C432.35 761.8 431.5 760.85 429.8 760.85C428.26 760.85 427.42 761.8 427.28 763.7ZM427.34 767C427.68 768.6 428.82 769.4 430.76 769.4C432.26 769.4 433.69 769.05 435.05 768.35L436.25 772.1C434.41 772.9 432.41 773.3 430.25 773.3C427.67 773.3 425.6 772.57 424.04 771.11C422.48 769.65 421.7 767.68 421.7 765.2C421.7 762.7 422.41 760.73 423.83 759.29C425.27 757.83 427.21 757.1 429.65 757.1C432.15 757.1 434.1 757.81 435.5 759.23C436.9 760.63 437.6 762.62 437.6 765.2C437.6 765.74 437.55 766.34 437.45 767H427.34ZM441.075 773V750.5H447.075V773H441.075ZM451.475 754.7V750.5H457.475V754.7H451.475ZM451.475 773V757.4H457.475V773H451.475ZM479.502 773V764.3C479.502 763.1 479.392 762.31 479.172 761.93C478.952 761.55 478.552 761.36 477.972 761.36C477.452 761.36 477.022 761.62 476.682 762.14C476.342 762.64 476.172 763.36 476.172 764.3V773H470.712V764.3C470.712 763.1 470.602 762.31 470.382 761.93C470.182 761.55 469.792 761.36 469.212 761.36C468.692 761.36 468.262 761.62 467.922 762.14C467.582 762.64 467.412 763.36 467.412 764.3V773H461.862V757.4H466.962L467.082 759.5H467.142C467.702 758.76 468.352 758.18 469.092 757.76C469.832 757.32 470.572 757.1 471.312 757.1C472.272 757.1 473.032 757.27 473.592 757.61C474.172 757.93 474.702 758.51 475.182 759.35H475.242C476.102 758.51 476.892 757.93 477.612 757.61C478.332 757.27 479.152 757.1 480.072 757.1C481.792 757.1 483.032 757.57 483.792 758.51C484.572 759.45 484.962 761.08 484.962 763.4V773H479.502ZM489.18 754.7V750.5H495.18V754.7H489.18ZM489.18 773V757.4H495.18V773H489.18ZM504.997 759.5C505.557 758.76 506.247 758.18 507.067 757.76C507.907 757.32 508.757 757.1 509.617 757.1C511.597 757.1 513.017 757.66 513.877 758.78C514.737 759.88 515.167 761.82 515.167 764.6V773H509.527V765.2C509.527 763.7 509.387 762.7 509.107 762.2C508.847 761.7 508.367 761.45 507.667 761.45C507.047 761.45 506.487 761.79 505.987 762.47C505.507 763.15 505.267 763.96 505.267 764.9V773H499.567V757.4H504.817L504.937 759.5H504.997ZM526.586 762.8H527.486C527.486 762.12 527.356 761.65 527.096 761.39C526.836 761.13 526.366 761 525.686 761C523.586 761 521.536 761.45 519.536 762.35L518.786 758.45C520.986 757.55 523.386 757.1 525.986 757.1C528.586 757.1 530.436 757.59 531.536 758.57C532.636 759.53 533.186 761.14 533.186 763.4V768.8C533.186 770.24 533.336 771.64 533.636 773H528.236C528.116 772.32 528.016 771.62 527.936 770.9H527.876C527.336 771.62 526.636 772.2 525.776 772.64C524.916 773.08 524.036 773.3 523.136 773.3C521.596 773.3 520.356 772.88 519.416 772.04C518.496 771.18 518.036 770 518.036 768.5C518.036 766.78 518.766 765.4 520.226 764.36C521.706 763.32 523.826 762.8 526.586 762.8ZM523.136 767.9C523.136 768.8 523.636 769.25 524.636 769.25C525.496 769.25 526.186 769.01 526.706 768.53C527.226 768.05 527.486 767.39 527.486 766.55V766.1H526.586C525.446 766.1 524.586 766.27 524.006 766.61C523.426 766.93 523.136 767.36 523.136 767.9ZM544.467 773.3C542.487 773.3 541.017 772.85 540.057 771.95C539.097 771.03 538.617 769.58 538.617 767.6V761.9H535.467V758H538.617V752.3H544.437V758H549.267V761.9H544.437V766.7C544.437 767.66 544.547 768.3 544.767 768.62C544.987 768.94 545.387 769.1 545.967 769.1C546.847 769.1 547.747 768.95 548.667 768.65L549.267 772.7C547.787 773.1 546.187 773.3 544.467 773.3ZM557.271 763.7H562.341C562.341 761.8 561.491 760.85 559.791 760.85C558.251 760.85 557.411 761.8 557.271 763.7ZM557.331 767C557.671 768.6 558.811 769.4 560.751 769.4C562.251 769.4 563.681 769.05 565.041 768.35L566.241 772.1C564.401 772.9 562.401 773.3 560.241 773.3C557.661 773.3 555.591 772.57 554.031 771.11C552.471 769.65 551.691 767.68 551.691 765.2C551.691 762.7 552.401 760.73 553.821 759.29C555.261 757.83 557.201 757.1 559.641 757.1C562.141 757.1 564.091 757.81 565.491 759.23C566.891 760.63 567.591 762.62 567.591 765.2C567.591 765.74 567.541 766.34 567.441 767H557.331ZM569.858 765.2C569.858 762.62 570.408 760.63 571.508 759.23C572.628 757.81 574.128 757.1 576.008 757.1C577.708 757.1 579.138 757.8 580.298 759.2H580.358V750.5H586.058V773H580.808L580.688 770.9H580.628C579.368 772.5 577.828 773.3 576.008 773.3C574.208 773.3 572.728 772.58 571.568 771.14C570.428 769.7 569.858 767.72 569.858 765.2ZM575.258 765.2C575.258 766.4 575.498 767.33 575.978 767.99C576.458 768.63 577.068 768.95 577.808 768.95C578.588 768.95 579.208 768.64 579.668 768.02C580.128 767.4 580.358 766.51 580.358 765.35V765.05C580.358 763.91 580.128 763.03 579.668 762.41C579.208 761.77 578.588 761.45 577.808 761.45C577.008 761.45 576.378 761.77 575.918 762.41C575.478 763.03 575.258 763.96 575.258 765.2ZM89.0209 800.4L89.1409 802.5H89.2009C90.5009 800.9 92.0409 800.1 93.8209 800.1C95.7009 800.1 97.1909 800.81 98.2909 802.23C99.4109 803.63 99.9709 805.62 99.9709 808.2C99.9709 810.72 99.3909 812.7 98.2309 814.14C97.0909 815.58 95.6209 816.3 93.8209 816.3C92.0609 816.3 90.6309 815.6 89.5309 814.2H89.4709V822.6H83.7709V800.4H89.0209ZM94.5709 808.2C94.5709 806.96 94.3409 806.03 93.8809 805.41C93.4409 804.77 92.8209 804.45 92.0209 804.45C91.2409 804.45 90.6209 804.77 90.1609 805.41C89.7009 806.03 89.4709 806.91 89.4709 808.05V808.35C89.4709 809.51 89.7009 810.4 90.1609 811.02C90.6209 811.64 91.2409 811.95 92.0209 811.95C92.7609 811.95 93.3709 811.63 93.8509 810.99C94.3309 810.33 94.5709 809.4 94.5709 808.2ZM103.443 816V793.5H109.443V816H103.443ZM121.629 805.8H122.529C122.529 805.12 122.399 804.65 122.139 804.39C121.879 804.13 121.409 804 120.729 804C118.629 804 116.579 804.45 114.579 805.35L113.829 801.45C116.029 800.55 118.429 800.1 121.029 800.1C123.629 800.1 125.479 800.59 126.579 801.57C127.679 802.53 128.229 804.14 128.229 806.4V811.8C128.229 813.24 128.379 814.64 128.679 816H123.279C123.159 815.32 123.059 814.62 122.979 813.9H122.919C122.379 814.62 121.679 815.2 120.819 815.64C119.959 816.08 119.079 816.3 118.179 816.3C116.639 816.3 115.399 815.88 114.459 815.04C113.539 814.18 113.079 813 113.079 811.5C113.079 809.78 113.809 808.4 115.269 807.36C116.749 806.32 118.869 805.8 121.629 805.8ZM118.179 810.9C118.179 811.8 118.679 812.25 119.679 812.25C120.539 812.25 121.229 812.01 121.749 811.53C122.269 811.05 122.529 810.39 122.529 809.55V809.1H121.629C120.489 809.1 119.629 809.27 119.049 809.61C118.469 809.93 118.179 810.36 118.179 810.9ZM138.581 810.9H138.641L141.461 800.4H147.461L139.361 822.6H133.361L136.061 816L130.061 800.4H136.361L138.581 810.9ZM153.809 806.7H158.879C158.879 804.8 158.029 803.85 156.329 803.85C154.789 803.85 153.949 804.8 153.809 806.7ZM153.869 810C154.209 811.6 155.349 812.4 157.289 812.4C158.789 812.4 160.219 812.05 161.579 811.35L162.779 815.1C160.939 815.9 158.939 816.3 156.779 816.3C154.199 816.3 152.129 815.57 150.569 814.11C149.009 812.65 148.229 810.68 148.229 808.2C148.229 805.7 148.939 803.73 150.359 802.29C151.799 800.83 153.739 800.1 156.179 800.1C158.679 800.1 160.629 800.81 162.029 802.23C163.429 803.63 164.129 805.62 164.129 808.2C164.129 808.74 164.079 809.34 163.979 810H153.869ZM179.603 800.1V804.6C177.363 804.6 175.673 805.02 174.533 805.86C173.393 806.7 172.823 807.88 172.823 809.4V816H167.003V800.4H172.373L172.403 803.4H172.463C174.183 801.2 176.563 800.1 179.603 800.1ZM180.084 816V809.7H186.684V816H180.084ZM206.757 809.16V816H200.907V794.25C202.967 793.95 205.167 793.8 207.507 793.8C214.307 793.8 217.707 796.25 217.707 801.15C217.707 803.81 216.937 805.83 215.397 807.21C213.877 808.57 211.647 809.25 208.707 809.25C207.927 809.25 207.277 809.22 206.757 809.16ZM206.757 804.81C207.137 804.87 207.587 804.9 208.107 804.9C209.407 804.9 210.407 804.6 211.107 804C211.807 803.4 212.157 802.55 212.157 801.45C212.157 799.35 210.807 798.3 208.107 798.3C207.667 798.3 207.217 798.35 206.757 798.45V804.81ZM227.508 805.8H228.408C228.408 805.12 228.278 804.65 228.018 804.39C227.758 804.13 227.288 804 226.608 804C224.508 804 222.458 804.45 220.458 805.35L219.708 801.45C221.908 800.55 224.308 800.1 226.908 800.1C229.508 800.1 231.358 800.59 232.458 801.57C233.558 802.53 234.108 804.14 234.108 806.4V811.8C234.108 813.24 234.258 814.64 234.558 816H229.158C229.038 815.32 228.938 814.62 228.858 813.9H228.798C228.258 814.62 227.558 815.2 226.698 815.64C225.838 816.08 224.958 816.3 224.058 816.3C222.518 816.3 221.278 815.88 220.338 815.04C219.418 814.18 218.958 813 218.958 811.5C218.958 809.78 219.688 808.4 221.148 807.36C222.628 806.32 224.748 805.8 227.508 805.8ZM224.058 810.9C224.058 811.8 224.558 812.25 225.558 812.25C226.418 812.25 227.108 812.01 227.628 811.53C228.148 811.05 228.408 810.39 228.408 809.55V809.1H227.508C226.368 809.1 225.508 809.27 224.928 809.61C224.348 809.93 224.058 810.36 224.058 810.9ZM244.46 810.9H244.52L247.34 800.4H253.34L245.24 822.6H239.24L241.94 816L235.94 800.4H242.24L244.46 810.9ZM265.83 811.2C268.51 809.18 270.52 807.56 271.86 806.34C273.2 805.1 274.08 804.11 274.5 803.37C274.92 802.63 275.13 801.84 275.13 801C275.13 799.5 274.28 798.75 272.58 798.75C271.08 798.75 269.13 799.5 266.73 801L265.23 796.2C266.25 795.52 267.54 794.95 269.1 794.49C270.66 794.03 272.12 793.8 273.48 793.8C275.98 793.8 277.9 794.39 279.24 795.57C280.6 796.73 281.28 798.34 281.28 800.4C281.28 802.04 280.76 803.6 279.72 805.08C278.68 806.56 276.65 808.58 273.63 811.14V811.2H281.43V816H265.83V811.2ZM306.976 811.11L308.176 815.1C306.456 815.9 304.656 816.3 302.776 816.3C300.016 816.3 297.826 815.57 296.206 814.11C294.586 812.65 293.776 810.68 293.776 808.2C293.776 805.7 294.566 803.73 296.146 802.29C297.746 800.83 299.956 800.1 302.776 800.1C304.716 800.1 306.516 800.5 308.176 801.3L306.976 805.35C305.736 804.59 304.436 804.21 303.076 804.21C301.936 804.21 301.046 804.55 300.406 805.23C299.786 805.91 299.476 806.9 299.476 808.2C299.476 809.46 299.806 810.45 300.466 811.17C301.126 811.89 301.996 812.25 303.076 812.25C304.436 812.25 305.736 811.87 306.976 811.11ZM312.752 802.26C314.192 800.82 316.222 800.1 318.842 800.1C321.462 800.1 323.492 800.82 324.932 802.26C326.372 803.7 327.092 805.68 327.092 808.2C327.092 810.72 326.372 812.7 324.932 814.14C323.492 815.58 321.462 816.3 318.842 816.3C316.222 816.3 314.192 815.58 312.752 814.14C311.312 812.7 310.592 810.72 310.592 808.2C310.592 805.68 311.312 803.7 312.752 802.26ZM316.832 811.29C317.272 811.91 317.942 812.22 318.842 812.22C319.742 812.22 320.412 811.91 320.852 811.29C321.292 810.67 321.512 809.64 321.512 808.2C321.512 806.76 321.292 805.73 320.852 805.11C320.412 804.49 319.742 804.18 318.842 804.18C317.942 804.18 317.272 804.49 316.832 805.11C316.392 805.73 316.172 806.76 316.172 808.2C316.172 809.64 316.392 810.67 316.832 811.29ZM330.435 797.7V793.5H336.435V797.7H330.435ZM330.435 816V800.4H336.435V816H330.435ZM346.252 802.5C346.812 801.76 347.502 801.18 348.322 800.76C349.162 800.32 350.012 800.1 350.872 800.1C352.852 800.1 354.272 800.66 355.132 801.78C355.992 802.88 356.422 804.82 356.422 807.6V816H350.782V808.2C350.782 806.7 350.642 805.7 350.362 805.2C350.102 804.7 349.622 804.45 348.922 804.45C348.302 804.45 347.742 804.79 347.242 805.47C346.762 806.15 346.522 806.96 346.522 807.9V816H340.822V800.4H346.072L346.192 802.5H346.252ZM372.49 805.11C370.67 804.45 368.97 804.12 367.39 804.12C366.53 804.12 365.94 804.2 365.62 804.36C365.3 804.5 365.14 804.73 365.14 805.05C365.14 805.35 365.27 805.58 365.53 805.74C365.79 805.9 366.26 806.02 366.94 806.1C369.4 806.4 371.16 806.98 372.22 807.84C373.3 808.7 373.84 809.87 373.84 811.35C373.84 812.87 373.23 814.08 372.01 814.98C370.81 815.86 369.07 816.3 366.79 816.3C364.09 816.3 361.64 815.8 359.44 814.8L360.49 810.78C362.29 811.74 364.19 812.22 366.19 812.22C367.49 812.22 368.14 811.88 368.14 811.2C368.14 810.94 368.04 810.76 367.84 810.66C367.64 810.56 367.14 810.44 366.34 810.3C363.92 809.92 362.19 809.3 361.15 808.44C360.11 807.56 359.59 806.38 359.59 804.9C359.59 803.4 360.19 802.23 361.39 801.39C362.59 800.53 364.39 800.1 366.79 800.1C369.17 800.1 371.42 800.45 373.54 801.15L372.49 805.11ZM394.833 816.3C392.853 816.3 391.383 815.85 390.423 814.95C389.463 814.03 388.983 812.58 388.983 810.6V804.9H385.833V801H388.983V795.3H394.803V801H399.633V804.9H394.803V809.7C394.803 810.66 394.913 811.3 395.133 811.62C395.353 811.94 395.753 812.1 396.333 812.1C397.213 812.1 398.113 811.95 399.033 811.65L399.633 815.7C398.153 816.1 396.553 816.3 394.833 816.3ZM404.217 802.26C405.657 800.82 407.687 800.1 410.307 800.1C412.927 800.1 414.957 800.82 416.397 802.26C417.837 803.7 418.557 805.68 418.557 808.2C418.557 810.72 417.837 812.7 416.397 814.14C414.957 815.58 412.927 816.3 410.307 816.3C407.687 816.3 405.657 815.58 404.217 814.14C402.777 812.7 402.057 810.72 402.057 808.2C402.057 805.68 402.777 803.7 404.217 802.26ZM408.297 811.29C408.737 811.91 409.407 812.22 410.307 812.22C411.207 812.22 411.877 811.91 412.317 811.29C412.757 810.67 412.977 809.64 412.977 808.2C412.977 806.76 412.757 805.73 412.317 805.11C411.877 804.49 411.207 804.18 410.307 804.18C409.407 804.18 408.737 804.49 408.297 805.11C407.857 805.73 407.637 806.76 407.637 808.2C407.637 809.64 407.857 810.67 408.297 811.29ZM447.201 808.2C447.201 810.72 446.621 812.7 445.461 814.14C444.321 815.58 442.851 816.3 441.051 816.3C439.231 816.3 437.691 815.5 436.431 813.9H436.371L436.251 816H431.001V793.5H436.701V802.2H436.761C437.921 800.8 439.351 800.1 441.051 800.1C442.931 800.1 444.421 800.81 445.521 802.23C446.641 803.63 447.201 805.62 447.201 808.2ZM441.801 808.2C441.801 806.96 441.571 806.03 441.111 805.41C440.671 804.77 440.051 804.45 439.251 804.45C438.471 804.45 437.851 804.77 437.391 805.41C436.931 806.03 436.701 806.91 436.701 808.05V808.35C436.701 809.51 436.931 810.4 437.391 811.02C437.851 811.64 438.471 811.95 439.251 811.95C439.991 811.95 440.601 811.63 441.081 810.99C441.561 810.33 441.801 809.4 441.801 808.2ZM450.67 816V793.5H456.67V816H450.67ZM462.166 802.26C463.606 800.82 465.636 800.1 468.256 800.1C470.876 800.1 472.906 800.82 474.346 802.26C475.786 803.7 476.506 805.68 476.506 808.2C476.506 810.72 475.786 812.7 474.346 814.14C472.906 815.58 470.876 816.3 468.256 816.3C465.636 816.3 463.606 815.58 462.166 814.14C460.726 812.7 460.006 810.72 460.006 808.2C460.006 805.68 460.726 803.7 462.166 802.26ZM466.246 811.29C466.686 811.91 467.356 812.22 468.256 812.22C469.156 812.22 469.826 811.91 470.266 811.29C470.706 810.67 470.926 809.64 470.926 808.2C470.926 806.76 470.706 805.73 470.266 805.11C469.826 804.49 469.156 804.18 468.256 804.18C467.356 804.18 466.686 804.49 466.246 805.11C465.806 805.73 465.586 806.76 465.586 808.2C465.586 809.64 465.806 810.67 466.246 811.29ZM491.692 811.11L492.892 815.1C491.172 815.9 489.372 816.3 487.492 816.3C484.732 816.3 482.542 815.57 480.922 814.11C479.302 812.65 478.492 810.68 478.492 808.2C478.492 805.7 479.282 803.73 480.862 802.29C482.462 800.83 484.672 800.1 487.492 800.1C489.432 800.1 491.232 800.5 492.892 801.3L491.692 805.35C490.452 804.59 489.152 804.21 487.792 804.21C486.652 804.21 485.762 804.55 485.122 805.23C484.502 805.91 484.192 806.9 484.192 808.2C484.192 809.46 484.522 810.45 485.182 811.17C485.842 811.89 486.712 812.25 487.792 812.25C489.152 812.25 490.452 811.87 491.692 811.11ZM502.269 809.7H502.209V816H496.509V793.5H502.209V806.1H502.269L506.409 800.4H512.859L506.859 807.9L513.009 816H506.559L502.269 809.7ZM533.251 805.8H534.151C534.151 805.12 534.021 804.65 533.761 804.39C533.501 804.13 533.031 804 532.351 804C530.251 804 528.201 804.45 526.201 805.35L525.451 801.45C527.651 800.55 530.051 800.1 532.651 800.1C535.251 800.1 537.101 800.59 538.201 801.57C539.301 802.53 539.851 804.14 539.851 806.4V811.8C539.851 813.24 540.001 814.64 540.301 816H534.901C534.781 815.32 534.681 814.62 534.601 813.9H534.541C534.001 814.62 533.301 815.2 532.441 815.64C531.581 816.08 530.701 816.3 529.801 816.3C528.261 816.3 527.021 815.88 526.081 815.04C525.161 814.18 524.701 813 524.701 811.5C524.701 809.78 525.431 808.4 526.891 807.36C528.371 806.32 530.491 805.8 533.251 805.8ZM529.801 810.9C529.801 811.8 530.301 812.25 531.301 812.25C532.161 812.25 532.851 812.01 533.371 811.53C533.891 811.05 534.151 810.39 534.151 809.55V809.1H533.251C532.111 809.1 531.251 809.27 530.671 809.61C530.091 809.93 529.801 810.36 529.801 810.9ZM549.22 802.5C549.78 801.76 550.47 801.18 551.29 800.76C552.13 800.32 552.98 800.1 553.84 800.1C555.82 800.1 557.24 800.66 558.1 801.78C558.96 802.88 559.39 804.82 559.39 807.6V816H553.75V808.2C553.75 806.7 553.61 805.7 553.33 805.2C553.07 804.7 552.59 804.45 551.89 804.45C551.27 804.45 550.71 804.79 550.21 805.47C549.73 806.15 549.49 806.96 549.49 807.9V816H543.79V800.4H549.04L549.16 802.5H549.22ZM223.026 848.8H223.926C223.926 848.12 223.796 847.65 223.536 847.39C223.276 847.13 222.806 847 222.126 847C220.026 847 217.976 847.45 215.976 848.35L215.226 844.45C217.426 843.55 219.826 843.1 222.426 843.1C225.026 843.1 226.876 843.59 227.976 844.57C229.076 845.53 229.626 847.14 229.626 849.4V854.8C229.626 856.24 229.776 857.64 230.076 859H224.676C224.556 858.32 224.456 857.62 224.376 856.9H224.316C223.776 857.62 223.076 858.2 222.216 858.64C221.356 859.08 220.476 859.3 219.576 859.3C218.036 859.3 216.796 858.88 215.856 858.04C214.936 857.18 214.476 856 214.476 854.5C214.476 852.78 215.206 851.4 216.666 850.36C218.146 849.32 220.266 848.8 223.026 848.8ZM219.576 853.9C219.576 854.8 220.076 855.25 221.076 855.25C221.936 855.25 222.626 855.01 223.146 854.53C223.666 854.05 223.926 853.39 223.926 852.55V852.1H223.026C221.886 852.1 221.026 852.27 220.446 852.61C219.866 852.93 219.576 853.36 219.576 853.9ZM245.723 848.11C243.903 847.45 242.203 847.12 240.623 847.12C239.763 847.12 239.173 847.2 238.853 847.36C238.533 847.5 238.373 847.73 238.373 848.05C238.373 848.35 238.503 848.58 238.763 848.74C239.023 848.9 239.493 849.02 240.173 849.1C242.633 849.4 244.393 849.98 245.453 850.84C246.533 851.7 247.073 852.87 247.073 854.35C247.073 855.87 246.463 857.08 245.243 857.98C244.043 858.86 242.303 859.3 240.023 859.3C237.323 859.3 234.873 858.8 232.673 857.8L233.723 853.78C235.523 854.74 237.423 855.22 239.423 855.22C240.723 855.22 241.373 854.88 241.373 854.2C241.373 853.94 241.273 853.76 241.073 853.66C240.873 853.56 240.373 853.44 239.573 853.3C237.153 852.92 235.423 852.3 234.383 851.44C233.343 850.56 232.823 849.38 232.823 847.9C232.823 846.4 233.423 845.23 234.623 844.39C235.823 843.53 237.623 843.1 240.023 843.1C242.403 843.1 244.653 843.45 246.773 844.15L245.723 848.11ZM262.422 848.11C260.602 847.45 258.902 847.12 257.322 847.12C256.462 847.12 255.872 847.2 255.552 847.36C255.232 847.5 255.072 847.73 255.072 848.05C255.072 848.35 255.202 848.58 255.462 848.74C255.722 848.9 256.192 849.02 256.872 849.1C259.332 849.4 261.092 849.98 262.152 850.84C263.232 851.7 263.772 852.87 263.772 854.35C263.772 855.87 263.162 857.08 261.942 857.98C260.742 858.86 259.002 859.3 256.722 859.3C254.022 859.3 251.572 858.8 249.372 857.8L250.422 853.78C252.222 854.74 254.122 855.22 256.122 855.22C257.422 855.22 258.072 854.88 258.072 854.2C258.072 853.94 257.972 853.76 257.772 853.66C257.572 853.56 257.072 853.44 256.272 853.3C253.852 852.92 252.122 852.3 251.082 851.44C250.042 850.56 249.522 849.38 249.522 847.9C249.522 846.4 250.122 845.23 251.322 844.39C252.522 843.53 254.322 843.1 256.722 843.1C259.102 843.1 261.352 843.45 263.472 844.15L262.422 848.11ZM274.764 848.8H275.664C275.664 848.12 275.534 847.65 275.274 847.39C275.014 847.13 274.544 847 273.864 847C271.764 847 269.714 847.45 267.714 848.35L266.964 844.45C269.164 843.55 271.564 843.1 274.164 843.1C276.764 843.1 278.614 843.59 279.714 844.57C280.814 845.53 281.364 847.14 281.364 849.4V854.8C281.364 856.24 281.514 857.64 281.814 859H276.414C276.294 858.32 276.194 857.62 276.114 856.9H276.054C275.514 857.62 274.814 858.2 273.954 858.64C273.094 859.08 272.214 859.3 271.314 859.3C269.774 859.3 268.534 858.88 267.594 858.04C266.674 857.18 266.214 856 266.214 854.5C266.214 852.78 266.944 851.4 268.404 850.36C269.884 849.32 272.004 848.8 274.764 848.8ZM271.314 853.9C271.314 854.8 271.814 855.25 272.814 855.25C273.674 855.25 274.364 855.01 274.884 854.53C275.404 854.05 275.664 853.39 275.664 852.55V852.1H274.764C273.624 852.1 272.764 852.27 272.184 852.61C271.604 852.93 271.314 853.36 271.314 853.9ZM297.461 848.11C295.641 847.45 293.941 847.12 292.361 847.12C291.501 847.12 290.911 847.2 290.591 847.36C290.271 847.5 290.111 847.73 290.111 848.05C290.111 848.35 290.241 848.58 290.501 848.74C290.761 848.9 291.231 849.02 291.911 849.1C294.371 849.4 296.131 849.98 297.191 850.84C298.271 851.7 298.811 852.87 298.811 854.35C298.811 855.87 298.201 857.08 296.981 857.98C295.781 858.86 294.041 859.3 291.761 859.3C289.061 859.3 286.611 858.8 284.411 857.8L285.461 853.78C287.261 854.74 289.161 855.22 291.161 855.22C292.461 855.22 293.111 854.88 293.111 854.2C293.111 853.94 293.011 853.76 292.811 853.66C292.611 853.56 292.111 853.44 291.311 853.3C288.891 852.92 287.161 852.3 286.121 851.44C285.081 850.56 284.561 849.38 284.561 847.9C284.561 846.4 285.161 845.23 286.361 844.39C287.561 843.53 289.361 843.1 291.761 843.1C294.141 843.1 296.391 843.45 298.511 844.15L297.461 848.11ZM314.16 848.11C312.34 847.45 310.64 847.12 309.06 847.12C308.2 847.12 307.61 847.2 307.29 847.36C306.97 847.5 306.81 847.73 306.81 848.05C306.81 848.35 306.94 848.58 307.2 848.74C307.46 848.9 307.93 849.02 308.61 849.1C311.07 849.4 312.83 849.98 313.89 850.84C314.97 851.7 315.51 852.87 315.51 854.35C315.51 855.87 314.9 857.08 313.68 857.98C312.48 858.86 310.74 859.3 308.46 859.3C305.76 859.3 303.31 858.8 301.11 857.8L302.16 853.78C303.96 854.74 305.86 855.22 307.86 855.22C309.16 855.22 309.81 854.88 309.81 854.2C309.81 853.94 309.71 853.76 309.51 853.66C309.31 853.56 308.81 853.44 308.01 853.3C305.59 852.92 303.86 852.3 302.82 851.44C301.78 850.56 301.26 849.38 301.26 847.9C301.26 846.4 301.86 845.23 303.06 844.39C304.26 843.53 306.06 843.1 308.46 843.1C310.84 843.1 313.09 843.45 315.21 844.15L314.16 848.11ZM319.303 840.7V836.5H325.303V840.7H319.303ZM319.303 859V843.4H325.303V859H319.303ZM335.119 845.5C335.679 844.76 336.369 844.18 337.189 843.76C338.029 843.32 338.879 843.1 339.739 843.1C341.719 843.1 343.139 843.66 343.999 844.78C344.859 845.88 345.289 847.82 345.289 850.6V859H339.649V851.2C339.649 849.7 339.509 848.7 339.229 848.2C338.969 847.7 338.489 847.45 337.789 847.45C337.169 847.45 336.609 847.79 336.109 848.47C335.629 849.15 335.389 849.96 335.389 850.9V859H329.689V843.4H334.939L335.059 845.5H335.119ZM356.708 848.8H357.608C357.608 848.12 357.478 847.65 357.218 847.39C356.958 847.13 356.488 847 355.808 847C353.708 847 351.658 847.45 349.658 848.35L348.908 844.45C351.108 843.55 353.508 843.1 356.108 843.1C358.708 843.1 360.558 843.59 361.658 844.57C362.758 845.53 363.308 847.14 363.308 849.4V854.8C363.308 856.24 363.458 857.64 363.758 859H358.358C358.238 858.32 358.138 857.62 358.058 856.9H357.998C357.458 857.62 356.758 858.2 355.898 858.64C355.038 859.08 354.158 859.3 353.258 859.3C351.718 859.3 350.478 858.88 349.538 858.04C348.618 857.18 348.158 856 348.158 854.5C348.158 852.78 348.888 851.4 350.348 850.36C351.828 849.32 353.948 848.8 356.708 848.8ZM353.258 853.9C353.258 854.8 353.758 855.25 354.758 855.25C355.618 855.25 356.308 855.01 356.828 854.53C357.348 854.05 357.608 853.39 357.608 852.55V852.1H356.708C355.568 852.1 354.708 852.27 354.128 852.61C353.548 852.93 353.258 853.36 353.258 853.9ZM374.589 859.3C372.609 859.3 371.139 858.85 370.179 857.95C369.219 857.03 368.739 855.58 368.739 853.6V847.9H365.589V844H368.739V838.3H374.559V844H379.389V847.9H374.559V852.7C374.559 853.66 374.669 854.3 374.889 854.62C375.109 854.94 375.509 855.1 376.089 855.1C376.969 855.1 377.869 854.95 378.789 854.65L379.389 858.7C377.909 859.1 376.309 859.3 374.589 859.3ZM383.756 840.7V836.5H389.756V840.7H383.756ZM383.756 859V843.4H389.756V859H383.756ZM395.252 845.26C396.692 843.82 398.722 843.1 401.342 843.1C403.962 843.1 405.992 843.82 407.432 845.26C408.872 846.7 409.592 848.68 409.592 851.2C409.592 853.72 408.872 855.7 407.432 857.14C405.992 858.58 403.962 859.3 401.342 859.3C398.722 859.3 396.692 858.58 395.252 857.14C393.812 855.7 393.092 853.72 393.092 851.2C393.092 848.68 393.812 846.7 395.252 845.26ZM399.332 854.29C399.772 854.91 400.442 855.22 401.342 855.22C402.242 855.22 402.912 854.91 403.352 854.29C403.792 853.67 404.012 852.64 404.012 851.2C404.012 849.76 403.792 848.73 403.352 848.11C402.912 847.49 402.242 847.18 401.342 847.18C400.442 847.18 399.772 847.49 399.332 848.11C398.892 848.73 398.672 849.76 398.672 851.2C398.672 852.64 398.892 853.67 399.332 854.29ZM417.765 845.5C418.325 844.76 419.015 844.18 419.835 843.76C420.675 843.32 421.525 843.1 422.385 843.1C424.365 843.1 425.785 843.66 426.645 844.78C427.505 845.88 427.935 847.82 427.935 850.6V859H422.295V851.2C422.295 849.7 422.155 848.7 421.875 848.2C421.615 847.7 421.135 847.45 420.435 847.45C419.815 847.45 419.255 847.79 418.755 848.47C418.275 849.15 418.035 849.96 418.035 850.9V859H412.335V843.4H417.585L417.705 845.5H417.765Z" fill="white"/>
<defs>
<filter id="filter0_d_678_36" x="-486.9" y="12.1" width="1230.8" height="1168.8" filterUnits="userSpaceOnUse" color-interpolation-filters="sRGB">
<feFlood flood-opacity="0" result="BackgroundImageFix"/>
<feColorMatrix in="SourceAlpha" type="matrix" values="0 0 0 0 0 0 0 0 0 0 0 0 0 0 0 0 0 0 127 0" result="hardAlpha"/>
<feOffset/>
<feGaussianBlur stdDeviation="34.95"/>
<feComposite in2="hardAlpha" operator="out"/>
<feColorMatrix type="matrix" values="0 0 0 0 0 0 0 0 0 0 0 0 0 0 0 0 0 0 0.15 0"/>
<feBlend mode="normal" in2="BackgroundImageFix" result="effect1_dropShadow_678_36"/>
<feBlend mode="normal" in="SourceGraphic" in2="effect1_dropShadow_678_36" result="shape"/>
</filter>
<linearGradient id="paint0_linear_678_36" x1="3.31864" y1="215.613" x2="3.31864" y2="1111" gradientUnits="userSpaceOnUse">
<stop stop-color="#F22222" stop-opacity="0.94"/>
<stop offset="1" stop-color="#CF4F6E" stop-opacity="0.52"/>
</linearGradient>
</defs>
</svg>
