<svg width="642" height="900" viewBox="0 0 642 900" fill="none" xmlns="http://www.w3.org/2000/svg">
<rect x="2.01953" width="639.02" height="900" fill="#202020"/>
<mask id="mask0_731_99" style="mask-type:alpha" maskUnits="userSpaceOnUse" x="2" y="0" width="640" height="900">
<rect x="2.01953" width="639.02" height="900" fill="white"/>
</mask>
<g mask="url(#mask0_731_99)">
<path d="M161.333 78.3617C157.632 81.6789 154.439 84.2597 152.265 86.7816C132.725 110.695 97.2997 142.676 66.0106 159.687L45.2096 133.941C70.4514 121.13 94.0403 100.007 106.859 83.6317C89.628 81.21 26.0528 72.2751 8.82217 69.8535C0.701968 68.7123 -11.3492 68.2304 -15.7904 68.2121L-11.0312 34.5469C-6.02174 36.2607 6.28766 39.2025 13.0215 40.1489C26.8852 42.0973 96.204 51.8394 118.188 54.9291C127.1 56.1816 135.162 56.3049 140.338 55.4165L161.333 78.3617ZM37.1269 158.253C27.2635 145.153 11.0541 125.506 -0.16349 114.841L28.0989 97.8084C38.3542 108.136 54.3054 125.323 67.88 142.177C79.5279 156.941 92.8226 175.775 101.216 189.274L69.7024 207.869C62.6398 194.961 48.3227 173.358 37.1269 158.253ZM269.788 98.4513C272.518 107.721 278.583 134.829 280.238 144.554L250.12 150.42C248.747 140.129 243.733 115.592 239.953 103.751L269.788 98.4513ZM341.367 125.072C337.502 132.406 335.444 136.964 333.386 141.521C325.549 159.809 314.375 178.839 298.896 194.032C277.061 215.604 249.671 229.325 224.617 235.094L203.103 205.815C224.853 203.419 255.896 192.432 275.274 173.949C290.669 159.35 303.785 133.726 309.039 109.421L341.367 125.072ZM222.328 102.687C226.306 114.556 232.169 138.808 234.506 150.851L203.655 157.623C201.799 146.456 195.96 119.178 191.957 108.921L222.328 102.687ZM507.605 100.772C512.287 110.518 518.275 123.881 521.372 133.405L499.713 139.45C495.307 124.895 492.808 118.283 486.624 106.305L507.605 100.772ZM536.334 93.2972C541.27 102.675 547.71 115.698 550.836 125.024L529.658 131.944C524.658 117.306 521.679 111.232 515.439 99.6509L536.334 93.2972ZM404.591 222.217C407.055 204.79 418.197 125.974 420.577 109.141C421.696 101.22 422.36 90.8108 421.839 83.063L459.271 88.3237C457.415 95.7376 454.995 104.284 453.651 113.789C451.272 130.622 440.158 209.24 437.666 226.865C436.91 232.212 435.887 248.023 435.617 257.074L397.987 251.785C400.577 243.465 403.443 230.336 404.591 222.217ZM442.966 137.937C468.497 148.796 510.424 170.846 527.385 182.318L508.988 213.865C488.232 199.234 458.619 182.954 438.067 172.593L442.966 137.937ZM710 195.057C703.365 241.99 686.832 271.779 634.465 286.434L612.134 258.656C653.592 251.152 672.07 236.178 678.397 191.423L686.208 136.173C687.356 128.054 687.883 121.463 687.791 116.401L721.856 121.188C720.534 126.254 718.846 132.479 717.698 140.599L710 195.057ZM648.495 112.898C647.228 117.567 645.484 124.189 644.281 132.704L634.426 202.411C633.054 212.114 632.557 219.921 632.253 224.927L598.782 220.223C600.076 215.356 601.762 207.716 603.134 198.013L613.016 128.108C613.94 121.573 614.242 115.153 614.429 108.11L648.495 112.898ZM574.361 137.217C578.804 138.649 585.738 141.037 596.433 142.54L725.564 160.689C737.051 162.303 742.652 162.686 749.752 162.472L745.273 194.157C739.811 192.784 732.879 191.81 721.59 190.223L592.261 172.047C581.566 170.544 575.569 170.105 569.769 169.694L574.361 137.217ZM33.1269 396.414C70.4605 392.37 100.518 384.073 124.604 373.724C146.343 364.258 173.529 346.266 188.134 332.969L210.579 361.37C189.161 377.142 160.416 393.299 135.114 403.678C110.462 413.746 75.8538 424.231 43.6977 428.8L33.1269 396.414ZM117.667 388.503L153.192 385.821L140.678 474.34C139.334 483.846 137.798 497.566 138.599 503.333L100.573 497.989C102.121 492.754 104.873 479.003 106.217 469.497L117.667 388.503ZM254.986 364.783C260.023 366.299 268.653 368.118 274.793 368.98L382.138 384.067C388.08 384.902 395.492 385.338 401.743 385.408L397.096 418.281C390.842 416.797 383.57 415.371 377.827 414.564L270.482 399.477C264.342 398.614 255.572 397.786 250.338 397.656L254.986 364.783ZM292.153 497.649L307.271 390.712L340.94 395.444L325.822 502.38L292.153 497.649ZM227.049 468.1C233.416 470.207 241.056 471.887 247.394 472.777L377.911 491.12C385.438 492.178 392.509 492.162 397.771 492.094L392.872 526.749C387.24 525.15 378.356 523.699 373.404 523.003L242.887 504.66C236.747 503.797 229.193 502.938 222.149 502.756L227.049 468.1ZM477.325 383.711C489.675 394.939 512.708 419.18 522.8 433.524L494.686 455.223C485.813 442.262 463.938 416.971 451.105 404.868L477.325 383.711ZM429.424 511.084C459.098 511.215 485.907 505.894 506.912 497.334C545.473 481.749 576.549 454.812 593.766 428.755L607.596 465.234C587.777 491.128 555.762 514.702 519.943 529.46C498.062 538.503 470.859 545.182 445.344 545.636L429.424 511.084ZM-61.9813 597.535C-55.3874 599.471 -45.9648 601.401 -39.231 602.348C-26.1595 604.185 28.1072 611.811 39.9905 613.481C47.3184 614.511 55.7207 615.086 63.1886 615.126L58.8493 645.821C51.5773 644.395 43.5131 642.858 35.9871 641.8C24.1039 640.13 -30.1628 632.503 -43.2343 630.666C-50.1662 629.692 -59.7288 628.752 -66.3205 628.229L-61.9813 597.535ZM-91.9802 645.426C-85.9526 647.08 -78.3125 648.76 -72.1728 649.623C-59.2993 651.432 45.0749 666.101 57.5523 667.855C61.7115 668.439 71.6701 669.435 77.3556 669.224L72.9603 700.315C67.6689 699.167 59.3786 697.8 53.437 696.965C40.9596 695.212 -63.4146 680.543 -76.2881 678.734C-82.0317 677.926 -90.802 677.098 -96.4035 676.714L-91.9802 645.426ZM11.5708 677.348C7.81944 703.884 -0.469612 722.511 -10.9134 737.807C-19.6349 750.921 -37.3507 764.79 -56.6614 771.366L-81.9295 747.215C-67.96 744.129 -52.5005 734.79 -43.0106 724.813C-31.0363 711.551 -25.0658 693.607 -22.1263 672.814L11.5708 677.348ZM91.7673 716.49C118.27 714.761 149.6 706.037 166.364 698.9C187.651 689.774 211.05 674.28 223.197 662.657L243.659 689.365C229.731 700.737 201.042 716.498 177.238 726.28C157.082 734.556 122.923 743.287 101.854 746.586L91.7673 716.49ZM161.074 717.748L194.762 716.625L185.104 784.946C184.04 792.471 182.558 804.381 183.329 808.932L147.679 803.922C148.889 799.649 151.163 787.851 152.227 780.325L161.074 717.748ZM450.074 689.494C447.927 691.818 442.788 698.164 439.91 702.809C428.988 720.057 410.779 744.561 390.438 762.707C364.589 785.531 330.335 806.367 297.763 816.734L276.476 787.285C310.212 780.111 344.948 760.151 365.347 743.023C380.292 730.178 393.45 714.254 399.401 702.165C390.489 700.912 347.313 694.844 337.806 693.508C328.894 692.256 317.833 691.913 312.232 691.53L317.047 657.468C323.839 659.433 336.43 661.808 342.174 662.615C354.057 664.285 398.817 670.576 408.324 671.912C418.226 673.304 427.731 673.226 432.51 672.282L450.074 689.494ZM395.813 743.265C413.576 761.919 438.379 796.508 448.673 813.708L417.756 833.8C405.897 810.523 388.293 785.025 369.873 762.442L395.813 743.265ZM522.48 817.416C524.944 799.989 536.086 721.173 538.466 704.34C539.586 696.419 540.249 686.01 539.728 678.262L577.161 683.523C575.305 690.937 572.884 699.483 571.541 708.988C569.161 725.821 558.047 804.439 555.555 822.064C554.799 827.411 553.776 843.222 553.507 852.273L515.876 846.984C518.467 838.664 521.332 825.535 522.48 817.416ZM560.855 733.136C586.387 743.995 628.313 766.045 645.274 777.517L626.877 809.064C606.121 794.432 576.508 778.153 555.956 767.792L560.855 733.136Z" fill="#E212A8"/>
<g filter="url(#filter0_d_731_99)">
<path d="M230.881 425.5L164.36 488.5L122.844 622L28 499L64.5 464L81 407.5L28 358V309L50 278.5L13.5 262L-23 278.5L-8.5 425.5L-56 934.5L697 953L621.515 651L569.148 499L515.836 456L463.469 415L510.173 306L515.836 262L577 144L515.836 161.5L529.5 96.5L450.5 128L439 63L370 108L324.5 75.5L310 144L249.5 108L283.249 238L278.531 354.5L302.592 407.5L230.881 425.5Z" fill="url(#paint0_linear_731_99)" shape-rendering="crispEdges"/>
</g>
</g>
<path d="M79.7948 689H79.6548L72.7948 706.5H60.1948L53.3348 689H53.1948V717H40.0348V665.9H54.5948L66.4248 696H66.5648L78.3948 665.9H93.2348V717H79.7948V689ZM119.362 696.7H128.602L124.052 677.8H123.912L119.362 696.7ZM116.842 707.2L114.532 717H99.9723L116.772 665.9H131.472L148.272 717H133.432L131.052 707.2H116.842ZM168.665 706.5C169.739 706.733 170.789 706.85 171.815 706.85C180.215 706.85 184.415 701.483 184.415 690.75C184.415 680.95 180.215 676.05 171.815 676.05C170.789 676.05 169.739 676.167 168.665 676.4V706.5ZM197.715 690.75C197.715 699.29 195.312 705.917 190.505 710.63C185.699 715.343 179.002 717.7 170.415 717.7C164.955 717.7 159.822 717.35 155.015 716.65V666.25C159.822 665.55 164.955 665.2 170.415 665.2C179.002 665.2 185.699 667.487 190.505 672.06C195.312 676.587 197.715 682.817 197.715 690.75ZM261.016 679.55C256.303 677.217 251.519 676.05 246.666 676.05C244.473 676.05 242.816 676.447 241.696 677.24C240.576 677.987 240.016 678.99 240.016 680.25C240.016 682.21 241.533 683.61 244.566 684.45C251.893 686.41 257.049 688.767 260.036 691.52C263.023 694.227 264.516 697.703 264.516 701.95C264.516 707.083 262.743 711.003 259.196 713.71C255.649 716.37 250.306 717.7 243.166 717.7C240.179 717.7 236.959 717.21 233.506 716.23C230.099 715.203 227.369 713.943 225.316 712.45L228.466 701.6C230.846 703.233 233.413 704.517 236.166 705.45C238.966 706.383 241.533 706.85 243.866 706.85C248.066 706.85 250.166 705.333 250.166 702.3C250.166 700.34 248.299 698.823 244.566 697.75C237.753 695.79 232.899 693.433 230.006 690.68C227.113 687.927 225.666 684.45 225.666 680.25C225.666 675.63 227.416 671.967 230.916 669.26C234.463 666.553 239.479 665.2 245.966 665.2C252.873 665.2 258.706 666.367 263.466 668.7L261.016 679.55ZM296.47 717.7C288.21 717.7 281.583 715.367 276.59 710.7C271.643 705.987 269.17 699.57 269.17 691.45C269.17 683.237 271.55 676.82 276.31 672.2C281.117 667.533 287.837 665.2 296.47 665.2C303.05 665.2 308.65 666.833 313.27 670.1L309.42 680.25C305.547 677.683 301.697 676.4 297.87 676.4C293.343 676.4 289.82 677.707 287.3 680.32C284.78 682.887 283.52 686.597 283.52 691.45C283.52 696.117 284.827 699.803 287.44 702.51C290.1 705.17 293.577 706.5 297.87 706.5C301.697 706.5 305.547 705.217 309.42 702.65L313.27 712.8C308.65 716.067 303.05 717.7 296.47 717.7ZM322.786 717V665.9H338.186V717H322.786ZM381.288 685.5V696H363.088V705.8H382.688V717H349.088V665.9H382.688V677.1H363.088V685.5H381.288ZM421.132 693.9H421.272V665.9H434.922V717H421.272L406.012 689H405.872V717H392.222V665.9H405.872L421.132 693.9ZM485.382 665.9V677.45H471.522V717H457.242V677.45H443.382V665.9H485.382ZM494.573 717V665.9H509.973V717H494.573ZM554.825 679.55C550.111 677.217 545.328 676.05 540.475 676.05C538.281 676.05 536.625 676.447 535.505 677.24C534.385 677.987 533.825 678.99 533.825 680.25C533.825 682.21 535.341 683.61 538.375 684.45C545.701 686.41 550.858 688.767 553.845 691.52C556.831 694.227 558.325 697.703 558.325 701.95C558.325 707.083 556.551 711.003 553.005 713.71C549.458 716.37 544.115 717.7 536.975 717.7C533.988 717.7 530.768 717.21 527.315 716.23C523.908 715.203 521.178 713.943 519.125 712.45L522.275 701.6C524.655 703.233 527.221 704.517 529.975 705.45C532.775 706.383 535.341 706.85 537.675 706.85C541.875 706.85 543.975 705.333 543.975 702.3C543.975 700.34 542.108 698.823 538.375 697.75C531.561 695.79 526.708 693.433 523.815 690.68C520.921 687.927 519.475 684.45 519.475 680.25C519.475 675.63 521.225 671.967 524.725 669.26C528.271 666.553 533.288 665.2 539.775 665.2C546.681 665.2 552.515 666.367 557.275 668.7L554.825 679.55ZM605.695 665.9V677.45H591.835V717H577.555V677.45H563.695V665.9H605.695Z" fill="white"/>
<path d="M37.4761 768.502V775H31.9186V754.337C33.8756 754.052 35.9656 753.91 38.1886 753.91C44.6486 753.91 47.8786 756.237 47.8786 760.892C47.8786 763.419 47.1471 765.338 45.6841 766.649C44.2401 767.941 42.1216 768.587 39.3286 768.587C38.5876 768.587 37.9701 768.559 37.4761 768.502ZM37.4761 764.369C37.8371 764.426 38.2646 764.455 38.7586 764.455C39.9936 764.455 40.9436 764.17 41.6086 763.6C42.2736 763.03 42.6061 762.222 42.6061 761.177C42.6061 759.182 41.3236 758.185 38.7586 758.185C38.3406 758.185 37.9131 758.232 37.4761 758.327V764.369ZM57.1901 765.31H58.0451C58.0451 764.664 57.9216 764.217 57.6746 763.97C57.4276 763.723 56.9811 763.6 56.3351 763.6C54.3401 763.6 52.3926 764.027 50.4926 764.882L49.7801 761.177C51.8701 760.322 54.1501 759.895 56.6201 759.895C59.0901 759.895 60.8476 760.36 61.8926 761.291C62.9376 762.203 63.4601 763.733 63.4601 765.88V771.01C63.4601 772.378 63.6026 773.708 63.8876 775H58.7576C58.6436 774.354 58.5486 773.689 58.4726 773.005H58.4156C57.9026 773.689 57.2376 774.24 56.4206 774.658C55.6036 775.076 54.7676 775.285 53.9126 775.285C52.4496 775.285 51.2716 774.886 50.3786 774.088C49.5046 773.271 49.0676 772.15 49.0676 770.725C49.0676 769.091 49.7611 767.78 51.1481 766.792C52.5541 765.804 54.5681 765.31 57.1901 765.31ZM53.9126 770.155C53.9126 771.01 54.3876 771.438 55.3376 771.438C56.1546 771.438 56.8101 771.209 57.3041 770.753C57.7981 770.297 58.0451 769.67 58.0451 768.872V768.445H57.1901C56.1071 768.445 55.2901 768.606 54.7391 768.929C54.1881 769.233 53.9126 769.642 53.9126 770.155ZM73.2942 770.155H73.3512L76.0302 760.18H81.7302L74.0352 781.27H68.3352L70.9002 775L65.2002 760.18H71.1852L73.2942 770.155ZM93.5958 770.44C96.1418 768.521 98.0513 766.982 99.3243 765.823C100.597 764.645 101.433 763.704 101.832 763.001C102.231 762.298 102.431 761.548 102.431 760.75C102.431 759.325 101.623 758.612 100.008 758.612C98.5833 758.612 96.7308 759.325 94.4508 760.75L93.0258 756.19C93.9948 755.544 95.2203 755.002 96.7023 754.565C98.1843 754.128 99.5713 753.91 100.863 753.91C103.238 753.91 105.062 754.47 106.335 755.591C107.627 756.693 108.273 758.223 108.273 760.18C108.273 761.738 107.779 763.22 106.791 764.626C105.803 766.032 103.875 767.951 101.006 770.383V770.44H108.416V775H93.5958V770.44ZM132.684 770.354L133.824 774.145C132.19 774.905 130.48 775.285 128.694 775.285C126.072 775.285 123.991 774.592 122.452 773.204C120.913 771.817 120.144 769.946 120.144 767.59C120.144 765.215 120.894 763.343 122.395 761.975C123.915 760.588 126.015 759.895 128.694 759.895C130.537 759.895 132.247 760.275 133.824 761.035L132.684 764.882C131.506 764.16 130.271 763.799 128.979 763.799C127.896 763.799 127.05 764.122 126.442 764.768C125.853 765.414 125.559 766.355 125.559 767.59C125.559 768.787 125.872 769.727 126.499 770.411C127.126 771.095 127.953 771.438 128.979 771.438C130.271 771.438 131.506 771.076 132.684 770.354ZM138.172 761.947C139.54 760.579 141.468 759.895 143.957 759.895C146.446 759.895 148.375 760.579 149.743 761.947C151.111 763.315 151.795 765.196 151.795 767.59C151.795 769.984 151.111 771.865 149.743 773.233C148.375 774.601 146.446 775.285 143.957 775.285C141.468 775.285 139.54 774.601 138.172 773.233C136.804 771.865 136.12 769.984 136.12 767.59C136.12 765.196 136.804 763.315 138.172 761.947ZM142.048 770.525C142.466 771.114 143.102 771.409 143.957 771.409C144.812 771.409 145.449 771.114 145.867 770.525C146.285 769.936 146.494 768.958 146.494 767.59C146.494 766.222 146.285 765.243 145.867 764.654C145.449 764.065 144.812 763.771 143.957 763.771C143.102 763.771 142.466 764.065 142.048 764.654C141.63 765.243 141.421 766.222 141.421 767.59C141.421 768.958 141.63 769.936 142.048 770.525ZM154.971 757.615V753.625H160.671V757.615H154.971ZM154.971 775V760.18H160.671V775H154.971ZM169.996 762.175C170.528 761.472 171.184 760.921 171.963 760.522C172.761 760.104 173.568 759.895 174.385 759.895C176.266 759.895 177.615 760.427 178.432 761.491C179.249 762.536 179.658 764.379 179.658 767.02V775H174.3V767.59C174.3 766.165 174.167 765.215 173.901 764.74C173.654 764.265 173.198 764.027 172.533 764.027C171.944 764.027 171.412 764.35 170.937 764.996C170.481 765.642 170.253 766.412 170.253 767.305V775H164.838V760.18H169.825L169.939 762.175H169.996ZM194.923 764.654C193.194 764.027 191.579 763.714 190.078 763.714C189.261 763.714 188.701 763.79 188.397 763.942C188.093 764.075 187.941 764.293 187.941 764.597C187.941 764.882 188.064 765.101 188.311 765.253C188.558 765.405 189.005 765.519 189.651 765.595C191.988 765.88 193.66 766.431 194.667 767.248C195.693 768.065 196.206 769.176 196.206 770.582C196.206 772.026 195.626 773.176 194.467 774.031C193.327 774.867 191.674 775.285 189.508 775.285C186.943 775.285 184.616 774.81 182.526 773.86L183.523 770.041C185.233 770.953 187.038 771.409 188.938 771.409C190.173 771.409 190.791 771.086 190.791 770.44C190.791 770.193 190.696 770.022 190.506 769.927C190.316 769.832 189.841 769.718 189.081 769.585C186.782 769.224 185.138 768.635 184.15 767.818C183.162 766.982 182.668 765.861 182.668 764.455C182.668 763.03 183.238 761.918 184.378 761.12C185.518 760.303 187.228 759.895 189.508 759.895C191.769 759.895 193.907 760.227 195.921 760.892L194.923 764.654ZM199.53 775V769.015H205.8V775H199.53ZM233.134 759.752C231.215 758.802 229.268 758.327 227.292 758.327C226.399 758.327 225.724 758.489 225.268 758.812C224.812 759.116 224.584 759.524 224.584 760.037C224.584 760.835 225.202 761.405 226.437 761.747C229.42 762.545 231.519 763.505 232.735 764.626C233.951 765.728 234.559 767.143 234.559 768.872C234.559 770.962 233.837 772.558 232.393 773.66C230.949 774.743 228.774 775.285 225.867 775.285C224.651 775.285 223.34 775.086 221.934 774.686C220.547 774.268 219.435 773.755 218.599 773.147L219.882 768.73C220.851 769.395 221.896 769.917 223.017 770.297C224.157 770.677 225.202 770.867 226.152 770.867C227.862 770.867 228.717 770.25 228.717 769.015C228.717 768.217 227.957 767.599 226.437 767.162C223.663 766.364 221.687 765.405 220.509 764.284C219.331 763.163 218.742 761.747 218.742 760.037C218.742 758.156 219.454 756.665 220.879 755.563C222.323 754.461 224.366 753.91 227.007 753.91C229.819 753.91 232.194 754.385 234.132 755.335L233.134 759.752ZM252.692 767.02V775H247.334V767.59C247.334 766.165 247.201 765.215 246.935 764.74C246.688 764.265 246.232 764.027 245.567 764.027C244.978 764.027 244.446 764.35 243.971 764.996C243.515 765.642 243.287 766.412 243.287 767.305V775H237.872V753.625H243.287V761.89H243.344C243.819 761.282 244.427 760.797 245.168 760.436C245.909 760.075 246.66 759.895 247.42 759.895C249.301 759.895 250.65 760.427 251.467 761.491C252.284 762.536 252.692 764.379 252.692 767.02ZM265.389 773.005C264.857 773.708 264.192 774.268 263.394 774.686C262.615 775.086 261.817 775.285 261 775.285C259.214 775.285 257.931 774.82 257.152 773.888C256.392 772.957 256.012 771.333 256.012 769.015V760.18H261.37V768.445C261.37 769.547 261.475 770.278 261.684 770.639C261.893 770.981 262.282 771.152 262.852 771.152C263.441 771.152 263.964 770.829 264.42 770.183C264.895 769.537 265.132 768.768 265.132 767.875V760.18H270.547V775H265.56L265.446 773.005H265.389ZM301.779 755.05V775H296.364V758.185C295.452 757.995 294.645 757.9 293.942 757.9C292.973 757.9 292.327 758.052 292.004 758.356C291.681 758.66 291.519 759.268 291.519 760.18V760.75H295.224V764.455H291.519V775H286.104V764.455H281.259V775H275.844V764.455H273.564V760.75H275.844V760.18C275.844 758.166 276.367 756.617 277.412 755.534C278.476 754.451 279.948 753.91 281.829 753.91C283.064 753.91 284.347 754.052 285.677 754.337L284.85 758.327C284.166 758.042 283.454 757.9 282.713 757.9C282.181 757.9 281.801 758.061 281.573 758.384C281.364 758.707 281.259 759.306 281.259 760.18V760.75H286.104V760.18C286.104 758.28 286.788 756.76 288.156 755.62C289.524 754.48 291.453 753.91 293.942 753.91C297.039 753.91 299.651 754.29 301.779 755.05ZM309.804 766.165H314.621C314.621 764.36 313.813 763.457 312.198 763.457C310.735 763.457 309.937 764.36 309.804 766.165ZM309.861 769.3C310.184 770.82 311.267 771.58 313.11 771.58C314.535 771.58 315.894 771.247 317.186 770.582L318.326 774.145C316.578 774.905 314.678 775.285 312.626 775.285C310.175 775.285 308.208 774.592 306.726 773.204C305.244 771.817 304.503 769.946 304.503 767.59C304.503 765.215 305.178 763.343 306.527 761.975C307.895 760.588 309.738 759.895 312.056 759.895C314.431 759.895 316.283 760.569 317.613 761.918C318.943 763.248 319.608 765.139 319.608 767.59C319.608 768.103 319.561 768.673 319.466 769.3H309.861ZM338.822 765.31H339.677C339.677 764.664 339.554 764.217 339.307 763.97C339.06 763.723 338.613 763.6 337.967 763.6C335.972 763.6 334.025 764.027 332.125 764.882L331.412 761.177C333.502 760.322 335.782 759.895 338.252 759.895C340.722 759.895 342.48 760.36 343.525 761.291C344.57 762.203 345.092 763.733 345.092 765.88V771.01C345.092 772.378 345.235 773.708 345.52 775H340.39C340.276 774.354 340.181 773.689 340.105 773.005H340.048C339.535 773.689 338.87 774.24 338.053 774.658C337.236 775.076 336.4 775.285 335.545 775.285C334.082 775.285 332.904 774.886 332.011 774.088C331.137 773.271 330.7 772.15 330.7 770.725C330.7 769.091 331.393 767.78 332.78 766.792C334.186 765.804 336.2 765.31 338.822 765.31ZM335.545 770.155C335.545 771.01 336.02 771.438 336.97 771.438C337.787 771.438 338.442 771.209 338.936 770.753C339.43 770.297 339.677 769.67 339.677 768.872V768.445H338.822C337.739 768.445 336.922 768.606 336.371 768.929C335.82 769.233 335.545 769.642 335.545 770.155ZM349.405 775V753.625H355.105V775H349.405ZM359.286 775V753.625H364.986V775H359.286ZM383.213 760.18L383.327 762.175H383.384C384.619 760.655 386.082 759.895 387.773 759.895C389.559 759.895 390.975 760.569 392.02 761.918C393.084 763.248 393.616 765.139 393.616 767.59C393.616 769.984 393.065 771.865 391.963 773.233C390.88 774.601 389.483 775.285 387.773 775.285C386.101 775.285 384.743 774.62 383.698 773.29H383.641V781.27H378.226V760.18H383.213ZM388.486 767.59C388.486 766.412 388.267 765.528 387.83 764.939C387.412 764.331 386.823 764.027 386.063 764.027C385.322 764.027 384.733 764.331 384.296 764.939C383.859 765.528 383.641 766.364 383.641 767.447V767.732C383.641 768.834 383.859 769.68 384.296 770.269C384.733 770.858 385.322 771.152 386.063 771.152C386.766 771.152 387.346 770.848 387.802 770.24C388.258 769.613 388.486 768.73 388.486 767.59ZM396.915 775V753.625H402.615V775H396.915ZM414.192 765.31H415.047C415.047 764.664 414.923 764.217 414.676 763.97C414.429 763.723 413.983 763.6 413.337 763.6C411.342 763.6 409.394 764.027 407.494 764.882L406.782 761.177C408.872 760.322 411.152 759.895 413.622 759.895C416.092 759.895 417.849 760.36 418.894 761.291C419.939 762.203 420.462 763.733 420.462 765.88V771.01C420.462 772.378 420.604 773.708 420.889 775H415.759C415.645 774.354 415.55 773.689 415.474 773.005H415.417C414.904 773.689 414.239 774.24 413.422 774.658C412.605 775.076 411.769 775.285 410.914 775.285C409.451 775.285 408.273 774.886 407.38 774.088C406.506 773.271 406.069 772.15 406.069 770.725C406.069 769.091 406.763 767.78 408.15 766.792C409.556 765.804 411.57 765.31 414.192 765.31ZM410.914 770.155C410.914 771.01 411.389 771.438 412.339 771.438C413.156 771.438 413.812 771.209 414.306 770.753C414.8 770.297 415.047 769.67 415.047 768.872V768.445H414.192C413.109 768.445 412.292 768.606 411.741 768.929C411.19 769.233 410.914 769.642 410.914 770.155ZM430.296 770.155H430.353L433.032 760.18H438.732L431.037 781.27H425.337L427.902 775L422.202 760.18H428.187L430.296 770.155ZM444.762 766.165H449.578C449.578 764.36 448.771 763.457 447.156 763.457C445.693 763.457 444.895 764.36 444.762 766.165ZM444.819 769.3C445.142 770.82 446.225 771.58 448.068 771.58C449.493 771.58 450.851 771.247 452.143 770.582L453.283 774.145C451.535 774.905 449.635 775.285 447.583 775.285C445.132 775.285 443.166 774.592 441.684 773.204C440.202 771.817 439.461 769.946 439.461 767.59C439.461 765.215 440.135 763.343 441.484 761.975C442.852 760.588 444.695 759.895 447.013 759.895C449.388 759.895 451.241 760.569 452.571 761.918C453.901 763.248 454.566 765.139 454.566 767.59C454.566 768.103 454.518 768.673 454.423 769.3H444.819ZM469.267 759.895V764.17C467.139 764.17 465.533 764.569 464.45 765.367C463.367 766.165 462.826 767.286 462.826 768.73V775H457.297V760.18H462.398L462.427 763.03H462.484C464.118 760.94 466.379 759.895 469.267 759.895ZM476.716 762.175H472.156L473.866 753.055H480.136L476.716 762.175ZM494.702 764.654C492.973 764.027 491.358 763.714 489.857 763.714C489.04 763.714 488.479 763.79 488.175 763.942C487.871 764.075 487.719 764.293 487.719 764.597C487.719 764.882 487.843 765.101 488.09 765.253C488.337 765.405 488.783 765.519 489.429 765.595C491.766 765.88 493.438 766.431 494.445 767.248C495.471 768.065 495.984 769.176 495.984 770.582C495.984 772.026 495.405 773.176 494.246 774.031C493.106 774.867 491.453 775.285 489.287 775.285C486.722 775.285 484.394 774.81 482.304 773.86L483.302 770.041C485.012 770.953 486.817 771.409 488.717 771.409C489.952 771.409 490.569 771.086 490.569 770.44C490.569 770.193 490.474 770.022 490.284 769.927C490.094 769.832 489.619 769.718 488.859 769.585C486.56 769.224 484.917 768.635 483.929 767.818C482.941 766.982 482.447 765.861 482.447 764.455C482.447 763.03 483.017 761.918 484.157 761.12C485.297 760.303 487.007 759.895 489.287 759.895C491.548 759.895 493.685 760.227 495.699 760.892L494.702 764.654ZM515.5 765.31H516.355C516.355 764.664 516.232 764.217 515.985 763.97C515.738 763.723 515.291 763.6 514.645 763.6C512.65 763.6 510.703 764.027 508.803 764.882L508.09 761.177C510.18 760.322 512.46 759.895 514.93 759.895C517.4 759.895 519.158 760.36 520.203 761.291C521.248 762.203 521.77 763.733 521.77 765.88V771.01C521.77 772.378 521.913 773.708 522.198 775H517.068C516.954 774.354 516.859 773.689 516.783 773.005H516.726C516.213 773.689 515.548 774.24 514.731 774.658C513.914 775.076 513.078 775.285 512.223 775.285C510.76 775.285 509.582 774.886 508.689 774.088C507.815 773.271 507.378 772.15 507.378 770.725C507.378 769.091 508.071 767.78 509.458 766.792C510.864 765.804 512.878 765.31 515.5 765.31ZM512.223 770.155C512.223 771.01 512.698 771.438 513.648 771.438C514.465 771.438 515.12 771.209 515.614 770.753C516.108 770.297 516.355 769.67 516.355 768.872V768.445H515.5C514.417 768.445 513.6 768.606 513.049 768.929C512.498 769.233 512.223 769.642 512.223 770.155ZM537.056 770.354L538.196 774.145C536.562 774.905 534.852 775.285 533.066 775.285C530.444 775.285 528.363 774.592 526.824 773.204C525.285 771.817 524.516 769.946 524.516 767.59C524.516 765.215 525.266 763.343 526.767 761.975C528.287 760.588 530.387 759.895 533.066 759.895C534.909 759.895 536.619 760.275 538.196 761.035L537.056 764.882C535.878 764.16 534.643 763.799 533.351 763.799C532.268 763.799 531.422 764.122 530.814 764.768C530.225 765.414 529.931 766.355 529.931 767.59C529.931 768.787 530.244 769.727 530.871 770.411C531.498 771.095 532.325 771.438 533.351 771.438C534.643 771.438 535.878 771.076 537.056 770.354ZM549.326 775.285C547.445 775.285 546.049 774.858 545.137 774.002C544.225 773.128 543.769 771.751 543.769 769.87V764.455H540.776V760.75H543.769V755.335H549.298V760.75H553.886V764.455H549.298V769.015C549.298 769.927 549.402 770.535 549.611 770.839C549.82 771.143 550.2 771.295 550.751 771.295C551.587 771.295 552.442 771.152 553.316 770.867L553.886 774.715C552.48 775.095 550.96 775.285 549.326 775.285ZM558.034 757.615V753.625H563.734V757.615H558.034ZM558.034 775V760.18H563.734V775H558.034ZM574.912 771.865H574.969L577.363 760.18H583.006L578.589 775H571.179L566.761 760.18H572.518L574.912 771.865ZM589.349 766.165H594.166C594.166 764.36 593.358 763.457 591.743 763.457C590.28 763.457 589.482 764.36 589.349 766.165ZM589.406 769.3C589.729 770.82 590.812 771.58 592.655 771.58C594.08 771.58 595.439 771.247 596.731 770.582L597.871 774.145C596.123 774.905 594.223 775.285 592.171 775.285C589.72 775.285 587.753 774.592 586.271 773.204C584.789 771.817 584.048 769.946 584.048 767.59C584.048 765.215 584.723 763.343 586.072 761.975C587.44 760.588 589.283 759.895 591.601 759.895C593.976 759.895 595.828 760.569 597.158 761.918C598.488 763.248 599.153 765.139 599.153 767.59C599.153 768.103 599.106 768.673 599.011 769.3H589.406ZM31.2223 811.354L32.3623 815.145C30.7283 815.905 29.0183 816.285 27.2323 816.285C24.6103 816.285 22.5298 815.592 20.9908 814.204C19.4518 812.817 18.6823 810.946 18.6823 808.59C18.6823 806.215 19.4328 804.343 20.9338 802.975C22.4538 801.588 24.5533 800.895 27.2323 800.895C29.0753 800.895 30.7853 801.275 32.3623 802.035L31.2223 805.882C30.0443 805.16 28.8093 804.799 27.5173 804.799C26.4343 804.799 25.5888 805.122 24.9808 805.768C24.3918 806.414 24.0973 807.355 24.0973 808.59C24.0973 809.787 24.4108 810.727 25.0378 811.411C25.6648 812.095 26.4913 812.438 27.5173 812.438C28.8093 812.438 30.0443 812.076 31.2223 811.354ZM43.0654 806.31H43.9204C43.9204 805.664 43.7969 805.217 43.5499 804.97C43.3029 804.723 42.8564 804.6 42.2104 804.6C40.2154 804.6 38.2679 805.027 36.3679 805.882L35.6554 802.177C37.7454 801.322 40.0254 800.895 42.4954 800.895C44.9654 800.895 46.7229 801.36 47.7679 802.291C48.8129 803.203 49.3354 804.733 49.3354 806.88V812.01C49.3354 813.378 49.4779 814.708 49.7629 816H44.6329C44.5189 815.354 44.4239 814.689 44.3479 814.005H44.2909C43.7779 814.689 43.1129 815.24 42.2959 815.658C41.4789 816.076 40.6429 816.285 39.7879 816.285C38.3249 816.285 37.1469 815.886 36.2539 815.088C35.3799 814.271 34.9429 813.15 34.9429 811.725C34.9429 810.091 35.6364 808.78 37.0234 807.792C38.4294 806.804 40.4434 806.31 43.0654 806.31ZM39.7879 811.155C39.7879 812.01 40.2629 812.438 41.2129 812.438C42.0299 812.438 42.6854 812.209 43.1794 811.753C43.6734 811.297 43.9204 810.67 43.9204 809.872V809.445H43.0654C41.9824 809.445 41.1654 809.606 40.6144 809.929C40.0634 810.233 39.7879 810.642 39.7879 811.155ZM65.0482 800.895V805.17C62.9202 805.17 61.3147 805.569 60.2317 806.367C59.1487 807.165 58.6072 808.286 58.6072 809.73V816H53.0782V801.18H58.1797L58.2082 804.03H58.2652C59.8992 801.94 62.1602 800.895 65.0482 800.895ZM66.668 808.59C66.668 806.139 67.1905 804.248 68.2355 802.918C69.2995 801.569 70.7245 800.895 72.5105 800.895C74.1255 800.895 75.484 801.56 76.586 802.89H76.643V794.625H82.058V816H77.0705L76.9565 814.005H76.8995C75.7025 815.525 74.2395 816.285 72.5105 816.285C70.8005 816.285 69.3945 815.601 68.2925 814.233C67.2095 812.865 66.668 810.984 66.668 808.59ZM71.798 808.59C71.798 809.73 72.026 810.613 72.482 811.24C72.938 811.848 73.5175 812.152 74.2205 812.152C74.9615 812.152 75.5505 811.858 75.9875 811.269C76.4245 810.68 76.643 809.834 76.643 808.732V808.447C76.643 807.364 76.4245 806.528 75.9875 805.939C75.5505 805.331 74.9615 805.027 74.2205 805.027C73.4605 805.027 72.862 805.331 72.425 805.939C72.007 806.528 71.798 807.412 71.798 808.59ZM97.6084 805.654C95.8794 805.027 94.2644 804.714 92.7634 804.714C91.9464 804.714 91.3859 804.79 91.0819 804.942C90.7779 805.075 90.6259 805.293 90.6259 805.597C90.6259 805.882 90.7494 806.101 90.9964 806.253C91.2434 806.405 91.6899 806.519 92.3359 806.595C94.6729 806.88 96.3449 807.431 97.3519 808.248C98.3779 809.065 98.8909 810.176 98.8909 811.582C98.8909 813.026 98.3114 814.176 97.1524 815.031C96.0124 815.867 94.3594 816.285 92.1934 816.285C89.6284 816.285 87.3009 815.81 85.2109 814.86L86.2084 811.041C87.9184 811.953 89.7234 812.409 91.6234 812.409C92.8584 812.409 93.4759 812.086 93.4759 811.44C93.4759 811.193 93.3809 811.022 93.1909 810.927C93.0009 810.832 92.5259 810.718 91.7659 810.585C89.4669 810.224 87.8234 809.635 86.8354 808.818C85.8474 807.982 85.3534 806.861 85.3534 805.455C85.3534 804.03 85.9234 802.918 87.0634 802.12C88.2034 801.303 89.9134 800.895 92.1934 800.895C94.4544 800.895 96.5919 801.227 98.6059 801.892L97.6084 805.654ZM102.215 816V810.015H108.485V816H102.215ZM127.555 808.732V816H121.997V795.337C124.467 795.052 126.937 794.91 129.407 794.91C135.107 794.91 137.957 797.047 137.957 801.322C137.957 802.519 137.587 803.631 136.846 804.657C136.105 805.683 135.145 806.414 133.967 806.851V806.908C134.537 807.231 135.012 807.649 135.392 808.162C135.772 808.656 136.133 809.369 136.475 810.3L138.527 816H132.685L130.918 810.585C130.709 809.92 130.443 809.445 130.12 809.16C129.797 808.875 129.369 808.732 128.837 808.732H127.555ZM127.555 804.6H129.122C130.091 804.6 130.851 804.362 131.402 803.887C131.972 803.393 132.257 802.728 132.257 801.892C132.257 800.087 131.212 799.185 129.122 799.185C128.514 799.185 127.992 799.232 127.555 799.327V804.6ZM144.997 807.165H149.813C149.813 805.36 149.006 804.457 147.391 804.457C145.928 804.457 145.13 805.36 144.997 807.165ZM145.054 810.3C145.377 811.82 146.46 812.58 148.303 812.58C149.728 812.58 151.086 812.247 152.378 811.582L153.518 815.145C151.77 815.905 149.87 816.285 147.818 816.285C145.367 816.285 143.401 815.592 141.919 814.204C140.437 812.817 139.696 810.946 139.696 808.59C139.696 806.215 140.37 804.343 141.719 802.975C143.087 801.588 144.93 800.895 147.248 800.895C149.623 800.895 151.476 801.569 152.806 802.918C154.136 804.248 154.801 806.139 154.801 808.59C154.801 809.103 154.753 809.673 154.658 810.3H145.054ZM156.955 808.59C156.955 806.139 157.478 804.248 158.523 802.918C159.587 801.569 161.012 800.895 162.798 800.895C164.413 800.895 165.771 801.56 166.873 802.89H166.93V794.625H172.345V816H167.358L167.244 814.005H167.187C165.99 815.525 164.527 816.285 162.798 816.285C161.088 816.285 159.682 815.601 158.58 814.233C157.497 812.865 156.955 810.984 156.955 808.59ZM162.085 808.59C162.085 809.73 162.313 810.613 162.769 811.24C163.225 811.848 163.805 812.152 164.508 812.152C165.249 812.152 165.838 811.858 166.275 811.269C166.712 810.68 166.93 809.834 166.93 808.732V808.447C166.93 807.364 166.712 806.528 166.275 805.939C165.838 805.331 165.249 805.027 164.508 805.027C163.748 805.027 163.149 805.331 162.712 805.939C162.294 806.528 162.085 807.412 162.085 808.59ZM176.638 798.615V794.625H182.338V798.615H176.638ZM176.638 816V801.18H182.338V816H176.638ZM198.332 805.654C196.603 805.027 194.988 804.714 193.487 804.714C192.67 804.714 192.11 804.79 191.806 804.942C191.502 805.075 191.35 805.293 191.35 805.597C191.35 805.882 191.473 806.101 191.72 806.253C191.967 806.405 192.414 806.519 193.06 806.595C195.397 806.88 197.069 807.431 198.076 808.248C199.102 809.065 199.615 810.176 199.615 811.582C199.615 813.026 199.035 814.176 197.876 815.031C196.736 815.867 195.083 816.285 192.917 816.285C190.352 816.285 188.025 815.81 185.935 814.86L186.932 811.041C188.642 811.953 190.447 812.409 192.347 812.409C193.582 812.409 194.2 812.086 194.2 811.44C194.2 811.193 194.105 811.022 193.915 810.927C193.725 810.832 193.25 810.718 192.49 810.585C190.191 810.224 188.547 809.635 187.559 808.818C186.571 807.982 186.077 806.861 186.077 805.455C186.077 804.03 186.647 802.918 187.787 802.12C188.927 801.303 190.637 800.895 192.917 800.895C195.178 800.895 197.316 801.227 199.33 801.892L198.332 805.654ZM209.928 816.285C208.047 816.285 206.651 815.858 205.739 815.002C204.827 814.128 204.371 812.751 204.371 810.87V805.455H201.378V801.75H204.371V796.335H209.9V801.75H214.488V805.455H209.9V810.015C209.9 810.927 210.004 811.535 210.213 811.839C210.422 812.143 210.802 812.295 211.353 812.295C212.189 812.295 213.044 812.152 213.918 811.867L214.488 815.715C213.082 816.095 211.562 816.285 209.928 816.285ZM230.036 800.895V805.17C227.908 805.17 226.303 805.569 225.22 806.367C224.137 807.165 223.595 808.286 223.595 809.73V816H218.066V801.18H223.168L223.196 804.03H223.253C224.887 801.94 227.148 800.895 230.036 800.895ZM233.638 798.615V794.625H239.338V798.615H233.638ZM233.638 816V801.18H239.338V816H233.638ZM259.037 808.59C259.037 810.984 258.486 812.865 257.384 814.233C256.301 815.601 254.905 816.285 253.195 816.285C251.466 816.285 250.003 815.525 248.806 814.005H248.749L248.635 816H243.647V794.625H249.062V802.89H249.119C250.221 801.56 251.58 800.895 253.195 800.895C254.981 800.895 256.396 801.569 257.441 802.918C258.505 804.248 259.037 806.139 259.037 808.59ZM253.907 808.59C253.907 807.412 253.689 806.528 253.252 805.939C252.834 805.331 252.245 805.027 251.485 805.027C250.744 805.027 250.155 805.331 249.718 805.939C249.281 806.528 249.062 807.364 249.062 808.447V808.732C249.062 809.834 249.281 810.68 249.718 811.269C250.155 811.858 250.744 812.152 251.485 812.152C252.188 812.152 252.767 811.848 253.223 811.24C253.679 810.613 253.907 809.73 253.907 808.59ZM270.997 814.005C270.465 814.708 269.8 815.268 269.002 815.686C268.223 816.086 267.425 816.285 266.608 816.285C264.822 816.285 263.539 815.82 262.76 814.888C262 813.957 261.62 812.333 261.62 810.015V801.18H266.978V809.445C266.978 810.547 267.083 811.278 267.292 811.639C267.501 811.981 267.89 812.152 268.46 812.152C269.049 812.152 269.572 811.829 270.028 811.183C270.503 810.537 270.74 809.768 270.74 808.875V801.18H276.155V816H271.168L271.054 814.005H270.997ZM287.58 816.285C285.699 816.285 284.302 815.858 283.39 815.002C282.478 814.128 282.022 812.751 282.022 810.87V805.455H279.03V801.75H282.022V796.335H287.551V801.75H292.14V805.455H287.551V810.015C287.551 810.927 287.656 811.535 287.865 811.839C288.074 812.143 288.454 812.295 289.005 812.295C289.841 812.295 290.696 812.152 291.57 811.867L292.14 815.715C290.734 816.095 289.214 816.285 287.58 816.285ZM299.743 807.165H304.56C304.56 805.36 303.752 804.457 302.137 804.457C300.674 804.457 299.876 805.36 299.743 807.165ZM299.8 810.3C300.123 811.82 301.206 812.58 303.049 812.58C304.474 812.58 305.833 812.247 307.125 811.582L308.265 815.145C306.517 815.905 304.617 816.285 302.565 816.285C300.114 816.285 298.147 815.592 296.665 814.204C295.183 812.817 294.442 810.946 294.442 808.59C294.442 806.215 295.117 804.343 296.466 802.975C297.834 801.588 299.677 800.895 301.995 800.895C304.37 800.895 306.222 801.569 307.552 802.918C308.882 804.248 309.547 806.139 309.547 808.59C309.547 809.103 309.5 809.673 309.405 810.3H299.8ZM332.894 811.354L334.034 815.145C332.4 815.905 330.69 816.285 328.904 816.285C326.282 816.285 324.201 815.592 322.662 814.204C321.123 812.817 320.354 810.946 320.354 808.59C320.354 806.215 321.104 804.343 322.605 802.975C324.125 801.588 326.225 800.895 328.904 800.895C330.747 800.895 332.457 801.275 334.034 802.035L332.894 805.882C331.716 805.16 330.481 804.799 329.189 804.799C328.106 804.799 327.26 805.122 326.652 805.768C326.063 806.414 325.769 807.355 325.769 808.59C325.769 809.787 326.082 810.727 326.709 811.411C327.336 812.095 328.163 812.438 329.189 812.438C330.481 812.438 331.716 812.076 332.894 811.354ZM337.897 816V794.625H343.597V816H337.897ZM348.818 802.947C350.186 801.579 352.115 800.895 354.604 800.895C357.093 800.895 359.021 801.579 360.389 802.947C361.757 804.315 362.441 806.196 362.441 808.59C362.441 810.984 361.757 812.865 360.389 814.233C359.021 815.601 357.093 816.285 354.604 816.285C352.115 816.285 350.186 815.601 348.818 814.233C347.45 812.865 346.766 810.984 346.766 808.59C346.766 806.196 347.45 804.315 348.818 802.947ZM352.694 811.525C353.112 812.114 353.749 812.409 354.604 812.409C355.459 812.409 356.095 812.114 356.513 811.525C356.931 810.936 357.14 809.958 357.14 808.59C357.14 807.222 356.931 806.243 356.513 805.654C356.095 805.065 355.459 804.771 354.604 804.771C353.749 804.771 353.112 805.065 352.694 805.654C352.276 806.243 352.067 807.222 352.067 808.59C352.067 809.958 352.276 810.936 352.694 811.525ZM376.868 811.354L378.008 815.145C376.374 815.905 374.664 816.285 372.878 816.285C370.256 816.285 368.176 815.592 366.637 814.204C365.098 812.817 364.328 810.946 364.328 808.59C364.328 806.215 365.079 804.343 366.58 802.975C368.1 801.588 370.199 800.895 372.878 800.895C374.721 800.895 376.431 801.275 378.008 802.035L376.868 805.882C375.69 805.16 374.455 804.799 373.163 804.799C372.08 804.799 371.235 805.122 370.627 805.768C370.038 806.414 369.743 807.355 369.743 808.59C369.743 809.787 370.057 810.727 370.684 811.411C371.311 812.095 372.137 812.438 373.163 812.438C374.455 812.438 375.69 812.076 376.868 811.354ZM386.916 810.015H386.859V816H381.444V794.625H386.859V806.595H386.916L390.849 801.18H396.976L391.276 808.305L397.119 816H390.991L386.916 810.015ZM414.863 811.725H414.92L416.317 801.18H421.532L418.112 816H411.842L410.161 805.74H410.104L408.422 816H402.152L398.732 801.18H404.062L405.458 811.725H405.515L407.197 801.18H413.182L414.863 811.725ZM424.844 798.615V794.625H430.544V798.615H424.844ZM424.844 816V801.18H430.544V816H424.844ZM446.539 805.654C444.81 805.027 443.195 804.714 441.694 804.714C440.877 804.714 440.316 804.79 440.012 804.942C439.708 805.075 439.556 805.293 439.556 805.597C439.556 805.882 439.68 806.101 439.927 806.253C440.174 806.405 440.62 806.519 441.266 806.595C443.603 806.88 445.275 807.431 446.282 808.248C447.308 809.065 447.821 810.176 447.821 811.582C447.821 813.026 447.242 814.176 446.083 815.031C444.943 815.867 443.29 816.285 441.124 816.285C438.559 816.285 436.231 815.81 434.141 814.86L435.139 811.041C436.849 811.953 438.654 812.409 440.554 812.409C441.789 812.409 442.406 812.086 442.406 811.44C442.406 811.193 442.311 811.022 442.121 810.927C441.931 810.832 441.456 810.718 440.696 810.585C438.397 810.224 436.754 809.635 435.766 808.818C434.778 807.982 434.284 806.861 434.284 805.455C434.284 804.03 434.854 802.918 435.994 802.12C437.134 801.303 438.844 800.895 441.124 800.895C443.385 800.895 445.522 801.227 447.536 801.892L446.539 805.654ZM455.157 807.165H459.974C459.974 805.36 459.166 804.457 457.551 804.457C456.088 804.457 455.29 805.36 455.157 807.165ZM455.214 810.3C455.537 811.82 456.62 812.58 458.463 812.58C459.888 812.58 461.247 812.247 462.539 811.582L463.679 815.145C461.931 815.905 460.031 816.285 457.979 816.285C455.528 816.285 453.561 815.592 452.079 814.204C450.597 812.817 449.856 810.946 449.856 808.59C449.856 806.215 450.531 804.343 451.88 802.975C453.248 801.588 455.091 800.895 457.409 800.895C459.784 800.895 461.636 801.569 462.966 802.918C464.296 804.248 464.961 806.139 464.961 808.59C464.961 809.103 464.914 809.673 464.819 810.3H455.214ZM471.407 819.135H466.847L468.557 810.015H474.827L471.407 819.135ZM499.169 805.654C497.44 805.027 495.825 804.714 494.324 804.714C493.507 804.714 492.946 804.79 492.642 804.942C492.338 805.075 492.186 805.293 492.186 805.597C492.186 805.882 492.31 806.101 492.557 806.253C492.804 806.405 493.25 806.519 493.896 806.595C496.233 806.88 497.905 807.431 498.912 808.248C499.938 809.065 500.451 810.176 500.451 811.582C500.451 813.026 499.872 814.176 498.713 815.031C497.573 815.867 495.92 816.285 493.754 816.285C491.189 816.285 488.861 815.81 486.771 814.86L487.769 811.041C489.479 811.953 491.284 812.409 493.184 812.409C494.419 812.409 495.036 812.086 495.036 811.44C495.036 811.193 494.941 811.022 494.751 810.927C494.561 810.832 494.086 810.718 493.326 810.585C491.027 810.224 489.384 809.635 488.396 808.818C487.408 807.982 486.914 806.861 486.914 805.455C486.914 804.03 487.484 802.918 488.624 802.12C489.764 801.303 491.474 800.895 493.754 800.895C496.015 800.895 498.152 801.227 500.166 801.892L499.169 805.654ZM510.765 816.285C508.884 816.285 507.487 815.858 506.575 815.002C505.663 814.128 505.207 812.751 505.207 810.87V805.455H502.215V801.75H505.207V796.335H510.736V801.75H515.325V805.455H510.736V810.015C510.736 810.927 510.841 811.535 511.05 811.839C511.259 812.143 511.639 812.295 512.19 812.295C513.026 812.295 513.881 812.152 514.755 811.867L515.325 815.715C513.919 816.095 512.399 816.285 510.765 816.285ZM526.035 806.31H526.89C526.89 805.664 526.766 805.217 526.519 804.97C526.272 804.723 525.826 804.6 525.18 804.6C523.185 804.6 521.237 805.027 519.337 805.882L518.625 802.177C520.715 801.322 522.995 800.895 525.465 800.895C527.935 800.895 529.692 801.36 530.737 802.291C531.782 803.203 532.305 804.733 532.305 806.88V812.01C532.305 813.378 532.447 814.708 532.732 816H527.602C527.488 815.354 527.393 814.689 527.317 814.005H527.26C526.747 814.689 526.082 815.24 525.265 815.658C524.448 816.076 523.612 816.285 522.757 816.285C521.294 816.285 520.116 815.886 519.223 815.088C518.349 814.271 517.912 813.15 517.912 811.725C517.912 810.091 518.606 808.78 519.993 807.792C521.399 806.804 523.413 806.31 526.035 806.31ZM522.757 811.155C522.757 812.01 523.232 812.438 524.182 812.438C524.999 812.438 525.655 812.209 526.149 811.753C526.643 811.297 526.89 810.67 526.89 809.872V809.445H526.035C524.952 809.445 524.135 809.606 523.584 809.929C523.033 810.233 522.757 810.642 522.757 811.155ZM548.017 800.895V805.17C545.889 805.17 544.284 805.569 543.201 806.367C542.118 807.165 541.576 808.286 541.576 809.73V816H536.047V801.18H541.149L541.177 804.03H541.234C542.868 801.94 545.129 800.895 548.017 800.895ZM558.886 816.285C557.005 816.285 555.609 815.858 554.697 815.002C553.785 814.128 553.329 812.751 553.329 810.87V805.455H550.336V801.75H553.329V796.335H558.858V801.75H563.446V805.455H558.858V810.015C558.858 810.927 558.962 811.535 559.171 811.839C559.38 812.143 559.76 812.295 560.311 812.295C561.147 812.295 562.002 812.152 562.876 811.867L563.446 815.715C562.04 816.095 560.52 816.285 558.886 816.285ZM567.595 798.615V794.625H573.295V798.615H567.595ZM567.595 816V801.18H573.295V816H567.595ZM582.62 803.175C583.152 802.472 583.808 801.921 584.587 801.522C585.385 801.104 586.192 800.895 587.009 800.895C588.89 800.895 590.239 801.427 591.056 802.491C591.873 803.536 592.282 805.379 592.282 808.02V816H586.924V808.59C586.924 807.165 586.791 806.215 586.525 805.74C586.278 805.265 585.822 805.027 585.157 805.027C584.568 805.027 584.036 805.35 583.561 805.996C583.105 806.642 582.877 807.412 582.877 808.305V816H577.462V801.18H582.449L582.563 803.175H582.62ZM604.982 813.72H604.953C603.851 815.05 602.436 815.715 600.707 815.715C599.016 815.715 597.619 815.059 596.517 813.748C595.415 812.418 594.864 810.604 594.864 808.305C594.864 805.968 595.396 804.153 596.46 802.861C597.524 801.55 598.94 800.895 600.707 800.895C602.398 800.895 603.861 801.655 605.096 803.175H605.153L605.267 801.18H610.254V814.29C610.254 817.007 609.504 819.059 608.003 820.446C606.502 821.852 604.307 822.555 601.419 822.555C599.595 822.555 597.885 822.27 596.289 821.7L597.144 817.881C598.474 818.432 599.804 818.708 601.134 818.708C602.521 818.708 603.509 818.375 604.098 817.71C604.687 817.064 604.982 815.924 604.982 814.29V813.72ZM599.994 808.305C599.994 809.388 600.213 810.233 600.65 810.841C601.106 811.43 601.695 811.725 602.417 811.725C603.158 811.725 603.747 811.449 604.184 810.898C604.621 810.328 604.839 809.511 604.839 808.447V808.162C604.839 807.117 604.621 806.31 604.184 805.74C603.747 805.17 603.158 804.885 602.417 804.885C601.657 804.885 601.058 805.179 600.621 805.768C600.203 806.338 599.994 807.184 599.994 808.305ZM121.583 852.725H121.64L123.036 842.18H128.252L124.832 857H118.562L116.88 846.74H116.823L115.142 857H108.872L105.452 842.18H110.781L112.178 852.725H112.235L113.916 842.18H119.901L121.583 852.725ZM131.564 839.615V835.625H137.264V839.615H131.564ZM131.564 857V842.18H137.264V857H131.564ZM149.268 857.285C147.387 857.285 145.991 856.858 145.079 856.002C144.167 855.128 143.711 853.751 143.711 851.87V846.455H140.718V842.75H143.711V837.335H149.24V842.75H153.828V846.455H149.24V851.015C149.24 851.927 149.344 852.535 149.553 852.839C149.762 853.143 150.142 853.295 150.693 853.295C151.529 853.295 152.384 853.152 153.258 852.867L153.828 856.715C152.422 857.095 150.902 857.285 149.268 857.285ZM172.369 849.02V857H167.011V849.59C167.011 848.165 166.878 847.215 166.612 846.74C166.365 846.265 165.909 846.027 165.244 846.027C164.655 846.027 164.123 846.35 163.648 846.996C163.192 847.642 162.964 848.412 162.964 849.305V857H157.549V835.625H162.964V843.89H163.021C163.496 843.282 164.104 842.797 164.845 842.436C165.586 842.075 166.337 841.895 167.097 841.895C168.978 841.895 170.327 842.427 171.144 843.491C171.961 844.536 172.369 846.379 172.369 849.02ZM192.742 857.285C190.861 857.285 189.465 856.858 188.553 856.002C187.641 855.128 187.185 853.751 187.185 851.87V846.455H184.192V842.75H187.185V837.335H192.714V842.75H197.302V846.455H192.714V851.015C192.714 851.927 192.818 852.535 193.027 852.839C193.236 853.143 193.616 853.295 194.167 853.295C195.003 853.295 195.858 853.152 196.732 852.867L197.302 856.715C195.896 857.095 194.376 857.285 192.742 857.285ZM215.843 849.02V857H210.485V849.59C210.485 848.165 210.352 847.215 210.086 846.74C209.839 846.265 209.383 846.027 208.718 846.027C208.129 846.027 207.597 846.35 207.122 846.996C206.666 847.642 206.438 848.412 206.438 849.305V857H201.023V835.625H206.438V843.89H206.495C206.97 843.282 207.578 842.797 208.319 842.436C209.06 842.075 209.81 841.895 210.57 841.895C212.451 841.895 213.8 842.427 214.617 843.491C215.434 844.536 215.843 846.379 215.843 849.02ZM223.609 848.165H228.425C228.425 846.36 227.618 845.457 226.003 845.457C224.54 845.457 223.742 846.36 223.609 848.165ZM223.666 851.3C223.989 852.82 225.072 853.58 226.915 853.58C228.34 853.58 229.698 853.247 230.99 852.582L232.13 856.145C230.382 856.905 228.482 857.285 226.43 857.285C223.979 857.285 222.013 856.592 220.531 855.204C219.049 853.817 218.308 851.946 218.308 849.59C218.308 847.215 218.982 845.343 220.331 843.975C221.699 842.588 223.542 841.895 225.86 841.895C228.235 841.895 230.088 842.569 231.418 843.918C232.748 845.248 233.413 847.139 233.413 849.59C233.413 850.103 233.365 850.673 233.27 851.3H223.666ZM250.204 842.18L250.318 844.175H250.375C251.61 842.655 253.073 841.895 254.764 841.895C256.55 841.895 257.966 842.569 259.011 843.918C260.075 845.248 260.607 847.139 260.607 849.59C260.607 851.984 260.056 853.865 258.954 855.233C257.871 856.601 256.474 857.285 254.764 857.285C253.092 857.285 251.734 856.62 250.689 855.29H250.632V863.27H245.217V842.18H250.204ZM255.477 849.59C255.477 848.412 255.258 847.528 254.821 846.939C254.403 846.331 253.814 846.027 253.054 846.027C252.313 846.027 251.724 846.331 251.287 846.939C250.85 847.528 250.632 848.364 250.632 849.447V849.732C250.632 850.834 250.85 851.68 251.287 852.269C251.724 852.858 252.313 853.152 253.054 853.152C253.757 853.152 254.337 852.848 254.793 852.24C255.249 851.613 255.477 850.73 255.477 849.59ZM263.905 857V835.625H269.605V857H263.905ZM281.182 847.31H282.037C282.037 846.664 281.914 846.217 281.667 845.97C281.42 845.723 280.973 845.6 280.327 845.6C278.332 845.6 276.385 846.027 274.485 846.882L273.772 843.177C275.862 842.322 278.142 841.895 280.612 841.895C283.082 841.895 284.84 842.36 285.885 843.291C286.93 844.203 287.452 845.733 287.452 847.88V853.01C287.452 854.378 287.595 855.708 287.88 857H282.75C282.636 856.354 282.541 855.689 282.465 855.005H282.408C281.895 855.689 281.23 856.24 280.413 856.658C279.596 857.076 278.76 857.285 277.905 857.285C276.442 857.285 275.264 856.886 274.371 856.088C273.497 855.271 273.06 854.15 273.06 852.725C273.06 851.091 273.753 849.78 275.14 848.792C276.546 847.804 278.56 847.31 281.182 847.31ZM277.905 852.155C277.905 853.01 278.38 853.438 279.33 853.438C280.147 853.438 280.802 853.209 281.296 852.753C281.79 852.297 282.037 851.67 282.037 850.872V850.445H281.182C280.099 850.445 279.282 850.606 278.731 850.929C278.18 851.233 277.905 851.642 277.905 852.155ZM297.286 852.155H297.343L300.022 842.18H305.722L298.027 863.27H292.327L294.892 857L289.192 842.18H295.177L297.286 852.155ZM311.753 848.165H316.569C316.569 846.36 315.762 845.457 314.147 845.457C312.684 845.457 311.886 846.36 311.753 848.165ZM311.81 851.3C312.133 852.82 313.216 853.58 315.059 853.58C316.484 853.58 317.842 853.247 319.134 852.582L320.274 856.145C318.526 856.905 316.626 857.285 314.574 857.285C312.123 857.285 310.157 856.592 308.675 855.204C307.193 853.817 306.452 851.946 306.452 849.59C306.452 847.215 307.126 845.343 308.475 843.975C309.843 842.588 311.686 841.895 314.004 841.895C316.379 841.895 318.232 842.569 319.562 843.918C320.892 845.248 321.557 847.139 321.557 849.59C321.557 850.103 321.509 850.673 321.414 851.3H311.81ZM336.257 841.895V846.17C334.129 846.17 332.524 846.569 331.441 847.367C330.358 848.165 329.816 849.286 329.816 850.73V857H324.287V842.18H329.389L329.417 845.03H329.474C331.108 842.94 333.369 841.895 336.257 841.895ZM356.2 857.285C354.319 857.285 352.922 856.858 352.01 856.002C351.098 855.128 350.642 853.751 350.642 851.87V846.455H347.65V842.75H350.642V837.335H356.171V842.75H360.76V846.455H356.171V851.015C356.171 851.927 356.276 852.535 356.485 852.839C356.694 853.143 357.074 853.295 357.625 853.295C358.461 853.295 359.316 853.152 360.19 852.867L360.76 856.715C359.354 857.095 357.834 857.285 356.2 857.285ZM365.114 843.947C366.482 842.579 368.41 841.895 370.899 841.895C373.388 841.895 375.317 842.579 376.685 843.947C378.053 845.315 378.737 847.196 378.737 849.59C378.737 851.984 378.053 853.865 376.685 855.233C375.317 856.601 373.388 857.285 370.899 857.285C368.41 857.285 366.482 856.601 365.114 855.233C363.746 853.865 363.062 851.984 363.062 849.59C363.062 847.196 363.746 845.315 365.114 843.947ZM368.99 852.525C369.408 853.114 370.044 853.409 370.899 853.409C371.754 853.409 372.391 853.114 372.809 852.525C373.227 851.936 373.436 850.958 373.436 849.59C373.436 848.222 373.227 847.243 372.809 846.654C372.391 846.065 371.754 845.771 370.899 845.771C370.044 845.771 369.408 846.065 368.99 846.654C368.572 847.243 368.363 848.222 368.363 849.59C368.363 850.958 368.572 851.936 368.99 852.525ZM397.37 852.155H397.427L400.106 842.18H405.806L398.111 863.27H392.411L394.976 857L389.276 842.18H395.261L397.37 852.155ZM408.588 843.947C409.956 842.579 411.884 841.895 414.373 841.895C416.862 841.895 418.791 842.579 420.159 843.947C421.527 845.315 422.211 847.196 422.211 849.59C422.211 851.984 421.527 853.865 420.159 855.233C418.791 856.601 416.862 857.285 414.373 857.285C411.884 857.285 409.956 856.601 408.588 855.233C407.22 853.865 406.536 851.984 406.536 849.59C406.536 847.196 407.22 845.315 408.588 843.947ZM412.464 852.525C412.882 853.114 413.518 853.409 414.373 853.409C415.228 853.409 415.865 853.114 416.283 852.525C416.701 851.936 416.91 850.958 416.91 849.59C416.91 848.222 416.701 847.243 416.283 846.654C415.865 846.065 415.228 845.771 414.373 845.771C413.518 845.771 412.882 846.065 412.464 846.654C412.046 847.243 411.837 848.222 411.837 849.59C411.837 850.958 412.046 851.936 412.464 852.525ZM434.051 855.005C433.519 855.708 432.854 856.268 432.056 856.686C431.277 857.086 430.479 857.285 429.662 857.285C427.876 857.285 426.593 856.82 425.814 855.888C425.054 854.957 424.674 853.333 424.674 851.015V842.18H430.032V850.445C430.032 851.547 430.137 852.278 430.346 852.639C430.555 852.981 430.944 853.152 431.514 853.152C432.103 853.152 432.626 852.829 433.082 852.183C433.557 851.537 433.794 850.768 433.794 849.875V842.18H439.209V857H434.222L434.108 855.005H434.051ZM454.766 841.895V846.17C452.638 846.17 451.033 846.569 449.95 847.367C448.867 848.165 448.325 849.286 448.325 850.73V857H442.796V842.18H447.898L447.926 845.03H447.983C449.617 842.94 451.878 841.895 454.766 841.895ZM467.441 857V835.625H473.141V857H467.441ZM481.611 848.165H486.428C486.428 846.36 485.62 845.457 484.005 845.457C482.542 845.457 481.744 846.36 481.611 848.165ZM481.668 851.3C481.991 852.82 483.074 853.58 484.917 853.58C486.342 853.58 487.701 853.247 488.993 852.582L490.133 856.145C488.385 856.905 486.485 857.285 484.433 857.285C481.982 857.285 480.015 856.592 478.533 855.204C477.051 853.817 476.31 851.946 476.31 849.59C476.31 847.215 476.985 845.343 478.334 843.975C479.702 842.588 481.545 841.895 483.863 841.895C486.238 841.895 488.09 842.569 489.42 843.918C490.75 845.248 491.415 847.139 491.415 849.59C491.415 850.103 491.368 850.673 491.273 851.3H481.668ZM502.846 835.91C504.062 835.91 505.344 836.052 506.693 836.337L505.981 840.327C505.297 840.042 504.584 839.9 503.843 839.9C503.178 839.9 502.722 840.061 502.475 840.384C502.228 840.688 502.105 841.287 502.105 842.18V842.75H506.408V846.455H502.105V857H496.576V846.455H493.298V842.75H496.576V842.18C496.576 840.147 497.117 838.598 498.2 837.534C499.283 836.451 500.832 835.91 502.846 835.91ZM517.431 857.285C515.55 857.285 514.153 856.858 513.241 856.002C512.329 855.128 511.873 853.751 511.873 851.87V846.455H508.881V842.75H511.873V837.335H517.402V842.75H521.991V846.455H517.402V851.015C517.402 851.927 517.507 852.535 517.716 852.839C517.925 853.143 518.305 853.295 518.856 853.295C519.692 853.295 520.547 853.152 521.421 852.867L521.991 856.715C520.585 857.095 519.065 857.285 517.431 857.285ZM525.86 857V851.015H532.13V857H525.86Z" fill="white"/>
<defs>
<filter id="filter0_d_731_99" x="-125.9" y="-6.9" width="892.8" height="1029.8" filterUnits="userSpaceOnUse" color-interpolation-filters="sRGB">
<feFlood flood-opacity="0" result="BackgroundImageFix"/>
<feColorMatrix in="SourceAlpha" type="matrix" values="0 0 0 0 0 0 0 0 0 0 0 0 0 0 0 0 0 0 127 0" result="hardAlpha"/>
<feOffset/>
<feGaussianBlur stdDeviation="34.95"/>
<feComposite in2="hardAlpha" operator="out"/>
<feColorMatrix type="matrix" values="0 0 0 0 0 0 0 0 0 0 0 0 0 0 0 0 0 0 0.15 0"/>
<feBlend mode="normal" in2="BackgroundImageFix" result="effect1_dropShadow_731_99"/>
<feBlend mode="normal" in="SourceGraphic" in2="effect1_dropShadow_731_99" result="shape"/>
</filter>
<linearGradient id="paint0_linear_731_99" x1="434" y1="63" x2="29.3647" y2="966.568" gradientUnits="userSpaceOnUse">
<stop stop-color="#18F355" stop-opacity="0.86"/>
<stop offset="1" stop-color="#18831C" stop-opacity="0.5"/>
</linearGradient>
</defs>
</svg>
