<svg width="640" height="900" viewBox="0 0 640 900" fill="none" xmlns="http://www.w3.org/2000/svg">
<rect x="0.0195312" width="639.02" height="900" fill="#FA38CF"/>
<mask id="mask0_607_31" style="mask-type:alpha" maskUnits="userSpaceOnUse" x="0" y="0" width="640" height="900">
<rect x="0.0195312" width="639.02" height="900" fill="white"/>
</mask>
<g mask="url(#mask0_607_31)">
<path d="M26.5262 158.512L35.4122 171.709L184.423 71.1998L175.537 58.0026L26.5262 158.512ZM-6.37618 109.647L2.26971 122.487L151.281 21.9778L142.635 9.13726L-6.37618 109.647ZM-81.8654 104.548L168.744 -64.4905L262.408 74.6152L11.7983 243.654L-81.8654 104.548ZM9.61827 261.203L279.478 79.1801L306.377 119.128L36.5166 301.151L9.61827 261.203ZM15.2101 332.639L341.038 112.865L369.858 155.667L44.0297 375.441L15.2101 332.639ZM26.2702 56.5059L77.6042 21.8807L220.261 233.749L168.927 268.375L26.2702 56.5059ZM156.342 328.212L200.873 291.952C217.523 308.211 237.426 331.612 247.993 347.306L201.215 387.157C191.004 371.222 172.643 346.263 156.342 328.212ZM226.345 283.588L268.342 241.256C288.077 254.397 311.894 273.602 324.957 287.613L281.308 333.652C269.198 319.517 245.73 298.521 226.345 283.588ZM293.822 234.444L332.209 185.21C360.267 193.775 397.289 207.185 418.45 219.364L377.938 273.142C359.281 260.831 322.483 244.675 293.822 234.444ZM80.1812 356.762L138.968 334.744C148.293 364.762 151.806 400.774 147.051 428.359L83.3303 440.737C89.3003 418.038 87.4688 384.522 80.1812 356.762ZM343.154 818.149L665.774 600.539L692.432 640.13L369.812 857.74L343.154 818.149ZM501.806 763.523L552.07 729.619L631.084 846.967L580.82 880.871L501.806 763.523ZM429.878 730.607L485.666 704.907C497.078 771.899 484.275 836.032 430.75 910.517C417.833 902.113 391.558 892.346 376.65 890.992C427.492 828.69 439.278 776.134 429.878 730.607ZM586.244 671.817C621.112 683.568 671.272 677.225 719.458 657.171C715.48 672.821 713.942 699.792 715.451 715.891C660.694 733.115 604.29 730.185 557.335 708.952L586.244 671.817ZM434.783 832.589L625.86 703.707L652.518 743.298L510.993 838.758L543.415 886.91L493.863 920.333L434.783 832.589ZM598.41 722.221L648.318 688.558L680.5 736.353C693.709 755.971 696.388 767.649 687.398 782.012C678.523 795.778 661.768 807.08 642.161 820.304C632.097 809.977 616.787 799.557 605.188 792.339C613.511 787.762 625.275 779.827 628.483 777.663C632.048 775.259 632.753 773.227 630.352 769.66L598.41 722.221ZM392.003 713.623L398.488 723.253L556.055 616.973L549.57 607.342L392.003 713.623ZM366.786 676.171L373.271 685.801L530.838 579.521L524.353 569.891L366.786 676.171ZM297.061 679.633L556.226 504.823L628.275 611.828L369.11 786.637L297.061 679.633ZM232.154 644.056L546.931 431.736L574.309 472.398L259.532 684.718L232.154 644.056ZM296.34 580.015L346.604 546.111L389.834 610.314L339.569 644.218L296.34 580.015ZM411.485 502.349L462.462 467.964L505.692 532.167L454.714 566.552L411.485 502.349Z" fill="#DA25B2"/>
<g filter="url(#filter0_d_607_31)">
<path d="M-226 963.5H655.536L675.5 662.5L579.5 553L456 458L477.5 341.5L579.5 270.5V212.5L555.5 166.5L477.5 118L269 106.5L156.5 155L113.5 220.5L142 297L229 349L249.5 458L102 553L-27 721.5L-72 911L-226 963.5Z" fill="url(#paint0_linear_607_31)" shape-rendering="crispEdges"/>
</g>
</g>
<path d="M76.736 673H76.566L68.236 694.25H52.936L44.606 673H44.436V707H28.456V644.95H46.136L60.501 681.5H60.671L75.036 644.95H93.056V707H76.736V673ZM124.782 682.35H136.002L130.477 659.4H130.307L124.782 682.35ZM121.722 695.1L118.917 707H101.237L121.637 644.95H139.487L159.887 707H141.867L138.977 695.1H121.722ZM206.727 661.525C201.004 658.692 195.195 657.275 189.302 657.275C186.639 657.275 184.627 657.757 183.267 658.72C181.907 659.627 181.227 660.845 181.227 662.375C181.227 664.755 183.069 666.455 186.752 667.475C195.649 669.855 201.91 672.717 205.537 676.06C209.164 679.347 210.977 683.568 210.977 688.725C210.977 694.958 208.824 699.718 204.517 703.005C200.21 706.235 193.722 707.85 185.052 707.85C181.425 707.85 177.515 707.255 173.322 706.065C169.185 704.818 165.87 703.288 163.377 701.475L167.202 688.3C170.092 690.283 173.209 691.842 176.552 692.975C179.952 694.108 183.069 694.675 185.902 694.675C191.002 694.675 193.552 692.833 193.552 689.15C193.552 686.77 191.285 684.928 186.752 683.625C178.479 681.245 172.585 678.383 169.072 675.04C165.559 671.697 163.802 667.475 163.802 662.375C163.802 656.765 165.927 652.317 170.177 649.03C174.484 645.743 180.575 644.1 188.452 644.1C196.839 644.1 203.922 645.517 209.702 648.35L206.727 661.525ZM268.498 644.95V658.975H251.668V707H234.328V658.975H217.498V644.95H268.498ZM317.908 668.75V681.5H295.808V693.4H319.608V707H278.808V644.95H319.608V658.55H295.808V668.75H317.908ZM347.76 685.325V707H331.185V645.375C338.552 644.525 345.919 644.1 353.285 644.1C370.285 644.1 378.785 650.475 378.785 663.225C378.785 666.795 377.68 670.11 375.47 673.17C373.26 676.23 370.399 678.412 366.885 679.715V679.885C368.585 680.848 370.002 682.095 371.135 683.625C372.269 685.098 373.345 687.223 374.365 690L380.485 707H363.06L357.79 690.85C357.167 688.867 356.374 687.45 355.41 686.6C354.447 685.75 353.172 685.325 351.585 685.325H347.76ZM347.76 673H352.435C355.325 673 357.592 672.292 359.235 670.875C360.935 669.402 361.785 667.418 361.785 664.925C361.785 659.542 358.669 656.85 352.435 656.85C350.622 656.85 349.064 656.992 347.76 657.275V673ZM437.737 673H437.567L429.237 694.25H413.937L405.607 673H405.437V707H389.457V644.95H407.137L421.502 681.5H421.672L436.037 644.95H454.057V707H437.737V673ZM467.338 707V644.95H486.038V707H467.338ZM534.381 678.95H534.551V644.95H551.126V707H534.551L516.021 673H515.851V707H499.276V644.95H515.851L534.381 678.95ZM580.099 694.25C581.403 694.533 582.678 694.675 583.924 694.675C594.124 694.675 599.224 688.158 599.224 675.125C599.224 663.225 594.124 657.275 583.924 657.275C582.678 657.275 581.403 657.417 580.099 657.7V694.25ZM615.374 675.125C615.374 685.495 612.456 693.542 606.619 699.265C600.783 704.988 592.651 707.85 582.224 707.85C575.594 707.85 569.361 707.425 563.524 706.575V645.375C569.361 644.525 575.594 644.1 582.224 644.1C592.651 644.1 600.783 646.877 606.619 652.43C612.456 657.927 615.374 665.492 615.374 675.125Z" fill="white"/>
<path d="M40.6769 755.02V763H33.8519V737.625C36.2552 737.275 38.8219 737.1 41.5519 737.1C49.4852 737.1 53.4519 739.958 53.4519 745.675C53.4519 748.778 52.5535 751.135 50.7569 752.745C48.9835 754.332 46.3819 755.125 42.9519 755.125C42.0419 755.125 41.2835 755.09 40.6769 755.02ZM40.6769 749.945C41.1202 750.015 41.6452 750.05 42.2519 750.05C43.7685 750.05 44.9352 749.7 45.7519 749C46.5685 748.3 46.9769 747.308 46.9769 746.025C46.9769 743.575 45.4019 742.35 42.2519 742.35C41.7385 742.35 41.2135 742.408 40.6769 742.525V749.945ZM64.887 751.1H65.937C65.937 750.307 65.7854 749.758 65.482 749.455C65.1787 749.152 64.6304 749 63.837 749C61.387 749 58.9954 749.525 56.662 750.575L55.787 746.025C58.3537 744.975 61.1537 744.45 64.187 744.45C67.2204 744.45 69.3787 745.022 70.662 746.165C71.9454 747.285 72.587 749.163 72.587 751.8V758.1C72.587 759.78 72.762 761.413 73.112 763H66.812C66.672 762.207 66.5554 761.39 66.462 760.55H66.392C65.762 761.39 64.9454 762.067 63.942 762.58C62.9387 763.093 61.912 763.35 60.862 763.35C59.0654 763.35 57.6187 762.86 56.522 761.88C55.4487 760.877 54.912 759.5 54.912 757.75C54.912 755.743 55.7637 754.133 57.467 752.92C59.1937 751.707 61.667 751.1 64.887 751.1ZM60.862 757.05C60.862 758.1 61.4454 758.625 62.612 758.625C63.6154 758.625 64.4204 758.345 65.027 757.785C65.6337 757.225 65.937 756.455 65.937 755.475V754.95H64.887C63.557 754.95 62.5537 755.148 61.877 755.545C61.2004 755.918 60.862 756.42 60.862 757.05ZM84.6639 757.05H84.7339L88.0239 744.8H95.0239L85.5739 770.7H78.5739L81.7239 763L74.7239 744.8H82.0739L84.6639 757.05ZM109.596 757.4C112.722 755.043 115.067 753.153 116.631 751.73C118.194 750.283 119.221 749.128 119.711 748.265C120.201 747.402 120.446 746.48 120.446 745.5C120.446 743.75 119.454 742.875 117.471 742.875C115.721 742.875 113.446 743.75 110.646 745.5L108.896 739.9C110.086 739.107 111.591 738.442 113.411 737.905C115.231 737.368 116.934 737.1 118.521 737.1C121.437 737.1 123.677 737.788 125.241 739.165C126.827 740.518 127.621 742.397 127.621 744.8C127.621 746.713 127.014 748.533 125.801 750.26C124.587 751.987 122.219 754.343 118.696 757.33V757.4H127.796V763H109.596V757.4ZM157.599 757.295L158.999 761.95C156.992 762.883 154.892 763.35 152.699 763.35C149.479 763.35 146.924 762.498 145.034 760.795C143.144 759.092 142.199 756.793 142.199 753.9C142.199 750.983 143.12 748.685 144.964 747.005C146.83 745.302 149.409 744.45 152.699 744.45C154.962 744.45 157.062 744.917 158.999 745.85L157.599 750.575C156.152 749.688 154.635 749.245 153.049 749.245C151.719 749.245 150.68 749.642 149.934 750.435C149.21 751.228 148.849 752.383 148.849 753.9C148.849 755.37 149.234 756.525 150.004 757.365C150.774 758.205 151.789 758.625 153.049 758.625C154.635 758.625 156.152 758.182 157.599 757.295ZM164.338 746.97C166.018 745.29 168.386 744.45 171.443 744.45C174.5 744.45 176.868 745.29 178.548 746.97C180.228 748.65 181.068 750.96 181.068 753.9C181.068 756.84 180.228 759.15 178.548 760.83C176.868 762.51 174.5 763.35 171.443 763.35C168.386 763.35 166.018 762.51 164.338 760.83C162.658 759.15 161.818 756.84 161.818 753.9C161.818 750.96 162.658 748.65 164.338 746.97ZM169.098 757.505C169.611 758.228 170.393 758.59 171.443 758.59C172.493 758.59 173.275 758.228 173.788 757.505C174.301 756.782 174.558 755.58 174.558 753.9C174.558 752.22 174.301 751.018 173.788 750.295C173.275 749.572 172.493 749.21 171.443 749.21C170.393 749.21 169.611 749.572 169.098 750.295C168.585 751.018 168.328 752.22 168.328 753.9C168.328 755.58 168.585 756.782 169.098 757.505ZM184.968 741.65V736.75H191.968V741.65H184.968ZM184.968 763V744.8H191.968V763H184.968ZM203.421 747.25C204.074 746.387 204.879 745.71 205.836 745.22C206.816 744.707 207.808 744.45 208.811 744.45C211.121 744.45 212.778 745.103 213.781 746.41C214.784 747.693 215.286 749.957 215.286 753.2V763H208.706V753.9C208.706 752.15 208.543 750.983 208.216 750.4C207.913 749.817 207.353 749.525 206.536 749.525C205.813 749.525 205.159 749.922 204.576 750.715C204.016 751.508 203.736 752.453 203.736 753.55V763H197.086V744.8H203.211L203.351 747.25H203.421ZM234.033 750.295C231.909 749.525 229.926 749.14 228.083 749.14C227.079 749.14 226.391 749.233 226.018 749.42C225.644 749.583 225.458 749.852 225.458 750.225C225.458 750.575 225.609 750.843 225.913 751.03C226.216 751.217 226.764 751.357 227.558 751.45C230.428 751.8 232.481 752.477 233.718 753.48C234.978 754.483 235.608 755.848 235.608 757.575C235.608 759.348 234.896 760.76 233.473 761.81C232.073 762.837 230.043 763.35 227.383 763.35C224.233 763.35 221.374 762.767 218.808 761.6L220.033 756.91C222.133 758.03 224.349 758.59 226.683 758.59C228.199 758.59 228.958 758.193 228.958 757.4C228.958 757.097 228.841 756.887 228.608 756.77C228.374 756.653 227.791 756.513 226.858 756.35C224.034 755.907 222.016 755.183 220.803 754.18C219.589 753.153 218.983 751.777 218.983 750.05C218.983 748.3 219.683 746.935 221.083 745.955C222.483 744.952 224.583 744.45 227.383 744.45C230.159 744.45 232.784 744.858 235.258 745.675L234.033 750.295ZM243.723 766.85H238.123L240.223 755.65H247.923L243.723 766.85ZM277.817 750.295C275.694 749.525 273.71 749.14 271.867 749.14C270.864 749.14 270.175 749.233 269.802 749.42C269.429 749.583 269.242 749.852 269.242 750.225C269.242 750.575 269.394 750.843 269.697 751.03C270 751.217 270.549 751.357 271.342 751.45C274.212 751.8 276.265 752.477 277.502 753.48C278.762 754.483 279.392 755.848 279.392 757.575C279.392 759.348 278.68 760.76 277.257 761.81C275.857 762.837 273.827 763.35 271.167 763.35C268.017 763.35 265.159 762.767 262.592 761.6L263.817 756.91C265.917 758.03 268.134 758.59 270.467 758.59C271.984 758.59 272.742 758.193 272.742 757.4C272.742 757.097 272.625 756.887 272.392 756.77C272.159 756.653 271.575 756.513 270.642 756.35C267.819 755.907 265.8 755.183 264.587 754.18C263.374 753.153 262.767 751.777 262.767 750.05C262.767 748.3 263.467 746.935 264.867 745.955C266.267 744.952 268.367 744.45 271.167 744.45C273.944 744.45 276.569 744.858 279.042 745.675L277.817 750.295ZM301.534 757.75H301.604L303.319 744.8H309.724L305.524 763H297.824L295.759 750.4H295.689L293.624 763H285.924L281.724 744.8H288.269L289.984 757.75H290.054L292.119 744.8H299.469L301.534 757.75ZM321.85 751.1H322.9C322.9 750.307 322.748 749.758 322.445 749.455C322.142 749.152 321.593 749 320.8 749C318.35 749 315.958 749.525 313.625 750.575L312.75 746.025C315.317 744.975 318.117 744.45 321.15 744.45C324.183 744.45 326.342 745.022 327.625 746.165C328.908 747.285 329.55 749.163 329.55 751.8V758.1C329.55 759.78 329.725 761.413 330.075 763H323.775C323.635 762.207 323.518 761.39 323.425 760.55H323.355C322.725 761.39 321.908 762.067 320.905 762.58C319.902 763.093 318.875 763.35 317.825 763.35C316.028 763.35 314.582 762.86 313.485 761.88C312.412 760.877 311.875 759.5 311.875 757.75C311.875 755.743 312.727 754.133 314.43 752.92C316.157 751.707 318.63 751.1 321.85 751.1ZM317.825 757.05C317.825 758.1 318.408 758.625 319.575 758.625C320.578 758.625 321.383 758.345 321.99 757.785C322.597 757.225 322.9 756.455 322.9 755.475V754.95H321.85C320.52 754.95 319.517 755.148 318.84 755.545C318.163 755.918 317.825 756.42 317.825 757.05ZM340.271 744.8L340.411 747.25H340.481C341.998 745.383 343.795 744.45 345.871 744.45C348.065 744.45 349.803 745.278 351.086 746.935C352.393 748.568 353.046 750.89 353.046 753.9C353.046 756.84 352.37 759.15 351.016 760.83C349.686 762.51 347.971 763.35 345.871 763.35C343.818 763.35 342.15 762.533 340.866 760.9H340.796V770.7H334.146V744.8H340.271ZM346.746 753.9C346.746 752.453 346.478 751.368 345.941 750.645C345.428 749.898 344.705 749.525 343.771 749.525C342.861 749.525 342.138 749.898 341.601 750.645C341.065 751.368 340.796 752.395 340.796 753.725V754.075C340.796 755.428 341.065 756.467 341.601 757.19C342.138 757.913 342.861 758.275 343.771 758.275C344.635 758.275 345.346 757.902 345.906 757.155C346.466 756.385 346.746 755.3 346.746 753.9ZM378.88 760.55C378.227 761.413 377.41 762.102 376.43 762.615C375.473 763.105 374.493 763.35 373.49 763.35C371.297 763.35 369.722 762.778 368.765 761.635C367.832 760.492 367.365 758.497 367.365 755.65V744.8H373.945V754.95C373.945 756.303 374.073 757.202 374.33 757.645C374.587 758.065 375.065 758.275 375.765 758.275C376.488 758.275 377.13 757.878 377.69 757.085C378.273 756.292 378.565 755.347 378.565 754.25V744.8H385.215V763H379.09L378.95 760.55H378.88ZM395.745 744.8L395.885 747.25H395.955C397.472 745.383 399.268 744.45 401.345 744.45C403.538 744.45 405.277 745.278 406.56 746.935C407.867 748.568 408.52 750.89 408.52 753.9C408.52 756.84 407.843 759.15 406.49 760.83C405.16 762.51 403.445 763.35 401.345 763.35C399.292 763.35 397.623 762.533 396.34 760.9H396.27V770.7H389.62V744.8H395.745ZM402.22 753.9C402.22 752.453 401.952 751.368 401.415 750.645C400.902 749.898 400.178 749.525 399.245 749.525C398.335 749.525 397.612 749.898 397.075 750.645C396.538 751.368 396.27 752.395 396.27 753.725V754.075C396.27 755.428 396.538 756.467 397.075 757.19C397.612 757.913 398.335 758.275 399.245 758.275C400.108 758.275 400.82 757.902 401.38 757.155C401.94 756.385 402.22 755.3 402.22 753.9ZM432.639 763.35C430.329 763.35 428.614 762.825 427.494 761.775C426.374 760.702 425.814 759.01 425.814 756.7V750.05H422.139V745.5H425.814V738.85H432.604V745.5H438.239V750.05H432.604V755.65C432.604 756.77 432.732 757.517 432.989 757.89C433.245 758.263 433.712 758.45 434.389 758.45C435.415 758.45 436.465 758.275 437.539 757.925L438.239 762.65C436.512 763.117 434.645 763.35 432.639 763.35ZM443.586 746.97C445.266 745.29 447.634 744.45 450.691 744.45C453.748 744.45 456.116 745.29 457.796 746.97C459.476 748.65 460.316 750.96 460.316 753.9C460.316 756.84 459.476 759.15 457.796 760.83C456.116 762.51 453.748 763.35 450.691 763.35C447.634 763.35 445.266 762.51 443.586 760.83C441.906 759.15 441.066 756.84 441.066 753.9C441.066 750.96 441.906 748.65 443.586 746.97ZM448.346 757.505C448.859 758.228 449.641 758.59 450.691 758.59C451.741 758.59 452.523 758.228 453.036 757.505C453.549 756.782 453.806 755.58 453.806 753.9C453.806 752.22 453.549 751.018 453.036 750.295C452.523 749.572 451.741 749.21 450.691 749.21C449.641 749.21 448.859 749.572 448.346 750.295C447.833 751.018 447.576 752.22 447.576 753.9C447.576 755.58 447.833 756.782 448.346 757.505ZM475.079 757.4C478.206 755.043 480.551 753.153 482.114 751.73C483.677 750.283 484.704 749.128 485.194 748.265C485.684 747.402 485.929 746.48 485.929 745.5C485.929 743.75 484.937 742.875 482.954 742.875C481.204 742.875 478.929 743.75 476.129 745.5L474.379 739.9C475.569 739.107 477.074 738.442 478.894 737.905C480.714 737.368 482.417 737.1 484.004 737.1C486.921 737.1 489.161 737.788 490.724 739.165C492.311 740.518 493.104 742.397 493.104 744.8C493.104 746.713 492.497 748.533 491.284 750.26C490.071 751.987 487.702 754.343 484.179 757.33V757.4H493.279V763H475.079V757.4ZM523.082 757.295L524.482 761.95C522.475 762.883 520.375 763.35 518.182 763.35C514.962 763.35 512.407 762.498 510.517 760.795C508.627 759.092 507.682 756.793 507.682 753.9C507.682 750.983 508.604 748.685 510.447 747.005C512.314 745.302 514.892 744.45 518.182 744.45C520.445 744.45 522.545 744.917 524.482 745.85L523.082 750.575C521.635 749.688 520.119 749.245 518.532 749.245C517.202 749.245 516.164 749.642 515.417 750.435C514.694 751.228 514.332 752.383 514.332 753.9C514.332 755.37 514.717 756.525 515.487 757.365C516.257 758.205 517.272 758.625 518.532 758.625C520.119 758.625 521.635 758.182 523.082 757.295ZM537.626 751.1H538.676C538.676 750.307 538.525 749.758 538.221 749.455C537.918 749.152 537.37 749 536.576 749C534.126 749 531.735 749.525 529.401 750.575L528.526 746.025C531.093 744.975 533.893 744.45 536.926 744.45C539.96 744.45 542.118 745.022 543.401 746.165C544.685 747.285 545.326 749.163 545.326 751.8V758.1C545.326 759.78 545.501 761.413 545.851 763H539.551C539.411 762.207 539.295 761.39 539.201 760.55H539.131C538.501 761.39 537.685 762.067 536.681 762.58C535.678 763.093 534.651 763.35 533.601 763.35C531.805 763.35 530.358 762.86 529.261 761.88C528.188 760.877 527.651 759.5 527.651 757.75C527.651 755.743 528.503 754.133 530.206 752.92C531.933 751.707 534.406 751.1 537.626 751.1ZM533.601 757.05C533.601 758.1 534.185 758.625 535.351 758.625C536.355 758.625 537.16 758.345 537.766 757.785C538.373 757.225 538.676 756.455 538.676 755.475V754.95H537.626C536.296 754.95 535.293 755.148 534.616 755.545C533.94 755.918 533.601 756.42 533.601 757.05ZM564.623 744.45V749.7C562.009 749.7 560.038 750.19 558.708 751.17C557.378 752.15 556.713 753.527 556.713 755.3V763H549.923V744.8H556.188L556.223 748.3H556.293C558.299 745.733 561.076 744.45 564.623 744.45ZM566.612 753.9C566.612 750.89 567.254 748.568 568.537 746.935C569.844 745.278 571.594 744.45 573.787 744.45C575.77 744.45 577.439 745.267 578.792 746.9H578.862V736.75H585.512V763H579.387L579.247 760.55H579.177C577.707 762.417 575.91 763.35 573.787 763.35C571.687 763.35 569.96 762.51 568.607 760.83C567.277 759.15 566.612 756.84 566.612 753.9ZM572.912 753.9C572.912 755.3 573.192 756.385 573.752 757.155C574.312 757.902 575.024 758.275 575.887 758.275C576.797 758.275 577.52 757.913 578.057 757.19C578.594 756.467 578.862 755.428 578.862 754.075V753.725C578.862 752.395 578.594 751.368 578.057 750.645C577.52 749.898 576.797 749.525 575.887 749.525C574.954 749.525 574.219 749.898 573.682 750.645C573.169 751.368 572.912 752.453 572.912 753.9ZM604.609 750.295C602.486 749.525 600.502 749.14 598.659 749.14C597.656 749.14 596.967 749.233 596.594 749.42C596.221 749.583 596.034 749.852 596.034 750.225C596.034 750.575 596.186 750.843 596.489 751.03C596.792 751.217 597.341 751.357 598.134 751.45C601.004 751.8 603.057 752.477 604.294 753.48C605.554 754.483 606.184 755.848 606.184 757.575C606.184 759.348 605.472 760.76 604.049 761.81C602.649 762.837 600.619 763.35 597.959 763.35C594.809 763.35 591.951 762.767 589.384 761.6L590.609 756.91C592.709 758.03 594.926 758.59 597.259 758.59C598.776 758.59 599.534 758.193 599.534 757.4C599.534 757.097 599.417 756.887 599.184 756.77C598.951 756.653 598.367 756.513 597.434 756.35C594.611 755.907 592.592 755.183 591.379 754.18C590.166 753.153 589.559 751.777 589.559 750.05C589.559 748.3 590.259 746.935 591.659 745.955C593.059 744.952 595.159 744.45 597.959 744.45C600.736 744.45 603.361 744.858 605.834 745.675L604.609 750.295ZM86.4587 807.75H86.5287L88.2437 794.8H94.6487L90.4487 813H82.7487L80.6837 800.4H80.6137L78.5487 813H70.8487L66.6487 794.8H73.1937L74.9087 807.75H74.9787L77.0437 794.8H84.3937L86.4587 807.75ZM98.716 791.65V786.75H105.716V791.65H98.716ZM98.716 813V794.8H105.716V813H98.716ZM120.458 813.35C118.148 813.35 116.433 812.825 115.313 811.775C114.193 810.702 113.633 809.01 113.633 806.7V800.05H109.958V795.5H113.633V788.85H120.423V795.5H126.058V800.05H120.423V805.65C120.423 806.77 120.552 807.517 120.808 807.89C121.065 808.263 121.532 808.45 122.208 808.45C123.235 808.45 124.285 808.275 125.358 807.925L126.058 812.65C124.332 813.117 122.465 813.35 120.458 813.35ZM148.828 803.2V813H142.248V803.9C142.248 802.15 142.084 800.983 141.758 800.4C141.454 799.817 140.894 799.525 140.078 799.525C139.354 799.525 138.701 799.922 138.118 800.715C137.558 801.508 137.278 802.453 137.278 803.55V813H130.628V786.75H137.278V796.9H137.348C137.931 796.153 138.678 795.558 139.588 795.115C140.498 794.672 141.419 794.45 142.353 794.45C144.663 794.45 146.319 795.103 147.323 796.41C148.326 797.693 148.828 799.957 148.828 803.2ZM173.322 801.1H174.372C174.372 800.307 174.22 799.758 173.917 799.455C173.614 799.152 173.065 799 172.272 799C169.822 799 167.43 799.525 165.097 800.575L164.222 796.025C166.789 794.975 169.589 794.45 172.622 794.45C175.655 794.45 177.814 795.022 179.097 796.165C180.38 797.285 181.022 799.163 181.022 801.8V808.1C181.022 809.78 181.197 811.413 181.547 813H175.247C175.107 812.207 174.99 811.39 174.897 810.55H174.827C174.197 811.39 173.38 812.067 172.377 812.58C171.374 813.093 170.347 813.35 169.297 813.35C167.5 813.35 166.054 812.86 164.957 811.88C163.884 810.877 163.347 809.5 163.347 807.75C163.347 805.743 164.199 804.133 165.902 802.92C167.629 801.707 170.102 801.1 173.322 801.1ZM169.297 807.05C169.297 808.1 169.88 808.625 171.047 808.625C172.05 808.625 172.855 808.345 173.462 807.785C174.069 807.225 174.372 806.455 174.372 805.475V804.95H173.322C171.992 804.95 170.989 805.148 170.312 805.545C169.635 805.918 169.297 806.42 169.297 807.05ZM191.954 797.25C192.607 796.387 193.412 795.71 194.369 795.22C195.349 794.707 196.34 794.45 197.344 794.45C199.654 794.45 201.31 795.103 202.314 796.41C203.317 797.693 203.819 799.957 203.819 803.2V813H197.239V803.9C197.239 802.15 197.075 800.983 196.749 800.4C196.445 799.817 195.885 799.525 195.069 799.525C194.345 799.525 193.692 799.922 193.109 800.715C192.549 801.508 192.269 802.453 192.269 803.55V813H185.619V794.8H191.744L191.884 797.25H191.954ZM209.335 796.97C211.015 795.29 213.384 794.45 216.44 794.45C219.497 794.45 221.865 795.29 223.545 796.97C225.225 798.65 226.065 800.96 226.065 803.9C226.065 806.84 225.225 809.15 223.545 810.83C221.865 812.51 219.497 813.35 216.44 813.35C213.384 813.35 211.015 812.51 209.335 810.83C207.655 809.15 206.815 806.84 206.815 803.9C206.815 800.96 207.655 798.65 209.335 796.97ZM214.095 807.505C214.609 808.228 215.39 808.59 216.44 808.59C217.49 808.59 218.272 808.228 218.785 807.505C219.299 806.782 219.555 805.58 219.555 803.9C219.555 802.22 219.299 801.018 218.785 800.295C218.272 799.572 217.49 799.21 216.44 799.21C215.39 799.21 214.609 799.572 214.095 800.295C213.582 801.018 213.325 802.22 213.325 803.9C213.325 805.58 213.582 806.782 214.095 807.505ZM238.549 813.35C236.239 813.35 234.524 812.825 233.404 811.775C232.284 810.702 231.724 809.01 231.724 806.7V800.05H228.049V795.5H231.724V788.85H238.514V795.5H244.149V800.05H238.514V805.65C238.514 806.77 238.643 807.517 238.899 807.89C239.156 808.263 239.623 808.45 240.299 808.45C241.326 808.45 242.376 808.275 243.449 807.925L244.149 812.65C242.423 813.117 240.556 813.35 238.549 813.35ZM266.918 803.2V813H260.338V803.9C260.338 802.15 260.175 800.983 259.848 800.4C259.545 799.817 258.985 799.525 258.168 799.525C257.445 799.525 256.792 799.922 256.208 800.715C255.648 801.508 255.368 802.453 255.368 803.55V813H248.718V786.75H255.368V796.9H255.438C256.022 796.153 256.768 795.558 257.678 795.115C258.588 794.672 259.51 794.45 260.443 794.45C262.753 794.45 264.41 795.103 265.413 796.41C266.417 797.693 266.918 799.957 266.918 803.2ZM276.455 802.15H282.37C282.37 799.933 281.379 798.825 279.395 798.825C277.599 798.825 276.619 799.933 276.455 802.15ZM276.525 806C276.922 807.867 278.252 808.8 280.515 808.8C282.265 808.8 283.934 808.392 285.52 807.575L286.92 811.95C284.774 812.883 282.44 813.35 279.92 813.35C276.91 813.35 274.495 812.498 272.675 810.795C270.855 809.092 269.945 806.793 269.945 803.9C269.945 800.983 270.774 798.685 272.43 797.005C274.11 795.302 276.374 794.45 279.22 794.45C282.137 794.45 284.412 795.278 286.045 796.935C287.679 798.568 288.495 800.89 288.495 803.9C288.495 804.53 288.437 805.23 288.32 806H276.525ZM306.549 794.45V799.7C303.936 799.7 301.964 800.19 300.634 801.17C299.304 802.15 298.639 803.527 298.639 805.3V813H291.849V794.8H298.114L298.149 798.3H298.219C300.226 795.733 303.002 794.45 306.549 794.45ZM327.539 794.8L327.679 797.25H327.749C329.266 795.383 331.063 794.45 333.139 794.45C335.333 794.45 337.071 795.278 338.354 796.935C339.661 798.568 340.314 800.89 340.314 803.9C340.314 806.84 339.638 809.15 338.284 810.83C336.954 812.51 335.239 813.35 333.139 813.35C331.086 813.35 329.418 812.533 328.134 810.9H328.064V820.7H321.414V794.8H327.539ZM334.014 803.9C334.014 802.453 333.746 801.368 333.209 800.645C332.696 799.898 331.973 799.525 331.039 799.525C330.129 799.525 329.406 799.898 328.869 800.645C328.333 801.368 328.064 802.395 328.064 803.725V804.075C328.064 805.428 328.333 806.467 328.869 807.19C329.406 807.913 330.129 808.275 331.039 808.275C331.903 808.275 332.614 807.902 333.174 807.155C333.734 806.385 334.014 805.3 334.014 803.9ZM344.365 813V786.75H351.365V813H344.365ZM365.583 801.1H366.633C366.633 800.307 366.481 799.758 366.178 799.455C365.874 799.152 365.326 799 364.533 799C362.083 799 359.691 799.525 357.358 800.575L356.483 796.025C359.049 794.975 361.849 794.45 364.883 794.45C367.916 794.45 370.074 795.022 371.358 796.165C372.641 797.285 373.283 799.163 373.283 801.8V808.1C373.283 809.78 373.458 811.413 373.808 813H367.508C367.368 812.207 367.251 811.39 367.158 810.55H367.088C366.458 811.39 365.641 812.067 364.638 812.58C363.634 813.093 362.608 813.35 361.558 813.35C359.761 813.35 358.314 812.86 357.218 811.88C356.144 810.877 355.608 809.5 355.608 807.75C355.608 805.743 356.459 804.133 358.163 802.92C359.889 801.707 362.363 801.1 365.583 801.1ZM361.558 807.05C361.558 808.1 362.141 808.625 363.308 808.625C364.311 808.625 365.116 808.345 365.723 807.785C366.329 807.225 366.633 806.455 366.633 805.475V804.95H365.583C364.253 804.95 363.249 805.148 362.573 805.545C361.896 805.918 361.558 806.42 361.558 807.05ZM385.36 807.05H385.43L388.72 794.8H395.72L386.27 820.7H379.27L382.42 813L375.42 794.8H382.77L385.36 807.05ZM403.125 802.15H409.04C409.04 799.933 408.049 798.825 406.065 798.825C404.269 798.825 403.289 799.933 403.125 802.15ZM403.195 806C403.592 807.867 404.922 808.8 407.185 808.8C408.935 808.8 410.604 808.392 412.19 807.575L413.59 811.95C411.444 812.883 409.11 813.35 406.59 813.35C403.58 813.35 401.165 812.498 399.345 810.795C397.525 809.092 396.615 806.793 396.615 803.9C396.615 800.983 397.444 798.685 399.1 797.005C400.78 795.302 403.044 794.45 405.89 794.45C408.807 794.45 411.082 795.278 412.715 796.935C414.349 798.568 415.165 800.89 415.165 803.9C415.165 804.53 415.107 805.23 414.99 806H403.195ZM433.219 794.45V799.7C430.606 799.7 428.634 800.19 427.304 801.17C425.974 802.15 425.309 803.527 425.309 805.3V813H418.519V794.8H424.784L424.819 798.3H424.889C426.896 795.733 429.672 794.45 433.219 794.45ZM433.78 813V805.65H441.48V813H433.78ZM466.473 792.35C465.96 792.35 465.435 792.408 464.898 792.525V797.425H465.948C468.631 797.425 469.973 796.55 469.973 794.8C469.973 793.167 468.806 792.35 466.473 792.35ZM476.973 805.65C476.973 808.287 476.11 810.235 474.383 811.495C472.68 812.732 469.926 813.35 466.123 813.35C463.276 813.35 460.593 813.175 458.073 812.825V787.625C460.476 787.275 463.043 787.1 465.773 787.1C472.773 787.1 476.273 789.317 476.273 793.75C476.273 795.243 475.795 796.515 474.838 797.565C473.881 798.592 472.61 799.233 471.023 799.49V799.56C472.82 799.793 474.255 800.482 475.328 801.625C476.425 802.768 476.973 804.11 476.973 805.65ZM470.498 804.95C470.498 803.2 469.215 802.325 466.648 802.325H464.898V807.925C465.435 808.042 465.96 808.1 466.473 808.1C467.873 808.1 468.888 807.843 469.518 807.33C470.171 806.817 470.498 806.023 470.498 804.95ZM480.845 813V786.75H487.845V813H480.845ZM494.257 796.97C495.937 795.29 498.306 794.45 501.362 794.45C504.419 794.45 506.787 795.29 508.467 796.97C510.147 798.65 510.987 800.96 510.987 803.9C510.987 806.84 510.147 809.15 508.467 810.83C506.787 812.51 504.419 813.35 501.362 813.35C498.306 813.35 495.937 812.51 494.257 810.83C492.577 809.15 491.737 806.84 491.737 803.9C491.737 800.96 492.577 798.65 494.257 796.97ZM499.017 807.505C499.531 808.228 500.312 808.59 501.362 808.59C502.412 808.59 503.194 808.228 503.707 807.505C504.221 806.782 504.477 805.58 504.477 803.9C504.477 802.22 504.221 801.018 503.707 800.295C503.194 799.572 502.412 799.21 501.362 799.21C500.312 799.21 499.531 799.572 499.017 800.295C498.504 801.018 498.247 802.22 498.247 803.9C498.247 805.58 498.504 806.782 499.017 807.505ZM528.705 807.295L530.105 811.95C528.098 812.883 525.998 813.35 523.805 813.35C520.585 813.35 518.03 812.498 516.14 810.795C514.25 809.092 513.305 806.793 513.305 803.9C513.305 800.983 514.226 798.685 516.07 797.005C517.936 795.302 520.515 794.45 523.805 794.45C526.068 794.45 528.168 794.917 530.105 795.85L528.705 800.575C527.258 799.688 525.741 799.245 524.155 799.245C522.825 799.245 521.786 799.642 521.04 800.435C520.316 801.228 519.955 802.383 519.955 803.9C519.955 805.37 520.34 806.525 521.11 807.365C521.88 808.205 522.895 808.625 524.155 808.625C525.741 808.625 527.258 808.182 528.705 807.295ZM541.044 805.65H540.974V813H534.324V786.75H540.974V801.45H541.044L545.874 794.8H553.399L546.399 803.55L553.574 813H546.049L541.044 805.65ZM570.412 800.295C568.289 799.525 566.305 799.14 564.462 799.14C563.459 799.14 562.77 799.233 562.397 799.42C562.024 799.583 561.837 799.852 561.837 800.225C561.837 800.575 561.989 800.843 562.292 801.03C562.595 801.217 563.144 801.357 563.937 801.45C566.807 801.8 568.86 802.477 570.097 803.48C571.357 804.483 571.987 805.848 571.987 807.575C571.987 809.348 571.275 810.76 569.852 811.81C568.452 812.837 566.422 813.35 563.762 813.35C560.612 813.35 557.754 812.767 555.187 811.6L556.412 806.91C558.512 808.03 560.729 808.59 563.062 808.59C564.579 808.59 565.337 808.193 565.337 807.4C565.337 807.097 565.22 806.887 564.987 806.77C564.754 806.653 564.17 806.513 563.237 806.35C560.414 805.907 558.395 805.183 557.182 804.18C555.969 803.153 555.362 801.777 555.362 800.05C555.362 798.3 556.062 796.935 557.462 795.955C558.862 794.952 560.962 794.45 563.762 794.45C566.539 794.45 569.164 794.858 571.637 795.675L570.412 800.295ZM261.171 850.295C259.048 849.525 257.065 849.14 255.221 849.14C254.218 849.14 253.53 849.233 253.156 849.42C252.783 849.583 252.596 849.852 252.596 850.225C252.596 850.575 252.748 850.843 253.051 851.03C253.355 851.217 253.903 851.357 254.696 851.45C257.566 851.8 259.62 852.477 260.856 853.48C262.116 854.483 262.746 855.848 262.746 857.575C262.746 859.348 262.035 860.76 260.611 861.81C259.211 862.837 257.181 863.35 254.521 863.35C251.371 863.35 248.513 862.767 245.946 861.6L247.171 856.91C249.271 858.03 251.488 858.59 253.821 858.59C255.338 858.59 256.096 858.193 256.096 857.4C256.096 857.097 255.98 856.887 255.746 856.77C255.513 856.653 254.93 856.513 253.996 856.35C251.173 855.907 249.155 855.183 247.941 854.18C246.728 853.153 246.121 851.777 246.121 850.05C246.121 848.3 246.821 846.935 248.221 845.955C249.621 844.952 251.721 844.45 254.521 844.45C257.298 844.45 259.923 844.858 262.396 845.675L261.171 850.295ZM275.412 863.35C273.102 863.35 271.387 862.825 270.267 861.775C269.147 860.702 268.587 859.01 268.587 856.7V850.05H264.912V845.5H268.587V838.85H275.377V845.5H281.012V850.05H275.377V855.65C275.377 856.77 275.505 857.517 275.762 857.89C276.019 858.263 276.485 858.45 277.162 858.45C278.189 858.45 279.239 858.275 280.312 857.925L281.012 862.65C279.285 863.117 277.419 863.35 275.412 863.35ZM290.349 852.15H296.264C296.264 849.933 295.273 848.825 293.289 848.825C291.493 848.825 290.513 849.933 290.349 852.15ZM290.419 856C290.816 857.867 292.146 858.8 294.409 858.8C296.159 858.8 297.828 858.392 299.414 857.575L300.814 861.95C298.668 862.883 296.334 863.35 293.814 863.35C290.804 863.35 288.389 862.498 286.569 860.795C284.749 859.092 283.839 856.793 283.839 853.9C283.839 850.983 284.668 848.685 286.324 847.005C288.004 845.302 290.268 844.45 293.114 844.45C296.031 844.45 298.306 845.278 299.939 846.935C301.573 848.568 302.389 850.89 302.389 853.9C302.389 854.53 302.331 855.23 302.214 856H290.419ZM314.843 851.1H315.893C315.893 850.307 315.741 849.758 315.438 849.455C315.135 849.152 314.586 849 313.793 849C311.343 849 308.951 849.525 306.618 850.575L305.743 846.025C308.31 844.975 311.11 844.45 314.143 844.45C317.176 844.45 319.335 845.022 320.618 846.165C321.901 847.285 322.543 849.163 322.543 851.8V858.1C322.543 859.78 322.718 861.413 323.068 863H316.768C316.628 862.207 316.511 861.39 316.418 860.55H316.348C315.718 861.39 314.901 862.067 313.898 862.58C312.895 863.093 311.868 863.35 310.818 863.35C309.021 863.35 307.575 862.86 306.478 861.88C305.405 860.877 304.868 859.5 304.868 857.75C304.868 855.743 305.72 854.133 307.423 852.92C309.15 851.707 311.623 851.1 314.843 851.1ZM310.818 857.05C310.818 858.1 311.401 858.625 312.568 858.625C313.571 858.625 314.376 858.345 314.983 857.785C315.59 857.225 315.893 856.455 315.893 855.475V854.95H314.843C313.513 854.95 312.51 855.148 311.833 855.545C311.156 855.918 310.818 856.42 310.818 857.05ZM327.84 863V836.75H334.84V863H327.84ZM339.973 841.65V836.75H346.973V841.65H339.973ZM339.973 863V844.8H346.973V863H339.973ZM358.426 847.25C359.079 846.387 359.884 845.71 360.841 845.22C361.821 844.707 362.812 844.45 363.816 844.45C366.126 844.45 367.782 845.103 368.786 846.41C369.789 847.693 370.291 849.957 370.291 853.2V863H363.711V853.9C363.711 852.15 363.547 850.983 363.221 850.4C362.917 849.817 362.357 849.525 361.541 849.525C360.817 849.525 360.164 849.922 359.581 850.715C359.021 851.508 358.741 852.453 358.741 853.55V863H352.091V844.8H358.216L358.356 847.25H358.426ZM385.888 860.2H385.853C384.499 861.833 382.761 862.65 380.638 862.65C378.561 862.65 376.846 861.845 375.493 860.235C374.139 858.602 373.463 856.373 373.463 853.55C373.463 850.68 374.116 848.452 375.423 846.865C376.729 845.255 378.468 844.45 380.638 844.45C382.714 844.45 384.511 845.383 386.028 847.25H386.098L386.238 844.8H392.363V860.9C392.363 864.237 391.441 866.757 389.598 868.46C387.754 870.187 385.059 871.05 381.513 871.05C379.273 871.05 377.173 870.7 375.213 870L376.263 865.31C377.896 865.987 379.529 866.325 381.163 866.325C382.866 866.325 384.079 865.917 384.803 865.1C385.526 864.307 385.888 862.907 385.888 860.9V860.2ZM379.763 853.55C379.763 854.88 380.031 855.918 380.568 856.665C381.128 857.388 381.851 857.75 382.738 857.75C383.648 857.75 384.371 857.412 384.908 856.735C385.444 856.035 385.713 855.032 385.713 853.725V853.375C385.713 852.092 385.444 851.1 384.908 850.4C384.371 849.7 383.648 849.35 382.738 849.35C381.804 849.35 381.069 849.712 380.533 850.435C380.019 851.135 379.763 852.173 379.763 853.55Z" fill="white"/>
<defs>
<filter id="filter0_d_607_31" x="-295.9" y="36.6" width="1041.3" height="996.8" filterUnits="userSpaceOnUse" color-interpolation-filters="sRGB">
<feFlood flood-opacity="0" result="BackgroundImageFix"/>
<feColorMatrix in="SourceAlpha" type="matrix" values="0 0 0 0 0 0 0 0 0 0 0 0 0 0 0 0 0 0 127 0" result="hardAlpha"/>
<feOffset/>
<feGaussianBlur stdDeviation="34.95"/>
<feComposite in2="hardAlpha" operator="out"/>
<feColorMatrix type="matrix" values="0 0 0 0 0 0 0 0 0 0 0 0 0 0 0 0 0 0 0.15 0"/>
<feBlend mode="normal" in2="BackgroundImageFix" result="effect1_dropShadow_607_31"/>
<feBlend mode="normal" in="SourceGraphic" in2="effect1_dropShadow_607_31" result="shape"/>
</filter>
<linearGradient id="paint0_linear_607_31" x1="214.768" y1="69.5001" x2="214.768" y2="963.501" gradientUnits="userSpaceOnUse">
<stop stop-color="#6E2AFF"/>
<stop offset="1" stop-color="#D551D8" stop-opacity="0.23"/>
</linearGradient>
</defs>
</svg>
