<svg width="640" height="900" viewBox="0 0 640 900" fill="none" xmlns="http://www.w3.org/2000/svg">
<rect x="0.0195312" width="639.02" height="900" fill="#4CB957"/>
<mask id="mask0_605_3" style="mask-type:alpha" maskUnits="userSpaceOnUse" x="0" y="0" width="640" height="900">
<rect x="0.0195312" width="639.02" height="900" fill="white"/>
</mask>
<g mask="url(#mask0_605_3)">
<path d="M77.5423 104.614L42.7717 243.591L-7.0045 231.18L15.4073 141.601L-18.8829 133.051L-6.52416 83.6541L77.5423 104.614ZM47.9365 222.947C54.57 249.665 75.6774 265.502 110.336 275.71C157.715 289.873 250.908 311.933 308.151 321.114C299.669 331.532 286.115 352.825 279.845 366.927C229.423 357.097 146.647 337.242 98.5308 322.896C56.2213 310.388 30.6894 293.449 16.037 259.64C-0.372628 270.43 -17.3353 280.3 -38.7228 292.199L-50.6066 234.799C-33.8289 228.8 -14.1933 220.772 3.32234 211.823L47.9365 222.947ZM15.7981 -25.9205L64.8406 -41.8904C78.4804 -19.6912 94.4238 10.5233 99.1223 30.8848L45.9314 49.3451C42.6155 29.72 28.7003 -2.33868 15.7981 -25.9205ZM109.265 10.6989L232.415 41.4036L221.532 84.9029L98.3818 54.1982L109.265 10.6989ZM145.298 87.4354L192.124 99.1106L181.425 141.873L134.599 130.197L145.298 87.4354ZM160.799 -26.1896L209.838 -13.9628L192.406 55.7097L143.368 43.4829L160.799 -26.1896ZM174.426 94.6979L219.04 105.821C219.04 105.821 215.628 117.895 214.337 123.056C188.606 218.073 177.355 255.214 165.831 265.265C156.796 273.195 149.237 275.226 139.189 274.679C130.616 274.5 118.725 271.927 105.452 268.618C107.942 255.531 108.406 236.457 104.997 223.466C112.832 226.595 119.1 228.158 123.524 229.261C127.58 230.272 130.438 229.81 134.033 226.398C140.21 220.497 148.695 191.282 172.397 102.808L174.426 94.6979ZM255.738 34.2948L362.295 60.8626L351.412 104.362L244.854 77.794L255.738 34.2948ZM212.027 162.035L331.858 191.912L321.436 233.568L201.605 203.691L212.027 162.035ZM237.386 93.5553L315.553 113.045L305.961 151.383L227.794 131.894L237.386 93.5553ZM271.229 -1.00617L312.892 20.3473C293.898 55.5582 266.792 90.313 241.532 109.863C235.818 99.8222 221.809 80.664 213.514 71.5464C235.455 55.8688 256.568 27.8441 271.229 -1.00617ZM252.219 153.257L297.202 164.473L273.868 257.738C268.887 277.644 263.171 289.535 247.776 293.137C233.119 296.924 216.711 293.616 196.063 288.468C197.816 275.198 195.883 254.743 192.658 241.015C204.734 244.417 218.376 247.819 222.432 248.83C226.857 249.933 228.239 249.103 229.069 245.785L252.219 153.257ZM302.648 109.827L312.972 112.401L322.466 112.027L344.586 139.473C324.765 159.204 298.398 181.611 276.273 194.893C272.771 185.404 263.74 169.837 258.578 162.284C273.144 151.033 291.491 130.935 300.711 117.568L302.648 109.827ZM129.726 36.9486L172.496 47.6125L156.633 111.018C145.012 157.466 122.88 224.009 73.0977 255.46C68.7666 244.589 57.7995 225.798 50.2419 216.864C88.3162 189.935 104.916 136.112 114.047 99.6169L129.726 36.9486ZM579.011 77.6907L628.878 100.698C598.911 164.112 557.882 223.202 515.659 255.754C509.669 243.686 493.909 219 484.6 207.672C521.661 181.665 554.945 131.61 579.011 77.6907ZM647.58 184.079L700.213 203.86C647.837 331.789 581.088 402.872 469.27 423.947C465.861 410.957 453.973 383.32 445.586 369.871C548.554 357.556 605.07 296.061 647.58 184.079ZM574.669 146.711L724.367 184.034L711.639 234.906L546.825 193.813L574.669 146.711ZM584.159 185.498C577.324 286.402 597.132 371.626 673.451 425.118C659.07 432.498 637.866 449.926 626.526 462.372C544.862 397.365 527.728 304.584 534.935 181.841L584.159 185.498ZM343.375 238.255C382.183 239.706 441.548 238.842 496.396 237.244L491.596 286.176C439.974 288.97 383.559 290.57 339.957 292.623L343.375 238.255ZM460.562 48.5498L511.813 61.3281L424.195 411.534L372.944 398.755L460.562 48.5498ZM405.345 54.7558L447.838 72.7916C430.132 126.339 406.526 183.114 383.937 217.037C377.486 208.379 361.91 190.789 353.061 182.316C372.608 152.726 391.05 102.496 405.345 54.7558ZM406.26 105.896L524.248 135.314L511.52 186.186L383.208 154.194L406.26 105.896ZM215.047 694.811L270.354 708.6C254.58 792.002 270.977 881.466 295.035 887.072C302.778 889.003 310.431 874.071 321.774 838.127C330.806 852.128 348.042 867.783 361.315 875.792C337.247 940.677 315.583 948.983 278.712 939.79C215.017 923.517 194.199 809.452 215.047 694.811ZM108.023 707.682L377.183 774.791L364.732 824.557L95.5723 757.448L108.023 707.682ZM11.8655 805.505C59.983 813.585 132.713 823.495 198.344 832.026L186.907 885.569C125.146 878.787 58.685 870.44 8.90796 864.295L11.8655 805.505ZM118.922 543.563L174.598 557.445L101.091 851.249L45.4152 837.368L118.922 543.563ZM145.838 550.274L391.032 611.408L359.028 739.325L113.835 678.192L126.193 628.794L316.818 676.322L324.104 647.2L133.479 599.672L145.838 550.274Z" fill="#BACD46"/>
<g filter="url(#filter0_d_605_3)">
<path d="M-155 970H726.536L542.977 747.916L481.791 464.08L617.194 321.312L495.954 76H287.468L252.342 234.631L68.7833 407.426L-82.4829 747.916L-155 970Z" fill="url(#paint0_linear_605_3)" shape-rendering="crispEdges"/>
</g>
</g>
<path d="M128.702 681.1H128.962V629.1H154.312V724H128.962L100.622 672H100.362V724H75.0125V629.1H100.362L128.702 681.1ZM180.554 640.93C189.394 632.177 201.268 627.8 216.174 627.8C231.081 627.8 242.911 632.177 251.664 640.93C260.504 649.597 264.924 661.47 264.924 676.55C264.924 691.63 260.504 703.547 251.664 712.3C242.911 720.967 231.081 725.3 216.174 725.3C201.268 725.3 189.394 720.967 180.554 712.3C171.801 703.547 167.424 691.63 167.424 676.55C167.424 661.47 171.801 649.597 180.554 640.93ZM194.074 676.55C194.074 694.75 201.441 703.85 216.174 703.85C230.908 703.85 238.274 694.75 238.274 676.55C238.274 658.35 230.908 649.25 216.174 649.25C201.441 649.25 194.074 658.35 194.074 676.55ZM351.851 672H351.591L338.851 704.5H315.451L302.711 672H302.451V724H278.011V629.1H305.051L327.021 685H327.281L349.251 629.1H376.811V724H351.851V672ZM425.333 686.3H442.493L434.043 651.2H433.783L425.333 686.3ZM420.653 705.8L416.363 724H389.323L420.523 629.1H447.823L479.023 724H451.463L447.043 705.8H420.653ZM516.896 704.5C518.889 704.933 520.839 705.15 522.746 705.15C538.346 705.15 546.146 695.183 546.146 675.25C546.146 657.05 538.346 647.95 522.746 647.95C520.839 647.95 518.889 648.167 516.896 648.6V704.5ZM570.846 675.25C570.846 691.11 566.382 703.417 557.456 712.17C548.529 720.923 536.092 725.3 520.146 725.3C510.006 725.3 500.472 724.65 491.546 723.35V629.75C500.472 628.45 510.006 627.8 520.146 627.8C536.092 627.8 548.529 632.047 557.456 640.54C566.382 648.947 570.846 660.517 570.846 675.25Z" fill="white"/>
<path d="M89.024 767.02V775H82.199V749.625C84.6024 749.275 87.169 749.1 89.899 749.1C97.8324 749.1 101.799 751.958 101.799 757.675C101.799 760.778 100.901 763.135 99.104 764.745C97.3307 766.332 94.729 767.125 91.299 767.125C90.389 767.125 89.6307 767.09 89.024 767.02ZM89.024 761.945C89.4674 762.015 89.9924 762.05 90.599 762.05C92.1157 762.05 93.2824 761.7 94.099 761C94.9157 760.3 95.324 759.308 95.324 758.025C95.324 755.575 93.749 754.35 90.599 754.35C90.0857 754.35 89.5607 754.408 89.024 754.525V761.945ZM113.234 763.1H114.284C114.284 762.307 114.133 761.758 113.829 761.455C113.526 761.152 112.978 761 112.184 761C109.734 761 107.343 761.525 105.009 762.575L104.134 758.025C106.701 756.975 109.501 756.45 112.534 756.45C115.568 756.45 117.726 757.022 119.009 758.165C120.293 759.285 120.934 761.163 120.934 763.8V770.1C120.934 771.78 121.109 773.413 121.459 775H115.159C115.019 774.207 114.903 773.39 114.809 772.55H114.739C114.109 773.39 113.293 774.067 112.289 774.58C111.286 775.093 110.259 775.35 109.209 775.35C107.413 775.35 105.966 774.86 104.869 773.88C103.796 772.877 103.259 771.5 103.259 769.75C103.259 767.743 104.111 766.133 105.814 764.92C107.541 763.707 110.014 763.1 113.234 763.1ZM109.209 769.05C109.209 770.1 109.793 770.625 110.959 770.625C111.963 770.625 112.768 770.345 113.374 769.785C113.981 769.225 114.284 768.455 114.284 767.475V766.95H113.234C111.904 766.95 110.901 767.148 110.224 767.545C109.548 767.918 109.209 768.42 109.209 769.05ZM133.011 769.05H133.081L136.371 756.8H143.371L133.921 782.7H126.921L130.071 775L123.071 756.8H130.421L133.011 769.05ZM179.573 764.5C179.573 763.45 178.978 762.925 177.788 762.925C176.738 762.925 175.373 763.45 173.693 764.5L172.643 761.14C173.343 760.673 174.241 760.277 175.338 759.95C176.435 759.623 177.461 759.46 178.418 759.46C180.168 759.46 181.51 759.868 182.443 760.685C183.4 761.502 183.878 762.633 183.878 764.08C183.878 765.247 183.516 766.343 182.793 767.37C182.07 768.397 180.646 769.808 178.523 771.605V771.64H183.983V775H173.063V771.64C175.793 769.587 177.555 768.105 178.348 767.195C179.165 766.262 179.573 765.363 179.573 764.5ZM160.463 754.28L157.348 757.22L156.088 753.65L160.498 749.45H164.908V764.78H160.498V754.28H160.463ZM180.483 749.45L162.633 775H158.083L175.933 749.45H180.483ZM212.953 769.295L214.353 773.95C212.346 774.883 210.246 775.35 208.053 775.35C204.833 775.35 202.278 774.498 200.388 772.795C198.498 771.092 197.553 768.793 197.553 765.9C197.553 762.983 198.474 760.685 200.318 759.005C202.184 757.302 204.763 756.45 208.053 756.45C210.316 756.45 212.416 756.917 214.353 757.85L212.953 762.575C211.506 761.688 209.989 761.245 208.403 761.245C207.073 761.245 206.034 761.642 205.288 762.435C204.564 763.228 204.203 764.383 204.203 765.9C204.203 767.37 204.588 768.525 205.358 769.365C206.128 770.205 207.143 770.625 208.403 770.625C209.989 770.625 211.506 770.182 212.953 769.295ZM219.692 758.97C221.372 757.29 223.74 756.45 226.797 756.45C229.854 756.45 232.222 757.29 233.902 758.97C235.582 760.65 236.422 762.96 236.422 765.9C236.422 768.84 235.582 771.15 233.902 772.83C232.222 774.51 229.854 775.35 226.797 775.35C223.74 775.35 221.372 774.51 219.692 772.83C218.012 771.15 217.172 768.84 217.172 765.9C217.172 762.96 218.012 760.65 219.692 758.97ZM224.452 769.505C224.965 770.228 225.747 770.59 226.797 770.59C227.847 770.59 228.629 770.228 229.142 769.505C229.655 768.782 229.912 767.58 229.912 765.9C229.912 764.22 229.655 763.018 229.142 762.295C228.629 761.572 227.847 761.21 226.797 761.21C225.747 761.21 224.965 761.572 224.452 762.295C223.939 763.018 223.682 764.22 223.682 765.9C223.682 767.58 223.939 768.782 224.452 769.505ZM240.322 753.65V748.75H247.322V753.65H240.322ZM240.322 775V756.8H247.322V775H240.322ZM258.775 759.25C259.428 758.387 260.233 757.71 261.19 757.22C262.17 756.707 263.162 756.45 264.165 756.45C266.475 756.45 268.132 757.103 269.135 758.41C270.138 759.693 270.64 761.957 270.64 765.2V775H264.06V765.9C264.06 764.15 263.897 762.983 263.57 762.4C263.267 761.817 262.707 761.525 261.89 761.525C261.167 761.525 260.513 761.922 259.93 762.715C259.37 763.508 259.09 764.453 259.09 765.55V775H252.44V756.8H258.565L258.705 759.25H258.775ZM289.387 762.295C287.263 761.525 285.28 761.14 283.437 761.14C282.433 761.14 281.745 761.233 281.372 761.42C280.998 761.583 280.812 761.852 280.812 762.225C280.812 762.575 280.963 762.843 281.267 763.03C281.57 763.217 282.118 763.357 282.912 763.45C285.782 763.8 287.835 764.477 289.072 765.48C290.332 766.483 290.962 767.848 290.962 769.575C290.962 771.348 290.25 772.76 288.827 773.81C287.427 774.837 285.397 775.35 282.737 775.35C279.587 775.35 276.728 774.767 274.162 773.6L275.387 768.91C277.487 770.03 279.703 770.59 282.037 770.59C283.553 770.59 284.312 770.193 284.312 769.4C284.312 769.097 284.195 768.887 283.962 768.77C283.728 768.653 283.145 768.513 282.212 768.35C279.388 767.907 277.37 767.183 276.157 766.18C274.943 765.153 274.337 763.777 274.337 762.05C274.337 760.3 275.037 758.935 276.437 757.955C277.837 756.952 279.937 756.45 282.737 756.45C285.513 756.45 288.138 756.858 290.612 757.675L289.387 762.295ZM311.954 756.8L312.094 759.25H312.164C313.68 757.383 315.477 756.45 317.554 756.45C319.747 756.45 321.485 757.278 322.769 758.935C324.075 760.568 324.729 762.89 324.729 765.9C324.729 768.84 324.052 771.15 322.699 772.83C321.369 774.51 319.654 775.35 317.554 775.35C315.5 775.35 313.832 774.533 312.549 772.9H312.479V782.7H305.829V756.8H311.954ZM318.429 765.9C318.429 764.453 318.16 763.368 317.624 762.645C317.11 761.898 316.387 761.525 315.454 761.525C314.544 761.525 313.82 761.898 313.284 762.645C312.747 763.368 312.479 764.395 312.479 765.725V766.075C312.479 767.428 312.747 768.467 313.284 769.19C313.82 769.913 314.544 770.275 315.454 770.275C316.317 770.275 317.029 769.902 317.589 769.155C318.149 768.385 318.429 767.3 318.429 765.9ZM333.706 764.15H339.621C339.621 761.933 338.63 760.825 336.646 760.825C334.85 760.825 333.87 761.933 333.706 764.15ZM333.776 768C334.173 769.867 335.503 770.8 337.766 770.8C339.516 770.8 341.185 770.392 342.771 769.575L344.171 773.95C342.025 774.883 339.691 775.35 337.171 775.35C334.161 775.35 331.746 774.498 329.926 772.795C328.106 771.092 327.196 768.793 327.196 765.9C327.196 762.983 328.025 760.685 329.681 759.005C331.361 757.302 333.625 756.45 336.471 756.45C339.388 756.45 341.663 757.278 343.296 758.935C344.93 760.568 345.746 762.89 345.746 765.9C345.746 766.53 345.688 767.23 345.571 768H333.776ZM363.8 756.45V761.7C361.187 761.7 359.215 762.19 357.885 763.17C356.555 764.15 355.89 765.527 355.89 767.3V775H349.1V756.8H355.365L355.4 760.3H355.47C357.477 757.733 360.253 756.45 363.8 756.45ZM379.96 758.97C381.64 757.29 384.009 756.45 387.065 756.45C390.122 756.45 392.49 757.29 394.17 758.97C395.85 760.65 396.69 762.96 396.69 765.9C396.69 768.84 395.85 771.15 394.17 772.83C392.49 774.51 390.122 775.35 387.065 775.35C384.009 775.35 381.64 774.51 379.96 772.83C378.28 771.15 377.44 768.84 377.44 765.9C377.44 762.96 378.28 760.65 379.96 758.97ZM384.72 769.505C385.234 770.228 386.015 770.59 387.065 770.59C388.115 770.59 388.897 770.228 389.41 769.505C389.924 768.782 390.18 767.58 390.18 765.9C390.18 764.22 389.924 763.018 389.41 762.295C388.897 761.572 388.115 761.21 387.065 761.21C386.015 761.21 385.234 761.572 384.72 762.295C384.207 763.018 383.95 764.22 383.95 765.9C383.95 767.58 384.207 768.782 384.72 769.505ZM406.016 756.8L406.156 759.25H406.226C407.743 757.383 409.539 756.45 411.616 756.45C413.809 756.45 415.548 757.278 416.831 758.935C418.138 760.568 418.791 762.89 418.791 765.9C418.791 768.84 418.114 771.15 416.761 772.83C415.431 774.51 413.716 775.35 411.616 775.35C409.563 775.35 407.894 774.533 406.611 772.9H406.541V782.7H399.891V756.8H406.016ZM412.491 765.9C412.491 764.453 412.223 763.368 411.686 762.645C411.173 761.898 410.449 761.525 409.516 761.525C408.606 761.525 407.883 761.898 407.346 762.645C406.809 763.368 406.541 764.395 406.541 765.725V766.075C406.541 767.428 406.809 768.467 407.346 769.19C407.883 769.913 408.606 770.275 409.516 770.275C410.379 770.275 411.091 769.902 411.651 769.155C412.211 768.385 412.491 767.3 412.491 765.9ZM428.267 756.8L428.407 759.25H428.477C429.994 757.383 431.79 756.45 433.867 756.45C436.06 756.45 437.799 757.278 439.082 758.935C440.389 760.568 441.042 762.89 441.042 765.9C441.042 768.84 440.365 771.15 439.012 772.83C437.682 774.51 435.967 775.35 433.867 775.35C431.814 775.35 430.145 774.533 428.862 772.9H428.792V782.7H422.142V756.8H428.267ZM434.742 765.9C434.742 764.453 434.474 763.368 433.937 762.645C433.424 761.898 432.7 761.525 431.767 761.525C430.857 761.525 430.134 761.898 429.597 762.645C429.06 763.368 428.792 764.395 428.792 765.725V766.075C428.792 767.428 429.06 768.467 429.597 769.19C430.134 769.913 430.857 770.275 431.767 770.275C432.63 770.275 433.342 769.902 433.902 769.155C434.462 768.385 434.742 767.3 434.742 765.9ZM446.03 758.97C447.71 757.29 450.078 756.45 453.135 756.45C456.191 756.45 458.56 757.29 460.24 758.97C461.92 760.65 462.76 762.96 462.76 765.9C462.76 768.84 461.92 771.15 460.24 772.83C458.56 774.51 456.191 775.35 453.135 775.35C450.078 775.35 447.71 774.51 446.03 772.83C444.35 771.15 443.51 768.84 443.51 765.9C443.51 762.96 444.35 760.65 446.03 758.97ZM450.79 769.505C451.303 770.228 452.085 770.59 453.135 770.59C454.185 770.59 454.966 770.228 455.48 769.505C455.993 768.782 456.25 767.58 456.25 765.9C456.25 764.22 455.993 763.018 455.48 762.295C454.966 761.572 454.185 761.21 453.135 761.21C452.085 761.21 451.303 761.572 450.79 762.295C450.276 763.018 450.02 764.22 450.02 765.9C450.02 767.58 450.276 768.782 450.79 769.505ZM472.295 759.25C472.949 758.387 473.754 757.71 474.71 757.22C475.69 756.707 476.682 756.45 477.685 756.45C479.995 756.45 481.652 757.103 482.655 758.41C483.659 759.693 484.16 761.957 484.16 765.2V775H477.58V765.9C477.58 764.15 477.417 762.983 477.09 762.4C476.787 761.817 476.227 761.525 475.41 761.525C474.687 761.525 474.034 761.922 473.45 762.715C472.89 763.508 472.61 764.453 472.61 765.55V775H465.96V756.8H472.085L472.225 759.25H472.295ZM493.667 764.15H499.582C499.582 761.933 498.591 760.825 496.607 760.825C494.811 760.825 493.831 761.933 493.667 764.15ZM493.737 768C494.134 769.867 495.464 770.8 497.727 770.8C499.477 770.8 501.146 770.392 502.732 769.575L504.132 773.95C501.986 774.883 499.652 775.35 497.132 775.35C494.122 775.35 491.707 774.498 489.887 772.795C488.067 771.092 487.157 768.793 487.157 765.9C487.157 762.983 487.986 760.685 489.642 759.005C491.322 757.302 493.586 756.45 496.432 756.45C499.349 756.45 501.624 757.278 503.257 758.935C504.891 760.568 505.707 762.89 505.707 765.9C505.707 766.53 505.649 767.23 505.532 768H493.737ZM515.396 759.25C516.049 758.387 516.854 757.71 517.811 757.22C518.791 756.707 519.783 756.45 520.786 756.45C523.096 756.45 524.753 757.103 525.756 758.41C526.759 759.693 527.261 761.957 527.261 765.2V775H520.681V765.9C520.681 764.15 520.518 762.983 520.191 762.4C519.888 761.817 519.328 761.525 518.511 761.525C517.788 761.525 517.134 761.922 516.551 762.715C515.991 763.508 515.711 764.453 515.711 765.55V775H509.061V756.8H515.186L515.326 759.25H515.396ZM540.424 775.35C538.114 775.35 536.399 774.825 535.279 773.775C534.159 772.702 533.599 771.01 533.599 768.7V762.05H529.924V757.5H533.599V750.85H540.389V757.5H546.024V762.05H540.389V767.65C540.389 768.77 540.518 769.517 540.774 769.89C541.031 770.263 541.498 770.45 542.174 770.45C543.201 770.45 544.251 770.275 545.324 769.925L546.024 774.65C544.298 775.117 542.431 775.35 540.424 775.35ZM38.3239 806.45V811.7C35.7106 811.7 33.7389 812.19 32.4089 813.17C31.0789 814.15 30.4139 815.527 30.4139 817.3V825H23.6239V806.8H29.8889L29.9239 810.3H29.9939C32.0006 807.733 34.7773 806.45 38.3239 806.45ZM42.6582 808.97C44.3382 807.29 46.7065 806.45 49.7632 806.45C52.8199 806.45 55.1882 807.29 56.8682 808.97C58.5482 810.65 59.3882 812.96 59.3882 815.9C59.3882 818.84 58.5482 821.15 56.8682 822.83C55.1882 824.51 52.8199 825.35 49.7632 825.35C46.7065 825.35 44.3382 824.51 42.6582 822.83C40.9782 821.15 40.1382 818.84 40.1382 815.9C40.1382 812.96 40.9782 810.65 42.6582 808.97ZM47.4182 819.505C47.9315 820.228 48.7132 820.59 49.7632 820.59C50.8132 820.59 51.5949 820.228 52.1082 819.505C52.6215 818.782 52.8782 817.58 52.8782 815.9C52.8782 814.22 52.6215 813.018 52.1082 812.295C51.5949 811.572 50.8132 811.21 49.7632 811.21C48.7132 811.21 47.9315 811.572 47.4182 812.295C46.9049 813.018 46.6482 814.22 46.6482 815.9C46.6482 817.58 46.9049 818.782 47.4182 819.505ZM73.9288 822.55C73.2755 823.413 72.4588 824.102 71.4788 824.615C70.5221 825.105 69.5421 825.35 68.5388 825.35C66.3455 825.35 64.7705 824.778 63.8138 823.635C62.8805 822.492 62.4138 820.497 62.4138 817.65V806.8H68.9938V816.95C68.9938 818.303 69.1221 819.202 69.3788 819.645C69.6355 820.065 70.1138 820.275 70.8138 820.275C71.5371 820.275 72.1788 819.878 72.7388 819.085C73.3221 818.292 73.6138 817.347 73.6138 816.25V806.8H80.2638V825H74.1388L73.9988 822.55H73.9288ZM91.0039 809.25C91.6572 808.387 92.4622 807.71 93.4189 807.22C94.3989 806.707 95.3905 806.45 96.3939 806.45C98.7039 806.45 100.361 807.103 101.364 808.41C102.367 809.693 102.869 811.957 102.869 815.2V825H96.2889V815.9C96.2889 814.15 96.1255 812.983 95.7989 812.4C95.4955 811.817 94.9355 811.525 94.1189 811.525C93.3955 811.525 92.7422 811.922 92.1589 812.715C91.5989 813.508 91.3189 814.453 91.3189 815.55V825H84.6689V806.8H90.7939L90.9339 809.25H91.0039ZM106.041 815.9C106.041 812.89 106.682 810.568 107.966 808.935C109.272 807.278 111.022 806.45 113.216 806.45C115.199 806.45 116.867 807.267 118.221 808.9H118.291V798.75H124.941V825H118.816L118.676 822.55H118.606C117.136 824.417 115.339 825.35 113.216 825.35C111.116 825.35 109.389 824.51 108.036 822.83C106.706 821.15 106.041 818.84 106.041 815.9ZM112.341 815.9C112.341 817.3 112.621 818.385 113.181 819.155C113.741 819.902 114.452 820.275 115.316 820.275C116.226 820.275 116.949 819.913 117.486 819.19C118.022 818.467 118.291 817.428 118.291 816.075V815.725C118.291 814.395 118.022 813.368 117.486 812.645C116.949 811.898 116.226 811.525 115.316 811.525C114.382 811.525 113.647 811.898 113.111 812.645C112.597 813.368 112.341 814.453 112.341 815.9ZM134.798 814.15H140.713C140.713 811.933 139.721 810.825 137.738 810.825C135.941 810.825 134.961 811.933 134.798 814.15ZM134.868 818C135.264 819.867 136.594 820.8 138.858 820.8C140.608 820.8 142.276 820.392 143.863 819.575L145.263 823.95C143.116 824.883 140.783 825.35 138.263 825.35C135.253 825.35 132.838 824.498 131.018 822.795C129.198 821.092 128.288 818.793 128.288 815.9C128.288 812.983 129.116 810.685 130.773 809.005C132.453 807.302 134.716 806.45 137.563 806.45C140.479 806.45 142.754 807.278 144.388 808.935C146.021 810.568 146.838 812.89 146.838 815.9C146.838 816.53 146.779 817.23 146.663 818H134.868ZM149.483 815.9C149.483 812.89 150.125 810.568 151.408 808.935C152.715 807.278 154.465 806.45 156.658 806.45C158.641 806.45 160.31 807.267 161.663 808.9H161.733V798.75H168.383V825H162.258L162.118 822.55H162.048C160.578 824.417 158.781 825.35 156.658 825.35C154.558 825.35 152.831 824.51 151.478 822.83C150.148 821.15 149.483 818.84 149.483 815.9ZM155.783 815.9C155.783 817.3 156.063 818.385 156.623 819.155C157.183 819.902 157.895 820.275 158.758 820.275C159.668 820.275 160.391 819.913 160.928 819.19C161.465 818.467 161.733 817.428 161.733 816.075V815.725C161.733 814.395 161.465 813.368 160.928 812.645C160.391 811.898 159.668 811.525 158.758 811.525C157.825 811.525 157.09 811.898 156.553 812.645C156.04 813.368 155.783 814.453 155.783 815.9ZM183.048 815.9C183.048 812.89 183.689 810.568 184.973 808.935C186.279 807.278 188.029 806.45 190.223 806.45C192.206 806.45 193.874 807.267 195.228 808.9H195.298V798.75H201.948V825H195.823L195.683 822.55H195.613C194.143 824.417 192.346 825.35 190.223 825.35C188.123 825.35 186.396 824.51 185.043 822.83C183.713 821.15 183.048 818.84 183.048 815.9ZM189.348 815.9C189.348 817.3 189.628 818.385 190.188 819.155C190.748 819.902 191.459 820.275 192.323 820.275C193.233 820.275 193.956 819.913 194.493 819.19C195.029 818.467 195.298 817.428 195.298 816.075V815.725C195.298 814.395 195.029 813.368 194.493 812.645C193.956 811.898 193.233 811.525 192.323 811.525C191.389 811.525 190.654 811.898 190.118 812.645C189.604 813.368 189.348 814.453 189.348 815.9ZM207.814 808.97C209.494 807.29 211.863 806.45 214.919 806.45C217.976 806.45 220.344 807.29 222.024 808.97C223.704 810.65 224.544 812.96 224.544 815.9C224.544 818.84 223.704 821.15 222.024 822.83C220.344 824.51 217.976 825.35 214.919 825.35C211.863 825.35 209.494 824.51 207.814 822.83C206.134 821.15 205.294 818.84 205.294 815.9C205.294 812.96 206.134 810.65 207.814 808.97ZM212.574 819.505C213.088 820.228 213.869 820.59 214.919 820.59C215.969 820.59 216.751 820.228 217.264 819.505C217.778 818.782 218.034 817.58 218.034 815.9C218.034 814.22 217.778 813.018 217.264 812.295C216.751 811.572 215.969 811.21 214.919 811.21C213.869 811.21 213.088 811.572 212.574 812.295C212.061 813.018 211.804 814.22 211.804 815.9C211.804 817.58 212.061 818.782 212.574 819.505ZM246.163 819.75H246.233L247.948 806.8H254.353L250.153 825H242.453L240.388 812.4H240.318L238.253 825H230.553L226.353 806.8H232.898L234.613 819.75H234.683L236.748 806.8H244.098L246.163 819.75ZM264.056 809.25C264.709 808.387 265.514 807.71 266.471 807.22C267.451 806.707 268.442 806.45 269.446 806.45C271.756 806.45 273.412 807.103 274.416 808.41C275.419 809.693 275.921 811.957 275.921 815.2V825H269.341V815.9C269.341 814.15 269.177 812.983 268.851 812.4C268.547 811.817 267.987 811.525 267.171 811.525C266.447 811.525 265.794 811.922 265.211 812.715C264.651 813.508 264.371 814.453 264.371 815.55V825H257.721V806.8H263.846L263.986 809.25H264.056ZM285.218 828.85H279.618L281.718 817.65H289.418L285.218 828.85ZM319.311 812.295C317.188 811.525 315.204 811.14 313.361 811.14C312.358 811.14 311.669 811.233 311.296 811.42C310.923 811.583 310.736 811.852 310.736 812.225C310.736 812.575 310.888 812.843 311.191 813.03C311.494 813.217 312.043 813.357 312.836 813.45C315.706 813.8 317.759 814.477 318.996 815.48C320.256 816.483 320.886 817.848 320.886 819.575C320.886 821.348 320.174 822.76 318.751 823.81C317.351 824.837 315.321 825.35 312.661 825.35C309.511 825.35 306.653 824.767 304.086 823.6L305.311 818.91C307.411 820.03 309.628 820.59 311.961 820.59C313.478 820.59 314.236 820.193 314.236 819.4C314.236 819.097 314.119 818.887 313.886 818.77C313.653 818.653 313.069 818.513 312.136 818.35C309.313 817.907 307.294 817.183 306.081 816.18C304.868 815.153 304.261 813.777 304.261 812.05C304.261 810.3 304.961 808.935 306.361 807.955C307.761 806.952 309.861 806.45 312.661 806.45C315.438 806.45 318.063 806.858 320.536 807.675L319.311 812.295ZM333.552 825.35C331.242 825.35 329.527 824.825 328.407 823.775C327.287 822.702 326.727 821.01 326.727 818.7V812.05H323.052V807.5H326.727V800.85H333.517V807.5H339.152V812.05H333.517V817.65C333.517 818.77 333.645 819.517 333.902 819.89C334.158 820.263 334.625 820.45 335.302 820.45C336.328 820.45 337.378 820.275 338.452 819.925L339.152 824.65C337.425 825.117 335.558 825.35 333.552 825.35ZM348.489 814.15H354.404C354.404 811.933 353.412 810.825 351.429 810.825C349.632 810.825 348.652 811.933 348.489 814.15ZM348.559 818C348.956 819.867 350.286 820.8 352.549 820.8C354.299 820.8 355.967 820.392 357.554 819.575L358.954 823.95C356.807 824.883 354.474 825.35 351.954 825.35C348.944 825.35 346.529 824.498 344.709 822.795C342.889 821.092 341.979 818.793 341.979 815.9C341.979 812.983 342.807 810.685 344.464 809.005C346.144 807.302 348.407 806.45 351.254 806.45C354.171 806.45 356.446 807.278 358.079 808.935C359.712 810.568 360.529 812.89 360.529 815.9C360.529 816.53 360.471 817.23 360.354 818H348.559ZM372.983 813.1H374.033C374.033 812.307 373.881 811.758 373.578 811.455C373.274 811.152 372.726 811 371.933 811C369.483 811 367.091 811.525 364.758 812.575L363.883 808.025C366.449 806.975 369.249 806.45 372.283 806.45C375.316 806.45 377.474 807.022 378.758 808.165C380.041 809.285 380.683 811.163 380.683 813.8V820.1C380.683 821.78 380.858 823.413 381.208 825H374.908C374.768 824.207 374.651 823.39 374.558 822.55H374.488C373.858 823.39 373.041 824.067 372.038 824.58C371.034 825.093 370.008 825.35 368.958 825.35C367.161 825.35 365.714 824.86 364.618 823.88C363.544 822.877 363.008 821.5 363.008 819.75C363.008 817.743 363.859 816.133 365.563 814.92C367.289 813.707 369.763 813.1 372.983 813.1ZM368.958 819.05C368.958 820.1 369.541 820.625 370.708 820.625C371.711 820.625 372.516 820.345 373.123 819.785C373.729 819.225 374.033 818.455 374.033 817.475V816.95H372.983C371.653 816.95 370.649 817.148 369.973 817.545C369.296 817.918 368.958 818.42 368.958 819.05ZM385.979 825V798.75H392.979V825H385.979ZM409.659 819.4C412.786 817.043 415.131 815.153 416.694 813.73C418.258 812.283 419.284 811.128 419.774 810.265C420.264 809.402 420.509 808.48 420.509 807.5C420.509 805.75 419.518 804.875 417.534 804.875C415.784 804.875 413.509 805.75 410.709 807.5L408.959 801.9C410.149 801.107 411.654 800.442 413.474 799.905C415.294 799.368 416.998 799.1 418.584 799.1C421.501 799.1 423.741 799.788 425.304 801.165C426.891 802.518 427.684 804.397 427.684 806.8C427.684 808.713 427.078 810.533 425.864 812.26C424.651 813.987 422.283 816.343 418.759 819.33V819.4H427.859V825H409.659V819.4ZM457.662 819.295L459.062 823.95C457.056 824.883 454.956 825.35 452.762 825.35C449.542 825.35 446.987 824.498 445.097 822.795C443.207 821.092 442.262 818.793 442.262 815.9C442.262 812.983 443.184 810.685 445.027 809.005C446.894 807.302 449.472 806.45 452.762 806.45C455.026 806.45 457.126 806.917 459.062 807.85L457.662 812.575C456.216 811.688 454.699 811.245 453.112 811.245C451.782 811.245 450.744 811.642 449.997 812.435C449.274 813.228 448.912 814.383 448.912 815.9C448.912 817.37 449.297 818.525 450.067 819.365C450.837 820.205 451.852 820.625 453.112 820.625C454.699 820.625 456.216 820.182 457.662 819.295ZM464.401 808.97C466.081 807.29 468.45 806.45 471.506 806.45C474.563 806.45 476.931 807.29 478.611 808.97C480.291 810.65 481.131 812.96 481.131 815.9C481.131 818.84 480.291 821.15 478.611 822.83C476.931 824.51 474.563 825.35 471.506 825.35C468.45 825.35 466.081 824.51 464.401 822.83C462.721 821.15 461.881 818.84 461.881 815.9C461.881 812.96 462.721 810.65 464.401 808.97ZM469.161 819.505C469.675 820.228 470.456 820.59 471.506 820.59C472.556 820.59 473.338 820.228 473.851 819.505C474.365 818.782 474.621 817.58 474.621 815.9C474.621 814.22 474.365 813.018 473.851 812.295C473.338 811.572 472.556 811.21 471.506 811.21C470.456 811.21 469.675 811.572 469.161 812.295C468.648 813.018 468.391 814.22 468.391 815.9C468.391 817.58 468.648 818.782 469.161 819.505ZM485.032 803.65V798.75H492.032V803.65H485.032ZM485.032 825V806.8H492.032V825H485.032ZM503.484 809.25C504.138 808.387 504.943 807.71 505.899 807.22C506.879 806.707 507.871 806.45 508.874 806.45C511.184 806.45 512.841 807.103 513.844 808.41C514.848 809.693 515.349 811.957 515.349 815.2V825H508.769V815.9C508.769 814.15 508.606 812.983 508.279 812.4C507.976 811.817 507.416 811.525 506.599 811.525C505.876 811.525 505.223 811.922 504.639 812.715C504.079 813.508 503.799 814.453 503.799 815.55V825H497.149V806.8H503.274L503.414 809.25H503.484ZM541.739 799.1C543.232 799.1 544.807 799.275 546.464 799.625L545.589 804.525C544.749 804.175 543.874 804 542.964 804C542.147 804 541.587 804.198 541.284 804.595C540.98 804.968 540.829 805.703 540.829 806.8V807.5H546.114V812.05H540.829V825H534.039V812.05H530.014V807.5H534.039V806.8C534.039 804.303 534.704 802.402 536.034 801.095C537.364 799.765 539.265 799.1 541.739 799.1ZM564.349 806.45V811.7C561.736 811.7 559.764 812.19 558.434 813.17C557.104 814.15 556.439 815.527 556.439 817.3V825H549.649V806.8H555.914L555.949 810.3H556.019C558.026 807.733 560.803 806.45 564.349 806.45ZM568.684 808.97C570.364 807.29 572.732 806.45 575.789 806.45C578.845 806.45 581.214 807.29 582.894 808.97C584.574 810.65 585.414 812.96 585.414 815.9C585.414 818.84 584.574 821.15 582.894 822.83C581.214 824.51 578.845 825.35 575.789 825.35C572.732 825.35 570.364 824.51 568.684 822.83C567.004 821.15 566.164 818.84 566.164 815.9C566.164 812.96 567.004 810.65 568.684 808.97ZM573.444 819.505C573.957 820.228 574.739 820.59 575.789 820.59C576.839 820.59 577.62 820.228 578.134 819.505C578.647 818.782 578.904 817.58 578.904 815.9C578.904 814.22 578.647 813.018 578.134 812.295C577.62 811.572 576.839 811.21 575.789 811.21C574.739 811.21 573.957 811.572 573.444 812.295C572.93 813.018 572.674 814.22 572.674 815.9C572.674 817.58 572.93 818.782 573.444 819.505ZM609.194 825V814.85C609.194 813.45 609.066 812.528 608.809 812.085C608.553 811.642 608.086 811.42 607.409 811.42C606.803 811.42 606.301 811.723 605.904 812.33C605.508 812.913 605.309 813.753 605.309 814.85V825H598.939V814.85C598.939 813.45 598.811 812.528 598.554 812.085C598.321 811.642 597.866 811.42 597.189 811.42C596.583 811.42 596.081 811.723 595.684 812.33C595.288 812.913 595.089 813.753 595.089 814.85V825H588.614V806.8H594.564L594.704 809.25H594.774C595.428 808.387 596.186 807.71 597.049 807.22C597.913 806.707 598.776 806.45 599.639 806.45C600.759 806.45 601.646 806.648 602.299 807.045C602.976 807.418 603.594 808.095 604.154 809.075H604.224C605.228 808.095 606.149 807.418 606.989 807.045C607.829 806.648 608.786 806.45 609.859 806.45C611.866 806.45 613.313 806.998 614.199 808.095C615.109 809.192 615.564 811.093 615.564 813.8V825H609.194ZM71.4797 864.15H77.3947C77.3947 861.933 76.4031 860.825 74.4197 860.825C72.6231 860.825 71.6431 861.933 71.4797 864.15ZM71.5497 868C71.9464 869.867 73.2764 870.8 75.5397 870.8C77.2897 870.8 78.9581 870.392 80.5447 869.575L81.9447 873.95C79.7981 874.883 77.4647 875.35 74.9447 875.35C71.9347 875.35 69.5197 874.498 67.6997 872.795C65.8797 871.092 64.9697 868.793 64.9697 865.9C64.9697 862.983 65.7981 860.685 67.4547 859.005C69.1347 857.302 71.3981 856.45 74.2447 856.45C77.1614 856.45 79.4364 857.278 81.0697 858.935C82.7031 860.568 83.5197 862.89 83.5197 865.9C83.5197 866.53 83.4614 867.23 83.3447 868H71.5497ZM95.9735 863.1H97.0235C97.0235 862.307 96.8718 861.758 96.5685 861.455C96.2651 861.152 95.7168 861 94.9235 861C92.4735 861 90.0818 861.525 87.7485 862.575L86.8735 858.025C89.4401 856.975 92.2401 856.45 95.2735 856.45C98.3068 856.45 100.465 857.022 101.748 858.165C103.032 859.285 103.673 861.163 103.673 863.8V870.1C103.673 871.78 103.848 873.413 104.198 875H97.8985C97.7585 874.207 97.6418 873.39 97.5485 872.55H97.4785C96.8485 873.39 96.0318 874.067 95.0285 874.58C94.0251 875.093 92.9985 875.35 91.9485 875.35C90.1518 875.35 88.7051 874.86 87.6085 873.88C86.5351 872.877 85.9985 871.5 85.9985 869.75C85.9985 867.743 86.8501 866.133 88.5535 864.92C90.2801 863.707 92.7535 863.1 95.9735 863.1ZM91.9485 869.05C91.9485 870.1 92.5318 870.625 93.6985 870.625C94.7018 870.625 95.5068 870.345 96.1135 869.785C96.7201 869.225 97.0235 868.455 97.0235 867.475V866.95H95.9735C94.6435 866.95 93.6401 867.148 92.9635 867.545C92.2868 867.918 91.9485 868.42 91.9485 869.05ZM122.445 869.295L123.845 873.95C121.838 874.883 119.738 875.35 117.545 875.35C114.325 875.35 111.77 874.498 109.88 872.795C107.99 871.092 107.045 868.793 107.045 865.9C107.045 862.983 107.967 860.685 109.81 859.005C111.677 857.302 114.255 856.45 117.545 856.45C119.808 856.45 121.908 856.917 123.845 857.85L122.445 862.575C120.998 861.688 119.482 861.245 117.895 861.245C116.565 861.245 115.527 861.642 114.78 862.435C114.057 863.228 113.695 864.383 113.695 865.9C113.695 867.37 114.08 868.525 114.85 869.365C115.62 870.205 116.635 870.625 117.895 870.625C119.482 870.625 120.998 870.182 122.445 869.295ZM146.264 865.2V875H139.684V865.9C139.684 864.15 139.521 862.983 139.194 862.4C138.891 861.817 138.331 861.525 137.514 861.525C136.791 861.525 136.137 861.922 135.554 862.715C134.994 863.508 134.714 864.453 134.714 865.55V875H128.064V848.75H134.714V858.9H134.784C135.367 858.153 136.114 857.558 137.024 857.115C137.934 856.672 138.856 856.45 139.789 856.45C142.099 856.45 143.756 857.103 144.759 858.41C145.762 859.693 146.264 861.957 146.264 865.2ZM167.784 856.8L167.924 859.25H167.994C169.51 857.383 171.307 856.45 173.384 856.45C175.577 856.45 177.315 857.278 178.599 858.935C179.905 860.568 180.559 862.89 180.559 865.9C180.559 868.84 179.882 871.15 178.529 872.83C177.199 874.51 175.484 875.35 173.384 875.35C171.33 875.35 169.662 874.533 168.379 872.9H168.309V882.7H161.659V856.8H167.784ZM174.259 865.9C174.259 864.453 173.99 863.368 173.454 862.645C172.94 861.898 172.217 861.525 171.284 861.525C170.374 861.525 169.65 861.898 169.114 862.645C168.577 863.368 168.309 864.395 168.309 865.725V866.075C168.309 867.428 168.577 868.467 169.114 869.19C169.65 869.913 170.374 870.275 171.284 870.275C172.147 870.275 172.859 869.902 173.419 869.155C173.979 868.385 174.259 867.3 174.259 865.9ZM184.61 875V848.75H191.61V875H184.61ZM205.827 863.1H206.877C206.877 862.307 206.725 861.758 206.422 861.455C206.119 861.152 205.57 861 204.777 861C202.327 861 199.935 861.525 197.602 862.575L196.727 858.025C199.294 856.975 202.094 856.45 205.127 856.45C208.16 856.45 210.319 857.022 211.602 858.165C212.885 859.285 213.527 861.163 213.527 863.8V870.1C213.527 871.78 213.702 873.413 214.052 875H207.752C207.612 874.207 207.495 873.39 207.402 872.55H207.332C206.702 873.39 205.885 874.067 204.882 874.58C203.879 875.093 202.852 875.35 201.802 875.35C200.005 875.35 198.559 874.86 197.462 873.88C196.389 872.877 195.852 871.5 195.852 869.75C195.852 867.743 196.704 866.133 198.407 864.92C200.134 863.707 202.607 863.1 205.827 863.1ZM201.802 869.05C201.802 870.1 202.385 870.625 203.552 870.625C204.555 870.625 205.36 870.345 205.967 869.785C206.574 869.225 206.877 868.455 206.877 867.475V866.95H205.827C204.497 866.95 203.494 867.148 202.817 867.545C202.14 867.918 201.802 868.42 201.802 869.05ZM225.604 869.05H225.674L228.964 856.8H235.964L226.514 882.7H219.514L222.664 875L215.664 856.8H223.014L225.604 869.05ZM243.369 864.15H249.284C249.284 861.933 248.293 860.825 246.309 860.825C244.513 860.825 243.533 861.933 243.369 864.15ZM243.439 868C243.836 869.867 245.166 870.8 247.429 870.8C249.179 870.8 250.848 870.392 252.434 869.575L253.834 873.95C251.688 874.883 249.354 875.35 246.834 875.35C243.824 875.35 241.409 874.498 239.589 872.795C237.769 871.092 236.859 868.793 236.859 865.9C236.859 862.983 237.688 860.685 239.344 859.005C241.024 857.302 243.288 856.45 246.134 856.45C249.051 856.45 251.326 857.278 252.959 858.935C254.593 860.568 255.409 862.89 255.409 865.9C255.409 866.53 255.351 867.23 255.234 868H243.439ZM273.463 856.45V861.7C270.85 861.7 268.878 862.19 267.548 863.17C266.218 864.15 265.553 865.527 265.553 867.3V875H258.763V856.8H265.028L265.063 860.3H265.133C267.14 857.733 269.916 856.45 273.463 856.45ZM274.024 875V867.65H281.724V875H274.024ZM306.717 854.35C306.204 854.35 305.679 854.408 305.142 854.525V859.425H306.192C308.876 859.425 310.217 858.55 310.217 856.8C310.217 855.167 309.051 854.35 306.717 854.35ZM317.217 867.65C317.217 870.287 316.354 872.235 314.627 873.495C312.924 874.732 310.171 875.35 306.367 875.35C303.521 875.35 300.837 875.175 298.317 874.825V849.625C300.721 849.275 303.287 849.1 306.017 849.1C313.017 849.1 316.517 851.317 316.517 855.75C316.517 857.243 316.039 858.515 315.082 859.565C314.126 860.592 312.854 861.233 311.267 861.49V861.56C313.064 861.793 314.499 862.482 315.572 863.625C316.669 864.768 317.217 866.11 317.217 867.65ZM310.742 866.95C310.742 865.2 309.459 864.325 306.892 864.325H305.142V869.925C305.679 870.042 306.204 870.1 306.717 870.1C308.117 870.1 309.132 869.843 309.762 869.33C310.416 868.817 310.742 868.023 310.742 866.95ZM321.089 875V848.75H328.089V875H321.089ZM334.501 858.97C336.181 857.29 338.55 856.45 341.606 856.45C344.663 856.45 347.031 857.29 348.711 858.97C350.391 860.65 351.231 862.96 351.231 865.9C351.231 868.84 350.391 871.15 348.711 872.83C347.031 874.51 344.663 875.35 341.606 875.35C338.55 875.35 336.181 874.51 334.501 872.83C332.821 871.15 331.981 868.84 331.981 865.9C331.981 862.96 332.821 860.65 334.501 858.97ZM339.261 869.505C339.775 870.228 340.556 870.59 341.606 870.59C342.656 870.59 343.438 870.228 343.951 869.505C344.465 868.782 344.721 867.58 344.721 865.9C344.721 864.22 344.465 863.018 343.951 862.295C343.438 861.572 342.656 861.21 341.606 861.21C340.556 861.21 339.775 861.572 339.261 862.295C338.748 863.018 338.491 864.22 338.491 865.9C338.491 867.58 338.748 868.782 339.261 869.505ZM368.949 869.295L370.349 873.95C368.342 874.883 366.242 875.35 364.049 875.35C360.829 875.35 358.274 874.498 356.384 872.795C354.494 871.092 353.549 868.793 353.549 865.9C353.549 862.983 354.471 860.685 356.314 859.005C358.181 857.302 360.759 856.45 364.049 856.45C366.312 856.45 368.412 856.917 370.349 857.85L368.949 862.575C367.502 861.688 365.986 861.245 364.399 861.245C363.069 861.245 362.031 861.642 361.284 862.435C360.561 863.228 360.199 864.383 360.199 865.9C360.199 867.37 360.584 868.525 361.354 869.365C362.124 870.205 363.139 870.625 364.399 870.625C365.986 870.625 367.502 870.182 368.949 869.295ZM381.288 867.65H381.218V875H374.568V848.75H381.218V863.45H381.288L386.118 856.8H393.643L386.643 865.55L393.818 875H386.293L381.288 867.65ZM410.656 862.295C408.533 861.525 406.55 861.14 404.706 861.14C403.703 861.14 403.015 861.233 402.641 861.42C402.268 861.583 402.081 861.852 402.081 862.225C402.081 862.575 402.233 862.843 402.536 863.03C402.84 863.217 403.388 863.357 404.181 863.45C407.051 863.8 409.105 864.477 410.341 865.48C411.601 866.483 412.231 867.848 412.231 869.575C412.231 871.348 411.52 872.76 410.096 873.81C408.696 874.837 406.666 875.35 404.006 875.35C400.856 875.35 397.998 874.767 395.431 873.6L396.656 868.91C398.756 870.03 400.973 870.59 403.306 870.59C404.823 870.59 405.581 870.193 405.581 869.4C405.581 869.097 405.465 868.887 405.231 868.77C404.998 868.653 404.415 868.513 403.481 868.35C400.658 867.907 398.64 867.183 397.426 866.18C396.213 865.153 395.606 863.777 395.606 862.05C395.606 860.3 396.306 858.935 397.706 857.955C399.106 856.952 401.206 856.45 404.006 856.45C406.783 856.45 409.408 856.858 411.881 857.675L410.656 862.295ZM441.623 862.295C439.5 861.525 437.516 861.14 435.673 861.14C434.67 861.14 433.981 861.233 433.608 861.42C433.235 861.583 433.048 861.852 433.048 862.225C433.048 862.575 433.2 862.843 433.503 863.03C433.806 863.217 434.355 863.357 435.148 863.45C438.018 863.8 440.071 864.477 441.308 865.48C442.568 866.483 443.198 867.848 443.198 869.575C443.198 871.348 442.486 872.76 441.063 873.81C439.663 874.837 437.633 875.35 434.973 875.35C431.823 875.35 428.965 874.767 426.398 873.6L427.623 868.91C429.723 870.03 431.94 870.59 434.273 870.59C435.79 870.59 436.548 870.193 436.548 869.4C436.548 869.097 436.431 868.887 436.198 868.77C435.965 868.653 435.381 868.513 434.448 868.35C431.625 867.907 429.606 867.183 428.393 866.18C427.18 865.153 426.573 863.777 426.573 862.05C426.573 860.3 427.273 858.935 428.673 857.955C430.073 856.952 432.173 856.45 434.973 856.45C437.75 856.45 440.375 856.858 442.848 857.675L441.623 862.295ZM455.864 875.35C453.554 875.35 451.839 874.825 450.719 873.775C449.599 872.702 449.039 871.01 449.039 868.7V862.05H445.364V857.5H449.039V850.85H455.829V857.5H461.464V862.05H455.829V867.65C455.829 868.77 455.957 869.517 456.214 869.89C456.47 870.263 456.937 870.45 457.614 870.45C458.64 870.45 459.69 870.275 460.764 869.925L461.464 874.65C459.737 875.117 457.87 875.35 455.864 875.35ZM470.801 864.15H476.716C476.716 861.933 475.724 860.825 473.741 860.825C471.944 860.825 470.964 861.933 470.801 864.15ZM470.871 868C471.268 869.867 472.598 870.8 474.861 870.8C476.611 870.8 478.279 870.392 479.866 869.575L481.266 873.95C479.119 874.883 476.786 875.35 474.266 875.35C471.256 875.35 468.841 874.498 467.021 872.795C465.201 871.092 464.291 868.793 464.291 865.9C464.291 862.983 465.119 860.685 466.776 859.005C468.456 857.302 470.719 856.45 473.566 856.45C476.483 856.45 478.758 857.278 480.391 858.935C482.024 860.568 482.841 862.89 482.841 865.9C482.841 866.53 482.783 867.23 482.666 868H470.871ZM495.295 863.1H496.345C496.345 862.307 496.193 861.758 495.89 861.455C495.586 861.152 495.038 861 494.245 861C491.795 861 489.403 861.525 487.07 862.575L486.195 858.025C488.761 856.975 491.561 856.45 494.595 856.45C497.628 856.45 499.786 857.022 501.07 858.165C502.353 859.285 502.995 861.163 502.995 863.8V870.1C502.995 871.78 503.17 873.413 503.52 875H497.22C497.08 874.207 496.963 873.39 496.87 872.55H496.8C496.17 873.39 495.353 874.067 494.35 874.58C493.346 875.093 492.32 875.35 491.27 875.35C489.473 875.35 488.026 874.86 486.93 873.88C485.856 872.877 485.32 871.5 485.32 869.75C485.32 867.743 486.171 866.133 487.875 864.92C489.601 863.707 492.075 863.1 495.295 863.1ZM491.27 869.05C491.27 870.1 491.853 870.625 493.02 870.625C494.023 870.625 494.828 870.345 495.435 869.785C496.041 869.225 496.345 868.455 496.345 867.475V866.95H495.295C493.965 866.95 492.961 867.148 492.285 867.545C491.608 867.918 491.27 868.42 491.27 869.05ZM508.291 875V848.75H515.291V875H508.291ZM520.425 853.65V848.75H527.425V853.65H520.425ZM520.425 875V856.8H527.425V875H520.425ZM538.877 859.25C539.531 858.387 540.336 857.71 541.292 857.22C542.272 856.707 543.264 856.45 544.267 856.45C546.577 856.45 548.234 857.103 549.237 858.41C550.241 859.693 550.742 861.957 550.742 865.2V875H544.162V865.9C544.162 864.15 543.999 862.983 543.672 862.4C543.369 861.817 542.809 861.525 541.992 861.525C541.269 861.525 540.616 861.922 540.032 862.715C539.472 863.508 539.192 864.453 539.192 865.55V875H532.542V856.8H538.667L538.807 859.25H538.877ZM566.339 872.2H566.304C564.951 873.833 563.213 874.65 561.089 874.65C559.013 874.65 557.298 873.845 555.944 872.235C554.591 870.602 553.914 868.373 553.914 865.55C553.914 862.68 554.568 860.452 555.874 858.865C557.181 857.255 558.919 856.45 561.089 856.45C563.166 856.45 564.963 857.383 566.479 859.25H566.549L566.689 856.8H572.814V872.9C572.814 876.237 571.893 878.757 570.049 880.46C568.206 882.187 565.511 883.05 561.964 883.05C559.724 883.05 557.624 882.7 555.664 882L556.714 877.31C558.348 877.987 559.981 878.325 561.614 878.325C563.318 878.325 564.531 877.917 565.254 877.1C565.978 876.307 566.339 874.907 566.339 872.9V872.2ZM560.214 865.55C560.214 866.88 560.483 867.918 561.019 868.665C561.579 869.388 562.303 869.75 563.189 869.75C564.099 869.75 564.823 869.412 565.359 868.735C565.896 868.035 566.164 867.032 566.164 865.725V865.375C566.164 864.092 565.896 863.1 565.359 862.4C564.823 861.7 564.099 861.35 563.189 861.35C562.256 861.35 561.521 861.712 560.984 862.435C560.471 863.135 560.214 864.173 560.214 865.55Z" fill="white"/>
<defs>
<filter id="filter0_d_605_3" x="-224.9" y="6.1" width="1021.34" height="1033.8" filterUnits="userSpaceOnUse" color-interpolation-filters="sRGB">
<feFlood flood-opacity="0" result="BackgroundImageFix"/>
<feColorMatrix in="SourceAlpha" type="matrix" values="0 0 0 0 0 0 0 0 0 0 0 0 0 0 0 0 0 0 127 0" result="hardAlpha"/>
<feOffset/>
<feGaussianBlur stdDeviation="34.95"/>
<feComposite in2="hardAlpha" operator="out"/>
<feColorMatrix type="matrix" values="0 0 0 0 0 0 0 0 0 0 0 0 0 0 0 0 0 0 0.15 0"/>
<feBlend mode="normal" in2="BackgroundImageFix" result="effect1_dropShadow_605_3"/>
<feBlend mode="normal" in="SourceGraphic" in2="effect1_dropShadow_605_3" result="shape"/>
</filter>
<linearGradient id="paint0_linear_605_3" x1="285.768" y1="76" x2="285.768" y2="970" gradientUnits="userSpaceOnUse">
<stop stop-color="#C0EF39"/>
<stop offset="1" stop-color="#4AA153" stop-opacity="0.34"/>
</linearGradient>
</defs>
</svg>
