<svg width="640" height="900" viewBox="0 0 640 900" fill="none" xmlns="http://www.w3.org/2000/svg">
<rect x="0.0195312" width="639.02" height="900" fill="#3BDCB5"/>
<mask id="mask0_612_176" style="mask-type:alpha" maskUnits="userSpaceOnUse" x="0" y="0" width="640" height="900">
<rect x="0.0195312" width="639.02" height="900" fill="white"/>
</mask>
<g mask="url(#mask0_612_176)">
<path d="M225.683 55.7824C210.837 91.6358 193.133 132.651 167.593 175.237C127.393 243.541 81.8501 284.665 38.342 273.817C-7.37831 262.418 -29.6785 204.379 -13.9072 141.342C8.04343 53.606 102.26 -2.01311 200.706 22.5323C294.728 45.9745 337.858 125.655 316.922 209.336C297.461 287.119 237.538 332.49 137.614 324.808L116.974 263.266C132.921 265.284 143.43 265.555 154.768 265.64C204.453 265.887 244.002 240.893 256.177 192.233C270.472 135.094 246.235 89.4957 186.503 74.603C109.811 55.4815 55.8782 108.221 45.4563 149.877C37.4323 181.948 44.3433 201.295 57.2483 204.512C71.9968 208.189 88.6841 188.46 112.656 149.008C132.387 117.114 151.198 76.3744 164.569 38.5868L225.683 55.7824ZM671.923 121.221C668.142 130.07 665.376 139.562 662.886 147.949C657.444 166.566 639.367 240.385 633.741 262.872C611.698 350.976 588.923 398.168 506.325 427.703L464.851 374.283C482.458 371.232 506.057 363.017 520.347 352.873C548.741 331.755 564.231 305.853 578.527 248.714C585.997 218.854 600.939 157.568 604.998 133.516C606.566 124.116 607.397 111.4 607.398 105.134L671.923 121.221ZM502.951 153.111C521.478 160.471 536.319 165.346 555.86 170.219C604.53 182.354 668.503 194.387 705.651 197.775L690.802 255.559C655.774 249.959 595.305 238.015 543.685 225.145C528.568 221.376 508.197 215.122 488.84 209.512L502.951 153.111ZM488.488 82.5353C482.218 91.9378 474.012 105.949 470.139 113.599C453.911 145.583 421.731 217.845 419.79 256.916C426.796 249.263 436.938 235.343 445.144 226.032L468.001 250.529C447.072 282.516 429 317.174 418.581 338.465C415.63 343.996 412.31 352.567 411.296 356.622C410.281 360.677 408.898 367.773 407.791 373.764L356.447 366.053C353.5 341.821 353.231 284.967 364.575 239.624C379.793 178.799 400.265 123.592 412.529 94.9272C417.139 84.3278 421.013 70.4115 424.056 59.8129L488.488 82.5353ZM59.2691 626.99L392.954 710.187L381.241 757.004L47.556 673.807L59.2691 626.99ZM108.963 563.012L318.392 615.228L306.863 661.308L97.4345 609.092L108.963 563.012ZM125.988 783.046L285.64 822.852L275.679 862.665L116.027 822.859L125.988 783.046ZM111.877 839.448L271.529 879.254L260.369 923.859L100.717 884.053L111.877 839.448ZM200.593 547.478L253.688 560.716L220.024 695.269L166.929 682.031L200.593 547.478ZM360.797 597.604L400.984 632.688C304.182 717.427 172.265 764.037 41.274 777.199C37.865 764.208 27.5442 738.137 20.6323 725.056C150.056 718.162 275.151 675.333 360.797 597.604ZM110.787 715.42L334.595 771.222L292.077 941.164L236.033 927.19L267.668 800.748L153.367 772.249L121.363 900.167L67.8999 886.837L110.787 715.42Z" fill="#328F68"/>
<g filter="url(#filter0_d_612_176)">
<path d="M-224 1033.5L666.5 1006.5L680 876.5L600 674.5L522.5 515L513.5 408.5L537 337L449.5 271.5L399 157.5L292.5 68L256.5 150L242 290L183.8 202.5L149.5 93.5L115 129V263L183.8 483.5L207.5 610.5L37 818L-70 981L-224 1033.5Z" fill="url(#paint0_linear_612_176)" shape-rendering="crispEdges"/>
</g>
</g>
<path d="M102.267 694.36V724H76.9168V629.75C85.8434 628.45 95.3768 627.8 105.517 627.8C134.983 627.8 149.717 638.417 149.717 659.65C149.717 671.177 146.38 679.93 139.707 685.91C133.12 691.803 123.457 694.75 110.717 694.75C107.337 694.75 104.52 694.62 102.267 694.36ZM102.267 675.51C103.913 675.77 105.863 675.9 108.117 675.9C113.75 675.9 118.083 674.6 121.117 672C124.15 669.4 125.667 665.717 125.667 660.95C125.667 651.85 119.817 647.3 108.117 647.3C106.21 647.3 104.26 647.517 102.267 647.95V675.51ZM182.599 686.3H199.759L191.309 651.2H191.049L182.599 686.3ZM177.919 705.8L173.629 724H146.589L177.789 629.1H205.089L236.289 724H208.729L204.309 705.8H177.919ZM274.161 690.85V724H248.811V629.75C260.078 628.45 271.345 627.8 282.611 627.8C308.611 627.8 321.611 637.55 321.611 657.05C321.611 662.51 319.921 667.58 316.541 672.26C313.161 676.94 308.785 680.277 303.411 682.27V682.53C306.011 684.003 308.178 685.91 309.911 688.25C311.645 690.503 313.291 693.753 314.851 698L324.211 724H297.561L289.501 699.3C288.548 696.267 287.335 694.1 285.861 692.8C284.388 691.5 282.438 690.85 280.011 690.85H274.161ZM274.161 672H281.311C285.731 672 289.198 670.917 291.711 668.75C294.311 666.497 295.611 663.463 295.611 659.65C295.611 651.417 290.845 647.3 281.311 647.3C278.538 647.3 276.155 647.517 274.161 647.95V672ZM339.232 724V629.1H367.832V724H339.232ZM417.589 686.3H434.749L426.299 651.2H426.039L417.589 686.3ZM412.909 705.8L408.619 724H381.579L412.779 629.1H440.079L471.279 724H443.719L439.299 705.8H412.909ZM537.102 685H509.802V724H483.802V629.1H509.802V665.5H537.102V629.1H563.102V724H537.102V685Z" fill="white"/>
<path d="M30.049 775V749.45H37.749V775H30.049ZM53.875 749.1C55.3684 749.1 56.9434 749.275 58.6 749.625L57.725 754.525C56.885 754.175 56.01 754 55.1 754C54.2834 754 53.7234 754.198 53.42 754.595C53.1167 754.968 52.965 755.703 52.965 756.8V757.5H58.25V762.05H52.965V775H46.175V762.05H42.15V757.5H46.175V756.8C46.175 754.303 46.84 752.402 48.17 751.095C49.5 749.765 51.4017 749.1 53.875 749.1ZM82.5277 769.05H82.5977L85.8877 756.8H92.8877L83.4377 782.7H76.4377L79.5877 775L72.5877 756.8H79.9377L82.5277 769.05ZM96.3032 758.97C97.9832 757.29 100.352 756.45 103.408 756.45C106.465 756.45 108.833 757.29 110.513 758.97C112.193 760.65 113.033 762.96 113.033 765.9C113.033 768.84 112.193 771.15 110.513 772.83C108.833 774.51 106.465 775.35 103.408 775.35C100.352 775.35 97.9832 774.51 96.3032 772.83C94.6232 771.15 93.7832 768.84 93.7832 765.9C93.7832 762.96 94.6232 760.65 96.3032 758.97ZM101.063 769.505C101.577 770.228 102.358 770.59 103.408 770.59C104.458 770.59 105.24 770.228 105.753 769.505C106.267 768.782 106.523 767.58 106.523 765.9C106.523 764.22 106.267 763.018 105.753 762.295C105.24 761.572 104.458 761.21 103.408 761.21C102.358 761.21 101.577 761.572 101.063 762.295C100.55 763.018 100.293 764.22 100.293 765.9C100.293 767.58 100.55 768.782 101.063 769.505ZM127.574 772.55C126.92 773.413 126.104 774.102 125.124 774.615C124.167 775.105 123.187 775.35 122.184 775.35C119.99 775.35 118.415 774.778 117.459 773.635C116.525 772.492 116.059 770.497 116.059 767.65V756.8H122.639V766.95C122.639 768.303 122.767 769.202 123.024 769.645C123.28 770.065 123.759 770.275 124.459 770.275C125.182 770.275 125.824 769.878 126.384 769.085C126.967 768.292 127.259 767.347 127.259 766.25V756.8H133.909V775H127.784L127.644 772.55H127.574ZM150.156 775V748.75H157.156V775H150.156ZM163.569 758.97C165.249 757.29 167.617 756.45 170.674 756.45C173.731 756.45 176.099 757.29 177.779 758.97C179.459 760.65 180.299 762.96 180.299 765.9C180.299 768.84 179.459 771.15 177.779 772.83C176.099 774.51 173.731 775.35 170.674 775.35C167.617 775.35 165.249 774.51 163.569 772.83C161.889 771.15 161.049 768.84 161.049 765.9C161.049 762.96 161.889 760.65 163.569 758.97ZM168.329 769.505C168.842 770.228 169.624 770.59 170.674 770.59C171.724 770.59 172.506 770.228 173.019 769.505C173.532 768.782 173.789 767.58 173.789 765.9C173.789 764.22 173.532 763.018 173.019 762.295C172.506 761.572 171.724 761.21 170.674 761.21C169.624 761.21 168.842 761.572 168.329 762.295C167.816 763.018 167.559 764.22 167.559 765.9C167.559 767.58 167.816 768.782 168.329 769.505ZM185.136 758.97C186.816 757.29 189.185 756.45 192.241 756.45C195.298 756.45 197.666 757.29 199.346 758.97C201.026 760.65 201.866 762.96 201.866 765.9C201.866 768.84 201.026 771.15 199.346 772.83C197.666 774.51 195.298 775.35 192.241 775.35C189.185 775.35 186.816 774.51 185.136 772.83C183.456 771.15 182.616 768.84 182.616 765.9C182.616 762.96 183.456 760.65 185.136 758.97ZM189.896 769.505C190.41 770.228 191.191 770.59 192.241 770.59C193.291 770.59 194.073 770.228 194.586 769.505C195.1 768.782 195.356 767.58 195.356 765.9C195.356 764.22 195.1 763.018 194.586 762.295C194.073 761.572 193.291 761.21 192.241 761.21C191.191 761.21 190.41 761.572 189.896 762.295C189.383 763.018 189.126 764.22 189.126 765.9C189.126 767.58 189.383 768.782 189.896 769.505ZM219.592 762.295C217.468 761.525 215.485 761.14 213.642 761.14C212.638 761.14 211.95 761.233 211.577 761.42C211.203 761.583 211.017 761.852 211.017 762.225C211.017 762.575 211.168 762.843 211.472 763.03C211.775 763.217 212.323 763.357 213.117 763.45C215.987 763.8 218.04 764.477 219.277 765.48C220.537 766.483 221.167 767.848 221.167 769.575C221.167 771.348 220.455 772.76 219.032 773.81C217.632 774.837 215.602 775.35 212.942 775.35C209.792 775.35 206.933 774.767 204.367 773.6L205.592 768.91C207.692 770.03 209.908 770.59 212.242 770.59C213.758 770.59 214.517 770.193 214.517 769.4C214.517 769.097 214.4 768.887 214.167 768.77C213.933 768.653 213.35 768.513 212.417 768.35C209.593 767.907 207.575 767.183 206.362 766.18C205.148 765.153 204.542 763.777 204.542 762.05C204.542 760.3 205.242 758.935 206.642 757.955C208.042 756.952 210.142 756.45 212.942 756.45C215.718 756.45 218.343 756.858 220.817 757.675L219.592 762.295ZM230.176 764.15H236.091C236.091 761.933 235.099 760.825 233.116 760.825C231.319 760.825 230.339 761.933 230.176 764.15ZM230.246 768C230.643 769.867 231.973 770.8 234.236 770.8C235.986 770.8 237.654 770.392 239.241 769.575L240.641 773.95C238.494 774.883 236.161 775.35 233.641 775.35C230.631 775.35 228.216 774.498 226.396 772.795C224.576 771.092 223.666 768.793 223.666 765.9C223.666 762.983 224.494 760.685 226.151 759.005C227.831 757.302 230.094 756.45 232.941 756.45C235.858 756.45 238.133 757.278 239.766 758.935C241.399 760.568 242.216 762.89 242.216 765.9C242.216 766.53 242.158 767.23 242.041 768H230.246ZM265.812 763.1H266.862C266.862 762.307 266.711 761.758 266.407 761.455C266.104 761.152 265.556 761 264.762 761C262.312 761 259.921 761.525 257.587 762.575L256.712 758.025C259.279 756.975 262.079 756.45 265.112 756.45C268.146 756.45 270.304 757.022 271.587 758.165C272.871 759.285 273.512 761.163 273.512 763.8V770.1C273.512 771.78 273.687 773.413 274.037 775H267.737C267.597 774.207 267.481 773.39 267.387 772.55H267.317C266.687 773.39 265.871 774.067 264.867 774.58C263.864 775.093 262.837 775.35 261.787 775.35C259.991 775.35 258.544 774.86 257.447 773.88C256.374 772.877 255.837 771.5 255.837 769.75C255.837 767.743 256.689 766.133 258.392 764.92C260.119 763.707 262.592 763.1 265.812 763.1ZM261.787 769.05C261.787 770.1 262.371 770.625 263.537 770.625C264.541 770.625 265.346 770.345 265.952 769.785C266.559 769.225 266.862 768.455 266.862 767.475V766.95H265.812C264.482 766.95 263.479 767.148 262.802 767.545C262.126 767.918 261.787 768.42 261.787 769.05ZM284.444 759.25C285.097 758.387 285.902 757.71 286.859 757.22C287.839 756.707 288.83 756.45 289.834 756.45C292.144 756.45 293.8 757.103 294.804 758.41C295.807 759.693 296.309 761.957 296.309 765.2V775H289.729V765.9C289.729 764.15 289.565 762.983 289.239 762.4C288.935 761.817 288.375 761.525 287.559 761.525C286.835 761.525 286.182 761.922 285.599 762.715C285.039 763.508 284.759 764.453 284.759 765.55V775H278.109V756.8H284.234L284.374 759.25H284.444ZM312.373 753.65V748.75H319.373V753.65H312.373ZM312.373 775V756.8H319.373V775H312.373ZM330.826 759.25C331.479 758.387 332.284 757.71 333.241 757.22C334.221 756.707 335.212 756.45 336.216 756.45C338.526 756.45 340.182 757.103 341.186 758.41C342.189 759.693 342.691 761.957 342.691 765.2V775H336.111V765.9C336.111 764.15 335.947 762.983 335.621 762.4C335.317 761.817 334.757 761.525 333.941 761.525C333.217 761.525 332.564 761.922 331.981 762.715C331.421 763.508 331.141 764.453 331.141 765.55V775H324.491V756.8H330.616L330.756 759.25H330.826ZM362.838 754.35C361.601 754.117 360.551 754 359.688 754C358.358 754 357.459 754.198 356.993 754.595C356.549 754.968 356.328 755.703 356.328 756.8V757.5H361.438V762.05H356.328V775H349.538V762.05H346.213V757.5H349.538V756.8C349.538 754.467 350.424 752.6 352.198 751.2C353.994 749.8 356.491 749.1 359.688 749.1C363.701 749.1 367.084 749.567 369.838 750.5V775H362.838V754.35ZM385.767 772.55C385.114 773.413 384.297 774.102 383.317 774.615C382.361 775.105 381.381 775.35 380.377 775.35C378.184 775.35 376.609 774.778 375.652 773.635C374.719 772.492 374.252 770.497 374.252 767.65V756.8H380.832V766.95C380.832 768.303 380.961 769.202 381.217 769.645C381.474 770.065 381.952 770.275 382.652 770.275C383.376 770.275 384.017 769.878 384.577 769.085C385.161 768.292 385.452 767.347 385.452 766.25V756.8H392.102V775H385.977L385.837 772.55H385.767ZM401.792 764.15H407.707C407.707 761.933 406.716 760.825 404.732 760.825C402.936 760.825 401.956 761.933 401.792 764.15ZM401.862 768C402.259 769.867 403.589 770.8 405.852 770.8C407.602 770.8 409.271 770.392 410.857 769.575L412.257 773.95C410.111 774.883 407.777 775.35 405.257 775.35C402.247 775.35 399.832 774.498 398.012 772.795C396.192 771.092 395.282 768.793 395.282 765.9C395.282 762.983 396.111 760.685 397.767 759.005C399.447 757.302 401.711 756.45 404.557 756.45C407.474 756.45 409.749 757.278 411.382 758.935C413.016 760.568 413.832 762.89 413.832 765.9C413.832 766.53 413.774 767.23 413.657 768H401.862ZM423.521 759.25C424.174 758.387 424.979 757.71 425.936 757.22C426.916 756.707 427.908 756.45 428.911 756.45C431.221 756.45 432.878 757.103 433.881 758.41C434.884 759.693 435.386 761.957 435.386 765.2V775H428.806V765.9C428.806 764.15 428.643 762.983 428.316 762.4C428.013 761.817 427.453 761.525 426.636 761.525C425.913 761.525 425.259 761.922 424.676 762.715C424.116 763.508 423.836 764.453 423.836 765.55V775H417.186V756.8H423.311L423.451 759.25H423.521ZM453.783 769.295L455.183 773.95C453.176 774.883 451.076 775.35 448.883 775.35C445.663 775.35 443.108 774.498 441.218 772.795C439.328 771.092 438.383 768.793 438.383 765.9C438.383 762.983 439.304 760.685 441.148 759.005C443.014 757.302 445.593 756.45 448.883 756.45C451.146 756.45 453.246 756.917 455.183 757.85L453.783 762.575C452.336 761.688 450.819 761.245 449.233 761.245C447.903 761.245 446.864 761.642 446.118 762.435C445.394 763.228 445.033 764.383 445.033 765.9C445.033 767.37 445.418 768.525 446.188 769.365C446.958 770.205 447.973 770.625 449.233 770.625C450.819 770.625 452.336 770.182 453.783 769.295ZM464.512 764.15H470.427C470.427 761.933 469.435 760.825 467.452 760.825C465.655 760.825 464.675 761.933 464.512 764.15ZM464.582 768C464.979 769.867 466.309 770.8 468.572 770.8C470.322 770.8 471.99 770.392 473.577 769.575L474.977 773.95C472.83 774.883 470.497 775.35 467.977 775.35C464.967 775.35 462.552 774.498 460.732 772.795C458.912 771.092 458.002 768.793 458.002 765.9C458.002 762.983 458.83 760.685 460.487 759.005C462.167 757.302 464.43 756.45 467.277 756.45C470.194 756.45 472.469 757.278 474.102 758.935C475.735 760.568 476.552 762.89 476.552 765.9C476.552 766.53 476.494 767.23 476.377 768H464.582ZM484.468 778.85H478.868L480.968 767.65H488.668L484.468 778.85ZM510.162 756.8L510.302 759.25H510.372C511.888 757.383 513.685 756.45 515.762 756.45C517.955 756.45 519.693 757.278 520.977 758.935C522.283 760.568 522.937 762.89 522.937 765.9C522.937 768.84 522.26 771.15 520.907 772.83C519.577 774.51 517.862 775.35 515.762 775.35C513.708 775.35 512.04 774.533 510.757 772.9H510.687V782.7H504.037V756.8H510.162ZM516.637 765.9C516.637 764.453 516.368 763.368 515.832 762.645C515.318 761.898 514.595 761.525 513.662 761.525C512.752 761.525 512.028 761.898 511.492 762.645C510.955 763.368 510.687 764.395 510.687 765.725V766.075C510.687 767.428 510.955 768.467 511.492 769.19C512.028 769.913 512.752 770.275 513.662 770.275C514.525 770.275 515.237 769.902 515.797 769.155C516.357 768.385 516.637 767.3 516.637 765.9ZM526.988 753.65V748.75H533.988V753.65H526.988ZM526.988 775V756.8H533.988V775H526.988ZM553.28 769.295L554.68 773.95C552.673 774.883 550.573 775.35 548.38 775.35C545.16 775.35 542.605 774.498 540.715 772.795C538.825 771.092 537.88 768.793 537.88 765.9C537.88 762.983 538.802 760.685 540.645 759.005C542.512 757.302 545.09 756.45 548.38 756.45C550.643 756.45 552.743 756.917 554.68 757.85L553.28 762.575C551.833 761.688 550.317 761.245 548.73 761.245C547.4 761.245 546.362 761.642 545.615 762.435C544.892 763.228 544.53 764.383 544.53 765.9C544.53 767.37 544.915 768.525 545.685 769.365C546.455 770.205 547.47 770.625 548.73 770.625C550.317 770.625 551.833 770.182 553.28 769.295ZM565.619 767.65H565.549V775H558.899V748.75H565.549V763.45H565.619L570.449 756.8H577.974L570.974 765.55L578.149 775H570.624L565.619 767.65ZM601.764 763.1H602.814C602.814 762.307 602.663 761.758 602.359 761.455C602.056 761.152 601.508 761 600.714 761C598.264 761 595.873 761.525 593.539 762.575L592.664 758.025C595.231 756.975 598.031 756.45 601.064 756.45C604.098 756.45 606.256 757.022 607.539 758.165C608.823 759.285 609.464 761.163 609.464 763.8V770.1C609.464 771.78 609.639 773.413 609.989 775H603.689C603.549 774.207 603.433 773.39 603.339 772.55H603.269C602.639 773.39 601.823 774.067 600.819 774.58C599.816 775.093 598.789 775.35 597.739 775.35C595.943 775.35 594.496 774.86 593.399 773.88C592.326 772.877 591.789 771.5 591.789 769.75C591.789 767.743 592.641 766.133 594.344 764.92C596.071 763.707 598.544 763.1 601.764 763.1ZM597.739 769.05C597.739 770.1 598.323 770.625 599.489 770.625C600.493 770.625 601.298 770.345 601.904 769.785C602.511 769.225 602.814 768.455 602.814 767.475V766.95H601.764C600.434 766.95 599.431 767.148 598.754 767.545C598.078 767.918 597.739 768.42 597.739 769.05ZM75.3446 806.8L75.4846 809.25H75.5546C77.0713 807.383 78.868 806.45 80.9446 806.45C83.138 806.45 84.8763 807.278 86.1597 808.935C87.4663 810.568 88.1197 812.89 88.1197 815.9C88.1197 818.84 87.443 821.15 86.0896 822.83C84.7596 824.51 83.0446 825.35 80.9446 825.35C78.8913 825.35 77.223 824.533 75.9396 822.9H75.8696V832.7H69.2196V806.8H75.3446ZM81.8196 815.9C81.8196 814.453 81.5513 813.368 81.0146 812.645C80.5013 811.898 79.778 811.525 78.8446 811.525C77.9346 811.525 77.2113 811.898 76.6746 812.645C76.138 813.368 75.8696 814.395 75.8696 815.725V816.075C75.8696 817.428 76.138 818.467 76.6746 819.19C77.2113 819.913 77.9346 820.275 78.8446 820.275C79.708 820.275 80.4196 819.902 80.9796 819.155C81.5396 818.385 81.8196 817.3 81.8196 815.9ZM92.1706 825V798.75H99.1706V825H92.1706ZM113.388 813.1H114.438C114.438 812.307 114.286 811.758 113.983 811.455C113.68 811.152 113.131 811 112.338 811C109.888 811 107.496 811.525 105.163 812.575L104.288 808.025C106.855 806.975 109.655 806.45 112.688 806.45C115.721 806.45 117.88 807.022 119.163 808.165C120.446 809.285 121.088 811.163 121.088 813.8V820.1C121.088 821.78 121.263 823.413 121.613 825H115.313C115.173 824.207 115.056 823.39 114.963 822.55H114.893C114.263 823.39 113.446 824.067 112.443 824.58C111.44 825.093 110.413 825.35 109.363 825.35C107.566 825.35 106.12 824.86 105.023 823.88C103.95 822.877 103.413 821.5 103.413 819.75C103.413 817.743 104.265 816.133 105.968 814.92C107.695 813.707 110.168 813.1 113.388 813.1ZM109.363 819.05C109.363 820.1 109.946 820.625 111.113 820.625C112.116 820.625 112.921 820.345 113.528 819.785C114.135 819.225 114.438 818.455 114.438 817.475V816.95H113.388C112.058 816.95 111.055 817.148 110.378 817.545C109.701 817.918 109.363 818.42 109.363 819.05ZM133.165 819.05H133.235L136.525 806.8H143.525L134.075 832.7H127.075L130.225 825L123.225 806.8H130.575L133.165 819.05ZM150.93 814.15H156.845C156.845 811.933 155.854 810.825 153.87 810.825C152.074 810.825 151.094 811.933 150.93 814.15ZM151 818C151.397 819.867 152.727 820.8 154.99 820.8C156.74 820.8 158.409 820.392 159.995 819.575L161.395 823.95C159.249 824.883 156.915 825.35 154.395 825.35C151.385 825.35 148.97 824.498 147.15 822.795C145.33 821.092 144.42 818.793 144.42 815.9C144.42 812.983 145.249 810.685 146.905 809.005C148.585 807.302 150.849 806.45 153.695 806.45C156.612 806.45 158.887 807.278 160.52 808.935C162.154 810.568 162.97 812.89 162.97 815.9C162.97 816.53 162.912 817.23 162.795 818H151ZM181.024 806.45V811.7C178.411 811.7 176.439 812.19 175.109 813.17C173.779 814.15 173.114 815.527 173.114 817.3V825H166.324V806.8H172.589L172.624 810.3H172.694C174.701 807.733 177.477 806.45 181.024 806.45ZM205.515 825.35C203.205 825.35 201.49 824.825 200.37 823.775C199.25 822.702 198.69 821.01 198.69 818.7V812.05H195.015V807.5H198.69V800.85H205.48V807.5H211.115V812.05H205.48V817.65C205.48 818.77 205.608 819.517 205.865 819.89C206.121 820.263 206.588 820.45 207.265 820.45C208.291 820.45 209.341 820.275 210.415 819.925L211.115 824.65C209.388 825.117 207.521 825.35 205.515 825.35ZM216.462 808.97C218.142 807.29 220.51 806.45 223.567 806.45C226.624 806.45 228.992 807.29 230.672 808.97C232.352 810.65 233.192 812.96 233.192 815.9C233.192 818.84 232.352 821.15 230.672 822.83C228.992 824.51 226.624 825.35 223.567 825.35C220.51 825.35 218.142 824.51 216.462 822.83C214.782 821.15 213.942 818.84 213.942 815.9C213.942 812.96 214.782 810.65 216.462 808.97ZM221.222 819.505C221.735 820.228 222.517 820.59 223.567 820.59C224.617 820.59 225.399 820.228 225.912 819.505C226.425 818.782 226.682 817.58 226.682 815.9C226.682 814.22 226.425 813.018 225.912 812.295C225.399 811.572 224.617 811.21 223.567 811.21C222.517 811.21 221.735 811.572 221.222 812.295C220.709 813.018 220.452 814.22 220.452 815.9C220.452 817.58 220.709 818.782 221.222 819.505ZM248.235 825V798.75H255.235V825H248.235ZM261.647 808.97C263.327 807.29 265.696 806.45 268.752 806.45C271.809 806.45 274.177 807.29 275.857 808.97C277.537 810.65 278.377 812.96 278.377 815.9C278.377 818.84 277.537 821.15 275.857 822.83C274.177 824.51 271.809 825.35 268.752 825.35C265.696 825.35 263.327 824.51 261.647 822.83C259.967 821.15 259.127 818.84 259.127 815.9C259.127 812.96 259.967 810.65 261.647 808.97ZM266.407 819.505C266.921 820.228 267.702 820.59 268.752 820.59C269.802 820.59 270.584 820.228 271.097 819.505C271.611 818.782 271.867 817.58 271.867 815.9C271.867 814.22 271.611 813.018 271.097 812.295C270.584 811.572 269.802 811.21 268.752 811.21C267.702 811.21 266.921 811.572 266.407 812.295C265.894 813.018 265.637 814.22 265.637 815.9C265.637 817.58 265.894 818.782 266.407 819.505ZM283.215 808.97C284.895 807.29 287.263 806.45 290.32 806.45C293.377 806.45 295.745 807.29 297.425 808.97C299.105 810.65 299.945 812.96 299.945 815.9C299.945 818.84 299.105 821.15 297.425 822.83C295.745 824.51 293.377 825.35 290.32 825.35C287.263 825.35 284.895 824.51 283.215 822.83C281.535 821.15 280.695 818.84 280.695 815.9C280.695 812.96 281.535 810.65 283.215 808.97ZM287.975 819.505C288.488 820.228 289.27 820.59 290.32 820.59C291.37 820.59 292.152 820.228 292.665 819.505C293.178 818.782 293.435 817.58 293.435 815.9C293.435 814.22 293.178 813.018 292.665 812.295C292.152 811.572 291.37 811.21 290.32 811.21C289.27 811.21 288.488 811.572 287.975 812.295C287.462 813.018 287.205 814.22 287.205 815.9C287.205 817.58 287.462 818.782 287.975 819.505ZM317.67 812.295C315.547 811.525 313.564 811.14 311.72 811.14C310.717 811.14 310.029 811.233 309.655 811.42C309.282 811.583 309.095 811.852 309.095 812.225C309.095 812.575 309.247 812.843 309.55 813.03C309.854 813.217 310.402 813.357 311.195 813.45C314.065 813.8 316.119 814.477 317.355 815.48C318.615 816.483 319.245 817.848 319.245 819.575C319.245 821.348 318.534 822.76 317.11 823.81C315.71 824.837 313.68 825.35 311.02 825.35C307.87 825.35 305.012 824.767 302.445 823.6L303.67 818.91C305.77 820.03 307.987 820.59 310.32 820.59C311.837 820.59 312.595 820.193 312.595 819.4C312.595 819.097 312.479 818.887 312.245 818.77C312.012 818.653 311.429 818.513 310.495 818.35C307.672 817.907 305.654 817.183 304.44 816.18C303.227 815.153 302.62 813.777 302.62 812.05C302.62 810.3 303.32 808.935 304.72 807.955C306.12 806.952 308.22 806.45 311.02 806.45C313.797 806.45 316.422 806.858 318.895 807.675L317.67 812.295ZM328.255 814.15H334.17C334.17 811.933 333.178 810.825 331.195 810.825C329.398 810.825 328.418 811.933 328.255 814.15ZM328.325 818C328.721 819.867 330.051 820.8 332.315 820.8C334.065 820.8 335.733 820.392 337.32 819.575L338.72 823.95C336.573 824.883 334.24 825.35 331.72 825.35C328.71 825.35 326.295 824.498 324.475 822.795C322.655 821.092 321.745 818.793 321.745 815.9C321.745 812.983 322.573 810.685 324.23 809.005C325.91 807.302 328.173 806.45 331.02 806.45C333.936 806.45 336.211 807.278 337.845 808.935C339.478 810.568 340.295 812.89 340.295 815.9C340.295 816.53 340.236 817.23 340.12 818H328.325ZM356.086 808.97C357.766 807.29 360.134 806.45 363.191 806.45C366.248 806.45 368.616 807.29 370.296 808.97C371.976 810.65 372.816 812.96 372.816 815.9C372.816 818.84 371.976 821.15 370.296 822.83C368.616 824.51 366.248 825.35 363.191 825.35C360.134 825.35 357.766 824.51 356.086 822.83C354.406 821.15 353.566 818.84 353.566 815.9C353.566 812.96 354.406 810.65 356.086 808.97ZM360.846 819.505C361.359 820.228 362.141 820.59 363.191 820.59C364.241 820.59 365.023 820.228 365.536 819.505C366.049 818.782 366.306 817.58 366.306 815.9C366.306 814.22 366.049 813.018 365.536 812.295C365.023 811.572 364.241 811.21 363.191 811.21C362.141 811.21 361.359 811.572 360.846 812.295C360.333 813.018 360.076 814.22 360.076 815.9C360.076 817.58 360.333 818.782 360.846 819.505ZM382.352 809.25C383.005 808.387 383.81 807.71 384.767 807.22C385.747 806.707 386.738 806.45 387.742 806.45C390.052 806.45 391.708 807.103 392.712 808.41C393.715 809.693 394.217 811.957 394.217 815.2V825H387.637V815.9C387.637 814.15 387.473 812.983 387.147 812.4C386.843 811.817 386.283 811.525 385.467 811.525C384.743 811.525 384.09 811.922 383.507 812.715C382.947 813.508 382.667 814.453 382.667 815.55V825H376.017V806.8H382.142L382.282 809.25H382.352ZM403.723 814.15H409.638C409.638 811.933 408.647 810.825 406.663 810.825C404.867 810.825 403.887 811.933 403.723 814.15ZM403.793 818C404.19 819.867 405.52 820.8 407.783 820.8C409.533 820.8 411.202 820.392 412.788 819.575L414.188 823.95C412.042 824.883 409.708 825.35 407.188 825.35C404.178 825.35 401.763 824.498 399.943 822.795C398.123 821.092 397.213 818.793 397.213 815.9C397.213 812.983 398.042 810.685 399.698 809.005C401.378 807.302 403.642 806.45 406.488 806.45C409.405 806.45 411.68 807.278 413.313 808.935C414.947 810.568 415.763 812.89 415.763 815.9C415.763 816.53 415.705 817.23 415.588 818H403.793ZM439.36 813.1H440.41C440.41 812.307 440.258 811.758 439.955 811.455C439.651 811.152 439.103 811 438.31 811C435.86 811 433.468 811.525 431.135 812.575L430.26 808.025C432.826 806.975 435.626 806.45 438.66 806.45C441.693 806.45 443.851 807.022 445.135 808.165C446.418 809.285 447.06 811.163 447.06 813.8V820.1C447.06 821.78 447.235 823.413 447.585 825H441.285C441.145 824.207 441.028 823.39 440.935 822.55H440.865C440.235 823.39 439.418 824.067 438.415 824.58C437.411 825.093 436.385 825.35 435.335 825.35C433.538 825.35 432.091 824.86 430.995 823.88C429.921 822.877 429.385 821.5 429.385 819.75C429.385 817.743 430.236 816.133 431.94 814.92C433.666 813.707 436.14 813.1 439.36 813.1ZM435.335 819.05C435.335 820.1 435.918 820.625 437.085 820.625C438.088 820.625 438.893 820.345 439.5 819.785C440.106 819.225 440.41 818.455 440.41 817.475V816.95H439.36C438.03 816.95 437.026 817.148 436.35 817.545C435.673 817.918 435.335 818.42 435.335 819.05ZM465.839 812.295C463.716 811.525 461.733 811.14 459.889 811.14C458.886 811.14 458.198 811.233 457.824 811.42C457.451 811.583 457.264 811.852 457.264 812.225C457.264 812.575 457.416 812.843 457.719 813.03C458.023 813.217 458.571 813.357 459.364 813.45C462.234 813.8 464.288 814.477 465.524 815.48C466.784 816.483 467.414 817.848 467.414 819.575C467.414 821.348 466.703 822.76 465.279 823.81C463.879 824.837 461.849 825.35 459.189 825.35C456.039 825.35 453.181 824.767 450.614 823.6L451.839 818.91C453.939 820.03 456.156 820.59 458.489 820.59C460.006 820.59 460.764 820.193 460.764 819.4C460.764 819.097 460.648 818.887 460.414 818.77C460.181 818.653 459.598 818.513 458.664 818.35C455.841 817.907 453.823 817.183 452.609 816.18C451.396 815.153 450.789 813.777 450.789 812.05C450.789 810.3 451.489 808.935 452.889 807.955C454.289 806.952 456.389 806.45 459.189 806.45C461.966 806.45 464.591 806.858 467.064 807.675L465.839 812.295ZM501.041 819.75H501.111L502.826 806.8H509.231L505.031 825H497.331L495.266 812.4H495.196L493.131 825H485.431L481.231 806.8H487.776L489.491 819.75H489.561L491.626 806.8H498.976L501.041 819.75ZM517.542 814.15H523.457C523.457 811.933 522.465 810.825 520.482 810.825C518.685 810.825 517.705 811.933 517.542 814.15ZM517.612 818C518.008 819.867 519.338 820.8 521.602 820.8C523.352 820.8 525.02 820.392 526.607 819.575L528.007 823.95C525.86 824.883 523.527 825.35 521.007 825.35C517.997 825.35 515.582 824.498 513.762 822.795C511.942 821.092 511.032 818.793 511.032 815.9C511.032 812.983 511.86 810.685 513.517 809.005C515.197 807.302 517.46 806.45 520.307 806.45C523.223 806.45 525.498 807.278 527.132 808.935C528.765 810.568 529.582 812.89 529.582 815.9C529.582 816.53 529.523 817.23 529.407 818H517.612ZM533.635 825V798.75H540.635V825H533.635ZM545.769 825V798.75H552.769V825H545.769ZM563.662 828.85H558.062L560.162 817.65H567.862L563.662 828.85ZM560.162 812.05V804.7H567.862V812.05H560.162ZM23.0497 856.8L23.1897 859.25H23.2597C24.7764 857.383 26.5731 856.45 28.6497 856.45C30.8431 856.45 32.5814 857.278 33.8647 858.935C35.1714 860.568 35.8247 862.89 35.8247 865.9C35.8247 868.84 35.1481 871.15 33.7947 872.83C32.4647 874.51 30.7497 875.35 28.6497 875.35C26.5964 875.35 24.9281 874.533 23.6447 872.9H23.5747V882.7H16.9247V856.8H23.0497ZM29.5247 865.9C29.5247 864.453 29.2564 863.368 28.7197 862.645C28.2064 861.898 27.4831 861.525 26.5497 861.525C25.6397 861.525 24.9164 861.898 24.3797 862.645C23.8431 863.368 23.5747 864.395 23.5747 865.725V866.075C23.5747 867.428 23.8431 868.467 24.3797 869.19C24.9164 869.913 25.6397 870.275 26.5497 870.275C27.4131 870.275 28.1247 869.902 28.6847 869.155C29.2447 868.385 29.5247 867.3 29.5247 865.9ZM53.8757 856.45V861.7C51.2624 861.7 49.2907 862.19 47.9607 863.17C46.6307 864.15 45.9657 865.527 45.9657 867.3V875H39.1757V856.8H45.4407L45.4757 860.3H45.5457C47.5524 857.733 50.329 856.45 53.8757 856.45ZM58.21 858.97C59.89 857.29 62.2583 856.45 65.315 856.45C68.3716 856.45 70.74 857.29 72.42 858.97C74.1 860.65 74.94 862.96 74.94 865.9C74.94 868.84 74.1 871.15 72.42 872.83C70.74 874.51 68.3716 875.35 65.315 875.35C62.2583 875.35 59.89 874.51 58.21 872.83C56.53 871.15 55.69 868.84 55.69 865.9C55.69 862.96 56.53 860.65 58.21 858.97ZM62.97 869.505C63.4833 870.228 64.265 870.59 65.315 870.59C66.365 870.59 67.1466 870.228 67.66 869.505C68.1733 868.782 68.43 867.58 68.43 865.9C68.43 864.22 68.1733 863.018 67.66 862.295C67.1466 861.572 66.365 861.21 65.315 861.21C64.265 861.21 63.4833 861.572 62.97 862.295C62.4566 863.018 62.2 864.22 62.2 865.9C62.2 867.58 62.4566 868.782 62.97 869.505ZM86.2379 871.15H86.3079L89.2479 856.8H96.1779L90.7529 875H81.6529L76.2279 856.8H83.2979L86.2379 871.15ZM99.8952 853.65V848.75H106.895V853.65H99.8952ZM99.8952 875V856.8H106.895V875H99.8952ZM110.963 865.9C110.963 862.89 111.604 860.568 112.888 858.935C114.194 857.278 115.944 856.45 118.138 856.45C120.121 856.45 121.789 857.267 123.143 858.9H123.213V848.75H129.863V875H123.738L123.598 872.55H123.528C122.058 874.417 120.261 875.35 118.138 875.35C116.038 875.35 114.311 874.51 112.958 872.83C111.628 871.15 110.963 868.84 110.963 865.9ZM117.263 865.9C117.263 867.3 117.543 868.385 118.103 869.155C118.663 869.902 119.374 870.275 120.238 870.275C121.148 870.275 121.871 869.913 122.408 869.19C122.944 868.467 123.213 867.428 123.213 866.075V865.725C123.213 864.395 122.944 863.368 122.408 862.645C121.871 861.898 121.148 861.525 120.238 861.525C119.304 861.525 118.569 861.898 118.033 862.645C117.519 863.368 117.263 864.453 117.263 865.9ZM139.719 864.15H145.634C145.634 861.933 144.643 860.825 142.659 860.825C140.863 860.825 139.883 861.933 139.719 864.15ZM139.789 868C140.186 869.867 141.516 870.8 143.779 870.8C145.529 870.8 147.198 870.392 148.784 869.575L150.184 873.95C148.038 874.883 145.704 875.35 143.184 875.35C140.174 875.35 137.759 874.498 135.939 872.795C134.119 871.092 133.209 868.793 133.209 865.9C133.209 862.983 134.038 860.685 135.694 859.005C137.374 857.302 139.638 856.45 142.484 856.45C145.401 856.45 147.676 857.278 149.309 858.935C150.943 860.568 151.759 862.89 151.759 865.9C151.759 866.53 151.701 867.23 151.584 868H139.789ZM154.405 865.9C154.405 862.89 155.047 860.568 156.33 858.935C157.637 857.278 159.387 856.45 161.58 856.45C163.563 856.45 165.232 857.267 166.585 858.9H166.655V848.75H173.305V875H167.18L167.04 872.55H166.97C165.5 874.417 163.703 875.35 161.58 875.35C159.48 875.35 157.753 874.51 156.4 872.83C155.07 871.15 154.405 868.84 154.405 865.9ZM160.705 865.9C160.705 867.3 160.985 868.385 161.545 869.155C162.105 869.902 162.817 870.275 163.68 870.275C164.59 870.275 165.313 869.913 165.85 869.19C166.387 868.467 166.655 867.428 166.655 866.075V865.725C166.655 864.395 166.387 863.368 165.85 862.645C165.313 861.898 164.59 861.525 163.68 861.525C162.747 861.525 162.012 861.898 161.475 862.645C160.962 863.368 160.705 864.453 160.705 865.9ZM198.644 875.35C196.334 875.35 194.619 874.825 193.499 873.775C192.379 872.702 191.819 871.01 191.819 868.7V862.05H188.144V857.5H191.819V850.85H198.609V857.5H204.244V862.05H198.609V867.65C198.609 868.77 198.738 869.517 198.994 869.89C199.251 870.263 199.718 870.45 200.394 870.45C201.421 870.45 202.471 870.275 203.544 869.925L204.244 874.65C202.518 875.117 200.651 875.35 198.644 875.35ZM227.014 865.2V875H220.434V865.9C220.434 864.15 220.27 862.983 219.944 862.4C219.64 861.817 219.08 861.525 218.264 861.525C217.54 861.525 216.887 861.922 216.304 862.715C215.744 863.508 215.464 864.453 215.464 865.55V875H208.814V848.75H215.464V858.9H215.534C216.117 858.153 216.864 857.558 217.774 857.115C218.684 856.672 219.605 856.45 220.539 856.45C222.849 856.45 224.505 857.103 225.509 858.41C226.512 859.693 227.014 861.957 227.014 865.2ZM231.966 853.65V848.75H238.966V853.65H231.966ZM231.966 875V856.8H238.966V875H231.966ZM258.608 862.295C256.485 861.525 254.501 861.14 252.658 861.14C251.655 861.14 250.966 861.233 250.593 861.42C250.22 861.583 250.033 861.852 250.033 862.225C250.033 862.575 250.185 862.843 250.488 863.03C250.791 863.217 251.34 863.357 252.133 863.45C255.003 863.8 257.056 864.477 258.293 865.48C259.553 866.483 260.183 867.848 260.183 869.575C260.183 871.348 259.471 872.76 258.048 873.81C256.648 874.837 254.618 875.35 251.958 875.35C248.808 875.35 245.95 874.767 243.383 873.6L244.608 868.91C246.708 870.03 248.925 870.59 251.258 870.59C252.775 870.59 253.533 870.193 253.533 869.4C253.533 869.097 253.416 868.887 253.183 868.77C252.95 868.653 252.366 868.513 251.433 868.35C248.61 867.907 246.591 867.183 245.378 866.18C244.165 865.153 243.558 863.777 243.558 862.05C243.558 860.3 244.258 858.935 245.658 857.955C247.058 856.952 249.158 856.45 251.958 856.45C254.735 856.45 257.36 856.858 259.833 857.675L258.608 862.295ZM289.225 869.295L290.625 873.95C288.618 874.883 286.518 875.35 284.325 875.35C281.105 875.35 278.55 874.498 276.66 872.795C274.77 871.092 273.825 868.793 273.825 865.9C273.825 862.983 274.746 860.685 276.59 859.005C278.456 857.302 281.035 856.45 284.325 856.45C286.588 856.45 288.688 856.917 290.625 857.85L289.225 862.575C287.778 861.688 286.261 861.245 284.675 861.245C283.345 861.245 282.306 861.642 281.56 862.435C280.836 863.228 280.475 864.383 280.475 865.9C280.475 867.37 280.86 868.525 281.63 869.365C282.4 870.205 283.415 870.625 284.675 870.625C286.261 870.625 287.778 870.182 289.225 869.295ZM303.769 863.1H304.819C304.819 862.307 304.667 861.758 304.364 861.455C304.061 861.152 303.512 861 302.719 861C300.269 861 297.877 861.525 295.544 862.575L294.669 858.025C297.236 856.975 300.036 856.45 303.069 856.45C306.102 856.45 308.261 857.022 309.544 858.165C310.827 859.285 311.469 861.163 311.469 863.8V870.1C311.469 871.78 311.644 873.413 311.994 875H305.694C305.554 874.207 305.437 873.39 305.344 872.55H305.274C304.644 873.39 303.827 874.067 302.824 874.58C301.821 875.093 300.794 875.35 299.744 875.35C297.947 875.35 296.501 874.86 295.404 873.88C294.331 872.877 293.794 871.5 293.794 869.75C293.794 867.743 294.646 866.133 296.349 864.92C298.076 863.707 300.549 863.1 303.769 863.1ZM299.744 869.05C299.744 870.1 300.327 870.625 301.494 870.625C302.497 870.625 303.302 870.345 303.909 869.785C304.516 869.225 304.819 868.455 304.819 867.475V866.95H303.769C302.439 866.95 301.436 867.148 300.759 867.545C300.082 867.918 299.744 868.42 299.744 869.05ZM330.765 856.45V861.7C328.152 861.7 326.18 862.19 324.85 863.17C323.52 864.15 322.855 865.527 322.855 867.3V875H316.065V856.8H322.33L322.365 860.3H322.435C324.442 857.733 327.219 856.45 330.765 856.45ZM332.755 865.9C332.755 862.89 333.396 860.568 334.68 858.935C335.986 857.278 337.736 856.45 339.93 856.45C341.913 856.45 343.581 857.267 344.935 858.9H345.005V848.75H351.655V875H345.53L345.39 872.55H345.32C343.85 874.417 342.053 875.35 339.93 875.35C337.83 875.35 336.103 874.51 334.75 872.83C333.42 871.15 332.755 868.84 332.755 865.9ZM339.055 865.9C339.055 867.3 339.335 868.385 339.895 869.155C340.455 869.902 341.166 870.275 342.03 870.275C342.94 870.275 343.663 869.913 344.2 869.19C344.736 868.467 345.005 867.428 345.005 866.075V865.725C345.005 864.395 344.736 863.368 344.2 862.645C343.663 861.898 342.94 861.525 342.03 861.525C341.096 861.525 340.361 861.898 339.825 862.645C339.311 863.368 339.055 864.453 339.055 865.9ZM368.069 853.65V848.75H375.069V853.65H368.069ZM368.069 875V856.8H375.069V875H368.069ZM394.711 862.295C392.588 861.525 390.605 861.14 388.761 861.14C387.758 861.14 387.07 861.233 386.696 861.42C386.323 861.583 386.136 861.852 386.136 862.225C386.136 862.575 386.288 862.843 386.591 863.03C386.895 863.217 387.443 863.357 388.236 863.45C391.106 863.8 393.16 864.477 394.396 865.48C395.656 866.483 396.286 867.848 396.286 869.575C396.286 871.348 395.575 872.76 394.151 873.81C392.751 874.837 390.721 875.35 388.061 875.35C384.911 875.35 382.053 874.767 379.486 873.6L380.711 868.91C382.811 870.03 385.028 870.59 387.361 870.59C388.878 870.59 389.636 870.193 389.636 869.4C389.636 869.097 389.52 868.887 389.286 868.77C389.053 868.653 388.47 868.513 387.536 868.35C384.713 867.907 382.695 867.183 381.481 866.18C380.268 865.153 379.661 863.777 379.661 862.05C379.661 860.3 380.361 858.935 381.761 857.955C383.161 856.952 385.261 856.45 388.061 856.45C390.838 856.45 393.463 856.858 395.936 857.675L394.711 862.295ZM425.678 862.295C423.555 861.525 421.572 861.14 419.728 861.14C418.725 861.14 418.037 861.233 417.663 861.42C417.29 861.583 417.103 861.852 417.103 862.225C417.103 862.575 417.255 862.843 417.558 863.03C417.862 863.217 418.41 863.357 419.203 863.45C422.073 863.8 424.127 864.477 425.363 865.48C426.623 866.483 427.253 867.848 427.253 869.575C427.253 871.348 426.542 872.76 425.118 873.81C423.718 874.837 421.688 875.35 419.028 875.35C415.878 875.35 413.02 874.767 410.453 873.6L411.678 868.91C413.778 870.03 415.995 870.59 418.328 870.59C419.845 870.59 420.603 870.193 420.603 869.4C420.603 869.097 420.487 868.887 420.253 868.77C420.02 868.653 419.437 868.513 418.503 868.35C415.68 867.907 413.662 867.183 412.448 866.18C411.235 865.153 410.628 863.777 410.628 862.05C410.628 860.3 411.328 858.935 412.728 857.955C414.128 856.952 416.228 856.45 419.028 856.45C421.805 856.45 424.43 856.858 426.903 857.675L425.678 862.295ZM439.919 875.35C437.609 875.35 435.894 874.825 434.774 873.775C433.654 872.702 433.094 871.01 433.094 868.7V862.05H429.419V857.5H433.094V850.85H439.884V857.5H445.519V862.05H439.884V867.65C439.884 868.77 440.012 869.517 440.269 869.89C440.526 870.263 440.992 870.45 441.669 870.45C442.696 870.45 443.746 870.275 444.819 869.925L445.519 874.65C443.792 875.117 441.926 875.35 439.919 875.35ZM450.613 853.65V848.75H457.613V853.65H450.613ZM450.613 875V856.8H457.613V875H450.613ZM462.747 875V848.75H469.747V875H462.747ZM474.881 875V848.75H481.881V875H474.881ZM507.241 863.1H508.291C508.291 862.307 508.139 861.758 507.836 861.455C507.532 861.152 506.984 861 506.191 861C503.741 861 501.349 861.525 499.016 862.575L498.141 858.025C500.707 856.975 503.507 856.45 506.541 856.45C509.574 856.45 511.732 857.022 513.016 858.165C514.299 859.285 514.941 861.163 514.941 863.8V870.1C514.941 871.78 515.116 873.413 515.466 875H509.166C509.026 874.207 508.909 873.39 508.816 872.55H508.746C508.116 873.39 507.299 874.067 506.296 874.58C505.292 875.093 504.266 875.35 503.216 875.35C501.419 875.35 499.972 874.86 498.876 873.88C497.802 872.877 497.266 871.5 497.266 869.75C497.266 867.743 498.117 866.133 499.821 864.92C501.547 863.707 504.021 863.1 507.241 863.1ZM503.216 869.05C503.216 870.1 503.799 870.625 504.966 870.625C505.969 870.625 506.774 870.345 507.381 869.785C507.987 869.225 508.291 868.455 508.291 867.475V866.95H507.241C505.911 866.95 504.907 867.148 504.231 867.545C503.554 867.918 503.216 868.42 503.216 869.05ZM533.712 869.295L535.112 873.95C533.105 874.883 531.005 875.35 528.812 875.35C525.592 875.35 523.037 874.498 521.147 872.795C519.257 871.092 518.312 868.793 518.312 865.9C518.312 862.983 519.234 860.685 521.077 859.005C522.944 857.302 525.522 856.45 528.812 856.45C531.075 856.45 533.175 856.917 535.112 857.85L533.712 862.575C532.265 861.688 530.749 861.245 529.162 861.245C527.832 861.245 526.794 861.642 526.047 862.435C525.324 863.228 524.962 864.383 524.962 865.9C524.962 867.37 525.347 868.525 526.117 869.365C526.887 870.205 527.902 870.625 529.162 870.625C530.749 870.625 532.265 870.182 533.712 869.295ZM548.781 875.35C546.471 875.35 544.756 874.825 543.636 873.775C542.516 872.702 541.956 871.01 541.956 868.7V862.05H538.281V857.5H541.956V850.85H548.746V857.5H554.381V862.05H548.746V867.65C548.746 868.77 548.875 869.517 549.131 869.89C549.388 870.263 549.855 870.45 550.531 870.45C551.558 870.45 552.608 870.275 553.681 869.925L554.381 874.65C552.655 875.117 550.788 875.35 548.781 875.35ZM559.475 853.65V848.75H566.475V853.65H559.475ZM559.475 875V856.8H566.475V875H559.475ZM580.203 871.15H580.273L583.213 856.8H590.143L584.718 875H575.618L570.193 856.8H577.263L580.203 871.15ZM597.932 864.15H603.847C603.847 861.933 602.856 860.825 600.872 860.825C599.076 860.825 598.096 861.933 597.932 864.15ZM598.002 868C598.399 869.867 599.729 870.8 601.992 870.8C603.742 870.8 605.411 870.392 606.997 869.575L608.397 873.95C606.251 874.883 603.917 875.35 601.397 875.35C598.387 875.35 595.972 874.498 594.152 872.795C592.332 871.092 591.422 868.793 591.422 865.9C591.422 862.983 592.251 860.685 593.907 859.005C595.587 857.302 597.851 856.45 600.697 856.45C603.614 856.45 605.889 857.278 607.522 858.935C609.156 860.568 609.972 862.89 609.972 865.9C609.972 866.53 609.914 867.23 609.797 868H598.002ZM613.684 875V867.65H621.384V875H613.684Z" fill="white"/>
<defs>
<filter id="filter0_d_612_176" x="-293.9" y="-1.9" width="1043.8" height="1105.3" filterUnits="userSpaceOnUse" color-interpolation-filters="sRGB">
<feFlood flood-opacity="0" result="BackgroundImageFix"/>
<feColorMatrix in="SourceAlpha" type="matrix" values="0 0 0 0 0 0 0 0 0 0 0 0 0 0 0 0 0 0 127 0" result="hardAlpha"/>
<feOffset/>
<feGaussianBlur stdDeviation="34.95"/>
<feComposite in2="hardAlpha" operator="out"/>
<feColorMatrix type="matrix" values="0 0 0 0 0 0 0 0 0 0 0 0 0 0 0 0 0 0 0.15 0"/>
<feBlend mode="normal" in2="BackgroundImageFix" result="effect1_dropShadow_612_176"/>
<feBlend mode="normal" in="SourceGraphic" in2="effect1_dropShadow_612_176" result="shape"/>
</filter>
<linearGradient id="paint0_linear_612_176" x1="216.768" y1="139.5" x2="216.768" y2="1033.5" gradientUnits="userSpaceOnUse">
<stop stop-color="#DF2F59"/>
<stop offset="1" stop-color="#DC3B88" stop-opacity="0.51"/>
</linearGradient>
</defs>
</svg>
