<svg width="642" height="900" viewBox="0 0 642 900" fill="none" xmlns="http://www.w3.org/2000/svg">
<rect x="2.01953" width="639.02" height="900" fill="#4BB2FC"/>
<mask id="mask0_683_64" style="mask-type:alpha" maskUnits="userSpaceOnUse" x="2" y="0" width="640" height="900">
<rect x="2.01953" width="639.02" height="900" fill="white"/>
</mask>
<g mask="url(#mask0_683_64)">
<path d="M295.69 67.7889L294.197 77.1707L448.079 101.543L449.572 92.1614L295.69 67.7889ZM302.203 26.8841L300.769 35.8907L454.651 60.2632L456.085 51.2566L302.203 26.8841ZM255.471 -15.5286L516.319 25.7857L497.438 144.372L236.59 103.058L255.471 -15.5286ZM190.64 159.646L523.551 212.374L516.799 254.78L183.889 202.052L190.64 159.646ZM217.217 111.147L514.847 158.287L508.454 198.441L210.824 151.301L217.217 111.147ZM428.968 214.322C448.679 235.527 490.398 258.678 528.492 273.176C516.984 280.202 500.289 295.64 491.741 305.828C452.683 287.715 411.963 255.873 388.747 225.265L428.968 214.322ZM195.149 281.168C223.503 279.503 265.771 275.04 306.477 270.715L307.002 308.502C274.118 314.451 239.357 320.103 211.019 324.079L195.149 281.168ZM285.766 103.536L338.687 111.918L323.63 206.487L270.709 198.105L285.766 103.536ZM397.237 121.192L450.532 129.633L435.714 222.701L382.419 214.259L397.237 121.192ZM323.798 229.598L373.716 237.504L361.945 311.433C358.659 332.073 353.292 341.611 337.639 345.672C322.48 349.042 304.405 346.564 281.135 342.879C281.29 329.822 277.854 312.734 274.392 300.644C285.532 303.178 301.296 305.674 305.484 305.953C309.988 306.666 311.669 305.778 312.266 302.026L323.798 229.598ZM282.021 189.894L319.807 213.576C288.243 237.817 239.832 256.696 194.699 262.244C189.676 250.291 178.597 230.454 169.897 219.842C211.431 217.572 257.026 206.711 282.021 189.894ZM346.889 311.741L376.244 284.458C408.768 297.688 448.653 317.856 473.057 331.34L443.224 361.626C420.125 347.195 378.918 325.663 346.889 311.741ZM250.59 249.551L293.421 236.714C300.227 244.717 307.622 256.276 310.555 264.435L265.293 278.042C263.426 270.436 256.901 258.246 250.59 249.551ZM405.506 252.927L448.009 280.819C434.326 289.425 422.818 296.451 413.98 301.207L379.751 276.934C387.702 270.498 399.372 260.035 405.506 252.927ZM222.738 641.986L461.067 679.733L453.479 727.393L215.15 689.645L222.738 641.986ZM252.235 565.478L456.785 597.876L449.436 644.034L244.886 611.637L252.235 565.478ZM329.354 748.131L432.568 764.478L425.159 811.012L321.945 794.665L329.354 748.131ZM311.634 699.925L363.428 708.129L338.214 866.494L289.706 837.65L311.634 699.925ZM334.264 538.458L386.058 546.661L362.397 695.269L310.603 687.066L334.264 538.458ZM265.546 771.881C275.768 828.518 315.065 845.13 362.671 853.054C376.558 855.254 418.219 861.852 436.354 863.955C427.746 874.519 417.226 897.091 413.078 911.054L350.4 901.127C282.466 890.367 237.038 863.935 222.05 779.228L265.546 771.881ZM230.092 716.635L282.355 729.145C266.422 797.798 242.583 853.271 203.384 884.382C196.561 874.068 177.285 852.547 166.845 843.199C200.601 819.69 218.562 772.135 230.092 716.635ZM185.133 600.249L229.991 625.436C198.996 667.85 152.451 711.263 110.83 735.835C107.803 723.428 97.9621 693.399 91.2417 680.023C124.793 662.638 161.501 632.671 185.133 600.249ZM192.768 516.047L237.762 542.795C208.048 572.33 166.852 603.894 131.996 622.227C126.973 610.274 116.884 589.055 110.181 577.99C139.006 563.703 173.991 537.311 192.768 516.047ZM141.936 683.051L196.32 643.572L199.834 645.668L162.969 877.211L112.3 869.186L141.936 683.051Z" fill="#3B53D4"/>
<g filter="url(#filter0_d_683_64)">
<path d="M911 1238L342.689 1215.46L287.489 1041.45L-37.5204 996.538L-11.5427 810.424L81.0446 573.219L90.37 468.606L57.1421 416.908L121.01 360.344L139.661 305.604L57.1421 263.029L-56.8372 305.604L-124.113 295.265L-166 239.309V153.55L-124.113 76.3066L-56.8372 36.1643L28.4231 80.5641L57.1421 132.263L113.017 176.054L206.937 229.577L268.884 313.615L206.937 339.056L188.952 407.785L244.891 485.332L298 533L348.229 512.702L395.628 462.524L443.479 401.702L464.682 351.829L403.51 280.667L388.859 191.26L426.16 80.5641L520.746 24L633.982 65.9669L669.756 191.868L671.559 206.465L669.756 281.276L644.5 351.829L734.563 401.702L803.837 457.658L837.808 661.411V981.333L750.048 1184.39L911 1238Z" fill="url(#paint0_linear_683_64)" shape-rendering="crispEdges"/>
</g>
</g>
<path d="M122.062 676.4V707H98.6623V620C109.062 618.8 119.462 618.2 129.862 618.2C153.862 618.2 165.862 627.2 165.862 645.2C165.862 650.24 164.302 654.92 161.182 659.24C158.062 663.56 154.022 666.64 149.062 668.48V668.72C151.462 670.08 153.462 671.84 155.062 674C156.662 676.08 158.182 679.08 159.622 683L168.262 707H143.662L136.222 684.2C135.342 681.4 134.222 679.4 132.862 678.2C131.502 677 129.702 676.4 127.462 676.4H122.062ZM122.062 659H128.662C132.742 659 135.942 658 138.262 656C140.662 653.92 141.862 651.12 141.862 647.6C141.862 640 137.462 636.2 128.662 636.2C126.102 636.2 123.902 636.4 122.062 636.8V659ZM182.128 707V619.4H208.528V707H182.128ZM233.937 630.32C242.097 622.24 253.057 618.2 266.817 618.2C280.577 618.2 291.497 622.24 299.577 630.32C307.737 638.32 311.817 649.28 311.817 663.2C311.817 677.12 307.737 688.12 299.577 696.2C291.497 704.2 280.577 708.2 266.817 708.2C253.057 708.2 242.097 704.2 233.937 696.2C225.857 688.12 221.817 677.12 221.817 663.2C221.817 649.28 225.857 638.32 233.937 630.32ZM246.417 663.2C246.417 680 253.217 688.4 266.817 688.4C280.417 688.4 287.217 680 287.217 663.2C287.217 646.4 280.417 638 266.817 638C253.217 638 246.417 646.4 246.417 663.2ZM388.092 619.4V639.2H364.332V707H339.852V639.2H316.092V619.4H388.092ZM457.847 653V671H426.647V687.8H460.247V707H402.647V619.4H460.247V638.6H426.647V653H457.847ZM499.992 676.4V707H476.592V620C486.992 618.8 497.392 618.2 507.792 618.2C531.792 618.2 543.792 627.2 543.792 645.2C543.792 650.24 542.232 654.92 539.112 659.24C535.992 663.56 531.952 666.64 526.992 668.48V668.72C529.392 670.08 531.392 671.84 532.992 674C534.592 676.08 536.112 679.08 537.552 683L546.192 707H521.592L514.152 684.2C513.272 681.4 512.152 679.4 510.792 678.2C509.432 677 507.632 676.4 505.392 676.4H499.992ZM499.992 659H506.592C510.672 659 513.872 658 516.192 656C518.592 653.92 519.792 651.12 519.792 647.6C519.792 640 515.392 636.2 506.592 636.2C504.032 636.2 501.832 636.4 499.992 636.8V659Z" fill="white"/>
<path d="M31.5214 760.16V767H25.6714V745.25C27.7314 744.95 29.9314 744.8 32.2714 744.8C39.0714 744.8 42.4714 747.25 42.4714 752.15C42.4714 754.81 41.7014 756.83 40.1614 758.21C38.6414 759.57 36.4114 760.25 33.4714 760.25C32.6914 760.25 32.0414 760.22 31.5214 760.16ZM31.5214 755.81C31.9014 755.87 32.3514 755.9 32.8714 755.9C34.1714 755.9 35.1714 755.6 35.8714 755C36.5714 754.4 36.9214 753.55 36.9214 752.45C36.9214 750.35 35.5714 749.3 32.8714 749.3C32.4314 749.3 31.9814 749.35 31.5214 749.45V755.81ZM52.273 756.8H53.173C53.173 756.12 53.043 755.65 52.783 755.39C52.523 755.13 52.053 755 51.373 755C49.273 755 47.223 755.45 45.223 756.35L44.473 752.45C46.673 751.55 49.073 751.1 51.673 751.1C54.273 751.1 56.123 751.59 57.223 752.57C58.323 753.53 58.873 755.14 58.873 757.4V762.8C58.873 764.24 59.023 765.64 59.323 767H53.923C53.803 766.32 53.703 765.62 53.623 764.9H53.563C53.023 765.62 52.323 766.2 51.463 766.64C50.603 767.08 49.723 767.3 48.823 767.3C47.283 767.3 46.043 766.88 45.103 766.04C44.183 765.18 43.723 764 43.723 762.5C43.723 760.78 44.453 759.4 45.913 758.36C47.393 757.32 49.513 756.8 52.273 756.8ZM48.823 761.9C48.823 762.8 49.323 763.25 50.323 763.25C51.183 763.25 51.873 763.01 52.393 762.53C52.913 762.05 53.173 761.39 53.173 760.55V760.1H52.273C51.133 760.1 50.273 760.27 49.693 760.61C49.113 760.93 48.823 761.36 48.823 761.9ZM69.2246 761.9H69.2846L72.1046 751.4H78.1046L70.0046 773.6H64.0046L66.7046 767L60.7046 751.4H67.0046L69.2246 761.9ZM90.5947 762.2C93.2747 760.18 95.2847 758.56 96.6247 757.34C97.9647 756.1 98.8447 755.11 99.2647 754.37C99.6847 753.63 99.8947 752.84 99.8947 752C99.8947 750.5 99.0447 749.75 97.3447 749.75C95.8447 749.75 93.8947 750.5 91.4947 752L89.9947 747.2C91.0147 746.52 92.3047 745.95 93.8647 745.49C95.4247 745.03 96.8847 744.8 98.2447 744.8C100.745 744.8 102.665 745.39 104.005 746.57C105.365 747.73 106.045 749.34 106.045 751.4C106.045 753.04 105.525 754.6 104.485 756.08C103.445 757.56 101.415 759.58 98.3947 762.14V762.2H106.195V767H90.5947V762.2ZM131.74 762.11L132.94 766.1C131.22 766.9 129.42 767.3 127.54 767.3C124.78 767.3 122.59 766.57 120.97 765.11C119.35 763.65 118.54 761.68 118.54 759.2C118.54 756.7 119.33 754.73 120.91 753.29C122.51 751.83 124.72 751.1 127.54 751.1C129.48 751.1 131.28 751.5 132.94 752.3L131.74 756.35C130.5 755.59 129.2 755.21 127.84 755.21C126.7 755.21 125.81 755.55 125.17 756.23C124.55 756.91 124.24 757.9 124.24 759.2C124.24 760.46 124.57 761.45 125.23 762.17C125.89 762.89 126.76 763.25 127.84 763.25C129.2 763.25 130.5 762.87 131.74 762.11ZM137.517 753.26C138.957 751.82 140.987 751.1 143.607 751.1C146.227 751.1 148.257 751.82 149.697 753.26C151.137 754.7 151.857 756.68 151.857 759.2C151.857 761.72 151.137 763.7 149.697 765.14C148.257 766.58 146.227 767.3 143.607 767.3C140.987 767.3 138.957 766.58 137.517 765.14C136.077 763.7 135.357 761.72 135.357 759.2C135.357 756.68 136.077 754.7 137.517 753.26ZM141.597 762.29C142.037 762.91 142.707 763.22 143.607 763.22C144.507 763.22 145.177 762.91 145.617 762.29C146.057 761.67 146.277 760.64 146.277 759.2C146.277 757.76 146.057 756.73 145.617 756.11C145.177 755.49 144.507 755.18 143.607 755.18C142.707 755.18 142.037 755.49 141.597 756.11C141.157 756.73 140.937 757.76 140.937 759.2C140.937 760.64 141.157 761.67 141.597 762.29ZM155.2 748.7V744.5H161.2V748.7H155.2ZM155.2 767V751.4H161.2V767H155.2ZM171.016 753.5C171.576 752.76 172.266 752.18 173.086 751.76C173.926 751.32 174.776 751.1 175.636 751.1C177.616 751.1 179.036 751.66 179.896 752.78C180.756 753.88 181.186 755.82 181.186 758.6V767H175.546V759.2C175.546 757.7 175.406 756.7 175.126 756.2C174.866 755.7 174.386 755.45 173.686 755.45C173.066 755.45 172.506 755.79 172.006 756.47C171.526 757.15 171.286 757.96 171.286 758.9V767H165.586V751.4H170.836L170.956 753.5H171.016ZM197.255 756.11C195.435 755.45 193.735 755.12 192.155 755.12C191.295 755.12 190.705 755.2 190.385 755.36C190.065 755.5 189.905 755.73 189.905 756.05C189.905 756.35 190.035 756.58 190.295 756.74C190.555 756.9 191.025 757.02 191.705 757.1C194.165 757.4 195.925 757.98 196.985 758.84C198.065 759.7 198.605 760.87 198.605 762.35C198.605 763.87 197.995 765.08 196.775 765.98C195.575 766.86 193.835 767.3 191.555 767.3C188.855 767.3 186.405 766.8 184.205 765.8L185.255 761.78C187.055 762.74 188.955 763.22 190.955 763.22C192.255 763.22 192.905 762.88 192.905 762.2C192.905 761.94 192.805 761.76 192.605 761.66C192.405 761.56 191.905 761.44 191.105 761.3C188.685 760.92 186.955 760.3 185.915 759.44C184.875 758.56 184.355 757.38 184.355 755.9C184.355 754.4 184.955 753.23 186.155 752.39C187.355 751.53 189.155 751.1 191.555 751.1C193.935 751.1 196.185 751.45 198.305 752.15L197.255 756.11ZM205.561 770.3H200.761L202.561 760.7H209.161L205.561 770.3ZM227.584 751.4L227.704 753.5H227.764C229.064 751.9 230.604 751.1 232.384 751.1C234.264 751.1 235.754 751.81 236.854 753.23C237.974 754.63 238.534 756.62 238.534 759.2C238.534 761.72 237.954 763.7 236.794 765.14C235.654 766.58 234.184 767.3 232.384 767.3C230.624 767.3 229.194 766.6 228.094 765.2H228.034V773.6H222.334V751.4H227.584ZM233.134 759.2C233.134 757.96 232.904 757.03 232.444 756.41C232.004 755.77 231.384 755.45 230.584 755.45C229.804 755.45 229.184 755.77 228.724 756.41C228.264 757.03 228.034 757.91 228.034 759.05V759.35C228.034 760.51 228.264 761.4 228.724 762.02C229.184 762.64 229.804 762.95 230.584 762.95C231.324 762.95 231.934 762.63 232.414 761.99C232.894 761.33 233.134 760.4 233.134 759.2ZM242.007 748.7V744.5H248.007V748.7H242.007ZM242.007 767V751.4H248.007V767H242.007ZM264.543 762.11L265.743 766.1C264.023 766.9 262.223 767.3 260.343 767.3C257.583 767.3 255.393 766.57 253.773 765.11C252.153 763.65 251.343 761.68 251.343 759.2C251.343 756.7 252.133 754.73 253.713 753.29C255.313 751.83 257.523 751.1 260.343 751.1C262.283 751.1 264.083 751.5 265.743 752.3L264.543 756.35C263.303 755.59 262.003 755.21 260.643 755.21C259.503 755.21 258.613 755.55 257.973 756.23C257.353 756.91 257.043 757.9 257.043 759.2C257.043 760.46 257.373 761.45 258.033 762.17C258.693 762.89 259.563 763.25 260.643 763.25C262.003 763.25 263.303 762.87 264.543 762.11ZM275.119 760.7H275.059V767H269.359V744.5H275.059V757.1H275.119L279.259 751.4H285.709L279.709 758.9L285.859 767H279.409L275.119 760.7ZM306.101 756.8H307.001C307.001 756.12 306.871 755.65 306.611 755.39C306.351 755.13 305.881 755 305.201 755C303.101 755 301.051 755.45 299.051 756.35L298.301 752.45C300.501 751.55 302.901 751.1 305.501 751.1C308.101 751.1 309.951 751.59 311.051 752.57C312.151 753.53 312.701 755.14 312.701 757.4V762.8C312.701 764.24 312.851 765.64 313.151 767H307.751C307.631 766.32 307.531 765.62 307.451 764.9H307.391C306.851 765.62 306.151 766.2 305.291 766.64C304.431 767.08 303.551 767.3 302.651 767.3C301.111 767.3 299.871 766.88 298.931 766.04C298.011 765.18 297.551 764 297.551 762.5C297.551 760.78 298.281 759.4 299.741 758.36C301.221 757.32 303.341 756.8 306.101 756.8ZM302.651 761.9C302.651 762.8 303.151 763.25 304.151 763.25C305.011 763.25 305.701 763.01 306.221 762.53C306.741 762.05 307.001 761.39 307.001 760.55V760.1H306.101C304.961 760.1 304.101 760.27 303.521 760.61C302.941 760.93 302.651 761.36 302.651 761.9ZM334.442 767.3C332.462 767.3 330.992 766.85 330.032 765.95C329.072 765.03 328.592 763.58 328.592 761.6V755.9H325.442V752H328.592V746.3H334.412V752H339.242V755.9H334.412V760.7C334.412 761.66 334.522 762.3 334.742 762.62C334.962 762.94 335.362 763.1 335.942 763.1C336.822 763.1 337.722 762.95 338.642 762.65L339.242 766.7C337.762 767.1 336.162 767.3 334.442 767.3ZM350.515 756.8H351.415C351.415 756.12 351.285 755.65 351.025 755.39C350.765 755.13 350.295 755 349.615 755C347.515 755 345.465 755.45 343.465 756.35L342.715 752.45C344.915 751.55 347.315 751.1 349.915 751.1C352.515 751.1 354.365 751.59 355.465 752.57C356.565 753.53 357.115 755.14 357.115 757.4V762.8C357.115 764.24 357.265 765.64 357.565 767H352.165C352.045 766.32 351.945 765.62 351.865 764.9H351.805C351.265 765.62 350.565 766.2 349.705 766.64C348.845 767.08 347.965 767.3 347.065 767.3C345.525 767.3 344.285 766.88 343.345 766.04C342.425 765.18 341.965 764 341.965 762.5C341.965 760.78 342.695 759.4 344.155 758.36C345.635 757.32 347.755 756.8 350.515 756.8ZM347.065 761.9C347.065 762.8 347.565 763.25 348.565 763.25C349.425 763.25 350.115 763.01 350.635 762.53C351.155 762.05 351.415 761.39 351.415 760.55V760.1H350.515C349.375 760.1 348.515 760.27 347.935 760.61C347.355 760.93 347.065 761.36 347.065 761.9ZM373.655 751.1V755.6C371.415 755.6 369.725 756.02 368.585 756.86C367.445 757.7 366.875 758.88 366.875 760.4V767H361.055V751.4H366.425L366.455 754.4H366.515C368.235 752.2 370.615 751.1 373.655 751.1ZM386.01 764.6H385.98C384.82 766 383.33 766.7 381.51 766.7C379.73 766.7 378.26 766.01 377.1 764.63C375.94 763.23 375.36 761.32 375.36 758.9C375.36 756.44 375.92 754.53 377.04 753.17C378.16 751.79 379.65 751.1 381.51 751.1C383.29 751.1 384.83 751.9 386.13 753.5H386.19L386.31 751.4H391.56V765.2C391.56 768.06 390.77 770.22 389.19 771.68C387.61 773.16 385.3 773.9 382.26 773.9C380.34 773.9 378.54 773.6 376.86 773L377.76 768.98C379.16 769.56 380.56 769.85 381.96 769.85C383.42 769.85 384.46 769.5 385.08 768.8C385.7 768.12 386.01 766.92 386.01 765.2V764.6ZM380.76 758.9C380.76 760.04 380.99 760.93 381.45 761.57C381.93 762.19 382.55 762.5 383.31 762.5C384.09 762.5 384.71 762.21 385.17 761.63C385.63 761.03 385.86 760.17 385.86 759.05V758.75C385.86 757.65 385.63 756.8 385.17 756.2C384.71 755.6 384.09 755.3 383.31 755.3C382.51 755.3 381.88 755.61 381.42 756.23C380.98 756.83 380.76 757.72 380.76 758.9ZM399.862 757.7H404.932C404.932 755.8 404.082 754.85 402.382 754.85C400.842 754.85 400.002 755.8 399.862 757.7ZM399.922 761C400.262 762.6 401.402 763.4 403.342 763.4C404.842 763.4 406.272 763.05 407.632 762.35L408.832 766.1C406.992 766.9 404.992 767.3 402.832 767.3C400.252 767.3 398.182 766.57 396.622 765.11C395.062 763.65 394.282 761.68 394.282 759.2C394.282 756.7 394.992 754.73 396.412 753.29C397.852 751.83 399.792 751.1 402.232 751.1C404.732 751.1 406.682 751.81 408.082 753.23C409.482 754.63 410.182 756.62 410.182 759.2C410.182 759.74 410.132 760.34 410.032 761H399.922ZM421.014 767.3C419.034 767.3 417.564 766.85 416.604 765.95C415.644 765.03 415.164 763.58 415.164 761.6V755.9H412.014V752H415.164V746.3H420.984V752H425.814V755.9H420.984V760.7C420.984 761.66 421.094 762.3 421.314 762.62C421.534 762.94 421.934 763.1 422.514 763.1C423.394 763.1 424.294 762.95 425.214 762.65L425.814 766.7C424.334 767.1 422.734 767.3 421.014 767.3ZM429.887 767V760.7H436.487V767H429.887ZM451.011 767V745.1H457.611V767H451.011ZM471.433 744.8C472.713 744.8 474.063 744.95 475.483 745.25L474.733 749.45C474.013 749.15 473.263 749 472.483 749C471.783 749 471.303 749.17 471.043 749.51C470.783 749.83 470.653 750.46 470.653 751.4V752H475.183V755.9H470.653V767H464.833V755.9H461.383V752H464.833V751.4C464.833 749.26 465.403 747.63 466.543 746.51C467.683 745.37 469.313 744.8 471.433 744.8ZM496.472 756.8H497.372C497.372 756.12 497.242 755.65 496.982 755.39C496.722 755.13 496.252 755 495.572 755C493.472 755 491.422 755.45 489.422 756.35L488.672 752.45C490.872 751.55 493.272 751.1 495.872 751.1C498.472 751.1 500.322 751.59 501.422 752.57C502.522 753.53 503.072 755.14 503.072 757.4V762.8C503.072 764.24 503.222 765.64 503.522 767H498.122C498.002 766.32 497.902 765.62 497.822 764.9H497.762C497.222 765.62 496.522 766.2 495.662 766.64C494.802 767.08 493.922 767.3 493.022 767.3C491.482 767.3 490.242 766.88 489.302 766.04C488.382 765.18 487.922 764 487.922 762.5C487.922 760.78 488.652 759.4 490.112 758.36C491.592 757.32 493.712 756.8 496.472 756.8ZM493.022 761.9C493.022 762.8 493.522 763.25 494.522 763.25C495.382 763.25 496.072 763.01 496.592 762.53C497.112 762.05 497.372 761.39 497.372 760.55V760.1H496.472C495.332 760.1 494.472 760.27 493.892 760.61C493.312 760.93 493.022 761.36 493.022 761.9ZM512.442 753.5C513.002 752.76 513.692 752.18 514.512 751.76C515.352 751.32 516.202 751.1 517.062 751.1C519.042 751.1 520.462 751.66 521.322 752.78C522.182 753.88 522.612 755.82 522.612 758.6V767H516.972V759.2C516.972 757.7 516.832 756.7 516.552 756.2C516.292 755.7 515.812 755.45 515.112 755.45C514.492 755.45 513.932 755.79 513.432 756.47C512.952 757.15 512.712 757.96 512.712 758.9V767H507.012V751.4H512.262L512.382 753.5H512.442ZM527.341 753.26C528.781 751.82 530.811 751.1 533.431 751.1C536.051 751.1 538.081 751.82 539.521 753.26C540.961 754.7 541.681 756.68 541.681 759.2C541.681 761.72 540.961 763.7 539.521 765.14C538.081 766.58 536.051 767.3 533.431 767.3C530.811 767.3 528.781 766.58 527.341 765.14C525.901 763.7 525.181 761.72 525.181 759.2C525.181 756.68 525.901 754.7 527.341 753.26ZM531.421 762.29C531.861 762.91 532.531 763.22 533.431 763.22C534.331 763.22 535.001 762.91 535.441 762.29C535.881 761.67 536.101 760.64 536.101 759.2C536.101 757.76 535.881 756.73 535.441 756.11C535.001 755.49 534.331 755.18 533.431 755.18C532.531 755.18 531.861 755.49 531.421 756.11C530.981 756.73 530.761 757.76 530.761 759.2C530.761 760.64 530.981 761.67 531.421 762.29ZM552.381 767.3C550.401 767.3 548.931 766.85 547.971 765.95C547.011 765.03 546.531 763.58 546.531 761.6V755.9H543.381V752H546.531V746.3H552.351V752H557.181V755.9H552.351V760.7C552.351 761.66 552.461 762.3 552.681 762.62C552.901 762.94 553.301 763.1 553.881 763.1C554.761 763.1 555.661 762.95 556.581 762.65L557.181 766.7C555.701 767.1 554.101 767.3 552.381 767.3ZM576.698 758.6V767H571.058V759.2C571.058 757.7 570.918 756.7 570.638 756.2C570.378 755.7 569.898 755.45 569.198 755.45C568.578 755.45 568.018 755.79 567.518 756.47C567.038 757.15 566.798 757.96 566.798 758.9V767H561.098V744.5H566.798V753.2H566.858C567.358 752.56 567.998 752.05 568.778 751.67C569.558 751.29 570.348 751.1 571.148 751.1C573.128 751.1 574.548 751.66 575.408 752.78C576.268 753.88 576.698 755.82 576.698 758.6ZM584.872 757.7H589.942C589.942 755.8 589.092 754.85 587.392 754.85C585.852 754.85 585.012 755.8 584.872 757.7ZM584.932 761C585.272 762.6 586.412 763.4 588.352 763.4C589.852 763.4 591.282 763.05 592.642 762.35L593.842 766.1C592.002 766.9 590.002 767.3 587.842 767.3C585.262 767.3 583.192 766.57 581.632 765.11C580.072 763.65 579.292 761.68 579.292 759.2C579.292 756.7 580.002 754.73 581.422 753.29C582.862 751.83 584.802 751.1 587.242 751.1C589.742 751.1 591.692 751.81 593.092 753.23C594.492 754.63 595.192 756.62 595.192 759.2C595.192 759.74 595.142 760.34 595.042 761H584.932ZM610.667 751.1V755.6C608.427 755.6 606.737 756.02 605.597 756.86C604.457 757.7 603.887 758.88 603.887 760.4V767H598.067V751.4H603.437L603.467 754.4H603.527C605.247 752.2 607.627 751.1 610.667 751.1ZM42.5013 794.4L42.6213 796.5H42.6813C43.9813 794.9 45.5213 794.1 47.3013 794.1C49.1813 794.1 50.6713 794.81 51.7713 796.23C52.8913 797.63 53.4513 799.62 53.4513 802.2C53.4513 804.72 52.8713 806.7 51.7113 808.14C50.5713 809.58 49.1013 810.3 47.3013 810.3C45.5413 810.3 44.1113 809.6 43.0113 808.2H42.9513V816.6H37.2513V794.4H42.5013ZM48.0513 802.2C48.0513 800.96 47.8213 800.03 47.3613 799.41C46.9213 798.77 46.3013 798.45 45.5013 798.45C44.7213 798.45 44.1013 798.77 43.6413 799.41C43.1813 800.03 42.9513 800.91 42.9513 802.05V802.35C42.9513 803.51 43.1813 804.4 43.6413 805.02C44.1013 805.64 44.7213 805.95 45.5013 805.95C46.2413 805.95 46.8513 805.63 47.3313 804.99C47.8113 804.33 48.0513 803.4 48.0513 802.2ZM56.9236 810V787.5H62.9236V810H56.9236ZM75.1099 799.8H76.0099C76.0099 799.12 75.8799 798.65 75.6199 798.39C75.3599 798.13 74.8899 798 74.2099 798C72.1099 798 70.0599 798.45 68.0599 799.35L67.3099 795.45C69.5099 794.55 71.9099 794.1 74.5099 794.1C77.1099 794.1 78.9599 794.59 80.0599 795.57C81.1599 796.53 81.7099 798.14 81.7099 800.4V805.8C81.7099 807.24 81.8599 808.64 82.1599 810H76.7599C76.6399 809.32 76.5399 808.62 76.4599 807.9H76.3999C75.8599 808.62 75.1599 809.2 74.2999 809.64C73.4399 810.08 72.5599 810.3 71.6599 810.3C70.1199 810.3 68.8799 809.88 67.9399 809.04C67.0199 808.18 66.5599 807 66.5599 805.5C66.5599 803.78 67.2899 802.4 68.7499 801.36C70.2299 800.32 72.3499 799.8 75.1099 799.8ZM71.6599 804.9C71.6599 805.8 72.1599 806.25 73.1599 806.25C74.0199 806.25 74.7099 806.01 75.2299 805.53C75.7499 805.05 76.0099 804.39 76.0099 803.55V803.1H75.1099C73.9699 803.1 73.1099 803.27 72.5299 803.61C71.9499 803.93 71.6599 804.36 71.6599 804.9ZM92.0616 804.9H92.1216L94.9416 794.4H100.942L92.8416 816.6H86.8416L89.5416 810L83.5416 794.4H89.8416L92.0616 804.9ZM107.289 800.7H112.359C112.359 798.8 111.509 797.85 109.809 797.85C108.269 797.85 107.429 798.8 107.289 800.7ZM107.349 804C107.689 805.6 108.829 806.4 110.769 806.4C112.269 806.4 113.699 806.05 115.059 805.35L116.259 809.1C114.419 809.9 112.419 810.3 110.259 810.3C107.679 810.3 105.609 809.57 104.049 808.11C102.489 806.65 101.709 804.68 101.709 802.2C101.709 799.7 102.419 797.73 103.839 796.29C105.279 794.83 107.219 794.1 109.659 794.1C112.159 794.1 114.109 794.81 115.509 796.23C116.909 797.63 117.609 799.62 117.609 802.2C117.609 802.74 117.559 803.34 117.459 804H107.349ZM133.084 794.1V798.6C130.844 798.6 129.154 799.02 128.014 799.86C126.874 800.7 126.304 801.88 126.304 803.4V810H120.484V794.4H125.854L125.884 797.4H125.944C127.664 795.2 130.044 794.1 133.084 794.1ZM153.626 799.8H154.526C154.526 799.12 154.396 798.65 154.136 798.39C153.876 798.13 153.406 798 152.726 798C150.626 798 148.576 798.45 146.576 799.35L145.826 795.45C148.026 794.55 150.426 794.1 153.026 794.1C155.626 794.1 157.476 794.59 158.576 795.57C159.676 796.53 160.226 798.14 160.226 800.4V805.8C160.226 807.24 160.376 808.64 160.676 810H155.276C155.156 809.32 155.056 808.62 154.976 807.9H154.916C154.376 808.62 153.676 809.2 152.816 809.64C151.956 810.08 151.076 810.3 150.176 810.3C148.636 810.3 147.396 809.88 146.456 809.04C145.536 808.18 145.076 807 145.076 805.5C145.076 803.78 145.806 802.4 147.266 801.36C148.746 800.32 150.866 799.8 153.626 799.8ZM150.176 804.9C150.176 805.8 150.676 806.25 151.676 806.25C152.536 806.25 153.226 806.01 153.746 805.53C154.266 805.05 154.526 804.39 154.526 803.55V803.1H153.626C152.486 803.1 151.626 803.27 151.046 803.61C150.466 803.93 150.176 804.36 150.176 804.9ZM164.765 810V787.5H170.765V810H164.765ZM187.602 799.11C185.782 798.45 184.082 798.12 182.502 798.12C181.642 798.12 181.052 798.2 180.732 798.36C180.412 798.5 180.252 798.73 180.252 799.05C180.252 799.35 180.382 799.58 180.642 799.74C180.902 799.9 181.372 800.02 182.052 800.1C184.512 800.4 186.272 800.98 187.332 801.84C188.412 802.7 188.952 803.87 188.952 805.35C188.952 806.87 188.342 808.08 187.122 808.98C185.922 809.86 184.182 810.3 181.902 810.3C179.202 810.3 176.752 809.8 174.552 808.8L175.602 804.78C177.402 805.74 179.302 806.22 181.302 806.22C182.602 806.22 183.252 805.88 183.252 805.2C183.252 804.94 183.152 804.76 182.952 804.66C182.752 804.56 182.252 804.44 181.452 804.3C179.032 803.92 177.302 803.3 176.262 802.44C175.222 801.56 174.702 800.38 174.702 798.9C174.702 797.4 175.302 796.23 176.502 795.39C177.702 794.53 179.502 794.1 181.902 794.1C184.282 794.1 186.532 794.45 188.652 795.15L187.602 799.11ZM193.254 796.26C194.694 794.82 196.724 794.1 199.344 794.1C201.964 794.1 203.994 794.82 205.434 796.26C206.874 797.7 207.594 799.68 207.594 802.2C207.594 804.72 206.874 806.7 205.434 808.14C203.994 809.58 201.964 810.3 199.344 810.3C196.724 810.3 194.694 809.58 193.254 808.14C191.814 806.7 191.094 804.72 191.094 802.2C191.094 799.68 191.814 797.7 193.254 796.26ZM197.334 805.29C197.774 805.91 198.444 806.22 199.344 806.22C200.244 806.22 200.914 805.91 201.354 805.29C201.794 804.67 202.014 803.64 202.014 802.2C202.014 800.76 201.794 799.73 201.354 799.11C200.914 798.49 200.244 798.18 199.344 798.18C198.444 798.18 197.774 798.49 197.334 799.11C196.894 799.73 196.674 800.76 196.674 802.2C196.674 803.64 196.894 804.67 197.334 805.29ZM225.138 794.4L225.258 796.5H225.318C226.618 794.9 228.158 794.1 229.938 794.1C231.818 794.1 233.308 794.81 234.408 796.23C235.528 797.63 236.088 799.62 236.088 802.2C236.088 804.72 235.508 806.7 234.348 808.14C233.208 809.58 231.738 810.3 229.938 810.3C228.178 810.3 226.748 809.6 225.648 808.2H225.588V816.6H219.888V794.4H225.138ZM230.688 802.2C230.688 800.96 230.458 800.03 229.998 799.41C229.558 798.77 228.938 798.45 228.138 798.45C227.358 798.45 226.738 798.77 226.278 799.41C225.818 800.03 225.588 800.91 225.588 802.05V802.35C225.588 803.51 225.818 804.4 226.278 805.02C226.738 805.64 227.358 805.95 228.138 805.95C228.878 805.95 229.488 805.63 229.968 804.99C230.448 804.33 230.688 803.4 230.688 802.2ZM246.76 799.8H247.66C247.66 799.12 247.53 798.65 247.27 798.39C247.01 798.13 246.54 798 245.86 798C243.76 798 241.71 798.45 239.71 799.35L238.96 795.45C241.16 794.55 243.56 794.1 246.16 794.1C248.76 794.1 250.61 794.59 251.71 795.57C252.81 796.53 253.36 798.14 253.36 800.4V805.8C253.36 807.24 253.51 808.64 253.81 810H248.41C248.29 809.32 248.19 808.62 248.11 807.9H248.05C247.51 808.62 246.81 809.2 245.95 809.64C245.09 810.08 244.21 810.3 243.31 810.3C241.77 810.3 240.53 809.88 239.59 809.04C238.67 808.18 238.21 807 238.21 805.5C238.21 803.78 238.94 802.4 240.4 801.36C241.88 800.32 244 799.8 246.76 799.8ZM243.31 804.9C243.31 805.8 243.81 806.25 244.81 806.25C245.67 806.25 246.36 806.01 246.88 805.53C247.4 805.05 247.66 804.39 247.66 803.55V803.1H246.76C245.62 803.1 244.76 803.27 244.18 803.61C243.6 803.93 243.31 804.36 243.31 804.9ZM263.712 804.9H263.772L266.592 794.4H272.592L264.492 816.6H258.492L261.192 810L255.192 794.4H261.492L263.712 804.9ZM286.86 799.11C285.04 798.45 283.34 798.12 281.76 798.12C280.9 798.12 280.31 798.2 279.99 798.36C279.67 798.5 279.51 798.73 279.51 799.05C279.51 799.35 279.64 799.58 279.9 799.74C280.16 799.9 280.63 800.02 281.31 800.1C283.77 800.4 285.53 800.98 286.59 801.84C287.67 802.7 288.21 803.87 288.21 805.35C288.21 806.87 287.6 808.08 286.38 808.98C285.18 809.86 283.44 810.3 281.16 810.3C278.46 810.3 276.01 809.8 273.81 808.8L274.86 804.78C276.66 805.74 278.56 806.22 280.56 806.22C281.86 806.22 282.51 805.88 282.51 805.2C282.51 804.94 282.41 804.76 282.21 804.66C282.01 804.56 281.51 804.44 280.71 804.3C278.29 803.92 276.56 803.3 275.52 802.44C274.48 801.56 273.96 800.38 273.96 798.9C273.96 797.4 274.56 796.23 275.76 795.39C276.96 794.53 278.76 794.1 281.16 794.1C283.54 794.1 285.79 794.45 287.91 795.15L286.86 799.11ZM301.313 805.2C303.993 803.18 306.003 801.56 307.343 800.34C308.683 799.1 309.563 798.11 309.983 797.37C310.403 796.63 310.613 795.84 310.613 795C310.613 793.5 309.763 792.75 308.063 792.75C306.563 792.75 304.613 793.5 302.213 795L300.713 790.2C301.733 789.52 303.023 788.95 304.583 788.49C306.143 788.03 307.603 787.8 308.963 787.8C311.463 787.8 313.383 788.39 314.723 789.57C316.083 790.73 316.763 792.34 316.763 794.4C316.763 796.04 316.243 797.6 315.203 799.08C314.163 800.56 312.133 802.58 309.113 805.14V805.2H316.913V810H301.313V805.2ZM342.458 805.11L343.658 809.1C341.938 809.9 340.138 810.3 338.258 810.3C335.498 810.3 333.308 809.57 331.688 808.11C330.068 806.65 329.258 804.68 329.258 802.2C329.258 799.7 330.048 797.73 331.628 796.29C333.228 794.83 335.438 794.1 338.258 794.1C340.198 794.1 341.998 794.5 343.658 795.3L342.458 799.35C341.218 798.59 339.918 798.21 338.558 798.21C337.418 798.21 336.528 798.55 335.888 799.23C335.268 799.91 334.958 800.9 334.958 802.2C334.958 803.46 335.288 804.45 335.948 805.17C336.608 805.89 337.478 806.25 338.558 806.25C339.918 806.25 341.218 805.87 342.458 805.11ZM348.234 796.26C349.674 794.82 351.704 794.1 354.324 794.1C356.944 794.1 358.974 794.82 360.414 796.26C361.854 797.7 362.574 799.68 362.574 802.2C362.574 804.72 361.854 806.7 360.414 808.14C358.974 809.58 356.944 810.3 354.324 810.3C351.704 810.3 349.674 809.58 348.234 808.14C346.794 806.7 346.074 804.72 346.074 802.2C346.074 799.68 346.794 797.7 348.234 796.26ZM352.314 805.29C352.754 805.91 353.424 806.22 354.324 806.22C355.224 806.22 355.894 805.91 356.334 805.29C356.774 804.67 356.994 803.64 356.994 802.2C356.994 800.76 356.774 799.73 356.334 799.11C355.894 798.49 355.224 798.18 354.324 798.18C353.424 798.18 352.754 798.49 352.314 799.11C351.874 799.73 351.654 800.76 351.654 802.2C351.654 803.64 351.874 804.67 352.314 805.29ZM365.918 791.7V787.5H371.918V791.7H365.918ZM365.918 810V794.4H371.918V810H365.918ZM381.734 796.5C382.294 795.76 382.984 795.18 383.804 794.76C384.644 794.32 385.494 794.1 386.354 794.1C388.334 794.1 389.754 794.66 390.614 795.78C391.474 796.88 391.904 798.82 391.904 801.6V810H386.264V802.2C386.264 800.7 386.124 799.7 385.844 799.2C385.584 798.7 385.104 798.45 384.404 798.45C383.784 798.45 383.224 798.79 382.724 799.47C382.244 800.15 382.004 800.96 382.004 801.9V810H376.304V794.4H381.554L381.674 796.5H381.734ZM407.973 799.11C406.153 798.45 404.453 798.12 402.873 798.12C402.013 798.12 401.423 798.2 401.103 798.36C400.783 798.5 400.623 798.73 400.623 799.05C400.623 799.35 400.753 799.58 401.013 799.74C401.273 799.9 401.743 800.02 402.423 800.1C404.883 800.4 406.643 800.98 407.703 801.84C408.783 802.7 409.323 803.87 409.323 805.35C409.323 806.87 408.713 808.08 407.493 808.98C406.293 809.86 404.553 810.3 402.273 810.3C399.573 810.3 397.123 809.8 394.923 808.8L395.973 804.78C397.773 805.74 399.673 806.22 401.673 806.22C402.973 806.22 403.623 805.88 403.623 805.2C403.623 804.94 403.523 804.76 403.323 804.66C403.123 804.56 402.623 804.44 401.823 804.3C399.403 803.92 397.673 803.3 396.633 802.44C395.593 801.56 395.073 800.38 395.073 798.9C395.073 797.4 395.673 796.23 396.873 795.39C398.073 794.53 399.873 794.1 402.273 794.1C404.653 794.1 406.903 794.45 409.023 795.15L407.973 799.11ZM416.279 813.3H411.479L413.279 803.7H419.879L416.279 813.3ZM445.502 799.11C443.682 798.45 441.982 798.12 440.402 798.12C439.542 798.12 438.952 798.2 438.632 798.36C438.312 798.5 438.152 798.73 438.152 799.05C438.152 799.35 438.282 799.58 438.542 799.74C438.802 799.9 439.272 800.02 439.952 800.1C442.412 800.4 444.172 800.98 445.232 801.84C446.312 802.7 446.852 803.87 446.852 805.35C446.852 806.87 446.242 808.08 445.022 808.98C443.822 809.86 442.082 810.3 439.802 810.3C437.102 810.3 434.652 809.8 432.452 808.8L433.502 804.78C435.302 805.74 437.202 806.22 439.202 806.22C440.502 806.22 441.152 805.88 441.152 805.2C441.152 804.94 441.052 804.76 440.852 804.66C440.652 804.56 440.152 804.44 439.352 804.3C436.932 803.92 435.202 803.3 434.162 802.44C433.122 801.56 432.602 800.38 432.602 798.9C432.602 797.4 433.202 796.23 434.402 795.39C435.602 794.53 437.402 794.1 439.802 794.1C442.182 794.1 444.432 794.45 446.552 795.15L445.502 799.11ZM457.844 799.8H458.744C458.744 799.12 458.614 798.65 458.354 798.39C458.094 798.13 457.624 798 456.944 798C454.844 798 452.794 798.45 450.794 799.35L450.044 795.45C452.244 794.55 454.644 794.1 457.244 794.1C459.844 794.1 461.694 794.59 462.794 795.57C463.894 796.53 464.444 798.14 464.444 800.4V805.8C464.444 807.24 464.594 808.64 464.894 810H459.494C459.374 809.32 459.274 808.62 459.194 807.9H459.134C458.594 808.62 457.894 809.2 457.034 809.64C456.174 810.08 455.294 810.3 454.394 810.3C452.854 810.3 451.614 809.88 450.674 809.04C449.754 808.18 449.294 807 449.294 805.5C449.294 803.78 450.024 802.4 451.484 801.36C452.964 800.32 455.084 799.8 457.844 799.8ZM454.394 804.9C454.394 805.8 454.894 806.25 455.894 806.25C456.754 806.25 457.444 806.01 457.964 805.53C458.484 805.05 458.744 804.39 458.744 803.55V803.1H457.844C456.704 803.1 455.844 803.27 455.264 803.61C454.684 803.93 454.394 804.36 454.394 804.9ZM468.984 791.7V787.5H474.984V791.7H468.984ZM468.984 810V794.4H474.984V810H468.984ZM478.47 802.2C478.47 799.62 479.02 797.63 480.12 796.23C481.24 794.81 482.74 794.1 484.62 794.1C486.32 794.1 487.75 794.8 488.91 796.2H488.97V787.5H494.67V810H489.42L489.3 807.9H489.24C487.98 809.5 486.44 810.3 484.62 810.3C482.82 810.3 481.34 809.58 480.18 808.14C479.04 806.7 478.47 804.72 478.47 802.2ZM483.87 802.2C483.87 803.4 484.11 804.33 484.59 804.99C485.07 805.63 485.68 805.95 486.42 805.95C487.2 805.95 487.82 805.64 488.28 805.02C488.74 804.4 488.97 803.51 488.97 802.35V802.05C488.97 800.91 488.74 800.03 488.28 799.41C487.82 798.77 487.2 798.45 486.42 798.45C485.62 798.45 484.99 798.77 484.53 799.41C484.09 800.03 483.87 800.96 483.87 802.2ZM516.39 810.3C514.41 810.3 512.94 809.85 511.98 808.95C511.02 808.03 510.54 806.58 510.54 804.6V798.9H507.39V795H510.54V789.3H516.36V795H521.19V798.9H516.36V803.7C516.36 804.66 516.47 805.3 516.69 805.62C516.91 805.94 517.31 806.1 517.89 806.1C518.77 806.1 519.67 805.95 520.59 805.65L521.19 809.7C519.71 810.1 518.11 810.3 516.39 810.3ZM532.463 799.8H533.363C533.363 799.12 533.233 798.65 532.973 798.39C532.713 798.13 532.243 798 531.563 798C529.463 798 527.413 798.45 525.413 799.35L524.663 795.45C526.863 794.55 529.263 794.1 531.863 794.1C534.463 794.1 536.313 794.59 537.413 795.57C538.513 796.53 539.063 798.14 539.063 800.4V805.8C539.063 807.24 539.213 808.64 539.513 810H534.113C533.993 809.32 533.893 808.62 533.813 807.9H533.753C533.213 808.62 532.513 809.2 531.653 809.64C530.793 810.08 529.913 810.3 529.013 810.3C527.473 810.3 526.233 809.88 525.293 809.04C524.373 808.18 523.913 807 523.913 805.5C523.913 803.78 524.643 802.4 526.103 801.36C527.583 800.32 529.703 799.8 532.463 799.8ZM529.013 804.9C529.013 805.8 529.513 806.25 530.513 806.25C531.373 806.25 532.063 806.01 532.583 805.53C533.103 805.05 533.363 804.39 533.363 803.55V803.1H532.463C531.323 803.1 530.463 803.27 529.883 803.61C529.303 803.93 529.013 804.36 529.013 804.9ZM555.603 794.1V798.6C553.363 798.6 551.673 799.02 550.533 799.86C549.393 800.7 548.823 801.88 548.823 803.4V810H543.003V794.4H548.373L548.403 797.4H548.463C550.183 795.2 552.563 794.1 555.603 794.1ZM567.958 807.6H567.928C566.768 809 565.278 809.7 563.458 809.7C561.678 809.7 560.208 809.01 559.048 807.63C557.888 806.23 557.308 804.32 557.308 801.9C557.308 799.44 557.868 797.53 558.988 796.17C560.108 794.79 561.598 794.1 563.458 794.1C565.238 794.1 566.778 794.9 568.078 796.5H568.138L568.258 794.4H573.508V808.2C573.508 811.06 572.718 813.22 571.138 814.68C569.558 816.16 567.248 816.9 564.208 816.9C562.288 816.9 560.488 816.6 558.808 816L559.708 811.98C561.108 812.56 562.508 812.85 563.908 812.85C565.368 812.85 566.408 812.5 567.028 811.8C567.648 811.12 567.958 809.92 567.958 808.2V807.6ZM562.708 801.9C562.708 803.04 562.938 803.93 563.398 804.57C563.878 805.19 564.498 805.5 565.258 805.5C566.038 805.5 566.658 805.21 567.118 804.63C567.578 804.03 567.808 803.17 567.808 802.05V801.75C567.808 800.65 567.578 799.8 567.118 799.2C566.658 798.6 566.038 798.3 565.258 798.3C564.458 798.3 563.828 798.61 563.368 799.23C562.928 799.83 562.708 800.72 562.708 801.9ZM581.811 800.7H586.881C586.881 798.8 586.031 797.85 584.331 797.85C582.791 797.85 581.951 798.8 581.811 800.7ZM581.871 804C582.211 805.6 583.351 806.4 585.291 806.4C586.791 806.4 588.221 806.05 589.581 805.35L590.781 809.1C588.941 809.9 586.941 810.3 584.781 810.3C582.201 810.3 580.131 809.57 578.571 808.11C577.011 806.65 576.231 804.68 576.231 802.2C576.231 799.7 576.941 797.73 578.361 796.29C579.801 794.83 581.741 794.1 584.181 794.1C586.681 794.1 588.631 794.81 590.031 796.23C591.431 797.63 592.131 799.62 592.131 802.2C592.131 802.74 592.081 803.34 591.981 804H581.871ZM602.962 810.3C600.982 810.3 599.512 809.85 598.552 808.95C597.592 808.03 597.112 806.58 597.112 804.6V798.9H593.962V795H597.112V789.3H602.932V795H607.762V798.9H602.932V803.7C602.932 804.66 603.042 805.3 603.262 805.62C603.482 805.94 603.882 806.1 604.462 806.1C605.342 806.1 606.242 805.95 607.162 805.65L607.762 809.7C606.282 810.1 604.682 810.3 602.962 810.3ZM169.233 853V830.5H175.233V853H169.233ZM180.729 839.26C182.169 837.82 184.199 837.1 186.819 837.1C189.439 837.1 191.469 837.82 192.909 839.26C194.349 840.7 195.069 842.68 195.069 845.2C195.069 847.72 194.349 849.7 192.909 851.14C191.469 852.58 189.439 853.3 186.819 853.3C184.199 853.3 182.169 852.58 180.729 851.14C179.289 849.7 178.569 847.72 178.569 845.2C178.569 842.68 179.289 840.7 180.729 839.26ZM184.809 848.29C185.249 848.91 185.919 849.22 186.819 849.22C187.719 849.22 188.389 848.91 188.829 848.29C189.269 847.67 189.489 846.64 189.489 845.2C189.489 843.76 189.269 842.73 188.829 842.11C188.389 841.49 187.719 841.18 186.819 841.18C185.919 841.18 185.249 841.49 184.809 842.11C184.369 842.73 184.149 843.76 184.149 845.2C184.149 846.64 184.369 847.67 184.809 848.29ZM199.216 839.26C200.656 837.82 202.686 837.1 205.306 837.1C207.926 837.1 209.956 837.82 211.396 839.26C212.836 840.7 213.556 842.68 213.556 845.2C213.556 847.72 212.836 849.7 211.396 851.14C209.956 852.58 207.926 853.3 205.306 853.3C202.686 853.3 200.656 852.58 199.216 851.14C197.776 849.7 197.056 847.72 197.056 845.2C197.056 842.68 197.776 840.7 199.216 839.26ZM203.296 848.29C203.736 848.91 204.406 849.22 205.306 849.22C206.206 849.22 206.876 848.91 207.316 848.29C207.756 847.67 207.976 846.64 207.976 845.2C207.976 843.76 207.756 842.73 207.316 842.11C206.876 841.49 206.206 841.18 205.306 841.18C204.406 841.18 203.736 841.49 203.296 842.11C202.856 842.73 202.636 843.76 202.636 845.2C202.636 846.64 202.856 847.67 203.296 848.29ZM228.749 842.11C226.929 841.45 225.229 841.12 223.649 841.12C222.789 841.12 222.199 841.2 221.879 841.36C221.559 841.5 221.399 841.73 221.399 842.05C221.399 842.35 221.529 842.58 221.789 842.74C222.049 842.9 222.519 843.02 223.199 843.1C225.659 843.4 227.419 843.98 228.479 844.84C229.559 845.7 230.099 846.87 230.099 848.35C230.099 849.87 229.489 851.08 228.269 851.98C227.069 852.86 225.329 853.3 223.049 853.3C220.349 853.3 217.899 852.8 215.699 851.8L216.749 847.78C218.549 848.74 220.449 849.22 222.449 849.22C223.749 849.22 224.399 848.88 224.399 848.2C224.399 847.94 224.299 847.76 224.099 847.66C223.899 847.56 223.399 847.44 222.599 847.3C220.179 846.92 218.449 846.3 217.409 845.44C216.369 844.56 215.849 843.38 215.849 841.9C215.849 840.4 216.449 839.23 217.649 838.39C218.849 837.53 220.649 837.1 223.049 837.1C225.429 837.1 227.679 837.45 229.799 838.15L228.749 842.11ZM237.821 843.7H242.891C242.891 841.8 242.041 840.85 240.341 840.85C238.801 840.85 237.961 841.8 237.821 843.7ZM237.881 847C238.221 848.6 239.361 849.4 241.301 849.4C242.801 849.4 244.231 849.05 245.591 848.35L246.791 852.1C244.951 852.9 242.951 853.3 240.791 853.3C238.211 853.3 236.141 852.57 234.581 851.11C233.021 849.65 232.241 847.68 232.241 845.2C232.241 842.7 232.951 840.73 234.371 839.29C235.811 837.83 237.751 837.1 240.191 837.1C242.691 837.1 244.641 837.81 246.041 839.23C247.441 840.63 248.141 842.62 248.141 845.2C248.141 845.74 248.091 846.34 247.991 847H237.881ZM263.466 842.11C261.646 841.45 259.946 841.12 258.366 841.12C257.506 841.12 256.916 841.2 256.596 841.36C256.276 841.5 256.116 841.73 256.116 842.05C256.116 842.35 256.246 842.58 256.506 842.74C256.766 842.9 257.236 843.02 257.916 843.1C260.376 843.4 262.136 843.98 263.196 844.84C264.276 845.7 264.816 846.87 264.816 848.35C264.816 849.87 264.206 851.08 262.986 851.98C261.786 852.86 260.046 853.3 257.766 853.3C255.066 853.3 252.616 852.8 250.416 851.8L251.466 847.78C253.266 848.74 255.166 849.22 257.166 849.22C258.466 849.22 259.116 848.88 259.116 848.2C259.116 847.94 259.016 847.76 258.816 847.66C258.616 847.56 258.116 847.44 257.316 847.3C254.896 846.92 253.166 846.3 252.126 845.44C251.086 844.56 250.566 843.38 250.566 841.9C250.566 840.4 251.166 839.23 252.366 838.39C253.566 837.53 255.366 837.1 257.766 837.1C260.146 837.1 262.396 837.45 264.516 838.15L263.466 842.11ZM285.359 842.8H286.259C286.259 842.12 286.129 841.65 285.869 841.39C285.609 841.13 285.139 841 284.459 841C282.359 841 280.309 841.45 278.309 842.35L277.559 838.45C279.759 837.55 282.159 837.1 284.759 837.1C287.359 837.1 289.209 837.59 290.309 838.57C291.409 839.53 291.959 841.14 291.959 843.4V848.8C291.959 850.24 292.109 851.64 292.409 853H287.009C286.889 852.32 286.789 851.62 286.709 850.9H286.649C286.109 851.62 285.409 852.2 284.549 852.64C283.689 853.08 282.809 853.3 281.909 853.3C280.369 853.3 279.129 852.88 278.189 852.04C277.269 851.18 276.809 850 276.809 848.5C276.809 846.78 277.539 845.4 278.999 844.36C280.479 843.32 282.599 842.8 285.359 842.8ZM281.909 847.9C281.909 848.8 282.409 849.25 283.409 849.25C284.269 849.25 284.959 849.01 285.479 848.53C285.999 848.05 286.259 847.39 286.259 846.55V846.1H285.359C284.219 846.1 283.359 846.27 282.779 846.61C282.199 846.93 281.909 847.36 281.909 847.9ZM301.329 839.5C301.889 838.76 302.579 838.18 303.399 837.76C304.239 837.32 305.089 837.1 305.949 837.1C307.929 837.1 309.349 837.66 310.209 838.78C311.069 839.88 311.499 841.82 311.499 844.6V853H305.859V845.2C305.859 843.7 305.719 842.7 305.439 842.2C305.179 841.7 304.699 841.45 303.999 841.45C303.379 841.45 302.819 841.79 302.319 842.47C301.839 843.15 301.599 843.96 301.599 844.9V853H295.899V837.4H301.149L301.269 839.5H301.329ZM325.268 834.7V830.5H331.268V834.7H325.268ZM325.268 853V837.4H331.268V853H325.268ZM341.085 839.5C341.645 838.76 342.335 838.18 343.155 837.76C343.995 837.32 344.845 837.1 345.705 837.1C347.685 837.1 349.105 837.66 349.965 838.78C350.825 839.88 351.255 841.82 351.255 844.6V853H345.615V845.2C345.615 843.7 345.475 842.7 345.195 842.2C344.935 841.7 344.455 841.45 343.755 841.45C343.135 841.45 342.575 841.79 342.075 842.47C341.595 843.15 341.355 843.96 341.355 844.9V853H335.655V837.4H340.905L341.025 839.5H341.085ZM368.523 835.3C367.463 835.1 366.563 835 365.823 835C364.683 835 363.913 835.17 363.513 835.51C363.133 835.83 362.943 836.46 362.943 837.4V838H367.323V841.9H362.943V853H357.123V841.9H354.273V838H357.123V837.4C357.123 835.4 357.883 833.8 359.403 832.6C360.943 831.4 363.083 830.8 365.823 830.8C369.263 830.8 372.163 831.2 374.523 832V853H368.523V835.3ZM388.177 850.9C387.617 851.64 386.917 852.23 386.077 852.67C385.257 853.09 384.417 853.3 383.557 853.3C381.677 853.3 380.327 852.81 379.507 851.83C378.707 850.85 378.307 849.14 378.307 846.7V837.4H383.947V846.1C383.947 847.26 384.057 848.03 384.277 848.41C384.497 848.77 384.907 848.95 385.507 848.95C386.127 848.95 386.677 848.61 387.157 847.93C387.657 847.25 387.907 846.44 387.907 845.5V837.4H393.607V853H388.357L388.237 850.9H388.177ZM401.913 843.7H406.983C406.983 841.8 406.133 840.85 404.433 840.85C402.893 840.85 402.053 841.8 401.913 843.7ZM401.973 847C402.313 848.6 403.453 849.4 405.393 849.4C406.893 849.4 408.323 849.05 409.683 848.35L410.883 852.1C409.043 852.9 407.043 853.3 404.883 853.3C402.303 853.3 400.233 852.57 398.673 851.11C397.113 849.65 396.333 847.68 396.333 845.2C396.333 842.7 397.043 840.73 398.463 839.29C399.903 837.83 401.843 837.1 404.283 837.1C406.783 837.1 408.733 837.81 410.133 839.23C411.533 840.63 412.233 842.62 412.233 845.2C412.233 845.74 412.183 846.34 412.083 847H401.973ZM420.538 839.5C421.098 838.76 421.788 838.18 422.608 837.76C423.448 837.32 424.298 837.1 425.158 837.1C427.138 837.1 428.558 837.66 429.418 838.78C430.278 839.88 430.708 841.82 430.708 844.6V853H425.068V845.2C425.068 843.7 424.928 842.7 424.648 842.2C424.388 841.7 423.908 841.45 423.208 841.45C422.588 841.45 422.028 841.79 421.528 842.47C421.048 843.15 420.808 843.96 420.808 844.9V853H415.108V837.4H420.358L420.478 839.5H420.538ZM446.477 848.11L447.677 852.1C445.957 852.9 444.157 853.3 442.277 853.3C439.517 853.3 437.327 852.57 435.707 851.11C434.087 849.65 433.277 847.68 433.277 845.2C433.277 842.7 434.067 840.73 435.647 839.29C437.247 837.83 439.457 837.1 442.277 837.1C444.217 837.1 446.017 837.5 447.677 838.3L446.477 842.35C445.237 841.59 443.937 841.21 442.577 841.21C441.437 841.21 440.547 841.55 439.907 842.23C439.287 842.91 438.977 843.9 438.977 845.2C438.977 846.46 439.307 847.45 439.967 848.17C440.627 848.89 441.497 849.25 442.577 849.25C443.937 849.25 445.237 848.87 446.477 848.11ZM455.673 843.7H460.743C460.743 841.8 459.893 840.85 458.193 840.85C456.653 840.85 455.813 841.8 455.673 843.7ZM455.733 847C456.073 848.6 457.213 849.4 459.153 849.4C460.653 849.4 462.083 849.05 463.443 848.35L464.643 852.1C462.803 852.9 460.803 853.3 458.643 853.3C456.063 853.3 453.993 852.57 452.433 851.11C450.873 849.65 450.093 847.68 450.093 845.2C450.093 842.7 450.803 840.73 452.223 839.29C453.663 837.83 455.603 837.1 458.043 837.1C460.543 837.1 462.493 837.81 463.893 839.23C465.293 840.63 465.993 842.62 465.993 845.2C465.993 845.74 465.943 846.34 465.843 847H455.733ZM469.175 853V846.7H475.775V853H469.175Z" fill="white"/>
<defs>
<filter id="filter0_d_683_64" x="-235.9" y="-45.9" width="1216.8" height="1353.8" filterUnits="userSpaceOnUse" color-interpolation-filters="sRGB">
<feFlood flood-opacity="0" result="BackgroundImageFix"/>
<feColorMatrix in="SourceAlpha" type="matrix" values="0 0 0 0 0 0 0 0 0 0 0 0 0 0 0 0 0 0 127 0" result="hardAlpha"/>
<feOffset/>
<feGaussianBlur stdDeviation="34.95"/>
<feComposite in2="hardAlpha" operator="out"/>
<feColorMatrix type="matrix" values="0 0 0 0 0 0 0 0 0 0 0 0 0 0 0 0 0 0 0.15 0"/>
<feBlend mode="normal" in2="BackgroundImageFix" result="effect1_dropShadow_683_64"/>
<feBlend mode="normal" in="SourceGraphic" in2="effect1_dropShadow_683_64" result="shape"/>
</filter>
<linearGradient id="paint0_linear_683_64" x1="667.211" y1="148.822" x2="667.211" y2="1238" gradientUnits="userSpaceOnUse">
<stop stop-color="#FF6C00" stop-opacity="0.94"/>
<stop offset="1" stop-color="#C8A388" stop-opacity="0.7"/>
</linearGradient>
</defs>
</svg>
