<svg width="640" height="900" viewBox="0 0 640 900" fill="none" xmlns="http://www.w3.org/2000/svg">
<rect x="2.01562" width="637.984" height="900" fill="black"/>
<mask id="mask0_725_21" style="mask-type:alpha" maskUnits="userSpaceOnUse" x="2" y="0" width="639" height="900">
<rect x="2.01758" width="637.984" height="900" fill="white"/>
</mask>
<g mask="url(#mask0_725_21)">
<path d="M156.02 130.983L388.232 64.2896L399.319 103.138L167.107 169.832L156.02 130.983ZM179.07 226.325L414.743 158.637L425.391 195.947L189.719 263.635L179.07 226.325ZM162.344 78.8105L361.493 21.6127L371.921 58.1536L172.773 115.351L162.344 78.8105ZM139.449 35.0294L355.899 -27.1373L366.547 10.1729L150.098 72.3396L139.449 35.0294ZM190.32 281.774C223.219 270.244 271.057 252.759 318.126 235.495L328.61 270.771C284.946 288.306 239.14 305.624 204.374 319.355L190.32 281.774ZM224.302 24.8085L276.588 9.79133L304.801 108.644L252.515 123.661L224.302 24.8085ZM386.836 206.605L431.98 207.372C418.132 255.047 382.976 300.935 344.856 333.525C336.18 326.445 316.631 313.332 305.593 308.179C343.217 281.142 375.846 243.887 386.836 206.605ZM154.392 5.76738L195.586 -18.9652C207.777 -11.23 221.56 0.625828 228.863 10.1812L186.9 38.048C180.091 28.7668 166.528 14.767 154.392 5.76738ZM276.597 -42.6486L331.133 -45.4106C323.99 -26.7124 316.958 -10.5428 311.134 1.11785L266.704 1.39358C270.715 -12.2436 275.167 -30.1689 276.597 -42.6486ZM261.738 144.318L297.432 167.36C268.707 184.766 228.502 201.307 195 212.178C191.431 204.047 182.481 191.635 175.837 184.388C206.594 172.641 241.306 157.261 261.738 144.318ZM217.631 186.534L266.457 172.511L303.123 300.981C309.051 321.751 308.335 332.361 296.251 342.491C284.167 352.62 266.592 358.084 243.14 364.82C237.704 353.063 227.327 338.565 218.761 328.956C230.514 326.413 245.508 322.106 249.353 321.002C253.856 319.292 255.065 317.697 253.967 313.85L217.631 186.534ZM337.582 149.17L360.543 118.853C377.458 122.735 399.535 130.128 412.33 135.608L388.984 168.949C376.738 162.478 353.837 153.657 337.582 149.17ZM289.528 142.579L336.432 129.108C361.296 217.685 397.095 273.159 414.78 268.079C419.778 266.644 419.78 254.99 415.664 236.196C426.537 242.229 440.047 245.84 450.481 247.421C455.143 285.618 446.792 305.912 421.418 313.2C366.825 328.88 320.872 239.284 289.528 142.579ZM45.0645 234.848C76.207 217.164 122.015 188.193 164.363 160.216L186.762 206.636C147.765 233.235 105.417 261.212 71.0338 283.573L45.0645 234.848ZM51.5235 28.6537L101.503 14.299L204.804 376.246L154.824 390.601L51.5235 28.6537ZM6.70408 58.1731L50.5859 53.0609C61.1778 100.375 68.5287 152.366 66.491 187.494C57.0454 183.548 35.243 178.573 23.9298 176.828C25.4176 145.604 16.9125 99.7714 6.70408 58.1731ZM37.3429 98.4814L143.069 68.1158L157.669 119.273L41.563 152.62L37.3429 98.4814ZM207.151 807.141C242.686 790.276 296.293 762.395 346.439 735.507L366.916 785.392C322.866 811.778 274.862 838.883 236.854 860.203L207.151 807.141ZM218.392 575.435L272.985 559.755L377.273 925.164L322.68 940.844L218.392 575.435ZM174.668 620.454L225.305 614.234C235.786 666.99 241.873 724.755 238.956 762.632C227.479 758.853 202.216 754.872 188.981 753.68C192.501 719.375 184.766 667.494 174.668 620.454ZM206.076 657.628L320.645 624.723L335.794 677.803L210.461 713.8L206.076 657.628ZM325.377 568.429L379.529 562.864C387.098 621.451 387.033 683.895 376.976 725.904C364.675 720.697 338.15 713.75 324.091 711.129C334.531 674.837 332.893 619.54 325.377 568.429ZM383.048 534.386L438.794 518.375L533.642 850.705L477.896 866.716L383.048 534.386ZM366.649 739.274L548.497 687.045L563.207 738.587L381.359 790.816L366.649 739.274ZM382.886 860.294L601.257 797.576L616.297 850.271L397.925 912.99L382.886 860.294ZM360.846 622.748L525.394 575.489L540.433 628.184L354.741 681.517L360.846 622.748Z" fill="white"/>
<g filter="url(#filter0_d_725_21)">
<path d="M368.752 82L421.401 117.132L483.217 348.5L368.752 399L273.058 418.5L210.16 389L165.233 348.5L244.186 132.037L368.752 82Z" fill="url(#paint0_linear_725_21)" shape-rendering="crispEdges"/>
</g>
<g filter="url(#filter1_d_725_21)">
<path d="M117.311 449L180.708 388L221.142 415.5L265.57 438.5L376.39 415.5L475.23 375.5L545.615 438.5L671.91 917L-17.9694 903L61.9008 601L117.311 449Z" fill="url(#paint1_linear_725_21)" shape-rendering="crispEdges"/>
</g>
</g>
<path d="M103.894 683.5C97.1611 680.167 90.3278 678.5 83.3944 678.5C80.2611 678.5 77.8944 679.067 76.2944 680.2C74.6944 681.267 73.8944 682.7 73.8944 684.5C73.8944 687.3 76.0611 689.3 80.3944 690.5C90.8611 693.3 98.2278 696.667 102.494 700.6C106.761 704.467 108.894 709.433 108.894 715.5C108.894 722.833 106.361 728.433 101.294 732.3C96.2278 736.1 88.5944 738 78.3944 738C74.1278 738 69.5278 737.3 64.5944 735.9C59.7278 734.433 55.8278 732.633 52.8944 730.5L57.3944 715C60.7944 717.333 64.4611 719.167 68.3944 720.5C72.3944 721.833 76.0611 722.5 79.3944 722.5C85.3944 722.5 88.3944 720.333 88.3944 716C88.3944 713.2 85.7278 711.033 80.3944 709.5C70.6611 706.7 63.7278 703.333 59.5944 699.4C55.4611 695.467 53.3944 690.5 53.3944 684.5C53.3944 677.9 55.8944 672.667 60.8944 668.8C65.9611 664.933 73.1278 663 82.3944 663C92.2611 663 100.594 664.667 107.394 668L103.894 683.5ZM140.692 708H153.892L147.392 681H147.192L140.692 708ZM137.092 723L133.792 737H112.992L136.992 664H157.992L181.992 737H160.792L157.392 723H137.092ZM223.098 738C211.298 738 201.831 734.667 194.698 728C187.631 721.267 184.098 712.1 184.098 700.5C184.098 688.767 187.498 679.6 194.298 673C201.164 666.333 210.764 663 223.098 663C232.498 663 240.498 665.333 247.098 670L241.598 684.5C236.064 680.833 230.564 679 225.098 679C218.631 679 213.598 680.867 209.998 684.6C206.398 688.267 204.598 693.567 204.598 700.5C204.598 707.167 206.464 712.433 210.198 716.3C213.998 720.1 218.964 722 225.098 722C230.564 722 236.064 720.167 241.598 716.5L247.098 731C240.498 735.667 232.498 738 223.098 738ZM279.191 711.5V737H259.691V664.5C268.358 663.5 277.025 663 285.691 663C305.691 663 315.691 670.5 315.691 685.5C315.691 689.7 314.391 693.6 311.791 697.2C309.191 700.8 305.825 703.367 301.691 704.9V705.1C303.691 706.233 305.358 707.7 306.691 709.5C308.025 711.233 309.291 713.733 310.491 717L317.691 737H297.191L290.991 718C290.258 715.667 289.325 714 288.191 713C287.058 712 285.558 711.5 283.691 711.5H279.191ZM279.191 697H284.691C288.091 697 290.758 696.167 292.691 694.5C294.691 692.767 295.691 690.433 295.691 687.5C295.691 681.167 292.025 678 284.691 678C282.558 678 280.725 678.167 279.191 678.5V697ZM329.246 737V664H351.246V737H329.246ZM411.82 694V709H386.82V737H366.82V664H413.82V680H386.82V694H411.82ZM427.879 737V664H449.879V737H427.879ZM499.953 738C488.153 738 478.686 734.667 471.553 728C464.486 721.267 460.953 712.1 460.953 700.5C460.953 688.767 464.353 679.6 471.153 673C478.02 666.333 487.62 663 499.953 663C509.353 663 517.353 665.333 523.953 670L518.453 684.5C512.92 680.833 507.42 679 501.953 679C495.486 679 490.453 680.867 486.853 684.6C483.253 688.267 481.453 693.567 481.453 700.5C481.453 707.167 483.32 712.433 487.053 716.3C490.853 720.1 495.82 722 501.953 722C507.42 722 512.92 720.167 518.453 716.5L523.953 731C517.353 735.667 509.353 738 499.953 738ZM582.547 692V707H556.547V721H584.547V737H536.547V664H584.547V680H556.547V692H582.547Z" fill="white"/>
<path d="M90.3854 780.1V797.05H99.2354V802H84.2354V780.1H90.3854ZM103.092 788.26C104.532 786.82 106.562 786.1 109.182 786.1C111.802 786.1 113.832 786.82 115.272 788.26C116.712 789.7 117.432 791.68 117.432 794.2C117.432 796.72 116.712 798.7 115.272 800.14C113.832 801.58 111.802 802.3 109.182 802.3C106.562 802.3 104.532 801.58 103.092 800.14C101.652 798.7 100.932 796.72 100.932 794.2C100.932 791.68 101.652 789.7 103.092 788.26ZM107.172 797.29C107.612 797.91 108.282 798.22 109.182 798.22C110.082 798.22 110.752 797.91 111.192 797.29C111.632 796.67 111.852 795.64 111.852 794.2C111.852 792.76 111.632 791.73 111.192 791.11C110.752 790.49 110.082 790.18 109.182 790.18C108.282 790.18 107.612 790.49 107.172 791.11C106.732 791.73 106.512 792.76 106.512 794.2C106.512 795.64 106.732 796.67 107.172 797.29ZM132.626 791.11C130.806 790.45 129.106 790.12 127.526 790.12C126.666 790.12 126.076 790.2 125.756 790.36C125.436 790.5 125.276 790.73 125.276 791.05C125.276 791.35 125.406 791.58 125.666 791.74C125.926 791.9 126.396 792.02 127.076 792.1C129.536 792.4 131.296 792.98 132.356 793.84C133.436 794.7 133.976 795.87 133.976 797.35C133.976 798.87 133.366 800.08 132.146 800.98C130.946 801.86 129.206 802.3 126.926 802.3C124.226 802.3 121.776 801.8 119.576 800.8L120.626 796.78C122.426 797.74 124.326 798.22 126.326 798.22C127.626 798.22 128.276 797.88 128.276 797.2C128.276 796.94 128.176 796.76 127.976 796.66C127.776 796.56 127.276 796.44 126.476 796.3C124.056 795.92 122.326 795.3 121.286 794.44C120.246 793.56 119.726 792.38 119.726 790.9C119.726 789.4 120.326 788.23 121.526 787.39C122.726 786.53 124.526 786.1 126.926 786.1C129.306 786.1 131.556 786.45 133.676 787.15L132.626 791.11ZM141.698 792.7H146.768C146.768 790.8 145.918 789.85 144.218 789.85C142.678 789.85 141.838 790.8 141.698 792.7ZM141.758 796C142.098 797.6 143.238 798.4 145.178 798.4C146.678 798.4 148.108 798.05 149.468 797.35L150.668 801.1C148.828 801.9 146.828 802.3 144.668 802.3C142.088 802.3 140.018 801.57 138.458 800.11C136.898 798.65 136.118 796.68 136.118 794.2C136.118 791.7 136.828 789.73 138.248 788.29C139.688 786.83 141.628 786.1 144.068 786.1C146.568 786.1 148.518 786.81 149.918 788.23C151.318 789.63 152.018 791.62 152.018 794.2C152.018 794.74 151.968 795.34 151.868 796H141.758ZM172.693 802.3C170.713 802.3 169.243 801.85 168.283 800.95C167.323 800.03 166.843 798.58 166.843 796.6V790.9H163.693V787H166.843V781.3H172.663V787H177.493V790.9H172.663V795.7C172.663 796.66 172.773 797.3 172.993 797.62C173.213 797.94 173.613 798.1 174.193 798.1C175.073 798.1 175.973 797.95 176.893 797.65L177.493 801.7C176.013 802.1 174.413 802.3 172.693 802.3ZM197.01 793.6V802H191.37V794.2C191.37 792.7 191.23 791.7 190.95 791.2C190.69 790.7 190.21 790.45 189.51 790.45C188.89 790.45 188.33 790.79 187.83 791.47C187.35 792.15 187.11 792.96 187.11 793.9V802H181.41V779.5H187.11V788.2H187.17C187.67 787.56 188.31 787.05 189.09 786.67C189.87 786.29 190.66 786.1 191.46 786.1C193.44 786.1 194.86 786.66 195.72 787.78C196.58 788.88 197.01 790.82 197.01 793.6ZM201.254 783.7V779.5H207.254V783.7H201.254ZM201.254 802V786.4H207.254V802H201.254ZM224.09 791.11C222.27 790.45 220.57 790.12 218.99 790.12C218.13 790.12 217.54 790.2 217.22 790.36C216.9 790.5 216.74 790.73 216.74 791.05C216.74 791.35 216.87 791.58 217.13 791.74C217.39 791.9 217.86 792.02 218.54 792.1C221 792.4 222.76 792.98 223.82 793.84C224.9 794.7 225.44 795.87 225.44 797.35C225.44 798.87 224.83 800.08 223.61 800.98C222.41 801.86 220.67 802.3 218.39 802.3C215.69 802.3 213.24 801.8 211.04 800.8L212.09 796.78C213.89 797.74 215.79 798.22 217.79 798.22C219.09 798.22 219.74 797.88 219.74 797.2C219.74 796.94 219.64 796.76 219.44 796.66C219.24 796.56 218.74 796.44 217.94 796.3C215.52 795.92 213.79 795.3 212.75 794.44C211.71 793.56 211.19 792.38 211.19 790.9C211.19 789.4 211.79 788.23 212.99 787.39C214.19 786.53 215.99 786.1 218.39 786.1C220.77 786.1 223.02 786.45 225.14 787.15L224.09 791.11ZM250.333 797.11L251.533 801.1C249.813 801.9 248.013 802.3 246.133 802.3C243.373 802.3 241.183 801.57 239.563 800.11C237.943 798.65 237.133 796.68 237.133 794.2C237.133 791.7 237.923 789.73 239.503 788.29C241.103 786.83 243.313 786.1 246.133 786.1C248.073 786.1 249.873 786.5 251.533 787.3L250.333 791.35C249.093 790.59 247.793 790.21 246.433 790.21C245.293 790.21 244.403 790.55 243.763 791.23C243.143 791.91 242.833 792.9 242.833 794.2C242.833 795.46 243.163 796.45 243.823 797.17C244.483 797.89 245.353 798.25 246.433 798.25C247.793 798.25 249.093 797.87 250.333 797.11ZM262.8 791.8H263.7C263.7 791.12 263.57 790.65 263.31 790.39C263.05 790.13 262.58 790 261.9 790C259.8 790 257.75 790.45 255.75 791.35L255 787.45C257.2 786.55 259.6 786.1 262.2 786.1C264.8 786.1 266.65 786.59 267.75 787.57C268.85 788.53 269.4 790.14 269.4 792.4V797.8C269.4 799.24 269.55 800.64 269.85 802H264.45C264.33 801.32 264.23 800.62 264.15 799.9H264.09C263.55 800.62 262.85 801.2 261.99 801.64C261.13 802.08 260.25 802.3 259.35 802.3C257.81 802.3 256.57 801.88 255.63 801.04C254.71 800.18 254.25 799 254.25 797.5C254.25 795.78 254.98 794.4 256.44 793.36C257.92 792.32 260.04 791.8 262.8 791.8ZM259.35 796.9C259.35 797.8 259.85 798.25 260.85 798.25C261.71 798.25 262.4 798.01 262.92 797.53C263.44 797.05 263.7 796.39 263.7 795.55V795.1H262.8C261.66 795.1 260.8 795.27 260.22 795.61C259.64 795.93 259.35 796.36 259.35 796.9ZM285.94 786.1V790.6C283.7 790.6 282.01 791.02 280.87 791.86C279.73 792.7 279.16 793.88 279.16 795.4V802H273.34V786.4H278.71L278.74 789.4H278.8C280.52 787.2 282.9 786.1 285.94 786.1ZM287.645 794.2C287.645 791.62 288.195 789.63 289.295 788.23C290.415 786.81 291.915 786.1 293.795 786.1C295.495 786.1 296.925 786.8 298.085 788.2H298.145V779.5H303.845V802H298.595L298.475 799.9H298.415C297.155 801.5 295.615 802.3 293.795 802.3C291.995 802.3 290.515 801.58 289.355 800.14C288.215 798.7 287.645 796.72 287.645 794.2ZM293.045 794.2C293.045 795.4 293.285 796.33 293.765 796.99C294.245 797.63 294.855 797.95 295.595 797.95C296.375 797.95 296.995 797.64 297.455 797.02C297.915 796.4 298.145 795.51 298.145 794.35V794.05C298.145 792.91 297.915 792.03 297.455 791.41C296.995 790.77 296.375 790.45 295.595 790.45C294.795 790.45 294.165 790.77 293.705 791.41C293.265 792.03 293.045 792.96 293.045 794.2ZM326.764 779.8C328.044 779.8 329.394 779.95 330.814 780.25L330.064 784.45C329.344 784.15 328.594 784 327.814 784C327.114 784 326.634 784.17 326.374 784.51C326.114 784.83 325.984 785.46 325.984 786.4V787H330.514V790.9H325.984V802H320.164V790.9H316.714V787H320.164V786.4C320.164 784.26 320.734 782.63 321.874 781.51C323.014 780.37 324.644 779.8 326.764 779.8ZM341.345 791.8H342.245C342.245 791.12 342.115 790.65 341.855 790.39C341.595 790.13 341.125 790 340.445 790C338.345 790 336.295 790.45 334.295 791.35L333.545 787.45C335.745 786.55 338.145 786.1 340.745 786.1C343.345 786.1 345.195 786.59 346.295 787.57C347.395 788.53 347.945 790.14 347.945 792.4V797.8C347.945 799.24 348.095 800.64 348.395 802H342.995C342.875 801.32 342.775 800.62 342.695 799.9H342.635C342.095 800.62 341.395 801.2 340.535 801.64C339.675 802.08 338.795 802.3 337.895 802.3C336.355 802.3 335.115 801.88 334.175 801.04C333.255 800.18 332.795 799 332.795 797.5C332.795 795.78 333.525 794.4 334.985 793.36C336.465 792.32 338.585 791.8 341.345 791.8ZM337.895 796.9C337.895 797.8 338.395 798.25 339.395 798.25C340.255 798.25 340.945 798.01 341.465 797.53C341.985 797.05 342.245 796.39 342.245 795.55V795.1H341.345C340.205 795.1 339.345 795.27 338.765 795.61C338.185 795.93 337.895 796.36 337.895 796.9ZM364.035 797.11L365.235 801.1C363.515 801.9 361.715 802.3 359.835 802.3C357.075 802.3 354.885 801.57 353.265 800.11C351.645 798.65 350.835 796.68 350.835 794.2C350.835 791.7 351.625 789.73 353.205 788.29C354.805 786.83 357.015 786.1 359.835 786.1C361.775 786.1 363.575 786.5 365.235 787.3L364.035 791.35C362.795 790.59 361.495 790.21 360.135 790.21C358.995 790.21 358.105 790.55 357.465 791.23C356.845 791.91 356.535 792.9 356.535 794.2C356.535 795.46 356.865 796.45 357.525 797.17C358.185 797.89 359.055 798.25 360.135 798.25C361.495 798.25 362.795 797.87 364.035 797.11ZM373.231 792.7H378.301C378.301 790.8 377.451 789.85 375.751 789.85C374.211 789.85 373.371 790.8 373.231 792.7ZM373.291 796C373.631 797.6 374.771 798.4 376.711 798.4C378.211 798.4 379.641 798.05 381.001 797.35L382.201 801.1C380.361 801.9 378.361 802.3 376.201 802.3C373.621 802.3 371.551 801.57 369.991 800.11C368.431 798.65 367.651 796.68 367.651 794.2C367.651 791.7 368.361 789.73 369.781 788.29C371.221 786.83 373.161 786.1 375.601 786.1C378.101 786.1 380.051 786.81 381.451 788.23C382.851 789.63 383.551 791.62 383.551 794.2C383.551 794.74 383.501 795.34 383.401 796H373.291ZM386.869 795.55V791.05H397.369V795.55H386.869ZM400.701 794.2C400.701 791.62 401.251 789.63 402.351 788.23C403.471 786.81 404.971 786.1 406.851 786.1C408.551 786.1 409.981 786.8 411.141 788.2H411.201V779.5H416.901V802H411.651L411.531 799.9H411.471C410.211 801.5 408.671 802.3 406.851 802.3C405.051 802.3 403.571 801.58 402.411 800.14C401.271 798.7 400.701 796.72 400.701 794.2ZM406.101 794.2C406.101 795.4 406.341 796.33 406.821 796.99C407.301 797.63 407.911 797.95 408.651 797.95C409.431 797.95 410.051 797.64 410.511 797.02C410.971 796.4 411.201 795.51 411.201 794.35V794.05C411.201 792.91 410.971 792.03 410.511 791.41C410.051 790.77 409.431 790.45 408.651 790.45C407.851 790.45 407.221 790.77 406.761 791.41C406.321 792.03 406.101 792.96 406.101 794.2ZM421.93 788.26C423.37 786.82 425.4 786.1 428.02 786.1C430.64 786.1 432.67 786.82 434.11 788.26C435.55 789.7 436.27 791.68 436.27 794.2C436.27 796.72 435.55 798.7 434.11 800.14C432.67 801.58 430.64 802.3 428.02 802.3C425.4 802.3 423.37 801.58 421.93 800.14C420.49 798.7 419.77 796.72 419.77 794.2C419.77 791.68 420.49 789.7 421.93 788.26ZM426.01 797.29C426.45 797.91 427.12 798.22 428.02 798.22C428.92 798.22 429.59 797.91 430.03 797.29C430.47 796.67 430.69 795.64 430.69 794.2C430.69 792.76 430.47 791.73 430.03 791.11C429.59 790.49 428.92 790.18 428.02 790.18C427.12 790.18 426.45 790.49 426.01 791.11C425.57 791.73 425.35 792.76 425.35 794.2C425.35 795.64 425.57 796.67 426.01 797.29ZM454.801 797.5H454.861L456.331 786.4H461.821L458.221 802H451.621L449.851 791.2H449.791L448.021 802H441.421L437.821 786.4H443.431L444.901 797.5H444.961L446.731 786.4H453.031L454.801 797.5ZM470.137 788.5C470.697 787.76 471.387 787.18 472.207 786.76C473.047 786.32 473.897 786.1 474.757 786.1C476.737 786.1 478.157 786.66 479.017 787.78C479.877 788.88 480.307 790.82 480.307 793.6V802H474.667V794.2C474.667 792.7 474.527 791.7 474.247 791.2C473.987 790.7 473.507 790.45 472.807 790.45C472.187 790.45 471.627 790.79 471.127 791.47C470.647 792.15 470.407 792.96 470.407 793.9V802H464.707V786.4H469.957L470.077 788.5H470.137ZM501.276 791.8H502.176C502.176 791.12 502.046 790.65 501.786 790.39C501.526 790.13 501.056 790 500.376 790C498.276 790 496.226 790.45 494.226 791.35L493.476 787.45C495.676 786.55 498.076 786.1 500.676 786.1C503.276 786.1 505.126 786.59 506.226 787.57C507.326 788.53 507.876 790.14 507.876 792.4V797.8C507.876 799.24 508.026 800.64 508.326 802H502.926C502.806 801.32 502.706 800.62 502.626 799.9H502.566C502.026 800.62 501.326 801.2 500.466 801.64C499.606 802.08 498.726 802.3 497.826 802.3C496.286 802.3 495.046 801.88 494.106 801.04C493.186 800.18 492.726 799 492.726 797.5C492.726 795.78 493.456 794.4 494.916 793.36C496.396 792.32 498.516 791.8 501.276 791.8ZM497.826 796.9C497.826 797.8 498.326 798.25 499.326 798.25C500.186 798.25 500.876 798.01 501.396 797.53C501.916 797.05 502.176 796.39 502.176 795.55V795.1H501.276C500.136 795.1 499.276 795.27 498.696 795.61C498.116 795.93 497.826 796.36 497.826 796.9ZM517.246 788.5C517.806 787.76 518.496 787.18 519.316 786.76C520.156 786.32 521.006 786.1 521.866 786.1C523.846 786.1 525.266 786.66 526.126 787.78C526.986 788.88 527.416 790.82 527.416 793.6V802H521.776V794.2C521.776 792.7 521.636 791.7 521.356 791.2C521.096 790.7 520.616 790.45 519.916 790.45C519.296 790.45 518.736 790.79 518.236 791.47C517.756 792.15 517.516 792.96 517.516 793.9V802H511.816V786.4H517.066L517.186 788.5H517.246ZM530.135 794.2C530.135 791.62 530.685 789.63 531.785 788.23C532.905 786.81 534.405 786.1 536.285 786.1C537.985 786.1 539.415 786.8 540.575 788.2H540.635V779.5H546.335V802H541.085L540.965 799.9H540.905C539.645 801.5 538.105 802.3 536.285 802.3C534.485 802.3 533.005 801.58 531.845 800.14C530.705 798.7 530.135 796.72 530.135 794.2ZM535.535 794.2C535.535 795.4 535.775 796.33 536.255 796.99C536.735 797.63 537.345 797.95 538.085 797.95C538.865 797.95 539.485 797.64 539.945 797.02C540.405 796.4 540.635 795.51 540.635 794.35V794.05C540.635 792.91 540.405 792.03 539.945 791.41C539.485 790.77 538.865 790.45 538.085 790.45C537.285 790.45 536.655 790.77 536.195 791.41C535.755 792.03 535.535 792.96 535.535 794.2ZM231.615 842.6H231.585C230.425 844 228.935 844.7 227.115 844.7C225.335 844.7 223.865 844.01 222.705 842.63C221.545 841.23 220.965 839.32 220.965 836.9C220.965 834.44 221.525 832.53 222.645 831.17C223.765 829.79 225.255 829.1 227.115 829.1C228.895 829.1 230.435 829.9 231.735 831.5H231.795L231.915 829.4H237.165V843.2C237.165 846.06 236.375 848.22 234.795 849.68C233.215 851.16 230.905 851.9 227.865 851.9C225.945 851.9 224.145 851.6 222.465 851L223.365 846.98C224.765 847.56 226.165 847.85 227.565 847.85C229.025 847.85 230.065 847.5 230.685 846.8C231.305 846.12 231.615 844.92 231.615 843.2V842.6ZM226.365 836.9C226.365 838.04 226.595 838.93 227.055 839.57C227.535 840.19 228.155 840.5 228.915 840.5C229.695 840.5 230.315 840.21 230.775 839.63C231.235 839.03 231.465 838.17 231.465 837.05V836.75C231.465 835.65 231.235 834.8 230.775 834.2C230.315 833.6 229.695 833.3 228.915 833.3C228.115 833.3 227.485 833.61 227.025 834.23C226.585 834.83 226.365 835.72 226.365 836.9ZM248.737 834.8H249.637C249.637 834.12 249.507 833.65 249.247 833.39C248.987 833.13 248.517 833 247.837 833C245.737 833 243.687 833.45 241.687 834.35L240.937 830.45C243.137 829.55 245.537 829.1 248.137 829.1C250.737 829.1 252.587 829.59 253.687 830.57C254.787 831.53 255.337 833.14 255.337 835.4V840.8C255.337 842.24 255.487 843.64 255.787 845H250.387C250.267 844.32 250.167 843.62 250.087 842.9H250.027C249.487 843.62 248.787 844.2 247.927 844.64C247.067 845.08 246.187 845.3 245.287 845.3C243.747 845.3 242.507 844.88 241.567 844.04C240.647 843.18 240.187 842 240.187 840.5C240.187 838.78 240.917 837.4 242.377 836.36C243.857 835.32 245.977 834.8 248.737 834.8ZM245.287 839.9C245.287 840.8 245.787 841.25 246.787 841.25C247.647 841.25 248.337 841.01 248.857 840.53C249.377 840.05 249.637 839.39 249.637 838.55V838.1H248.737C247.597 838.1 246.737 838.27 246.157 838.61C245.577 838.93 245.287 839.36 245.287 839.9ZM259.877 826.7V822.5H265.877V826.7H259.877ZM259.877 845V829.4H265.877V845H259.877ZM275.694 831.5C276.254 830.76 276.944 830.18 277.764 829.76C278.604 829.32 279.454 829.1 280.314 829.1C282.294 829.1 283.714 829.66 284.574 830.78C285.434 831.88 285.864 833.82 285.864 836.6V845H280.224V837.2C280.224 835.7 280.084 834.7 279.804 834.2C279.544 833.7 279.064 833.45 278.364 833.45C277.744 833.45 277.184 833.79 276.684 834.47C276.204 835.15 275.964 835.96 275.964 836.9V845H270.264V829.4H275.514L275.634 831.5H275.694ZM305.393 831.05H305.453C306.313 830.75 307.143 830.6 307.943 830.6C310.263 830.6 312.043 831.2 313.283 832.4C314.523 833.58 315.143 835.28 315.143 837.5C315.143 842.7 311.943 845.3 305.543 845.3C303.243 845.3 301.043 844.9 298.943 844.1L300.143 839.36C302.183 840.16 303.883 840.56 305.243 840.56C307.943 840.56 309.293 839.54 309.293 837.5C309.293 835.9 308.443 835.1 306.743 835.1C306.103 835.1 305.403 835.45 304.643 836.15H299.543L300.143 823.1H314.093V827.9H305.543L305.393 831.05ZM340.539 840.11L341.739 844.1C340.019 844.9 338.219 845.3 336.339 845.3C333.579 845.3 331.389 844.57 329.769 843.11C328.149 841.65 327.339 839.68 327.339 837.2C327.339 834.7 328.129 832.73 329.709 831.29C331.309 829.83 333.519 829.1 336.339 829.1C338.279 829.1 340.079 829.5 341.739 830.3L340.539 834.35C339.299 833.59 337.999 833.21 336.639 833.21C335.499 833.21 334.609 833.55 333.969 834.23C333.349 834.91 333.039 835.9 333.039 837.2C333.039 838.46 333.369 839.45 334.029 840.17C334.689 840.89 335.559 841.25 336.639 841.25C337.999 841.25 339.299 840.87 340.539 840.11ZM346.315 831.26C347.755 829.82 349.785 829.1 352.405 829.1C355.025 829.1 357.055 829.82 358.495 831.26C359.935 832.7 360.655 834.68 360.655 837.2C360.655 839.72 359.935 841.7 358.495 843.14C357.055 844.58 355.025 845.3 352.405 845.3C349.785 845.3 347.755 844.58 346.315 843.14C344.875 841.7 344.155 839.72 344.155 837.2C344.155 834.68 344.875 832.7 346.315 831.26ZM350.395 840.29C350.835 840.91 351.505 841.22 352.405 841.22C353.305 841.22 353.975 840.91 354.415 840.29C354.855 839.67 355.075 838.64 355.075 837.2C355.075 835.76 354.855 834.73 354.415 834.11C353.975 833.49 353.305 833.18 352.405 833.18C351.505 833.18 350.835 833.49 350.395 834.11C349.955 834.73 349.735 835.76 349.735 837.2C349.735 838.64 349.955 839.67 350.395 840.29ZM363.998 826.7V822.5H369.998V826.7H363.998ZM363.998 845V829.4H369.998V845H363.998ZM379.815 831.5C380.375 830.76 381.065 830.18 381.885 829.76C382.725 829.32 383.575 829.1 384.435 829.1C386.415 829.1 387.835 829.66 388.695 830.78C389.555 831.88 389.985 833.82 389.985 836.6V845H384.345V837.2C384.345 835.7 384.205 834.7 383.925 834.2C383.665 833.7 383.185 833.45 382.485 833.45C381.865 833.45 381.305 833.79 380.805 834.47C380.325 835.15 380.085 835.96 380.085 836.9V845H374.385V829.4H379.635L379.755 831.5H379.815ZM406.053 834.11C404.233 833.45 402.533 833.12 400.953 833.12C400.093 833.12 399.503 833.2 399.183 833.36C398.863 833.5 398.703 833.73 398.703 834.05C398.703 834.35 398.833 834.58 399.093 834.74C399.353 834.9 399.823 835.02 400.503 835.1C402.963 835.4 404.723 835.98 405.783 836.84C406.863 837.7 407.403 838.87 407.403 840.35C407.403 841.87 406.793 843.08 405.573 843.98C404.373 844.86 402.633 845.3 400.353 845.3C397.653 845.3 395.203 844.8 393.003 843.8L394.053 839.78C395.853 840.74 397.753 841.22 399.753 841.22C401.053 841.22 401.703 840.88 401.703 840.2C401.703 839.94 401.603 839.76 401.403 839.66C401.203 839.56 400.703 839.44 399.903 839.3C397.483 838.92 395.753 838.3 394.713 837.44C393.673 836.56 393.153 835.38 393.153 833.9C393.153 832.4 393.753 831.23 394.953 830.39C396.153 829.53 397.953 829.1 400.353 829.1C402.733 829.1 404.983 829.45 407.103 830.15L406.053 834.11ZM410.903 845V838.7H417.503V845H410.903Z" fill="white"/>
<defs>
<filter id="filter0_d_725_21" x="95.3324" y="12.1" width="457.784" height="476.3" filterUnits="userSpaceOnUse" color-interpolation-filters="sRGB">
<feFlood flood-opacity="0" result="BackgroundImageFix"/>
<feColorMatrix in="SourceAlpha" type="matrix" values="0 0 0 0 0 0 0 0 0 0 0 0 0 0 0 0 0 0 127 0" result="hardAlpha"/>
<feOffset/>
<feGaussianBlur stdDeviation="34.95"/>
<feComposite in2="hardAlpha" operator="out"/>
<feColorMatrix type="matrix" values="0 0 0 0 0 0 0 0 0 0 0 0 0 0 0 0 0 0 0.15 0"/>
<feBlend mode="normal" in2="BackgroundImageFix" result="effect1_dropShadow_725_21"/>
<feBlend mode="normal" in="SourceGraphic" in2="effect1_dropShadow_725_21" result="shape"/>
</filter>
<filter id="filter1_d_725_21" x="-87.8688" y="305.6" width="829.679" height="681.3" filterUnits="userSpaceOnUse" color-interpolation-filters="sRGB">
<feFlood flood-opacity="0" result="BackgroundImageFix"/>
<feColorMatrix in="SourceAlpha" type="matrix" values="0 0 0 0 0 0 0 0 0 0 0 0 0 0 0 0 0 0 127 0" result="hardAlpha"/>
<feOffset/>
<feGaussianBlur stdDeviation="34.95"/>
<feComposite in2="hardAlpha" operator="out"/>
<feColorMatrix type="matrix" values="0 0 0 0 0 0 0 0 0 0 0 0 0 0 0 0 0 0 0.15 0"/>
<feBlend mode="normal" in2="BackgroundImageFix" result="effect1_dropShadow_725_21"/>
<feBlend mode="normal" in="SourceGraphic" in2="effect1_dropShadow_725_21" result="shape"/>
</filter>
<linearGradient id="paint0_linear_725_21" x1="324.84" y1="-60.6577" x2="661.207" y2="927.035" gradientUnits="userSpaceOnUse">
<stop stop-color="#FF1D1D"/>
<stop offset="1" stop-color="#A35B3D" stop-opacity="0.84"/>
</linearGradient>
<linearGradient id="paint1_linear_725_21" x1="322.843" y1="84.3423" x2="647.264" y2="936.979" gradientUnits="userSpaceOnUse">
<stop stop-color="#FF1E1E"/>
<stop offset="1" stop-color="#A35B3D" stop-opacity="0.84"/>
</linearGradient>
</defs>
</svg>
