<svg width="640" height="900" viewBox="0 0 640 900" fill="none" xmlns="http://www.w3.org/2000/svg">
<rect x="0.0195312" width="639.02" height="900" fill="#9A6F1D"/>
<mask id="mask0_619_78" style="mask-type:alpha" maskUnits="userSpaceOnUse" x="0" y="0" width="640" height="900">
<rect x="0.0195312" width="639.02" height="900" fill="white"/>
</mask>
<g mask="url(#mask0_619_78)">
<path d="M-5.64379 194.573L88.2802 148.764L106.407 186.006L-17.2308 246.309L-5.64379 194.573ZM57.5482 340.901L63.7014 353.543L198.952 287.577L192.799 274.935L57.5482 340.901ZM80.8307 388.736L86.9839 401.378L222.234 335.412L216.081 322.77L80.8307 388.736ZM34.4319 293.408L40.4189 305.708L175.669 239.742L169.682 227.442L34.4319 293.408ZM-33.5513 279.636L203.137 164.195L292.608 348.018L55.92 463.458L-33.5513 279.636ZM-29.6163 180.053L29.1612 164.491C23.8167 220.369 9.66367 273.779 -22.5196 329.218C-35.8631 321.774 -61.2554 313.019 -76.0186 311.341C-44.9582 265.751 -31.7171 218.283 -29.6163 180.053ZM69.8369 157.759L81.1078 152.262L87.9654 146.38L133.271 151.765C130.927 180.812 120.971 222.873 111.157 251.336C97.4275 248.308 75.5365 245.879 61.6137 245.059C69.8589 220.321 75.1552 185.183 74.3271 166.984L69.8369 157.759ZM200.299 417.984L228.645 372.027C268.602 369.028 318.235 366.805 347.281 367.436L302.217 419.856C279.31 417.076 237.699 415.809 200.299 417.984ZM106.715 431.497L165.682 430.218C146.481 462.836 110.894 502.6 81.3879 529.675C67.1771 523.923 39.4209 513.784 23.4846 510.564C56.1867 486.582 90.3264 455.133 106.715 431.497ZM491.519 -52.5599C494.311 -43.3516 498.293 -34.3015 501.777 -26.2763C509.575 -8.51763 543.177 59.6512 553.322 80.4934C593.068 162.154 605.956 212.945 561.667 288.663L495.558 274.4C507.084 260.745 519.882 239.283 524.308 222.327C532.485 187.898 527.701 158.099 501.924 105.139C488.454 77.4631 460.506 20.9113 448.154 -0.123087C443.314 -8.33186 435.777 -18.6077 431.75 -23.4082L491.519 -52.5599ZM382.577 80.4818C401.501 74.2114 416.003 68.4066 434.105 59.5778C479.189 37.5891 535.929 5.68696 566.564 -15.5966L592.332 38.2133C561.899 56.4387 507.9 86.1583 460.084 109.48C446.081 116.309 426.456 124.613 408.021 132.758L382.577 80.4818ZM326.133 35.7147C327.374 46.9475 330.094 62.9552 332.045 71.305C340.172 106.237 361.969 182.278 385.597 213.456C386.045 203.09 384.867 185.908 385.167 173.5L418.424 177.574C422.952 215.53 431.385 253.696 437.09 276.704C438.384 282.837 441.351 291.537 443.18 295.295C445.01 299.054 448.511 305.379 451.513 310.679L407.226 337.776C389.392 321.107 352.641 277.727 332.185 235.701C304.745 179.324 284.941 123.874 275.91 94.033C272.629 82.9497 266.651 69.7994 262.17 59.7242L326.133 35.7147ZM527.905 647.366C586.841 713.749 662.682 755.82 753.323 747.548C746.183 764.137 740.257 794.509 739.211 813.199C638.098 815.585 560.482 764.656 486.261 681.629L527.905 647.366ZM343.791 723.212L654.594 571.624L679.539 622.875L368.737 774.464L343.791 723.212ZM425.969 566.442L480.616 539.789C533.788 653.375 600.634 791.579 488.011 935.294C473.171 924.775 448.314 913.646 427.798 909.7C537.886 780.75 471.658 664.653 425.969 566.442ZM511.766 566.452L530.769 520.401C560.129 523.415 599.637 530.782 621.448 540.861L601.034 591.827C581.098 581.257 541.958 571.175 511.766 566.452Z" fill="#CBA72A"/>
<g filter="url(#filter0_d_619_78)">
<path d="M-224 1033.5L666.5 1006.5L680 876.5L685 737.5L649.5 506.5L600 450L523.5 406.5L414 392.5L386.5 325L397.5 285.5L414 203L368 79.5L278.5 21L144 60.5L97.5 166.5L129.5 285.5L178 355.5L224 381L236.5 473L191 516.5L157 591L97.5 674.5L-38.5 809.5L-70 981L-224 1033.5Z" fill="url(#paint0_linear_619_78)" shape-rendering="crispEdges"/>
</g>
</g>
<path d="M123.15 701.22C118.787 705.64 112.497 707.85 104.28 707.85C96.0636 707.85 89.7453 705.64 85.3253 701.22C80.962 696.743 78.7803 690.17 78.7803 681.5V644.95H95.9503V682.775C95.9503 686.798 96.6586 689.717 98.0753 691.53C99.492 693.343 101.617 694.25 104.45 694.25C107.284 694.25 109.409 693.343 110.825 691.53C112.242 689.717 112.95 686.798 112.95 682.775V644.95H129.78V681.5C129.78 690.17 127.57 696.743 123.15 701.22ZM176.41 678.95H176.58V644.95H193.155V707H176.58L158.05 673H157.88V707H141.305V644.95H157.88L176.41 678.95ZM222.128 694.25C223.431 694.533 224.706 694.675 225.953 694.675C236.153 694.675 241.253 688.158 241.253 675.125C241.253 663.225 236.153 657.275 225.953 657.275C224.706 657.275 223.431 657.417 222.128 657.7V694.25ZM257.403 675.125C257.403 685.495 254.485 693.542 248.648 699.265C242.811 704.988 234.68 707.85 224.253 707.85C217.623 707.85 211.39 707.425 205.553 706.575V645.375C211.39 644.525 217.623 644.1 224.253 644.1C234.68 644.1 242.811 646.877 248.648 652.43C254.485 657.927 257.403 665.492 257.403 675.125ZM305.083 668.75V681.5H282.983V693.4H306.783V707H265.983V644.95H306.783V658.55H282.983V668.75H305.083ZM334.936 685.325V707H318.361V645.375C325.727 644.525 333.094 644.1 340.461 644.1C357.461 644.1 365.961 650.475 365.961 663.225C365.961 666.795 364.856 670.11 362.646 673.17C360.436 676.23 357.574 678.412 354.061 679.715V679.885C355.761 680.848 357.177 682.095 358.311 683.625C359.444 685.098 360.521 687.223 361.541 690L367.661 707H350.236L344.966 690.85C344.342 688.867 343.549 687.45 342.586 686.6C341.622 685.75 340.347 685.325 338.761 685.325H334.936ZM334.936 673H339.611C342.501 673 344.767 672.292 346.411 670.875C348.111 669.402 348.961 667.418 348.961 664.925C348.961 659.542 345.844 656.85 339.611 656.85C337.797 656.85 336.239 656.992 334.936 657.275V673ZM393.207 694.25C394.511 694.533 395.786 694.675 397.032 694.675C407.232 694.675 412.332 688.158 412.332 675.125C412.332 663.225 407.232 657.275 397.032 657.275C395.786 657.275 394.511 657.417 393.207 657.7V694.25ZM428.482 675.125C428.482 685.495 425.564 693.542 419.727 699.265C413.891 704.988 405.759 707.85 395.332 707.85C388.702 707.85 382.469 707.425 376.632 706.575V645.375C382.469 644.525 388.702 644.1 395.332 644.1C405.759 644.1 413.891 646.877 419.727 652.43C425.564 657.927 428.482 665.492 428.482 675.125ZM442.652 652.685C448.432 646.962 456.195 644.1 465.942 644.1C475.689 644.1 483.424 646.962 489.147 652.685C494.927 658.352 497.817 666.115 497.817 675.975C497.817 685.835 494.927 693.627 489.147 699.35C483.424 705.017 475.689 707.85 465.942 707.85C456.195 707.85 448.432 705.017 442.652 699.35C436.929 693.627 434.067 685.835 434.067 675.975C434.067 666.115 436.929 658.352 442.652 652.685ZM451.492 675.975C451.492 687.875 456.309 693.825 465.942 693.825C475.575 693.825 480.392 687.875 480.392 675.975C480.392 664.075 475.575 658.125 465.942 658.125C456.309 658.125 451.492 664.075 451.492 675.975ZM532.279 668.75H561.179V703.6C553.755 706.433 545.822 707.85 537.379 707.85C527.009 707.85 518.735 704.96 512.559 699.18C506.439 693.4 503.379 685.665 503.379 675.975C503.379 666.058 506.354 658.267 512.304 652.6C518.31 646.933 526.669 644.1 537.379 644.1C545.765 644.1 552.849 646.083 558.629 650.05L553.954 662.205C548.91 659.088 543.952 657.53 539.079 657.53C533.242 657.53 528.709 659.145 525.479 662.375C522.249 665.605 520.634 670.138 520.634 675.975C520.634 681.755 522.305 686.288 525.649 689.575C528.992 692.805 533.469 694.42 539.079 694.42C541.289 694.42 543.272 694.137 545.029 693.57V681.5H532.279V668.75Z" fill="white"/>
<path d="M30.3567 759V733.45H38.0567V759H30.3567ZM54.1826 733.1C55.676 733.1 57.251 733.275 58.9076 733.625L58.0326 738.525C57.1926 738.175 56.3176 738 55.4076 738C54.591 738 54.031 738.198 53.7276 738.595C53.4243 738.968 53.2726 739.703 53.2726 740.8V741.5H58.5576V746.05H53.2726V759H46.4826V746.05H42.4576V741.5H46.4826V740.8C46.4826 738.303 47.1476 736.402 48.4776 735.095C49.8076 733.765 51.7093 733.1 54.1826 733.1ZM82.8353 753.05H82.9053L86.1953 740.8H93.1953L83.7453 766.7H76.7453L79.8953 759L72.8953 740.8H80.2453L82.8353 753.05ZM96.6108 742.97C98.2908 741.29 100.659 740.45 103.716 740.45C106.773 740.45 109.141 741.29 110.821 742.97C112.501 744.65 113.341 746.96 113.341 749.9C113.341 752.84 112.501 755.15 110.821 756.83C109.141 758.51 106.773 759.35 103.716 759.35C100.659 759.35 98.2908 758.51 96.6108 756.83C94.9308 755.15 94.0908 752.84 94.0908 749.9C94.0908 746.96 94.9308 744.65 96.6108 742.97ZM101.371 753.505C101.884 754.228 102.666 754.59 103.716 754.59C104.766 754.59 105.548 754.228 106.061 753.505C106.574 752.782 106.831 751.58 106.831 749.9C106.831 748.22 106.574 747.018 106.061 746.295C105.548 745.572 104.766 745.21 103.716 745.21C102.666 745.21 101.884 745.572 101.371 746.295C100.858 747.018 100.601 748.22 100.601 749.9C100.601 751.58 100.858 752.782 101.371 753.505ZM127.881 756.55C127.228 757.413 126.411 758.102 125.431 758.615C124.475 759.105 123.495 759.35 122.491 759.35C120.298 759.35 118.723 758.778 117.766 757.635C116.833 756.492 116.366 754.497 116.366 751.65V740.8H122.946V750.95C122.946 752.303 123.075 753.202 123.331 753.645C123.588 754.065 124.066 754.275 124.766 754.275C125.49 754.275 126.131 753.878 126.691 753.085C127.275 752.292 127.566 751.347 127.566 750.25V740.8H134.216V759H128.091L127.951 756.55H127.881ZM168.139 749.2V759H161.559V749.9C161.559 748.15 161.396 746.983 161.069 746.4C160.766 745.817 160.206 745.525 159.389 745.525C158.666 745.525 158.012 745.922 157.429 746.715C156.869 747.508 156.589 748.453 156.589 749.55V759H149.939V732.75H156.589V742.9H156.659C157.242 742.153 157.989 741.558 158.899 741.115C159.809 740.672 160.731 740.45 161.664 740.45C163.974 740.45 165.631 741.103 166.634 742.41C167.637 743.693 168.139 745.957 168.139 749.2ZM181.491 747.1H182.541C182.541 746.307 182.389 745.758 182.086 745.455C181.783 745.152 181.234 745 180.441 745C177.991 745 175.599 745.525 173.266 746.575L172.391 742.025C174.958 740.975 177.758 740.45 180.791 740.45C183.824 740.45 185.983 741.022 187.266 742.165C188.549 743.285 189.191 745.163 189.191 747.8V754.1C189.191 755.78 189.366 757.413 189.716 759H183.416C183.276 758.207 183.159 757.39 183.066 756.55H182.996C182.366 757.39 181.549 758.067 180.546 758.58C179.543 759.093 178.516 759.35 177.466 759.35C175.669 759.35 174.223 758.86 173.126 757.88C172.053 756.877 171.516 755.5 171.516 753.75C171.516 751.743 172.368 750.133 174.071 748.92C175.798 747.707 178.271 747.1 181.491 747.1ZM177.466 753.05C177.466 754.1 178.049 754.625 179.216 754.625C180.219 754.625 181.024 754.345 181.631 753.785C182.238 753.225 182.541 752.455 182.541 751.475V750.95H181.491C180.161 750.95 179.158 751.148 178.481 751.545C177.804 751.918 177.466 752.42 177.466 753.05ZM201.714 755.15H201.784L204.724 740.8H211.654L206.229 759H197.129L191.704 740.8H198.774L201.714 755.15ZM219.444 748.15H225.359C225.359 745.933 224.367 744.825 222.384 744.825C220.587 744.825 219.607 745.933 219.444 748.15ZM219.514 752C219.91 753.867 221.24 754.8 223.504 754.8C225.254 754.8 226.922 754.392 228.509 753.575L229.909 757.95C227.762 758.883 225.429 759.35 222.909 759.35C219.899 759.35 217.484 758.498 215.664 756.795C213.844 755.092 212.934 752.793 212.934 749.9C212.934 746.983 213.762 744.685 215.419 743.005C217.099 741.302 219.362 740.45 222.209 740.45C225.125 740.45 227.4 741.278 229.034 742.935C230.667 744.568 231.484 746.89 231.484 749.9C231.484 750.53 231.425 751.23 231.309 752H219.514ZM255.605 759.35C253.295 759.35 251.58 758.825 250.46 757.775C249.34 756.702 248.78 755.01 248.78 752.7V746.05H245.105V741.5H248.78V734.85H255.57V741.5H261.205V746.05H255.57V751.65C255.57 752.77 255.698 753.517 255.955 753.89C256.212 754.263 256.678 754.45 257.355 754.45C258.382 754.45 259.432 754.275 260.505 753.925L261.205 758.65C259.478 759.117 257.612 759.35 255.605 759.35ZM283.974 749.2V759H277.394V749.9C277.394 748.15 277.231 746.983 276.904 746.4C276.601 745.817 276.041 745.525 275.224 745.525C274.501 745.525 273.847 745.922 273.264 746.715C272.704 747.508 272.424 748.453 272.424 749.55V759H265.774V732.75H272.424V742.9H272.494C273.077 742.153 273.824 741.558 274.734 741.115C275.644 740.672 276.566 740.45 277.499 740.45C279.809 740.45 281.466 741.103 282.469 742.41C283.472 743.693 283.974 745.957 283.974 749.2ZM293.511 748.15H299.426C299.426 745.933 298.434 744.825 296.451 744.825C294.654 744.825 293.674 745.933 293.511 748.15ZM293.581 752C293.978 753.867 295.308 754.8 297.571 754.8C299.321 754.8 300.989 754.392 302.576 753.575L303.976 757.95C301.829 758.883 299.496 759.35 296.976 759.35C293.966 759.35 291.551 758.498 289.731 756.795C287.911 755.092 287.001 752.793 287.001 749.9C287.001 746.983 287.829 744.685 289.486 743.005C291.166 741.302 293.429 740.45 296.276 740.45C299.193 740.45 301.468 741.278 303.101 742.935C304.734 744.568 305.551 746.89 305.551 749.9C305.551 750.53 305.493 751.23 305.376 752H293.581ZM320.747 759V732.75H327.747V759H320.747ZM338.15 748.15H344.065C344.065 745.933 343.073 744.825 341.09 744.825C339.293 744.825 338.313 745.933 338.15 748.15ZM338.22 752C338.616 753.867 339.946 754.8 342.21 754.8C343.96 754.8 345.628 754.392 347.215 753.575L348.615 757.95C346.468 758.883 344.135 759.35 341.615 759.35C338.605 759.35 336.19 758.498 334.37 756.795C332.55 755.092 331.64 752.793 331.64 749.9C331.64 746.983 332.468 744.685 334.125 743.005C335.805 741.302 338.068 740.45 340.915 740.45C343.831 740.45 346.106 741.278 347.74 742.935C349.373 744.568 350.19 746.89 350.19 749.9C350.19 750.53 350.131 751.23 350.015 752H338.22ZM362.643 747.1H363.693C363.693 746.307 363.542 745.758 363.238 745.455C362.935 745.152 362.387 745 361.593 745C359.143 745 356.752 745.525 354.418 746.575L353.543 742.025C356.11 740.975 358.91 740.45 361.943 740.45C364.977 740.45 367.135 741.022 368.418 742.165C369.702 743.285 370.343 745.163 370.343 747.8V754.1C370.343 755.78 370.518 757.413 370.868 759H364.568C364.428 758.207 364.312 757.39 364.218 756.55H364.148C363.518 757.39 362.702 758.067 361.698 758.58C360.695 759.093 359.668 759.35 358.618 759.35C356.822 759.35 355.375 758.86 354.278 757.88C353.205 756.877 352.668 755.5 352.668 753.75C352.668 751.743 353.52 750.133 355.223 748.92C356.95 747.707 359.423 747.1 362.643 747.1ZM358.618 753.05C358.618 754.1 359.202 754.625 360.368 754.625C361.372 754.625 362.177 754.345 362.783 753.785C363.39 753.225 363.693 752.455 363.693 751.475V750.95H362.643C361.313 750.95 360.31 751.148 359.633 751.545C358.957 751.918 358.618 752.42 358.618 753.05ZM389.123 746.295C387 745.525 385.016 745.14 383.173 745.14C382.17 745.14 381.481 745.233 381.108 745.42C380.735 745.583 380.548 745.852 380.548 746.225C380.548 746.575 380.7 746.843 381.003 747.03C381.306 747.217 381.855 747.357 382.648 747.45C385.518 747.8 387.571 748.477 388.808 749.48C390.068 750.483 390.698 751.848 390.698 753.575C390.698 755.348 389.986 756.76 388.563 757.81C387.163 758.837 385.133 759.35 382.473 759.35C379.323 759.35 376.465 758.767 373.898 757.6L375.123 752.91C377.223 754.03 379.44 754.59 381.773 754.59C383.29 754.59 384.048 754.193 384.048 753.4C384.048 753.097 383.931 752.887 383.698 752.77C383.465 752.653 382.881 752.513 381.948 752.35C379.125 751.907 377.106 751.183 375.893 750.18C374.68 749.153 374.073 747.777 374.073 746.05C374.073 744.3 374.773 742.935 376.173 741.955C377.573 740.952 379.673 740.45 382.473 740.45C385.25 740.45 387.875 740.858 390.348 741.675L389.123 746.295ZM403.364 759.35C401.054 759.35 399.339 758.825 398.219 757.775C397.099 756.702 396.539 755.01 396.539 752.7V746.05H392.864V741.5H396.539V734.85H403.329V741.5H408.964V746.05H403.329V751.65C403.329 752.77 403.457 753.517 403.714 753.89C403.97 754.263 404.437 754.45 405.114 754.45C406.14 754.45 407.19 754.275 408.264 753.925L408.964 758.65C407.237 759.117 405.37 759.35 403.364 759.35ZM433.6 747.1H434.65C434.65 746.307 434.499 745.758 434.195 745.455C433.892 745.152 433.344 745 432.55 745C430.1 745 427.709 745.525 425.375 746.575L424.5 742.025C427.067 740.975 429.867 740.45 432.9 740.45C435.934 740.45 438.092 741.022 439.375 742.165C440.659 743.285 441.3 745.163 441.3 747.8V754.1C441.3 755.78 441.475 757.413 441.825 759H435.525C435.385 758.207 435.269 757.39 435.175 756.55H435.105C434.475 757.39 433.659 758.067 432.655 758.58C431.652 759.093 430.625 759.35 429.575 759.35C427.779 759.35 426.332 758.86 425.235 757.88C424.162 756.877 423.625 755.5 423.625 753.75C423.625 751.743 424.477 750.133 426.18 748.92C427.907 747.707 430.38 747.1 433.6 747.1ZM429.575 753.05C429.575 754.1 430.159 754.625 431.325 754.625C432.329 754.625 433.134 754.345 433.74 753.785C434.347 753.225 434.65 752.455 434.65 751.475V750.95H433.6C432.27 750.95 431.267 751.148 430.59 751.545C429.914 751.918 429.575 752.42 429.575 753.05ZM466.477 759V748.85C466.477 747.45 466.349 746.528 466.092 746.085C465.835 745.642 465.369 745.42 464.692 745.42C464.085 745.42 463.584 745.723 463.187 746.33C462.79 746.913 462.592 747.753 462.592 748.85V759H456.222V748.85C456.222 747.45 456.094 746.528 455.837 746.085C455.604 745.642 455.149 745.42 454.472 745.42C453.865 745.42 453.364 745.723 452.967 746.33C452.57 746.913 452.372 747.753 452.372 748.85V759H445.897V740.8H451.847L451.987 743.25H452.057C452.71 742.387 453.469 741.71 454.332 741.22C455.195 740.707 456.059 740.45 456.922 740.45C458.042 740.45 458.929 740.648 459.582 741.045C460.259 741.418 460.877 742.095 461.437 743.075H461.507C462.51 742.095 463.432 741.418 464.272 741.045C465.112 740.648 466.069 740.45 467.142 740.45C469.149 740.45 470.595 740.998 471.482 742.095C472.392 743.192 472.847 745.093 472.847 747.8V759H466.477ZM478.364 742.97C480.044 741.29 482.412 740.45 485.469 740.45C488.525 740.45 490.894 741.29 492.574 742.97C494.254 744.65 495.094 746.96 495.094 749.9C495.094 752.84 494.254 755.15 492.574 756.83C490.894 758.51 488.525 759.35 485.469 759.35C482.412 759.35 480.044 758.51 478.364 756.83C476.684 755.15 475.844 752.84 475.844 749.9C475.844 746.96 476.684 744.65 478.364 742.97ZM483.124 753.505C483.637 754.228 484.419 754.59 485.469 754.59C486.519 754.59 487.3 754.228 487.814 753.505C488.327 752.782 488.584 751.58 488.584 749.9C488.584 748.22 488.327 747.018 487.814 746.295C487.3 745.572 486.519 745.21 485.469 745.21C484.419 745.21 483.637 745.572 483.124 746.295C482.61 747.018 482.354 748.22 482.354 749.9C482.354 751.58 482.61 752.782 483.124 753.505ZM509.634 756.55C508.981 757.413 508.164 758.102 507.184 758.615C506.228 759.105 505.248 759.35 504.244 759.35C502.051 759.35 500.476 758.778 499.519 757.635C498.586 756.492 498.119 754.497 498.119 751.65V740.8H504.699V750.95C504.699 752.303 504.828 753.202 505.084 753.645C505.341 754.065 505.819 754.275 506.519 754.275C507.243 754.275 507.884 753.878 508.444 753.085C509.028 752.292 509.319 751.347 509.319 750.25V740.8H515.969V759H509.844L509.704 756.55H509.634ZM526.709 743.25C527.363 742.387 528.168 741.71 529.124 741.22C530.104 740.707 531.096 740.45 532.099 740.45C534.409 740.45 536.066 741.103 537.069 742.41C538.073 743.693 538.574 745.957 538.574 749.2V759H531.994V749.9C531.994 748.15 531.831 746.983 531.504 746.4C531.201 745.817 530.641 745.525 529.824 745.525C529.101 745.525 528.448 745.922 527.864 746.715C527.304 747.508 527.024 748.453 527.024 749.55V759H520.374V740.8H526.499L526.639 743.25H526.709ZM551.738 759.35C549.428 759.35 547.713 758.825 546.593 757.775C545.473 756.702 544.913 755.01 544.913 752.7V746.05H541.238V741.5H544.913V734.85H551.703V741.5H557.338V746.05H551.703V751.65C551.703 752.77 551.831 753.517 552.088 753.89C552.344 754.263 552.811 754.45 553.488 754.45C554.514 754.45 555.564 754.275 556.638 753.925L557.338 758.65C555.611 759.117 553.744 759.35 551.738 759.35ZM574.169 742.97C575.849 741.29 578.218 740.45 581.274 740.45C584.331 740.45 586.699 741.29 588.379 742.97C590.059 744.65 590.899 746.96 590.899 749.9C590.899 752.84 590.059 755.15 588.379 756.83C586.699 758.51 584.331 759.35 581.274 759.35C578.218 759.35 575.849 758.51 574.169 756.83C572.489 755.15 571.649 752.84 571.649 749.9C571.649 746.96 572.489 744.65 574.169 742.97ZM578.929 753.505C579.443 754.228 580.224 754.59 581.274 754.59C582.324 754.59 583.106 754.228 583.619 753.505C584.133 752.782 584.389 751.58 584.389 749.9C584.389 748.22 584.133 747.018 583.619 746.295C583.106 745.572 582.324 745.21 581.274 745.21C580.224 745.21 579.443 745.572 578.929 746.295C578.416 747.018 578.159 748.22 578.159 749.9C578.159 751.58 578.416 752.782 578.929 753.505ZM604.783 733.1C606.277 733.1 607.852 733.275 609.508 733.625L608.633 738.525C607.793 738.175 606.918 738 606.008 738C605.192 738 604.632 738.198 604.328 738.595C604.025 738.968 603.873 739.703 603.873 740.8V741.5H609.158V746.05H603.873V759H597.083V746.05H593.058V741.5H597.083V740.8C597.083 738.303 597.748 736.402 599.078 735.095C600.408 733.765 602.31 733.1 604.783 733.1ZM57.4352 803.295L58.8352 807.95C56.8285 808.883 54.7285 809.35 52.5352 809.35C49.3152 809.35 46.7602 808.498 44.8702 806.795C42.9802 805.092 42.0352 802.793 42.0352 799.9C42.0352 796.983 42.9568 794.685 44.8002 793.005C46.6668 791.302 49.2452 790.45 52.5352 790.45C54.7985 790.45 56.8985 790.917 58.8352 791.85L57.4352 796.575C55.9885 795.688 54.4718 795.245 52.8852 795.245C51.5552 795.245 50.5168 795.642 49.7702 796.435C49.0468 797.228 48.6852 798.383 48.6852 799.9C48.6852 801.37 49.0702 802.525 49.8402 803.365C50.6102 804.205 51.6252 804.625 52.8852 804.625C54.4718 804.625 55.9885 804.182 57.4352 803.295ZM64.1743 792.97C65.8543 791.29 68.2226 790.45 71.2793 790.45C74.336 790.45 76.7043 791.29 78.3843 792.97C80.0643 794.65 80.9043 796.96 80.9043 799.9C80.9043 802.84 80.0643 805.15 78.3843 806.83C76.7043 808.51 74.336 809.35 71.2793 809.35C68.2226 809.35 65.8543 808.51 64.1743 806.83C62.4943 805.15 61.6543 802.84 61.6543 799.9C61.6543 796.96 62.4943 794.65 64.1743 792.97ZM68.9343 803.505C69.4477 804.228 70.2293 804.59 71.2793 804.59C72.3293 804.59 73.111 804.228 73.6243 803.505C74.1377 802.782 74.3943 801.58 74.3943 799.9C74.3943 798.22 74.1377 797.018 73.6243 796.295C73.111 795.572 72.3293 795.21 71.2793 795.21C70.2293 795.21 69.4477 795.572 68.9343 796.295C68.421 797.018 68.1643 798.22 68.1643 799.9C68.1643 801.58 68.421 802.782 68.9343 803.505ZM84.8049 787.65V782.75H91.8049V787.65H84.8049ZM84.8049 809V790.8H91.8049V809H84.8049ZM103.257 793.25C103.911 792.387 104.716 791.71 105.672 791.22C106.652 790.707 107.644 790.45 108.647 790.45C110.957 790.45 112.614 791.103 113.617 792.41C114.621 793.693 115.122 795.957 115.122 799.2V809H108.542V799.9C108.542 798.15 108.379 796.983 108.052 796.4C107.749 795.817 107.189 795.525 106.372 795.525C105.649 795.525 104.996 795.922 104.412 796.715C103.852 797.508 103.572 798.453 103.572 799.55V809H96.9223V790.8H103.047L103.187 793.25H103.257ZM133.869 796.295C131.746 795.525 129.762 795.14 127.919 795.14C126.916 795.14 126.227 795.233 125.854 795.42C125.481 795.583 125.294 795.852 125.294 796.225C125.294 796.575 125.446 796.843 125.749 797.03C126.052 797.217 126.601 797.357 127.394 797.45C130.264 797.8 132.317 798.477 133.554 799.48C134.814 800.483 135.444 801.848 135.444 803.575C135.444 805.348 134.732 806.76 133.309 807.81C131.909 808.837 129.879 809.35 127.219 809.35C124.069 809.35 121.211 808.767 118.644 807.6L119.869 802.91C121.969 804.03 124.186 804.59 126.519 804.59C128.036 804.59 128.794 804.193 128.794 803.4C128.794 803.097 128.677 802.887 128.444 802.77C128.211 802.653 127.627 802.513 126.694 802.35C123.871 801.907 121.852 801.183 120.639 800.18C119.426 799.153 118.819 797.777 118.819 796.05C118.819 794.3 119.519 792.935 120.919 791.955C122.319 790.952 124.419 790.45 127.219 790.45C129.996 790.45 132.621 790.858 135.094 791.675L133.869 796.295ZM143.56 812.85H137.96L140.06 801.65H147.76L143.56 812.85ZM172.753 809.35C170.443 809.35 168.728 808.825 167.608 807.775C166.488 806.702 165.928 805.01 165.928 802.7V796.05H162.253V791.5H165.928V784.85H172.718V791.5H178.353V796.05H172.718V801.65C172.718 802.77 172.847 803.517 173.103 803.89C173.36 804.263 173.827 804.45 174.503 804.45C175.53 804.45 176.58 804.275 177.653 803.925L178.353 808.65C176.627 809.117 174.76 809.35 172.753 809.35ZM191.506 797.1H192.556C192.556 796.307 192.404 795.758 192.101 795.455C191.797 795.152 191.249 795 190.456 795C188.006 795 185.614 795.525 183.281 796.575L182.406 792.025C184.972 790.975 187.772 790.45 190.806 790.45C193.839 790.45 195.997 791.022 197.281 792.165C198.564 793.285 199.206 795.163 199.206 797.8V804.1C199.206 805.78 199.381 807.413 199.731 809H193.431C193.291 808.207 193.174 807.39 193.081 806.55H193.011C192.381 807.39 191.564 808.067 190.561 808.58C189.557 809.093 188.531 809.35 187.481 809.35C185.684 809.35 184.237 808.86 183.141 807.88C182.067 806.877 181.531 805.5 181.531 803.75C181.531 801.743 182.382 800.133 184.086 798.92C185.812 797.707 188.286 797.1 191.506 797.1ZM187.481 803.05C187.481 804.1 188.064 804.625 189.231 804.625C190.234 804.625 191.039 804.345 191.646 803.785C192.252 803.225 192.556 802.455 192.556 801.475V800.95H191.506C190.176 800.95 189.172 801.148 188.496 801.545C187.819 801.918 187.481 802.42 187.481 803.05ZM210.697 801.65H210.627V809H203.977V782.75H210.627V797.45H210.697L215.527 790.8H223.052L216.052 799.55L223.227 809H215.702L210.697 801.65ZM230.484 798.15H236.399C236.399 795.933 235.407 794.825 233.424 794.825C231.627 794.825 230.647 795.933 230.484 798.15ZM230.554 802C230.95 803.867 232.28 804.8 234.544 804.8C236.294 804.8 237.962 804.392 239.549 803.575L240.949 807.95C238.802 808.883 236.469 809.35 233.949 809.35C230.939 809.35 228.524 808.498 226.704 806.795C224.884 805.092 223.974 802.793 223.974 799.9C223.974 796.983 224.802 794.685 226.459 793.005C228.139 791.302 230.402 790.45 233.249 790.45C236.165 790.45 238.44 791.278 240.074 792.935C241.707 794.568 242.524 796.89 242.524 799.9C242.524 800.53 242.465 801.23 242.349 802H230.554ZM268.465 793.95H268.815C270.728 793.95 272.28 794.592 273.47 795.875C274.683 797.135 275.29 798.827 275.29 800.95C275.29 803.68 274.45 805.768 272.77 807.215C271.09 808.638 268.663 809.35 265.49 809.35C262.363 809.35 259.447 808.65 256.74 807.25L258.455 802C260.905 803.213 263.017 803.82 264.79 803.82C265.98 803.82 266.89 803.587 267.52 803.12C268.15 802.63 268.465 801.965 268.465 801.125C268.465 800.425 268.302 799.9 267.975 799.55C267.648 799.2 267.03 798.943 266.12 798.78C265.233 798.593 263.915 798.5 262.165 798.5H260.765V793.95L266.715 789.12V789.05H257.265V783.45H274.94V789.05L268.465 793.88V793.95ZM305.443 803.295L306.843 807.95C304.836 808.883 302.736 809.35 300.543 809.35C297.323 809.35 294.768 808.498 292.878 806.795C290.988 805.092 290.043 802.793 290.043 799.9C290.043 796.983 290.965 794.685 292.808 793.005C294.675 791.302 297.253 790.45 300.543 790.45C302.806 790.45 304.906 790.917 306.843 791.85L305.443 796.575C303.996 795.688 302.48 795.245 300.893 795.245C299.563 795.245 298.525 795.642 297.778 796.435C297.055 797.228 296.693 798.383 296.693 799.9C296.693 801.37 297.078 802.525 297.848 803.365C298.618 804.205 299.633 804.625 300.893 804.625C302.48 804.625 303.996 804.182 305.443 803.295ZM312.182 792.97C313.862 791.29 316.23 790.45 319.287 790.45C322.344 790.45 324.712 791.29 326.392 792.97C328.072 794.65 328.912 796.96 328.912 799.9C328.912 802.84 328.072 805.15 326.392 806.83C324.712 808.51 322.344 809.35 319.287 809.35C316.23 809.35 313.862 808.51 312.182 806.83C310.502 805.15 309.662 802.84 309.662 799.9C309.662 796.96 310.502 794.65 312.182 792.97ZM316.942 803.505C317.455 804.228 318.237 804.59 319.287 804.59C320.337 804.59 321.119 804.228 321.632 803.505C322.145 802.782 322.402 801.58 322.402 799.9C322.402 798.22 322.145 797.018 321.632 796.295C321.119 795.572 320.337 795.21 319.287 795.21C318.237 795.21 317.455 795.572 316.942 796.295C316.429 797.018 316.172 798.22 316.172 799.9C316.172 801.58 316.429 802.782 316.942 803.505ZM332.813 787.65V782.75H339.813V787.65H332.813ZM332.813 809V790.8H339.813V809H332.813ZM351.265 793.25C351.918 792.387 352.723 791.71 353.68 791.22C354.66 790.707 355.652 790.45 356.655 790.45C358.965 790.45 360.622 791.103 361.625 792.41C362.628 793.693 363.13 795.957 363.13 799.2V809H356.55V799.9C356.55 798.15 356.387 796.983 356.06 796.4C355.757 795.817 355.197 795.525 354.38 795.525C353.657 795.525 353.003 795.922 352.42 796.715C351.86 797.508 351.58 798.453 351.58 799.55V809H344.93V790.8H351.055L351.195 793.25H351.265ZM381.877 796.295C379.754 795.525 377.77 795.14 375.927 795.14C374.924 795.14 374.235 795.233 373.862 795.42C373.489 795.583 373.302 795.852 373.302 796.225C373.302 796.575 373.454 796.843 373.757 797.03C374.06 797.217 374.609 797.357 375.402 797.45C378.272 797.8 380.325 798.477 381.562 799.48C382.822 800.483 383.452 801.848 383.452 803.575C383.452 805.348 382.74 806.76 381.317 807.81C379.917 808.837 377.887 809.35 375.227 809.35C372.077 809.35 369.219 808.767 366.652 807.6L367.877 802.91C369.977 804.03 372.194 804.59 374.527 804.59C376.044 804.59 376.802 804.193 376.802 803.4C376.802 803.097 376.685 802.887 376.452 802.77C376.219 802.653 375.635 802.513 374.702 802.35C371.879 801.907 369.86 801.183 368.647 800.18C367.434 799.153 366.827 797.777 366.827 796.05C366.827 794.3 367.527 792.935 368.927 791.955C370.327 790.952 372.427 790.45 375.227 790.45C378.004 790.45 380.629 790.858 383.102 791.675L381.877 796.295ZM392.609 812.85H387.009L389.109 801.65H396.809L392.609 812.85ZM389.109 796.05V788.7H396.809V796.05H389.109ZM415.576 792.97C417.256 791.29 419.624 790.45 422.681 790.45C425.737 790.45 428.106 791.29 429.786 792.97C431.466 794.65 432.306 796.96 432.306 799.9C432.306 802.84 431.466 805.15 429.786 806.83C428.106 808.51 425.737 809.35 422.681 809.35C419.624 809.35 417.256 808.51 415.576 806.83C413.896 805.15 413.056 802.84 413.056 799.9C413.056 796.96 413.896 794.65 415.576 792.97ZM420.336 803.505C420.849 804.228 421.631 804.59 422.681 804.59C423.731 804.59 424.512 804.228 425.026 803.505C425.539 802.782 425.796 801.58 425.796 799.9C425.796 798.22 425.539 797.018 425.026 796.295C424.512 795.572 423.731 795.21 422.681 795.21C421.631 795.21 420.849 795.572 420.336 796.295C419.822 797.018 419.566 798.22 419.566 799.9C419.566 801.58 419.822 802.782 420.336 803.505ZM444.789 809.35C442.479 809.35 440.764 808.825 439.644 807.775C438.524 806.702 437.964 805.01 437.964 802.7V796.05H434.289V791.5H437.964V784.85H444.754V791.5H450.389V796.05H444.754V801.65C444.754 802.77 444.883 803.517 445.139 803.89C445.396 804.263 445.863 804.45 446.539 804.45C447.566 804.45 448.616 804.275 449.689 803.925L450.389 808.65C448.663 809.117 446.796 809.35 444.789 809.35ZM473.159 799.2V809H466.579V799.9C466.579 798.15 466.415 796.983 466.089 796.4C465.785 795.817 465.225 795.525 464.409 795.525C463.685 795.525 463.032 795.922 462.449 796.715C461.889 797.508 461.609 798.453 461.609 799.55V809H454.959V782.75H461.609V792.9H461.679C462.262 792.153 463.009 791.558 463.919 791.115C464.829 790.672 465.75 790.45 466.684 790.45C468.994 790.45 470.65 791.103 471.654 792.41C472.657 793.693 473.159 795.957 473.159 799.2ZM482.696 798.15H488.611C488.611 795.933 487.619 794.825 485.636 794.825C483.839 794.825 482.859 795.933 482.696 798.15ZM482.766 802C483.162 803.867 484.492 804.8 486.756 804.8C488.506 804.8 490.174 804.392 491.761 803.575L493.161 807.95C491.014 808.883 488.681 809.35 486.161 809.35C483.151 809.35 480.736 808.498 478.916 806.795C477.096 805.092 476.186 802.793 476.186 799.9C476.186 796.983 477.014 794.685 478.671 793.005C480.351 791.302 482.614 790.45 485.461 790.45C488.377 790.45 490.652 791.278 492.286 792.935C493.919 794.568 494.736 796.89 494.736 799.9C494.736 800.53 494.677 801.23 494.561 802H482.766ZM512.789 790.45V795.7C510.176 795.7 508.204 796.19 506.874 797.17C505.544 798.15 504.879 799.527 504.879 801.3V809H498.089V790.8H504.354L504.389 794.3H504.459C506.466 791.733 509.243 790.45 512.789 790.45ZM535.272 803.75H535.342L537.057 790.8H543.462L539.262 809H531.562L529.497 796.4H529.427L527.362 809H519.662L515.462 790.8H522.007L523.722 803.75H523.792L525.857 790.8H533.207L535.272 803.75ZM547.53 787.65V782.75H554.53V787.65H547.53ZM547.53 809V790.8H554.53V809H547.53ZM574.172 796.295C572.049 795.525 570.065 795.14 568.222 795.14C567.219 795.14 566.53 795.233 566.157 795.42C565.784 795.583 565.597 795.852 565.597 796.225C565.597 796.575 565.749 796.843 566.052 797.03C566.355 797.217 566.904 797.357 567.697 797.45C570.567 797.8 572.62 798.477 573.857 799.48C575.117 800.483 575.747 801.848 575.747 803.575C575.747 805.348 575.035 806.76 573.612 807.81C572.212 808.837 570.182 809.35 567.522 809.35C564.372 809.35 561.514 808.767 558.947 807.6L560.172 802.91C562.272 804.03 564.489 804.59 566.822 804.59C568.339 804.59 569.097 804.193 569.097 803.4C569.097 803.097 568.98 802.887 568.747 802.77C568.514 802.653 567.93 802.513 566.997 802.35C564.174 801.907 562.155 801.183 560.942 800.18C559.729 799.153 559.122 797.777 559.122 796.05C559.122 794.3 559.822 792.935 561.222 791.955C562.622 790.952 564.722 790.45 567.522 790.45C570.299 790.45 572.924 790.858 575.397 791.675L574.172 796.295ZM584.756 798.15H590.671C590.671 795.933 589.679 794.825 587.696 794.825C585.899 794.825 584.919 795.933 584.756 798.15ZM584.826 802C585.223 803.867 586.553 804.8 588.816 804.8C590.566 804.8 592.234 804.392 593.821 803.575L595.221 807.95C593.074 808.883 590.741 809.35 588.221 809.35C585.211 809.35 582.796 808.498 580.976 806.795C579.156 805.092 578.246 802.793 578.246 799.9C578.246 796.983 579.074 794.685 580.731 793.005C582.411 791.302 584.674 790.45 587.521 790.45C590.438 790.45 592.713 791.278 594.346 792.935C595.979 794.568 596.796 796.89 596.796 799.9C596.796 800.53 596.738 801.23 596.621 802H584.826ZM94.1913 859.35C91.8813 859.35 90.1663 858.825 89.0463 857.775C87.9263 856.702 87.3663 855.01 87.3663 852.7V846.05H83.6913V841.5H87.3663V834.85H94.1563V841.5H99.7913V846.05H94.1563V851.65C94.1563 852.77 94.2847 853.517 94.5413 853.89C94.798 854.263 95.2647 854.45 95.9413 854.45C96.968 854.45 98.018 854.275 99.0913 853.925L99.7913 858.65C98.0647 859.117 96.198 859.35 94.1913 859.35ZM112.944 847.1H113.994C113.994 846.307 113.842 845.758 113.539 845.455C113.235 845.152 112.687 845 111.894 845C109.444 845 107.052 845.525 104.719 846.575L103.844 842.025C106.41 840.975 109.21 840.45 112.244 840.45C115.277 840.45 117.435 841.022 118.719 842.165C120.002 843.285 120.644 845.163 120.644 847.8V854.1C120.644 855.78 120.819 857.413 121.169 859H114.869C114.729 858.207 114.612 857.39 114.519 856.55H114.449C113.819 857.39 113.002 858.067 111.999 858.58C110.995 859.093 109.969 859.35 108.919 859.35C107.122 859.35 105.675 858.86 104.579 857.88C103.505 856.877 102.969 855.5 102.969 853.75C102.969 851.743 103.82 850.133 105.524 848.92C107.25 847.707 109.724 847.1 112.944 847.1ZM108.919 853.05C108.919 854.1 109.502 854.625 110.669 854.625C111.672 854.625 112.477 854.345 113.084 853.785C113.69 853.225 113.994 852.455 113.994 851.475V850.95H112.944C111.614 850.95 110.61 851.148 109.934 851.545C109.257 851.918 108.919 852.42 108.919 853.05ZM132.135 851.65H132.065V859H125.415V832.75H132.065V847.45H132.135L136.965 840.8H144.49L137.49 849.55L144.665 859H137.14L132.135 851.65ZM151.922 848.15H157.837C157.837 845.933 156.845 844.825 154.862 844.825C153.065 844.825 152.085 845.933 151.922 848.15ZM151.992 852C152.388 853.867 153.718 854.8 155.982 854.8C157.732 854.8 159.4 854.392 160.987 853.575L162.387 857.95C160.24 858.883 157.907 859.35 155.387 859.35C152.377 859.35 149.962 858.498 148.142 856.795C146.322 855.092 145.412 852.793 145.412 849.9C145.412 846.983 146.24 844.685 147.897 843.005C149.577 841.302 151.84 840.45 154.687 840.45C157.603 840.45 159.878 841.278 161.512 842.935C163.145 844.568 163.962 846.89 163.962 849.9C163.962 850.53 163.903 851.23 163.787 852H151.992ZM178.878 853.4C182.005 851.043 184.35 849.153 185.913 847.73C187.476 846.283 188.503 845.128 188.993 844.265C189.483 843.402 189.728 842.48 189.728 841.5C189.728 839.75 188.736 838.875 186.753 838.875C185.003 838.875 182.728 839.75 179.928 841.5L178.178 835.9C179.368 835.107 180.873 834.442 182.693 833.905C184.513 833.368 186.216 833.1 187.803 833.1C190.72 833.1 192.96 833.788 194.523 835.165C196.11 836.518 196.903 838.397 196.903 840.8C196.903 842.713 196.296 844.533 195.083 846.26C193.87 847.987 191.501 850.343 187.978 853.33V853.4H197.078V859H178.878V853.4ZM202.263 859V851.65H209.963V859H202.263ZM234.957 838.35C234.444 838.35 233.919 838.408 233.382 838.525V843.425H234.432C237.115 843.425 238.457 842.55 238.457 840.8C238.457 839.167 237.29 838.35 234.957 838.35ZM245.457 851.65C245.457 854.287 244.594 856.235 242.867 857.495C241.164 858.732 238.41 859.35 234.607 859.35C231.76 859.35 229.077 859.175 226.557 858.825V833.625C228.96 833.275 231.527 833.1 234.257 833.1C241.257 833.1 244.757 835.317 244.757 839.75C244.757 841.243 244.279 842.515 243.322 843.565C242.365 844.592 241.094 845.233 239.507 845.49V845.56C241.304 845.793 242.739 846.482 243.812 847.625C244.909 848.768 245.457 850.11 245.457 851.65ZM238.982 850.95C238.982 849.2 237.699 848.325 235.132 848.325H233.382V853.925C233.919 854.042 234.444 854.1 234.957 854.1C236.357 854.1 237.372 853.843 238.002 853.33C238.655 852.817 238.982 852.023 238.982 850.95ZM249.329 859V832.75H256.329V859H249.329ZM262.741 842.97C264.421 841.29 266.79 840.45 269.846 840.45C272.903 840.45 275.271 841.29 276.951 842.97C278.631 844.65 279.471 846.96 279.471 849.9C279.471 852.84 278.631 855.15 276.951 856.83C275.271 858.51 272.903 859.35 269.846 859.35C266.79 859.35 264.421 858.51 262.741 856.83C261.061 855.15 260.221 852.84 260.221 849.9C260.221 846.96 261.061 844.65 262.741 842.97ZM267.501 853.505C268.015 854.228 268.796 854.59 269.846 854.59C270.896 854.59 271.678 854.228 272.191 853.505C272.705 852.782 272.961 851.58 272.961 849.9C272.961 848.22 272.705 847.018 272.191 846.295C271.678 845.572 270.896 845.21 269.846 845.21C268.796 845.21 268.015 845.572 267.501 846.295C266.988 847.018 266.731 848.22 266.731 849.9C266.731 851.58 266.988 852.782 267.501 853.505ZM297.189 853.295L298.589 857.95C296.582 858.883 294.482 859.35 292.289 859.35C289.069 859.35 286.514 858.498 284.624 856.795C282.734 855.092 281.789 852.793 281.789 849.9C281.789 846.983 282.71 844.685 284.554 843.005C286.42 841.302 288.999 840.45 292.289 840.45C294.552 840.45 296.652 840.917 298.589 841.85L297.189 846.575C295.742 845.688 294.225 845.245 292.639 845.245C291.309 845.245 290.27 845.642 289.524 846.435C288.8 847.228 288.439 848.383 288.439 849.9C288.439 851.37 288.824 852.525 289.594 853.365C290.364 854.205 291.379 854.625 292.639 854.625C294.225 854.625 295.742 854.182 297.189 853.295ZM309.528 851.65H309.458V859H302.808V832.75H309.458V847.45H309.528L314.358 840.8H321.883L314.883 849.55L322.058 859H314.533L309.528 851.65ZM338.896 846.295C336.773 845.525 334.789 845.14 332.946 845.14C331.943 845.14 331.254 845.233 330.881 845.42C330.508 845.583 330.321 845.852 330.321 846.225C330.321 846.575 330.473 846.843 330.776 847.03C331.079 847.217 331.628 847.357 332.421 847.45C335.291 847.8 337.344 848.477 338.581 849.48C339.841 850.483 340.471 851.848 340.471 853.575C340.471 855.348 339.759 856.76 338.336 857.81C336.936 858.837 334.906 859.35 332.246 859.35C329.096 859.35 326.238 858.767 323.671 857.6L324.896 852.91C326.996 854.03 329.213 854.59 331.546 854.59C333.063 854.59 333.821 854.193 333.821 853.4C333.821 853.097 333.704 852.887 333.471 852.77C333.238 852.653 332.654 852.513 331.721 852.35C328.898 851.907 326.879 851.183 325.666 850.18C324.453 849.153 323.846 847.777 323.846 846.05C323.846 844.3 324.546 842.935 325.946 841.955C327.346 840.952 329.446 840.45 332.246 840.45C335.023 840.45 337.648 840.858 340.121 841.675L338.896 846.295ZM366.363 833.1C367.856 833.1 369.431 833.275 371.088 833.625L370.213 838.525C369.373 838.175 368.498 838 367.588 838C366.771 838 366.211 838.198 365.908 838.595C365.604 838.968 365.453 839.703 365.453 840.8V841.5H370.738V846.05H365.453V859H358.663V846.05H354.638V841.5H358.663V840.8C358.663 838.303 359.328 836.402 360.658 835.095C361.988 833.765 363.889 833.1 366.363 833.1ZM375.227 842.97C376.907 841.29 379.275 840.45 382.332 840.45C385.388 840.45 387.757 841.29 389.437 842.97C391.117 844.65 391.957 846.96 391.957 849.9C391.957 852.84 391.117 855.15 389.437 856.83C387.757 858.51 385.388 859.35 382.332 859.35C379.275 859.35 376.907 858.51 375.227 856.83C373.547 855.15 372.707 852.84 372.707 849.9C372.707 846.96 373.547 844.65 375.227 842.97ZM379.987 853.505C380.5 854.228 381.282 854.59 382.332 854.59C383.382 854.59 384.163 854.228 384.677 853.505C385.19 852.782 385.447 851.58 385.447 849.9C385.447 848.22 385.19 847.018 384.677 846.295C384.163 845.572 383.382 845.21 382.332 845.21C381.282 845.21 380.5 845.572 379.987 846.295C379.473 847.018 379.217 848.22 379.217 849.9C379.217 851.58 379.473 852.782 379.987 853.505ZM409.857 840.45V845.7C407.244 845.7 405.272 846.19 403.942 847.17C402.612 848.15 401.947 849.527 401.947 851.3V859H395.157V840.8H401.422L401.457 844.3H401.527C403.534 841.733 406.31 840.45 409.857 840.45ZM418.181 848.15H424.096C424.096 845.933 423.105 844.825 421.121 844.825C419.325 844.825 418.345 845.933 418.181 848.15ZM418.251 852C418.648 853.867 419.978 854.8 422.241 854.8C423.991 854.8 425.66 854.392 427.246 853.575L428.646 857.95C426.5 858.883 424.166 859.35 421.646 859.35C418.636 859.35 416.221 858.498 414.401 856.795C412.581 855.092 411.671 852.793 411.671 849.9C411.671 846.983 412.5 844.685 414.156 843.005C415.836 841.302 418.1 840.45 420.946 840.45C423.863 840.45 426.138 841.278 427.771 842.935C429.405 844.568 430.221 846.89 430.221 849.9C430.221 850.53 430.163 851.23 430.046 852H418.251ZM434.275 837.65V832.75H441.275V837.65H434.275ZM434.275 859V840.8H441.275V859H434.275ZM457.768 856.2H457.733C456.379 857.833 454.641 858.65 452.518 858.65C450.441 858.65 448.726 857.845 447.373 856.235C446.019 854.602 445.342 852.373 445.342 849.55C445.342 846.68 445.996 844.452 447.303 842.865C448.609 841.255 450.348 840.45 452.518 840.45C454.594 840.45 456.391 841.383 457.908 843.25H457.978L458.118 840.8H464.243V856.9C464.243 860.237 463.321 862.757 461.478 864.46C459.634 866.187 456.939 867.05 453.393 867.05C451.153 867.05 449.053 866.7 447.093 866L448.143 861.31C449.776 861.987 451.409 862.325 453.043 862.325C454.746 862.325 455.959 861.917 456.683 861.1C457.406 860.307 457.768 858.907 457.768 856.9V856.2ZM451.643 849.55C451.643 850.88 451.911 851.918 452.448 852.665C453.008 853.388 453.731 853.75 454.618 853.75C455.528 853.75 456.251 853.412 456.788 852.735C457.324 852.035 457.593 851.032 457.593 849.725V849.375C457.593 848.092 457.324 847.1 456.788 846.4C456.251 845.7 455.528 845.35 454.618 845.35C453.684 845.35 452.949 845.712 452.413 846.435C451.899 847.135 451.643 848.173 451.643 849.55ZM474.978 843.25C475.632 842.387 476.437 841.71 477.393 841.22C478.373 840.707 479.365 840.45 480.368 840.45C482.678 840.45 484.335 841.103 485.338 842.41C486.342 843.693 486.843 845.957 486.843 849.2V859H480.263V849.9C480.263 848.15 480.1 846.983 479.773 846.4C479.47 845.817 478.91 845.525 478.093 845.525C477.37 845.525 476.717 845.922 476.133 846.715C475.573 847.508 475.293 848.453 475.293 849.55V859H468.643V840.8H474.768L474.908 843.25H474.978ZM511.308 847.1H512.358C512.358 846.307 512.206 845.758 511.903 845.455C511.6 845.152 511.051 845 510.258 845C507.808 845 505.416 845.525 503.083 846.575L502.208 842.025C504.775 840.975 507.575 840.45 510.608 840.45C513.641 840.45 515.8 841.022 517.083 842.165C518.366 843.285 519.008 845.163 519.008 847.8V854.1C519.008 855.78 519.183 857.413 519.533 859H513.233C513.093 858.207 512.976 857.39 512.883 856.55H512.813C512.183 857.39 511.366 858.067 510.363 858.58C509.36 859.093 508.333 859.35 507.283 859.35C505.486 859.35 504.04 858.86 502.943 857.88C501.87 856.877 501.333 855.5 501.333 853.75C501.333 851.743 502.185 850.133 503.888 848.92C505.615 847.707 508.088 847.1 511.308 847.1ZM507.283 853.05C507.283 854.1 507.866 854.625 509.033 854.625C510.036 854.625 510.841 854.345 511.448 853.785C512.055 853.225 512.358 852.455 512.358 851.475V850.95H511.308C509.978 850.95 508.975 851.148 508.298 851.545C507.621 851.918 507.283 852.42 507.283 853.05ZM524.304 837.65V832.75H531.304V837.65H524.304ZM524.304 859V840.8H531.304V859H524.304ZM535.372 849.9C535.372 846.89 536.013 844.568 537.297 842.935C538.603 841.278 540.353 840.45 542.547 840.45C544.53 840.45 546.198 841.267 547.552 842.9H547.622V832.75H554.272V859H548.147L548.007 856.55H547.937C546.467 858.417 544.67 859.35 542.547 859.35C540.447 859.35 538.72 858.51 537.367 856.83C536.037 855.15 535.372 852.84 535.372 849.9ZM541.672 849.9C541.672 851.3 541.952 852.385 542.512 853.155C543.072 853.902 543.783 854.275 544.647 854.275C545.557 854.275 546.28 853.913 546.817 853.19C547.353 852.467 547.622 851.428 547.622 850.075V849.725C547.622 848.395 547.353 847.368 546.817 846.645C546.28 845.898 545.557 845.525 544.647 845.525C543.713 845.525 542.978 845.898 542.442 846.645C541.928 847.368 541.672 848.453 541.672 849.9Z" fill="white"/>
<defs>
<filter id="filter0_d_619_78" x="-293.9" y="-48.9" width="1048.8" height="1152.3" filterUnits="userSpaceOnUse" color-interpolation-filters="sRGB">
<feFlood flood-opacity="0" result="BackgroundImageFix"/>
<feColorMatrix in="SourceAlpha" type="matrix" values="0 0 0 0 0 0 0 0 0 0 0 0 0 0 0 0 0 0 127 0" result="hardAlpha"/>
<feOffset/>
<feGaussianBlur stdDeviation="34.95"/>
<feComposite in2="hardAlpha" operator="out"/>
<feColorMatrix type="matrix" values="0 0 0 0 0 0 0 0 0 0 0 0 0 0 0 0 0 0 0.15 0"/>
<feBlend mode="normal" in2="BackgroundImageFix" result="effect1_dropShadow_619_78"/>
<feBlend mode="normal" in="SourceGraphic" in2="effect1_dropShadow_619_78" result="shape"/>
</filter>
<linearGradient id="paint0_linear_619_78" x1="216.768" y1="139.5" x2="216.768" y2="1033.5" gradientUnits="userSpaceOnUse">
<stop stop-color="#1B5FE4" stop-opacity="0.97"/>
<stop offset="1" stop-color="#204DA5" stop-opacity="0.54"/>
</linearGradient>
</defs>
</svg>
